<svg xmlns="http://www.w3.org/2000/svg" width="447" height="734" fill="none" viewBox="0 0 447 734">
  <path fill="#FFC700" stroke="#000" d="m150 60 11.2-59h47.6L220 60h-70Z"/>
  <path fill="#FFC700" d="M306 59.941 317.2 1h47.6L376 59.941h-70Z"/>
  <path stroke="#000" d="M376 59.941h-70L317.2 1h47.6L376 59.941Zm0 0V168"/>
  <path fill="#FFC700" stroke="#000" d="M72 60 83.2 1h47.6L142 60H72ZM228 60l11.2-59h47.6L298 60h-70ZM430 219.397 357 290V71l73 38.57v109.827Z"/>
  <path fill="#FFD749" stroke="#000" d="M348.379 263 97.935 276.352 8 687.602 105.68 733h255.607L431 687.602 348.379 263Z"/>
  <path fill="#FFC700" stroke="#000" d="M348.379 263 97.936 276.068 8 678.568 105.682 723h255.607L431 678.568 348.379 263Z"/>
  <path fill="#A88300" stroke="#000" d="M253.791 362 291 502.5 253.791 643h-63.786L149 502.5 190.005 362h63.786Z"/>
  <path fill="#D8A800" stroke="#000" d="M157 308.316 220 247l63 61.316v105.112L220 481l-63-67.572V308.316Z"/>
  <path fill="#FFD749" stroke="#000" d="m435.562 627.298-41.306-202.499-111.954 15.035 31.049 216.971 122.211-29.507Z"/>
  <path fill="#FFC700" stroke="#000" d="M428.065 618.905 390.78 436.114l-101.059 13.571 28.027 195.855 110.317-26.635Z"/>
  <path fill="#D8A800" stroke="#000" d="m429.475 596.464-30.492-155.048-83.31 11.647 22.844 166.145 90.958-22.744Z"/>
  <path fill="#FFD749" stroke="#000" d="m7.4 626.016 44.64-201.79 111.691 16.879-34.624 216.429L7.4 626.016Z"/>
  <path fill="#FFC700" stroke="#000" d="m14.253 618.593 40.74-184.16 101.933 15.405-31.599 197.52-111.074-28.765Z"/>
  <path fill="#D8A800" stroke="#000" d="m13.704 595.875 36.427-159.811 85.922 14.688L107.2 622.308l-93.496-26.433Z"/>
  <path fill="#FFD749" stroke="#000" d="m275.5 475.5-24-65 24-19v-68l92-55 44 175-136 32Z"/>
  <path fill="#FFC700" stroke="#000" d="M281.45 467 260 409.85l21.45-16.705V313.5l82.225-28.5L403 438.865 281.45 467Z"/>
  <path fill="#FFD749" stroke="#000" d="M165.95 476 188 409.116l-22.05-19.551v-69.971L81.425 263 41 443.072 165.95 476Z"/>
  <path fill="#FFC700" stroke="#000" d="M158.95 467 178 408.908l-19.05-16.98V310.5L85.925 282 51 438.401 158.95 467Z"/>
  <path fill="#FFD749" stroke="#000" d="M378 275.765 322.5 325H251l-18-15.5h-27.5L188 325h-67l-49-40.429V61.612L94 44h252l32 17.612v214.153Z"/>
  <path fill="#FFC700" stroke="#000" d="M378 269.991 322.5 318H251l-18-15.114h-27.5L188 318h-67l-49-39.422V61.174L94 44h252l32 17.174V269.99Z"/>
  <path fill="#FFD749" stroke="#000" d="M303 74.5 330 50l27 24.5v42l-27 27-27-27v-42ZM229 74.5 256 50l27 24.5v42l-27 27-27-27v-42ZM155 74.5 182 50l27 24.5v42l-27 27-27-27v-42ZM81 74.5 108 50l27 24.5v42l-27 27-27-27v-42ZM172 183l47.5 34.289L267 183v59.043L219.5 280 172 242.043V183Z"/>
  <path fill="#A88300" stroke="#000" d="m178 193 41.5 27.926L261 193v48.087L219.5 272 178 241.087V193Z"/>
  <path fill="#FFD749" stroke="#000" d="M188 188.561 219.5 160l31.5 28.561v48.963L219.5 269 188 237.524v-48.963Z"/>
  <path fill="#A88300" stroke="#000" d="M390 141.037 429 113v107l-39-30.898v-48.065Z"/>
  <path fill="#FFD749" stroke="#000" d="M399 144.369 429 120v93l-30-26.856v-41.775Z"/>
  <path fill="#D8A800" stroke="#000" d="M307 77.963 330 57l23 20.963v35.935L330 137l-23-23.102V77.963Z"/>
  <path fill="#D8A903" stroke="#000" d="M233 77.963 256.5 57 280 77.963v35.935L256.5 137 233 113.898V77.963Z"/>
  <path fill="#D7A801" stroke="#000" d="M158 77.963 181.5 57 205 77.963v35.935L181.5 137 158 113.898V77.963Z"/>
  <path fill="#DFAF04" stroke="#000" d="M85 77.963 108 57l23 20.963v35.935L108 137l-23-23.102V77.963Z"/>
  <path fill="#D8A800" stroke="#000" d="M193 191.631 220 167l27 24.631v42.225L220 261l-27-27.144v-42.225Z"/>
  <path fill="#DCAC01" stroke="#000" d="M403 147.963 426 127l2 18.564V181.5l-2 25.5-23-23.102v-35.935Z"/>
</svg>
