<svg xmlns="http://www.w3.org/2000/svg" width="411" height="675" fill="none" viewBox="0 0 411 675">
  <circle id="pulseEffect" cx="201.5" cy="196.5" r="18.5" fill="#fff"/>
  <path fill="#FFC700" stroke="#000" d="M137.91 55.245 148.207 1h43.763l10.298 54.245H137.91Z"/>
  <path fill="#FFC700" d="M281.336 55.19 291.633 1h43.764l10.297 54.19h-64.358Z"/>
  <path stroke="#000" d="M345.694 55.19h-64.358L291.633 1h43.764l10.297 54.19Zm0 0v99.35"/>
  <path fill="#FFC700" stroke="#000" d="M66.197 55.245 76.494 1h43.763l10.298 54.245H66.197ZM209.623 55.245 219.92 1h43.764l10.297 54.245h-64.358ZM395.341 201.794l-67.116 64.912V65.358l67.116 35.461v100.975Z"/>
  <path fill="#FFD749" stroke="#000" d="M320.299 241.883 90.042 254.159 7.355 632.261 97.163 674h235.005l64.093-41.739-75.962-390.378Z"/>
  <path fill="#FFC700" stroke="#000" d="M320.3 241.883 90.042 253.897 7.355 623.956l89.809 40.85h235.005l64.092-40.85L320.3 241.883Z"/>
  <path fill="#A88300" stroke="#000" d="m233.336 332.903 34.209 129.176-34.209 129.175h-58.645l-37.7-129.175 37.7-129.176h58.645Z"/>
  <path fill="#D8A800" stroke="#000" d="m144.346 283.545 57.922-56.373 57.922 56.373v96.641l-57.922 62.125-57.922-62.125v-96.641Z"/>
  <path fill="#FFD749" stroke="#000" d="M400.456 576.818 362.48 390.641l-102.931 13.822 28.546 199.483 112.361-27.128Z"/>
  <path fill="#FFC700" stroke="#000" d="m393.563 569.101-34.28-168.058-92.913 12.477 25.768 180.069 101.425-24.488Z"/>
  <path fill="#D8A800" stroke="#000" d="m394.859 548.469-28.035-142.551-76.594 10.708 21.002 152.753 83.627-20.91Z"/>
  <path fill="#FFD749" stroke="#000" d="m6.803 575.639 41.043-185.525 102.688 15.518-31.833 198.985L6.803 575.639Z"/>
  <path fill="#FFC700" stroke="#000" d="m13.104 568.814 37.457-169.316 93.717 14.163-29.052 181.6-102.121-26.447Z"/>
  <path fill="#D8A800" stroke="#000" d="m12.6 547.927 33.491-146.929 78.996 13.503L98.56 572.23 12.6 547.927Z"/>
  <path fill="#FFD749" stroke="#000" d="m253.295 437.255-22.066-59.761 22.066-17.469v-62.519l84.584-50.567 40.454 160.895-125.038 29.421Z"/>
  <path fill="#FFC700" stroke="#000" d="m258.765 429.44-19.721-52.543 19.721-15.359v-73.226l75.598-26.203 36.155 141.463-111.753 25.868Z"/>
  <path fill="#FFD749" stroke="#000" d="m152.574 437.715 20.273-61.494-20.273-17.975v-64.331l-77.712-52.032-37.166 165.558 114.878 30.274Z"/>
  <path fill="#FFC700" stroke="#000" d="m146.138 429.44 17.515-53.41-17.515-15.612v-74.864l-67.139-26.203-32.11 143.795 99.249 26.294Z"/>
  <path fill="#FFD749" stroke="#000" d="m347.533 253.619-51.027 45.266h-65.737l-16.549-14.251h-25.283l-16.09 14.251h-61.6l-45.05-37.17V56.727l20.227-16.193h231.688l29.421 16.193v196.892Z"/>
  <path fill="#FFC700" stroke="#000" d="m347.534 248.31-51.027 44.139H230.77l-16.549-13.895h-25.283l-16.09 13.895h-61.6l-45.05-36.244V56.324l20.227-15.79h231.688l29.421 15.79V248.31Z"/>
  <path fill="#FFD749" stroke="#000" d="m278.578 68.576 24.823-22.525 24.824 22.525v38.615l-24.824 24.823-24.823-24.823V68.576ZM210.542 68.576l24.824-22.525 24.824 22.525v38.615l-24.824 24.823-24.824-24.823V68.576ZM142.507 68.576l24.824-22.525 24.823 22.525v38.615l-24.823 24.823-24.824-24.823V68.576ZM74.471 68.576 99.295 46.05l24.824 22.525v38.615l-24.824 24.823-24.824-24.823V68.576ZM158.137 168.331l43.671 31.525 43.672-31.525v54.284l-43.672 34.897-43.671-34.897v-54.284Z"/>
  <path fill="#A88300" stroke="#000" d="m163.653 177.525 38.155 25.675 38.155-25.675v44.211l-38.155 28.421-38.155-28.421v-44.211Z"/>
  <path fill="#FFD749" stroke="#000" d="m172.847 173.444 28.961-26.26 28.961 26.26v45.016l-28.961 28.939-28.961-28.939v-45.016Z"/>
  <path fill="#A88300" stroke="#000" d="m358.566 129.75 35.856-25.777v98.375l-35.856-28.408v-44.19Z"/>
  <path fill="#FFD749" stroke="#000" d="m366.84 132.813 27.582-22.405v85.505l-27.582-24.691v-38.409Z"/>
  <path fill="#D8A800" stroke="#000" d="m282.256 71.76 21.146-19.274 21.146 19.273v33.04l-21.146 21.239-21.146-21.239v-33.04Z"/>
  <path fill="#D8A903" stroke="#000" d="m214.22 71.76 21.606-19.274 21.606 19.273v33.04l-21.606 21.239-21.606-21.239v-33.04Z"/>
  <path fill="#D7A801" stroke="#000" d="m145.265 71.76 21.606-19.274 21.606 19.273v33.04l-21.606 21.239-21.606-21.239v-33.04Z"/>
  <path fill="#DFAF04" stroke="#000" d="m78.149 71.76 21.146-19.274 21.146 19.273v33.04l-21.146 21.239-21.146-21.239v-33.04Z"/>
  <path fill="#D8A800" stroke="#000" d="m177.444 176.266 24.824-22.646 24.824 22.646v38.821l-24.824 24.957-24.824-24.957v-38.821Z"/>
  <path fill="#DCAC01" stroke="#000" d="m370.518 136.117 21.146-19.273 1.839 17.068v33.039l-1.839 23.445-21.146-21.24v-33.039Z"/>
</svg>
