<?xml version="1.0" encoding="utf-8"?>
<!-- Generator: Adobe Illustrator 27.2.0, SVG Export Plug-In . SVG Version: 6.00 Build 0)  -->
<svg>
<style type="text/css">
	.st0{fill:none;stroke:#E8E2E0;stroke-width:35;stroke-opacity:0.5;}
	.st1{fill:none;stroke:#64C998;stroke-width:35;}
	.st2{font-family:'Lato-Light';}
	.st3{font-size:24px;}
	.st4{fill:#64C998;}
	.st5{font-family:'Lato-Bold';}
	.st6{font-size:42px;}
	.st7{fill:none;stroke:#59504E;stroke-width:0.5;stroke-linecap:round;stroke-linejoin:round;}
	.st8{fill:#FFFFFF;filter:url(#Adobe_OpacityMaskFilter);}
	
		.st9{mask:url(#path-5-inside-1_2_24_00000170269934710411688690000005363855008900534673_);fill:none;stroke:#F0F0F0;stroke-width:70;}
	.st10{fill:none;stroke:#ED6A5A;stroke-width:34.613;}
	.st11{fill:#ED6A5A;}
	.st12{fill:none;stroke:#E2E2E2;stroke-width:29;stroke-opacity:0.5;}
	.st13{fill:none;stroke:#F3C026;stroke-width:29;}
	.st14{fill:#F3C026;}
</style>
<g id="Graphic">
	<g id="_x39_5_x25_">
		<g id="_x39_5-circle">
			<path id="Ellipse_21" class="st0" d="M585.21,242.21c15.9,98.42-50.99,191.1-149.41,207c-98.42,15.9-191.1-50.99-207-149.41
				s50.99-191.1,149.41-207c85.45-13.81,166.57,34.8,196.88,112.26"/>
			<path id="Ellipse_20" class="st1" d="M407,90c99.96,0,181,81.04,181,181s-81.04,181-181,181s-181-81.04-181-181
				c0-78.52,50-145.36,119.89-170.43l15.08-4"/>
		</g>
		<g id="_x39_5-label">
			<g id="_x39_5_x25__could_be_recycled_or_reused">
				<text transform="matrix(1 0 0 1 86.1875 36.754)" class="st2 st3"> could be  </text>
				<text transform="matrix(1 0 0 1 0.207 77.754)" class="st2 st3">recycled or reused</text>
				<text transform="matrix(1 0 0 1 2.3516 36.754)" class="st4 st5 st6">95%</text>
			</g>
			<path id="Vector_3" class="st7" d="M4.5,101H197l74,40.5"/>
		</g>
	</g>
	<g id="_x38_5_x25_">
		<g id="_x38_5-circle">
			<g id="Ellipse_26">
				<defs>
					<filter id="Adobe_OpacityMaskFilter" filterUnits="userSpaceOnUse" x="216" y="80" width="382" height="382">
						<feColorMatrix  type="matrix" values="1 0 0 0 0  0 1 0 0 0  0 0 1 0 0  0 0 0 1 0"/>
					</filter>
				</defs>
				
					<mask maskUnits="userSpaceOnUse" x="216" y="80" width="382" height="382" id="path-5-inside-1_2_24_00000170269934710411688690000005363855008900534673_">
					<path class="st8" d="M407,427c86.16,0,156-69.84,156-156s-69.84-156-156-156c-32.62,0-71.38,9.18-106.52,42.02
						C270.03,185.49,251,226.02,251,271C251,357.16,320.84,427,407,427z"/>
				</mask>
				<path class="st9" d="M407,427c86.16,0,156-69.84,156-156s-69.84-156-156-156c-32.62,0-71.38,9.18-106.52,42.02
					C270.03,185.49,251,226.02,251,271C251,357.16,320.84,427,407,427z"/>
			</g>
			<path id="Ellipse_22" class="st10" d="M407,132.4c76.47,0,138.45,61.99,138.45,138.45S483.47,409.3,407,409.3
				s-138.45-61.99-138.45-138.45c0-39.92,16.89-75.89,43.92-101.16"/>
		</g>
		<g id="_x38_5-label">
			<path id="Vector_2" class="st7" d="M407,411L287,590H90.5"/>
			<g id="_x38_5_x25__thrown_in_landfill_in_Canada">
				<text transform="matrix(1 0 0 1 165.125 528.254)" class="st2 st3"> thrown in </text>
				<text transform="matrix(1 0 0 1 84.7812 568.254)" class="st2 st3"> landfill in Canada</text>
				<text transform="matrix(1 0 0 1 81.2891 528.254)" class="st11 st5 st6">85%</text>
			</g>
		</g>
	</g>
	<g id="_x38_0_x25_">
		<g id="_x38_0-circle">
			<path id="Ellipse_25" class="st12" d="M491.37,215.62c30.59,46.6,17.61,109.16-28.99,139.75s-109.16,17.61-139.75-28.99
				c-30.59-46.6-17.61-109.16,28.99-139.75c30.61-20.1,68.12-21.38,98.92-6.69"/>
			<path id="Ellipse_23" class="st13" d="M407,170c55.78,0,101,45.22,101,101s-45.22,101-101,101s-101-45.22-101-101
				c0-22.02,7.05-42.4,19.02-59"/>
		</g>
		<g id="_x38_0-label">
			<g id="_x38_0_x25__thrown_in_landfill_globally">
				<text transform="matrix(1 0 0 1 733.848 64.254)" class="st5 st3"> </text>
				<text transform="matrix(1 0 0 1 739.402 64.254)" class="st2 st3">thrown in  </text>
				<text transform="matrix(1 0 0 1 671.609 104.254)" class="st2 st3">landfill globally</text>
				<text transform="matrix(1 0 0 1 650.012 64.254)" class="st14 st5 st6">80%</text>
			</g>
			<path id="Vector_1" class="st7" d="M494,220l15-9.04L655,123h172"/>
		</g>
	</g>
</g>
</svg>
