<svg xmlns="http://www.w3.org/2000/svg" width="493" height="720" fill="none" viewBox="0 0 493 720">
  <path fill="#FFC700" stroke="#1E1E1E" d="M457 205.397 384 276V57l73 38.57v109.827Z"/>
  <path fill="#FFC700" stroke="#FFC700" d="m396.098 249-290.704 13.352L1 673.602 114.385 719h296.697L492 673.602 396.098 249Z"/>
  <path fill="#FFC700" stroke="#1E1E1E" d="M349.5 317H148l-49-45.464V20.806L121 1h252l32 19.806v240.826L349.5 317Z"/>
  <path fill="#BD00FF" stroke="#1E1E1E" d="M330 31.5 357 7l27 24.5v42l-27 27-27-27v-42Z"/>
  <path fill="#0094FF" stroke="#1E1E1E" d="M256 31.5 283 7l27 24.5v42l-27 27-27-27v-42Z"/>
  <path fill="red" stroke="#1E1E1E" d="M182 31.5 209 7l27 24.5v42l-27 27-27-27v-42Z"/>
  <path fill="#FAFF00" stroke="#1E1E1E" d="M108 31.5 135 7l27 24.5v42l-27 27-27-27v-42Z"/>
  <path fill="#F90" stroke="#1E1E1E" d="M214 157.941 242.5 132l28.5 25.941v44.471L242.5 231 214 202.412v-44.471Z"/>
  <path fill="#05FF00" stroke="#1E1E1E" d="m425 130.5 27-24.5 27 24.5v42l-27 27-27-27v-42Z"/>
</svg>
