<svg xmlns="http://www.w3.org/2000/svg" width="443" height="1217" fill="none" viewBox="0 0 443 1217">
  <path fill="#75BCF0" d="M253.5 70v1060h-5V70z"/>
  <circle cx="251" cy="70.5" r="12" fill="#fff" stroke="#75BCF0" stroke-width="3" transform="rotate(90 251 70.5)"/>
  <circle cx="251" cy="421.5" r="8" fill="#fff" stroke="#75BCF0" stroke-width="3" transform="rotate(90 251 421.5)"/>
  <circle cx="251" cy="769.5" r="8" fill="#fff" stroke="#75BCF0" stroke-width="3" transform="rotate(90 251 769.5)"/>
  <circle cx="251" cy="1048.5" r="8" fill="#fff" stroke="#75BCF0" stroke-width="3" transform="rotate(90 251 1048.5)"/>
  <circle cx="251" cy="850.5" r="8" fill="#fff" stroke="#75BCF0" stroke-width="3" transform="rotate(90 251 850.5)"/>
  <circle cx="251" cy="1129.5" r="12" fill="#fff" stroke="#75BCF0" stroke-width="3" transform="rotate(90 251 1129.5)"/>
  <path fill="#fff" d="M225.798 9.492h-2.799a2.75 2.75 0 0 0-.314-.965 2.447 2.447 0 0 0-.607-.729 2.677 2.677 0 0 0-.856-.46 3.278 3.278 0 0 0-1.042-.16c-.678 0-1.268.169-1.771.505-.503.333-.893.818-1.17 1.458-.277.635-.415 1.406-.415 2.313 0 .934.138 1.718.415 2.353.282.635.674 1.114 1.177 1.438.502.324 1.084.486 1.745.486.37 0 .713-.05 1.029-.147.319-.098.603-.241.85-.428.247-.192.452-.425.613-.697a2.7 2.7 0 0 0 .346-.933l2.799.012a5.05 5.05 0 0 1-.543 1.739 5.23 5.23 0 0 1-1.157 1.49 5.45 5.45 0 0 1-1.726 1.035c-.665.251-1.417.377-2.256.377-1.168 0-2.212-.264-3.132-.793-.917-.528-1.641-1.293-2.174-2.294-.528-1.002-.792-2.214-.792-3.638 0-1.427.268-2.642.805-3.643s1.266-1.764 2.186-2.288c.921-.529 1.956-.793 3.107-.793.758 0 1.461.107 2.109.32.652.213 1.23.524 1.732.933a4.81 4.81 0 0 1 1.228 1.49c.319.587.524 1.26.613 2.02ZM227.732 18V8.182h2.64v1.713h.102c.179-.61.48-1.07.901-1.38a2.37 2.37 0 0 1 1.458-.474 4.13 4.13 0 0 1 .856.096v2.416a3.538 3.538 0 0 0-.53-.102 4.78 4.78 0 0 0-.62-.045c-.401 0-.759.088-1.074.262a1.94 1.94 0 0 0-.742.716c-.179.307-.268.66-.268 1.061V18h-2.723Zm11.383.192c-1.01 0-1.88-.205-2.608-.614a4.199 4.199 0 0 1-1.675-1.751c-.392-.759-.588-1.656-.588-2.691 0-1.01.196-1.897.588-2.66a4.35 4.35 0 0 1 1.655-1.783c.716-.426 1.556-.639 2.519-.639a5.12 5.12 0 0 1 1.809.313 4.02 4.02 0 0 1 1.47.927c.422.413.75.933.984 1.56.235.622.352 1.35.352 2.186v.748h-8.291V12.1h5.728c0-.392-.085-.74-.256-1.042a1.831 1.831 0 0 0-.709-.71 2.027 2.027 0 0 0-1.042-.261c-.414 0-.78.095-1.1.287a2.018 2.018 0 0 0-.741.76 2.145 2.145 0 0 0-.275 1.056v1.604c0 .486.089.906.268 1.26.184.353.441.626.774.817.332.192.726.288 1.182.288.303 0 .58-.043.831-.128a1.72 1.72 0 0 0 .646-.383c.179-.17.315-.38.409-.627l2.518.166a3.433 3.433 0 0 1-.786 1.586c-.392.447-.899.797-1.521 1.048-.618.247-1.332.37-2.141.37Zm9.083-.007c-.627 0-1.185-.108-1.675-.326a2.693 2.693 0 0 1-1.163-.978c-.282-.434-.422-.976-.422-1.623 0-.546.1-1.004.3-1.374.2-.371.473-.67.818-.895a3.976 3.976 0 0 1 1.176-.512 8.97 8.97 0 0 1 1.394-.243 36.46 36.46 0 0 0 1.381-.166c.349-.055.603-.136.76-.243a.534.534 0 0 0 .237-.473v-.038c0-.405-.128-.718-.384-.94-.251-.221-.609-.332-1.074-.332-.49 0-.88.109-1.169.326a1.5 1.5 0 0 0-.576.805l-2.518-.204a3.423 3.423 0 0 1 .754-1.547 3.622 3.622 0 0 1 1.451-1.01c.597-.239 1.287-.358 2.071-.358.546 0 1.068.064 1.566.192a4.11 4.11 0 0 1 1.336.594c.392.269.701.614.927 1.036.226.417.339.918.339 1.502V18h-2.583v-1.361h-.076a2.781 2.781 0 0 1-.633.811c-.264.23-.582.412-.953.544-.37.127-.799.191-1.284.191Zm.779-1.879a2.3 2.3 0 0 0 1.062-.236c.306-.162.547-.38.722-.652a1.68 1.68 0 0 0 .262-.927v-1.042a1.445 1.445 0 0 1-.352.153 6.431 6.431 0 0 1-.492.122c-.183.034-.366.066-.55.096l-.498.07c-.32.047-.599.121-.837.224a1.34 1.34 0 0 0-.557.415c-.132.17-.198.384-.198.64 0 .37.134.653.403.85.273.191.618.287 1.035.287Zm12.085-8.124v2.045h-5.913V8.182h5.913Zm-4.571-2.352h2.723v9.153c0 .251.039.447.115.588a.638.638 0 0 0 .32.288c.141.055.303.083.486.083.128 0 .255-.01.383-.032l.294-.058.429 2.027a7.81 7.81 0 0 1-.576.147 4.6 4.6 0 0 1-.901.108c-.656.026-1.231-.062-1.726-.262a2.41 2.41 0 0 1-1.144-.933c-.273-.422-.407-.955-.403-1.598V5.83ZM262.835 18V8.182h2.723V18h-2.723Zm1.368-11.084a1.48 1.48 0 0 1-1.042-.403 1.307 1.307 0 0 1-.428-.977c0-.375.143-.697.428-.966.29-.272.637-.409 1.042-.409s.75.137 1.036.41c.29.268.434.59.434.965 0 .379-.144.705-.434.977a1.459 1.459 0 0 1-1.036.403Zm7.973 11.276c-.993 0-1.852-.211-2.576-.633a4.339 4.339 0 0 1-1.669-1.777c-.392-.763-.588-1.647-.588-2.653 0-1.014.196-1.9.588-2.659a4.288 4.288 0 0 1 1.669-1.777c.724-.426 1.583-.639 2.576-.639.993 0 1.849.213 2.569.64a4.264 4.264 0 0 1 1.675 1.776c.392.759.588 1.645.588 2.66 0 1.005-.196 1.89-.588 2.652a4.314 4.314 0 0 1-1.675 1.777c-.72.422-1.576.633-2.569.633Zm.013-2.11c.451 0 .828-.128 1.131-.383.303-.26.531-.614.684-1.061.158-.448.236-.957.236-1.528 0-.57-.078-1.08-.236-1.528-.153-.447-.381-.8-.684-1.06-.303-.26-.68-.39-1.131-.39-.456 0-.84.13-1.151.39-.307.26-.539.613-.697 1.06a4.71 4.71 0 0 0-.23 1.528c0 .571.077 1.08.23 1.528.158.447.39.8.697 1.06.311.256.695.384 1.151.384Zm9.313-3.758V18h-2.723V8.182h2.595v1.732h.115a2.74 2.74 0 0 1 1.093-1.355c.511-.337 1.131-.505 1.86-.505.682 0 1.276.15 1.784.447a3.04 3.04 0 0 1 1.182 1.279c.281.55.422 1.206.422 1.969V18h-2.723v-5.766c.004-.6-.149-1.07-.46-1.406-.311-.34-.74-.511-1.285-.511-.367 0-.69.079-.972.236a1.65 1.65 0 0 0-.652.69c-.153.299-.232.659-.236 1.08Zm-72.785 21.13c0-1.61.209-3.091.627-4.442a13.826 13.826 0 0 1 1.802-3.74h1.33a8.2 8.2 0 0 0-.863 1.56 15.193 15.193 0 0 0-.697 2.027c-.2.733-.358 1.491-.473 2.275a16.539 16.539 0 0 0-.166 2.32c0 1.015.098 2.044.294 3.088.196 1.044.46 2.013.792 2.908.333.895.704 1.624 1.113 2.186h-1.33a13.847 13.847 0 0 1-1.802-3.733c-.418-1.355-.627-2.838-.627-4.448ZM214.906 40V26.91h4.577c.912 0 1.664.157 2.256.472.593.311 1.034.73 1.324 1.26a3.55 3.55 0 0 1 .434 1.744c0 .563-.1 1.027-.3 1.394a2.335 2.335 0 0 1-.78.87c-.32.212-.667.37-1.042.472v.128c.401.026.803.166 1.208.422.405.256.744.622 1.016 1.1.273.477.41 1.06.41 1.75 0 .657-.15 1.247-.448 1.771-.298.525-.769.94-1.413 1.247-.643.307-1.48.46-2.512.46h-4.73Zm1.585-1.406h3.145c1.036 0 1.771-.2 2.206-.601.439-.405.658-.895.658-1.47 0-.444-.113-.853-.339-1.228a2.449 2.449 0 0 0-.965-.907c-.418-.23-.912-.345-1.483-.345h-3.222v4.55Zm0-5.932h2.941a2.9 2.9 0 0 0 1.291-.281 2.25 2.25 0 0 0 .92-.793c.231-.34.346-.741.346-1.202 0-.575-.201-1.063-.601-1.463-.401-.405-1.036-.608-1.905-.608h-2.992v4.347ZM226.409 40v-9.818h1.508V40h-1.508Zm.767-11.454c-.294 0-.548-.1-.761-.301a.964.964 0 0 1-.313-.722c0-.282.104-.522.313-.723.213-.2.467-.3.761-.3s.545.1.754.3c.213.2.32.441.32.723a.957.957 0 0 1-.32.722c-.209.2-.46.3-.754.3Zm7.467 15.34c-.728 0-1.355-.093-1.879-.28-.524-.184-.961-.427-1.31-.73a4.003 4.003 0 0 1-.825-.958l1.202-.844c.136.179.309.383.518.614.208.234.494.436.856.607.367.174.846.262 1.438.262.793 0 1.447-.192 1.963-.576.515-.383.773-.984.773-1.802v-1.994h-.128c-.111.179-.268.4-.473.664-.2.26-.49.493-.869.697-.375.2-.882.3-1.521.3-.793 0-1.505-.187-2.135-.562-.627-.375-1.123-.92-1.49-1.636-.362-.716-.543-1.586-.543-2.608 0-1.006.177-1.882.531-2.627.353-.75.845-1.33 1.476-1.739.631-.413 1.359-.62 2.186-.62.639 0 1.147.107 1.522.32.379.208.669.447.869.716.204.264.362.481.473.651h.153v-1.56h1.458v10.1c0 .844-.192 1.53-.576 2.059a3.27 3.27 0 0 1-1.534 1.17c-.639.25-1.351.376-2.135.376Zm-.051-5.395c.605 0 1.117-.138 1.534-.415.418-.277.735-.675.953-1.195.217-.52.326-1.142.326-1.867 0-.707-.107-1.332-.32-1.873-.213-.54-.528-.965-.946-1.272-.418-.306-.933-.46-1.547-.46-.639 0-1.172.162-1.598.486-.422.324-.739.758-.952 1.304a5.036 5.036 0 0 0-.313 1.815c0 .682.106 1.285.319 1.81.217.519.537.928.959 1.226.426.294.954.442 1.585.442ZM246.916 40V26.91h4.577c.912 0 1.664.157 2.256.472.592.311 1.034.73 1.323 1.26a3.54 3.54 0 0 1 .435 1.744c0 .563-.1 1.027-.3 1.394a2.344 2.344 0 0 1-.78.87c-.32.212-.667.37-1.042.472v.128c.4.026.803.166 1.208.422.405.256.743.622 1.016 1.1.273.477.409 1.06.409 1.75 0 .657-.149 1.247-.447 1.771-.298.525-.769.94-1.413 1.247-.643.307-1.481.46-2.512.46h-4.73Zm1.585-1.406h3.145c1.036 0 1.771-.2 2.205-.601.439-.405.659-.895.659-1.47 0-.444-.113-.853-.339-1.228a2.455 2.455 0 0 0-.965-.907c-.418-.23-.912-.345-1.483-.345h-3.222v4.55Zm0-5.932h2.941a2.91 2.91 0 0 0 1.291-.281 2.26 2.26 0 0 0 .92-.793c.23-.34.345-.741.345-1.202 0-.575-.2-1.063-.6-1.463-.401-.405-1.036-.608-1.905-.608h-2.992v4.347Zm12.807 7.568a3.991 3.991 0 0 1-1.694-.351 2.906 2.906 0 0 1-1.208-1.03c-.299-.451-.448-.997-.448-1.636 0-.562.111-1.018.333-1.368a2.34 2.34 0 0 1 .888-.83c.371-.201.78-.35 1.227-.448.452-.102.906-.184 1.362-.243.597-.077 1.08-.134 1.451-.173.375-.042.648-.113.818-.21.175-.099.262-.27.262-.512v-.051c0-.63-.172-1.12-.518-1.47-.34-.35-.858-.524-1.553-.524-.72 0-1.285.157-1.694.473-.409.315-.696.651-.863 1.01l-1.431-.512c.255-.596.596-1.061 1.022-1.393a3.834 3.834 0 0 1 1.407-.703 5.837 5.837 0 0 1 1.508-.205c.315 0 .678.038 1.087.115.413.072.811.224 1.195.454.388.23.71.577.965 1.042.256.464.384 1.086.384 1.866V40h-1.509v-1.33h-.076a2.67 2.67 0 0 1-.512.684c-.238.243-.556.45-.952.62-.397.17-.88.256-1.451.256Zm.23-1.355c.596 0 1.099-.117 1.508-.352a2.392 2.392 0 0 0 1.253-2.077v-1.38c-.064.076-.204.146-.422.21-.213.06-.46.113-.741.16a34 34 0 0 1-1.445.192 5.77 5.77 0 0 0-1.099.25c-.337.11-.61.278-.818.504-.205.222-.307.524-.307.908 0 .524.194.92.581 1.189.393.264.889.396 1.49.396Zm8.532-4.781V40h-1.509v-9.818h1.457v1.534h.128c.23-.499.58-.9 1.049-1.202.468-.307 1.073-.46 1.815-.46.665 0 1.246.136 1.745.41.499.268.886.677 1.163 1.226.277.546.416 1.236.416 2.071V40h-1.509v-6.136c0-.772-.2-1.372-.601-1.803-.4-.435-.95-.652-1.649-.652-.481 0-.912.105-1.291.313a2.238 2.238 0 0 0-.888.914c-.218.4-.326.887-.326 1.458Zm12.983 9.792c-.728 0-1.355-.093-1.879-.28-.524-.184-.961-.427-1.31-.73a4.003 4.003 0 0 1-.825-.958l1.202-.844c.136.179.309.383.518.614.209.234.494.436.856.607.367.174.846.262 1.438.262.793 0 1.447-.192 1.963-.576.515-.383.773-.984.773-1.802v-1.994h-.128c-.11.179-.268.4-.473.664-.2.26-.49.493-.869.697-.375.2-.882.3-1.521.3-.793 0-1.504-.187-2.135-.562-.627-.375-1.123-.92-1.49-1.636-.362-.716-.543-1.586-.543-2.608 0-1.006.177-1.882.531-2.627.353-.75.846-1.33 1.476-1.739.631-.413 1.36-.62 2.186-.62.64 0 1.147.107 1.522.32.379.208.669.447.869.716.205.264.362.481.473.651h.153v-1.56h1.458v10.1c0 .844-.192 1.53-.575 2.059a3.29 3.29 0 0 1-1.535 1.17c-.639.25-1.35.376-2.135.376Zm-.051-5.395c.605 0 1.117-.138 1.534-.415.418-.277.736-.675.953-1.195.217-.52.326-1.142.326-1.867 0-.707-.107-1.332-.32-1.873-.213-.54-.528-.965-.946-1.272-.417-.306-.933-.46-1.547-.46-.639 0-1.172.162-1.598.486-.422.324-.739.758-.952 1.304a5.036 5.036 0 0 0-.313 1.815c0 .682.106 1.285.319 1.81.218.519.537.928.959 1.226.426.294.955.442 1.585.442Zm10.279-4.014c0 1.611-.211 3.094-.633 4.45a13.743 13.743 0 0 1-1.796 3.732h-1.33a7.99 7.99 0 0 0 .857-1.56 14.74 14.74 0 0 0 .703-2.02c.2-.737.356-1.497.466-2.281.116-.789.173-1.562.173-2.32 0-1.015-.098-2.044-.294-3.088a17.693 17.693 0 0 0-.793-2.909c-.332-.894-.703-1.623-1.112-2.186h1.33a13.721 13.721 0 0 1 1.796 3.74c.422 1.35.633 2.832.633 4.442Zm25.791 368.432h2.768v8.502c0 .954-.228 1.789-.684 2.505-.452.716-1.084 1.274-1.898 1.675-.814.396-1.762.594-2.845.594-1.086 0-2.037-.198-2.851-.594-.814-.401-1.446-.959-1.898-1.675-.452-.716-.678-1.551-.678-2.505v-8.502h2.768v8.265c0 .499.109.942.326 1.33.222.387.533.692.933.914.401.221.868.332 1.4.332.537 0 1.004-.111 1.4-.332.401-.222.71-.527.927-.914.222-.388.332-.831.332-1.33v-8.265Zm7.717 7.415V416h-2.723v-9.818h2.595v1.732h.115a2.743 2.743 0 0 1 1.093-1.355c.512-.337 1.132-.505 1.86-.505.682 0 1.277.149 1.784.447.507.299.901.725 1.182 1.279.282.55.422 1.206.422 1.969V416h-2.723v-5.766c.005-.6-.149-1.069-.46-1.406-.311-.341-.739-.511-1.285-.511-.366 0-.69.079-.971.236a1.645 1.645 0 0 0-.652.691c-.154.298-.233.658-.237 1.08Zm10.942 2.851.006-3.267h.396l3.145-3.726h3.126l-4.225 4.934h-.646l-1.802 2.059ZM335.263 416v-13.091h2.723V416h-2.723Zm6.137 0-2.889-4.276 1.815-1.924 4.263 6.2H341.4Zm7.063-5.676V416h-2.723v-9.818h2.595v1.732h.115a2.743 2.743 0 0 1 1.093-1.355c.512-.337 1.132-.505 1.86-.505.682 0 1.277.149 1.784.447.507.299.901.725 1.182 1.279.281.55.422 1.206.422 1.969V416h-2.723v-5.766c.004-.6-.149-1.069-.46-1.406-.311-.341-.739-.511-1.285-.511-.366 0-.69.079-.972.236a1.651 1.651 0 0 0-.652.691c-.153.298-.232.658-.236 1.08Zm12.91 5.868c-.993 0-1.851-.211-2.576-.633a4.333 4.333 0 0 1-1.668-1.777c-.392-.763-.588-1.647-.588-2.653 0-1.014.196-1.9.588-2.659a4.279 4.279 0 0 1 1.668-1.777c.725-.426 1.583-.639 2.576-.639.993 0 1.85.213 2.57.639a4.27 4.27 0 0 1 1.675 1.777c.392.759.588 1.645.588 2.659 0 1.006-.196 1.89-.588 2.653a4.323 4.323 0 0 1-1.675 1.777c-.72.422-1.577.633-2.57.633Zm.013-2.11c.452 0 .829-.127 1.131-.383.303-.26.531-.614.684-1.061.158-.448.237-.957.237-1.528 0-.571-.079-1.08-.237-1.528-.153-.447-.381-.801-.684-1.061-.302-.26-.679-.39-1.131-.39-.456 0-.839.13-1.15.39-.307.26-.54.614-.697 1.061-.154.448-.23.957-.23 1.528 0 .571.076 1.08.23 1.528.157.447.39.801.697 1.061.311.256.694.383 1.15.383Zm8.281 1.918-2.672-9.818h2.755l1.521 6.596h.09l1.585-6.596h2.704l1.611 6.558h.083l1.496-6.558h2.748L378.923 416h-2.883l-1.688-6.175h-.121L372.543 416h-2.876Zm16.097-5.676V416h-2.723v-9.818h2.595v1.732h.115a2.737 2.737 0 0 1 1.093-1.355c.511-.337 1.131-.505 1.86-.505.682 0 1.276.149 1.783.447a3.04 3.04 0 0 1 1.183 1.279c.281.55.422 1.206.422 1.969V416h-2.723v-5.766c.004-.6-.149-1.069-.46-1.406-.311-.341-.74-.511-1.285-.511-.367 0-.69.079-.972.236a1.651 1.651 0 0 0-.652.691c-.153.298-.232.658-.236 1.08Zm-64.895 15.991v-1.406h9.819v1.406h-4.117V438h-1.585v-11.685h-4.117Zm13.569 5.779V438h-1.508v-13.091h1.508v4.807h.128c.23-.507.575-.91 1.035-1.208.465-.303 1.083-.454 1.854-.454.669 0 1.255.134 1.758.403.503.264.893.671 1.17 1.221.281.545.422 1.24.422 2.083V438h-1.509v-6.136c0-.78-.202-1.383-.607-1.809-.401-.431-.957-.646-1.669-.646a2.78 2.78 0 0 0-1.329.313 2.294 2.294 0 0 0-.921.914c-.221.401-.332.887-.332 1.458Zm12.015 6.136a3.991 3.991 0 0 1-1.693-.351 2.909 2.909 0 0 1-1.209-1.03c-.298-.451-.447-.997-.447-1.636 0-.562.111-1.018.332-1.368.222-.354.518-.631.889-.831.371-.2.78-.349 1.227-.447.452-.103.906-.183 1.362-.243.596-.077 1.08-.134 1.451-.173.375-.042.647-.113.818-.211.175-.098.262-.268.262-.511v-.051c0-.631-.173-1.121-.518-1.47-.341-.35-.858-.524-1.553-.524-.72 0-1.285.157-1.694.473-.409.315-.697.652-.863 1.009l-1.432-.511c.256-.596.597-1.061 1.023-1.393.43-.337.899-.571 1.406-.703a5.815 5.815 0 0 1 1.509-.205c.315 0 .677.038 1.086.115.414.072.812.224 1.196.454.388.23.709.577.965 1.042.256.464.383 1.086.383 1.866V438h-1.508v-1.33h-.077a2.609 2.609 0 0 1-.511.684c-.239.243-.556.45-.953.62-.396.171-.879.256-1.451.256Zm.231-1.355c.596 0 1.099-.117 1.508-.352.413-.234.725-.536.933-.907.213-.371.32-.761.32-1.17v-1.381c-.064.077-.205.147-.422.211-.213.06-.46.113-.741.16a31.625 31.625 0 0 1-1.445.192 5.737 5.737 0 0 0-1.099.249c-.337.111-.61.279-.819.505-.204.222-.306.524-.306.908 0 .524.193.92.581 1.189.392.264.889.396 1.49.396Zm8.531-4.781V438h-1.508v-9.818h1.457v1.534h.128c.23-.499.58-.899 1.048-1.202.469-.307 1.074-.46 1.816-.46.664 0 1.246.136 1.745.409.498.269.886.678 1.163 1.227.277.546.416 1.236.416 2.071V438h-1.509v-6.136c0-.772-.2-1.373-.601-1.803-.4-.435-.95-.652-1.649-.652a2.63 2.63 0 0 0-1.291.313 2.25 2.25 0 0 0-.889.914c-.217.401-.326.887-.326 1.458Zm13.01 6.111c-.887 0-1.664-.211-2.333-.633-.665-.422-1.185-1.012-1.56-1.771-.371-.758-.556-1.645-.556-2.659 0-1.023.185-1.915.556-2.678.375-.763.895-1.355 1.56-1.777.669-.422 1.446-.633 2.333-.633.886 0 1.662.211 2.326.633.67.422 1.189 1.014 1.56 1.777.375.763.563 1.655.563 2.678 0 1.014-.188 1.901-.563 2.659-.371.759-.89 1.349-1.56 1.771-.664.422-1.44.633-2.326.633Zm0-1.356c.673 0 1.227-.172 1.662-.517.434-.345.756-.799.965-1.362a5.206 5.206 0 0 0 .313-1.828c0-.656-.104-1.268-.313-1.834a3.102 3.102 0 0 0-.965-1.375c-.435-.349-.989-.524-1.662-.524-.674 0-1.227.175-1.662.524-.435.35-.757.808-.965 1.375a5.257 5.257 0 0 0-.314 1.834c0 .656.105 1.266.314 1.828.208.563.53 1.017.965 1.362.435.345.988.517 1.662.517Zm13.706-6.468-1.355.383a2.51 2.51 0 0 0-.377-.658 1.831 1.831 0 0 0-.665-.537c-.281-.141-.641-.211-1.08-.211-.601 0-1.102.138-1.502.415-.397.273-.595.62-.595 1.042 0 .375.136.672.409.889.273.217.699.398 1.279.543l1.457.358c.878.213 1.532.539 1.962.978.431.435.646.995.646 1.681 0 .563-.162 1.066-.486 1.509-.319.443-.767.792-1.342 1.048-.576.256-1.245.384-2.007.384-1.002 0-1.831-.218-2.487-.652-.656-.435-1.072-1.07-1.246-1.905l1.432-.358c.136.528.394.924.773 1.189.384.264.884.396 1.502.396.703 0 1.261-.149 1.675-.447.417-.303.626-.665.626-1.087 0-.341-.119-.627-.358-.857-.238-.234-.605-.409-1.099-.524l-1.637-.383c-.899-.213-1.559-.544-1.981-.991-.418-.452-.626-1.016-.626-1.694 0-.554.155-1.044.466-1.47.316-.426.744-.761 1.285-1.004.545-.243 1.163-.364 1.854-.364.971 0 1.734.213 2.288.639.558.426.955.989 1.189 1.688Zm-78.216 23.074c0-1.611.209-3.092.627-4.443a13.887 13.887 0 0 1 1.802-3.739h1.33a8.248 8.248 0 0 0-.863 1.559 15.332 15.332 0 0 0-.697 2.027c-.2.733-.358 1.491-.473 2.275-.11.784-.166 1.558-.166 2.321 0 1.014.098 2.043.294 3.087.196 1.044.46 2.013.793 2.908.332.895.703 1.624 1.112 2.186h-1.33a13.894 13.894 0 0 1-1.802-3.733c-.418-1.355-.627-2.838-.627-4.448Zm13.349-3.273a2.007 2.007 0 0 0-.934-1.509c-.545-.358-1.214-.537-2.007-.537-.579 0-1.086.094-1.521.282-.43.187-.767.445-1.01.773a1.852 1.852 0 0 0-.358 1.119c0 .349.083.65.249.901.171.247.388.454.652.62.265.162.542.296.831.403.29.102.556.185.799.249l1.33.358c.341.089.72.213 1.138.371a5.26 5.26 0 0 1 1.208.645c.388.269.707.614.959 1.036.251.422.377.939.377 1.553 0 .707-.186 1.347-.556 1.918-.367.571-.904 1.024-1.611 1.361-.703.337-1.558.505-2.563.505-.938 0-1.75-.151-2.436-.454-.682-.302-1.219-.724-1.611-1.265a3.62 3.62 0 0 1-.658-1.886h1.636c.043.494.209.903.499 1.227.294.32.665.559 1.112.716.452.154.938.23 1.458.23.605 0 1.148-.098 1.63-.294.481-.2.863-.477 1.144-.831a1.97 1.97 0 0 0 .422-1.253c0-.434-.122-.788-.365-1.061a2.671 2.671 0 0 0-.959-.664 9.999 9.999 0 0 0-1.284-.448l-1.611-.46c-1.023-.294-1.833-.714-2.429-1.259-.597-.546-.895-1.26-.895-2.142 0-.733.198-1.372.594-1.917.401-.55.938-.976 1.611-1.279.678-.306 1.434-.46 2.269-.46.844 0 1.594.151 2.25.454.657.298 1.177.707 1.56 1.227.388.52.592 1.11.614 1.771h-1.534Zm7.004 10.048a3.996 3.996 0 0 1-1.694-.351 2.906 2.906 0 0 1-1.208-1.03c-.299-.451-.448-.997-.448-1.636 0-.562.111-1.018.333-1.368.221-.354.517-.631.888-.831.371-.2.78-.349 1.227-.447.452-.103.906-.183 1.362-.243.597-.077 1.08-.134 1.451-.173.375-.042.648-.113.818-.211.175-.098.262-.268.262-.511v-.051c0-.631-.172-1.121-.518-1.47-.34-.35-.858-.524-1.553-.524-.72 0-1.285.157-1.694.473-.409.315-.696.652-.863 1.009l-1.431-.511c.255-.596.596-1.061 1.022-1.393a3.827 3.827 0 0 1 1.407-.703 5.808 5.808 0 0 1 1.508-.205c.315 0 .678.038 1.087.115.413.072.811.224 1.195.454.388.23.71.577.965 1.042.256.464.384 1.086.384 1.866V460h-1.509v-1.33h-.076a2.638 2.638 0 0 1-.512.684c-.238.243-.556.45-.952.62-.397.171-.88.256-1.451.256Zm.23-1.355c.596 0 1.099-.117 1.508-.352a2.387 2.387 0 0 0 1.253-2.077v-1.381c-.064.077-.204.147-.422.211-.213.06-.46.113-.741.16a31.625 31.625 0 0 1-1.445.192 5.755 5.755 0 0 0-1.099.249c-.337.111-.61.279-.818.505-.205.222-.307.524-.307.908 0 .524.194.92.582 1.189.392.264.888.396 1.489.396Zm8.532-4.781V460h-1.509v-9.818h1.457v1.534h.128c.23-.499.58-.899 1.049-1.202.468-.307 1.073-.46 1.815-.46.665 0 1.246.136 1.745.409.499.269.886.678 1.163 1.227.277.546.416 1.236.416 2.071V460h-1.509v-6.136c0-.772-.2-1.373-.601-1.803-.4-.435-.95-.652-1.649-.652a2.63 2.63 0 0 0-1.291.313 2.242 2.242 0 0 0-.888.914c-.218.401-.326.887-.326 1.458Zm13.009 6.111c-.92 0-1.713-.218-2.378-.652-.665-.435-1.176-1.034-1.534-1.797-.358-.762-.537-1.634-.537-2.614 0-.997.183-1.877.55-2.64.371-.767.886-1.366 1.547-1.796.665-.435 1.44-.652 2.326-.652.691 0 1.313.128 1.867.384a3.56 3.56 0 0 1 1.361 1.073c.354.461.574.998.659 1.611h-1.509c-.115-.447-.37-.844-.767-1.189-.392-.349-.92-.524-1.585-.524-.588 0-1.104.153-1.547.46-.439.303-.782.731-1.029 1.285-.243.55-.364 1.195-.364 1.937 0 .758.119 1.419.358 1.981.243.563.583 1 1.022 1.311.444.311.963.466 1.56.466.392 0 .748-.068 1.068-.204.319-.136.59-.333.811-.588.222-.256.38-.563.473-.921h1.509a3.484 3.484 0 0 1-1.956 2.666c-.546.268-1.181.403-1.905.403Zm10.336-10.023v1.278h-5.088v-1.278h5.088Zm-3.605-2.352h1.508v9.358c0 .426.062.745.186.958.128.209.29.35.486.422.2.068.411.102.632.102.167 0 .303-.008.409-.025l.256-.051.307 1.355a3.064 3.064 0 0 1-.428.115 3.138 3.138 0 0 1-.697.064c-.426 0-.844-.092-1.253-.275a2.488 2.488 0 0 1-1.01-.837c-.264-.375-.396-.848-.396-1.419v-9.767Zm12.062 8.156v-5.804h1.508V460h-1.508v-1.662h-.103c-.23.499-.588.923-1.073 1.272-.486.345-1.1.518-1.841.518-.614 0-1.159-.134-1.637-.403-.477-.273-.852-.682-1.125-1.227-.272-.55-.409-1.242-.409-2.078v-6.238h1.509v6.136c0 .716.2 1.287.601 1.713.404.426.92.639 1.546.639.375 0 .757-.095 1.145-.287.392-.192.72-.486.984-.882.268-.397.403-.902.403-1.515Zm7.16 4.244a3.999 3.999 0 0 1-1.694-.351 2.912 2.912 0 0 1-1.208-1.03c-.298-.451-.447-.997-.447-1.636 0-.562.111-1.018.332-1.368.222-.354.518-.631.889-.831.371-.2.78-.349 1.227-.447.452-.103.906-.183 1.362-.243.596-.077 1.08-.134 1.451-.173.375-.042.647-.113.818-.211.174-.098.262-.268.262-.511v-.051c0-.631-.173-1.121-.518-1.47-.341-.35-.859-.524-1.553-.524-.72 0-1.285.157-1.694.473-.409.315-.697.652-.863 1.009l-1.432-.511c.256-.596.597-1.061 1.023-1.393.43-.337.899-.571 1.406-.703a5.815 5.815 0 0 1 1.509-.205c.315 0 .677.038 1.086.115.414.072.812.224 1.196.454.387.23.709.577.965 1.042.256.464.383 1.086.383 1.866V460h-1.508v-1.33h-.077c-.102.214-.273.442-.511.684-.239.243-.556.45-.953.62-.396.171-.88.256-1.451.256Zm.23-1.355c.597 0 1.1-.117 1.509-.352a2.39 2.39 0 0 0 1.253-2.077v-1.381c-.064.077-.205.147-.422.211-.213.06-.46.113-.742.16a31.56 31.56 0 0 1-1.444.192 5.765 5.765 0 0 0-1.1.249 1.9 1.9 0 0 0-.818.505c-.204.222-.307.524-.307.908 0 .524.194.92.582 1.189.392.264.889.396 1.489.396Zm7.024 1.125v-9.818h1.457v1.483h.102c.179-.486.503-.88.972-1.183a2.865 2.865 0 0 1 1.585-.454c.111 0 .249.003.416.007.166.004.292.01.377.019v1.534a4.228 4.228 0 0 0-.352-.057 3.436 3.436 0 0 0-.569-.045c-.477 0-.903.1-1.278.3a2.264 2.264 0 0 0-.882.818 2.21 2.21 0 0 0-.32 1.183V460h-1.508Zm7.967 3.682c-.255 0-.483-.021-.684-.064a1.808 1.808 0 0 1-.415-.115l.383-1.33c.367.094.691.128.972.103.281-.026.531-.152.748-.378.222-.221.424-.581.607-1.08l.281-.767-3.63-9.869h1.636l2.71 7.824h.103l2.71-7.824h1.636l-4.167 11.25c-.188.507-.42.927-.697 1.259a2.612 2.612 0 0 1-.965.748 2.981 2.981 0 0 1-1.228.243Zm12.27-9.205c0 1.611-.211 3.094-.633 4.449a13.716 13.716 0 0 1-1.796 3.733h-1.33a7.99 7.99 0 0 0 .857-1.56c.268-.613.503-1.287.703-2.019.2-.738.356-1.498.467-2.282.115-.789.172-1.562.172-2.321 0-1.014-.098-2.043-.294-3.087a17.764 17.764 0 0 0-.792-2.908c-.333-.895-.703-1.624-1.113-2.187h1.33a13.702 13.702 0 0 1 1.796 3.74c.422 1.351.633 2.831.633 4.442ZM120.624 755.5v-1.994l4.659-4.315c.397-.383.729-.729.998-1.035.272-.307.479-.608.62-.902.14-.298.211-.62.211-.965 0-.383-.088-.714-.263-.991a1.716 1.716 0 0 0-.715-.645 2.24 2.24 0 0 0-1.03-.23c-.4 0-.75.081-1.048.242a1.68 1.68 0 0 0-.69.697c-.162.303-.243.663-.243 1.08h-2.627c0-.856.194-1.6.581-2.23a3.888 3.888 0 0 1 1.63-1.464c.699-.345 1.505-.518 2.417-.518.937 0 1.753.166 2.448.499.699.328 1.242.784 1.63 1.368.387.583.581 1.252.581 2.007 0 .494-.098.982-.294 1.463-.191.482-.534 1.017-1.029 1.605-.494.584-1.191 1.285-2.09 2.103l-1.911 1.873v.089h5.497v2.263h-9.332Zm16.47.288c-1.099-.005-2.045-.275-2.838-.812-.788-.537-1.395-1.315-1.822-2.333-.421-1.019-.63-2.244-.626-3.676 0-1.427.211-2.644.633-3.65.426-1.005 1.033-1.77 1.822-2.294.792-.529 1.736-.793 2.831-.793s2.037.264 2.826.793c.792.528 1.402 1.295 1.828 2.301.426 1.001.637 2.216.633 3.643 0 1.436-.214 2.664-.64 3.682-.422 1.019-1.027 1.796-1.815 2.333-.788.537-1.732.806-2.832.806Zm0-2.295c.75 0 1.349-.377 1.796-1.131.448-.755.669-1.886.665-3.395 0-.993-.102-1.819-.307-2.48-.2-.66-.485-1.157-.856-1.489a1.867 1.867 0 0 0-1.298-.499c-.745 0-1.342.373-1.789 1.119-.448.746-.674 1.862-.678 3.349 0 1.006.1 1.845.3 2.519.205.669.493 1.172.863 1.508a1.89 1.89 0 0 0 1.304.499Zm12.955-11.084V755.5h-2.767v-10.464h-.077l-2.998 1.879v-2.454l3.241-2.052h2.601Zm3.112 13.091v-1.994l4.659-4.315c.397-.383.729-.729.998-1.035.272-.307.479-.608.62-.902.14-.298.211-.62.211-.965 0-.383-.088-.714-.262-.991a1.725 1.725 0 0 0-.716-.645 2.239 2.239 0 0 0-1.029-.23c-.401 0-.75.081-1.049.242a1.68 1.68 0 0 0-.69.697c-.162.303-.243.663-.243 1.08h-2.627c0-.856.194-1.6.582-2.23a3.88 3.88 0 0 1 1.629-1.464c.699-.345 1.505-.518 2.417-.518.937 0 1.753.166 2.448.499.699.328 1.242.784 1.63 1.368.388.583.581 1.252.581 2.007 0 .494-.098.982-.294 1.463-.191.482-.534 1.017-1.029 1.605-.494.584-1.191 1.285-2.09 2.103l-1.911 1.873v.089h5.497v2.263h-9.332Zm-69.033 22v-13.091h1.585v11.685H91.8v1.406h-7.67Zm13.91.205c-.887 0-1.665-.211-2.334-.633-.665-.422-1.184-1.012-1.56-1.771-.37-.758-.556-1.645-.556-2.659 0-1.023.186-1.915.556-2.678.375-.763.895-1.355 1.56-1.777.67-.422 1.447-.633 2.333-.633.887 0 1.662.211 2.327.633.669.422 1.189 1.014 1.56 1.777.375.763.562 1.655.562 2.678 0 1.014-.187 1.901-.562 2.659-.371.759-.891 1.349-1.56 1.771-.665.422-1.44.633-2.327.633Zm0-1.356c.673 0 1.227-.172 1.661-.517.435-.345.757-.799.965-1.362a5.207 5.207 0 0 0 .314-1.828c0-.656-.105-1.268-.314-1.834a3.088 3.088 0 0 0-.965-1.375c-.434-.349-.988-.524-1.662-.524-.673 0-1.227.175-1.662.524-.434.35-.756.808-.965 1.375a5.259 5.259 0 0 0-.313 1.834c0 .656.104 1.266.313 1.828a3.05 3.05 0 0 0 .965 1.362c.435.345.989.517 1.662.517Zm8.157-2.429-.025-1.866h.306l4.296-4.372h1.866l-4.576 4.628h-.128l-1.739 1.61Zm-1.406 3.58v-13.091h1.508V777.5h-1.508Zm6.239 0-3.836-4.858 1.074-1.048 4.679 5.906h-1.917Zm3.552 0v-9.818h1.508v9.818h-1.508Zm.767-11.455c-.294 0-.548-.1-.761-.3a.964.964 0 0 1-.313-.722c0-.282.104-.522.313-.723.213-.2.467-.3.761-.3s.545.1.754.3c.213.201.32.441.32.723a.956.956 0 0 1-.32.722c-.209.2-.46.3-.754.3Zm4.834-1.636v1.151c0 .349-.064.722-.192 1.118a4.584 4.584 0 0 1-.55 1.144 4.01 4.01 0 0 1-.869.959l-.818-.665c.268-.383.501-.781.697-1.195.2-.417.3-.863.3-1.336v-1.176h1.432Zm7.559 5.472-1.356.383a2.51 2.51 0 0 0-.377-.658 1.827 1.827 0 0 0-.664-.537c-.282-.141-.642-.211-1.081-.211-.601 0-1.101.138-1.502.415-.396.273-.594.62-.594 1.042 0 .375.136.672.409.889.272.217.699.398 1.278.543l1.458.358c.877.213 1.532.539 1.962.978.43.435.646.995.646 1.681 0 .563-.162 1.066-.486 1.509-.32.443-.767.792-1.343 1.048-.575.256-1.244.384-2.007.384-1.001 0-1.83-.218-2.486-.652-.656-.435-1.072-1.07-1.247-1.905l1.432-.358c.137.528.394.924.774 1.189.383.264.884.396 1.502.396.703 0 1.261-.149 1.674-.447.418-.303.627-.665.627-1.087 0-.341-.119-.627-.358-.857-.239-.234-.605-.409-1.1-.524l-1.636-.383c-.899-.213-1.56-.544-1.981-.991-.418-.452-.627-1.016-.627-1.694 0-.554.156-1.044.467-1.47.315-.426.743-.761 1.285-1.004.545-.243 1.163-.364 1.853-.364.972 0 1.735.213 2.289.639.558.426.954.989 1.189 1.688Zm14.875-2.199a2.003 2.003 0 0 0-.933-1.509c-.545-.358-1.214-.537-2.007-.537-.579 0-1.087.094-1.521.282-.431.187-.767.445-1.01.773a1.852 1.852 0 0 0-.358 1.119c0 .349.083.65.249.901.171.247.388.454.652.62.264.162.541.296.831.403.29.102.556.185.799.249l1.33.358c.341.089.72.213 1.137.371.422.157.825.373 1.209.645.387.269.707.614.958 1.036.252.422.377.939.377 1.553 0 .707-.185 1.347-.556 1.918-.366.571-.903 1.024-1.61 1.361-.704.337-1.558.505-2.564.505-.937 0-1.749-.151-2.435-.454-.682-.302-1.219-.724-1.611-1.265-.388-.542-.607-1.17-.658-1.886h1.636c.043.494.209.903.499 1.227.294.32.665.559 1.112.716.452.154.937.23 1.457.23.605 0 1.149-.098 1.63-.294.482-.2.863-.477 1.145-.831.281-.358.421-.775.421-1.253 0-.434-.121-.788-.364-1.061a2.671 2.671 0 0 0-.959-.664 9.961 9.961 0 0 0-1.285-.448l-1.61-.46c-1.023-.294-1.833-.714-2.429-1.259-.597-.546-.895-1.26-.895-2.142 0-.733.198-1.372.594-1.917.401-.55.938-.976 1.611-1.279.678-.306 1.434-.46 2.269-.46.844 0 1.594.151 2.25.454.656.298 1.176.707 1.56 1.227.388.52.592 1.11.614 1.771h-1.535Zm8.104 10.023c-.921 0-1.713-.218-2.378-.652-.665-.435-1.176-1.034-1.534-1.797-.358-.762-.537-1.634-.537-2.614 0-.997.183-1.877.55-2.64.371-.767.886-1.366 1.547-1.796.664-.435 1.44-.652 2.326-.652.691 0 1.313.128 1.867.384a3.56 3.56 0 0 1 1.361 1.073c.354.461.573.998.659 1.611h-1.509c-.115-.447-.371-.844-.767-1.189-.392-.349-.92-.524-1.585-.524-.588 0-1.104.153-1.547.46-.439.303-.782.731-1.029 1.285-.243.55-.364 1.195-.364 1.937 0 .758.119 1.419.358 1.981.242.563.583 1 1.022 1.311.443.311.963.466 1.56.466.392 0 .748-.068 1.067-.204.32-.136.591-.333.812-.588.222-.256.379-.563.473-.921h1.509a3.495 3.495 0 0 1-.633 1.566 3.535 3.535 0 0 1-1.323 1.1c-.546.268-1.181.403-1.905.403Zm10.182 0c-.946 0-1.762-.209-2.448-.627a4.207 4.207 0 0 1-1.579-1.764c-.366-.759-.549-1.641-.549-2.646 0-1.006.183-1.892.549-2.659.371-.772.887-1.373 1.547-1.803.665-.435 1.441-.652 2.327-.652.511 0 1.016.085 1.515.256.499.17.952.447 1.361.831.41.379.736.882.978 1.508.243.627.365 1.398.365 2.314v.639h-7.568v-1.304h6.034c0-.554-.111-1.048-.333-1.483a2.508 2.508 0 0 0-.933-1.029c-.4-.251-.873-.377-1.419-.377-.601 0-1.121.149-1.56.448a2.942 2.942 0 0 0-1.003 1.15c-.235.473-.352.98-.352 1.521v.87c0 .741.128 1.37.384 1.885.26.512.62.902 1.08 1.17.46.264.995.396 1.604.396.397 0 .755-.055 1.074-.166.324-.115.603-.285.838-.511a2.33 2.33 0 0 0 .543-.857l1.457.409a3.224 3.224 0 0 1-.773 1.304c-.362.371-.81.661-1.342.87-.533.204-1.132.307-1.797.307Zm6.361 3.477v-13.5h1.457v1.559h.179c.111-.17.264-.387.46-.652.2-.268.486-.507.857-.715.375-.213.882-.32 1.521-.32.827 0 1.555.207 2.186.62.631.413 1.123.999 1.477 1.758.353.758.53 1.653.53 2.684 0 1.04-.177 1.942-.53 2.704-.354.759-.844 1.347-1.471 1.765-.626.413-1.348.62-2.166.62-.631 0-1.136-.105-1.515-.314-.38-.213-.672-.454-.876-.722a9.64 9.64 0 0 1-.473-.678h-.128v5.191h-1.508Zm1.482-8.591c0 .741.109 1.396.326 1.962.218.563.535 1.004.953 1.323.418.316.929.473 1.534.473.631 0 1.157-.166 1.579-.498.426-.337.746-.789.959-1.355a5.325 5.325 0 0 0 .326-1.905c0-.69-.107-1.313-.32-1.867-.209-.558-.526-.999-.952-1.323-.422-.328-.953-.492-1.592-.492-.614 0-1.129.156-1.547.467-.417.307-.733.737-.946 1.291-.213.55-.32 1.191-.32 1.924Zm13.756-4.909v1.278h-5.088v-1.278h5.088Zm-3.605-2.352h1.509v9.358c0 .426.061.745.185.958.128.209.29.35.486.422.2.068.411.102.633.102.166 0 .302-.008.409-.025l.255-.051.307 1.355a3.064 3.064 0 0 1-.428.115 3.132 3.132 0 0 1-.697.064c-.426 0-.844-.092-1.253-.275a2.488 2.488 0 0 1-1.01-.837c-.264-.375-.396-.848-.396-1.419v-9.767Zm9.885 12.375c-.946 0-1.762-.209-2.448-.627a4.207 4.207 0 0 1-1.579-1.764c-.366-.759-.549-1.641-.549-2.646 0-1.006.183-1.892.549-2.659.371-.772.887-1.373 1.547-1.803.665-.435 1.441-.652 2.327-.652.511 0 1.016.085 1.515.256.498.17.952.447 1.361.831.409.379.735.882.978 1.508.243.627.365 1.398.365 2.314v.639h-7.568v-1.304h6.034c0-.554-.111-1.048-.333-1.483a2.508 2.508 0 0 0-.933-1.029c-.401-.251-.874-.377-1.419-.377-.601 0-1.121.149-1.56.448a2.942 2.942 0 0 0-1.003 1.15c-.235.473-.352.98-.352 1.521v.87c0 .741.128 1.37.384 1.885.26.512.62.902 1.08 1.17.46.264.995.396 1.604.396.397 0 .755-.055 1.074-.166.324-.115.603-.285.838-.511a2.33 2.33 0 0 0 .543-.857l1.457.409a3.224 3.224 0 0 1-.773 1.304c-.362.371-.81.661-1.342.87-.533.204-1.132.307-1.797.307Zm6.36-.205v-9.818h1.458v1.483h.102c.179-.486.503-.88.972-1.183a2.862 2.862 0 0 1 1.585-.454c.111 0 .249.003.415.007.167.004.292.01.378.019v1.534a4.307 4.307 0 0 0-.352-.057 3.445 3.445 0 0 0-.569-.045c-.477 0-.903.1-1.278.3a2.264 2.264 0 0 0-.882.818 2.21 2.21 0 0 0-.32 1.183v6.213h-1.509ZM57.513 792.955c0-1.611.21-3.092.627-4.443a13.862 13.862 0 0 1 1.802-3.739h1.33a8.231 8.231 0 0 0-.863 1.559 15.203 15.203 0 0 0-.697 2.027c-.2.733-.358 1.491-.473 2.275-.11.784-.166 1.558-.166 2.321 0 1.014.098 2.043.294 3.087a17.75 17.75 0 0 0 .793 2.908c.332.895.703 1.624 1.112 2.186h-1.33a13.869 13.869 0 0 1-1.802-3.733c-.418-1.355-.627-2.838-.627-4.448Zm6.19 6.545v-13.091h4.576c.912 0 1.664.158 2.257.473.592.311 1.033.731 1.323 1.259.29.524.434 1.106.434 1.745 0 .563-.1 1.027-.3 1.394a2.34 2.34 0 0 1-.78.869c-.32.213-.667.371-1.042.473v.128c.4.026.803.166 1.208.422.405.256.744.622 1.017 1.099.272.478.409 1.061.409 1.752 0 .656-.15 1.246-.448 1.77-.298.524-.769.94-1.412 1.247-.644.307-1.481.46-2.512.46h-4.73Zm1.585-1.406h3.145c1.035 0 1.77-.201 2.205-.601.439-.405.658-.895.658-1.47 0-.443-.113-.853-.339-1.228a2.453 2.453 0 0 0-.965-.907c-.417-.23-.912-.345-1.483-.345h-3.221v4.551Zm0-5.932h2.94c.477 0 .908-.094 1.291-.281a2.26 2.26 0 0 0 .92-.793c.23-.341.346-.741.346-1.202 0-.575-.2-1.063-.601-1.463-.4-.405-1.036-.608-1.905-.608h-2.991v4.347Zm12.806 7.568a3.995 3.995 0 0 1-1.694-.351 2.908 2.908 0 0 1-1.208-1.03c-.298-.451-.447-.997-.447-1.636 0-.562.11-1.018.332-1.368.222-.354.518-.631.889-.831.37-.2.78-.349 1.227-.447.451-.103.905-.183 1.361-.243.597-.077 1.08-.134 1.451-.173.375-.042.648-.113.819-.211.174-.098.262-.268.262-.511v-.051c0-.631-.173-1.121-.518-1.47-.341-.35-.859-.524-1.553-.524-.72 0-1.285.157-1.694.473-.41.315-.697.652-.863 1.009l-1.432-.511c.256-.596.597-1.061 1.023-1.393.43-.337.899-.571 1.406-.703a5.812 5.812 0 0 1 1.508-.205c.316 0 .678.038 1.087.115.413.072.812.224 1.195.454.388.23.71.577.966 1.042.255.464.383 1.086.383 1.866v6.469h-1.508v-1.33h-.077a2.625 2.625 0 0 1-.511.684c-.24.243-.557.45-.953.62-.396.171-.88.256-1.45.256Zm.23-1.355c.597 0 1.1-.117 1.509-.352a2.387 2.387 0 0 0 1.253-2.077v-1.381c-.064.077-.205.147-.422.211-.213.06-.46.113-.742.16a31.487 31.487 0 0 1-1.444.192 5.757 5.757 0 0 0-1.1.249c-.337.111-.61.279-.818.505-.204.222-.307.524-.307.908 0 .524.194.92.582 1.189.392.264.888.396 1.49.396Zm11.293-8.693v1.278H84.53v-1.278h5.088Zm-3.605-2.352h1.509v9.358c0 .426.062.745.185.958.128.209.29.35.486.422.2.068.411.102.633.102.166 0 .302-.008.409-.025l.256-.051.306 1.355a3.068 3.068 0 0 1-.428.115 3.13 3.13 0 0 1-.697.064 3.04 3.04 0 0 1-1.253-.275 2.486 2.486 0 0 1-1.01-.837c-.264-.375-.396-.848-.396-1.419v-9.767Zm10.144 2.352v1.278h-5.088v-1.278h5.088Zm-3.605-2.352h1.509v9.358c0 .426.062.745.185.958.128.209.29.35.486.422.2.068.411.102.633.102.166 0 .302-.008.409-.025l.256-.051.306 1.355a3.07 3.07 0 0 1-.428.115 3.128 3.128 0 0 1-.697.064 3.04 3.04 0 0 1-1.252-.275 2.486 2.486 0 0 1-1.01-.837c-.265-.375-.397-.848-.397-1.419v-9.767Zm7.594-.921V799.5h-1.508v-13.091h1.508Zm6.88 13.296c-.947 0-1.763-.209-2.449-.627a4.205 4.205 0 0 1-1.578-1.764c-.367-.759-.55-1.641-.55-2.646 0-1.006.183-1.892.55-2.659.37-.772.886-1.373 1.546-1.803.665-.435 1.441-.652 2.327-.652.511 0 1.016.085 1.515.256.499.17.952.447 1.362.831.409.379.735.882.977 1.508.243.627.365 1.398.365 2.314v.639h-7.568v-1.304h6.034c0-.554-.111-1.048-.333-1.483a2.508 2.508 0 0 0-.933-1.029c-.4-.251-.873-.377-1.419-.377-.601 0-1.121.149-1.56.448a2.942 2.942 0 0 0-1.003 1.15c-.234.473-.352.98-.352 1.521v.87c0 .741.128 1.37.384 1.885.26.512.62.902 1.08 1.17.46.264.995.396 1.605.396.396 0 .754-.055 1.073-.166.324-.115.603-.285.838-.511a2.33 2.33 0 0 0 .543-.857l1.457.409a3.224 3.224 0 0 1-.773 1.304c-.362.371-.81.661-1.342.87a4.993 4.993 0 0 1-1.796.307Zm15.411 0c-.887 0-1.664-.211-2.333-.633-.665-.422-1.185-1.012-1.56-1.771-.371-.758-.556-1.645-.556-2.659 0-1.023.185-1.915.556-2.678.375-.763.895-1.355 1.56-1.777.669-.422 1.446-.633 2.333-.633.886 0 1.662.211 2.326.633.669.422 1.189 1.014 1.56 1.777.375.763.563 1.655.563 2.678 0 1.014-.188 1.901-.563 2.659-.371.759-.891 1.349-1.56 1.771-.664.422-1.44.633-2.326.633Zm0-1.356c.673 0 1.227-.172 1.662-.517.434-.345.756-.799.965-1.362a5.206 5.206 0 0 0 .313-1.828c0-.656-.104-1.268-.313-1.834a3.102 3.102 0 0 0-.965-1.375c-.435-.349-.989-.524-1.662-.524-.674 0-1.228.175-1.662.524-.435.35-.757.808-.965 1.375a5.257 5.257 0 0 0-.314 1.834c0 .656.105 1.266.314 1.828.208.563.53 1.017.965 1.362.434.345.988.517 1.662.517Zm11.123-8.667v1.278h-5.292v-1.278h5.292Zm-3.707 9.818v-11.173c0-.563.132-1.032.396-1.407a2.457 2.457 0 0 1 1.03-.843 3.24 3.24 0 0 1 1.335-.282c.371 0 .674.03.908.09.235.06.409.115.524.166l-.434 1.304a10.305 10.305 0 0 0-.32-.096 1.955 1.955 0 0 0-.524-.057c-.499 0-.859.125-1.08.377-.218.251-.326.62-.326 1.106V799.5h-1.509Zm21.469-13.091V799.5h-1.534l-7.133-10.278h-.128V799.5h-1.585v-13.091h1.534l7.159 10.304h.128v-10.304h1.559Zm7.084 13.296c-.946 0-1.762-.209-2.448-.627a4.207 4.207 0 0 1-1.579-1.764c-.366-.759-.549-1.641-.549-2.646 0-1.006.183-1.892.549-2.659.371-.772.887-1.373 1.547-1.803.665-.435 1.441-.652 2.327-.652.511 0 1.016.085 1.515.256.498.17.952.447 1.361.831.409.379.735.882.978 1.508.243.627.365 1.398.365 2.314v.639h-7.568v-1.304h6.034c0-.554-.111-1.048-.333-1.483a2.508 2.508 0 0 0-.933-1.029c-.401-.251-.874-.377-1.419-.377-.601 0-1.121.149-1.56.448a2.942 2.942 0 0 0-1.003 1.15c-.235.473-.352.98-.352 1.521v.87c0 .741.128 1.37.384 1.885.26.512.62.902 1.08 1.17.46.264.995.396 1.604.396.397 0 .755-.055 1.074-.166.324-.115.603-.285.838-.511a2.33 2.33 0 0 0 .543-.857l1.457.409a3.224 3.224 0 0 1-.773 1.304c-.362.371-.81.661-1.342.87-.533.204-1.132.307-1.797.307Zm8.585-.205-2.992-9.818h1.586l2.122 7.517h.102l2.097-7.517h1.61l2.071 7.491h.103l2.122-7.491h1.585l-2.991 9.818h-1.483l-2.148-7.543h-.153l-2.148 7.543h-1.483Zm16.542-13.091h1.816l3.631 6.111h.153l3.631-6.111h1.815l-4.73 7.696v5.395h-1.585v-5.395l-4.731-7.696Zm15.492 13.296c-.887 0-1.664-.211-2.333-.633-.665-.422-1.185-1.012-1.56-1.771-.371-.758-.556-1.645-.556-2.659 0-1.023.185-1.915.556-2.678.375-.763.895-1.355 1.56-1.777.669-.422 1.446-.633 2.333-.633.886 0 1.662.211 2.326.633.669.422 1.189 1.014 1.56 1.777.375.763.562 1.655.562 2.678 0 1.014-.187 1.901-.562 2.659-.371.759-.891 1.349-1.56 1.771-.664.422-1.44.633-2.326.633Zm0-1.356c.673 0 1.227-.172 1.662-.517.434-.345.756-.799.965-1.362a5.206 5.206 0 0 0 .313-1.828c0-.656-.104-1.268-.313-1.834a3.102 3.102 0 0 0-.965-1.375c-.435-.349-.989-.524-1.662-.524-.674 0-1.228.175-1.662.524-.435.35-.757.808-.966 1.375a5.28 5.28 0 0 0-.313 1.834c0 .656.105 1.266.313 1.828a3.05 3.05 0 0 0 .966 1.362c.434.345.988.517 1.662.517Zm6.751 1.151v-9.818h1.458v1.483h.102c.179-.486.503-.88.971-1.183a2.868 2.868 0 0 1 1.586-.454c.11 0 .249.003.415.007.166.004.292.01.377.019v1.534a4.176 4.176 0 0 0-.351-.057 3.445 3.445 0 0 0-.569-.045c-.477 0-.904.1-1.279.3-.37.196-.664.469-.882.818a2.21 2.21 0 0 0-.319 1.183v6.213h-1.509Zm8.104-3.58-.026-1.866h.307l4.295-4.372h1.867l-4.577 4.628h-.128l-1.738 1.61Zm-1.407 3.58v-13.091h1.509V799.5h-1.509Zm6.239 0-3.835-4.858 1.074-1.048 4.679 5.906h-1.918Zm6.774-5.523c0 1.611-.211 3.094-.633 4.449a13.716 13.716 0 0 1-1.796 3.733h-1.329c.306-.422.592-.942.856-1.56.269-.613.503-1.287.703-2.019.201-.738.356-1.498.467-2.282.115-.789.172-1.562.172-2.321 0-1.014-.098-2.043-.294-3.087a17.764 17.764 0 0 0-.792-2.908c-.333-.895-.703-1.624-1.112-2.187h1.329a13.702 13.702 0 0 1 1.796 3.74c.422 1.351.633 2.831.633 4.442ZM104.351 1034.5v-1.99l4.66-4.32c.396-.38.729-.73.997-1.03.273-.31.479-.61.62-.91.141-.29.211-.62.211-.96 0-.38-.087-.71-.262-.99-.175-.28-.413-.5-.716-.65a2.287 2.287 0 0 0-1.029-.23c-.401 0-.75.08-1.048.25a1.66 1.66 0 0 0-.691.69c-.162.3-.243.66-.243 1.08h-2.627c0-.85.194-1.6.582-2.23.388-.63.931-1.12 1.63-1.46.699-.35 1.504-.52 2.416-.52.938 0 1.754.17 2.448.5.699.33 1.242.78 1.63 1.37.388.58.582 1.25.582 2 0 .5-.098.99-.294 1.47-.192.48-.535 1.01-1.029 1.6-.495.59-1.191 1.29-2.09 2.1l-1.912 1.88v.09h5.498v2.26h-9.333Zm16.471.29c-1.1-.01-2.046-.28-2.838-.81-.789-.54-1.396-1.32-1.822-2.34-.422-1.02-.631-2.24-.626-3.67 0-1.43.211-2.65.632-3.65.427-1.01 1.034-1.77 1.822-2.3.793-.53 1.737-.79 2.832-.79 1.095 0 2.037.26 2.825.79.793.53 1.402 1.3 1.828 2.3.426 1.01.637 2.22.633 3.65 0 1.43-.213 2.66-.639 3.68-.422 1.02-1.027 1.8-1.816 2.33-.788.54-1.732.81-2.831.81Zm0-2.3c.75 0 1.349-.37 1.796-1.13.447-.75.669-1.88.665-3.39 0-1-.103-1.82-.307-2.48-.2-.66-.486-1.16-.857-1.49-.366-.33-.799-.5-1.297-.5-.746 0-1.343.37-1.79 1.12-.447.74-.673 1.86-.678 3.35 0 1 .101 1.84.301 2.52.204.66.492 1.17.863 1.5.371.34.805.5 1.304.5Zm12.955-11.08v13.09h-2.768v-10.46h-.077l-2.997 1.88v-2.46l3.24-2.05h2.602Zm8.135 13.27a6.11 6.11 0 0 1-1.949-.34 4.401 4.401 0 0 1-1.675-1.08c-.494-.5-.886-1.16-1.176-1.98-.286-.82-.428-1.83-.428-3.03.004-1.1.13-2.08.377-2.95.251-.87.609-1.6 1.074-2.21.468-.6 1.029-1.07 1.681-1.38.652-.32 1.383-.48 2.192-.48.874 0 1.645.17 2.314.51.669.34 1.206.8 1.611 1.38.409.58.656 1.23.741 1.95h-2.729c-.106-.46-.33-.82-.671-1.08-.341-.26-.763-.39-1.266-.39-.852 0-1.5.37-1.943 1.11-.439.75-.663 1.75-.671 3.03h.089c.196-.39.461-.72.793-.99a3.68 3.68 0 0 1 1.144-.64c.431-.15.884-.22 1.362-.22.775 0 1.466.18 2.071.55.605.36 1.082.86 1.432 1.5.349.63.524 1.36.524 2.18 0 .88-.207 1.67-.62 2.36a4.28 4.28 0 0 1-1.72 1.62c-.733.39-1.585.58-2.557.58Zm-.012-2.17c.426 0 .807-.11 1.144-.31.336-.21.601-.48.792-.83.192-.35.288-.74.288-1.18 0-.43-.096-.82-.288-1.17a2.153 2.153 0 0 0-.779-.82 2.084 2.084 0 0 0-1.138-.31c-.32 0-.616.06-.889.18-.268.12-.505.29-.709.5-.201.21-.358.46-.473.74-.115.28-.173.57-.173.89 0 .42.096.81.288 1.16.196.34.46.62.792.83.337.21.718.32 1.145.32Zm-39.968 10.9 3.886 11.02h.154l3.886-11.02h1.662l-4.807 13.09h-1.636l-4.807-13.09h1.662Zm11.422 13.09v-9.82h1.509v9.82h-1.509Zm.767-11.45c-.294 0-.547-.1-.76-.3a1 1 0 0 1-.314-.73c0-.28.105-.52.314-.72.213-.2.466-.3.76-.3s.546.1.755.3c.213.2.319.44.319.72a.99.99 0 0 1-.319.73c-.209.2-.461.3-.755.3Zm10.459 3.83-1.355.38a2.518 2.518 0 0 0-.377-.65 1.8 1.8 0 0 0-.665-.54c-.281-.14-.641-.21-1.08-.21-.601 0-1.101.14-1.502.41-.396.28-.595.62-.595 1.05 0 .37.137.67.41.88.272.22.698.4 1.278.55l1.457.36c.878.21 1.532.53 1.963.97.43.44.645 1 .645 1.68 0 .57-.162 1.07-.485 1.51-.32.45-.768.8-1.343 1.05-.575.26-1.244.38-2.007.38-1.001 0-1.83-.21-2.486-.65-.657-.43-1.072-1.07-1.247-1.9l1.432-.36c.136.53.394.92.773 1.19.384.26.885.4 1.503.4.703 0 1.261-.15 1.674-.45.418-.31.627-.67.627-1.09 0-.34-.12-.63-.358-.86-.239-.23-.605-.4-1.1-.52l-1.636-.38c-.899-.22-1.56-.55-1.982-.99-.417-.46-.626-1.02-.626-1.7 0-.55.155-1.04.467-1.47.315-.42.743-.76 1.284-1a4.564 4.564 0 0 1 1.854-.37c.972 0 1.734.22 2.288.64.559.43.955.99 1.189 1.69Zm2.45 7.62v-9.82h1.509v9.82h-1.509Zm.767-11.45c-.294 0-.547-.1-.761-.3a1.002 1.002 0 0 1-.313-.73c0-.28.105-.52.313-.72.214-.2.467-.3.761-.3s.546.1.754.3c.213.2.32.44.32.72a.99.99 0 0 1-.32.73c-.208.2-.46.3-.754.3Zm7.493 11.65c-.886 0-1.664-.21-2.333-.63-.665-.42-1.185-1.01-1.56-1.77-.37-.76-.556-1.64-.556-2.66 0-1.02.186-1.91.556-2.68.375-.76.895-1.35 1.56-1.77.669-.43 1.447-.64 2.333-.64.887 0 1.662.21 2.327.64.669.42 1.189 1.01 1.56 1.77.375.77.562 1.66.562 2.68 0 1.02-.187 1.9-.562 2.66-.371.76-.891 1.35-1.56 1.77-.665.42-1.44.63-2.327.63Zm0-1.35c.674 0 1.227-.17 1.662-.52.435-.34.757-.8.965-1.36.209-.56.314-1.17.314-1.83 0-.65-.105-1.27-.314-1.83a3.086 3.086 0 0 0-.965-1.38c-.435-.35-.988-.52-1.662-.52-.673 0-1.227.17-1.662.52-.434.35-.756.81-.965 1.38a5.234 5.234 0 0 0-.313 1.83c0 .66.104 1.27.313 1.83.209.56.531 1.02.965 1.36.435.35.989.52 1.662.52Zm8.26-4.76v5.91h-1.508v-9.82h1.457v1.54h.128c.23-.5.58-.9 1.048-1.21.469-.3 1.074-.46 1.816-.46.664 0 1.246.14 1.745.41.498.27.886.68 1.163 1.23.277.55.416 1.24.416 2.07v6.24h-1.509v-6.14c0-.77-.2-1.37-.601-1.8-.4-.43-.95-.65-1.649-.65-.482 0-.912.1-1.291.31-.375.21-.671.52-.889.92-.217.4-.326.88-.326 1.45Zm-123.631 21.36c0-1.61.208-3.09.626-4.44.422-1.35 1.023-2.6 1.803-3.74h1.33c-.308.42-.595.94-.864 1.56-.264.62-.496 1.29-.697 2.03-.2.73-.358 1.49-.473 2.27-.11.79-.166 1.56-.166 2.32 0 1.02.098 2.05.294 3.09.196 1.05.46 2.02.793 2.91.332.9.703 1.62 1.112 2.19h-1.33c-.78-1.14-1.38-2.39-1.802-3.74-.418-1.35-.626-2.83-.626-4.45Zm6.726 6.55h-1.662l4.806-13.09h1.637l4.807 13.09H34.57l-3.912-11.02h-.102l-3.912 11.02Zm.613-5.11h6.7v1.4h-6.7v-1.4Zm17.607-4.71-3.63 9.82H39.7l-3.63-9.82h1.636l2.71 7.83h.103l2.71-7.83h1.636Zm5.756 10.02c-.946 0-1.762-.2-2.448-.62-.682-.42-1.208-1.01-1.579-1.77-.366-.75-.55-1.64-.55-2.64 0-1.01.184-1.89.55-2.66.37-.77.887-1.37 1.547-1.8.665-.44 1.44-.66 2.327-.66.511 0 1.016.09 1.515.26.498.17.952.45 1.361.83.41.38.735.88.978 1.51s.364 1.4.364 2.31v.64h-7.568v-1.3h6.034c0-.56-.11-1.05-.332-1.48a2.466 2.466 0 0 0-.933-1.03c-.4-.26-.874-.38-1.42-.38-.6 0-1.12.15-1.559.45-.434.29-.77.67-1.003 1.15-.235.47-.352.98-.352 1.52v.87c0 .74.128 1.37.384 1.88.26.51.62.9 1.08 1.17.46.27.995.4 1.604.4.396 0 .754-.06 1.074-.17.324-.11.603-.28.837-.51.235-.23.416-.51.544-.85l1.457.4c-.153.5-.411.93-.773 1.31-.362.37-.81.66-1.343.87-.532.2-1.131.3-1.796.3Zm7.869-6.11v5.91h-1.51v-9.82h1.458v1.54h.127c.23-.5.58-.9 1.049-1.21.468-.3 1.074-.46 1.815-.46.665 0 1.247.14 1.745.41.499.27.886.68 1.163 1.23.278.55.416 1.24.416 2.07v6.24h-1.509v-6.14c0-.77-.2-1.37-.6-1.8-.4-.43-.95-.65-1.65-.65-.481 0-.911.1-1.29.31-.376.21-.672.52-.89.92-.216.4-.325.88-.325 1.45Zm12.984 9.8c-.73 0-1.356-.1-1.88-.28-.524-.19-.96-.43-1.31-.73-.345-.3-.62-.62-.825-.96l1.202-.85c.136.18.31.39.518.62.209.23.494.43.856.6.367.18.846.27 1.439.27.792 0 1.446-.19 1.962-.58.516-.38.773-.98.773-1.8v-2h-.127c-.111.18-.269.41-.473.67-.2.26-.49.49-.87.7-.375.2-.882.3-1.521.3-.793 0-1.504-.19-2.135-.57-.626-.37-1.123-.92-1.49-1.63-.362-.72-.543-1.59-.543-2.61 0-1.01.177-1.88.53-2.63.355-.75.847-1.33 1.477-1.74.631-.41 1.36-.62 2.186-.62.64 0 1.147.11 1.522.32.38.21.669.45.87.72.204.26.361.48.472.65h.154v-1.56h1.457v10.1c0 .84-.192 1.53-.575 2.06-.38.53-.891.92-1.534 1.17a5.82 5.82 0 0 1-2.135.38Zm-.052-5.4c.606 0 1.117-.14 1.535-.41.417-.28.735-.68.952-1.2.217-.52.326-1.14.326-1.87 0-.7-.106-1.33-.32-1.87-.213-.54-.528-.96-.946-1.27-.417-.31-.933-.46-1.546-.46-.64 0-1.172.16-1.599.48-.421.33-.739.76-.952 1.31a5.01 5.01 0 0 0-.313 1.81c0 .69.106 1.29.32 1.81.217.52.536.93.958 1.23.426.29.955.44 1.585.44Zm11.174 1.71c-.946 0-1.762-.2-2.448-.62a4.178 4.178 0 0 1-1.58-1.77c-.366-.75-.549-1.64-.549-2.64 0-1.01.183-1.89.55-2.66.37-.77.886-1.37 1.547-1.8.665-.44 1.44-.66 2.326-.66.512 0 1.017.09 1.515.26.499.17.953.45 1.362.83.409.38.735.88.978 1.51s.364 1.4.364 2.31v.64h-7.568v-1.3h6.034c0-.56-.11-1.05-.332-1.48a2.467 2.467 0 0 0-.934-1.03c-.4-.26-.873-.38-1.419-.38-.6 0-1.12.15-1.56.45-.434.29-.769.67-1.003 1.15-.234.47-.351.98-.351 1.52v.87c0 .74.127 1.37.383 1.88.26.51.62.9 1.08 1.17.46.27.995.4 1.605.4.396 0 .754-.06 1.074-.17.323-.11.603-.28.837-.51.234-.23.415-.51.543-.85l1.458.4c-.154.5-.411.93-.774 1.31a3.8 3.8 0 0 1-1.342.87c-.533.2-1.131.3-1.796.3Zm6.36-.2v-9.82h1.457v1.48h.103c.178-.48.502-.88.971-1.18.469-.3.997-.45 1.585-.45h.416c.166.01.292.02.377.02v1.54c-.051-.01-.168-.03-.352-.06a3.454 3.454 0 0 0-.569-.04c-.477 0-.903.1-1.278.3-.37.19-.665.46-.882.81-.213.35-.32.74-.32 1.19v6.21h-1.508Zm13.652-7.62-1.355.38a2.523 2.523 0 0 0-.378-.65c-.161-.22-.383-.4-.664-.54-.282-.14-.642-.21-1.08-.21-.601 0-1.102.14-1.503.41-.396.28-.594.62-.594 1.05 0 .37.136.67.409.88.273.22.699.4 1.278.55l1.458.36c.878.21 1.532.53 1.962.97.43.44.646 1 .646 1.68 0 .57-.162 1.07-.486 1.51-.32.45-.767.8-1.342 1.05-.576.26-1.245.38-2.008.38-1.001 0-1.83-.21-2.486-.65-.656-.43-1.072-1.07-1.246-1.9l1.431-.36c.137.53.394.92.774 1.19.383.26.884.4 1.502.4.703 0 1.261-.15 1.675-.45.417-.31.626-.67.626-1.09 0-.34-.119-.63-.358-.86-.239-.23-.605-.4-1.1-.52l-1.636-.38c-.899-.22-1.56-.55-1.981-.99-.418-.46-.627-1.02-.627-1.7 0-.55.156-1.04.467-1.47a3.19 3.19 0 0 1 1.285-1 4.56 4.56 0 0 1 1.853-.37c.972 0 1.735.22 2.289.64.558.43.954.99 1.189 1.69Zm3.549 7.72c-.315 0-.586-.11-.812-.34a1.086 1.086 0 0 1-.339-.81c0-.31.113-.58.339-.81.226-.23.497-.34.812-.34.315 0 .586.11.812.34.226.23.338.5.338.81 0 .21-.053.4-.159.58-.103.17-.241.31-.416.42-.17.1-.362.15-.575.15Zm0-7.28c-.315 0-.586-.12-.812-.34-.226-.23-.339-.5-.339-.82 0-.31.113-.58.339-.81.226-.22.497-.34.812-.34.315 0 .586.12.812.34.226.23.338.5.338.81 0 .21-.053.41-.159.58-.103.17-.241.32-.416.42-.17.1-.362.16-.575.16Zm9.661 7.18h-1.661l4.806-13.09h1.637l4.807 13.09h-1.662l-3.912-11.02h-.103l-3.912 11.02Zm.614-5.11h6.699v1.4h-6.699v-1.4Zm14.772 9c-.729 0-1.355-.1-1.879-.28-.524-.19-.961-.43-1.311-.73a4.03 4.03 0 0 1-.824-.96l1.202-.85c.136.18.309.39.517.62.209.23.495.43.857.6.366.18.846.27 1.438.27.793 0 1.447-.19 1.962-.58.516-.38.774-.98.774-1.8v-2h-.128c-.111.18-.268.41-.473.67-.2.26-.49.49-.869.7-.375.2-.882.3-1.522.3-.792 0-1.504-.19-2.135-.57-.626-.37-1.122-.92-1.489-1.63-.362-.72-.543-1.59-.543-2.61 0-1.01.177-1.88.53-2.63.354-.75.846-1.33 1.477-1.74.631-.41 1.359-.62 2.186-.62.639 0 1.146.11 1.521.32.38.21.669.45.87.72.204.26.362.48.473.65h.153v-1.56h1.457v10.1c0 .84-.191 1.53-.575 2.06-.379.53-.89.92-1.534 1.17-.639.25-1.351.38-2.135.38Zm-.051-5.4c.605 0 1.116-.14 1.534-.41.418-.28.735-.68.952-1.2.218-.52.326-1.14.326-1.87 0-.7-.106-1.33-.319-1.87-.213-.54-.529-.96-.946-1.27-.418-.31-.933-.46-1.547-.46-.639 0-1.172.16-1.598.48-.422.33-.739.76-.952 1.31a5.005 5.005 0 0 0-.314 1.81c0 .69.107 1.29.32 1.81.217.52.537.93.959 1.23.426.29.954.44 1.585.44Zm11.173 1.71c-.946 0-1.762-.2-2.448-.62-.682-.42-1.208-1.01-1.579-1.77-.366-.75-.549-1.64-.549-2.64 0-1.01.183-1.89.549-2.66.371-.77.887-1.37 1.547-1.8.665-.44 1.44-.66 2.327-.66.511 0 1.016.09 1.515.26.498.17.952.45 1.361.83.409.38.735.88.978 1.51s.365 1.4.365 2.31v.64h-7.569v-1.3h6.035c0-.56-.111-1.05-.333-1.48a2.462 2.462 0 0 0-.933-1.03c-.401-.26-.874-.38-1.419-.38-.601 0-1.121.15-1.56.45-.434.29-.769.67-1.003 1.15-.235.47-.352.98-.352 1.52v.87c0 .74.128 1.37.384 1.88.26.51.62.9 1.08 1.17.46.27.995.4 1.604.4.397 0 .755-.06 1.074-.17.324-.11.603-.28.837-.51.235-.23.416-.51.544-.85l1.457.4c-.153.5-.411.93-.773 1.31-.362.37-.81.66-1.343.87-.532.2-1.131.3-1.796.3Zm15.411 0c-.886 0-1.664-.21-2.333-.63-.664-.42-1.184-1.01-1.559-1.77-.371-.76-.556-1.64-.556-2.66 0-1.02.185-1.91.556-2.68.375-.76.895-1.35 1.559-1.77.669-.43 1.447-.64 2.333-.64.887 0 1.662.21 2.327.64.669.42 1.189 1.01 1.56 1.77.375.77.562 1.66.562 2.68 0 1.02-.187 1.9-.562 2.66-.371.76-.891 1.35-1.56 1.77-.665.42-1.44.63-2.327.63Zm0-1.35c.674 0 1.228-.17 1.662-.52.435-.34.757-.8.966-1.36.208-.56.313-1.17.313-1.83 0-.65-.105-1.27-.313-1.83a3.095 3.095 0 0 0-.966-1.38c-.434-.35-.988-.52-1.662-.52-.673 0-1.227.17-1.661.52-.435.35-.757.81-.966 1.38a5.257 5.257 0 0 0-.313 1.83c0 .66.105 1.27.313 1.83.209.56.531 1.02.966 1.36.434.35.988.52 1.661.52Zm11.124-8.67v1.28h-5.292v-1.28h5.292Zm-3.707 9.82v-11.17c0-.57.132-1.03.396-1.41.264-.37.607-.66 1.029-.84.422-.19.867-.28 1.336-.28.371 0 .674.03.908.08.234.06.409.12.524.17l-.435 1.31c-.076-.03-.183-.06-.319-.1a1.862 1.862 0 0 0-.524-.06c-.499 0-.859.13-1.081.38-.217.25-.326.62-.326 1.1v10.82h-1.508Zm19.679-13.09h1.586v8.67c0 .89-.211 1.69-.633 2.39-.418.7-1.008 1.25-1.771 1.66-.763.4-1.657.6-2.684.6-1.027 0-1.922-.2-2.685-.6-.763-.41-1.355-.96-1.777-1.66-.418-.7-.627-1.5-.627-2.39v-8.67h1.586v8.54c0 .64.14 1.21.422 1.71.281.49.681.88 1.201 1.17.524.28 1.151.42 1.88.42.728 0 1.355-.14 1.879-.42.524-.29.924-.68 1.201-1.17.282-.5.422-1.07.422-1.71v-8.54Zm6.055 0v13.09h-1.508v-13.09h1.508Zm7.033 3.27v1.28h-5.088v-1.28h5.088Zm-3.605-2.35h1.508v9.36c0 .42.062.74.186.96.128.21.29.35.486.42.2.07.411.1.632.1.167 0 .303-.01.41-.03.106-.02.191-.03.255-.05l.307 1.36a2.15 2.15 0 0 1-.428.11c-.183.05-.416.07-.697.07a2.94 2.94 0 0 1-1.253-.28 2.487 2.487 0 0 1-1.01-.83c-.264-.38-.396-.85-.396-1.42v-9.77Zm5.874 12.17v-9.82h1.458v1.48h.102c.179-.48.503-.88.972-1.18.468-.3.997-.45 1.585-.45h.415c.166.01.292.02.377.02v1.54c-.051-.01-.168-.03-.351-.06a3.458 3.458 0 0 0-.569-.04c-.477 0-.904.1-1.279.3-.37.19-.664.46-.882.81-.213.35-.319.74-.319 1.19v6.21h-1.509Zm10.387.2c-.886 0-1.664-.21-2.333-.63-.665-.42-1.184-1.01-1.559-1.77-.371-.76-.557-1.64-.557-2.66 0-1.02.186-1.91.557-2.68.375-.76.894-1.35 1.559-1.77.669-.43 1.447-.64 2.333-.64.887 0 1.662.21 2.327.64.669.42 1.189 1.01 1.56 1.77.375.77.562 1.66.562 2.68 0 1.02-.187 1.9-.562 2.66-.371.76-.891 1.35-1.56 1.77-.665.42-1.44.63-2.327.63Zm0-1.35c.674 0 1.228-.17 1.662-.52.435-.34.757-.8.965-1.36.209-.56.314-1.17.314-1.83 0-.65-.105-1.27-.314-1.83a3.086 3.086 0 0 0-.965-1.38c-.434-.35-.988-.52-1.662-.52-.673 0-1.227.17-1.662.52-.434.35-.756.81-.965 1.38a5.234 5.234 0 0 0-.313 1.83c0 .66.104 1.27.313 1.83.209.56.531 1.02.965 1.36.435.35.989.52 1.662.52Zm8.26-4.76v5.91h-1.508v-9.82h1.457v1.54h.128c.23-.5.58-.9 1.048-1.21.469-.3 1.074-.46 1.816-.46.665 0 1.246.14 1.745.41.498.27.886.68 1.163 1.23.277.55.416 1.24.416 2.07v6.24h-1.509v-6.14c0-.77-.2-1.37-.601-1.8-.4-.43-.95-.65-1.649-.65-.481 0-.912.1-1.291.31-.375.21-.671.52-.889.92-.217.4-.326.88-.326 1.45Zm12.243.39c0 1.61-.211 3.09-.633 4.45a13.769 13.769 0 0 1-1.796 3.73h-1.33c.307-.42.593-.94.857-1.56.268-.61.503-1.29.703-2.02.2-.74.356-1.5.467-2.28a16.059 16.059 0 0 0-.122-5.41c-.196-1.04-.46-2.01-.792-2.91-.333-.89-.704-1.62-1.113-2.18h1.33c.78 1.13 1.378 2.38 1.796 3.73.422 1.36.633 2.84.633 4.45ZM288.624 846v-1.994l4.659-4.315c.397-.383.729-.729.998-1.035.272-.307.479-.608.62-.902.14-.298.211-.62.211-.965 0-.383-.088-.714-.263-.991a1.716 1.716 0 0 0-.715-.645 2.24 2.24 0 0 0-1.03-.23c-.4 0-.75.081-1.048.242a1.68 1.68 0 0 0-.69.697c-.162.303-.243.663-.243 1.08h-2.627c0-.856.194-1.6.581-2.23a3.888 3.888 0 0 1 1.63-1.464c.699-.345 1.505-.518 2.417-.518.937 0 1.753.166 2.448.499.699.328 1.242.784 1.63 1.368.387.583.581 1.252.581 2.007 0 .494-.098.982-.294 1.463-.191.482-.534 1.017-1.029 1.605-.494.584-1.191 1.285-2.09 2.103l-1.911 1.873v.089h5.497V846h-9.332Zm16.47.288c-1.099-.005-2.045-.275-2.838-.812-.788-.537-1.395-1.315-1.822-2.333-.421-1.019-.63-2.244-.626-3.676 0-1.427.211-2.644.633-3.65.426-1.005 1.033-1.77 1.822-2.294.792-.529 1.736-.793 2.831-.793s2.037.264 2.826.793c.792.528 1.402 1.295 1.828 2.301.426 1.001.637 2.216.633 3.643 0 1.436-.214 2.664-.64 3.682-.422 1.019-1.027 1.796-1.815 2.333-.788.537-1.732.806-2.832.806Zm0-2.295c.75 0 1.349-.377 1.796-1.131.448-.755.669-1.886.665-3.395 0-.993-.102-1.819-.307-2.48-.2-.66-.485-1.157-.856-1.489a1.867 1.867 0 0 0-1.298-.499c-.745 0-1.342.373-1.789 1.119-.448.746-.674 1.862-.678 3.349 0 1.006.1 1.845.3 2.519.205.669.493 1.172.863 1.508a1.89 1.89 0 0 0 1.304.499Zm12.955-11.084V846h-2.767v-10.464h-.077l-2.998 1.879v-2.454l3.241-2.052h2.601ZM321.161 846v-1.994l4.659-4.315c.397-.383.729-.729.998-1.035.272-.307.479-.608.62-.902.14-.298.211-.62.211-.965 0-.383-.088-.714-.262-.991a1.725 1.725 0 0 0-.716-.645 2.239 2.239 0 0 0-1.029-.23c-.401 0-.75.081-1.049.242a1.68 1.68 0 0 0-.69.697c-.162.303-.243.663-.243 1.08h-2.627c0-.856.194-1.6.582-2.23a3.88 3.88 0 0 1 1.629-1.464c.699-.345 1.505-.518 2.417-.518.937 0 1.753.166 2.448.499.699.328 1.242.784 1.63 1.368.388.583.581 1.252.581 2.007 0 .494-.098.982-.294 1.463-.191.482-.534 1.017-1.029 1.605-.494.584-1.191 1.285-2.09 2.103l-1.911 1.873v.089h5.497V846h-9.332Zm-35.582 22v-13.091h1.586v5.83h6.98v-5.83h1.585V868h-1.585v-5.855h-6.98V868h-1.586Zm14.092 3.682c-.256 0-.484-.021-.684-.064a1.805 1.805 0 0 1-.416-.115l.384-1.33c.366.094.69.128.971.103.282-.026.531-.152.748-.378.222-.221.424-.581.607-1.08l.282-.767-3.631-9.869h1.636l2.711 7.824h.102l2.71-7.824h1.636l-4.167 11.25c-.188.507-.42.927-.697 1.259a2.612 2.612 0 0 1-.965.748 2.973 2.973 0 0 1-1.227.243Zm12.403-3.477c-.818 0-1.54-.207-2.167-.62-.626-.418-1.116-1.006-1.47-1.765-.353-.762-.53-1.664-.53-2.704 0-1.031.177-1.926.53-2.684.354-.759.846-1.345 1.477-1.758.631-.413 1.359-.62 2.186-.62.639 0 1.144.107 1.515.32.375.208.66.447.856.715.201.265.356.482.467.652h.128v-4.832h1.508V868h-1.457v-1.509h-.179a9.64 9.64 0 0 1-.473.678c-.205.268-.496.509-.876.722-.379.209-.884.314-1.515.314Zm.205-1.356c.605 0 1.116-.157 1.534-.473.418-.319.735-.76.952-1.323.218-.566.326-1.221.326-1.962 0-.733-.106-1.374-.319-1.924-.213-.554-.529-.984-.946-1.291-.418-.311-.933-.467-1.547-.467-.639 0-1.172.164-1.598.492-.422.324-.739.765-.952 1.323-.209.554-.314 1.177-.314 1.867 0 .699.107 1.334.32 1.905.217.566.537 1.018.959 1.355.426.332.954.498 1.585.498Zm7.268 1.151v-9.818h1.457v1.483h.102c.179-.486.503-.88.972-1.183a2.865 2.865 0 0 1 1.585-.454c.111 0 .249.003.416.007.166.004.292.01.377.019v1.534a4.228 4.228 0 0 0-.352-.057 3.436 3.436 0 0 0-.569-.045c-.477 0-.903.1-1.278.3a2.264 2.264 0 0 0-.882.818 2.21 2.21 0 0 0-.32 1.183V868h-1.508Zm9.586.23a3.996 3.996 0 0 1-1.694-.351 2.906 2.906 0 0 1-1.208-1.03c-.298-.451-.447-.997-.447-1.636 0-.562.111-1.018.332-1.368.222-.354.518-.631.889-.831.37-.2.779-.349 1.227-.447.452-.103.905-.183 1.361-.243a64.64 64.64 0 0 1 1.451-.173c.375-.042.648-.113.819-.211.174-.098.262-.268.262-.511v-.051c0-.631-.173-1.121-.518-1.47-.341-.35-.859-.524-1.553-.524-.721 0-1.285.157-1.694.473-.409.315-.697.652-.863 1.009l-1.432-.511c.256-.596.597-1.061 1.023-1.393.43-.337.899-.571 1.406-.703a5.808 5.808 0 0 1 1.508-.205c.316 0 .678.038 1.087.115.413.072.812.224 1.195.454.388.23.71.577.966 1.042.255.464.383 1.086.383 1.866V868h-1.508v-1.33h-.077c-.102.214-.273.442-.511.684-.239.243-.557.45-.953.62-.396.171-.88.256-1.451.256Zm.23-1.355c.597 0 1.1-.117 1.509-.352a2.39 2.39 0 0 0 1.253-2.077v-1.381c-.064.077-.205.147-.422.211-.213.06-.46.113-.742.16a31.56 31.56 0 0 1-1.444.192 5.765 5.765 0 0 0-1.1.249 1.9 1.9 0 0 0-.818.505c-.204.222-.307.524-.307.908 0 .524.194.92.582 1.189.392.264.888.396 1.489.396ZM229.342 1169v-1.99l4.66-4.32c.396-.38.729-.73.997-1.03.273-.31.48-.61.62-.91.141-.29.211-.62.211-.96 0-.38-.087-.71-.262-.99-.175-.28-.413-.5-.716-.65a2.284 2.284 0 0 0-1.029-.23c-.4 0-.75.08-1.048.25-.298.16-.529.39-.69.69-.162.3-.243.66-.243 1.08h-2.628c0-.85.194-1.6.582-2.23.388-.63.931-1.12 1.63-1.46.699-.35 1.504-.52 2.416-.52.938 0 1.754.17 2.448.5.699.33 1.243.78 1.63 1.37.388.58.582 1.25.582 2 0 .5-.098.99-.294 1.47-.192.48-.535 1.01-1.029 1.6-.494.59-1.191 1.29-2.09 2.1l-1.911 1.88v.09h5.497v2.26h-9.333Zm16.471.29c-1.099-.01-2.045-.28-2.838-.81-.788-.54-1.396-1.32-1.822-2.34-.422-1.02-.63-2.24-.626-3.67 0-1.43.211-2.65.633-3.65.426-1.01 1.033-1.77 1.821-2.3.793-.53 1.737-.79 2.832-.79 1.095 0 2.037.26 2.825.79.793.53 1.402 1.3 1.828 2.3.427 1.01.638 2.22.633 3.65 0 1.43-.213 2.66-.639 3.68-.422 1.02-1.027 1.8-1.815 2.33-.789.54-1.733.81-2.832.81Zm0-2.3c.75 0 1.349-.37 1.796-1.13.448-.75.669-1.88.665-3.39 0-1-.102-1.82-.307-2.48-.2-.66-.486-1.16-.856-1.49-.367-.33-.799-.5-1.298-.5-.746 0-1.342.37-1.79 1.12-.447.74-.673 1.86-.677 3.35 0 1 .1 1.84.3 2.52.205.66.492 1.17.863 1.5.371.34.805.5 1.304.5Zm12.955-11.08V1169H256v-10.46h-.076l-2.998 1.88v-2.46l3.241-2.05h2.601Zm7.995 13.27c-.984 0-1.86-.16-2.627-.48-.763-.32-1.362-.77-1.796-1.32a3.01 3.01 0 0 1-.652-1.9c0-.55.123-1.05.37-1.5.252-.46.593-.85 1.023-1.15.431-.31.912-.5 1.445-.59v-.09a2.863 2.863 0 0 1-1.701-1.01 2.929 2.929 0 0 1-.652-1.89c0-.68.199-1.28.595-1.81.396-.53.94-.95 1.63-1.25.695-.31 1.483-.46 2.365-.46.882 0 1.668.15 2.359.46.694.31 1.24.73 1.636 1.26.396.53.597 1.13.601 1.8a2.934 2.934 0 0 1-.665 1.89c-.439.53-1.001.87-1.687 1.01v.09c.524.09.999.28 1.425.59.43.3.771.69 1.023 1.15.255.45.385.95.39 1.5a3.046 3.046 0 0 1-.659 1.9c-.434.55-1.035 1-1.802 1.32-.763.32-1.637.48-2.621.48Zm0-2.03c.439 0 .822-.08 1.151-.24.328-.16.583-.38.767-.66.187-.29.281-.62.281-.99 0-.38-.096-.71-.288-1a1.89 1.89 0 0 0-.78-.69 2.425 2.425 0 0 0-1.131-.26c-.422 0-.799.09-1.131.26a1.88 1.88 0 0 0-.787.69c-.187.29-.281.62-.281 1 0 .37.092.7.275.99.183.28.441.5.773.66.333.16.716.24 1.151.24Zm0-5.85c.366 0 .692-.08.978-.23.285-.15.509-.35.671-.62.162-.26.243-.57.243-.91a1.61 1.61 0 0 0-.908-1.5 2.06 2.06 0 0 0-.984-.23c-.371 0-.699.08-.984.23-.286.14-.51.34-.672.6-.157.26-.236.56-.236.9 0 .34.081.65.243.91.162.27.385.47.671.62.285.15.611.23.978.23Zm-46.894 18.02v-1.41h9.819v1.41h-4.117V1191h-1.585v-11.68h-4.117Zm13.569 5.77v5.91h-1.508v-13.09h1.508v4.81h.128c.23-.51.575-.91 1.035-1.21.465-.3 1.083-.46 1.854-.46.669 0 1.255.14 1.758.41.503.26.893.67 1.17 1.22.281.54.422 1.24.422 2.08v6.24h-1.509v-6.14c0-.78-.202-1.38-.607-1.81-.401-.43-.957-.64-1.669-.64-.494 0-.937.1-1.329.31-.388.21-.695.52-.921.92-.221.4-.332.88-.332 1.45Zm12.015 6.14c-.622 0-1.186-.12-1.693-.35-.508-.24-.91-.58-1.209-1.03-.298-.45-.447-1-.447-1.64 0-.56.111-1.02.332-1.36.222-.36.518-.64.889-.84.371-.2.78-.35 1.227-.44.452-.11.906-.19 1.362-.25.596-.07 1.08-.13 1.451-.17.375-.04.647-.11.818-.21.175-.1.262-.27.262-.51v-.05c0-.63-.173-1.12-.518-1.47-.341-.35-.858-.53-1.553-.53-.72 0-1.285.16-1.694.48-.409.31-.697.65-.863 1.01l-1.432-.51c.256-.6.597-1.07 1.023-1.4.43-.34.899-.57 1.406-.7a5.7 5.7 0 0 1 1.509-.21c.315 0 .677.04 1.086.12.414.07.812.22 1.196.45.388.23.709.58.965 1.04.256.47.383 1.09.383 1.87v6.47h-1.508v-1.33h-.077a2.63 2.63 0 0 1-.511.68c-.239.25-.556.45-.953.62-.396.17-.879.26-1.451.26Zm.231-1.35c.596 0 1.099-.12 1.508-.36.413-.23.725-.53.933-.9.213-.37.32-.76.32-1.17v-1.38c-.064.07-.205.14-.422.21-.213.06-.46.11-.741.16-.277.04-.548.08-.812.11-.26.03-.471.06-.633.08-.392.05-.759.13-1.099.25-.337.11-.61.28-.819.5-.204.22-.306.53-.306.91 0 .52.193.92.581 1.19.392.26.889.4 1.49.4Zm8.531-4.79v5.91h-1.508v-9.82h1.457v1.54h.128c.23-.5.58-.9 1.048-1.21.469-.3 1.074-.46 1.816-.46.664 0 1.246.14 1.745.41.498.27.886.68 1.163 1.23.277.55.416 1.24.416 2.07v6.24h-1.509v-6.14c0-.77-.2-1.37-.601-1.8-.4-.43-.95-.65-1.649-.65-.481 0-.912.1-1.291.31-.375.21-.671.52-.889.92-.217.4-.326.88-.326 1.45Zm13.01 6.11c-.887 0-1.664-.21-2.333-.63-.665-.42-1.185-1.01-1.56-1.77-.371-.76-.556-1.64-.556-2.66 0-1.02.185-1.91.556-2.68.375-.76.895-1.35 1.56-1.77.669-.43 1.446-.64 2.333-.64.886 0 1.662.21 2.326.64.67.42 1.189 1.01 1.56 1.77.375.77.563 1.66.563 2.68 0 1.02-.188 1.9-.563 2.66-.371.76-.89 1.35-1.56 1.77-.664.42-1.44.63-2.326.63Zm0-1.35c.673 0 1.227-.17 1.662-.52.434-.34.756-.8.965-1.36.209-.56.313-1.17.313-1.83 0-.65-.104-1.27-.313-1.83a3.101 3.101 0 0 0-.965-1.38c-.435-.35-.989-.52-1.662-.52-.674 0-1.227.17-1.662.52-.435.35-.757.81-.965 1.38a5.234 5.234 0 0 0-.314 1.83c0 .66.105 1.27.314 1.83.208.56.53 1.02.965 1.36.435.35.988.52 1.662.52Zm13.706-6.47-1.355.38a2.518 2.518 0 0 0-.377-.65c-.162-.22-.384-.4-.665-.54s-.641-.21-1.08-.21c-.601 0-1.102.14-1.502.41-.397.28-.595.62-.595 1.05 0 .37.136.67.409.88.273.22.699.4 1.279.55l1.457.36c.878.21 1.532.53 1.962.97.431.44.646 1 .646 1.68 0 .57-.162 1.07-.486 1.51-.319.45-.767.8-1.342 1.05-.576.26-1.245.38-2.007.38-1.002 0-1.831-.21-2.487-.65-.656-.43-1.072-1.07-1.246-1.9l1.432-.36c.136.53.394.92.773 1.19.384.26.884.4 1.502.4.703 0 1.261-.15 1.675-.45.417-.31.626-.67.626-1.09 0-.34-.119-.63-.358-.86-.238-.23-.605-.4-1.099-.52l-1.637-.38c-.899-.22-1.559-.55-1.981-.99-.418-.46-.626-1.02-.626-1.7 0-.55.155-1.04.466-1.47.316-.42.744-.76 1.285-1a4.557 4.557 0 0 1 1.854-.37c.971 0 1.734.22 2.288.64.558.43.955.99 1.189 1.69ZM160.293 1213h-1.662l4.807-13.09h1.636l4.807 13.09h-1.662l-3.912-11.02h-.102l-3.912 11.02Zm.614-5.11h6.699v1.4h-6.699v-1.4Zm17.607-4.71-3.631 9.82h-1.534l-3.631-9.82h1.636l2.711 7.83h.102l2.71-7.83h1.637Zm5.756 10.02c-.946 0-1.762-.2-2.449-.62a4.174 4.174 0 0 1-1.578-1.77c-.367-.75-.55-1.64-.55-2.64 0-1.01.183-1.89.55-2.66.37-.77.886-1.37 1.547-1.8.664-.44 1.44-.66 2.326-.66.512 0 1.017.09 1.515.26.499.17.953.45 1.362.83.409.38.735.88.978 1.51s.364 1.4.364 2.31v.64h-7.568v-1.3h6.034c0-.56-.111-1.05-.333-1.48a2.462 2.462 0 0 0-.933-1.03c-.4-.26-.873-.38-1.419-.38-.601 0-1.121.15-1.559.45-.435.29-.77.67-1.004 1.15-.234.47-.352.98-.352 1.52v.87c0 .74.128 1.37.384 1.88.26.51.62.9 1.08 1.17.46.27.995.4 1.605.4.396 0 .754-.06 1.073-.17.324-.11.603-.28.838-.51.234-.23.415-.51.543-.85l1.458.4c-.154.5-.412.93-.774 1.31a3.8 3.8 0 0 1-1.342.87c-.533.2-1.132.3-1.796.3Zm7.868-6.11v5.91h-1.508v-9.82h1.457v1.54h.128c.23-.5.579-.9 1.048-1.21.469-.3 1.074-.46 1.816-.46.664 0 1.246.14 1.745.41.498.27.886.68 1.163 1.23.277.55.415 1.24.415 2.07v6.24h-1.508v-6.14c0-.77-.2-1.37-.601-1.8-.401-.43-.95-.65-1.649-.65-.482 0-.912.1-1.291.31-.375.21-.671.52-.889.92-.217.4-.326.88-.326 1.45Zm12.984 9.8c-.729 0-1.355-.1-1.879-.28-.524-.19-.961-.43-1.311-.73a4.03 4.03 0 0 1-.824-.96l1.202-.85c.136.18.309.39.517.62.209.23.495.43.857.6.366.18.846.27 1.438.27.793 0 1.447-.19 1.962-.58.516-.38.774-.98.774-1.8v-2h-.128c-.111.18-.268.41-.473.67-.2.26-.49.49-.869.7-.375.2-.882.3-1.522.3-.792 0-1.504-.19-2.135-.57-.626-.37-1.122-.92-1.489-1.63-.362-.72-.543-1.59-.543-2.61 0-1.01.177-1.88.53-2.63.354-.75.846-1.33 1.477-1.74.631-.41 1.359-.62 2.186-.62.639 0 1.146.11 1.521.32.38.21.669.45.87.72.204.26.362.48.473.65h.153v-1.56h1.457v10.1c0 .84-.191 1.53-.575 2.06-.379.53-.891.92-1.534 1.17-.639.25-1.351.38-2.135.38Zm-.051-5.4c.605 0 1.116-.14 1.534-.41.418-.28.735-.68.952-1.2.218-.52.326-1.14.326-1.87 0-.7-.106-1.33-.319-1.87-.213-.54-.529-.96-.946-1.27-.418-.31-.933-.46-1.547-.46-.639 0-1.172.16-1.598.48-.422.33-.739.76-.952 1.31a5.005 5.005 0 0 0-.314 1.81c0 .69.107 1.29.32 1.81.217.52.537.93.959 1.23.426.29.954.44 1.585.44Zm11.173 1.71c-.946 0-1.762-.2-2.448-.62-.682-.42-1.208-1.01-1.579-1.77-.366-.75-.549-1.64-.549-2.64 0-1.01.183-1.89.549-2.66.371-.77.887-1.37 1.547-1.8.665-.44 1.44-.66 2.327-.66.511 0 1.016.09 1.515.26.498.17.952.45 1.361.83.409.38.735.88.978 1.51s.365 1.4.365 2.31v.64h-7.569v-1.3h6.034c0-.56-.11-1.05-.332-1.48a2.462 2.462 0 0 0-.933-1.03c-.401-.26-.874-.38-1.419-.38-.601 0-1.121.15-1.56.45-.434.29-.769.67-1.003 1.15-.235.47-.352.98-.352 1.52v.87c0 .74.128 1.37.384 1.88.26.51.62.9 1.08 1.17.46.27.995.4 1.604.4.397 0 .754-.06 1.074-.17.324-.11.603-.28.837-.51.235-.23.416-.51.544-.85l1.457.4c-.153.5-.411.93-.773 1.31-.362.37-.81.66-1.343.87-.532.2-1.131.3-1.796.3Zm6.36-.2v-9.82h1.458v1.48h.102c.179-.48.503-.88.972-1.18.468-.3.997-.45 1.585-.45h.415c.166.01.292.02.377.02v1.54c-.051-.01-.168-.03-.351-.06a3.458 3.458 0 0 0-.569-.04c-.477 0-.903.1-1.278.3-.371.19-.665.46-.883.81-.213.35-.319.74-.319 1.19v6.21h-1.509Zm13.652-7.62-1.355.38a2.518 2.518 0 0 0-.377-.65c-.162-.22-.384-.4-.665-.54s-.641-.21-1.08-.21c-.601 0-1.102.14-1.502.41-.397.28-.595.62-.595 1.05 0 .37.137.67.409.88.273.22.699.4 1.279.55l1.457.36c.878.21 1.532.53 1.963.97.43.44.645 1 .645 1.68 0 .57-.162 1.07-.486 1.51-.319.45-.767.8-1.342 1.05-.575.26-1.244.38-2.007.38-1.002 0-1.83-.21-2.487-.65-.656-.43-1.071-1.07-1.246-1.9l1.432-.36c.136.53.394.92.773 1.19.384.26.884.4 1.502.4.703 0 1.262-.15 1.675-.45.418-.31.626-.67.626-1.09 0-.34-.119-.63-.358-.86-.238-.23-.605-.4-1.099-.52l-1.636-.38c-.899-.22-1.56-.55-1.982-.99-.417-.46-.626-1.02-.626-1.7 0-.55.155-1.04.466-1.47.316-.42.744-.76 1.285-1a4.564 4.564 0 0 1 1.854-.37c.971 0 1.734.22 2.288.64.558.43.955.99 1.189 1.69Zm3.549 7.72a1.09 1.09 0 0 1-.811-.34 1.086 1.086 0 0 1-.339-.81c0-.31.113-.58.339-.81.225-.23.496-.34.811-.34.316 0 .586.11.812.34.226.23.339.5.339.81 0 .21-.053.4-.16.58-.102.17-.241.31-.415.42-.171.1-.363.15-.576.15Zm0-7.28a1.13 1.13 0 0 1-.811-.34c-.226-.23-.339-.5-.339-.82 0-.31.113-.58.339-.81.225-.22.496-.34.811-.34.316 0 .586.12.812.34.226.23.339.5.339.81 0 .21-.053.41-.16.58-.102.17-.241.32-.415.42-.171.1-.363.16-.576.16Zm10.71-5.91V1213h-1.585v-13.09h1.585Zm4.483 7.18v5.91h-1.509v-9.82h1.457v1.54h.128c.23-.5.58-.9 1.049-1.21.468-.3 1.073-.46 1.815-.46.665 0 1.246.14 1.745.41.499.27.886.68 1.163 1.23.277.55.416 1.24.416 2.07v6.24h-1.509v-6.14c0-.77-.2-1.37-.601-1.8-.4-.43-.95-.65-1.649-.65-.481 0-.912.1-1.291.31-.375.21-.671.52-.888.92-.218.4-.326.88-.326 1.45Zm13.393-3.91v1.28h-5.293v-1.28h5.293Zm-3.708 9.82v-11.17c0-.57.132-1.03.396-1.41.265-.37.608-.66 1.03-.84.421-.19.867-.28 1.336-.28.37 0 .673.03.907.08.235.06.409.12.524.17l-.434 1.31c-.077-.03-.184-.06-.32-.1a1.862 1.862 0 0 0-.524-.06c-.499 0-.859.13-1.08.38-.218.25-.326.62-.326 1.1V1213h-1.509Zm5.822 0v-9.82h1.508v9.82h-1.508Zm.767-11.45c-.294 0-.548-.1-.761-.3a.998.998 0 0 1-.313-.73c0-.28.104-.52.313-.72.213-.2.467-.3.761-.3s.545.1.754.3c.213.2.32.44.32.72a.99.99 0 0 1-.32.73c-.209.2-.46.3-.754.3Zm5.013 5.54v5.91h-1.509v-9.82h1.458v1.54h.127c.231-.5.58-.9 1.049-1.21.468-.3 1.074-.46 1.815-.46.665 0 1.247.14 1.745.41.499.27.886.68 1.163 1.23.277.55.416 1.24.416 2.07v6.24h-1.509v-6.14c0-.77-.2-1.37-.6-1.8-.401-.43-.951-.65-1.65-.65-.481 0-.912.1-1.291.31-.375.21-.671.52-.888.92-.218.4-.326.88-.326 1.45Zm9.02 5.91v-9.82h1.509v9.82h-1.509Zm.768-11.45c-.295 0-.548-.1-.761-.3a.998.998 0 0 1-.313-.73c0-.28.104-.52.313-.72.213-.2.466-.3.761-.3.294 0 .545.1.754.3.213.2.319.44.319.72a.99.99 0 0 1-.319.73c-.209.2-.46.3-.754.3Zm7.774 1.63v1.28h-5.088v-1.28h5.088Zm-3.605-2.35h1.508v9.36c0 .42.062.74.186.96.127.21.289.35.485.42.201.07.412.1.633.1.166 0 .303-.01.409-.03.107-.02.192-.03.256-.05l.307 1.36a2.15 2.15 0 0 1-.428.11c-.184.05-.416.07-.697.07a2.94 2.94 0 0 1-1.253-.28 2.487 2.487 0 0 1-1.01-.83c-.264-.38-.396-.85-.396-1.42v-9.77Zm6.846 15.85a3.51 3.51 0 0 1-.684-.06 1.748 1.748 0 0 1-.416-.12l.384-1.33c.366.1.69.13.971.11.282-.03.531-.16.748-.38.222-.22.424-.58.607-1.08l.282-.77-3.631-9.87h1.636l2.711 7.83h.102l2.71-7.83h1.636l-4.167 11.25c-.188.51-.42.93-.697 1.26-.277.34-.599.59-.965.75-.362.16-.771.24-1.227.24Zm16.692-3.68-3.579-13.09h1.611l2.735 10.66h.128l2.787-10.66h1.79l2.787 10.66h.128l2.736-10.66h1.61l-3.579 13.09h-1.637l-2.889-10.43h-.102l-2.889 10.43h-1.637Zm16.479.23c-.622 0-1.187-.12-1.694-.35-.507-.24-.91-.58-1.208-1.03-.298-.45-.447-1-.447-1.64 0-.56.111-1.02.332-1.36.222-.36.518-.64.889-.84.37-.2.779-.35 1.227-.44a12.8 12.8 0 0 1 1.361-.25c.597-.07 1.081-.13 1.451-.17.375-.04.648-.11.819-.21.174-.1.262-.27.262-.51v-.05c0-.63-.173-1.12-.518-1.47-.341-.35-.859-.53-1.553-.53-.721 0-1.285.16-1.694.48-.409.31-.697.65-.863 1.01l-1.432-.51c.256-.6.597-1.07 1.023-1.4.43-.34.899-.57 1.406-.7a5.692 5.692 0 0 1 1.508-.21c.316 0 .678.04 1.087.12.413.07.812.22 1.195.45.388.23.71.58.966 1.04.255.47.383 1.09.383 1.87v6.47h-1.508v-1.33h-.077c-.102.21-.273.44-.511.68-.239.25-.557.45-.953.62-.396.17-.88.26-1.451.26Zm.23-1.35c.597 0 1.1-.12 1.509-.36.413-.23.724-.53.933-.9.213-.37.32-.76.32-1.17v-1.38c-.064.07-.205.14-.422.21-.213.06-.46.11-.742.16-.277.04-.547.08-.812.11-.259.03-.47.06-.632.08-.392.05-.759.13-1.1.25a1.94 1.94 0 0 0-.818.5c-.204.22-.307.53-.307.91 0 .52.194.92.582 1.19.392.26.888.4 1.489.4Zm7.024 1.12v-9.82h1.457v1.48h.102c.179-.48.503-.88.972-1.18.469-.3.997-.45 1.585-.45h.415c.167.01.292.02.378.02v1.54c-.052-.01-.169-.03-.352-.06a3.458 3.458 0 0 0-.569-.04c-.477 0-.903.1-1.278.3-.371.19-.665.46-.882.81-.213.35-.32.74-.32 1.19v6.21h-1.508Z"/>
</svg>
