<svg xmlns="http://www.w3.org/2000/svg" width="1216" height="183" fill="none" viewBox="0 0 1216 183">
  <path fill="#75BCF0" d="M56 89h1060v5H56z"/>
  <circle cx="56.5" cy="91.5" r="12" fill="#fff" stroke="#75BCF0" stroke-width="3"/>
  <circle cx="407.5" cy="91.5" r="8" fill="#fff" stroke="#75BCF0" stroke-width="3"/>
  <circle cx="755.5" cy="91.5" r="8" fill="#fff" stroke="#75BCF0" stroke-width="3"/>
  <circle cx="1034.5" cy="91.5" r="8" fill="#fff" stroke="#75BCF0" stroke-width="3"/>
  <circle cx="836.5" cy="91.5" r="8" fill="#fff" stroke="#75BCF0" stroke-width="3"/>
  <circle cx="1115.5" cy="91.5" r="12" fill="#fff" stroke="#75BCF0" stroke-width="3"/>
  <path fill="#fff" d="M30.799 35.492h-2.8a2.736 2.736 0 0 0-.313-.965 2.454 2.454 0 0 0-.608-.729 2.672 2.672 0 0 0-.856-.46 3.274 3.274 0 0 0-1.042-.16c-.678 0-1.268.169-1.77.505-.503.333-.893.818-1.17 1.458-.277.635-.416 1.406-.416 2.314 0 .933.139 1.717.416 2.352.28.635.673 1.114 1.176 1.438.503.324 1.084.486 1.745.486.37 0 .714-.05 1.029-.147.32-.098.603-.241.85-.428.247-.192.452-.425.614-.697.166-.273.28-.584.345-.933l2.8.012a5.224 5.224 0 0 1-1.7 3.228 5.444 5.444 0 0 1-1.727 1.036c-.664.251-1.416.377-2.256.377-1.168 0-2.212-.264-3.132-.793-.916-.528-1.64-1.293-2.173-2.294-.529-1.002-.793-2.214-.793-3.637 0-1.428.268-2.642.805-3.644.537-1.001 1.266-1.764 2.186-2.288.921-.529 1.956-.793 3.107-.793.759 0 1.462.107 2.11.32a5.35 5.35 0 0 1 1.732.933 4.8 4.8 0 0 1 1.227 1.49c.32.587.524 1.26.614 2.02ZM32.732 44v-9.818h2.64v1.713h.102c.18-.61.48-1.07.902-1.38a2.37 2.37 0 0 1 1.457-.474 4.106 4.106 0 0 1 .857.096v2.416a3.544 3.544 0 0 0-.531-.102 4.77 4.77 0 0 0-.62-.045c-.4 0-.758.088-1.074.262a1.93 1.93 0 0 0-.741.716c-.18.307-.269.66-.269 1.061V44h-2.723Zm11.383.192c-1.01 0-1.88-.205-2.608-.614a4.203 4.203 0 0 1-1.675-1.751c-.392-.759-.588-1.656-.588-2.691 0-1.01.196-1.897.588-2.66a4.347 4.347 0 0 1 1.656-1.783c.716-.426 1.555-.639 2.518-.639.648 0 1.25.104 1.81.313a4.012 4.012 0 0 1 1.47.927c.421.413.75.933.984 1.56.234.622.351 1.35.351 2.186v.748h-8.29V38.1h5.727c0-.392-.085-.74-.256-1.042a1.833 1.833 0 0 0-.71-.71 2.024 2.024 0 0 0-1.041-.261c-.413 0-.78.095-1.1.287a2.016 2.016 0 0 0-.741.76c-.179.316-.27.668-.275 1.056v1.604c0 .486.09.906.269 1.26.183.353.44.626.773.817.332.192.727.288 1.183.288.302 0 .58-.042.83-.128.252-.085.467-.213.646-.383.18-.17.315-.38.41-.627l2.518.166a3.44 3.44 0 0 1-.787 1.586c-.392.447-.899.797-1.52 1.048-.619.247-1.333.37-2.142.37Zm9.083-.007c-.627 0-1.185-.108-1.675-.326a2.696 2.696 0 0 1-1.163-.978c-.281-.434-.422-.975-.422-1.623 0-.546.1-1.004.3-1.375.2-.37.473-.669.819-.894a3.967 3.967 0 0 1 1.176-.512 8.952 8.952 0 0 1 1.393-.243c.571-.06 1.031-.115 1.38-.166.35-.055.604-.136.761-.243a.534.534 0 0 0 .237-.473v-.038c0-.405-.128-.718-.383-.94-.252-.221-.61-.332-1.074-.332-.49 0-.88.109-1.17.326a1.5 1.5 0 0 0-.575.805l-2.519-.204c.128-.597.38-1.113.754-1.547a3.62 3.62 0 0 1 1.451-1.01c.597-.239 1.287-.358 2.071-.358.546 0 1.068.064 1.566.192a4.1 4.1 0 0 1 1.336.594c.392.269.701.614.927 1.036.226.417.339.918.339 1.502V44h-2.582v-1.361h-.077a2.772 2.772 0 0 1-.633.811 2.93 2.93 0 0 1-.952.544c-.371.127-.8.191-1.285.191Zm.78-1.879c.4 0 .754-.079 1.06-.236a1.88 1.88 0 0 0 .723-.652 1.68 1.68 0 0 0 .262-.927v-1.042a1.46 1.46 0 0 1-.351.153 6.391 6.391 0 0 1-.493.122c-.183.034-.366.066-.55.096l-.498.07c-.32.047-.599.121-.837.224a1.33 1.33 0 0 0-.556.415c-.132.17-.199.384-.199.64 0 .37.135.653.403.85.273.191.618.287 1.036.287Zm12.084-8.124v2.045h-5.913v-2.045h5.913Zm-4.57-2.353h2.723v9.154c0 .251.038.447.115.588a.635.635 0 0 0 .32.288c.14.055.302.083.485.083.128 0 .256-.01.384-.032l.294-.058.428 2.027a7.684 7.684 0 0 1-.575.147 4.62 4.62 0 0 1-.902.108c-.656.026-1.231-.062-1.726-.262-.49-.2-.871-.511-1.144-.933-.273-.422-.407-.955-.402-1.598v-9.512ZM67.836 44v-9.818h2.723V44h-2.723Zm1.368-11.084a1.48 1.48 0 0 1-1.042-.402 1.306 1.306 0 0 1-.429-.979c0-.375.143-.696.429-.965a1.47 1.47 0 0 1 1.042-.409c.404 0 .75.137 1.035.41.29.268.435.59.435.964 0 .38-.145.706-.435.979-.285.268-.63.402-1.035.402Zm7.972 11.276c-.993 0-1.852-.211-2.576-.633a4.33 4.33 0 0 1-1.668-1.777c-.392-.763-.588-1.647-.588-2.653 0-1.014.196-1.9.588-2.659a4.28 4.28 0 0 1 1.668-1.777c.725-.426 1.583-.639 2.576-.639.993 0 1.85.213 2.57.64a4.268 4.268 0 0 1 1.674 1.776c.392.759.588 1.645.588 2.66 0 1.005-.196 1.89-.588 2.652a4.318 4.318 0 0 1-1.674 1.777c-.72.422-1.577.633-2.57.633Zm.013-2.11c.452 0 .829-.127 1.131-.383.303-.26.53-.614.684-1.061.158-.448.237-.957.237-1.528 0-.57-.08-1.08-.237-1.528-.153-.447-.381-.8-.684-1.06-.302-.26-.68-.39-1.131-.39-.456 0-.84.13-1.15.39-.308.26-.54.613-.698 1.06-.153.448-.23.957-.23 1.528 0 .571.077 1.08.23 1.528.158.447.39.8.697 1.06.311.257.695.384 1.15.384Zm9.313-3.758V44h-2.723v-9.818h2.595v1.732h.115a2.739 2.739 0 0 1 1.093-1.355c.512-.337 1.132-.505 1.86-.505.682 0 1.277.15 1.784.447.507.299.901.725 1.182 1.279.281.55.422 1.206.422 1.969V44h-2.723v-5.766c.004-.6-.149-1.07-.46-1.406-.311-.34-.74-.511-1.285-.511-.366 0-.69.079-.971.236a1.648 1.648 0 0 0-.653.69c-.153.299-.232.659-.236 1.08Zm-72.785 21.13c0-1.61.21-3.091.627-4.442a13.86 13.86 0 0 1 1.802-3.74h1.33a8.239 8.239 0 0 0-.863 1.56 15.207 15.207 0 0 0-.697 2.027c-.2.733-.358 1.491-.473 2.275a16.57 16.57 0 0 0-.166 2.32c0 1.015.098 2.044.294 3.088.196 1.044.46 2.013.793 2.908.332.895.703 1.624 1.112 2.186h-1.33a13.882 13.882 0 0 1-1.802-3.733c-.418-1.355-.627-2.838-.627-4.448ZM19.907 66V52.91h4.576c.912 0 1.664.157 2.257.472.592.311 1.033.73 1.323 1.26.29.523.434 1.105.434 1.744 0 .563-.1 1.027-.3 1.394a2.336 2.336 0 0 1-.78.87c-.32.212-.667.37-1.042.472v.128c.4.026.803.166 1.208.422.405.256.744.622 1.017 1.1.272.477.409 1.06.409 1.75 0 .657-.15 1.247-.448 1.771-.298.524-.769.94-1.412 1.247-.644.307-1.481.46-2.512.46h-4.73Zm1.585-1.406h3.145c1.035 0 1.77-.2 2.205-.601.439-.405.658-.895.658-1.47 0-.444-.113-.853-.338-1.228a2.451 2.451 0 0 0-.966-.907c-.417-.23-.912-.345-1.483-.345h-3.221v4.55Zm0-5.932h2.94a2.9 2.9 0 0 0 1.291-.281c.388-.188.695-.452.92-.793.23-.34.346-.741.346-1.202 0-.575-.2-1.063-.6-1.463-.401-.405-1.037-.608-1.906-.608h-2.991v4.347ZM31.409 66v-9.818h1.508V66H31.41Zm.767-11.455c-.294 0-.548-.1-.76-.3a.965.965 0 0 1-.314-.722.97.97 0 0 1 .313-.723c.213-.2.467-.3.761-.3s.545.1.754.3c.213.2.32.442.32.723a.956.956 0 0 1-.32.722c-.209.2-.46.3-.754.3Zm7.468 15.341c-.73 0-1.356-.093-1.88-.28-.524-.184-.96-.427-1.31-.73a3.987 3.987 0 0 1-.825-.958l1.202-.844c.136.179.309.383.518.614.209.234.494.436.856.607.367.174.846.262 1.439.262.792 0 1.446-.192 1.962-.576.515-.383.773-.984.773-1.802v-1.994h-.127a8.08 8.08 0 0 1-.474.664c-.2.26-.49.493-.869.697-.375.2-.882.3-1.521.3-.793 0-1.504-.187-2.135-.562-.627-.375-1.123-.92-1.49-1.636-.362-.716-.543-1.586-.543-2.608 0-1.006.177-1.882.53-2.627.355-.75.847-1.33 1.477-1.739.631-.413 1.36-.62 2.186-.62.64 0 1.147.106 1.522.32.379.208.669.447.87.715.204.265.361.482.472.653h.154v-1.56h1.457v10.1c0 .843-.192 1.53-.575 2.058a3.29 3.29 0 0 1-1.535 1.17c-.639.25-1.35.376-2.134.376Zm-.052-5.394c.605 0 1.117-.139 1.535-.416.417-.277.735-.675.952-1.195.217-.52.326-1.142.326-1.867 0-.707-.107-1.332-.32-1.873-.213-.54-.528-.965-.946-1.272-.417-.306-.933-.46-1.547-.46-.639 0-1.172.162-1.598.486-.422.324-.739.758-.952 1.304a5.04 5.04 0 0 0-.313 1.815c0 .682.106 1.285.32 1.81.217.519.536.928.958 1.226.426.294.955.442 1.585.442ZM51.916 66V52.91h4.577c.912 0 1.664.157 2.256.472.593.311 1.034.73 1.323 1.26.29.523.435 1.105.435 1.744 0 .563-.1 1.027-.3 1.394a2.337 2.337 0 0 1-.78.87c-.32.212-.667.37-1.042.472v.128c.4.026.803.166 1.208.422.405.256.744.622 1.016 1.1.273.477.41 1.06.41 1.75 0 .657-.15 1.247-.448 1.771-.298.524-.77.94-1.413 1.247-.643.307-1.48.46-2.512.46h-4.73Zm1.586-1.406h3.144c1.036 0 1.771-.2 2.206-.601.439-.405.658-.895.658-1.47 0-.444-.113-.853-.339-1.228a2.451 2.451 0 0 0-.965-.907c-.418-.23-.912-.345-1.483-.345h-3.221v4.55Zm0-5.932h2.94a2.9 2.9 0 0 0 1.291-.281c.388-.188.695-.452.92-.793.23-.34.346-.741.346-1.202 0-.575-.2-1.063-.601-1.463-.4-.405-1.036-.608-1.905-.608h-2.992v4.347Zm12.806 7.568a3.99 3.99 0 0 1-1.694-.351 2.907 2.907 0 0 1-1.208-1.03c-.298-.451-.447-.997-.447-1.636 0-.562.11-1.018.332-1.368.222-.353.518-.63.888-.83.371-.201.78-.35 1.228-.448.451-.102.905-.184 1.361-.243.597-.077 1.08-.134 1.451-.173.375-.042.648-.113.818-.21.175-.099.262-.27.262-.512v-.051c0-.63-.172-1.12-.517-1.47-.341-.35-.859-.525-1.554-.525-.72 0-1.284.158-1.694.473-.409.316-.696.652-.862 1.01l-1.432-.51c.255-.598.596-1.062 1.023-1.394a3.84 3.84 0 0 1 1.406-.704 5.84 5.84 0 0 1 1.508-.204c.316 0 .678.038 1.087.115a3.48 3.48 0 0 1 1.195.454c.388.23.71.577.965 1.042.256.464.384 1.086.384 1.866V66h-1.509v-1.33h-.076a2.655 2.655 0 0 1-.512.684c-.238.243-.556.45-.952.62-.396.17-.88.256-1.451.256Zm.23-1.355c.597 0 1.1-.117 1.509-.352a2.392 2.392 0 0 0 1.252-2.077v-1.38c-.064.076-.204.146-.421.21-.213.06-.46.113-.742.16a33.842 33.842 0 0 1-1.444.192 5.77 5.77 0 0 0-1.1.25c-.337.11-.61.278-.818.504-.205.222-.307.524-.307.908 0 .524.194.92.582 1.189.392.264.888.396 1.49.396Zm8.532-4.781V66h-1.51v-9.818h1.458v1.534h.128c.23-.499.58-.9 1.048-1.202.469-.307 1.074-.46 1.815-.46.665 0 1.247.136 1.745.41.499.267.887.677 1.164 1.226.277.546.415 1.236.415 2.071V66h-1.508v-6.136c0-.772-.2-1.372-.601-1.803-.4-.435-.95-.652-1.65-.652-.481 0-.911.105-1.29.313a2.24 2.24 0 0 0-.89.914c-.216.4-.325.887-.325 1.458Zm12.984 9.792c-.729 0-1.355-.093-1.88-.28-.524-.184-.96-.427-1.31-.73a3.987 3.987 0 0 1-.825-.958l1.202-.844c.137.179.31.383.518.614.209.234.494.436.856.607.367.174.846.262 1.439.262.792 0 1.446-.192 1.962-.576.516-.383.773-.984.773-1.802v-1.994h-.127a8.28 8.28 0 0 1-.473.664c-.2.26-.49.493-.87.697-.375.2-.882.3-1.521.3-.793 0-1.504-.187-2.135-.562-.626-.375-1.123-.92-1.49-1.636-.362-.716-.543-1.586-.543-2.608 0-1.006.177-1.882.531-2.627.354-.75.846-1.33 1.477-1.739.63-.413 1.359-.62 2.186-.62.639 0 1.146.106 1.52.32.38.208.67.447.87.715.205.265.362.482.473.653h.154v-1.56h1.457v10.1c0 .843-.192 1.53-.575 2.058-.38.532-.89.922-1.534 1.17-.64.25-1.351.376-2.135.376Zm-.051-5.394c.605 0 1.116-.139 1.534-.416.417-.277.735-.675.952-1.195.217-.52.326-1.142.326-1.867 0-.707-.106-1.332-.32-1.873-.213-.54-.528-.965-.946-1.272-.417-.306-.933-.46-1.546-.46-.64 0-1.172.162-1.598.486-.422.324-.74.758-.953 1.304a5.04 5.04 0 0 0-.313 1.815c0 .682.107 1.285.32 1.81.217.519.537.928.958 1.226.427.294.955.442 1.586.442Zm10.278-4.015c0 1.611-.211 3.094-.633 4.45a13.738 13.738 0 0 1-1.796 3.732h-1.33a7.99 7.99 0 0 0 .857-1.56c.268-.613.503-1.287.703-2.02.2-.737.356-1.497.467-2.281a16.05 16.05 0 0 0 .172-2.32c0-1.015-.098-2.044-.294-3.088a17.753 17.753 0 0 0-.792-2.909c-.333-.894-.703-1.623-1.113-2.186h1.33a13.716 13.716 0 0 1 1.796 3.74c.422 1.35.633 2.832.633 4.442ZM375.072 8.91h2.768v8.5c0 .955-.228 1.79-.684 2.506-.452.716-1.084 1.274-1.898 1.675-.814.396-1.762.594-2.845.594-1.086 0-2.037-.198-2.851-.594-.814-.4-1.446-.959-1.898-1.675-.452-.716-.678-1.55-.678-2.506v-8.5h2.768v8.264c0 .499.109.942.326 1.33.222.387.533.692.933.914.401.221.868.332 1.4.332.537 0 1.004-.11 1.4-.332a2.33 2.33 0 0 0 .927-.914c.222-.388.332-.831.332-1.33V8.909Zm7.717 7.414V22h-2.723v-9.818h2.595v1.732h.115a2.744 2.744 0 0 1 1.093-1.355c.512-.337 1.132-.505 1.86-.505.682 0 1.277.15 1.784.447a3.04 3.04 0 0 1 1.182 1.279c.282.55.422 1.206.422 1.969V22h-2.723v-5.766c.005-.6-.149-1.07-.46-1.406-.311-.34-.739-.511-1.285-.511-.366 0-.69.079-.971.236a1.644 1.644 0 0 0-.652.69c-.154.299-.233.659-.237 1.08Zm10.942 2.85.006-3.266h.396l3.145-3.726h3.126l-4.225 4.934h-.646l-1.802 2.059ZM391.263 22V8.91h2.723V22h-2.723Zm6.137 0-2.889-4.276 1.815-1.924 4.263 6.2H397.4Zm7.063-5.676V22h-2.723v-9.818h2.595v1.732h.115a2.744 2.744 0 0 1 1.093-1.355c.512-.337 1.132-.505 1.86-.505.682 0 1.277.15 1.784.447a3.04 3.04 0 0 1 1.182 1.279c.281.55.422 1.206.422 1.969V22h-2.723v-5.766c.004-.6-.149-1.07-.46-1.406-.311-.34-.739-.511-1.285-.511-.366 0-.69.079-.972.236a1.65 1.65 0 0 0-.652.69c-.153.299-.232.659-.236 1.08Zm12.91 5.868c-.993 0-1.851-.211-2.576-.633a4.33 4.33 0 0 1-1.668-1.777c-.392-.763-.588-1.647-.588-2.653 0-1.014.196-1.9.588-2.659a4.28 4.28 0 0 1 1.668-1.777c.725-.426 1.583-.639 2.576-.639.993 0 1.85.213 2.57.64a4.27 4.27 0 0 1 1.675 1.776c.392.759.588 1.645.588 2.66 0 1.005-.196 1.89-.588 2.652a4.32 4.32 0 0 1-1.675 1.777c-.72.422-1.577.633-2.57.633Zm.013-2.11c.452 0 .829-.128 1.131-.383.303-.26.531-.614.684-1.061.158-.448.237-.957.237-1.528 0-.57-.079-1.08-.237-1.528-.153-.447-.381-.8-.684-1.06-.302-.26-.679-.39-1.131-.39-.456 0-.839.13-1.15.39-.307.26-.54.613-.697 1.06-.154.448-.23.957-.23 1.528 0 .571.076 1.08.23 1.528.157.447.39.8.697 1.06.311.256.694.384 1.15.384ZM425.667 22l-2.672-9.818h2.755l1.521 6.596h.09l1.585-6.596h2.704l1.611 6.558h.083l1.496-6.558h2.748L434.923 22h-2.883l-1.688-6.175h-.121L428.543 22h-2.876Zm16.097-5.676V22h-2.723v-9.818h2.595v1.732h.115a2.74 2.74 0 0 1 1.093-1.355c.511-.337 1.131-.505 1.86-.505.682 0 1.276.15 1.783.447a3.04 3.04 0 0 1 1.183 1.279c.281.55.422 1.206.422 1.969V22h-2.723v-5.766c.004-.6-.149-1.07-.46-1.406-.311-.34-.74-.511-1.285-.511-.367 0-.69.079-.972.236a1.65 1.65 0 0 0-.652.69c-.153.299-.232.659-.236 1.08Zm-64.895 15.991V30.91h9.819v1.406h-4.117V44h-1.585V32.315h-4.117Zm13.569 5.779V44h-1.508V30.91h1.508v4.806h.128c.23-.507.575-.91 1.035-1.208.465-.303 1.083-.454 1.854-.454.669 0 1.255.134 1.758.403.503.264.893.67 1.17 1.22.281.546.422 1.24.422 2.084V44h-1.509v-6.136c0-.78-.202-1.383-.607-1.81-.401-.43-.957-.645-1.669-.645-.494 0-.937.105-1.329.313a2.29 2.29 0 0 0-.921.914c-.221.4-.332.887-.332 1.458Zm12.015 6.136a3.987 3.987 0 0 1-1.693-.351 2.909 2.909 0 0 1-1.209-1.03c-.298-.451-.447-.997-.447-1.636 0-.562.111-1.018.332-1.368a2.35 2.35 0 0 1 .889-.83c.371-.201.78-.35 1.227-.448.452-.102.906-.184 1.362-.243.596-.077 1.08-.134 1.451-.173.375-.042.647-.113.818-.21.175-.099.262-.27.262-.512v-.051c0-.63-.173-1.12-.518-1.47-.341-.35-.858-.525-1.553-.525-.72 0-1.285.158-1.694.473-.409.316-.697.652-.863 1.01l-1.432-.51c.256-.598.597-1.062 1.023-1.394a3.83 3.83 0 0 1 1.406-.704 5.844 5.844 0 0 1 1.509-.204c.315 0 .677.038 1.086.115.414.073.812.224 1.196.454.388.23.709.577.965 1.042.256.464.383 1.086.383 1.866V44h-1.508v-1.33h-.077a2.64 2.64 0 0 1-.511.684c-.239.243-.556.45-.953.62-.396.17-.879.256-1.451.256Zm.231-1.355c.596 0 1.099-.117 1.508-.352a2.39 2.39 0 0 0 .933-.907c.213-.371.32-.76.32-1.17v-1.38c-.064.076-.205.146-.422.21-.213.06-.46.113-.741.16a34 34 0 0 1-1.445.192 5.752 5.752 0 0 0-1.099.25c-.337.11-.61.278-.819.504-.204.222-.306.524-.306.908 0 .524.193.92.581 1.189.392.264.889.396 1.49.396Zm8.531-4.781V44h-1.508v-9.818h1.457v1.534h.128c.23-.499.58-.9 1.048-1.202.469-.307 1.074-.46 1.816-.46.664 0 1.246.136 1.745.41.498.267.886.677 1.163 1.226.277.546.416 1.236.416 2.071V44h-1.509v-6.136c0-.772-.2-1.372-.601-1.803-.4-.435-.95-.652-1.649-.652-.481 0-.912.105-1.291.313a2.246 2.246 0 0 0-.889.914c-.217.4-.326.887-.326 1.458Zm13.01 6.11c-.887 0-1.664-.21-2.333-.632-.665-.422-1.185-1.012-1.56-1.77-.371-.76-.556-1.646-.556-2.66 0-1.023.185-1.915.556-2.678.375-.763.895-1.355 1.56-1.777.669-.422 1.446-.633 2.333-.633.886 0 1.662.21 2.326.633.67.422 1.189 1.014 1.56 1.777.375.763.563 1.655.563 2.678 0 1.014-.188 1.9-.563 2.66-.371.758-.89 1.348-1.56 1.77-.664.422-1.44.633-2.326.633Zm0-1.355c.673 0 1.227-.172 1.662-.517.434-.346.756-.8.965-1.362a5.208 5.208 0 0 0 .313-1.828c0-.656-.104-1.268-.313-1.835a3.099 3.099 0 0 0-.965-1.374c-.435-.35-.989-.524-1.662-.524-.674 0-1.227.175-1.662.524a3.09 3.09 0 0 0-.965 1.374 5.262 5.262 0 0 0-.314 1.835c0 .656.105 1.266.314 1.828.208.563.53 1.017.965 1.362.435.345.988.517 1.662.517Zm13.706-6.468-1.355.383a2.517 2.517 0 0 0-.377-.658 1.834 1.834 0 0 0-.665-.537c-.281-.14-.641-.211-1.08-.211-.601 0-1.102.138-1.502.415-.397.273-.595.62-.595 1.042 0 .375.136.672.409.889.273.217.699.398 1.279.543l1.457.358c.878.213 1.532.54 1.962.978.431.435.646.995.646 1.681 0 .563-.162 1.066-.486 1.509-.319.443-.767.792-1.342 1.048-.576.256-1.245.384-2.007.384-1.002 0-1.831-.218-2.487-.652-.656-.435-1.072-1.07-1.246-1.905l1.432-.358c.136.528.394.925.773 1.189.384.264.884.396 1.502.396.703 0 1.261-.15 1.675-.447.417-.303.626-.665.626-1.087 0-.341-.119-.627-.358-.857-.238-.234-.605-.409-1.099-.524l-1.637-.383c-.899-.213-1.559-.544-1.981-.991-.418-.452-.626-1.016-.626-1.694 0-.554.155-1.044.466-1.47.316-.426.744-.76 1.285-1.004.545-.243 1.163-.364 1.854-.364.971 0 1.734.213 2.288.64.558.425.955.988 1.189 1.687Zm-78.216 23.074c0-1.611.209-3.092.627-4.443a13.886 13.886 0 0 1 1.802-3.74h1.33a8.255 8.255 0 0 0-.863 1.56 15.336 15.336 0 0 0-.697 2.027c-.2.733-.358 1.491-.473 2.275a16.69 16.69 0 0 0-.166 2.32c0 1.015.098 2.044.294 3.088.196 1.044.46 2.013.793 2.908.332.895.703 1.624 1.112 2.186h-1.33a13.907 13.907 0 0 1-1.802-3.733c-.418-1.355-.627-2.838-.627-4.448Zm13.349-3.273a2.007 2.007 0 0 0-.934-1.509c-.545-.358-1.214-.537-2.007-.537-.579 0-1.086.094-1.521.282-.43.187-.767.445-1.01.773a1.852 1.852 0 0 0-.358 1.119c0 .35.083.65.249.9.171.248.388.455.652.621.265.162.542.296.831.403.29.102.556.185.799.249l1.33.358c.341.09.72.213 1.138.37.422.158.824.373 1.208.646.388.269.707.614.959 1.036.251.422.377.94.377 1.553 0 .707-.186 1.347-.556 1.918-.367.57-.904 1.024-1.611 1.361-.703.337-1.558.505-2.563.505-.938 0-1.75-.151-2.436-.454-.682-.302-1.219-.724-1.611-1.265-.387-.541-.607-1.17-.658-1.886h1.636c.043.494.209.903.499 1.227.294.32.665.559 1.112.716.452.154.938.23 1.458.23.605 0 1.148-.098 1.63-.294.481-.2.863-.477 1.144-.83a1.97 1.97 0 0 0 .422-1.254c0-.434-.122-.788-.365-1.06a2.669 2.669 0 0 0-.959-.665c-.396-.17-.824-.32-1.284-.448l-1.611-.46c-1.023-.294-1.833-.714-2.429-1.26-.597-.545-.895-1.258-.895-2.14 0-.734.198-1.373.594-1.918.401-.55.938-.976 1.611-1.279.678-.306 1.434-.46 2.269-.46.844 0 1.594.151 2.25.454.657.298 1.177.707 1.56 1.227.388.52.592 1.11.614 1.77h-1.534Zm7.004 10.048a3.991 3.991 0 0 1-1.694-.351 2.906 2.906 0 0 1-1.208-1.03c-.299-.451-.448-.997-.448-1.636 0-.562.111-1.018.333-1.368a2.34 2.34 0 0 1 .888-.83c.371-.201.78-.35 1.227-.448.452-.102.906-.184 1.362-.243.597-.077 1.08-.134 1.451-.173.375-.042.648-.113.818-.21.175-.099.262-.27.262-.512v-.051c0-.63-.172-1.12-.518-1.47-.34-.35-.858-.525-1.553-.525-.72 0-1.285.158-1.694.473-.409.316-.696.652-.863 1.01l-1.431-.51c.255-.598.596-1.062 1.022-1.394a3.834 3.834 0 0 1 1.407-.704 5.837 5.837 0 0 1 1.508-.204c.315 0 .678.038 1.087.115.413.073.811.224 1.195.454.388.23.71.577.965 1.042.256.464.384 1.086.384 1.866V66h-1.509v-1.33h-.076a2.67 2.67 0 0 1-.512.684c-.238.243-.556.45-.952.62-.397.17-.88.256-1.451.256Zm.23-1.355c.596 0 1.099-.117 1.508-.352a2.392 2.392 0 0 0 1.253-2.077v-1.38c-.064.076-.204.146-.422.21-.213.06-.46.113-.741.16a34 34 0 0 1-1.445.192 5.77 5.77 0 0 0-1.099.25c-.337.11-.61.278-.818.504-.205.222-.307.524-.307.908 0 .524.194.92.582 1.189.392.264.888.396 1.489.396Zm8.532-4.781V66h-1.509v-9.818h1.457v1.534h.128c.23-.499.58-.9 1.049-1.202.468-.307 1.073-.46 1.815-.46.665 0 1.246.136 1.745.41.499.267.886.677 1.163 1.226.277.546.416 1.236.416 2.071V66h-1.509v-6.136c0-.772-.2-1.372-.601-1.803-.4-.435-.95-.652-1.649-.652-.481 0-.912.105-1.291.313a2.238 2.238 0 0 0-.888.914c-.218.4-.326.887-.326 1.458Zm13.009 6.11c-.92 0-1.713-.217-2.378-.651-.665-.435-1.176-1.034-1.534-1.797-.358-.762-.537-1.634-.537-2.614 0-.997.183-1.877.55-2.64.371-.767.886-1.366 1.547-1.796.665-.435 1.44-.652 2.326-.652.691 0 1.313.128 1.867.383a3.567 3.567 0 0 1 1.361 1.074c.354.46.574.997.659 1.611h-1.509c-.115-.447-.37-.844-.767-1.189-.392-.35-.92-.524-1.585-.524-.588 0-1.104.154-1.547.46-.439.303-.782.731-1.029 1.285-.243.55-.364 1.195-.364 1.937 0 .758.119 1.419.358 1.981.243.563.583 1 1.022 1.31.444.312.963.467 1.56.467.392 0 .748-.068 1.068-.204a2.2 2.2 0 0 0 .811-.588 2.24 2.24 0 0 0 .473-.92h1.509a3.488 3.488 0 0 1-.633 1.565 3.53 3.53 0 0 1-1.323 1.1c-.546.268-1.181.402-1.905.402Zm10.336-10.022v1.278h-5.088v-1.278h5.088Zm-3.605-2.352h1.508v9.358c0 .426.062.745.186.958.128.21.29.35.486.422.2.068.411.103.632.103.167 0 .303-.01.409-.026l.256-.051.307 1.355a3.064 3.064 0 0 1-.428.115 3.163 3.163 0 0 1-.697.064c-.426 0-.844-.092-1.253-.275a2.492 2.492 0 0 1-1.01-.837c-.264-.375-.396-.848-.396-1.42V53.83Zm12.062 8.156v-5.804h1.508V66h-1.508v-1.662h-.103c-.23.499-.588.923-1.073 1.272-.486.345-1.1.518-1.841.518-.614 0-1.159-.134-1.637-.403-.477-.273-.852-.682-1.125-1.227-.272-.55-.409-1.242-.409-2.078v-6.238h1.509v6.136c0 .716.2 1.287.601 1.713.404.426.92.64 1.546.64a2.57 2.57 0 0 0 1.145-.288c.392-.192.72-.486.984-.882.268-.397.403-.902.403-1.515Zm7.16 4.244a3.995 3.995 0 0 1-1.694-.351 2.912 2.912 0 0 1-1.208-1.03c-.298-.451-.447-.997-.447-1.636 0-.562.111-1.018.332-1.368a2.35 2.35 0 0 1 .889-.83c.371-.201.78-.35 1.227-.448.452-.102.906-.184 1.362-.243.596-.077 1.08-.134 1.451-.173.375-.042.647-.113.818-.21.174-.099.262-.27.262-.512v-.051c0-.63-.173-1.12-.518-1.47-.341-.35-.859-.525-1.553-.525-.72 0-1.285.158-1.694.473-.409.316-.697.652-.863 1.01l-1.432-.51c.256-.598.597-1.062 1.023-1.394a3.83 3.83 0 0 1 1.406-.704 5.844 5.844 0 0 1 1.509-.204c.315 0 .677.038 1.086.115.414.073.812.224 1.196.454.387.23.709.577.965 1.042.256.464.383 1.086.383 1.866V66h-1.508v-1.33h-.077a2.648 2.648 0 0 1-.511.684c-.239.243-.556.45-.953.62-.396.17-.88.256-1.451.256Zm.23-1.355c.597 0 1.1-.117 1.509-.352a2.396 2.396 0 0 0 1.253-2.077v-1.38c-.064.076-.205.146-.422.21-.213.06-.46.113-.742.16a33.93 33.93 0 0 1-1.444.192 5.78 5.78 0 0 0-1.1.25 1.9 1.9 0 0 0-.818.504c-.204.222-.307.524-.307.908 0 .524.194.92.582 1.189.392.264.889.396 1.489.396ZM435.046 66v-9.818h1.457v1.483h.102c.179-.486.503-.88.972-1.183a2.86 2.86 0 0 1 1.585-.454c.111 0 .249.003.416.007.166.004.292.01.377.019v1.534a4.507 4.507 0 0 0-.352-.057 3.458 3.458 0 0 0-.569-.045c-.477 0-.903.1-1.278.3a2.262 2.262 0 0 0-.882.818 2.21 2.21 0 0 0-.32 1.183V66h-1.508Zm7.967 3.682c-.255 0-.483-.022-.684-.064a1.807 1.807 0 0 1-.415-.115l.383-1.33c.367.094.691.128.972.103.281-.026.531-.152.748-.378.222-.221.424-.581.607-1.08l.281-.767-3.63-9.87h1.636l2.71 7.825h.103l2.71-7.824h1.636l-4.167 11.25c-.188.507-.42.927-.697 1.26a2.614 2.614 0 0 1-.965.747 2.981 2.981 0 0 1-1.228.243Zm12.27-9.205c0 1.611-.211 3.094-.633 4.45a13.714 13.714 0 0 1-1.796 3.732h-1.33a7.99 7.99 0 0 0 .857-1.56 14.74 14.74 0 0 0 .703-2.02c.2-.737.356-1.497.467-2.281a16.07 16.07 0 0 0 .172-2.32c0-1.015-.098-2.044-.294-3.088a17.793 17.793 0 0 0-.792-2.909c-.333-.894-.703-1.623-1.113-2.186h1.33a13.692 13.692 0 0 1 1.796 3.74c.422 1.35.633 2.832.633 4.442ZM734.624 20v-1.994l4.659-4.315a17.7 17.7 0 0 0 .998-1.036c.272-.306.479-.607.62-.9.14-.299.211-.62.211-.966 0-.383-.088-.714-.263-.99a1.717 1.717 0 0 0-.715-.646 2.247 2.247 0 0 0-1.03-.23c-.4 0-.75.08-1.048.242a1.675 1.675 0 0 0-.69.697c-.162.303-.243.663-.243 1.08h-2.627c0-.856.194-1.6.581-2.23a3.891 3.891 0 0 1 1.63-1.464c.699-.345 1.505-.518 2.417-.518.937 0 1.753.166 2.448.499.699.328 1.242.784 1.63 1.368.387.583.581 1.252.581 2.007 0 .494-.098.982-.294 1.464-.191.481-.534 1.016-1.029 1.604-.494.584-1.191 1.285-2.09 2.103l-1.911 1.873v.09h5.497V20h-9.332Zm16.47.288c-1.099-.005-2.045-.275-2.838-.812-.788-.537-1.395-1.315-1.822-2.333-.421-1.019-.63-2.244-.626-3.676 0-1.427.211-2.644.633-3.65.426-1.005 1.033-1.77 1.822-2.294.792-.529 1.736-.793 2.831-.793s2.037.264 2.826.793c.792.528 1.402 1.295 1.828 2.3.426 1.002.637 2.217.633 3.644 0 1.436-.214 2.664-.64 3.682-.422 1.019-1.027 1.796-1.815 2.333-.788.537-1.732.806-2.832.806Zm0-2.295c.75 0 1.349-.377 1.796-1.131.448-.755.669-1.886.665-3.395 0-.993-.102-1.82-.307-2.48-.2-.66-.485-1.157-.856-1.49A1.87 1.87 0 0 0 751.094 9c-.745 0-1.342.373-1.789 1.119-.448.746-.674 1.862-.678 3.35 0 1.005.1 1.845.3 2.518.205.669.493 1.172.863 1.508a1.89 1.89 0 0 0 1.304.499Zm12.955-11.084V20h-2.767V9.536h-.077l-2.998 1.88V8.96l3.241-2.052h2.601ZM767.161 20v-1.994l4.659-4.315a17.7 17.7 0 0 0 .998-1.036c.272-.306.479-.607.62-.9.14-.299.211-.62.211-.966 0-.383-.088-.714-.262-.99a1.726 1.726 0 0 0-.716-.646 2.246 2.246 0 0 0-1.029-.23c-.401 0-.75.08-1.049.242a1.675 1.675 0 0 0-.69.697c-.162.303-.243.663-.243 1.08h-2.627c0-.856.194-1.6.582-2.23a3.883 3.883 0 0 1 1.629-1.464c.699-.345 1.505-.518 2.417-.518.937 0 1.753.166 2.448.499.699.328 1.242.784 1.63 1.368.388.583.581 1.252.581 2.007 0 .494-.098.982-.294 1.464-.191.481-.534 1.016-1.029 1.604-.494.584-1.191 1.285-2.09 2.103l-1.911 1.873v.09h5.497V20h-9.332Zm-69.033 22V28.91h1.585v11.684h6.086V42h-7.671Zm13.909.205c-.886 0-1.664-.211-2.333-.633-.665-.422-1.184-1.012-1.559-1.77-.371-.76-.557-1.646-.557-2.66 0-1.023.186-1.915.557-2.678.375-.763.894-1.355 1.559-1.777.669-.422 1.447-.633 2.333-.633.887 0 1.662.21 2.327.633.669.422 1.189 1.014 1.56 1.777.375.763.562 1.655.562 2.678 0 1.014-.187 1.9-.562 2.66-.371.758-.891 1.348-1.56 1.77-.665.422-1.44.633-2.327.633Zm0-1.356c.674 0 1.228-.172 1.662-.517.435-.346.757-.8.965-1.362a5.209 5.209 0 0 0 .314-1.828c0-.656-.105-1.268-.314-1.835a3.083 3.083 0 0 0-.965-1.374c-.434-.35-.988-.524-1.662-.524-.673 0-1.227.175-1.662.524-.434.35-.756.808-.965 1.374a5.261 5.261 0 0 0-.313 1.835c0 .656.104 1.266.313 1.828.209.563.531 1.017.965 1.362.435.345.989.517 1.662.517Zm8.158-2.428-.025-1.867h.306l4.296-4.372h1.866l-4.576 4.628h-.128l-1.739 1.61ZM718.789 42V28.91h1.508V42h-1.508Zm6.239 0-3.836-4.858 1.074-1.048L726.945 42h-1.917Zm3.552 0v-9.818h1.508V42h-1.508Zm.767-11.454c-.294 0-.548-.1-.761-.301a.964.964 0 0 1-.313-.722c0-.282.104-.522.313-.723.213-.2.467-.3.761-.3s.545.1.754.3c.213.2.32.441.32.723a.957.957 0 0 1-.32.722c-.209.2-.46.3-.754.3Zm4.834-1.637v1.15c0 .35-.064.723-.192 1.12a4.596 4.596 0 0 1-.55 1.143 4.033 4.033 0 0 1-.869.96l-.818-.665a8.28 8.28 0 0 0 .697-1.196c.2-.417.3-.863.3-1.336V28.91h1.432Zm7.559 5.472-1.356.383a2.517 2.517 0 0 0-.377-.658 1.83 1.83 0 0 0-.664-.537c-.282-.14-.642-.211-1.081-.211-.601 0-1.101.138-1.502.415-.396.273-.594.62-.594 1.042 0 .375.136.672.409.889.272.217.699.398 1.278.543l1.458.358c.877.213 1.532.54 1.962.978.43.435.646.995.646 1.681 0 .563-.162 1.066-.486 1.509-.32.443-.767.792-1.343 1.048-.575.256-1.244.384-2.007.384-1.001 0-1.83-.218-2.486-.652-.656-.435-1.072-1.07-1.247-1.905l1.432-.358c.137.528.394.925.774 1.189.383.264.884.396 1.502.396.703 0 1.261-.15 1.674-.447.418-.303.627-.665.627-1.087 0-.341-.119-.627-.358-.857-.239-.234-.605-.409-1.1-.524l-1.636-.383c-.899-.213-1.56-.544-1.981-.991-.418-.452-.627-1.016-.627-1.694 0-.554.156-1.044.467-1.47.315-.426.743-.76 1.285-1.004.545-.243 1.163-.364 1.853-.364.972 0 1.735.213 2.289.64.558.425.954.988 1.189 1.687Zm14.875-2.2a2.003 2.003 0 0 0-.933-1.508c-.545-.358-1.214-.537-2.007-.537-.579 0-1.087.094-1.521.282-.431.187-.767.445-1.01.773a1.852 1.852 0 0 0-.358 1.119c0 .35.083.65.249.9.171.248.388.455.652.621.264.162.541.296.831.403.29.102.556.185.799.249l1.33.358c.341.09.72.213 1.137.37a5.27 5.27 0 0 1 1.209.646c.387.269.707.614.958 1.036.252.422.377.94.377 1.553 0 .707-.185 1.347-.556 1.918-.366.57-.903 1.025-1.61 1.361-.704.337-1.558.505-2.564.505-.937 0-1.749-.151-2.435-.454-.682-.302-1.219-.724-1.611-1.265-.388-.542-.607-1.17-.658-1.886h1.636c.043.494.209.903.499 1.227.294.32.665.559 1.112.716.452.154.937.23 1.457.23.605 0 1.149-.098 1.63-.294.482-.2.863-.477 1.145-.83a1.97 1.97 0 0 0 .421-1.254c0-.434-.121-.788-.364-1.06a2.669 2.669 0 0 0-.959-.665c-.396-.17-.824-.32-1.285-.448l-1.61-.46c-1.023-.294-1.833-.714-2.429-1.26-.597-.545-.895-1.258-.895-2.14 0-.734.198-1.373.594-1.918.401-.55.938-.976 1.611-1.279.678-.306 1.434-.46 2.269-.46.844 0 1.594.151 2.25.454.656.298 1.176.707 1.56 1.227.388.52.592 1.11.614 1.77h-1.535Zm8.104 10.024c-.921 0-1.713-.218-2.378-.652-.665-.435-1.176-1.034-1.534-1.797-.358-.762-.537-1.634-.537-2.614 0-.997.183-1.877.55-2.64.371-.767.886-1.366 1.547-1.796.664-.435 1.44-.652 2.326-.652.691 0 1.313.128 1.867.383a3.567 3.567 0 0 1 1.361 1.074c.354.46.573.997.659 1.611h-1.509c-.115-.447-.371-.844-.767-1.189-.392-.35-.92-.524-1.585-.524-.588 0-1.104.154-1.547.46-.439.303-.782.731-1.029 1.285-.243.55-.364 1.195-.364 1.937 0 .758.119 1.419.358 1.981.242.563.583 1 1.022 1.31.443.312.963.467 1.56.467a2.69 2.69 0 0 0 1.067-.204 2.21 2.21 0 0 0 .812-.588c.222-.256.379-.563.473-.92h1.509a3.5 3.5 0 0 1-.633 1.565c-.332.46-.774.827-1.323 1.1-.546.268-1.181.403-1.905.403Zm10.182 0c-.946 0-1.762-.21-2.448-.627a4.205 4.205 0 0 1-1.579-1.764c-.366-.759-.549-1.64-.549-2.646s.183-1.892.549-2.66c.371-.77.887-1.372 1.547-1.802.665-.435 1.441-.652 2.327-.652.511 0 1.016.085 1.515.256.499.17.952.447 1.361.83.41.38.736.883.978 1.51.243.626.365 1.397.365 2.313v.64h-7.568v-1.305h6.034c0-.554-.111-1.048-.333-1.483a2.5 2.5 0 0 0-.933-1.029c-.4-.251-.873-.377-1.419-.377-.601 0-1.121.15-1.56.447a2.945 2.945 0 0 0-1.003 1.151c-.235.473-.352.98-.352 1.521v.87c0 .741.128 1.37.384 1.885.26.512.62.902 1.08 1.17.46.264.995.396 1.604.396a3.26 3.26 0 0 0 1.074-.166c.324-.115.603-.285.838-.511a2.33 2.33 0 0 0 .543-.857l1.457.41a3.228 3.228 0 0 1-.773 1.303c-.362.371-.81.66-1.342.87-.533.204-1.132.306-1.797.306Zm6.361 3.477v-13.5h1.457v1.56h.179c.111-.171.264-.388.46-.652.2-.269.486-.508.857-.716.375-.214.882-.32 1.521-.32.827 0 1.555.207 2.186.62.631.413 1.123 1 1.477 1.758.353.758.53 1.653.53 2.684 0 1.04-.177 1.941-.53 2.704-.354.759-.844 1.347-1.471 1.764-.626.414-1.348.62-2.166.62-.631 0-1.136-.104-1.515-.313-.38-.213-.672-.453-.876-.722a9.578 9.578 0 0 1-.473-.677h-.128v5.19h-1.508Zm1.482-8.591c0 .741.109 1.395.326 1.962.218.563.535 1.004.953 1.323.418.316.929.473 1.534.473.631 0 1.157-.166 1.579-.498.426-.337.746-.788.959-1.355a5.325 5.325 0 0 0 .326-1.905c0-.69-.107-1.313-.32-1.867-.209-.558-.526-.999-.952-1.323-.422-.328-.953-.492-1.592-.492-.614 0-1.129.156-1.547.467-.417.306-.733.737-.946 1.29-.213.55-.32 1.192-.32 1.925Zm13.756-4.91v1.28h-5.088v-1.28h5.088Zm-3.605-2.351h1.509v9.358c0 .426.061.745.185.958.128.21.29.35.486.422.2.068.411.102.633.102.166 0 .302-.008.409-.025l.255-.051.307 1.355a3.064 3.064 0 0 1-.428.115 3.157 3.157 0 0 1-.697.064c-.426 0-.844-.092-1.253-.275a2.492 2.492 0 0 1-1.01-.837c-.264-.375-.396-.848-.396-1.42V29.83Zm9.885 12.375c-.946 0-1.762-.21-2.448-.627a4.205 4.205 0 0 1-1.579-1.764c-.366-.759-.549-1.64-.549-2.646s.183-1.892.549-2.66c.371-.77.887-1.372 1.547-1.802.665-.435 1.441-.652 2.327-.652.511 0 1.016.085 1.515.256.498.17.952.447 1.361.83.409.38.735.883.978 1.51.243.626.365 1.397.365 2.313v.64h-7.568v-1.305h6.034c0-.554-.111-1.048-.333-1.483a2.5 2.5 0 0 0-.933-1.029c-.401-.251-.874-.377-1.419-.377-.601 0-1.121.15-1.56.447a2.945 2.945 0 0 0-1.003 1.151c-.235.473-.352.98-.352 1.521v.87c0 .741.128 1.37.384 1.885.26.512.62.902 1.08 1.17.46.264.995.396 1.604.396a3.26 3.26 0 0 0 1.074-.166c.324-.115.603-.285.838-.511a2.33 2.33 0 0 0 .543-.857l1.457.41a3.228 3.228 0 0 1-.773 1.303c-.362.371-.81.66-1.342.87-.533.204-1.132.306-1.797.306Zm6.36-.205v-9.818h1.458v1.483h.102c.179-.486.503-.88.972-1.183a2.858 2.858 0 0 1 1.585-.454c.111 0 .249.003.415.007.167.004.292.01.378.019v1.534a4.598 4.598 0 0 0-.352-.057 3.467 3.467 0 0 0-.569-.045c-.477 0-.903.1-1.278.3a2.262 2.262 0 0 0-.882.818 2.21 2.21 0 0 0-.32 1.183V42h-1.509ZM671.513 57.455c0-1.611.209-3.092.627-4.443a13.856 13.856 0 0 1 1.802-3.74h1.33a8.2 8.2 0 0 0-.863 1.56 15.193 15.193 0 0 0-.697 2.027c-.2.733-.358 1.491-.473 2.275a16.539 16.539 0 0 0-.166 2.32c0 1.015.098 2.044.294 3.088.196 1.044.46 2.013.793 2.908.332.895.703 1.624 1.112 2.186h-1.33a13.877 13.877 0 0 1-1.802-3.733c-.418-1.355-.627-2.838-.627-4.448ZM677.702 64V50.91h4.577c.912 0 1.664.157 2.257.472.592.311 1.033.73 1.323 1.26.289.523.434 1.105.434 1.744 0 .563-.1 1.027-.3 1.394a2.335 2.335 0 0 1-.78.87c-.32.212-.667.37-1.042.472v.128c.401.026.803.166 1.208.422.405.256.744.622 1.017 1.1.272.477.409 1.06.409 1.75 0 .657-.149 1.247-.448 1.771-.298.525-.769.94-1.412 1.247-.644.307-1.481.46-2.512.46h-4.731Zm1.586-1.406h3.145c1.035 0 1.77-.2 2.205-.601.439-.405.658-.895.658-1.47 0-.444-.113-.853-.339-1.228a2.442 2.442 0 0 0-.965-.907c-.417-.23-.912-.345-1.483-.345h-3.221v4.55Zm0-5.932h2.94a2.9 2.9 0 0 0 1.291-.281c.388-.188.695-.452.921-.793.23-.34.345-.741.345-1.202 0-.575-.2-1.063-.601-1.463-.401-.405-1.036-.608-1.905-.608h-2.991v4.347Zm12.806 7.568a3.991 3.991 0 0 1-1.694-.351 2.906 2.906 0 0 1-1.208-1.03c-.298-.451-.447-.997-.447-1.636 0-.562.11-1.018.332-1.368a2.35 2.35 0 0 1 .889-.83c.37-.201.779-.35 1.227-.448.452-.102.905-.184 1.361-.243a62.011 62.011 0 0 1 1.451-.173c.375-.042.648-.113.819-.21.174-.099.262-.27.262-.512v-.051c0-.63-.173-1.12-.518-1.47-.341-.35-.859-.525-1.553-.525-.721 0-1.285.158-1.694.473-.409.316-.697.652-.863 1.01l-1.432-.51c.256-.598.597-1.062 1.023-1.394a3.83 3.83 0 0 1 1.406-.704 5.837 5.837 0 0 1 1.508-.204c.316 0 .678.038 1.087.115.413.073.812.224 1.195.454.388.23.71.577.966 1.042.255.464.383 1.086.383 1.866V64h-1.508v-1.33h-.077c-.102.213-.273.441-.511.684-.239.243-.557.45-.953.62-.396.17-.88.256-1.451.256Zm.23-1.355c.597 0 1.1-.117 1.509-.352a2.396 2.396 0 0 0 1.253-2.077v-1.38c-.064.076-.205.146-.422.21a7.16 7.16 0 0 1-.742.16 33.292 33.292 0 0 1-1.444.192 5.78 5.78 0 0 0-1.1.25 1.9 1.9 0 0 0-.818.504c-.205.222-.307.524-.307.908 0 .524.194.92.582 1.189.392.264.888.396 1.489.396Zm11.293-8.693v1.278h-5.088v-1.278h5.088Zm-3.605-2.352h1.509v9.358c0 .426.062.745.185.958.128.21.29.35.486.422.2.068.411.102.633.102.166 0 .302-.008.409-.025l.256-.051.306 1.355a3.064 3.064 0 0 1-.428.115 3.15 3.15 0 0 1-.697.064c-.426 0-.843-.092-1.252-.275a2.485 2.485 0 0 1-1.01-.837c-.265-.375-.397-.848-.397-1.42V51.83Zm10.144 2.352v1.278h-5.088v-1.278h5.088Zm-3.605-2.352h1.509v9.358c0 .426.062.745.185.958.128.21.29.35.486.422.2.068.411.102.633.102.166 0 .302-.008.409-.025l.256-.051.306 1.355a3.064 3.064 0 0 1-.428.115 3.15 3.15 0 0 1-.697.064c-.426 0-.843-.092-1.252-.275a2.485 2.485 0 0 1-1.01-.837c-.265-.375-.397-.848-.397-1.42V51.83Zm7.594-.92V64h-1.508V50.91h1.508Zm6.88 13.294c-.947 0-1.763-.208-2.449-.626a4.203 4.203 0 0 1-1.578-1.764c-.367-.759-.55-1.64-.55-2.646s.183-1.892.55-2.66c.37-.77.886-1.372 1.546-1.802.665-.435 1.441-.652 2.327-.652.511 0 1.016.085 1.515.256.499.17.952.447 1.362.83.409.38.735.883.977 1.51.243.626.365 1.397.365 2.313v.64h-7.568v-1.305h6.034c0-.554-.111-1.048-.333-1.483a2.5 2.5 0 0 0-.933-1.029c-.4-.251-.873-.377-1.419-.377-.601 0-1.121.15-1.56.447a2.945 2.945 0 0 0-1.003 1.151c-.234.473-.352.98-.352 1.521v.87c0 .741.128 1.37.384 1.885.26.512.62.902 1.08 1.17.46.264.995.396 1.605.396.396 0 .754-.055 1.073-.166.324-.115.603-.285.838-.511a2.33 2.33 0 0 0 .543-.857l1.457.41a3.228 3.228 0 0 1-.773 1.303c-.362.371-.81.66-1.342.87-.533.204-1.132.306-1.796.306Zm15.411 0c-.887 0-1.664-.21-2.333-.632-.665-.422-1.185-1.012-1.56-1.77-.371-.76-.556-1.646-.556-2.66 0-1.023.185-1.915.556-2.678.375-.763.895-1.355 1.56-1.777.669-.422 1.446-.633 2.333-.633.886 0 1.662.21 2.326.633.669.422 1.189 1.014 1.56 1.777.375.763.563 1.655.563 2.678 0 1.014-.188 1.9-.563 2.66-.371.758-.891 1.348-1.56 1.77-.664.422-1.44.632-2.326.632Zm0-1.355c.673 0 1.227-.172 1.662-.517.434-.346.756-.8.965-1.362a5.208 5.208 0 0 0 .313-1.828c0-.656-.104-1.268-.313-1.835a3.099 3.099 0 0 0-.965-1.374c-.435-.35-.989-.524-1.662-.524-.674 0-1.228.175-1.662.524a3.09 3.09 0 0 0-.965 1.374 5.262 5.262 0 0 0-.314 1.835c0 .656.105 1.266.314 1.828.208.563.53 1.017.965 1.362.434.345.988.517 1.662.517Zm11.123-8.667v1.278h-5.292v-1.278h5.292ZM743.852 64V52.827c0-.563.132-1.032.396-1.407a2.463 2.463 0 0 1 1.03-.843 3.248 3.248 0 0 1 1.335-.282c.371 0 .674.03.908.09.235.06.409.115.524.166l-.434 1.304a7.81 7.81 0 0 0-.32-.096 1.94 1.94 0 0 0-.524-.057c-.499 0-.859.125-1.08.377-.218.251-.326.62-.326 1.106V64h-1.509Zm21.469-13.09V64h-1.534l-7.133-10.278h-.128V64h-1.585V50.91h1.534l7.159 10.303h.128V50.91h1.559Zm7.084 13.294c-.946 0-1.762-.208-2.448-.626a4.205 4.205 0 0 1-1.579-1.764c-.366-.759-.549-1.64-.549-2.646s.183-1.892.549-2.66c.371-.77.887-1.372 1.547-1.802.665-.435 1.441-.652 2.327-.652.511 0 1.016.085 1.515.256.498.17.952.447 1.361.83.409.38.735.883.978 1.51.243.626.365 1.397.365 2.313v.64h-7.568v-1.305h6.034c0-.554-.111-1.048-.333-1.483a2.5 2.5 0 0 0-.933-1.029c-.401-.251-.874-.377-1.419-.377-.601 0-1.121.15-1.56.447a2.945 2.945 0 0 0-1.003 1.151c-.235.473-.352.98-.352 1.521v.87c0 .741.128 1.37.384 1.885.26.512.62.902 1.08 1.17.46.264.995.396 1.604.396a3.26 3.26 0 0 0 1.074-.166c.324-.115.603-.285.838-.511a2.33 2.33 0 0 0 .543-.857l1.457.41a3.228 3.228 0 0 1-.773 1.303c-.362.371-.81.66-1.342.87-.533.204-1.132.306-1.797.306ZM780.99 64l-2.992-9.818h1.586l2.122 7.517h.102l2.097-7.517h1.61l2.071 7.491h.103l2.122-7.491h1.585L788.405 64h-1.483l-2.148-7.543h-.153L782.473 64h-1.483Zm16.542-13.09h1.816l3.631 6.11h.153l3.631-6.11h1.815l-4.73 7.695V64h-1.585v-5.395l-4.731-7.696Zm15.492 13.294c-.887 0-1.664-.21-2.333-.632-.665-.422-1.185-1.012-1.56-1.77-.371-.76-.556-1.646-.556-2.66 0-1.023.185-1.915.556-2.678.375-.763.895-1.355 1.56-1.777.669-.422 1.446-.633 2.333-.633.886 0 1.662.21 2.326.633.669.422 1.189 1.014 1.56 1.777.375.763.562 1.655.562 2.678 0 1.014-.187 1.9-.562 2.66-.371.758-.891 1.348-1.56 1.77-.664.422-1.44.632-2.326.632Zm0-1.355c.673 0 1.227-.172 1.662-.517.434-.346.756-.8.965-1.362a5.208 5.208 0 0 0 .313-1.828c0-.656-.104-1.268-.313-1.835a3.099 3.099 0 0 0-.965-1.374c-.435-.35-.989-.524-1.662-.524-.674 0-1.228.175-1.662.524-.435.35-.757.808-.966 1.374a5.285 5.285 0 0 0-.313 1.835c0 .656.105 1.266.313 1.828a3.05 3.05 0 0 0 .966 1.362c.434.345.988.517 1.662.517ZM819.775 64v-9.818h1.458v1.483h.102c.179-.486.503-.88.971-1.183a2.864 2.864 0 0 1 1.586-.454c.11 0 .249.003.415.007.166.004.292.01.377.019v1.534a4.45 4.45 0 0 0-.351-.057 3.467 3.467 0 0 0-.569-.045c-.477 0-.904.1-1.279.3-.37.196-.664.469-.882.818a2.21 2.21 0 0 0-.319 1.183V64h-1.509Zm8.104-3.58-.026-1.866h.307l4.295-4.372h1.867l-4.577 4.628h-.128l-1.738 1.61ZM826.472 64V50.91h1.509V64h-1.509Zm6.239 0-3.835-4.858 1.074-1.048L834.629 64h-1.918Zm6.774-5.523c0 1.611-.211 3.094-.633 4.45a13.714 13.714 0 0 1-1.796 3.732h-1.329c.306-.422.592-.942.856-1.56.269-.613.503-1.287.703-2.02a18.55 18.55 0 0 0 .467-2.281 16.07 16.07 0 0 0 .172-2.32c0-1.015-.098-2.044-.294-3.088a17.793 17.793 0 0 0-.792-2.909c-.333-.894-.703-1.623-1.112-2.186h1.329a13.692 13.692 0 0 1 1.796 3.74c.422 1.35.633 2.832.633 4.442ZM1013.35 135v-1.994l4.66-4.315c.4-.383.73-.729 1-1.035.27-.307.48-.608.62-.902.14-.298.21-.62.21-.965 0-.383-.09-.714-.26-.991a1.78 1.78 0 0 0-.72-.645c-.3-.154-.64-.23-1.03-.23-.4 0-.75.081-1.05.242-.29.162-.52.395-.69.697-.16.303-.24.663-.24 1.08h-2.63c0-.856.2-1.6.58-2.23.39-.631.94-1.119 1.63-1.464.7-.345 1.51-.518 2.42-.518.94 0 1.75.166 2.45.499.7.328 1.24.784 1.63 1.368.39.583.58 1.252.58 2.007 0 .494-.1.982-.29 1.463-.19.482-.54 1.017-1.03 1.605-.5.584-1.19 1.285-2.09 2.103l-1.91 1.873v.089h5.49V135h-9.33Zm16.47.288c-1.1-.005-2.04-.275-2.84-.812-.78-.537-1.39-1.315-1.82-2.333-.42-1.019-.63-2.244-.62-3.676 0-1.427.21-2.644.63-3.65.42-1.005 1.03-1.77 1.82-2.294.79-.529 1.74-.793 2.83-.793 1.1 0 2.04.264 2.83.793.79.528 1.4 1.295 1.83 2.301.42 1.001.63 2.216.63 3.643 0 1.436-.22 2.664-.64 3.682-.42 1.019-1.03 1.796-1.82 2.333-.78.537-1.73.806-2.83.806Zm0-2.295c.75 0 1.35-.377 1.8-1.131.45-.755.67-1.886.66-3.395 0-.993-.1-1.819-.3-2.48-.2-.66-.49-1.157-.86-1.489-.37-.333-.8-.499-1.3-.499-.74 0-1.34.373-1.79 1.119-.45.746-.67 1.862-.68 3.349 0 1.006.1 1.845.3 2.519.21.669.5 1.172.87 1.508.37.333.8.499 1.3.499Zm12.96-11.084V135h-2.77v-10.464h-.08l-3 1.879v-2.454l3.25-2.052h2.6Zm8.13 13.27a5.933 5.933 0 0 1-1.95-.339 4.392 4.392 0 0 1-1.67-1.08c-.5-.499-.89-1.159-1.18-1.982-.28-.822-.43-1.832-.43-3.029.01-1.1.13-2.082.38-2.947.25-.869.61-1.607 1.07-2.212a4.666 4.666 0 0 1 1.69-1.38c.65-.32 1.38-.48 2.19-.48.87 0 1.64.171 2.31.511.67.337 1.21.795 1.61 1.375.41.579.66 1.229.74 1.949h-2.72a1.855 1.855 0 0 0-.68-1.074c-.34-.259-.76-.389-1.26-.389-.85 0-1.5.37-1.94 1.112-.44.741-.67 1.749-.68 3.023h.09c.2-.388.46-.718.8-.991.33-.277.71-.487 1.14-.632.43-.15.88-.224 1.36-.224.78 0 1.47.183 2.07.55.61.362 1.09.86 1.43 1.495.35.635.53 1.362.53 2.18 0 .886-.21 1.675-.62 2.365a4.29 4.29 0 0 1-1.72 1.624c-.73.387-1.59.579-2.56.575Zm-.01-2.173c.43 0 .81-.103 1.14-.307.34-.205.6-.482.8-.831.19-.35.28-.742.28-1.176 0-.435-.09-.825-.28-1.17-.19-.345-.45-.62-.78-.825a2.173 2.173 0 0 0-1.14-.306c-.32 0-.62.059-.89.179-.27.119-.5.285-.71.498-.2.213-.36.46-.47.742-.12.277-.17.573-.17.888 0 .422.09.808.28 1.157.2.35.46.629.8.837.33.209.71.314 1.14.314Zm-39.97 10.903 3.89 11.02h.15l3.89-11.02h1.66L1015.71 157h-1.63l-4.81-13.091h1.66ZM1022.35 157v-9.818h1.51V157h-1.51Zm.77-11.455c-.29 0-.55-.1-.76-.3a.957.957 0 0 1-.31-.722c0-.282.1-.522.31-.723.21-.2.47-.3.76-.3.3 0 .55.1.76.3.21.201.32.441.32.723 0 .281-.11.522-.32.722-.21.2-.46.3-.76.3Zm10.46 3.836-1.35.383a2.878 2.878 0 0 0-.38-.658 1.841 1.841 0 0 0-.67-.537c-.28-.141-.64-.211-1.08-.211-.6 0-1.1.138-1.5.415-.4.273-.59.62-.59 1.042 0 .375.13.672.41.889.27.217.69.398 1.27.543l1.46.358c.88.213 1.53.539 1.96.978.43.435.65.995.65 1.681 0 .563-.16 1.066-.49 1.509-.32.443-.76.792-1.34 1.048-.57.256-1.24.384-2.01.384-1 0-1.83-.218-2.48-.652-.66-.435-1.07-1.07-1.25-1.905l1.43-.358c.14.528.4.924.78 1.189.38.264.88.396 1.5.396.7 0 1.26-.149 1.67-.447.42-.303.63-.665.63-1.087 0-.341-.12-.627-.36-.857-.24-.234-.6-.409-1.1-.524l-1.63-.383c-.9-.213-1.56-.544-1.99-.991-.41-.452-.62-1.016-.62-1.694 0-.554.15-1.044.46-1.47.32-.426.75-.761 1.29-1.004s1.16-.364 1.85-.364c.97 0 1.74.213 2.29.639.56.426.96.989 1.19 1.688Zm2.45 7.619v-9.818h1.51V157h-1.51Zm.77-11.455c-.3 0-.55-.1-.76-.3a.967.967 0 0 1-.32-.722c0-.282.11-.522.32-.723.21-.2.46-.3.76-.3.29 0 .54.1.75.3.21.201.32.441.32.723 0 .281-.11.522-.32.722-.21.2-.46.3-.75.3Zm7.49 11.66c-.89 0-1.66-.211-2.33-.633-.67-.422-1.19-1.012-1.56-1.771-.37-.758-.56-1.645-.56-2.659 0-1.023.19-1.915.56-2.678.37-.763.89-1.355 1.56-1.777.67-.422 1.44-.633 2.33-.633.89 0 1.66.211 2.33.633.67.422 1.19 1.014 1.56 1.777.37.763.56 1.655.56 2.678 0 1.014-.19 1.901-.56 2.659-.37.759-.89 1.349-1.56 1.771-.67.422-1.44.633-2.33.633Zm0-1.356c.67 0 1.23-.172 1.66-.517.44-.345.76-.799.97-1.362.21-.562.31-1.172.31-1.828 0-.656-.1-1.268-.31-1.834-.21-.567-.53-1.025-.97-1.375-.43-.349-.99-.524-1.66-.524-.67 0-1.23.175-1.66.524-.44.35-.76.808-.97 1.375a5.232 5.232 0 0 0-.31 1.834c0 .656.1 1.266.31 1.828.21.563.53 1.017.97 1.362.43.345.99.517 1.66.517Zm8.26-4.755V157h-1.51v-9.818h1.46v1.534h.13a2.8 2.8 0 0 1 1.05-1.202c.46-.307 1.07-.46 1.81-.46.67 0 1.25.136 1.75.409.49.269.88.678 1.16 1.227.28.546.41 1.236.41 2.071V157h-1.5v-6.136c0-.772-.2-1.373-.6-1.803-.41-.435-.96-.652-1.65-.652-.49 0-.92.104-1.3.313-.37.209-.67.514-.88.914-.22.401-.33.887-.33 1.458Zm-123.631 21.361c0-1.611.208-3.092.626-4.443a13.86 13.86 0 0 1 1.803-3.739h1.329a8.248 8.248 0 0 0-.863 1.559 15.332 15.332 0 0 0-.697 2.027c-.2.733-.358 1.491-.473 2.275-.11.784-.166 1.558-.166 2.321 0 1.014.098 2.043.294 3.087a17.79 17.79 0 0 0 .793 2.908c.332.895.703 1.624 1.112 2.186h-1.329a13.867 13.867 0 0 1-1.803-3.733c-.418-1.355-.626-2.838-.626-4.448Zm6.726 6.545h-1.662l4.807-13.091h1.636L945.233 179h-1.662l-3.912-11.02h-.102L935.645 179Zm.613-5.114h6.699v1.407h-6.699v-1.407Zm17.607-4.704L950.234 179H948.7l-3.63-9.818h1.636l2.71 7.824h.103l2.71-7.824h1.636Zm5.756 10.023c-.946 0-1.762-.209-2.448-.627a4.207 4.207 0 0 1-1.579-1.764c-.366-.759-.55-1.641-.55-2.646 0-1.006.184-1.892.55-2.659.371-.772.887-1.373 1.547-1.803.665-.435 1.44-.652 2.327-.652.511 0 1.016.085 1.515.256.498.17.952.447 1.361.831.409.379.735.882.978 1.508.243.627.365 1.398.365 2.314v.639h-7.569v-1.304h6.034c0-.554-.11-1.048-.332-1.483a2.508 2.508 0 0 0-.933-1.029c-.401-.251-.874-.377-1.419-.377-.601 0-1.121.149-1.56.448a2.934 2.934 0 0 0-1.003 1.15c-.235.473-.352.98-.352 1.521v.87c0 .741.128 1.37.384 1.885.259.512.62.902 1.08 1.17.46.264.995.396 1.604.396.396 0 .754-.055 1.074-.166a2.29 2.29 0 0 0 .837-.511c.235-.23.416-.516.544-.857l1.457.409a3.224 3.224 0 0 1-.773 1.304c-.363.371-.81.661-1.343.87-.532.204-1.131.307-1.796.307Zm7.869-6.111V179h-1.509v-9.818h1.458v1.534h.127a2.81 2.81 0 0 1 1.049-1.202c.469-.307 1.074-.46 1.815-.46.665 0 1.247.136 1.745.409.499.269.887.678 1.164 1.227.277.546.415 1.236.415 2.071V179h-1.509v-6.136c0-.772-.2-1.373-.6-1.803-.401-.435-.951-.652-1.65-.652-.481 0-.911.104-1.291.313a2.242 2.242 0 0 0-.888.914c-.218.401-.326.887-.326 1.458Zm12.984 9.792c-.729 0-1.355-.093-1.88-.281-.524-.183-.961-.426-1.31-.729a3.992 3.992 0 0 1-.825-.958l1.202-.844c.136.179.309.383.518.614.209.234.494.436.856.607.367.174.846.262 1.439.262.792 0 1.446-.192 1.962-.575.516-.384.773-.985.773-1.803v-1.994h-.127a8.28 8.28 0 0 1-.473.664c-.201.26-.49.493-.87.697-.375.2-.882.301-1.521.301-.793 0-1.504-.188-2.135-.563-.626-.375-1.123-.92-1.489-1.636-.363-.716-.544-1.586-.544-2.608 0-1.006.177-1.882.531-2.627.354-.75.846-1.33 1.476-1.739.631-.413 1.36-.62 2.187-.62.639 0 1.146.107 1.521.32.379.208.669.447.869.715.205.265.362.482.473.652h.154v-1.559h1.457v10.099c0 .844-.192 1.53-.575 2.058-.38.533-.891.923-1.534 1.17-.64.252-1.351.377-2.135.377Zm-.052-5.395c.606 0 1.117-.138 1.535-.415.417-.277.735-.675.952-1.195.217-.52.326-1.142.326-1.867 0-.707-.107-1.331-.32-1.873-.213-.541-.528-.965-.946-1.272-.417-.307-.933-.46-1.547-.46-.639 0-1.171.162-1.598.486a2.961 2.961 0 0 0-.952 1.304 5.032 5.032 0 0 0-.313 1.815c0 .682.106 1.285.319 1.809.218.52.537.929.959 1.227.426.294.955.441 1.585.441Zm11.174 1.714c-.946 0-1.762-.209-2.448-.627a4.207 4.207 0 0 1-1.579-1.764c-.367-.759-.55-1.641-.55-2.646 0-1.006.183-1.892.55-2.659.371-.772.886-1.373 1.547-1.803.664-.435 1.44-.652 2.326-.652.512 0 1.017.085 1.515.256.499.17.953.447 1.362.831.409.379.735.882.978 1.508.243.627.364 1.398.364 2.314v.639h-7.568v-1.304h6.034c0-.554-.111-1.048-.332-1.483a2.517 2.517 0 0 0-.934-1.029c-.4-.251-.873-.377-1.419-.377-.6 0-1.12.149-1.559.448a2.945 2.945 0 0 0-1.004 1.15c-.234.473-.351.98-.351 1.521v.87c0 .741.127 1.37.383 1.885.26.512.62.902 1.08 1.17.461.264.995.396 1.605.396.396 0 .754-.055 1.074-.166a2.29 2.29 0 0 0 .837-.511 2.33 2.33 0 0 0 .543-.857l1.458.409a3.226 3.226 0 0 1-.774 1.304 3.764 3.764 0 0 1-1.342.87c-.533.204-1.131.307-1.796.307Zm6.36-.205v-9.818h1.457v1.483h.103c.179-.486.504-.88.974-1.183.47-.302.99-.454 1.58-.454.11 0 .25.003.42.007.16.004.29.01.37.019v1.534a3.59 3.59 0 0 0-.35-.057c-.18-.03-.37-.045-.57-.045-.47 0-.9.1-1.27.3-.37.196-.67.469-.886.818a2.21 2.21 0 0 0-.32 1.183V179h-1.508Zm13.654-7.619-1.36.383a2.508 2.508 0 0 0-.37-.658 1.929 1.929 0 0 0-.67-.537c-.28-.141-.64-.211-1.08-.211-.6 0-1.1.138-1.5.415-.4.273-.6.62-.6 1.042 0 .375.14.672.41.889.28.217.7.398 1.28.543l1.46.358c.88.213 1.53.539 1.96.978.43.435.65.995.65 1.681 0 .563-.17 1.066-.49 1.509-.32.443-.77.792-1.34 1.048-.58.256-1.25.384-2.01.384-1 0-1.83-.218-2.49-.652-.65-.435-1.07-1.07-1.24-1.905l1.43-.358c.14.528.39.924.77 1.189.39.264.89.396 1.51.396.7 0 1.26-.149 1.67-.447.42-.303.63-.665.63-1.087 0-.341-.12-.627-.36-.857-.24-.234-.61-.409-1.1-.524l-1.64-.383c-.9-.213-1.56-.544-1.98-.991-.42-.452-.62-1.016-.62-1.694 0-.554.15-1.044.46-1.47.32-.426.75-.761 1.29-1.004s1.16-.364 1.85-.364c.97 0 1.73.213 2.29.639.56.426.95.989 1.19 1.688Zm3.55 7.721c-.32 0-.59-.113-.81-.339a1.09 1.09 0 0 1-.34-.811c0-.316.11-.586.34-.812.22-.226.49-.339.81-.339.31 0 .58.113.81.339a1.131 1.131 0 0 1 .18 1.387 1.148 1.148 0 0 1-.99.575Zm0-7.287c-.32 0-.59-.113-.81-.338a1.094 1.094 0 0 1-.34-.812c0-.316.11-.586.34-.812.22-.226.49-.339.81-.339.31 0 .58.113.81.339a1.131 1.131 0 0 1 .18 1.387 1.148 1.148 0 0 1-.99.575Zm9.66 7.185h-1.66l4.8-13.091h1.64l4.81 13.091h-1.67l-3.91-11.02h-.1l-3.91 11.02Zm.61-5.114h6.7v1.407h-6.7v-1.407Zm14.77 9c-.72 0-1.35-.093-1.88-.281-.52-.183-.96-.426-1.31-.729a3.967 3.967 0 0 1-.82-.958l1.2-.844c.14.179.31.383.52.614.21.234.49.436.86.607.36.174.84.262 1.43.262.8 0 1.45-.192 1.97-.575.51-.384.77-.985.77-1.803v-1.994h-.13c-.11.179-.27.4-.47.664-.2.26-.49.493-.87.697-.38.2-.88.301-1.52.301-.79 0-1.51-.188-2.14-.563-.62-.375-1.12-.92-1.49-1.636-.36-.716-.54-1.586-.54-2.608 0-1.006.18-1.882.53-2.627.36-.75.85-1.33 1.48-1.739.63-.413 1.36-.62 2.18-.62.64 0 1.15.107 1.53.32.37.208.66.447.86.715.21.265.37.482.48.652h.15v-1.559h1.46v10.099c0 .844-.19 1.53-.58 2.058-.38.533-.89.923-1.53 1.17-.64.252-1.35.377-2.14.377Zm-.05-5.395c.61 0 1.12-.138 1.54-.415.41-.277.73-.675.95-1.195.22-.52.33-1.142.33-1.867 0-.707-.11-1.331-.32-1.873-.22-.541-.53-.965-.95-1.272-.42-.307-.93-.46-1.55-.46-.64 0-1.17.162-1.6.486-.42.324-.73.758-.95 1.304-.21.545-.31 1.15-.31 1.815 0 .682.11 1.285.32 1.809.22.52.54.929.96 1.227.42.294.95.441 1.58.441Zm11.18 1.714c-.95 0-1.77-.209-2.45-.627a4.216 4.216 0 0 1-1.58-1.764c-.37-.759-.55-1.641-.55-2.646 0-1.006.18-1.892.55-2.659.37-.772.89-1.373 1.55-1.803.66-.435 1.44-.652 2.32-.652.51 0 1.02.085 1.52.256.5.17.95.447 1.36.831.41.379.73.882.98 1.508.24.627.36 1.398.36 2.314v.639h-7.57v-1.304h6.04c0-.554-.11-1.048-.33-1.483a2.51 2.51 0 0 0-.94-1.029c-.4-.251-.87-.377-1.42-.377-.6 0-1.12.149-1.56.448-.43.294-.77.677-1 1.15-.23.473-.35.98-.35 1.521v.87c0 .741.13 1.37.38 1.885.26.512.62.902 1.08 1.17.46.264 1 .396 1.61.396.39 0 .75-.055 1.07-.166.32-.115.6-.285.84-.511.23-.23.41-.516.54-.857l1.46.409c-.16.495-.41.929-.78 1.304-.36.371-.8.661-1.34.87-.53.204-1.13.307-1.79.307Zm15.41 0c-.89 0-1.67-.211-2.34-.633-.66-.422-1.18-1.012-1.56-1.771-.37-.758-.55-1.645-.55-2.659 0-1.023.18-1.915.55-2.678.38-.763.9-1.355 1.56-1.777.67-.422 1.45-.633 2.34-.633.88 0 1.66.211 2.32.633.67.422 1.19 1.014 1.56 1.777.38.763.57 1.655.57 2.678 0 1.014-.19 1.901-.57 2.659-.37.759-.89 1.349-1.56 1.771-.66.422-1.44.633-2.32.633Zm0-1.356c.67 0 1.22-.172 1.66-.517.43-.345.76-.799.96-1.362.21-.562.32-1.172.32-1.828 0-.656-.11-1.268-.32-1.834a3.054 3.054 0 0 0-.96-1.375c-.44-.349-.99-.524-1.66-.524-.68 0-1.23.175-1.66.524-.44.35-.76.808-.97 1.375a5.232 5.232 0 0 0-.31 1.834c0 .656.1 1.266.31 1.828.21.563.53 1.017.97 1.362.43.345.98.517 1.66.517Zm11.12-8.667v1.278h-5.29v-1.278h5.29Zm-3.71 9.818v-11.173c0-.563.14-1.032.4-1.407s.61-.656 1.03-.843c.42-.188.87-.282 1.34-.282.37 0 .67.03.9.09.24.06.41.115.53.166l-.44 1.304a5.41 5.41 0 0 0-.32-.096c-.13-.038-.3-.057-.52-.057-.5 0-.86.125-1.08.377-.22.251-.33.62-.33 1.106V179h-1.51Zm19.68-13.091h1.59v8.668c0 .895-.21 1.694-.63 2.397a4.462 4.462 0 0 1-1.77 1.655c-.77.401-1.66.601-2.69.601s-1.92-.2-2.68-.601c-.77-.405-1.36-.956-1.78-1.655-.42-.703-.63-1.502-.63-2.397v-8.668h1.59v8.54c0 .639.14 1.208.42 1.707.28.494.68.884 1.2 1.169.53.282 1.15.422 1.88.422s1.36-.14 1.88-.422c.52-.285.92-.675 1.2-1.169.28-.499.42-1.068.42-1.707v-8.54Zm6.06 0V179h-1.51v-13.091h1.51Zm7.03 3.273v1.278h-5.09v-1.278h5.09Zm-3.6-2.352h1.5v9.358c0 .426.07.745.19.958.13.209.29.35.49.422.2.068.41.102.63.102.16 0 .3-.008.41-.025l.25-.051.31 1.355c-.1.038-.24.077-.43.115-.18.043-.41.064-.69.064-.43 0-.85-.092-1.26-.275-.4-.183-.74-.462-1.01-.837-.26-.375-.39-.848-.39-1.419v-9.767Zm5.87 12.17v-9.818h1.46v1.483h.1c.18-.486.5-.88.97-1.183.47-.302 1-.454 1.59-.454.11 0 .25.003.41.007.17.004.29.01.38.019v1.534a4.281 4.281 0 0 0-.35-.057c-.18-.03-.37-.045-.57-.045-.48 0-.9.1-1.28.3-.37.196-.66.469-.88.818-.21.346-.32.74-.32 1.183V179h-1.51Zm10.39.205c-.89 0-1.67-.211-2.34-.633-.66-.422-1.18-1.012-1.56-1.771-.37-.758-.55-1.645-.55-2.659 0-1.023.18-1.915.55-2.678.38-.763.9-1.355 1.56-1.777.67-.422 1.45-.633 2.34-.633.88 0 1.66.211 2.32.633.67.422 1.19 1.014 1.56 1.777.38.763.57 1.655.57 2.678 0 1.014-.19 1.901-.57 2.659-.37.759-.89 1.349-1.56 1.771-.66.422-1.44.633-2.32.633Zm0-1.356c.67 0 1.22-.172 1.66-.517.43-.345.76-.799.96-1.362.21-.562.32-1.172.32-1.828 0-.656-.11-1.268-.32-1.834a3.054 3.054 0 0 0-.96-1.375c-.44-.349-.99-.524-1.66-.524-.68 0-1.23.175-1.66.524-.44.35-.76.808-.97 1.375a5.232 5.232 0 0 0-.31 1.834c0 .656.1 1.266.31 1.828.21.563.53 1.017.97 1.362.43.345.98.517 1.66.517Zm8.26-4.755V179h-1.51v-9.818h1.46v1.534h.12a2.8 2.8 0 0 1 1.05-1.202c.47-.307 1.08-.46 1.82-.46.66 0 1.24.136 1.74.409.5.269.89.678 1.17 1.227.27.546.41 1.236.41 2.071V179h-1.51v-6.136c0-.772-.2-1.373-.6-1.803-.4-.435-.95-.652-1.65-.652-.48 0-.91.104-1.29.313-.37.209-.67.514-.89.914-.21.401-.32.887-.32 1.458Zm12.24.383c0 1.611-.21 3.094-.63 4.449a13.814 13.814 0 0 1-1.8 3.733h-1.33c.31-.422.59-.942.86-1.56.27-.613.5-1.287.7-2.019.2-.738.36-1.498.47-2.282.11-.789.17-1.562.17-2.321 0-1.014-.1-2.043-.29-3.087a17.37 17.37 0 0 0-.8-2.908c-.33-.895-.7-1.624-1.11-2.187h1.33a13.8 13.8 0 0 1 1.8 3.74c.42 1.351.63 2.831.63 4.442ZM815.624 135v-1.994l4.659-4.315c.397-.383.729-.729.998-1.035.272-.307.479-.608.62-.902.14-.298.211-.62.211-.965 0-.383-.088-.714-.263-.991a1.716 1.716 0 0 0-.715-.645 2.24 2.24 0 0 0-1.03-.23c-.4 0-.75.081-1.048.242a1.68 1.68 0 0 0-.69.697c-.162.303-.243.663-.243 1.08h-2.627c0-.856.194-1.6.581-2.23a3.888 3.888 0 0 1 1.63-1.464c.699-.345 1.505-.518 2.417-.518.937 0 1.753.166 2.448.499.699.328 1.242.784 1.63 1.368.387.583.581 1.252.581 2.007 0 .494-.098.982-.294 1.463-.191.482-.534 1.017-1.029 1.605-.494.584-1.191 1.285-2.09 2.103l-1.911 1.873v.089h5.497V135h-9.332Zm16.47.288c-1.099-.005-2.045-.275-2.838-.812-.788-.537-1.395-1.315-1.822-2.333-.421-1.019-.63-2.244-.626-3.676 0-1.427.211-2.644.633-3.65.426-1.005 1.033-1.77 1.822-2.294.792-.529 1.736-.793 2.831-.793s2.037.264 2.826.793c.792.528 1.402 1.295 1.828 2.301.426 1.001.637 2.216.633 3.643 0 1.436-.214 2.664-.64 3.682-.422 1.019-1.027 1.796-1.815 2.333-.788.537-1.732.806-2.832.806Zm0-2.295c.75 0 1.349-.377 1.796-1.131.448-.755.669-1.886.665-3.395 0-.993-.102-1.819-.307-2.48-.2-.66-.485-1.157-.856-1.489a1.867 1.867 0 0 0-1.298-.499c-.745 0-1.342.373-1.789 1.119-.448.746-.674 1.862-.678 3.349 0 1.006.1 1.845.3 2.519.205.669.493 1.172.863 1.508a1.89 1.89 0 0 0 1.304.499Zm12.955-11.084V135h-2.767v-10.464h-.077l-2.998 1.879v-2.454l3.241-2.052h2.601ZM848.161 135v-1.994l4.659-4.315c.397-.383.729-.729.998-1.035.272-.307.479-.608.62-.902.14-.298.211-.62.211-.965 0-.383-.088-.714-.262-.991a1.725 1.725 0 0 0-.716-.645 2.239 2.239 0 0 0-1.029-.23c-.401 0-.75.081-1.049.242a1.68 1.68 0 0 0-.69.697c-.162.303-.243.663-.243 1.08h-2.627c0-.856.194-1.6.582-2.23a3.88 3.88 0 0 1 1.629-1.464c.699-.345 1.505-.518 2.417-.518.937 0 1.753.166 2.448.499.699.328 1.242.784 1.63 1.368.388.583.581 1.252.581 2.007 0 .494-.098.982-.294 1.463-.191.482-.534 1.017-1.029 1.605-.494.584-1.191 1.285-2.09 2.103l-1.911 1.873v.089h5.497V135h-9.332Zm-35.582 22v-13.091h1.586v5.83h6.98v-5.83h1.585V157h-1.585v-5.855h-6.98V157h-1.586Zm14.092 3.682c-.256 0-.484-.021-.684-.064a1.805 1.805 0 0 1-.416-.115l.384-1.33c.366.094.69.128.971.103.282-.026.531-.152.748-.378.222-.221.424-.581.607-1.08l.282-.767-3.631-9.869h1.636l2.711 7.824h.102l2.71-7.824h1.636l-4.167 11.25c-.188.507-.42.927-.697 1.259a2.612 2.612 0 0 1-.965.748 2.973 2.973 0 0 1-1.227.243Zm12.403-3.477c-.818 0-1.54-.207-2.167-.62-.626-.418-1.116-1.006-1.47-1.765-.353-.762-.53-1.664-.53-2.704 0-1.031.177-1.926.53-2.684.354-.759.846-1.345 1.477-1.758.631-.413 1.359-.62 2.186-.62.639 0 1.144.107 1.515.32.375.208.66.447.856.715.201.265.356.482.467.652h.128v-4.832h1.508V157h-1.457v-1.509h-.179a9.64 9.64 0 0 1-.473.678c-.205.268-.496.509-.876.722-.379.209-.884.314-1.515.314Zm.205-1.356c.605 0 1.116-.157 1.534-.473.418-.319.735-.76.952-1.323.218-.566.326-1.221.326-1.962 0-.733-.106-1.374-.319-1.924-.213-.554-.529-.984-.946-1.291-.418-.311-.933-.467-1.547-.467-.639 0-1.172.164-1.598.492-.422.324-.739.765-.952 1.323-.209.554-.314 1.177-.314 1.867 0 .699.107 1.334.32 1.905.217.566.537 1.018.959 1.355.426.332.954.498 1.585.498Zm7.268 1.151v-9.818h1.457v1.483h.102c.179-.486.503-.88.972-1.183a2.865 2.865 0 0 1 1.585-.454c.111 0 .249.003.416.007.166.004.292.01.377.019v1.534a4.228 4.228 0 0 0-.352-.057 3.436 3.436 0 0 0-.569-.045c-.477 0-.903.1-1.278.3a2.264 2.264 0 0 0-.882.818 2.21 2.21 0 0 0-.32 1.183V157h-1.508Zm9.586.23a3.996 3.996 0 0 1-1.694-.351 2.906 2.906 0 0 1-1.208-1.03c-.298-.451-.447-.997-.447-1.636 0-.562.111-1.018.332-1.368.222-.354.518-.631.889-.831.37-.2.779-.349 1.227-.447.452-.103.905-.183 1.361-.243a64.64 64.64 0 0 1 1.451-.173c.375-.042.648-.113.819-.211.174-.098.262-.268.262-.511v-.051c0-.631-.173-1.121-.518-1.47-.341-.35-.859-.524-1.553-.524-.721 0-1.285.157-1.694.473-.409.315-.697.652-.863 1.009l-1.432-.511c.256-.596.597-1.061 1.023-1.393.43-.337.899-.571 1.406-.703a5.808 5.808 0 0 1 1.508-.205c.316 0 .678.038 1.087.115.413.072.812.224 1.195.454.388.23.71.577.966 1.042.255.464.383 1.086.383 1.866V157h-1.508v-1.33h-.077c-.102.214-.273.442-.511.684-.239.243-.557.45-.953.62-.396.171-.88.256-1.451.256Zm.23-1.355c.597 0 1.1-.117 1.509-.352a2.39 2.39 0 0 0 1.253-2.077v-1.381c-.064.077-.205.147-.422.211-.213.06-.46.113-.742.16a31.56 31.56 0 0 1-1.444.192 5.765 5.765 0 0 0-1.1.249 1.9 1.9 0 0 0-.818.505c-.204.222-.307.524-.307.908 0 .524.194.92.582 1.189.392.264.888.396 1.489.396ZM1094.34 18v-1.994l4.66-4.315c.4-.384.73-.729 1-1.036a4 4 0 0 0 .62-.9c.14-.299.21-.62.21-.966 0-.383-.09-.714-.26-.99a1.78 1.78 0 0 0-.72-.646c-.3-.154-.64-.23-1.03-.23-.4 0-.75.08-1.05.242-.29.162-.52.395-.69.697-.16.303-.24.663-.24 1.08h-2.63c0-.856.2-1.6.59-2.23.38-.631.93-1.119 1.63-1.464.7-.345 1.5-.518 2.41-.518.94 0 1.76.166 2.45.499.7.328 1.24.784 1.63 1.368.39.583.58 1.252.58 2.007 0 .494-.1.982-.29 1.464-.19.481-.54 1.016-1.03 1.604-.5.584-1.19 1.285-2.09 2.103l-1.91 1.873v.09h5.49V18h-9.33Zm16.47.288c-1.1-.005-2.04-.275-2.84-.812-.78-.537-1.39-1.315-1.82-2.333-.42-1.019-.63-2.244-.62-3.676 0-1.427.21-2.644.63-3.65.43-1.005 1.03-1.77 1.82-2.294.79-.529 1.74-.793 2.83-.793 1.1 0 2.04.264 2.83.793.79.528 1.4 1.295 1.83 2.3.42 1.002.63 2.217.63 3.644 0 1.436-.21 2.664-.64 3.682-.42 1.019-1.03 1.796-1.82 2.333-.78.537-1.73.806-2.83.806Zm0-2.295c.75 0 1.35-.377 1.8-1.132.45-.754.67-1.885.66-3.394 0-.993-.1-1.82-.3-2.48-.2-.66-.49-1.157-.86-1.49-.37-.332-.8-.498-1.3-.498-.74 0-1.34.373-1.79 1.119-.44.746-.67 1.862-.67 3.35 0 1.005.1 1.845.3 2.518.2.669.49 1.172.86 1.508.37.333.8.499 1.3.499Zm12.96-11.084V18H1121V7.536h-.08l-2.99 1.88V6.96l3.24-2.052h2.6Zm7.99 13.27c-.98 0-1.86-.16-2.62-.48-.77-.323-1.37-.764-1.8-1.323a3.034 3.034 0 0 1-.65-1.898c0-.546.12-1.046.37-1.502.25-.46.59-.842 1.02-1.144a3.35 3.35 0 0 1 1.45-.588v-.09c-.7-.14-1.27-.48-1.7-1.016a2.901 2.901 0 0 1-.66-1.886c0-.677.2-1.28.6-1.809.39-.532.94-.95 1.63-1.253.69-.306 1.48-.46 2.36-.46.89 0 1.67.154 2.36.46.7.307 1.24.727 1.64 1.26.39.528.59 1.129.6 1.802-.01.72-.23 1.349-.67 1.886-.43.537-1 .876-1.68 1.016v.09c.52.085 1 .28 1.42.588.43.302.77.684 1.02 1.144.26.456.39.956.39 1.502 0 .707-.22 1.34-.65 1.898-.44.559-1.04 1-1.81 1.324-.76.32-1.63.479-2.62.479Zm0-2.033c.44 0 .83-.079 1.15-.236.33-.162.59-.384.77-.665.19-.285.28-.614.28-.984 0-.38-.09-.714-.29-1.004a1.954 1.954 0 0 0-.78-.69c-.32-.17-.7-.256-1.13-.256-.42 0-.8.085-1.13.256-.33.166-.59.396-.78.69-.19.29-.29.624-.29 1.004 0 .37.1.699.28.984.18.281.44.503.77.665.33.157.72.236 1.15.236Zm0-5.848c.37 0 .7-.075.98-.224.29-.15.51-.356.67-.62.16-.264.25-.57.25-.914 0-.341-.09-.64-.25-.895-.16-.26-.38-.462-.66-.607-.28-.15-.61-.224-.99-.224-.37 0-.7.074-.98.224-.29.145-.51.347-.67.607-.16.256-.24.554-.24.895 0 .345.08.65.24.914.17.264.39.47.67.62.29.149.62.224.98.224Zm-46.89 18.017V26.91h9.82v1.406h-4.12V40h-1.58V28.315h-4.12Zm13.57 5.779V40h-1.51V26.91h1.51v4.806h.13c.23-.507.57-.91 1.03-1.208.47-.303 1.08-.454 1.86-.454.66 0 1.25.134 1.75.403.51.264.9.67 1.17 1.22.28.546.42 1.24.42 2.084V40h-1.5v-6.136c0-.78-.21-1.383-.61-1.81-.4-.43-.96-.645-1.67-.645-.49 0-.94.105-1.33.313a2.3 2.3 0 0 0-.92.914c-.22.4-.33.887-.33 1.458Zm12.01 6.136a3.99 3.99 0 0 1-1.69-.351 2.905 2.905 0 0 1-1.21-1.03c-.3-.451-.45-.997-.45-1.636 0-.562.11-1.018.34-1.368.22-.353.51-.63.88-.83.38-.201.78-.35 1.23-.448.45-.102.91-.184 1.36-.243.6-.077 1.08-.134 1.45-.173.38-.042.65-.113.82-.21.18-.099.26-.27.26-.512v-.051c0-.63-.17-1.12-.51-1.47-.34-.35-.86-.524-1.56-.524-.72 0-1.28.157-1.69.473-.41.315-.7.651-.86 1.01l-1.43-.512c.25-.596.59-1.061 1.02-1.393.43-.337.9-.571 1.4-.703a5.928 5.928 0 0 1 1.51-.205c.32 0 .68.038 1.09.115.41.072.81.224 1.19.454.39.23.71.577.97 1.042.26.464.38 1.086.38 1.866V40h-1.51v-1.33h-.07c-.1.213-.27.441-.51.684-.24.243-.56.45-.96.62-.39.17-.88.256-1.45.256Zm.23-1.355c.6 0 1.1-.117 1.51-.352a2.334 2.334 0 0 0 1.25-2.077v-1.38c-.06.076-.2.146-.42.21-.21.06-.46.113-.74.16-.28.043-.55.081-.81.115-.26.03-.47.055-.63.077-.4.051-.76.134-1.1.25-.34.11-.61.278-.82.504-.21.222-.31.524-.31.908 0 .524.2.92.58 1.189.4.264.89.396 1.49.396Zm8.54-4.781V40h-1.51v-9.818h1.45v1.534h.13c.23-.499.58-.9 1.05-1.202.47-.307 1.07-.46 1.82-.46.66 0 1.24.136 1.74.41.5.268.89.677 1.16 1.226.28.546.42 1.236.42 2.071V40h-1.51v-6.136c0-.772-.2-1.372-.6-1.803-.4-.435-.95-.652-1.65-.652-.48 0-.91.105-1.29.313a2.23 2.23 0 0 0-.89.914c-.22.4-.32.887-.32 1.458Zm13 6.11c-.88 0-1.66-.21-2.33-.632-.66-.422-1.18-1.012-1.56-1.77-.37-.76-.55-1.646-.55-2.66 0-1.023.18-1.915.55-2.678.38-.763.9-1.355 1.56-1.777.67-.422 1.45-.633 2.33-.633.89 0 1.67.21 2.33.633.67.422 1.19 1.014 1.56 1.777.38.763.56 1.655.56 2.678 0 1.014-.18 1.9-.56 2.66-.37.758-.89 1.348-1.56 1.77-.66.422-1.44.633-2.33.633Zm0-1.355c.68 0 1.23-.172 1.67-.517.43-.346.75-.8.96-1.362.21-.562.32-1.172.32-1.828a5.24 5.24 0 0 0-.32-1.835 3.13 3.13 0 0 0-.96-1.374c-.44-.35-.99-.524-1.67-.524-.67 0-1.22.175-1.66.524-.43.35-.75.808-.96 1.374a5.24 5.24 0 0 0-.32 1.835c0 .656.11 1.266.32 1.828.21.563.53 1.017.96 1.362.44.345.99.517 1.66.517Zm13.71-6.468-1.35.383a2.887 2.887 0 0 0-.38-.658 1.764 1.764 0 0 0-.67-.537c-.28-.14-.64-.211-1.08-.211-.6 0-1.1.138-1.5.415-.39.273-.59.62-.59 1.042 0 .375.13.672.41.889.27.217.7.398 1.27.543l1.46.358c.88.213 1.53.54 1.96.978.43.435.65.995.65 1.681 0 .563-.16 1.066-.49 1.509-.32.443-.76.792-1.34 1.048-.57.256-1.24.384-2.01.384-1 0-1.83-.218-2.48-.652-.66-.435-1.07-1.07-1.25-1.905l1.43-.358c.14.528.4.925.78 1.189s.88.396 1.5.396c.7 0 1.26-.15 1.67-.447.42-.303.63-.665.63-1.087 0-.341-.12-.627-.36-.857-.24-.234-.6-.409-1.1-.524l-1.63-.383c-.9-.213-1.56-.544-1.99-.991-.41-.452-.62-1.016-.62-1.694 0-.554.15-1.044.47-1.47.31-.426.74-.76 1.28-1.004.55-.243 1.16-.364 1.85-.364.98 0 1.74.213 2.29.64.56.425.96.988 1.19 1.687ZM1025.29 62h-1.66l4.81-13.09h1.63l4.81 13.09h-1.66l-3.91-11.02h-.11L1025.29 62Zm.62-5.114h6.7v1.407h-6.7v-1.407Zm17.6-4.704L1039.88 62h-1.53l-3.63-9.818h1.63l2.71 7.824h.11l2.71-7.824h1.63Zm5.76 10.023c-.95 0-1.76-.21-2.45-.627a4.214 4.214 0 0 1-1.58-1.764c-.36-.759-.55-1.64-.55-2.646s.19-1.892.55-2.66c.37-.77.89-1.372 1.55-1.802.66-.435 1.44-.652 2.33-.652.51 0 1.01.085 1.51.256.5.17.95.447 1.36.83.41.38.74.883.98 1.51.24.626.36 1.397.36 2.313v.64h-7.56v-1.305h6.03c0-.554-.11-1.048-.33-1.483a2.55 2.55 0 0 0-.93-1.029c-.41-.251-.88-.377-1.42-.377-.6 0-1.12.15-1.56.447a2.97 2.97 0 0 0-1.01 1.151c-.23.473-.35.98-.35 1.521v.87c0 .741.13 1.37.38 1.885.26.512.62.902 1.09 1.17.46.264.99.396 1.6.396.4 0 .75-.055 1.07-.166.33-.115.61-.285.84-.511.24-.23.42-.516.54-.857l1.46.41a3.21 3.21 0 0 1-.77 1.303c-.36.371-.81.66-1.34.87-.54.204-1.14.306-1.8.306Zm7.87-6.111V62h-1.51v-9.818h1.46v1.534h.12c.24-.499.58-.9 1.05-1.202.47-.307 1.08-.46 1.82-.46.66 0 1.25.136 1.74.41.5.267.89.677 1.17 1.226.27.546.41 1.236.41 2.071V62h-1.51v-6.136c0-.772-.2-1.372-.6-1.803-.4-.435-.95-.652-1.65-.652-.48 0-.91.105-1.29.313-.37.21-.67.514-.89.914-.21.4-.32.887-.32 1.458Zm12.98 9.792c-.73 0-1.35-.093-1.88-.28-.52-.184-.96-.427-1.31-.73a3.977 3.977 0 0 1-.82-.958l1.2-.844c.14.179.31.383.52.614.21.234.49.436.85.607.37.174.85.262 1.44.262.79 0 1.45-.192 1.96-.576.52-.383.78-.984.78-1.802v-1.994h-.13c-.11.179-.27.4-.47.664-.2.26-.49.493-.87.697-.38.2-.88.3-1.52.3-.8 0-1.51-.187-2.14-.562-.62-.375-1.12-.92-1.49-1.636-.36-.716-.54-1.586-.54-2.608 0-1.006.18-1.882.53-2.627.35-.75.85-1.33 1.48-1.739.63-.413 1.36-.62 2.18-.62.64 0 1.15.106 1.52.32.38.208.67.447.87.715.21.265.36.482.48.653h.15v-1.56h1.46v10.1c0 .843-.2 1.53-.58 2.058-.38.532-.89.922-1.53 1.17-.64.25-1.35.376-2.14.376Zm-.05-5.394c.61 0 1.12-.139 1.54-.416.41-.277.73-.675.95-1.195.21-.52.32-1.142.32-1.867 0-.707-.1-1.332-.32-1.873-.21-.54-.52-.965-.94-1.272-.42-.306-.94-.46-1.55-.46-.64 0-1.17.162-1.6.486-.42.324-.74.758-.95 1.304-.21.545-.31 1.15-.31 1.815 0 .682.1 1.285.32 1.81.21.519.53.928.96 1.226.42.294.95.442 1.58.442Zm11.17 1.713c-.94 0-1.76-.21-2.44-.627-.69-.422-1.21-1.01-1.58-1.764-.37-.759-.55-1.64-.55-2.646s.18-1.892.55-2.66c.37-.77.88-1.372 1.54-1.802.67-.435 1.44-.652 2.33-.652.51 0 1.02.085 1.52.256.49.17.95.447 1.36.83.41.38.73.883.98 1.51.24.626.36 1.397.36 2.313v.64h-7.57v-1.305h6.04c0-.554-.12-1.048-.34-1.483a2.48 2.48 0 0 0-.93-1.029c-.4-.251-.87-.377-1.42-.377-.6 0-1.12.15-1.56.447-.43.295-.77.678-1 1.151-.24.473-.35.98-.35 1.521v.87c0 .741.12 1.37.38 1.885.26.512.62.902 1.08 1.17.46.264.99.396 1.6.396.4 0 .76-.055 1.08-.166.32-.115.6-.285.84-.511.23-.23.41-.516.54-.857l1.46.41c-.16.494-.42.928-.78 1.303-.36.371-.81.66-1.34.87-.53.204-1.13.306-1.8.306Zm6.36-.205v-9.818h1.46v1.483h.1c.18-.486.51-.88.98-1.183.46-.302.99-.454 1.58-.454.11 0 .25.003.42.007.16.004.29.01.37.019v1.534a3.788 3.788 0 0 0-.35-.057c-.18-.03-.37-.045-.57-.045-.47 0-.9.1-1.28.3-.37.196-.66.469-.88.818-.21.346-.32.74-.32 1.183V62h-1.51Zm13.66-7.62-1.36.384a2.298 2.298 0 0 0-.38-.658 1.807 1.807 0 0 0-.66-.537c-.28-.14-.64-.211-1.08-.211-.6 0-1.1.138-1.5.415-.4.273-.6.62-.6 1.042 0 .375.14.672.41.889.27.217.7.398 1.28.543l1.46.358c.87.213 1.53.54 1.96.978.43.435.65.995.65 1.681 0 .563-.17 1.066-.49 1.509-.32.443-.77.792-1.34 1.048-.58.256-1.25.384-2.01.384-1 0-1.83-.218-2.49-.652-.65-.435-1.07-1.07-1.24-1.905l1.43-.358c.14.528.39.925.77 1.189.39.264.89.396 1.5.396.71 0 1.27-.15 1.68-.447.42-.303.63-.665.63-1.087 0-.341-.12-.627-.36-.857-.24-.234-.61-.409-1.1-.524l-1.64-.383c-.9-.213-1.56-.544-1.98-.991-.42-.452-.63-1.016-.63-1.694 0-.554.16-1.044.47-1.47.32-.426.74-.76 1.29-1.004.54-.243 1.16-.364 1.85-.364.97 0 1.73.213 2.29.64.56.425.95.988 1.19 1.687Zm3.55 7.722c-.32 0-.59-.113-.82-.338a1.132 1.132 0 0 1-.34-.812c0-.316.12-.586.34-.812.23-.226.5-.339.82-.339.31 0 .58.113.81.339a1.132 1.132 0 0 1 .18 1.387 1.23 1.23 0 0 1-.42.422c-.17.102-.36.153-.57.153Zm0-7.287c-.32 0-.59-.113-.82-.338a1.132 1.132 0 0 1-.34-.812c0-.316.12-.586.34-.812.23-.226.5-.339.82-.339.31 0 .58.113.81.339a1.132 1.132 0 0 1 .18 1.387 1.23 1.23 0 0 1-.42.422c-.17.102-.36.153-.57.153Zm10.71-5.906V62h-1.59V48.91h1.59Zm4.48 7.185V62h-1.51v-9.818h1.46v1.534h.12c.23-.499.58-.9 1.05-1.202.47-.307 1.08-.46 1.82-.46.66 0 1.24.136 1.74.41.5.267.89.677 1.17 1.226.27.546.41 1.236.41 2.071V62h-1.51v-6.136c0-.772-.2-1.372-.6-1.803-.4-.435-.95-.652-1.65-.652-.48 0-.91.105-1.29.313-.37.21-.67.514-.89.914-.21.4-.32.887-.32 1.458Zm13.39-3.912v1.278h-5.29v-1.278h5.29ZM1129.68 62V50.827c0-.563.14-1.032.4-1.407s.61-.656 1.03-.843c.42-.188.87-.282 1.33-.282.38 0 .68.03.91.09.24.06.41.115.53.166l-.44 1.304a7.355 7.355 0 0 0-.32-.096c-.13-.038-.3-.057-.52-.057-.5 0-.86.125-1.08.377-.22.251-.33.62-.33 1.106V62h-1.51Zm5.82 0v-9.818h1.51V62h-1.51Zm.77-11.455c-.29 0-.55-.1-.76-.3a.958.958 0 0 1-.31-.722c0-.282.1-.522.31-.723.21-.2.47-.3.76-.3.3 0 .55.1.76.3.21.2.32.442.32.723 0 .281-.11.522-.32.722-.21.2-.46.3-.76.3Zm5.01 5.549V62h-1.5v-9.818h1.45v1.534h.13c.23-.499.58-.9 1.05-1.202.47-.307 1.07-.46 1.82-.46.66 0 1.24.136 1.74.41.5.267.89.677 1.16 1.226.28.546.42 1.236.42 2.071V62h-1.51v-6.136c0-.772-.2-1.372-.6-1.803-.4-.435-.95-.652-1.65-.652-.48 0-.91.105-1.29.313a2.23 2.23 0 0 0-.89.914c-.22.4-.33.887-.33 1.458Zm9.03 5.906v-9.818h1.5V62h-1.5Zm.76-11.455c-.29 0-.55-.1-.76-.3a.958.958 0 0 1-.31-.722c0-.282.1-.522.31-.723.21-.2.47-.3.76-.3.3 0 .55.1.76.3.21.2.32.442.32.723 0 .281-.11.522-.32.722-.21.2-.46.3-.76.3Zm7.78 1.637v1.278h-5.09v-1.278h5.09Zm-3.61-2.352h1.51v9.358c0 .426.06.745.19.958.12.21.29.35.48.422.2.068.41.102.63.102.17 0 .31-.008.41-.025l.26-.051.31 1.355a3.275 3.275 0 0 1-1.13.179c-.43 0-.84-.092-1.25-.275a2.466 2.466 0 0 1-1.01-.837c-.27-.375-.4-.848-.4-1.42V49.83Zm6.85 15.852c-.26 0-.49-.022-.69-.064-.2-.038-.34-.077-.41-.115l.38-1.33c.37.094.69.128.97.103.28-.026.53-.152.75-.378.22-.221.43-.581.61-1.08l.28-.767-3.63-9.87h1.64l2.71 7.825h.1l2.71-7.824h1.63l-4.16 11.25c-.19.507-.42.927-.7 1.26-.28.336-.6.585-.97.747-.36.162-.77.243-1.22.243ZM1178.78 62l-3.58-13.09h1.61l2.74 10.661h.13l2.78-10.662h1.79l2.79 10.662h.13l2.73-10.662h1.61L1187.93 62h-1.63l-2.89-10.432h-.1L1180.42 62h-1.64Zm16.48.23c-.62 0-1.19-.117-1.69-.351a2.905 2.905 0 0 1-1.21-1.03c-.3-.451-.45-.997-.45-1.636 0-.562.11-1.018.33-1.368.22-.353.52-.63.89-.83.37-.201.78-.35 1.23-.448.45-.102.9-.184 1.36-.243.6-.077 1.08-.134 1.45-.173.38-.042.65-.113.82-.21.17-.099.26-.27.26-.512v-.051c0-.63-.17-1.12-.52-1.47-.34-.35-.86-.525-1.55-.525-.72 0-1.29.158-1.69.473-.41.316-.7.652-.87 1.01l-1.43-.51c.26-.598.6-1.062 1.02-1.394.43-.337.9-.571 1.41-.704a5.812 5.812 0 0 1 1.51-.204c.31 0 .68.038 1.09.115.41.073.81.224 1.19.454.39.23.71.577.97 1.042.25.464.38 1.086.38 1.866V62h-1.51v-1.33h-.08c-.1.213-.27.441-.51.684-.24.243-.55.45-.95.62-.4.17-.88.256-1.45.256Zm.23-1.355c.6 0 1.1-.117 1.51-.352.41-.234.72-.537.93-.907.21-.371.32-.76.32-1.17v-1.38c-.06.076-.2.146-.42.21-.21.06-.46.113-.74.16-.28.043-.55.081-.81.115-.26.03-.48.055-.64.077-.39.051-.76.134-1.1.25-.33.11-.61.278-.81.504-.21.222-.31.524-.31.908 0 .524.19.92.58 1.189.39.264.89.396 1.49.396Zm7.02 1.125v-9.818h1.46v1.483h.1c.18-.486.51-.88.97-1.183.47-.302 1-.454 1.59-.454.11 0 .25.003.41.007.17.004.3.01.38.019v1.534a4.572 4.572 0 0 0-.35-.057c-.18-.03-.37-.045-.57-.045-.48 0-.9.1-1.28.3-.37.196-.66.469-.88.818-.21.346-.32.74-.32 1.183V62h-1.51Z"/>
</svg>
