<svg xmlns="http://www.w3.org/2000/svg" width="358" height="1218" fill="none" viewBox="0 0 358 1218">
  <path fill="#75BCF0" d="M191 69v1060h-5V69z"/>
  <circle cx="188.5" cy="69.5" r="12" fill="#fff" stroke="#75BCF0" stroke-width="3" transform="rotate(90 188.5 69.5)"/>
  <circle cx="188.5" cy="427.5" r="8" fill="#fff" stroke="#75BCF0" stroke-width="3" transform="rotate(90 188.5 427.5)"/>
  <circle cx="188.5" cy="209.5" r="8" fill="#fff" stroke="#75BCF0" stroke-width="3" transform="rotate(90 188.5 209.5)"/>
  <circle cx="188.5" cy="752.5" r="8" fill="#fff" stroke="#75BCF0" stroke-width="3" transform="rotate(90 188.5 752.5)"/>
  <circle cx="188.5" cy="862.5" r="8" fill="#fff" stroke="#75BCF0" stroke-width="3" transform="rotate(90 188.5 862.5)"/>
  <circle cx="188.5" cy="807.5" r="8" fill="#fff" stroke="#75BCF0" stroke-width="3" transform="rotate(90 188.5 807.5)"/>
  <circle cx="188.5" cy="1128.5" r="12" fill="#fff" stroke="#75BCF0" stroke-width="3" transform="rotate(90 188.5 1128.5)"/>
  <path fill="#fff" d="M165.023 9h-1.586a3.271 3.271 0 0 0-.492-1.202 3.267 3.267 0 0 0-.844-.869 3.575 3.575 0 0 0-1.093-.537 4.36 4.36 0 0 0-1.252-.179c-.793 0-1.511.2-2.155.6-.639.401-1.148.992-1.527 1.772-.375.78-.563 1.736-.563 2.87 0 1.133.188 2.09.563 2.87.379.78.888 1.37 1.527 1.77.644.4 1.362.601 2.155.601.434 0 .852-.06 1.252-.179.401-.12.765-.296 1.093-.53a3.356 3.356 0 0 0 1.336-2.078h1.586a5.304 5.304 0 0 1-.652 1.796 4.933 4.933 0 0 1-1.176 1.349 5.162 5.162 0 0 1-1.579.837c-.58.192-1.2.288-1.86.288-1.117 0-2.11-.273-2.979-.818-.869-.546-1.553-1.321-2.052-2.327-.499-1.006-.748-2.199-.748-3.58 0-1.38.249-2.573.748-3.579.499-1.006 1.183-1.781 2.052-2.327.869-.545 1.862-.818 2.979-.818.66 0 1.28.096 1.86.288a5.09 5.09 0 0 1 1.579.844c.468.366.86.813 1.176 1.342.315.524.532 1.123.652 1.796Zm2.357 9V8.182h1.457v1.483h.102c.179-.486.503-.88.972-1.183a2.86 2.86 0 0 1 1.585-.454c.111 0 .249.003.416.007.166.004.292.01.377.019v1.534a4.51 4.51 0 0 0-.352-.057 3.455 3.455 0 0 0-.569-.045c-.477 0-.903.1-1.278.3a2.262 2.262 0 0 0-.882.818 2.21 2.21 0 0 0-.32 1.183V18h-1.508Zm10.515.204c-.946 0-1.762-.208-2.449-.626a4.203 4.203 0 0 1-1.578-1.764c-.367-.759-.55-1.64-.55-2.646s.183-1.892.55-2.66c.37-.77.886-1.372 1.547-1.802.664-.435 1.44-.652 2.326-.652a4.65 4.65 0 0 1 1.515.256c.499.17.953.447 1.362.83.409.38.735.883.978 1.51.243.626.364 1.397.364 2.313v.64h-7.568v-1.305h6.034c0-.554-.111-1.048-.333-1.483a2.5 2.5 0 0 0-.933-1.029c-.4-.251-.873-.377-1.419-.377-.601 0-1.121.15-1.559.448-.435.294-.77.677-1.004 1.15-.234.473-.352.98-.352 1.521v.87c0 .741.128 1.37.384 1.885.26.512.62.902 1.08 1.17.46.264.995.396 1.605.396.396 0 .754-.055 1.073-.166.324-.115.603-.285.838-.511a2.33 2.33 0 0 0 .543-.857l1.458.41a3.241 3.241 0 0 1-.774 1.303c-.362.371-.81.66-1.342.87-.533.204-1.132.306-1.796.306Zm9.249.026a3.991 3.991 0 0 1-1.694-.351 2.906 2.906 0 0 1-1.208-1.03c-.298-.451-.448-.997-.448-1.636 0-.562.111-1.018.333-1.368.221-.354.518-.63.888-.83.371-.201.78-.35 1.228-.448.451-.103.905-.184 1.361-.243.597-.077 1.08-.134 1.451-.173.375-.042.648-.113.818-.21.175-.099.262-.27.262-.512v-.051c0-.63-.172-1.12-.517-1.47-.341-.35-.859-.524-1.554-.524-.72 0-1.284.157-1.694.473-.409.315-.696.652-.862 1.01l-1.432-.512c.255-.596.596-1.061 1.022-1.393.431-.337.9-.571 1.407-.703a5.835 5.835 0 0 1 1.508-.205c.316 0 .678.038 1.087.115.413.072.812.224 1.195.454.388.23.71.577.965 1.042.256.464.384 1.086.384 1.866V18h-1.509v-1.33h-.076a2.67 2.67 0 0 1-.512.684c-.238.243-.556.45-.952.62-.396.17-.88.256-1.451.256Zm.23-1.355c.597 0 1.099-.117 1.509-.352a2.396 2.396 0 0 0 1.252-2.077v-1.38c-.064.076-.204.146-.421.21-.214.06-.461.113-.742.16a34 34 0 0 1-1.445.192 5.77 5.77 0 0 0-1.099.25c-.337.11-.609.278-.818.504-.205.222-.307.524-.307.908 0 .524.194.92.582 1.189.392.264.888.396 1.489.396Zm11.293-8.693V9.46h-5.088V8.182h5.088Zm-3.605-2.352h1.509v9.357c0 .427.061.746.185.96.128.208.29.349.486.421.2.068.411.102.633.102.166 0 .302-.008.409-.025l.255-.051.307 1.355a3.064 3.064 0 0 1-.428.115 3.157 3.157 0 0 1-.697.064c-.426 0-.844-.092-1.253-.275a2.492 2.492 0 0 1-1.01-.837c-.264-.375-.396-.848-.396-1.42V5.83ZM200.936 18V8.182h1.509V18h-1.509Zm.767-11.455c-.294 0-.547-.1-.76-.3a.964.964 0 0 1-.313-.722c0-.282.104-.522.313-.723.213-.2.466-.3.76-.3s.546.1.755.3c.213.2.319.441.319.723a.956.956 0 0 1-.319.722c-.209.2-.461.3-.755.3Zm7.493 11.66c-.886 0-1.664-.211-2.333-.633-.664-.422-1.184-1.012-1.559-1.77-.371-.76-.556-1.646-.556-2.66 0-1.023.185-1.915.556-2.678.375-.763.895-1.355 1.559-1.777.669-.422 1.447-.633 2.333-.633.887 0 1.662.21 2.327.633.669.422 1.189 1.014 1.56 1.777.375.763.562 1.655.562 2.678 0 1.014-.187 1.9-.562 2.66-.371.758-.891 1.348-1.56 1.77-.665.422-1.44.633-2.327.633Zm0-1.356c.674 0 1.228-.172 1.662-.517.435-.346.757-.8.966-1.362a5.231 5.231 0 0 0 .313-1.828 5.29 5.29 0 0 0-.313-1.835 3.093 3.093 0 0 0-.966-1.374c-.434-.35-.988-.524-1.662-.524-.673 0-1.227.175-1.661.524-.435.35-.757.808-.966 1.374a5.285 5.285 0 0 0-.313 1.835c0 .656.105 1.266.313 1.828.209.563.531 1.016.966 1.362.434.345.988.517 1.661.517Zm8.261-4.755V18h-1.509V8.182h1.457v1.534h.128c.23-.499.58-.9 1.049-1.202.468-.307 1.073-.46 1.815-.46.665 0 1.246.136 1.745.41.499.268.886.677 1.163 1.226.277.546.416 1.236.416 2.071V18h-1.509v-6.136c0-.772-.2-1.373-.601-1.803-.4-.435-.95-.652-1.649-.652a2.63 2.63 0 0 0-1.291.313 2.238 2.238 0 0 0-.888.914c-.218.4-.326.887-.326 1.458Zm-70.74 21.36c0-1.61.209-3.091.627-4.442a13.886 13.886 0 0 1 1.802-3.74h1.33a8.2 8.2 0 0 0-.863 1.56 15.336 15.336 0 0 0-.697 2.027c-.2.733-.358 1.491-.473 2.275a16.539 16.539 0 0 0-.166 2.32c0 1.015.098 2.044.294 3.088.196 1.044.46 2.013.793 2.908.332.895.703 1.624 1.112 2.186h-1.33a13.907 13.907 0 0 1-1.802-3.733c-.418-1.355-.627-2.838-.627-4.448Zm6.19 6.546V26.91h4.576c.912 0 1.664.157 2.257.472.592.311 1.033.73 1.323 1.26a3.54 3.54 0 0 1 .434 1.744c0 .563-.1 1.027-.3 1.394a2.335 2.335 0 0 1-.78.87 3.56 3.56 0 0 1-1.042.472v.128c.401.026.804.166 1.208.422.405.256.744.622 1.017 1.1.272.477.409 1.06.409 1.75 0 .657-.149 1.247-.448 1.771-.298.525-.769.94-1.412 1.247-.644.307-1.481.46-2.512.46h-4.73Zm1.585-1.406h3.145c1.035 0 1.77-.2 2.205-.601.439-.405.658-.895.658-1.47 0-.444-.113-.853-.339-1.228a2.442 2.442 0 0 0-.965-.907c-.417-.23-.912-.345-1.483-.345h-3.221v4.55Zm0-5.932h2.94a2.9 2.9 0 0 0 1.291-.281c.388-.188.695-.452.921-.793.23-.34.345-.741.345-1.202 0-.575-.2-1.063-.601-1.463-.401-.405-1.035-.608-1.905-.608h-2.991v4.347ZM164.409 40v-9.818h1.509V40h-1.509Zm.767-11.454c-.294 0-.548-.1-.761-.301a.968.968 0 0 1-.313-.722.97.97 0 0 1 .313-.723c.213-.2.467-.3.761-.3s.546.1.754.3c.213.2.32.441.32.723a.957.957 0 0 1-.32.722c-.208.2-.46.3-.754.3Zm7.468 15.34c-.729 0-1.356-.093-1.88-.28-.524-.184-.961-.427-1.31-.73a4.003 4.003 0 0 1-.825-.958l1.202-.844c.136.179.309.383.518.614.209.234.494.436.856.607.367.174.846.262 1.439.262.792 0 1.446-.192 1.962-.576.516-.383.773-.984.773-1.802v-1.994h-.127a8.08 8.08 0 0 1-.474.664c-.2.26-.49.493-.869.697-.375.2-.882.3-1.521.3-.793 0-1.504-.187-2.135-.562-.626-.375-1.123-.92-1.489-1.636-.363-.716-.544-1.586-.544-2.608 0-1.006.177-1.882.531-2.627.353-.75.846-1.33 1.476-1.739.631-.413 1.36-.62 2.186-.62.64 0 1.147.107 1.522.32.379.208.669.447.869.716.205.264.362.481.473.651h.153v-1.56h1.458v10.1c0 .844-.192 1.53-.575 2.059a3.29 3.29 0 0 1-1.535 1.17c-.639.25-1.35.376-2.134.376Zm-.052-5.395c.606 0 1.117-.138 1.535-.415.417-.277.735-.675.952-1.195.217-.52.326-1.142.326-1.867 0-.707-.107-1.332-.32-1.873-.213-.54-.528-.965-.946-1.272-.417-.306-.933-.46-1.547-.46-.639 0-1.171.162-1.598.486a2.963 2.963 0 0 0-.952 1.304 5.036 5.036 0 0 0-.313 1.815c0 .682.106 1.285.319 1.81.218.519.537.928.959 1.226.426.294.955.442 1.585.442ZM184.916 40V26.91h4.577c.912 0 1.664.157 2.256.472.593.311 1.034.73 1.324 1.26a3.55 3.55 0 0 1 .434 1.744c0 .563-.1 1.027-.3 1.394a2.335 2.335 0 0 1-.78.87c-.32.212-.667.37-1.042.472v.128c.401.026.803.166 1.208.422.405.256.744.622 1.016 1.1.273.477.41 1.06.41 1.75 0 .657-.15 1.247-.448 1.771-.298.525-.769.94-1.413 1.247-.643.307-1.48.46-2.512.46h-4.73Zm1.586-1.406h3.144c1.036 0 1.771-.2 2.206-.601.439-.405.658-.895.658-1.47 0-.444-.113-.853-.339-1.228a2.449 2.449 0 0 0-.965-.907c-.418-.23-.912-.345-1.483-.345h-3.221v4.55Zm0-5.932h2.94a2.9 2.9 0 0 0 1.291-.281 2.25 2.25 0 0 0 .92-.793c.231-.34.346-.741.346-1.202 0-.575-.201-1.063-.601-1.463-.401-.405-1.036-.608-1.905-.608h-2.991v4.347Zm12.806 7.568a3.991 3.991 0 0 1-1.694-.351 2.906 2.906 0 0 1-1.208-1.03c-.298-.451-.447-.997-.447-1.636 0-.562.11-1.018.332-1.368.222-.353.518-.63.888-.83.371-.201.78-.35 1.228-.448.451-.102.905-.184 1.361-.243.597-.077 1.08-.134 1.451-.173.375-.042.648-.113.818-.21.175-.099.262-.27.262-.512v-.051c0-.63-.172-1.12-.517-1.47-.341-.35-.859-.524-1.554-.524-.72 0-1.284.157-1.693.473-.41.315-.697.651-.863 1.01l-1.432-.512c.255-.596.596-1.061 1.023-1.393a3.83 3.83 0 0 1 1.406-.703 5.837 5.837 0 0 1 1.508-.205c.316 0 .678.038 1.087.115.413.072.812.224 1.195.454.388.23.71.577.965 1.042.256.464.384 1.086.384 1.866V40h-1.509v-1.33h-.076a2.67 2.67 0 0 1-.512.684c-.238.243-.556.45-.952.62-.396.17-.88.256-1.451.256Zm.23-1.355c.597 0 1.1-.117 1.509-.352a2.396 2.396 0 0 0 1.252-2.077v-1.38c-.063.076-.204.146-.421.21a7.16 7.16 0 0 1-.742.16 33.292 33.292 0 0 1-1.445.192 5.77 5.77 0 0 0-1.099.25c-.337.11-.609.278-.818.504-.205.222-.307.524-.307.908 0 .524.194.92.582 1.189.392.264.888.396 1.489.396Zm8.532-4.781V40h-1.509v-9.818h1.458v1.534h.128a2.8 2.8 0 0 1 1.048-1.202c.469-.307 1.074-.46 1.815-.46.665 0 1.247.136 1.745.41.499.268.887.677 1.164 1.226.277.546.415 1.236.415 2.071V40h-1.508v-6.136c0-.772-.201-1.372-.601-1.803-.401-.435-.951-.652-1.649-.652-.482 0-.912.105-1.292.313a2.238 2.238 0 0 0-.888.914c-.217.4-.326.887-.326 1.458Zm12.984 9.792c-.729 0-1.355-.093-1.88-.28-.524-.184-.96-.427-1.31-.73a3.975 3.975 0 0 1-.824-.958l1.201-.844c.137.179.309.383.518.614.209.234.494.436.857.607.366.174.845.262 1.438.262.792 0 1.446-.192 1.962-.576.516-.383.774-.984.774-1.802v-1.994h-.128a8.28 8.28 0 0 1-.473.664c-.201.26-.49.493-.87.697-.375.2-.882.3-1.521.3-.793 0-1.504-.187-2.135-.562-.626-.375-1.123-.92-1.489-1.636-.362-.716-.544-1.586-.544-2.608 0-1.006.177-1.882.531-2.627.354-.75.846-1.33 1.477-1.739.63-.413 1.359-.62 2.186-.62.639 0 1.146.107 1.521.32.379.208.669.447.869.716.205.264.362.481.473.651h.154v-1.56h1.457v10.1c0 .844-.192 1.53-.575 2.059a3.28 3.28 0 0 1-1.534 1.17c-.64.25-1.351.376-2.135.376Zm-.051-5.395c.605 0 1.116-.138 1.534-.415.417-.277.735-.675.952-1.195.217-.52.326-1.142.326-1.867 0-.707-.106-1.332-.32-1.873-.213-.54-.528-.965-.946-1.272-.417-.306-.933-.46-1.546-.46-.64 0-1.172.162-1.598.486-.422.324-.74.758-.953 1.304a5.036 5.036 0 0 0-.313 1.815c0 .682.106 1.285.32 1.81.217.519.536.928.958 1.226.426.294.955.442 1.586.442Zm10.278-4.014c0 1.611-.211 3.094-.633 4.45a13.714 13.714 0 0 1-1.796 3.732h-1.33a7.99 7.99 0 0 0 .857-1.56 14.74 14.74 0 0 0 .703-2.02c.2-.737.356-1.497.467-2.281a16.07 16.07 0 0 0 .172-2.32c0-1.015-.098-2.044-.294-3.088a17.793 17.793 0 0 0-.792-2.909c-.333-.894-.703-1.623-1.113-2.186h1.33a13.692 13.692 0 0 1 1.796 3.74c.422 1.35.633 2.832.633 4.442ZM55.462 400.909V414h-2.767v-10.464h-.077l-2.998 1.879v-2.455l3.24-2.051h2.602Zm7.95 13.269c-.954 0-1.804-.164-2.55-.492-.741-.332-1.327-.788-1.758-1.368-.426-.583-.645-1.257-.658-2.019h2.787c.017.319.121.6.313.843.196.239.456.424.78.556.324.132.688.199 1.093.199a2.65 2.65 0 0 0 1.119-.224c.323-.149.577-.356.76-.62.183-.264.275-.569.275-.914 0-.35-.098-.659-.294-.927-.192-.273-.469-.486-.83-.639-.359-.154-.785-.23-1.28-.23h-1.22v-2.033h1.22c.418 0 .787-.073 1.106-.217a1.79 1.79 0 0 0 .755-.601c.179-.26.268-.563.268-.908a1.57 1.57 0 0 0-.236-.863 1.566 1.566 0 0 0-.652-.588 2.115 2.115 0 0 0-.972-.211c-.375 0-.718.068-1.029.205-.311.132-.56.321-.748.569a1.494 1.494 0 0 0-.3.869h-2.653c.013-.754.228-1.419.646-1.994.417-.576.98-1.025 1.687-1.349.712-.328 1.515-.492 2.41-.492.903 0 1.694.164 2.371.492.678.328 1.204.771 1.58 1.329.379.554.566 1.176.562 1.867.004.733-.224 1.344-.684 1.834-.456.49-1.05.801-1.784.934v.102c.963.123 1.696.458 2.2 1.003.506.542.758 1.219.754 2.033a3.195 3.195 0 0 1-.646 1.988c-.43.58-1.025 1.036-1.784 1.368-.758.332-1.627.498-2.607.498Zm12.16.109c-1.1-.004-2.046-.275-2.838-.812-.789-.537-1.396-1.314-1.822-2.333-.422-1.018-.63-2.243-.626-3.675 0-1.428.21-2.644.632-3.65.426-1.006 1.034-1.771 1.822-2.295.793-.528 1.737-.792 2.832-.792 1.095 0 2.037.264 2.825.792.793.529 1.402 1.296 1.828 2.301.426 1.002.637 2.216.633 3.644 0 1.436-.213 2.663-.64 3.682-.421 1.018-1.026 1.796-1.815 2.333-.788.537-1.732.805-2.831.805Zm0-2.295c.75 0 1.349-.377 1.796-1.131.447-.754.669-1.886.665-3.394 0-.993-.103-1.82-.307-2.48-.2-.661-.486-1.157-.857-1.49a1.87 1.87 0 0 0-1.297-.498c-.746 0-1.343.373-1.79 1.118-.447.746-.673 1.863-.677 3.35 0 1.006.1 1.845.3 2.518.204.669.492 1.172.863 1.509.37.332.805.498 1.304.498Zm7.061-.294v-2.179l5.466-8.61h1.879v3.017h-1.112l-3.446 5.452v.102h7.767v2.218H82.633ZM88.917 414v-2.966l.051-.966v-9.159h2.595V414h-2.646Zm10.356 0v-13.091h5.242c.963 0 1.766.142 2.41.428.643.285 1.127.682 1.451 1.189.324.503.486 1.082.486 1.738 0 .512-.103.961-.307 1.349a2.647 2.647 0 0 1-.844.946 3.452 3.452 0 0 1-1.214.518v.128c.498.021.965.162 1.399.422.439.26.795.624 1.068 1.093.273.464.409 1.018.409 1.662 0 .694-.173 1.314-.518 1.86-.341.541-.846.969-1.515 1.285-.669.315-1.493.473-2.473.473h-5.594Zm2.768-2.263h2.257c.771 0 1.333-.147 1.687-.441.354-.299.531-.695.531-1.189 0-.362-.088-.682-.262-.959a1.783 1.783 0 0 0-.748-.652c-.32-.158-.701-.237-1.144-.237h-2.321v3.478Zm0-5.35h2.052c.379 0 .716-.066 1.01-.199.298-.136.533-.328.703-.575.175-.247.262-.543.262-.888 0-.473-.168-.855-.505-1.145-.332-.289-.805-.434-1.419-.434h-2.103v3.241Zm10.673 7.779a1.49 1.49 0 0 1-1.086-.448 1.49 1.49 0 0 1-.448-1.086c0-.418.149-.776.448-1.074a1.49 1.49 0 0 1 1.086-.448c.409 0 .767.149 1.074.448.307.298.46.656.46 1.074 0 .281-.072.539-.217.773-.14.23-.326.416-.556.556a1.46 1.46 0 0 1-.761.205Zm15.372-8.674h-2.8a2.753 2.753 0 0 0-.313-.966 2.462 2.462 0 0 0-.607-.728 2.677 2.677 0 0 0-.857-.46 3.266 3.266 0 0 0-1.042-.16c-.677 0-1.268.168-1.771.505-.502.332-.892.818-1.169 1.457-.277.635-.416 1.406-.416 2.314 0 .933.139 1.717.416 2.352.281.635.673 1.115 1.176 1.439.503.323 1.084.485 1.745.485.371 0 .714-.049 1.029-.147.32-.098.603-.24.85-.428.247-.192.452-.424.614-.697.166-.272.281-.583.345-.933l2.8.013a5.225 5.225 0 0 1-1.701 3.228 5.416 5.416 0 0 1-1.725 1.035c-.665.252-1.417.377-2.257.377-1.167 0-2.212-.264-3.132-.792-.916-.529-1.641-1.293-2.173-2.295-.529-1.001-.793-2.214-.793-3.637 0-1.427.269-2.642.806-3.643.536-1.002 1.265-1.765 2.186-2.289.92-.528 1.956-.792 3.106-.792.759 0 1.462.106 2.11.319a5.349 5.349 0 0 1 1.732.933c.503.405.912.902 1.227 1.49.32.588.524 1.261.614 2.02Zm3.525 8.674c-.422 0-.784-.149-1.087-.448a1.493 1.493 0 0 1-.447-1.086c0-.418.149-.776.447-1.074a1.492 1.492 0 0 1 1.087-.448c.409 0 .767.149 1.074.448.307.298.46.656.46 1.074 0 .281-.072.539-.217.773-.141.23-.326.416-.556.556a1.462 1.462 0 0 1-.761.205Zm-65.807 8.743h1.892l4.449 10.866h.153l4.45-10.866h1.891V436h-1.483v-9.947h-.128L72.938 436h-1.432l-4.091-9.947h-.128V436h-1.483v-13.091Zm19.798 13.295c-.887 0-1.664-.211-2.333-.633-.665-.422-1.185-1.012-1.56-1.77-.37-.759-.556-1.645-.556-2.659 0-1.023.185-1.916.556-2.679.375-.762.895-1.355 1.56-1.777.669-.422 1.446-.633 2.333-.633.886 0 1.662.211 2.326.633.67.422 1.19 1.015 1.56 1.777.375.763.563 1.656.563 2.679 0 1.014-.188 1.9-.563 2.659-.37.758-.89 1.348-1.56 1.77-.664.422-1.44.633-2.326.633Zm0-1.355c.673 0 1.227-.173 1.662-.518.434-.345.756-.799.965-1.361a5.215 5.215 0 0 0 .313-1.828c0-.657-.104-1.268-.313-1.835a3.088 3.088 0 0 0-.965-1.374c-.435-.35-.989-.524-1.662-.524-.674 0-1.228.174-1.662.524a3.087 3.087 0 0 0-.965 1.374 5.267 5.267 0 0 0-.314 1.835c0 .656.105 1.265.314 1.828.208.562.53 1.016.965 1.361.434.345.988.518 1.662.518ZM92.353 436v-9.819h1.458v1.483h.102c.179-.486.503-.88.972-1.182a2.856 2.856 0 0 1 1.585-.454c.11 0 .25.002.415.006.166.005.292.011.377.019v1.535a4.497 4.497 0 0 0-.351-.058 3.44 3.44 0 0 0-.569-.045c-.477 0-.903.1-1.278.301a2.26 2.26 0 0 0-.882.818c-.214.345-.32.739-.32 1.182V436h-1.509Zm9.587.23a3.996 3.996 0 0 1-1.694-.352 2.912 2.912 0 0 1-1.208-1.029c-.298-.452-.448-.997-.448-1.636 0-.563.111-1.019.333-1.368.221-.354.517-.631.888-.831.371-.201.78-.35 1.228-.448.451-.102.905-.183 1.361-.243.597-.076 1.08-.134 1.451-.172.375-.043.648-.113.818-.211.175-.098.262-.269.262-.512v-.051c0-.63-.172-1.12-.517-1.47-.341-.349-.859-.524-1.554-.524-.72 0-1.285.158-1.694.473-.409.315-.696.652-.863 1.01l-1.431-.511c.255-.597.596-1.061 1.022-1.394a3.85 3.85 0 0 1 1.407-.703 5.851 5.851 0 0 1 1.508-.205c.315 0 .678.039 1.087.116.413.072.812.223 1.195.453.388.23.71.578.965 1.042.256.465.384 1.087.384 1.867V436h-1.509v-1.33h-.076a2.671 2.671 0 0 1-.512.684c-.238.243-.556.449-.952.62-.397.17-.88.256-1.451.256Zm.23-1.355c.597 0 1.099-.118 1.508-.352a2.389 2.389 0 0 0 1.253-2.077v-1.381c-.064.077-.204.147-.422.211a7.32 7.32 0 0 1-.741.16 36.76 36.76 0 0 1-.812.115c-.26.029-.471.055-.633.076a5.755 5.755 0 0 0-1.099.25c-.337.11-.609.279-.818.505-.205.221-.307.524-.307.907 0 .524.194.921.582 1.189.392.264.888.397 1.489.397Zm10.986 5.011c-.728 0-1.355-.094-1.879-.281-.524-.184-.961-.427-1.31-.729a3.974 3.974 0 0 1-.825-.959l1.202-.844c.136.179.309.384.518.614.208.234.494.437.856.607.367.175.846.262 1.438.262.793 0 1.447-.191 1.963-.575.515-.383.773-.984.773-1.803v-1.994h-.128a8.022 8.022 0 0 1-.473.665c-.2.26-.49.492-.869.697-.375.2-.882.3-1.521.3-.793 0-1.505-.187-2.135-.562-.627-.375-1.123-.921-1.49-1.637-.362-.716-.543-1.585-.543-2.608 0-1.005.177-1.881.53-2.627.354-.75.846-1.329 1.477-1.738.631-.414 1.359-.621 2.186-.621.639 0 1.146.107 1.521.32.38.209.669.448.87.716.204.264.362.482.473.652h.153v-1.56h1.458v10.1c0 .844-.192 1.53-.576 2.058-.379.533-.89.923-1.534 1.17-.639.251-1.351.377-2.135.377Zm-.051-5.395c.605 0 1.117-.139 1.534-.415.418-.277.735-.676.953-1.196.217-.52.326-1.142.326-1.866 0-.708-.107-1.332-.32-1.873-.213-.541-.528-.965-.946-1.272-.418-.307-.933-.46-1.547-.46-.639 0-1.172.162-1.598.485-.422.324-.739.759-.952 1.304a5.042 5.042 0 0 0-.314 1.816c0 .682.107 1.285.32 1.809.217.52.537.929.959 1.227.426.294.954.441 1.585.441ZM9.491 451.454c0-1.611.209-3.092.626-4.442a13.854 13.854 0 0 1 1.803-3.74h1.33a8.236 8.236 0 0 0-.864 1.56 15.223 15.223 0 0 0-.696 2.026 19.22 19.22 0 0 0-.473 2.276 16.533 16.533 0 0 0-.167 2.32c0 1.014.098 2.043.294 3.087.197 1.044.46 2.014.793 2.909.332.895.703 1.623 1.112 2.186h-1.33a13.883 13.883 0 0 1-1.802-3.733c-.417-1.355-.626-2.838-.626-4.449ZM15.68 458v-13.091h1.585v5.829h6.98v-5.829h1.585V458h-1.585v-5.856h-6.98V458H15.68Zm17.108.204c-.886 0-1.664-.211-2.333-.633-.665-.422-1.184-1.012-1.56-1.77-.37-.759-.556-1.645-.556-2.659 0-1.023.186-1.916.556-2.679.375-.762.895-1.355 1.56-1.777.67-.422 1.447-.633 2.333-.633.887 0 1.662.211 2.327.633.669.422 1.189 1.015 1.56 1.777.375.763.562 1.656.562 2.679 0 1.014-.187 1.9-.562 2.659-.371.758-.891 1.348-1.56 1.77-.665.422-1.44.633-2.327.633Zm0-1.355c.674 0 1.228-.173 1.662-.518.435-.345.757-.799.965-1.361a5.215 5.215 0 0 0 .314-1.828c0-.657-.105-1.268-.314-1.835a3.087 3.087 0 0 0-.965-1.374c-.434-.35-.988-.524-1.662-.524-.673 0-1.227.174-1.662.524a3.088 3.088 0 0 0-.965 1.374 5.267 5.267 0 0 0-.313 1.835c0 .656.104 1.265.313 1.828.209.562.53 1.016.965 1.361.435.345.989.518 1.662.518Zm12.94-2.864v-5.804h1.508V458h-1.509v-1.662h-.102c-.23.498-.588.922-1.074 1.272-.486.345-1.1.517-1.84.517-.614 0-1.16-.134-1.637-.402-.477-.273-.852-.682-1.125-1.228-.273-.549-.41-1.242-.41-2.077v-6.239h1.51v6.137c0 .716.2 1.287.6 1.713.405.426.92.639 1.547.639.375 0 .757-.096 1.144-.288a2.49 2.49 0 0 0 .985-.882c.268-.396.402-.901.402-1.515Zm11.225-3.605-1.355.384a2.516 2.516 0 0 0-.377-.659 1.838 1.838 0 0 0-.665-.537c-.28-.14-.641-.211-1.08-.211-.6 0-1.101.139-1.502.416-.396.273-.594.62-.594 1.042 0 .375.136.671.409.888.272.218.698.399 1.278.544l1.457.358c.878.213 1.532.539 1.963.978.43.434.645.995.645 1.681 0 .562-.162 1.065-.485 1.508-.32.443-.767.793-1.343 1.049-.575.255-1.244.383-2.007.383-1.001 0-1.83-.217-2.486-.652-.657-.435-1.072-1.07-1.247-1.905l1.432-.358c.136.529.394.925.773 1.189.384.264.885.397 1.503.397.703 0 1.26-.15 1.674-.448.418-.302.627-.665.627-1.087 0-.34-.12-.626-.358-.856-.239-.234-.605-.409-1.1-.524l-1.636-.384c-.9-.213-1.56-.543-1.982-.991-.417-.451-.626-1.016-.626-1.693 0-.554.155-1.044.467-1.471.315-.426.743-.76 1.284-1.003.546-.243 1.164-.365 1.854-.365.972 0 1.735.214 2.288.64.559.426.955.988 1.19 1.687Zm6.567 7.824c-.946 0-1.763-.209-2.449-.626a4.203 4.203 0 0 1-1.578-1.765c-.367-.758-.55-1.64-.55-2.646s.183-1.892.55-2.659c.37-.771.886-1.372 1.546-1.803.665-.434 1.44-.652 2.327-.652.512 0 1.016.086 1.515.256.499.171.953.448 1.362.831.409.379.735.882.978 1.509.242.626.364 1.397.364 2.314v.639h-7.568v-1.304h6.034c0-.554-.11-1.048-.332-1.483a2.5 2.5 0 0 0-.934-1.029c-.4-.252-.873-.377-1.419-.377-.6 0-1.12.149-1.56.447a2.945 2.945 0 0 0-1.003 1.151 3.38 3.38 0 0 0-.352 1.521v.869c0 .742.128 1.37.384 1.886.26.511.62.901 1.08 1.17.46.264.995.396 1.605.396a3.26 3.26 0 0 0 1.074-.166 2.3 2.3 0 0 0 .837-.512 2.32 2.32 0 0 0 .543-.856l1.458.409a3.235 3.235 0 0 1-.774 1.304c-.362.371-.81.66-1.342.869-.533.205-1.132.307-1.796.307Zm10.067 0c-.818 0-1.54-.207-2.167-.62-.626-.418-1.116-1.006-1.47-1.764-.354-.763-.53-1.664-.53-2.704 0-1.031.176-1.926.53-2.685.354-.758.846-1.344 1.477-1.757.63-.414 1.359-.621 2.186-.621.639 0 1.144.107 1.515.32.375.209.66.448.856.716.2.264.356.482.467.652h.128v-4.832h1.508V458H76.63v-1.509h-.18c-.11.179-.268.405-.472.678-.205.268-.497.509-.876.722-.38.209-.884.313-1.515.313Zm.205-1.355c.605 0 1.116-.158 1.534-.473.417-.32.735-.761.952-1.323.218-.567.326-1.221.326-1.963 0-.733-.106-1.374-.32-1.924-.213-.554-.528-.984-.946-1.291-.417-.311-.933-.466-1.546-.466-.64 0-1.172.164-1.598.492-.422.324-.74.765-.953 1.323-.209.554-.313 1.176-.313 1.866 0 .699.106 1.334.32 1.905.217.567.536 1.019.958 1.355.426.333.955.499 1.586.499ZM86.122 458v-9.819h1.508V458h-1.508Zm.767-11.455c-.294 0-.548-.1-.76-.3a.968.968 0 0 1-.314-.723c0-.281.105-.522.313-.722.213-.2.467-.3.76-.3.295 0 .546.1.755.3.213.2.32.441.32.722a.96.96 0 0 1-.32.723c-.209.2-.46.3-.754.3Zm5.013 5.548V458h-1.509v-9.819h1.458v1.534h.128c.23-.498.58-.899 1.048-1.201.469-.307 1.074-.461 1.815-.461.665 0 1.247.137 1.745.41.499.268.887.677 1.164 1.227.277.545.415 1.236.415 2.071V458h-1.508v-6.137c0-.771-.2-1.372-.601-1.802-.4-.435-.95-.652-1.65-.652a2.63 2.63 0 0 0-1.29.313 2.24 2.24 0 0 0-.89.914c-.216.4-.325.886-.325 1.457Zm18.353-3.912v1.279h-5.088v-1.279h5.088Zm-3.605-2.352h1.508v9.358c0 .426.062.746.186.959.128.209.29.349.486.422.2.068.411.102.632.102.167 0 .303-.009.41-.026l.255-.051.307 1.355a2.93 2.93 0 0 1-.428.115 3.132 3.132 0 0 1-.697.064c-.426 0-.844-.091-1.253-.275a2.488 2.488 0 0 1-1.01-.837c-.264-.375-.396-.848-.396-1.419v-9.767Zm7.594 6.264V458h-1.509v-13.091h1.509v4.806h.128a2.78 2.78 0 0 1 1.035-1.208c.465-.302 1.082-.454 1.854-.454.669 0 1.255.135 1.758.403.502.264.892.671 1.169 1.221.282.546.422 1.24.422 2.084V458h-1.508v-6.137c0-.78-.203-1.383-.608-1.809-.4-.43-.956-.645-1.668-.645a2.78 2.78 0 0 0-1.329.313 2.288 2.288 0 0 0-.921.914c-.222.4-.332.886-.332 1.457Zm13.242 6.111c-.946 0-1.762-.209-2.448-.626a4.204 4.204 0 0 1-1.579-1.765c-.366-.758-.549-1.64-.549-2.646s.183-1.892.549-2.659c.371-.771.887-1.372 1.547-1.803.665-.434 1.441-.652 2.327-.652a4.67 4.67 0 0 1 1.515.256c.499.171.952.448 1.361.831.41.379.736.882.978 1.509.243.626.365 1.397.365 2.314v.639h-7.568v-1.304h6.034c0-.554-.111-1.048-.333-1.483a2.496 2.496 0 0 0-.933-1.029c-.401-.252-.874-.377-1.419-.377-.601 0-1.121.149-1.56.447a2.945 2.945 0 0 0-1.003 1.151c-.235.473-.352.98-.352 1.521v.869c0 .742.128 1.37.384 1.886.26.511.62.901 1.08 1.17.46.264.995.396 1.604.396.397 0 .755-.055 1.074-.166.324-.115.603-.286.838-.512.234-.23.415-.515.543-.856l1.457.409a3.23 3.23 0 0 1-.773 1.304c-.362.371-.81.66-1.342.869-.533.205-1.132.307-1.797.307Zm22.673-6.75c0 1.381-.249 2.574-.748 3.58-.498 1.005-1.182 1.781-2.052 2.326-.869.546-1.862.818-2.978.818-1.117 0-2.11-.272-2.979-.818-.869-.545-1.553-1.321-2.052-2.326-.499-1.006-.748-2.199-.748-3.58 0-1.381.249-2.574.748-3.579.499-1.006 1.183-1.782 2.052-2.327.869-.546 1.862-.818 2.979-.818 1.116 0 2.109.272 2.978.818.87.545 1.554 1.321 2.052 2.327.499 1.005.748 2.198.748 3.579Zm-1.534 0c0-1.133-.19-2.09-.569-2.87-.375-.78-.884-1.37-1.528-1.771-.639-.4-1.355-.6-2.147-.6-.793 0-1.511.2-2.155.6-.639.401-1.148.991-1.527 1.771-.375.78-.563 1.737-.563 2.87 0 1.134.188 2.09.563 2.87.379.78.888 1.37 1.527 1.771.644.4 1.362.601 2.155.601.792 0 1.508-.201 2.147-.601.644-.401 1.153-.991 1.528-1.771.379-.78.569-1.736.569-2.87ZM152.62 458v-9.819h1.457v1.483h.103c.179-.486.502-.88.971-1.182a2.856 2.856 0 0 1 1.585-.454c.111 0 .25.002.416.006.166.005.292.011.377.019v1.535a4.446 4.446 0 0 0-.352-.058 3.432 3.432 0 0 0-.568-.045c-.478 0-.904.1-1.279.301a2.257 2.257 0 0 0-.882.818c-.213.345-.32.739-.32 1.182V458h-1.508Zm6.902 0v-13.091h1.508v4.832h.128c.111-.17.264-.388.46-.652.201-.268.486-.507.857-.716.375-.213.882-.32 1.521-.32.827 0 1.556.207 2.186.621.631.413 1.123.999 1.477 1.757.354.759.53 1.654.53 2.685 0 1.04-.176 1.941-.53 2.704-.354.758-.844 1.346-1.47 1.764-.627.413-1.349.62-2.167.62-.631 0-1.136-.104-1.515-.313-.379-.213-.671-.454-.876-.722a9.992 9.992 0 0 1-.473-.678h-.179V458h-1.457Zm1.483-4.91c0 .742.108 1.396.326 1.963.217.562.535 1.003.952 1.323.418.315.929.473 1.534.473.631 0 1.157-.166 1.579-.499.426-.336.746-.788.959-1.355a5.325 5.325 0 0 0 .326-1.905c0-.69-.107-1.312-.32-1.866-.209-.558-.526-.999-.952-1.323-.422-.328-.953-.492-1.592-.492-.613 0-1.129.155-1.547.466-.417.307-.733.737-.946 1.291-.213.55-.319 1.191-.319 1.924Zm12.503-.613c0 1.611-.211 3.094-.633 4.449a13.774 13.774 0 0 1-1.796 3.733h-1.33c.307-.422.592-.942.857-1.56.268-.614.502-1.287.703-2.02.2-.737.356-1.498.466-2.282.115-.788.173-1.562.173-2.32 0-1.014-.098-2.044-.294-3.088a17.691 17.691 0 0 0-.793-2.908c-.332-.895-.703-1.624-1.112-2.186h1.33a13.754 13.754 0 0 1 1.796 3.739c.422 1.351.633 2.832.633 4.443Zm60.564-269.568h2.768v8.502c0 .954-.228 1.789-.684 2.505-.452.716-1.084 1.274-1.898 1.675-.814.396-1.762.594-2.845.594-1.086 0-2.037-.198-2.851-.594-.814-.401-1.446-.959-1.898-1.675-.452-.716-.678-1.551-.678-2.505v-8.502h2.768v8.265c0 .499.109.942.326 1.33.222.387.533.692.933.914.401.221.868.332 1.4.332.537 0 1.004-.111 1.4-.332.401-.222.71-.527.927-.914.222-.388.332-.831.332-1.33v-8.265Zm7.717 7.415V196h-2.723v-9.818h2.595v1.732h.115a2.743 2.743 0 0 1 1.093-1.355c.512-.337 1.132-.505 1.86-.505.682 0 1.277.149 1.784.447.507.299.901.725 1.182 1.279.282.55.422 1.206.422 1.969V196h-2.723v-5.766c.005-.6-.149-1.069-.46-1.406-.311-.341-.739-.511-1.285-.511-.366 0-.69.079-.971.236a1.645 1.645 0 0 0-.652.691c-.154.298-.233.658-.237 1.08Zm10.942 2.851.006-3.267h.396l3.145-3.726h3.126l-4.225 4.934h-.646l-1.802 2.059ZM250.263 196v-13.091h2.723V196h-2.723Zm6.137 0-2.889-4.276 1.815-1.924 4.263 6.2H256.4Zm7.063-5.676V196h-2.723v-9.818h2.595v1.732h.115a2.743 2.743 0 0 1 1.093-1.355c.512-.337 1.132-.505 1.86-.505.682 0 1.277.149 1.784.447.507.299.901.725 1.182 1.279.281.55.422 1.206.422 1.969V196h-2.723v-5.766c.004-.6-.149-1.069-.46-1.406-.311-.341-.739-.511-1.285-.511-.366 0-.69.079-.972.236a1.651 1.651 0 0 0-.652.691c-.153.298-.232.658-.236 1.08Zm12.91 5.868c-.993 0-1.851-.211-2.576-.633a4.333 4.333 0 0 1-1.668-1.777c-.392-.763-.588-1.647-.588-2.653 0-1.014.196-1.9.588-2.659a4.279 4.279 0 0 1 1.668-1.777c.725-.426 1.583-.639 2.576-.639.993 0 1.85.213 2.57.639a4.27 4.27 0 0 1 1.675 1.777c.392.759.588 1.645.588 2.659 0 1.006-.196 1.89-.588 2.653a4.323 4.323 0 0 1-1.675 1.777c-.72.422-1.577.633-2.57.633Zm.013-2.11c.452 0 .829-.127 1.131-.383.303-.26.531-.614.684-1.061.158-.448.237-.957.237-1.528 0-.571-.079-1.08-.237-1.528-.153-.447-.381-.801-.684-1.061-.302-.26-.679-.39-1.131-.39-.456 0-.839.13-1.15.39-.307.26-.54.614-.697 1.061-.154.448-.23.957-.23 1.528 0 .571.076 1.08.23 1.528.157.447.39.801.697 1.061.311.256.694.383 1.15.383Zm8.281 1.918-2.672-9.818h2.755l1.521 6.596h.09l1.585-6.596h2.704l1.611 6.558h.083l1.496-6.558h2.748L293.923 196h-2.883l-1.688-6.175h-.121L287.543 196h-2.876Zm16.097-5.676V196h-2.723v-9.818h2.595v1.732h.115a2.737 2.737 0 0 1 1.093-1.355c.511-.337 1.131-.505 1.86-.505.682 0 1.276.149 1.783.447a3.04 3.04 0 0 1 1.183 1.279c.281.55.422 1.206.422 1.969V196h-2.723v-5.766c.004-.6-.149-1.069-.46-1.406-.311-.341-.74-.511-1.285-.511-.367 0-.69.079-.972.236a1.651 1.651 0 0 0-.652.691c-.153.298-.232.658-.236 1.08ZM237.443 209h-1.586a3.271 3.271 0 0 0-.492-1.202 3.263 3.263 0 0 0-.844-.869 3.56 3.56 0 0 0-1.093-.537 4.371 4.371 0 0 0-1.252-.179c-.793 0-1.511.2-2.155.601-.639.4-1.148.991-1.527 1.771-.375.779-.563 1.736-.563 2.87 0 1.133.188 2.09.563 2.87.379.779.888 1.37 1.527 1.77a3.993 3.993 0 0 0 2.155.601c.434 0 .852-.06 1.252-.179a3.66 3.66 0 0 0 1.093-.53 3.337 3.337 0 0 0 1.336-2.078h1.586a5.299 5.299 0 0 1-.652 1.796 4.916 4.916 0 0 1-1.177 1.349 5.14 5.14 0 0 1-1.578.837c-.58.192-1.2.288-1.86.288-1.117 0-2.11-.273-2.979-.818-.869-.546-1.553-1.321-2.052-2.327-.499-1.006-.748-2.199-.748-3.579 0-1.381.249-2.574.748-3.58.499-1.006 1.183-1.781 2.052-2.327.869-.545 1.862-.818 2.979-.818.66 0 1.28.096 1.86.288.583.192 1.11.473 1.578.844.469.366.861.813 1.177 1.342.315.524.532 1.123.652 1.796Zm6.473 9.205c-.946 0-1.762-.209-2.448-.627a4.207 4.207 0 0 1-1.579-1.764c-.366-.759-.55-1.641-.55-2.646 0-1.006.184-1.892.55-2.659.371-.772.886-1.373 1.547-1.803.665-.435 1.44-.652 2.327-.652.511 0 1.016.085 1.515.256.498.17.952.447 1.361.831.409.379.735.882.978 1.508.243.627.364 1.398.364 2.314v.639h-7.568v-1.304h6.034c0-.554-.11-1.048-.332-1.483a2.508 2.508 0 0 0-.933-1.029c-.401-.251-.874-.377-1.419-.377-.601 0-1.121.149-1.56.448a2.945 2.945 0 0 0-1.004 1.15c-.234.473-.351.98-.351 1.521v.87c0 .741.128 1.37.383 1.885.26.512.62.902 1.081 1.17.46.264.995.396 1.604.396.396 0 .754-.055 1.074-.166a2.29 2.29 0 0 0 .837-.511c.235-.23.416-.516.544-.857l1.457.409a3.224 3.224 0 0 1-.773 1.304c-.363.371-.81.661-1.343.87-.532.204-1.131.307-1.796.307Zm7.869-13.296V218h-1.509v-13.091h1.509Zm6.879 13.296c-.946 0-1.762-.209-2.448-.627a4.207 4.207 0 0 1-1.579-1.764c-.366-.759-.55-1.641-.55-2.646 0-1.006.184-1.892.55-2.659.371-.772.887-1.373 1.547-1.803.665-.435 1.44-.652 2.327-.652.511 0 1.016.085 1.515.256.498.17.952.447 1.361.831.409.379.735.882.978 1.508.243.627.364 1.398.364 2.314v.639h-7.568v-1.304h6.034c0-.554-.11-1.048-.332-1.483a2.508 2.508 0 0 0-.933-1.029c-.401-.251-.874-.377-1.419-.377-.601 0-1.121.149-1.56.448a2.934 2.934 0 0 0-1.003 1.15c-.235.473-.352.98-.352 1.521v.87c0 .741.128 1.37.383 1.885.26.512.621.902 1.081 1.17.46.264.995.396 1.604.396.396 0 .754-.055 1.074-.166a2.29 2.29 0 0 0 .837-.511c.235-.23.416-.516.544-.857l1.457.409a3.224 3.224 0 0 1-.773 1.304c-.363.371-.81.661-1.343.87-.532.204-1.131.307-1.796.307Zm13.315-7.824-1.355.383a2.539 2.539 0 0 0-.377-.658 1.831 1.831 0 0 0-.665-.537c-.281-.141-.642-.211-1.08-.211-.601 0-1.102.138-1.503.415-.396.273-.594.62-.594 1.042 0 .375.136.672.409.889.273.217.699.398 1.278.543l1.458.358c.878.213 1.532.539 1.962.978.431.435.646.995.646 1.681 0 .563-.162 1.066-.486 1.509-.32.443-.767.792-1.342 1.048-.576.256-1.245.384-2.007.384-1.002 0-1.831-.218-2.487-.652-.656-.435-1.072-1.07-1.246-1.905l1.431-.358c.137.528.395.924.774 1.189.383.264.884.396 1.502.396.703 0 1.261-.149 1.675-.447.417-.303.626-.665.626-1.087 0-.341-.119-.627-.358-.857-.238-.234-.605-.409-1.099-.524l-1.637-.383c-.899-.213-1.559-.544-1.981-.991-.418-.452-.627-1.016-.627-1.694 0-.554.156-1.044.467-1.47.315-.426.744-.761 1.285-1.004.545-.243 1.163-.364 1.854-.364.971 0 1.734.213 2.288.639.558.426.954.989 1.189 1.688Zm6.719-2.199v1.278h-5.088v-1.278h5.088Zm-3.605-2.352h1.509v9.358c0 .426.062.745.185.958.128.209.29.35.486.422.2.068.411.102.633.102.166 0 .302-.008.409-.025l.256-.051.306 1.355a3.064 3.064 0 0 1-.428.115 3.126 3.126 0 0 1-.697.064c-.426 0-.843-.092-1.252-.275a2.482 2.482 0 0 1-1.01-.837c-.265-.375-.397-.848-.397-1.419v-9.767Zm5.875 12.17v-9.818h1.508V218h-1.508Zm.767-11.455c-.294 0-.548-.1-.761-.3a.964.964 0 0 1-.313-.722c0-.282.104-.522.313-.723.213-.2.467-.3.761-.3s.545.1.754.3c.213.201.32.441.32.723a.956.956 0 0 1-.32.722c-.209.2-.46.3-.754.3Zm6.393 11.685a3.996 3.996 0 0 1-1.694-.351 2.912 2.912 0 0 1-1.208-1.03c-.298-.451-.447-.997-.447-1.636 0-.562.111-1.018.332-1.368.222-.354.518-.631.889-.831.37-.2.78-.349 1.227-.447.452-.103.906-.183 1.362-.243.596-.077 1.08-.134 1.451-.173.375-.042.647-.113.818-.211.174-.098.262-.268.262-.511v-.051c0-.631-.173-1.121-.518-1.47-.341-.35-.859-.524-1.553-.524-.72 0-1.285.157-1.694.473-.409.315-.697.652-.863 1.009l-1.432-.511c.256-.596.597-1.061 1.023-1.393.43-.337.899-.571 1.406-.703a5.81 5.81 0 0 1 1.509-.205c.315 0 .677.038 1.086.115.414.072.812.224 1.196.454.387.23.709.577.965 1.042.255.464.383 1.086.383 1.866V218h-1.508v-1.33h-.077c-.102.214-.273.442-.511.684-.239.243-.556.45-.953.62-.396.171-.88.256-1.451.256Zm.23-1.355c.597 0 1.1-.117 1.509-.352a2.39 2.39 0 0 0 1.253-2.077v-1.381c-.064.077-.205.147-.422.211-.213.06-.46.113-.742.16a31.56 31.56 0 0 1-1.444.192 5.765 5.765 0 0 0-1.1.249 1.9 1.9 0 0 0-.818.505c-.204.222-.307.524-.307.908 0 .524.194.92.582 1.189.392.264.889.396 1.489.396Zm8.532-11.966V218h-1.508v-13.091h1.508Zm9.718 5.472-1.355.383a2.515 2.515 0 0 0-.378-.658 1.819 1.819 0 0 0-.664-.537c-.282-.141-.642-.211-1.081-.211-.6 0-1.101.138-1.502.415-.396.273-.594.62-.594 1.042 0 .375.136.672.409.889.273.217.699.398 1.278.543l1.458.358c.878.213 1.532.539 1.962.978.43.435.646.995.646 1.681 0 .563-.162 1.066-.486 1.509-.32.443-.767.792-1.342 1.048-.576.256-1.245.384-2.008.384-1.001 0-1.83-.218-2.486-.652-.656-.435-1.072-1.07-1.247-1.905l1.432-.358c.137.528.394.924.774 1.189.383.264.884.396 1.502.396.703 0 1.261-.149 1.675-.447.417-.303.626-.665.626-1.087 0-.341-.119-.627-.358-.857-.239-.234-.605-.409-1.099-.524l-1.637-.383c-.899-.213-1.559-.544-1.981-.991-.418-.452-.627-1.016-.627-1.694 0-.554.156-1.044.467-1.47.315-.426.744-.761 1.285-1.004.545-.243 1.163-.364 1.853-.364.972 0 1.735.213 2.289.639.558.426.954.989 1.189 1.688Zm-101.92 23.074c0-1.611.209-3.092.627-4.443a13.828 13.828 0 0 1 1.802-3.739h1.33a8.192 8.192 0 0 0-.863 1.559 15.189 15.189 0 0 0-.697 2.027c-.2.733-.358 1.491-.473 2.275a16.544 16.544 0 0 0-.166 2.321c0 1.014.098 2.043.294 3.087.196 1.044.46 2.013.792 2.908.333.895.704 1.624 1.113 2.186h-1.33a13.834 13.834 0 0 1-1.802-3.733c-.418-1.355-.627-2.838-.627-4.448ZM214.917 240h-4.04v-13.091h4.219c1.27 0 2.357.262 3.26.786.903.52 1.596 1.268 2.077 2.244.482.972.723 2.135.723 3.49 0 1.364-.243 2.538-.729 3.522a5.197 5.197 0 0 1-2.122 2.263c-.929.524-2.058.786-3.388.786Zm-2.455-1.406h2.353c1.082 0 1.979-.209 2.691-.627a3.858 3.858 0 0 0 1.591-1.783c.35-.771.525-1.69.525-2.755 0-1.057-.173-1.967-.518-2.729-.345-.767-.861-1.356-1.547-1.765-.686-.413-1.541-.62-2.563-.62h-2.532v10.279Zm15.265 1.611c-.946 0-1.762-.209-2.449-.627a4.205 4.205 0 0 1-1.578-1.764c-.367-.759-.55-1.641-.55-2.646 0-1.006.183-1.892.55-2.659.37-.772.886-1.373 1.547-1.803.664-.435 1.44-.652 2.326-.652.512 0 1.017.085 1.515.256.499.17.953.447 1.362.831.409.379.735.882.978 1.508.243.627.364 1.398.364 2.314v.639h-7.568v-1.304h6.034c0-.554-.111-1.048-.332-1.483a2.517 2.517 0 0 0-.934-1.029c-.4-.251-.873-.377-1.419-.377-.601 0-1.12.149-1.559.448-.435.294-.77.677-1.004 1.15-.234.473-.352.98-.352 1.521v.87c0 .741.128 1.37.384 1.885.26.512.62.902 1.08 1.17.46.264.995.396 1.605.396.396 0 .754-.055 1.074-.166.323-.115.602-.285.837-.511a2.33 2.33 0 0 0 .543-.857l1.458.409a3.237 3.237 0 0 1-.774 1.304c-.362.371-.81.661-1.342.87a4.993 4.993 0 0 1-1.796.307Zm13.314-7.824-1.355.383a2.51 2.51 0 0 0-.377-.658 1.823 1.823 0 0 0-.665-.537c-.281-.141-.641-.211-1.08-.211-.601 0-1.102.138-1.502.415-.396.273-.595.62-.595 1.042 0 .375.137.672.41.889.272.217.698.398 1.278.543l1.457.358c.878.213 1.532.539 1.963.978.43.435.645.995.645 1.681 0 .563-.162 1.066-.486 1.509-.319.443-.767.792-1.342 1.048-.575.256-1.244.384-2.007.384-1.001 0-1.83-.218-2.486-.652-.657-.435-1.072-1.07-1.247-1.905l1.432-.358c.136.528.394.924.773 1.189.384.264.885.396 1.502.396.704 0 1.262-.149 1.675-.447.418-.303.627-.665.627-1.087 0-.341-.12-.627-.358-.857-.239-.234-.605-.409-1.1-.524l-1.636-.383c-.899-.213-1.56-.544-1.982-.991-.417-.452-.626-1.016-.626-1.694 0-.554.155-1.044.467-1.47.315-.426.743-.761 1.284-1.004.546-.243 1.164-.364 1.854-.364.972 0 1.734.213 2.288.639.559.426.955.989 1.189 1.688Zm6.72-2.199v1.278h-5.088v-1.278h5.088Zm-3.605-2.352h1.508v9.358c0 .426.062.745.186.958.128.209.289.35.485.422.201.068.412.102.633.102.166 0 .303-.008.409-.025l.256-.051.307 1.355a3.064 3.064 0 0 1-.428.115 3.138 3.138 0 0 1-.697.064c-.426 0-.844-.092-1.253-.275a2.488 2.488 0 0 1-1.01-.837c-.264-.375-.396-.848-.396-1.419v-9.767ZM250.03 240v-9.818h1.457v1.483h.103c.179-.486.503-.88.971-1.183a2.868 2.868 0 0 1 1.586-.454c.11 0 .249.003.415.007.166.004.292.01.377.019v1.534a4.176 4.176 0 0 0-.351-.057 3.445 3.445 0 0 0-.569-.045c-.478 0-.904.1-1.279.3-.37.196-.664.469-.882.818a2.21 2.21 0 0 0-.319 1.183V240h-1.509Zm12.885-4.014v-5.804h1.508V240h-1.508v-1.662h-.102a3.221 3.221 0 0 1-1.074 1.272c-.486.345-1.1.518-1.841.518-.614 0-1.159-.134-1.637-.403-.477-.273-.852-.682-1.125-1.227-.272-.55-.409-1.242-.409-2.078v-6.238h1.509v6.136c0 .716.2 1.287.601 1.713.405.426.92.639 1.547.639.375 0 .756-.095 1.144-.287.392-.192.72-.486.984-.882.269-.397.403-.902.403-1.515Zm8.26 4.219c-.92 0-1.713-.218-2.378-.652-.665-.435-1.176-1.034-1.534-1.797-.358-.762-.537-1.634-.537-2.614 0-.997.183-1.877.55-2.64.371-.767.886-1.366 1.547-1.796.664-.435 1.44-.652 2.326-.652.691 0 1.313.128 1.867.384a3.56 3.56 0 0 1 1.361 1.073c.354.461.574.998.659 1.611h-1.509c-.115-.447-.37-.844-.767-1.189-.392-.349-.92-.524-1.585-.524-.588 0-1.104.153-1.547.46-.439.303-.782.731-1.029 1.285-.243.55-.364 1.195-.364 1.937 0 .758.119 1.419.358 1.981.242.563.583 1 1.022 1.311.444.311.963.466 1.56.466.392 0 .748-.068 1.067-.204.32-.136.591-.333.812-.588.222-.256.38-.563.473-.921h1.509a3.484 3.484 0 0 1-1.956 2.666c-.546.268-1.181.403-1.905.403Zm10.336-10.023v1.278h-5.088v-1.278h5.088Zm-3.605-2.352h1.508v9.358c0 .426.062.745.186.958.128.209.289.35.485.422.201.068.412.102.633.102.166 0 .303-.008.409-.025l.256-.051.307 1.355a3.064 3.064 0 0 1-.428.115 3.138 3.138 0 0 1-.697.064c-.426 0-.844-.092-1.253-.275a2.488 2.488 0 0 1-1.01-.837c-.264-.375-.396-.848-.396-1.419v-9.767ZM283.78 240v-9.818h1.509V240h-1.509Zm.767-11.455c-.294 0-.547-.1-.761-.3a.967.967 0 0 1-.313-.722.97.97 0 0 1 .313-.723c.214-.2.467-.3.761-.3s.546.1.754.3c.213.201.32.441.32.723a.956.956 0 0 1-.32.722c-.208.2-.46.3-.754.3Zm7.493 11.66c-.886 0-1.664-.211-2.333-.633-.665-.422-1.185-1.012-1.56-1.771-.37-.758-.556-1.645-.556-2.659 0-1.023.186-1.915.556-2.678.375-.763.895-1.355 1.56-1.777.669-.422 1.447-.633 2.333-.633.887 0 1.662.211 2.327.633.669.422 1.189 1.014 1.56 1.777.375.763.562 1.655.562 2.678 0 1.014-.187 1.901-.562 2.659-.371.759-.891 1.349-1.56 1.771-.665.422-1.44.633-2.327.633Zm0-1.356c.674 0 1.227-.172 1.662-.517.435-.345.757-.799.965-1.362a5.207 5.207 0 0 0 .314-1.828c0-.656-.105-1.268-.314-1.834a3.087 3.087 0 0 0-.965-1.375c-.435-.349-.988-.524-1.662-.524-.673 0-1.227.175-1.662.524-.434.35-.756.808-.965 1.375a5.256 5.256 0 0 0-.313 1.834c0 .656.104 1.266.313 1.828.209.563.531 1.017.965 1.362.435.345.989.517 1.662.517Zm8.26-4.755V240h-1.508v-9.818h1.457v1.534h.128c.23-.499.58-.899 1.048-1.202.469-.307 1.074-.46 1.816-.46.664 0 1.246.136 1.745.409.498.269.886.678 1.163 1.227.277.546.416 1.236.416 2.071V240h-1.509v-6.136c0-.772-.2-1.373-.601-1.803-.4-.435-.95-.652-1.649-.652-.482 0-.912.104-1.291.313a2.25 2.25 0 0 0-.889.914c-.217.401-.326.887-.326 1.458Zm18.072 6.111c-.886 0-1.664-.211-2.333-.633-.665-.422-1.185-1.012-1.56-1.771-.37-.758-.556-1.645-.556-2.659 0-1.023.186-1.915.556-2.678.375-.763.895-1.355 1.56-1.777.669-.422 1.447-.633 2.333-.633.887 0 1.662.211 2.327.633.669.422 1.189 1.014 1.56 1.777.375.763.562 1.655.562 2.678 0 1.014-.187 1.901-.562 2.659-.371.759-.891 1.349-1.56 1.771-.665.422-1.44.633-2.327.633Zm0-1.356c.674 0 1.228-.172 1.662-.517.435-.345.757-.799.965-1.362a5.207 5.207 0 0 0 .314-1.828c0-.656-.105-1.268-.314-1.834a3.087 3.087 0 0 0-.965-1.375c-.434-.349-.988-.524-1.662-.524-.673 0-1.227.175-1.662.524-.434.35-.756.808-.965 1.375a5.256 5.256 0 0 0-.313 1.834c0 .656.104 1.266.313 1.828.209.563.531 1.017.965 1.362.435.345.989.517 1.662.517Zm11.124-8.667v1.278h-5.293v-1.278h5.293ZM325.789 240v-11.173c0-.563.132-1.032.396-1.407a2.448 2.448 0 0 1 1.029-.843 3.245 3.245 0 0 1 1.336-.282c.371 0 .673.03.908.09.234.06.409.115.524.166l-.435 1.304a10.096 10.096 0 0 0-.319-.096 1.963 1.963 0 0 0-.525-.057c-.498 0-.858.125-1.08.377-.217.251-.326.62-.326 1.106V240h-1.508Zm-107.467 22v-13.091h4.423c1.027 0 1.866.185 2.518.556.657.367 1.142.863 1.458 1.49.315.626.473 1.325.473 2.096 0 .771-.158 1.472-.473 2.103-.311.631-.793 1.134-1.445 1.509-.652.37-1.487.556-2.506.556h-3.17v-1.407h3.119c.703 0 1.268-.121 1.694-.364.426-.243.735-.571.927-.984.196-.418.294-.889.294-1.413s-.098-.993-.294-1.406a2.106 2.106 0 0 0-.933-.972c-.431-.238-1.002-.358-1.713-.358h-2.787V262h-1.585Zm12.729-13.091V262h-1.508v-13.091h1.508Zm5.652 13.321a3.991 3.991 0 0 1-1.693-.351 2.909 2.909 0 0 1-1.209-1.03c-.298-.451-.447-.997-.447-1.636 0-.562.111-1.018.332-1.368.222-.354.518-.631.889-.831.371-.2.78-.349 1.227-.447.452-.103.906-.183 1.362-.243.596-.077 1.08-.134 1.451-.173.375-.042.647-.113.818-.211.175-.098.262-.268.262-.511v-.051c0-.631-.173-1.121-.518-1.47-.341-.35-.858-.524-1.553-.524-.72 0-1.285.157-1.694.473-.409.315-.697.652-.863 1.009l-1.432-.511c.256-.596.597-1.061 1.023-1.393.43-.337.899-.571 1.406-.703a5.815 5.815 0 0 1 1.509-.205c.315 0 .677.038 1.086.115.414.072.812.224 1.196.454.388.23.709.577.965 1.042.256.464.383 1.086.383 1.866V262h-1.508v-1.33h-.077a2.609 2.609 0 0 1-.511.684c-.239.243-.556.45-.953.62-.396.171-.879.256-1.451.256Zm.231-1.355c.596 0 1.099-.117 1.508-.352.413-.234.725-.536.933-.907.213-.371.32-.761.32-1.17v-1.381c-.064.077-.205.147-.422.211-.213.06-.46.113-.741.16a31.625 31.625 0 0 1-1.445.192 5.737 5.737 0 0 0-1.099.249c-.337.111-.61.279-.819.505-.204.222-.306.524-.306.908 0 .524.193.92.581 1.189.392.264.889.396 1.49.396Zm8.531-4.781V262h-1.508v-9.818h1.457v1.534h.128c.23-.499.58-.899 1.048-1.202.469-.307 1.074-.46 1.816-.46.664 0 1.246.136 1.745.409.498.269.886.678 1.163 1.227.277.546.416 1.236.416 2.071V262h-1.509v-6.136c0-.772-.2-1.373-.601-1.803-.4-.435-.95-.652-1.649-.652a2.63 2.63 0 0 0-1.291.313 2.25 2.25 0 0 0-.889.914c-.217.401-.326.887-.326 1.458Zm13.138 6.111c-.946 0-1.762-.209-2.449-.627a4.205 4.205 0 0 1-1.578-1.764c-.367-.759-.55-1.641-.55-2.646 0-1.006.183-1.892.55-2.659.37-.772.886-1.373 1.547-1.803.664-.435 1.44-.652 2.326-.652.512 0 1.017.085 1.515.256.499.17.953.447 1.362.831.409.379.735.882.978 1.508.243.627.364 1.398.364 2.314v.639H255.1v-1.304h6.034c0-.554-.111-1.048-.333-1.483a2.508 2.508 0 0 0-.933-1.029c-.4-.251-.873-.377-1.419-.377-.601 0-1.121.149-1.559.448-.435.294-.77.677-1.004 1.15-.234.473-.352.98-.352 1.521v.87c0 .741.128 1.37.384 1.885.26.512.62.902 1.08 1.17.46.264.995.396 1.605.396.396 0 .754-.055 1.073-.166.324-.115.603-.285.838-.511a2.33 2.33 0 0 0 .543-.857l1.458.409a3.237 3.237 0 0 1-.774 1.304c-.362.371-.81.661-1.342.87a4.993 4.993 0 0 1-1.796.307Zm10.63-10.023v1.278h-5.088v-1.278h5.088Zm-3.606-2.352h1.509v9.358c0 .426.062.745.185.958.128.209.29.35.486.422.2.068.411.102.633.102.166 0 .303-.008.409-.025l.256-.051.307 1.355a3.085 3.085 0 0 1-.429.115 3.122 3.122 0 0 1-.696.064c-.427 0-.844-.092-1.253-.275a2.482 2.482 0 0 1-1.01-.837c-.264-.375-.397-.848-.397-1.419v-9.767Zm12.654 4.551-1.356.383a2.51 2.51 0 0 0-.377-.658 1.827 1.827 0 0 0-.664-.537c-.282-.141-.642-.211-1.081-.211-.601 0-1.101.138-1.502.415-.396.273-.594.62-.594 1.042 0 .375.136.672.409.889.272.217.699.398 1.278.543l1.458.358c.877.213 1.532.539 1.962.978.43.435.646.995.646 1.681 0 .563-.162 1.066-.486 1.509-.32.443-.767.792-1.343 1.048-.575.256-1.244.384-2.007.384-1.001 0-1.83-.218-2.486-.652-.656-.435-1.072-1.07-1.247-1.905l1.432-.358c.137.528.394.924.774 1.189.383.264.884.396 1.502.396.703 0 1.261-.149 1.674-.447.418-.303.627-.665.627-1.087 0-.341-.119-.627-.358-.857-.239-.234-.605-.409-1.1-.524l-1.636-.383c-.899-.213-1.56-.544-1.981-.991-.418-.452-.627-1.016-.627-1.694 0-.554.156-1.044.467-1.47.315-.426.743-.761 1.285-1.004.545-.243 1.163-.364 1.853-.364.972 0 1.735.213 2.289.639.558.426.954.989 1.189 1.688Zm10.401 7.849a3.996 3.996 0 0 1-1.694-.351 2.906 2.906 0 0 1-1.208-1.03c-.298-.451-.447-.997-.447-1.636 0-.562.11-1.018.332-1.368.222-.354.518-.631.888-.831.371-.2.78-.349 1.228-.447.451-.103.905-.183 1.361-.243.597-.077 1.08-.134 1.451-.173.375-.042.648-.113.818-.211.175-.098.262-.268.262-.511v-.051c0-.631-.172-1.121-.517-1.47-.341-.35-.859-.524-1.554-.524-.72 0-1.284.157-1.693.473-.41.315-.697.652-.863 1.009l-1.432-.511c.255-.596.596-1.061 1.023-1.393.43-.337.899-.571 1.406-.703a5.808 5.808 0 0 1 1.508-.205c.316 0 .678.038 1.087.115.413.072.812.224 1.195.454.388.23.71.577.965 1.042.256.464.384 1.086.384 1.866V262h-1.509v-1.33h-.076a2.638 2.638 0 0 1-.512.684c-.238.243-.556.45-.952.62-.396.171-.88.256-1.451.256Zm.23-1.355c.597 0 1.1-.117 1.509-.352a2.39 2.39 0 0 0 1.252-2.077v-1.381c-.063.077-.204.147-.421.211a7.08 7.08 0 0 1-.742.16c-.277.043-.547.081-.812.115-.26.03-.471.056-.632.077a5.748 5.748 0 0 0-1.1.249 1.894 1.894 0 0 0-.818.505c-.205.222-.307.524-.307.908 0 .524.194.92.582 1.189.392.264.888.396 1.489.396Zm8.532-4.781V262h-1.509v-9.818h1.458v1.534h.128c.23-.499.579-.899 1.048-1.202.469-.307 1.074-.46 1.815-.46.665 0 1.247.136 1.745.409.499.269.887.678 1.164 1.227.277.546.415 1.236.415 2.071V262H302.2v-6.136c0-.772-.201-1.373-.601-1.803-.401-.435-.951-.652-1.649-.652-.482 0-.912.104-1.292.313a2.242 2.242 0 0 0-.888.914c-.217.401-.326.887-.326 1.458Zm12.728 6.111c-.818 0-1.54-.207-2.167-.62-.626-.418-1.116-1.006-1.47-1.765-.354-.762-.531-1.664-.531-2.704 0-1.031.177-1.926.531-2.684.354-.759.846-1.345 1.477-1.758.63-.413 1.359-.62 2.186-.62.639 0 1.144.107 1.515.32.375.208.66.447.856.715.2.265.356.482.467.652h.128v-4.832h1.508V262h-1.457v-1.509h-.179a9.992 9.992 0 0 1-.473.678c-.205.268-.497.509-.876.722-.379.209-.884.314-1.515.314Zm.205-1.356c.605 0 1.116-.157 1.534-.473.417-.319.735-.76.952-1.323.217-.566.326-1.221.326-1.962 0-.733-.106-1.374-.32-1.924-.213-.554-.528-.984-.946-1.291-.417-.311-.933-.467-1.546-.467-.64 0-1.172.164-1.598.492-.422.324-.74.765-.953 1.323-.209.554-.313 1.177-.313 1.867 0 .699.106 1.334.32 1.905.217.566.536 1.018.958 1.355.427.332.955.498 1.586.498ZM229.278 275h-1.586a3.289 3.289 0 0 0-1.336-2.071 3.56 3.56 0 0 0-1.093-.537 4.373 4.373 0 0 0-1.253-.179c-.792 0-1.51.2-2.154.601-.639.4-1.148.991-1.527 1.771-.375.779-.563 1.736-.563 2.87 0 1.133.188 2.09.563 2.87.379.779.888 1.37 1.527 1.77a3.992 3.992 0 0 0 2.154.601c.435 0 .853-.06 1.253-.179a3.66 3.66 0 0 0 1.093-.53 3.354 3.354 0 0 0 1.336-2.078h1.586a5.299 5.299 0 0 1-.652 1.796 4.916 4.916 0 0 1-1.177 1.349 5.14 5.14 0 0 1-1.578.837c-.58.192-1.2.288-1.861.288-1.116 0-2.109-.273-2.978-.818-.87-.546-1.553-1.321-2.052-2.327-.499-1.006-.748-2.199-.748-3.579 0-1.381.249-2.574.748-3.58.499-1.006 1.182-1.781 2.052-2.327.869-.545 1.862-.818 2.978-.818.661 0 1.281.096 1.861.288.583.192 1.11.473 1.578.844.469.366.861.813 1.177 1.342.315.524.532 1.123.652 1.796Zm2.357 9v-9.818h1.508V284h-1.508Zm.767-11.455c-.294 0-.548-.1-.761-.3a.964.964 0 0 1-.313-.722c0-.282.104-.522.313-.723.213-.2.467-.3.761-.3s.545.1.754.3a.957.957 0 0 1 .319.723.955.955 0 0 1-.319.722c-.209.2-.46.3-.754.3Zm11.532 1.637-3.63 9.818h-1.534l-3.631-9.818h1.636l2.711 7.824h.102l2.71-7.824h1.636Zm1.992 9.818v-9.818h1.508V284h-1.508Zm.767-11.455c-.294 0-.548-.1-.761-.3a.964.964 0 0 1-.313-.722c0-.282.104-.522.313-.723.213-.2.467-.3.761-.3s.545.1.754.3c.213.201.32.441.32.723a.956.956 0 0 1-.32.722c-.209.2-.46.3-.754.3Zm5.013-1.636V284h-1.509v-13.091h1.509ZM254.469 284v-9.818h1.508V284h-1.508Zm.767-11.455c-.294 0-.548-.1-.761-.3a.964.964 0 0 1-.313-.722c0-.282.104-.522.313-.723.213-.2.467-.3.761-.3s.545.1.754.3a.957.957 0 0 1 .319.723.955.955 0 0 1-.319.722c-.209.2-.46.3-.754.3ZM258.459 284v-1.151l5.574-7.159v-.102h-5.395v-1.406h7.338v1.202l-5.421 7.107v.103h5.6V284h-7.696Zm12.909.23a3.993 3.993 0 0 1-1.694-.351 2.906 2.906 0 0 1-1.208-1.03c-.299-.451-.448-.997-.448-1.636 0-.562.111-1.018.332-1.368.222-.354.518-.631.889-.831.371-.2.78-.349 1.227-.447.452-.103.906-.183 1.362-.243.596-.077 1.08-.134 1.451-.173.375-.042.647-.113.818-.211.175-.098.262-.268.262-.511v-.051c0-.631-.173-1.121-.518-1.47-.341-.35-.858-.524-1.553-.524-.72 0-1.285.157-1.694.473-.409.315-.697.652-.863 1.009l-1.432-.511c.256-.596.597-1.061 1.023-1.393.43-.337.899-.571 1.406-.703a5.821 5.821 0 0 1 1.509-.205c.315 0 .677.038 1.087.115.413.072.811.224 1.195.454.388.23.709.577.965 1.042.256.464.384 1.086.384 1.866V284h-1.509v-1.33h-.077a2.609 2.609 0 0 1-.511.684c-.239.243-.556.45-.952.62-.397.171-.88.256-1.451.256Zm.23-1.355c.596 0 1.099-.117 1.508-.352.414-.234.725-.536.933-.907.213-.371.32-.761.32-1.17v-1.381c-.064.077-.205.147-.422.211-.213.06-.46.113-.741.16a31.625 31.625 0 0 1-1.445.192 5.755 5.755 0 0 0-1.099.249c-.337.111-.61.279-.819.505-.204.222-.306.524-.306.908 0 .524.194.92.581 1.189.392.264.889.396 1.49.396Zm11.293-8.693v1.278h-5.088v-1.278h5.088Zm-3.605-2.352h1.508v9.358c0 .426.062.745.186.958.127.209.289.35.485.422.201.068.412.102.633.102.166 0 .303-.008.409-.025l.256-.051.307 1.355a3.064 3.064 0 0 1-.428.115 3.138 3.138 0 0 1-.697.064c-.426 0-.844-.092-1.253-.275a2.482 2.482 0 0 1-1.01-.837c-.264-.375-.396-.848-.396-1.419v-9.767ZM285.16 284v-9.818h1.509V284h-1.509Zm.767-11.455c-.294 0-.548-.1-.761-.3a.967.967 0 0 1-.313-.722.97.97 0 0 1 .313-.723c.213-.2.467-.3.761-.3s.545.1.754.3c.213.201.32.441.32.723a.956.956 0 0 1-.32.722c-.209.2-.46.3-.754.3Zm7.493 11.66c-.886 0-1.664-.211-2.333-.633-.665-.422-1.185-1.012-1.56-1.771-.37-.758-.556-1.645-.556-2.659 0-1.023.186-1.915.556-2.678.375-.763.895-1.355 1.56-1.777.669-.422 1.447-.633 2.333-.633.886 0 1.662.211 2.327.633.669.422 1.189 1.014 1.559 1.777.375.763.563 1.655.563 2.678 0 1.014-.188 1.901-.563 2.659-.37.759-.89 1.349-1.559 1.771-.665.422-1.441.633-2.327.633Zm0-1.356c.673 0 1.227-.172 1.662-.517.435-.345.756-.799.965-1.362a5.206 5.206 0 0 0 .313-1.828c0-.656-.104-1.268-.313-1.834a3.094 3.094 0 0 0-.965-1.375c-.435-.349-.989-.524-1.662-.524-.673 0-1.227.175-1.662.524-.434.35-.756.808-.965 1.375a5.256 5.256 0 0 0-.313 1.834c0 .656.104 1.266.313 1.828.209.563.531 1.017.965 1.362.435.345.989.517 1.662.517Zm8.26-4.755V284h-1.508v-9.818h1.457v1.534h.128c.23-.499.579-.899 1.048-1.202.469-.307 1.074-.46 1.816-.46.664 0 1.246.136 1.745.409.498.269.886.678 1.163 1.227.277.546.415 1.236.415 2.071V284h-1.508v-6.136c0-.772-.2-1.373-.601-1.803-.401-.435-.95-.652-1.649-.652-.482 0-.912.104-1.291.313a2.25 2.25 0 0 0-.889.914c-.217.401-.326.887-.326 1.458Zm12.243.383c0 1.611-.211 3.094-.633 4.449a13.774 13.774 0 0 1-1.796 3.733h-1.33c.307-.422.592-.942.857-1.56.268-.613.502-1.287.703-2.019.2-.738.356-1.498.466-2.282.115-.789.173-1.562.173-2.321 0-1.014-.098-2.043-.294-3.087a17.664 17.664 0 0 0-.793-2.908c-.332-.895-.703-1.624-1.112-2.187h1.33a13.76 13.76 0 0 1 1.796 3.74c.422 1.351.633 2.831.633 4.442ZM108.193 744v-1.994l4.66-4.315a18 18 0 0 0 .997-1.035c.273-.307.479-.608.62-.902.141-.298.211-.62.211-.965 0-.383-.088-.714-.262-.991a1.725 1.725 0 0 0-.716-.645 2.239 2.239 0 0 0-1.029-.23c-.401 0-.75.081-1.049.242a1.68 1.68 0 0 0-.69.697c-.162.303-.243.663-.243 1.08h-2.627c0-.856.194-1.6.582-2.23a3.883 3.883 0 0 1 1.63-1.464c.699-.345 1.504-.518 2.416-.518.937 0 1.753.166 2.448.499.699.328 1.242.784 1.63 1.368.388.583.582 1.252.582 2.007 0 .494-.098.982-.294 1.463-.192.482-.535 1.017-1.029 1.605-.495.584-1.191 1.285-2.091 2.103l-1.911 1.873v.089h5.497V744h-9.332Zm16.471.288c-1.1-.005-2.046-.275-2.838-.812-.789-.537-1.396-1.315-1.822-2.333-.422-1.019-.631-2.244-.627-3.676 0-1.427.211-2.644.633-3.65.426-1.005 1.034-1.77 1.822-2.294.793-.529 1.736-.793 2.832-.793 1.095 0 2.037.264 2.825.793.793.528 1.402 1.295 1.828 2.301.426 1.001.637 2.216.633 3.643 0 1.436-.213 2.664-.639 3.682-.422 1.019-1.027 1.796-1.816 2.333-.788.537-1.732.806-2.831.806Zm0-2.295c.75 0 1.348-.377 1.796-1.131.447-.755.669-1.886.665-3.395 0-.993-.103-1.819-.307-2.48-.201-.66-.486-1.157-.857-1.489a1.864 1.864 0 0 0-1.297-.499c-.746 0-1.343.373-1.79 1.119-.448.746-.673 1.862-.678 3.349 0 1.006.1 1.845.301 2.519.204.669.492 1.172.863 1.508.37.333.805.499 1.304.499Zm12.955-11.084V744h-2.768v-10.464h-.077l-2.998 1.879v-2.454l3.241-2.052h2.602Zm2.913 10.79v-2.18l5.465-8.61h1.879v3.017h-1.112l-3.445 5.453v.102h7.766v2.218h-10.553Zm6.283 2.301v-2.966l.051-.965v-9.16h2.596V744h-2.647Zm-49 12.182a2.007 2.007 0 0 0-.934-1.509c-.545-.358-1.214-.537-2.007-.537-.58 0-1.086.094-1.521.282-.43.187-.767.445-1.01.773a1.854 1.854 0 0 0-.358 1.119c0 .349.083.65.25.901.17.247.387.454.651.62.265.162.542.296.831.403.29.102.556.185.8.249l1.329.358c.34.089.72.213 1.138.371a5.26 5.26 0 0 1 1.208.645c.388.269.707.614.959 1.036.251.422.377.939.377 1.553 0 .707-.186 1.347-.556 1.918-.367.571-.904 1.024-1.611 1.361-.703.337-1.558.505-2.563.505-.938 0-1.75-.151-2.436-.454-.682-.302-1.218-.724-1.61-1.265-.388-.542-.608-1.17-.659-1.886h1.636c.043.494.21.903.499 1.227.294.32.665.559 1.112.716.452.154.938.23 1.458.23.605 0 1.148-.098 1.63-.294.481-.2.862-.477 1.144-.831a1.97 1.97 0 0 0 .422-1.253c0-.434-.122-.788-.365-1.061a2.676 2.676 0 0 0-.959-.664 9.999 9.999 0 0 0-1.284-.448l-1.611-.46c-1.023-.294-1.833-.714-2.43-1.259-.596-.546-.894-1.26-.894-2.142 0-.733.198-1.372.595-1.917.4-.55.937-.976 1.61-1.279.678-.306 1.434-.46 2.27-.46.843 0 1.593.151 2.25.454.656.298 1.176.707 1.56 1.227.387.52.591 1.11.613 1.771h-1.534Zm8.384 0v1.278h-5.088v-1.278h5.088Zm-3.605-2.352h1.509v9.358c0 .426.062.745.185.958.128.209.29.35.486.422.2.068.411.102.633.102.166 0 .302-.008.409-.025l.256-.051.306 1.355a3.064 3.064 0 0 1-.428.115 3.126 3.126 0 0 1-.697.064c-.426 0-.843-.092-1.252-.275a2.482 2.482 0 0 1-1.01-.837c-.265-.375-.397-.848-.397-1.419v-9.767Zm8.764 12.4a3.996 3.996 0 0 1-1.694-.351 2.906 2.906 0 0 1-1.208-1.03c-.299-.451-.448-.997-.448-1.636 0-.562.111-1.018.333-1.368.221-.354.517-.631.888-.831.371-.2.78-.349 1.227-.447.452-.103.906-.183 1.362-.243.597-.077 1.08-.134 1.451-.173.375-.042.648-.113.818-.211.175-.098.262-.268.262-.511v-.051c0-.631-.172-1.121-.518-1.47-.34-.35-.858-.524-1.553-.524-.72 0-1.285.157-1.694.473-.409.315-.696.652-.863 1.009l-1.431-.511c.255-.596.596-1.061 1.022-1.393a3.827 3.827 0 0 1 1.407-.703 5.808 5.808 0 0 1 1.508-.205c.315 0 .678.038 1.087.115.413.072.812.224 1.195.454.388.23.71.577.965 1.042.256.464.384 1.086.384 1.866V766h-1.509v-1.33h-.076a2.638 2.638 0 0 1-.512.684c-.238.243-.556.45-.952.62-.397.171-.88.256-1.451.256Zm.23-1.355c.596 0 1.099-.117 1.508-.352a2.387 2.387 0 0 0 1.253-2.077v-1.381c-.064.077-.204.147-.422.211-.213.06-.46.113-.741.16a31.625 31.625 0 0 1-1.445.192 5.755 5.755 0 0 0-1.099.249c-.337.111-.61.279-.818.505-.205.222-.307.524-.307.908 0 .524.194.92.582 1.189.392.264.888.396 1.489.396Zm7.023 1.125v-9.818h1.458v1.483h.102c.179-.486.503-.88.971-1.183a2.868 2.868 0 0 1 1.586-.454c.11 0 .249.003.415.007.166.004.292.01.377.019v1.534a4.176 4.176 0 0 0-.351-.057 3.445 3.445 0 0 0-.569-.045c-.477 0-.904.1-1.279.3-.37.196-.664.469-.882.818a2.21 2.21 0 0 0-.319 1.183V766h-1.509Zm11.602-6.315v1.406h-5.728v-1.406h5.728Zm2.859 6.315v-13.091h1.585v11.685h6.085V766h-7.67Zm13.909.205c-.887 0-1.664-.211-2.333-.633-.665-.422-1.185-1.012-1.56-1.771-.371-.758-.556-1.645-.556-2.659 0-1.023.185-1.915.556-2.678.375-.763.895-1.355 1.56-1.777.669-.422 1.446-.633 2.333-.633.886 0 1.662.211 2.326.633.669.422 1.189 1.014 1.56 1.777.375.763.563 1.655.563 2.678 0 1.014-.188 1.901-.563 2.659-.371.759-.891 1.349-1.56 1.771-.664.422-1.44.633-2.326.633Zm0-1.356c.673 0 1.227-.172 1.662-.517.434-.345.756-.799.965-1.362a5.206 5.206 0 0 0 .313-1.828c0-.656-.104-1.268-.313-1.834a3.102 3.102 0 0 0-.965-1.375c-.435-.349-.989-.524-1.662-.524-.674 0-1.228.175-1.662.524-.435.35-.757.808-.965 1.375a5.257 5.257 0 0 0-.314 1.834c0 .656.105 1.266.314 1.828.208.563.53 1.017.965 1.362.434.345.988.517 1.662.517Zm6.751 1.151v-9.818h1.458v1.483h.102c.179-.486.503-.88.971-1.183a2.868 2.868 0 0 1 1.586-.454c.111 0 .249.003.415.007.166.004.292.01.377.019v1.534a4.176 4.176 0 0 0-.351-.057 3.445 3.445 0 0 0-.569-.045c-.477 0-.904.1-1.279.3-.37.196-.664.469-.882.818a2.21 2.21 0 0 0-.319 1.183V766h-1.509Zm10.106.205c-.818 0-1.54-.207-2.167-.62-.626-.418-1.116-1.006-1.47-1.765-.354-.762-.531-1.664-.531-2.704 0-1.031.177-1.926.531-2.684.354-.759.846-1.345 1.477-1.758.63-.413 1.359-.62 2.186-.62.639 0 1.144.107 1.515.32.375.208.66.447.856.715.2.265.356.482.467.652h.128v-4.832h1.508V766h-1.457v-1.509h-.179a9.992 9.992 0 0 1-.473.678c-.205.268-.497.509-.876.722-.379.209-.884.314-1.515.314Zm.205-1.356c.605 0 1.116-.157 1.534-.473.417-.319.735-.76.952-1.323.217-.566.326-1.221.326-1.962 0-.733-.106-1.374-.319-1.924-.214-.554-.529-.984-.947-1.291-.417-.311-.933-.467-1.546-.467-.64 0-1.172.164-1.598.492-.422.324-.74.765-.953 1.323-.209.554-.313 1.177-.313 1.867 0 .699.107 1.334.32 1.905.217.566.537 1.018.958 1.355.427.332.955.498 1.586.498ZM86.193 850v-1.994l4.66-4.315a18 18 0 0 0 .997-1.035 3.94 3.94 0 0 0 .62-.902c.14-.298.21-.62.21-.965 0-.383-.087-.714-.261-.991a1.72 1.72 0 0 0-.716-.645 2.236 2.236 0 0 0-1.03-.23c-.4 0-.75.081-1.048.242a1.678 1.678 0 0 0-.69.697c-.162.303-.243.663-.243 1.08h-2.627c0-.856.194-1.6.582-2.23a3.882 3.882 0 0 1 1.63-1.464c.699-.345 1.504-.518 2.416-.518.937 0 1.754.166 2.448.499.699.328 1.242.784 1.63 1.368.388.583.582 1.252.582 2.007 0 .494-.098.982-.294 1.463-.192.482-.535 1.017-1.03 1.605-.494.584-1.19 1.285-2.09 2.103l-1.91 1.873v.089h5.496V850h-9.332Zm16.471.288c-1.1-.005-2.046-.275-2.838-.812-.789-.537-1.396-1.315-1.822-2.333-.422-1.019-.63-2.244-.627-3.676 0-1.427.211-2.644.633-3.65.426-1.005 1.034-1.77 1.822-2.294.793-.529 1.736-.793 2.832-.793 1.095 0 2.037.264 2.825.793.793.528 1.402 1.295 1.828 2.301.426 1.001.637 2.216.633 3.643 0 1.436-.213 2.664-.639 3.682-.422 1.019-1.027 1.796-1.816 2.333-.788.537-1.732.806-2.831.806Zm0-2.295c.75 0 1.348-.377 1.796-1.131.447-.755.669-1.886.665-3.395 0-.993-.103-1.819-.307-2.48-.201-.66-.486-1.157-.857-1.489a1.864 1.864 0 0 0-1.297-.499c-.746 0-1.343.373-1.79 1.119-.448.746-.673 1.862-.678 3.349 0 1.006.1 1.845.301 2.519.204.669.492 1.172.863 1.508.37.333.805.499 1.304.499Zm12.955-11.084V850h-2.768v-10.464h-.077l-2.998 1.879v-2.454l3.241-2.052h2.602Zm2.913 10.79v-2.18l5.465-8.61h1.879v3.017h-1.112l-3.445 5.453v.102h7.766v2.218h-10.553Zm6.283 2.301v-2.966l.051-.965v-9.16h2.596V850h-2.647Zm-73.698 10.315v-1.406h9.819v1.406h-4.117V872h-1.585v-11.685h-4.117Zm13.57 5.779V872h-1.51v-13.091h1.51v4.807h.127c.23-.507.575-.91 1.035-1.208.465-.303 1.083-.454 1.854-.454.67 0 1.255.134 1.758.403.503.264.893.671 1.17 1.221.28.545.422 1.24.422 2.083V872h-1.509v-6.136c0-.78-.202-1.383-.607-1.809-.4-.431-.957-.646-1.668-.646-.495 0-.938.104-1.33.313a2.293 2.293 0 0 0-.92.914c-.222.401-.333.887-.333 1.458Zm13.242 6.111c-.946 0-1.762-.209-2.448-.627a4.206 4.206 0 0 1-1.58-1.764c-.366-.759-.549-1.641-.549-2.646 0-1.006.183-1.892.55-2.659.37-.772.886-1.373 1.547-1.803.665-.435 1.44-.652 2.326-.652a4.64 4.64 0 0 1 1.515.256c.499.17.953.447 1.362.831.409.379.735.882.978 1.508.243.627.364 1.398.364 2.314v.639h-7.568v-1.304h6.034c0-.554-.11-1.048-.332-1.483a2.512 2.512 0 0 0-.934-1.029c-.4-.251-.873-.377-1.419-.377-.6 0-1.12.149-1.56.448a2.95 2.95 0 0 0-1.003 1.15 3.38 3.38 0 0 0-.351 1.521v.87c0 .741.127 1.37.383 1.885.26.512.62.902 1.08 1.17.46.264.995.396 1.605.396a3.26 3.26 0 0 0 1.074-.166c.323-.115.603-.285.837-.511a2.33 2.33 0 0 0 .543-.857l1.458.409a3.227 3.227 0 0 1-.774 1.304c-.362.371-.81.661-1.342.87-.533.204-1.131.307-1.796.307ZM100.09 863h-1.585a3.296 3.296 0 0 0-1.336-2.071 3.567 3.567 0 0 0-1.093-.537 4.377 4.377 0 0 0-1.253-.179c-.793 0-1.51.2-2.154.601-.64.4-1.149.991-1.528 1.771-.375.779-.562 1.736-.562 2.87 0 1.133.187 2.09.562 2.87.38.779.889 1.37 1.528 1.77a3.99 3.99 0 0 0 2.154.601c.435 0 .852-.06 1.253-.179.4-.119.765-.296 1.093-.53a3.362 3.362 0 0 0 1.336-2.078h1.585a5.275 5.275 0 0 1-.652 1.796 4.906 4.906 0 0 1-1.176 1.349 5.144 5.144 0 0 1-1.579.837c-.58.192-1.2.288-1.86.288-1.116 0-2.11-.273-2.979-.818-.869-.546-1.553-1.321-2.052-2.327-.498-1.006-.747-2.199-.747-3.579 0-1.381.249-2.574.747-3.58.499-1.006 1.183-1.781 2.052-2.327.87-.545 1.863-.818 2.979-.818.66 0 1.28.096 1.86.288.584.192 1.11.473 1.579.844.469.366.86.813 1.176 1.342.315.524.533 1.123.652 1.796Zm6.346 9.205c-.887 0-1.664-.211-2.333-.633-.665-.422-1.185-1.012-1.56-1.771-.371-.758-.556-1.645-.556-2.659 0-1.023.185-1.915.556-2.678.375-.763.895-1.355 1.56-1.777.669-.422 1.446-.633 2.333-.633.886 0 1.662.211 2.326.633.669.422 1.189 1.014 1.56 1.777.375.763.563 1.655.563 2.678 0 1.014-.188 1.901-.563 2.659-.371.759-.891 1.349-1.56 1.771-.664.422-1.44.633-2.326.633Zm0-1.356c.673 0 1.227-.172 1.662-.517.434-.345.756-.799.965-1.362a5.206 5.206 0 0 0 .313-1.828c0-.656-.104-1.268-.313-1.834a3.102 3.102 0 0 0-.965-1.375c-.435-.349-.989-.524-1.662-.524-.674 0-1.228.175-1.662.524-.435.35-.757.808-.965 1.375a5.257 5.257 0 0 0-.314 1.834c0 .656.105 1.266.314 1.828.208.563.53 1.017.965 1.362.434.345.988.517 1.662.517Zm8.26-11.94V872h-1.509v-13.091h1.509Zm4.271 0V872h-1.508v-13.091h1.508Zm6.88 13.296c-.946 0-1.762-.209-2.448-.627a4.207 4.207 0 0 1-1.579-1.764c-.367-.759-.55-1.641-.55-2.646 0-1.006.183-1.892.55-2.659.371-.772.886-1.373 1.547-1.803.664-.435 1.44-.652 2.326-.652.512 0 1.017.085 1.515.256.499.17.953.447 1.362.831.409.379.735.882.978 1.508.243.627.364 1.398.364 2.314v.639h-7.568v-1.304h6.034c0-.554-.111-1.048-.332-1.483a2.517 2.517 0 0 0-.934-1.029c-.4-.251-.873-.377-1.419-.377-.6 0-1.12.149-1.559.448a2.945 2.945 0 0 0-1.004 1.15c-.234.473-.351.98-.351 1.521v.87c0 .741.127 1.37.383 1.885.26.512.62.902 1.08 1.17.461.264.995.396 1.605.396.396 0 .754-.055 1.074-.166.323-.115.603-.285.837-.511a2.33 2.33 0 0 0 .543-.857l1.458.409a3.237 3.237 0 0 1-.774 1.304 3.764 3.764 0 0 1-1.342.87c-.533.204-1.131.307-1.796.307Zm10.348 0c-.92 0-1.713-.218-2.377-.652-.665-.435-1.176-1.034-1.534-1.797-.358-.762-.537-1.634-.537-2.614 0-.997.183-1.877.549-2.64.371-.767.887-1.366 1.547-1.796.665-.435 1.441-.652 2.327-.652.69 0 1.312.128 1.866.384a3.572 3.572 0 0 1 1.362 1.073c.354.461.573.998.658 1.611h-1.508c-.115-.447-.371-.844-.767-1.189-.392-.349-.921-.524-1.586-.524-.588 0-1.103.153-1.546.46-.439.303-.782.731-1.03 1.285-.242.55-.364 1.195-.364 1.937 0 .758.119 1.419.358 1.981.243.563.584 1 1.023 1.311.443.311.963.466 1.559.466a2.7 2.7 0 0 0 1.068-.204c.32-.136.59-.333.812-.588.221-.256.379-.563.473-.921h1.508a3.484 3.484 0 0 1-1.956 2.666c-.545.268-1.18.403-1.905.403Zm10.336-10.023v1.278h-5.088v-1.278h5.088Zm-3.605-2.352h1.509v9.358c0 .426.062.745.185.958.128.209.29.35.486.422.2.068.411.102.633.102.166 0 .302-.008.409-.025l.256-.051.306 1.355a3.064 3.064 0 0 1-.428.115 3.126 3.126 0 0 1-.697.064c-.426 0-.843-.092-1.252-.275a2.482 2.482 0 0 1-1.01-.837c-.265-.375-.397-.848-.397-1.419v-9.767Zm9.758 12.375c-.887 0-1.664-.211-2.333-.633-.665-.422-1.185-1.012-1.56-1.771-.371-.758-.556-1.645-.556-2.659 0-1.023.185-1.915.556-2.678.375-.763.895-1.355 1.56-1.777.669-.422 1.446-.633 2.333-.633.886 0 1.662.211 2.326.633.67.422 1.189 1.014 1.56 1.777.375.763.563 1.655.563 2.678 0 1.014-.188 1.901-.563 2.659-.371.759-.89 1.349-1.56 1.771-.664.422-1.44.633-2.326.633Zm0-1.356c.673 0 1.227-.172 1.662-.517.434-.345.756-.799.965-1.362a5.206 5.206 0 0 0 .313-1.828c0-.656-.104-1.268-.313-1.834a3.102 3.102 0 0 0-.965-1.375c-.435-.349-.989-.524-1.662-.524-.674 0-1.228.175-1.662.524-.435.35-.757.808-.965 1.375a5.257 5.257 0 0 0-.314 1.834c0 .656.105 1.266.314 1.828.208.563.53 1.017.965 1.362.434.345.988.517 1.662.517Zm6.751 1.151v-9.818h1.458v1.483h.102c.179-.486.503-.88.972-1.183a2.862 2.862 0 0 1 1.585-.454c.111 0 .249.003.415.007.167.004.292.01.377.019v1.534a4.176 4.176 0 0 0-.351-.057 3.445 3.445 0 0 0-.569-.045c-.477 0-.903.1-1.278.3a2.274 2.274 0 0 0-.883.818 2.21 2.21 0 0 0-.319 1.183V872h-1.509Zm-99.183 15.455c0-1.611.208-3.092.626-4.443a13.86 13.86 0 0 1 1.803-3.739h1.33a8.231 8.231 0 0 0-.864 1.559 15.19 15.19 0 0 0-.697 2.027c-.2.733-.358 1.491-.473 2.275-.11.784-.166 1.558-.166 2.321 0 1.014.098 2.043.294 3.087a17.75 17.75 0 0 0 .793 2.908c.332.895.703 1.624 1.112 2.186h-1.33a13.866 13.866 0 0 1-1.802-3.733c-.418-1.355-.626-2.838-.626-4.448ZM66.44 894v-13.091h1.585v6.494h.153l5.881-6.494h2.071l-5.497 5.906L76.13 894h-1.918l-4.55-6.085-1.637 1.841V894H66.44Zm13.046-5.906V894h-1.509v-9.818h1.458v1.534h.128c.23-.499.58-.899 1.048-1.202.469-.307 1.074-.46 1.815-.46.665 0 1.247.136 1.745.409.499.269.887.678 1.164 1.227.277.546.415 1.236.415 2.071V894h-1.508v-6.136c0-.772-.2-1.373-.601-1.803-.4-.435-.95-.652-1.65-.652a2.63 2.63 0 0 0-1.29.313 2.245 2.245 0 0 0-.89.914c-.216.401-.325.887-.325 1.458Zm13.01 6.111c-.887 0-1.665-.211-2.334-.633-.665-.422-1.184-1.012-1.56-1.771-.37-.758-.556-1.645-.556-2.659 0-1.023.186-1.915.556-2.678.376-.763.895-1.355 1.56-1.777.67-.422 1.447-.633 2.333-.633.887 0 1.662.211 2.327.633.669.422 1.189 1.014 1.56 1.777.375.763.562 1.655.562 2.678 0 1.014-.187 1.901-.562 2.659-.371.759-.891 1.349-1.56 1.771-.665.422-1.44.633-2.327.633Zm0-1.356c.673 0 1.227-.172 1.661-.517a3.05 3.05 0 0 0 .965-1.362 5.211 5.211 0 0 0 .314-1.828 5.26 5.26 0 0 0-.314-1.834 3.096 3.096 0 0 0-.965-1.375c-.434-.349-.988-.524-1.662-.524-.673 0-1.227.175-1.662.524-.434.35-.756.808-.965 1.375a5.26 5.26 0 0 0-.313 1.834c0 .656.104 1.266.313 1.828a3.05 3.05 0 0 0 .965 1.362c.435.345.989.517 1.662.517Zm8.641 1.151-2.991-9.818h1.585l2.122 7.517h.102l2.097-7.517h1.611l2.071 7.491h.102l2.122-7.491h1.586L108.553 894h-1.483l-2.148-7.543h-.153L102.621 894h-1.483Zm13.909-5.906V894h-1.508v-13.091h1.508v4.807h.128c.23-.507.576-.91 1.036-1.208.464-.303 1.082-.454 1.853-.454.669 0 1.255.134 1.758.403.503.264.893.671 1.17 1.221.281.545.422 1.24.422 2.083V894h-1.509v-6.136c0-.78-.202-1.383-.607-1.809-.4-.431-.957-.646-1.668-.646-.495 0-.938.104-1.33.313a2.292 2.292 0 0 0-.92.914c-.222.401-.333.887-.333 1.458Zm13.243 6.111c-.946 0-1.762-.209-2.448-.627a4.207 4.207 0 0 1-1.579-1.764c-.366-.759-.55-1.641-.55-2.646 0-1.006.184-1.892.55-2.659.371-.772.887-1.373 1.547-1.803.665-.435 1.44-.652 2.327-.652.511 0 1.016.085 1.515.256.498.17.952.447 1.361.831.409.379.735.882.978 1.508.243.627.364 1.398.364 2.314v.639h-7.568v-1.304h6.034c0-.554-.11-1.048-.332-1.483a2.508 2.508 0 0 0-.933-1.029c-.401-.251-.874-.377-1.419-.377-.601 0-1.121.149-1.56.448a2.934 2.934 0 0 0-1.003 1.15c-.235.473-.352.98-.352 1.521v.87c0 .741.128 1.37.383 1.885.26.512.62.902 1.081 1.17.46.264.995.396 1.604.396.396 0 .754-.055 1.074-.166a2.29 2.29 0 0 0 .837-.511c.235-.23.416-.516.544-.857l1.457.409a3.224 3.224 0 0 1-.773 1.304c-.363.371-.81.661-1.343.87-.532.204-1.131.307-1.796.307Zm6.36-.205v-9.818h1.458v1.483h.102c.179-.486.503-.88.971-1.183a2.868 2.868 0 0 1 1.586-.454c.11 0 .249.003.415.007.166.004.292.01.377.019v1.534a4.176 4.176 0 0 0-.351-.057 3.445 3.445 0 0 0-.569-.045c-.477 0-.904.1-1.279.3-.37.196-.664.469-.882.818a2.21 2.21 0 0 0-.319 1.183V894h-1.509Zm10.515.205c-.946 0-1.762-.209-2.448-.627a4.207 4.207 0 0 1-1.579-1.764c-.366-.759-.55-1.641-.55-2.646 0-1.006.184-1.892.55-2.659.371-.772.887-1.373 1.547-1.803.665-.435 1.44-.652 2.327-.652.511 0 1.016.085 1.515.256.498.17.952.447 1.361.831.409.379.735.882.978 1.508.243.627.364 1.398.364 2.314v.639h-7.568v-1.304h6.034c0-.554-.11-1.048-.332-1.483a2.508 2.508 0 0 0-.933-1.029c-.401-.251-.874-.377-1.419-.377-.601 0-1.121.149-1.56.448a2.934 2.934 0 0 0-1.003 1.15c-.235.473-.352.98-.352 1.521v.87c0 .741.128 1.37.383 1.885.26.512.62.902 1.081 1.17.46.264.995.396 1.604.396.396 0 .754-.055 1.074-.166a2.29 2.29 0 0 0 .837-.511c.235-.23.416-.516.544-.857l1.457.409a3.224 3.224 0 0 1-.773 1.304c-.363.371-.81.661-1.343.87-.532.204-1.131.307-1.796.307Zm9.582-5.728c0 1.611-.211 3.094-.633 4.449a13.745 13.745 0 0 1-1.796 3.733h-1.33a7.99 7.99 0 0 0 .857-1.56c.268-.613.503-1.287.703-2.019.2-.738.356-1.498.467-2.282.115-.789.172-1.562.172-2.321 0-1.014-.098-2.043-.294-3.087a17.664 17.664 0 0 0-.793-2.908c-.332-.895-.703-1.624-1.112-2.187h1.33a13.73 13.73 0 0 1 1.796 3.74c.422 1.351.633 2.831.633 4.442ZM213.193 799v-1.994l4.66-4.315a18 18 0 0 0 .997-1.035c.273-.307.479-.608.62-.902.141-.298.211-.62.211-.965 0-.383-.088-.714-.262-.991a1.725 1.725 0 0 0-.716-.645 2.239 2.239 0 0 0-1.029-.23c-.401 0-.75.081-1.049.242a1.68 1.68 0 0 0-.69.697c-.162.303-.243.663-.243 1.08h-2.627c0-.856.194-1.6.582-2.23a3.883 3.883 0 0 1 1.63-1.464c.699-.345 1.504-.518 2.416-.518.937 0 1.753.166 2.448.499.699.328 1.242.784 1.63 1.368.388.583.582 1.252.582 2.007 0 .494-.098.982-.294 1.463-.192.482-.535 1.017-1.029 1.605-.495.584-1.191 1.285-2.091 2.103l-1.911 1.873v.089h5.497V799h-9.332Zm16.471.288c-1.1-.005-2.046-.275-2.838-.812-.789-.537-1.396-1.315-1.822-2.333-.422-1.019-.631-2.244-.627-3.676 0-1.427.211-2.644.633-3.65.426-1.005 1.034-1.77 1.822-2.294.793-.529 1.736-.793 2.832-.793 1.095 0 2.037.264 2.825.793.793.528 1.402 1.295 1.828 2.301.426 1.001.637 2.216.633 3.643 0 1.436-.213 2.664-.639 3.682-.422 1.019-1.027 1.796-1.816 2.333-.788.537-1.732.806-2.831.806Zm0-2.295c.75 0 1.348-.377 1.796-1.131.447-.755.669-1.886.665-3.395 0-.993-.103-1.819-.307-2.48-.201-.66-.486-1.157-.857-1.489a1.864 1.864 0 0 0-1.297-.499c-.746 0-1.343.373-1.79 1.119-.448.746-.673 1.862-.678 3.349 0 1.006.1 1.845.301 2.519.204.669.492 1.172.863 1.508.37.333.805.499 1.304.499Zm12.955-11.084V799h-2.768v-10.464h-.077l-2.998 1.879v-2.454l3.241-2.052h2.602Zm2.913 10.79v-2.18l5.465-8.61h1.879v3.017h-1.112l-3.445 5.453v.102h7.766v2.218h-10.553Zm6.283 2.301v-2.966l.051-.965v-9.16h2.596V799h-2.647Zm-42.405 22v-13.091h4.424c1.022 0 1.862.175 2.518.524.656.345 1.142.821 1.458 1.426.315.605.473 1.293.473 2.064 0 .772-.158 1.456-.473 2.052-.316.597-.799 1.065-1.451 1.406-.652.337-1.486.505-2.5.505h-3.579v-1.431h3.528c.699 0 1.262-.103 1.688-.307.43-.205.741-.495.933-.87.196-.379.294-.831.294-1.355s-.098-.982-.294-1.374c-.196-.392-.509-.695-.94-.908-.43-.217-.999-.326-1.706-.326h-2.787V821h-1.586Zm6.162-5.881 3.222 5.881h-1.841l-3.17-5.881h1.789Zm9.031 6.086c-.887 0-1.664-.211-2.333-.633-.665-.422-1.185-1.012-1.56-1.771-.371-.758-.556-1.645-.556-2.659 0-1.023.185-1.915.556-2.678.375-.763.895-1.355 1.56-1.777.669-.422 1.446-.633 2.333-.633.886 0 1.662.211 2.326.633.669.422 1.189 1.014 1.56 1.777.375.763.563 1.655.563 2.678 0 1.014-.188 1.901-.563 2.659-.371.759-.891 1.349-1.56 1.771-.664.422-1.44.633-2.326.633Zm0-1.356c.673 0 1.227-.172 1.662-.517.434-.345.756-.799.965-1.362a5.206 5.206 0 0 0 .313-1.828c0-.656-.104-1.268-.313-1.834a3.102 3.102 0 0 0-.965-1.375c-.435-.349-.989-.524-1.662-.524-.674 0-1.228.175-1.662.524-.435.35-.757.808-.965 1.375a5.257 5.257 0 0 0-.314 1.834c0 .656.105 1.266.314 1.828.208.563.53 1.017.965 1.362.434.345.988.517 1.662.517Zm8.26-4.755V821h-1.509v-9.818h1.458v1.534h.128c.23-.499.579-.899 1.048-1.202.469-.307 1.074-.46 1.815-.46.665 0 1.247.136 1.745.409.499.269.887.678 1.164 1.227.277.546.415 1.236.415 2.071V821h-1.508v-6.136c0-.772-.201-1.373-.601-1.803-.401-.435-.951-.652-1.649-.652-.482 0-.912.104-1.292.313a2.242 2.242 0 0 0-.888.914c-.217.401-.326.887-.326 1.458Zm11.91 6.136a3.996 3.996 0 0 1-1.694-.351 2.906 2.906 0 0 1-1.208-1.03c-.298-.451-.448-.997-.448-1.636 0-.562.111-1.018.333-1.368.221-.354.518-.631.888-.831.371-.2.78-.349 1.228-.447.451-.103.905-.183 1.361-.243.597-.077 1.08-.134 1.451-.173.375-.042.648-.113.818-.211.175-.098.262-.268.262-.511v-.051c0-.631-.172-1.121-.517-1.47-.341-.35-.859-.524-1.554-.524-.72 0-1.285.157-1.694.473-.409.315-.696.652-.863 1.009l-1.431-.511c.255-.596.596-1.061 1.022-1.393.431-.337.9-.571 1.407-.703a5.808 5.808 0 0 1 1.508-.205c.315 0 .678.038 1.087.115.413.072.812.224 1.195.454.388.23.71.577.965 1.042.256.464.384 1.086.384 1.866V821h-1.509v-1.33h-.076a2.638 2.638 0 0 1-.512.684c-.238.243-.556.45-.952.62-.396.171-.88.256-1.451.256Zm.23-1.355c.597 0 1.099-.117 1.508-.352a2.387 2.387 0 0 0 1.253-2.077v-1.381c-.064.077-.204.147-.422.211-.213.06-.46.113-.741.16a31.625 31.625 0 0 1-1.445.192 5.755 5.755 0 0 0-1.099.249 1.894 1.894 0 0 0-.818.505c-.205.222-.307.524-.307.908 0 .524.194.92.582 1.189.392.264.888.396 1.489.396Zm8.532-4.781V821h-1.509v-9.818h1.458v1.534h.127a2.81 2.81 0 0 1 1.049-1.202c.468-.307 1.074-.46 1.815-.46.665 0 1.247.136 1.745.409.499.269.886.678 1.163 1.227.277.546.416 1.236.416 2.071V821h-1.509v-6.136c0-.772-.2-1.373-.6-1.803-.401-.435-.951-.652-1.65-.652a2.63 2.63 0 0 0-1.291.313 2.242 2.242 0 0 0-.888.914c-.218.401-.326.887-.326 1.458ZM167.342 1170v-1.99l4.66-4.32c.396-.38.729-.73.997-1.03.273-.31.48-.61.62-.91.141-.29.211-.62.211-.96 0-.38-.087-.71-.262-.99-.175-.28-.413-.5-.716-.65a2.284 2.284 0 0 0-1.029-.23c-.4 0-.75.08-1.048.25-.298.16-.529.39-.69.69-.162.3-.243.66-.243 1.08h-2.628c0-.85.194-1.6.582-2.23.388-.63.931-1.12 1.63-1.46.699-.35 1.504-.52 2.416-.52.938 0 1.754.17 2.448.5.699.33 1.243.78 1.63 1.37.388.58.582 1.25.582 2 0 .5-.098.99-.294 1.47-.192.48-.535 1.01-1.029 1.6-.494.59-1.191 1.29-2.09 2.1l-1.911 1.88v.09h5.497v2.26h-9.333Zm16.471.29c-1.099-.01-2.045-.28-2.838-.81-.788-.54-1.396-1.32-1.822-2.34-.422-1.02-.63-2.24-.626-3.67 0-1.43.211-2.65.633-3.65.426-1.01 1.033-1.77 1.821-2.3.793-.53 1.737-.79 2.832-.79 1.095 0 2.037.26 2.825.79.793.53 1.402 1.3 1.828 2.3.427 1.01.638 2.22.633 3.65 0 1.43-.213 2.66-.639 3.68-.422 1.02-1.027 1.8-1.815 2.33-.789.54-1.733.81-2.832.81Zm0-2.3c.75 0 1.349-.37 1.796-1.13.448-.75.669-1.88.665-3.39 0-1-.102-1.82-.307-2.48-.2-.66-.486-1.16-.856-1.49-.367-.33-.799-.5-1.298-.5-.746 0-1.342.37-1.79 1.12-.447.74-.673 1.86-.677 3.35 0 1 .1 1.84.3 2.52.205.66.492 1.17.863 1.5.371.34.805.5 1.304.5Zm12.955-11.08V1170H194v-10.46h-.076l-2.998 1.88v-2.46l3.241-2.05h2.601Zm7.995 13.27c-.984 0-1.86-.16-2.627-.48-.763-.32-1.362-.77-1.796-1.32a3.01 3.01 0 0 1-.652-1.9c0-.55.123-1.05.37-1.5.252-.46.593-.85 1.023-1.15.431-.31.912-.5 1.445-.59v-.09a2.863 2.863 0 0 1-1.701-1.01 2.929 2.929 0 0 1-.652-1.89c0-.68.199-1.28.595-1.81.396-.53.94-.95 1.63-1.25.695-.31 1.483-.46 2.365-.46.882 0 1.668.15 2.359.46.694.31 1.24.73 1.636 1.26.396.53.597 1.13.601 1.8a2.934 2.934 0 0 1-.665 1.89c-.439.53-1.001.87-1.687 1.01v.09c.524.09.999.28 1.425.59.43.3.771.69 1.023 1.15.255.45.385.95.39 1.5a3.046 3.046 0 0 1-.659 1.9c-.434.55-1.035 1-1.802 1.32-.763.32-1.637.48-2.621.48Zm0-2.03c.439 0 .822-.08 1.151-.24.328-.16.583-.38.767-.66.187-.29.281-.62.281-.99 0-.38-.096-.71-.288-1a1.89 1.89 0 0 0-.78-.69 2.425 2.425 0 0 0-1.131-.26c-.422 0-.799.09-1.131.26a1.88 1.88 0 0 0-.787.69c-.187.29-.281.62-.281 1 0 .37.092.7.275.99.183.28.441.5.773.66.333.16.716.24 1.151.24Zm0-5.85c.366 0 .692-.08.978-.23.285-.15.509-.35.671-.62.162-.26.243-.57.243-.91a1.61 1.61 0 0 0-.908-1.5 2.06 2.06 0 0 0-.984-.23c-.371 0-.699.08-.984.23-.286.14-.51.34-.672.6-.157.26-.236.56-.236.9 0 .34.081.65.243.91.162.27.385.47.671.62.285.15.611.23.978.23Zm-46.894 18.02v-1.41h9.819v1.41h-4.117V1192h-1.585v-11.68h-4.117Zm13.569 5.77v5.91h-1.508v-13.09h1.508v4.81h.128c.23-.51.575-.91 1.035-1.21.465-.3 1.083-.46 1.854-.46.669 0 1.255.14 1.758.41.503.26.893.67 1.17 1.22.281.54.422 1.24.422 2.08v6.24h-1.509v-6.14c0-.78-.202-1.38-.607-1.81-.401-.43-.957-.64-1.669-.64-.494 0-.937.1-1.329.31-.388.21-.695.52-.921.92-.221.4-.332.88-.332 1.45Zm12.015 6.14c-.622 0-1.186-.12-1.693-.35-.508-.24-.91-.58-1.209-1.03-.298-.45-.447-1-.447-1.64 0-.56.111-1.02.332-1.36.222-.36.518-.64.889-.84.371-.2.78-.35 1.227-.44.452-.11.906-.19 1.362-.25.596-.07 1.08-.13 1.451-.17.375-.04.647-.11.818-.21.175-.1.262-.27.262-.51v-.05c0-.63-.173-1.12-.518-1.47-.341-.35-.858-.53-1.553-.53-.72 0-1.285.16-1.694.48-.409.31-.697.65-.863 1.01l-1.432-.51c.256-.6.597-1.07 1.023-1.4.43-.34.899-.57 1.406-.7a5.7 5.7 0 0 1 1.509-.21c.315 0 .677.04 1.086.12.414.07.812.22 1.196.45.388.23.709.58.965 1.04.256.47.383 1.09.383 1.87v6.47h-1.508v-1.33h-.077a2.63 2.63 0 0 1-.511.68c-.239.25-.556.45-.953.62-.396.17-.879.26-1.451.26Zm.231-1.35c.596 0 1.099-.12 1.508-.36.413-.23.725-.53.933-.9.213-.37.32-.76.32-1.17v-1.38c-.064.07-.205.14-.422.21-.213.06-.46.11-.741.16-.277.04-.548.08-.812.11-.26.03-.471.06-.633.08-.392.05-.759.13-1.099.25-.337.11-.61.28-.819.5-.204.22-.306.53-.306.91 0 .52.193.92.581 1.19.392.26.889.4 1.49.4Zm8.531-4.79v5.91h-1.508v-9.82h1.457v1.54h.128c.23-.5.58-.9 1.048-1.21.469-.3 1.074-.46 1.816-.46.664 0 1.246.14 1.745.41.498.27.886.68 1.163 1.23.277.55.416 1.24.416 2.07v6.24h-1.509v-6.14c0-.77-.2-1.37-.601-1.8-.4-.43-.95-.65-1.649-.65-.481 0-.912.1-1.291.31-.375.21-.671.52-.889.92-.217.4-.326.88-.326 1.45Zm13.01 6.11c-.887 0-1.664-.21-2.333-.63-.665-.42-1.185-1.01-1.56-1.77-.371-.76-.556-1.64-.556-2.66 0-1.02.185-1.91.556-2.68.375-.76.895-1.35 1.56-1.77.669-.43 1.446-.64 2.333-.64.886 0 1.662.21 2.326.64.67.42 1.189 1.01 1.56 1.77.375.77.563 1.66.563 2.68 0 1.02-.188 1.9-.563 2.66-.371.76-.89 1.35-1.56 1.77-.664.42-1.44.63-2.326.63Zm0-1.35c.673 0 1.227-.17 1.662-.52.434-.34.756-.8.965-1.36.209-.56.313-1.17.313-1.83 0-.65-.104-1.27-.313-1.83a3.101 3.101 0 0 0-.965-1.38c-.435-.35-.989-.52-1.662-.52-.674 0-1.227.17-1.662.52-.435.35-.757.81-.965 1.38a5.234 5.234 0 0 0-.314 1.83c0 .66.105 1.27.314 1.83.208.56.53 1.02.965 1.36.435.35.988.52 1.662.52Zm13.706-6.47-1.355.38a2.518 2.518 0 0 0-.377-.65c-.162-.22-.384-.4-.665-.54s-.641-.21-1.08-.21c-.601 0-1.102.14-1.502.41-.397.28-.595.62-.595 1.05 0 .37.136.67.409.88.273.22.699.4 1.279.55l1.457.36c.878.21 1.532.53 1.962.97.431.44.646 1 .646 1.68 0 .57-.162 1.07-.486 1.51-.319.45-.767.8-1.342 1.05-.576.26-1.245.38-2.007.38-1.002 0-1.831-.21-2.487-.65-.656-.43-1.072-1.07-1.246-1.9l1.432-.36c.136.53.394.92.773 1.19.384.26.884.4 1.502.4.703 0 1.261-.15 1.675-.45.417-.31.626-.67.626-1.09 0-.34-.119-.63-.358-.86-.238-.23-.605-.4-1.099-.52l-1.637-.38c-.899-.22-1.559-.55-1.981-.99-.418-.46-.626-1.02-.626-1.7 0-.55.155-1.04.466-1.47.316-.42.744-.76 1.285-1a4.557 4.557 0 0 1 1.854-.37c.971 0 1.734.22 2.288.64.558.43.955.99 1.189 1.69ZM98.293 1214h-1.662l4.807-13.09h1.636l4.807 13.09h-1.662l-3.912-11.02h-.102L98.293 1214Zm.614-5.11h6.699v1.4h-6.7v-1.4Zm17.607-4.71-3.631 9.82h-1.534l-3.631-9.82h1.636l2.711 7.83h.102l2.71-7.83h1.637Zm5.756 10.02c-.946 0-1.762-.2-2.449-.62a4.174 4.174 0 0 1-1.578-1.77c-.367-.75-.55-1.64-.55-2.64 0-1.01.183-1.89.55-2.66.37-.77.886-1.37 1.547-1.8.664-.44 1.44-.66 2.326-.66.512 0 1.017.09 1.515.26.499.17.953.45 1.362.83.409.38.735.88.978 1.51s.364 1.4.364 2.31v.64h-7.568v-1.3h6.034c0-.56-.111-1.05-.333-1.48a2.462 2.462 0 0 0-.933-1.03c-.4-.26-.873-.38-1.419-.38-.601 0-1.121.15-1.559.45-.435.29-.77.67-1.004 1.15-.234.47-.352.98-.352 1.52v.87c0 .74.128 1.37.384 1.88.26.51.62.9 1.08 1.17.46.27.995.4 1.605.4.396 0 .754-.06 1.073-.17.324-.11.603-.28.838-.51.234-.23.415-.51.543-.85l1.458.4c-.154.5-.412.93-.774 1.31a3.8 3.8 0 0 1-1.342.87c-.533.2-1.132.3-1.796.3Zm7.868-6.11v5.91h-1.508v-9.82h1.457v1.54h.128c.23-.5.579-.9 1.048-1.21.469-.3 1.074-.46 1.816-.46.664 0 1.246.14 1.745.41.498.27.886.68 1.163 1.23.277.55.415 1.24.415 2.07v6.24h-1.508v-6.14c0-.77-.2-1.37-.601-1.8-.401-.43-.95-.65-1.649-.65-.482 0-.912.1-1.291.31-.375.21-.671.52-.889.92-.217.4-.326.88-.326 1.45Zm12.984 9.8c-.729 0-1.355-.1-1.879-.28-.524-.19-.961-.43-1.311-.73a4.03 4.03 0 0 1-.824-.96l1.202-.85c.136.18.309.39.517.62.209.23.495.43.857.6.366.18.846.27 1.438.27.793 0 1.447-.19 1.962-.58.516-.38.774-.98.774-1.8v-2h-.128c-.111.18-.268.41-.473.67-.2.26-.49.49-.869.7-.375.2-.882.3-1.522.3-.792 0-1.504-.19-2.135-.57-.626-.37-1.122-.92-1.489-1.63-.362-.72-.543-1.59-.543-2.61 0-1.01.177-1.88.53-2.63.354-.75.846-1.33 1.477-1.74.631-.41 1.359-.62 2.186-.62.639 0 1.146.11 1.521.32.38.21.669.45.87.72.204.26.362.48.473.65h.153v-1.56h1.457v10.1c0 .84-.191 1.53-.575 2.06-.379.53-.891.92-1.534 1.17-.639.25-1.351.38-2.135.38Zm-.051-5.4c.605 0 1.116-.14 1.534-.41.418-.28.735-.68.952-1.2.218-.52.326-1.14.326-1.87 0-.7-.106-1.33-.319-1.87-.213-.54-.529-.96-.946-1.27-.418-.31-.933-.46-1.547-.46-.639 0-1.172.16-1.598.48-.422.33-.739.76-.952 1.31a5.005 5.005 0 0 0-.314 1.81c0 .69.107 1.29.32 1.81.217.52.537.93.959 1.23.426.29.954.44 1.585.44Zm11.173 1.71c-.946 0-1.762-.2-2.448-.62-.682-.42-1.208-1.01-1.579-1.77-.366-.75-.549-1.64-.549-2.64 0-1.01.183-1.89.549-2.66.371-.77.887-1.37 1.547-1.8.665-.44 1.44-.66 2.327-.66.511 0 1.016.09 1.515.26.498.17.952.45 1.361.83.409.38.735.88.978 1.51s.365 1.4.365 2.31v.64h-7.569v-1.3h6.034c0-.56-.11-1.05-.332-1.48a2.462 2.462 0 0 0-.933-1.03c-.401-.26-.874-.38-1.419-.38-.601 0-1.121.15-1.56.45-.434.29-.769.67-1.003 1.15-.235.47-.352.98-.352 1.52v.87c0 .74.128 1.37.384 1.88.26.51.62.9 1.08 1.17.46.27.995.4 1.604.4.397 0 .754-.06 1.074-.17.324-.11.603-.28.837-.51.235-.23.416-.51.544-.85l1.457.4c-.153.5-.411.93-.773 1.31-.362.37-.81.66-1.343.87-.532.2-1.131.3-1.796.3Zm6.36-.2v-9.82h1.458v1.48h.102c.179-.48.503-.88.972-1.18.468-.3.997-.45 1.585-.45h.415c.166.01.292.02.377.02v1.54c-.051-.01-.168-.03-.351-.06a3.458 3.458 0 0 0-.569-.04c-.477 0-.903.1-1.278.3-.371.19-.665.46-.883.81-.213.35-.319.74-.319 1.19v6.21h-1.509Zm13.652-7.62-1.355.38a2.518 2.518 0 0 0-.377-.65c-.162-.22-.384-.4-.665-.54s-.641-.21-1.08-.21c-.601 0-1.102.14-1.502.41-.397.28-.595.62-.595 1.05 0 .37.137.67.409.88.273.22.699.4 1.279.55l1.457.36c.878.21 1.532.53 1.963.97.43.44.645 1 .645 1.68 0 .57-.162 1.07-.486 1.51-.319.45-.767.8-1.342 1.05-.575.26-1.244.38-2.007.38-1.002 0-1.83-.21-2.487-.65-.656-.43-1.071-1.07-1.246-1.9l1.432-.36c.136.53.394.92.773 1.19.384.26.884.4 1.502.4.703 0 1.262-.15 1.675-.45.418-.31.626-.67.626-1.09 0-.34-.119-.63-.358-.86-.238-.23-.605-.4-1.099-.52l-1.636-.38c-.899-.22-1.56-.55-1.982-.99-.417-.46-.626-1.02-.626-1.7 0-.55.155-1.04.466-1.47.316-.42.744-.76 1.285-1a4.564 4.564 0 0 1 1.854-.37c.971 0 1.734.22 2.288.64.558.43.955.99 1.189 1.69Zm3.549 7.72a1.09 1.09 0 0 1-.811-.34 1.086 1.086 0 0 1-.339-.81c0-.31.113-.58.339-.81.225-.23.496-.34.811-.34.316 0 .586.11.812.34.226.23.339.5.339.81 0 .21-.053.4-.16.58-.102.17-.241.31-.415.42-.171.1-.363.15-.576.15Zm0-7.28a1.13 1.13 0 0 1-.811-.34c-.226-.23-.339-.5-.339-.82 0-.31.113-.58.339-.81.225-.22.496-.34.811-.34.316 0 .586.12.812.34.226.23.339.5.339.81 0 .21-.053.41-.16.58-.102.17-.241.32-.415.42-.171.1-.363.16-.576.16Zm10.71-5.91V1214h-1.585v-13.09h1.585Zm4.483 7.18v5.91h-1.509v-9.82h1.457v1.54h.128c.23-.5.58-.9 1.049-1.21.468-.3 1.073-.46 1.815-.46.665 0 1.246.14 1.745.41.499.27.886.68 1.163 1.23.277.55.416 1.24.416 2.07v6.24h-1.509v-6.14c0-.77-.2-1.37-.601-1.8-.4-.43-.95-.65-1.649-.65-.481 0-.912.1-1.291.31-.375.21-.671.52-.888.92-.218.4-.326.88-.326 1.45Zm13.393-3.91v1.28h-5.293v-1.28h5.293Zm-3.708 9.82v-11.17c0-.57.132-1.03.396-1.41.265-.37.608-.66 1.03-.84.421-.19.867-.28 1.336-.28.37 0 .673.03.907.08.235.06.409.12.524.17l-.434 1.31c-.077-.03-.184-.06-.32-.1a1.862 1.862 0 0 0-.524-.06c-.499 0-.859.13-1.08.38-.218.25-.326.62-.326 1.1V1214h-1.509Zm5.822 0v-9.82h1.508v9.82h-1.508Zm.767-11.45c-.294 0-.548-.1-.761-.3a.998.998 0 0 1-.313-.73c0-.28.104-.52.313-.72.213-.2.467-.3.761-.3s.545.1.754.3c.213.2.32.44.32.72a.99.99 0 0 1-.32.73c-.209.2-.46.3-.754.3Zm5.013 5.54v5.91h-1.509v-9.82h1.458v1.54h.127c.231-.5.58-.9 1.049-1.21.468-.3 1.074-.46 1.815-.46.665 0 1.247.14 1.745.41.499.27.886.68 1.163 1.23.277.55.416 1.24.416 2.07v6.24h-1.509v-6.14c0-.77-.2-1.37-.6-1.8-.401-.43-.951-.65-1.65-.65-.481 0-.912.1-1.291.31-.375.21-.671.52-.888.92-.218.4-.326.88-.326 1.45Zm9.02 5.91v-9.82h1.509v9.82h-1.509Zm.768-11.45c-.295 0-.548-.1-.761-.3a.998.998 0 0 1-.313-.73c0-.28.104-.52.313-.72.213-.2.466-.3.761-.3.294 0 .545.1.754.3.213.2.319.44.319.72a.99.99 0 0 1-.319.73c-.209.2-.46.3-.754.3Zm7.774 1.63v1.28h-5.088v-1.28h5.088Zm-3.605-2.35h1.508v9.36c0 .42.062.74.186.96.127.21.289.35.485.42.201.07.412.1.633.1.166 0 .303-.01.409-.03.107-.02.192-.03.256-.05l.307 1.36a2.15 2.15 0 0 1-.428.11c-.184.05-.416.07-.697.07a2.94 2.94 0 0 1-1.253-.28 2.487 2.487 0 0 1-1.01-.83c-.264-.38-.396-.85-.396-1.42v-9.77Zm6.846 15.85a3.51 3.51 0 0 1-.684-.06 1.748 1.748 0 0 1-.416-.12l.384-1.33c.366.1.69.13.971.11.282-.03.531-.16.748-.38.222-.22.424-.58.607-1.08l.282-.77-3.631-9.87h1.636l2.711 7.83h.102l2.71-7.83h1.636l-4.167 11.25c-.188.51-.42.93-.697 1.26-.277.34-.599.59-.965.75-.362.16-.771.24-1.227.24Zm16.692-3.68-3.579-13.09h1.611l2.735 10.66h.128l2.787-10.66h1.79l2.787 10.66h.128l2.736-10.66h1.61l-3.579 13.09h-1.637l-2.889-10.43h-.102l-2.889 10.43h-1.637Zm16.479.23c-.622 0-1.187-.12-1.694-.35-.507-.24-.91-.58-1.208-1.03-.298-.45-.447-1-.447-1.64 0-.56.111-1.02.332-1.36.222-.36.518-.64.889-.84.37-.2.779-.35 1.227-.44a12.8 12.8 0 0 1 1.361-.25c.597-.07 1.081-.13 1.451-.17.375-.04.648-.11.819-.21.174-.1.262-.27.262-.51v-.05c0-.63-.173-1.12-.518-1.47-.341-.35-.859-.53-1.553-.53-.721 0-1.285.16-1.694.48-.409.31-.697.65-.863 1.01l-1.432-.51c.256-.6.597-1.07 1.023-1.4.43-.34.899-.57 1.406-.7a5.692 5.692 0 0 1 1.508-.21c.316 0 .678.04 1.087.12.413.07.812.22 1.195.45.388.23.71.58.966 1.04.255.47.383 1.09.383 1.87v6.47h-1.508v-1.33h-.077c-.102.21-.273.44-.511.68-.239.25-.557.45-.953.62-.396.17-.88.26-1.451.26Zm.23-1.35c.597 0 1.1-.12 1.509-.36.413-.23.724-.53.933-.9.213-.37.32-.76.32-1.17v-1.38c-.064.07-.205.14-.422.21-.213.06-.46.11-.742.16-.277.04-.547.08-.812.11-.259.03-.47.06-.632.08-.392.05-.759.13-1.1.25a1.94 1.94 0 0 0-.818.5c-.204.22-.307.53-.307.91 0 .52.194.92.582 1.19.392.26.888.4 1.489.4Zm7.024 1.12v-9.82h1.457v1.48h.102c.179-.48.503-.88.972-1.18.469-.3.997-.45 1.585-.45h.415c.167.01.292.02.378.02v1.54c-.052-.01-.169-.03-.352-.06a3.458 3.458 0 0 0-.569-.04c-.477 0-.903.1-1.278.3-.371.19-.665.46-.882.81-.213.35-.32.74-.32 1.19v6.21h-1.508Z"/>
</svg>
