<svg xmlns="http://www.w3.org/2000/svg" width="1216" height="226" fill="none" viewBox="0 0 1216 226">
  <path fill="#75BCF0" d="M56 129h1060v5H56z"/>
  <circle cx="56.5" cy="131.5" r="12" fill="#fff" stroke="#75BCF0" stroke-width="3"/>
  <circle cx="414.5" cy="131.5" r="8" fill="#fff" stroke="#75BCF0" stroke-width="3"/>
  <circle cx="196.5" cy="131.5" r="8" fill="#fff" stroke="#75BCF0" stroke-width="3"/>
  <circle cx="739.5" cy="131.5" r="8" fill="#fff" stroke="#75BCF0" stroke-width="3"/>
  <circle cx="849.5" cy="131.5" r="8" fill="#fff" stroke="#75BCF0" stroke-width="3"/>
  <circle cx="794.5" cy="131.5" r="8" fill="#fff" stroke="#75BCF0" stroke-width="3"/>
  <circle cx="1115.5" cy="131.5" r="12" fill="#fff" stroke="#75BCF0" stroke-width="3"/>
  <path fill="#fff" d="M32.023 75h-1.586a3.294 3.294 0 0 0-1.335-2.071 3.583 3.583 0 0 0-1.094-.537c-.4-.12-.818-.179-1.252-.179-.793 0-1.511.2-2.154.6-.64.401-1.149.992-1.528 1.772-.375.78-.563 1.736-.563 2.87 0 1.133.188 2.09.563 2.87.379.78.888 1.37 1.527 1.77.644.4 1.362.601 2.155.601.434 0 .852-.06 1.252-.179.401-.12.765-.296 1.094-.53a3.356 3.356 0 0 0 1.336-2.077h1.585a5.282 5.282 0 0 1-.652 1.795 4.91 4.91 0 0 1-1.176 1.349 5.148 5.148 0 0 1-1.58.837 5.873 5.873 0 0 1-1.86.288c-1.116 0-2.109-.273-2.978-.818-.87-.546-1.553-1.321-2.052-2.327-.498-1.006-.748-2.199-.748-3.58 0-1.38.25-2.573.748-3.579.499-1.006 1.183-1.781 2.052-2.327.87-.545 1.862-.818 2.979-.818.66 0 1.28.096 1.86.288.584.192 1.11.473 1.579.844.468.366.86.813 1.176 1.342.315.524.532 1.123.652 1.796Zm2.357 9v-9.818h1.457v1.483h.102c.18-.486.503-.88.972-1.183a2.86 2.86 0 0 1 1.585-.454 14.025 14.025 0 0 1 .793.026v1.534a4.466 4.466 0 0 0-.352-.057 3.462 3.462 0 0 0-.569-.045c-.477 0-.903.1-1.278.3-.37.196-.665.469-.882.818a2.21 2.21 0 0 0-.32 1.183V84H34.38Zm10.515.204c-.946 0-1.763-.208-2.449-.626a4.205 4.205 0 0 1-1.578-1.764c-.367-.759-.55-1.64-.55-2.646s.183-1.892.55-2.66c.37-.77.886-1.372 1.546-1.802.665-.435 1.44-.652 2.327-.652.512 0 1.017.085 1.515.256.499.17.953.447 1.362.83.409.38.735.883.978 1.51.243.626.364 1.397.364 2.313v.64h-7.568v-1.305h6.034c0-.554-.11-1.048-.333-1.483a2.504 2.504 0 0 0-.933-1.029c-.4-.251-.873-.377-1.419-.377-.6 0-1.12.15-1.56.447a2.952 2.952 0 0 0-1.003 1.151 3.38 3.38 0 0 0-.352 1.521v.87c0 .741.128 1.37.384 1.885.26.512.62.902 1.08 1.17.46.264.995.396 1.605.396.396 0 .754-.055 1.073-.166.324-.115.603-.285.838-.511a2.33 2.33 0 0 0 .543-.857l1.458.41a3.232 3.232 0 0 1-.774 1.303c-.362.371-.81.66-1.342.87-.533.204-1.132.306-1.796.306Zm9.249.026a3.99 3.99 0 0 1-1.694-.351 2.907 2.907 0 0 1-1.208-1.03c-.298-.451-.447-.997-.447-1.636 0-.562.11-1.018.332-1.368.221-.353.518-.63.888-.83.371-.201.78-.35 1.228-.448.451-.102.905-.183 1.361-.243.597-.077 1.08-.134 1.451-.173.375-.042.648-.113.818-.21.175-.099.262-.27.262-.512v-.051c0-.63-.172-1.12-.517-1.47-.341-.35-.859-.525-1.554-.525-.72 0-1.284.158-1.694.474-.409.315-.696.651-.862 1.01l-1.432-.512c.255-.597.596-1.061 1.023-1.393a3.84 3.84 0 0 1 1.406-.704 5.841 5.841 0 0 1 1.508-.204c.316 0 .678.038 1.087.115a3.48 3.48 0 0 1 1.195.454c.388.23.71.577.965 1.042.256.464.384 1.086.384 1.866V84h-1.509v-1.33h-.076a2.656 2.656 0 0 1-.512.684c-.238.243-.556.45-.952.62-.396.17-.88.256-1.451.256Zm.23-1.355c.597 0 1.1-.117 1.508-.352a2.393 2.393 0 0 0 1.253-2.077v-1.38c-.063.076-.204.146-.421.21a7.08 7.08 0 0 1-.742.16 33.842 33.842 0 0 1-1.445.192 5.772 5.772 0 0 0-1.099.25c-.337.11-.61.278-.818.504-.205.222-.307.524-.307.908 0 .524.194.92.582 1.189.392.264.888.396 1.489.396Zm11.293-8.693v1.278H60.58v-1.278h5.088Zm-3.605-2.353h1.509v9.359c0 .426.061.745.185.958.128.21.29.35.486.422.2.068.411.103.633.103.166 0 .302-.01.409-.026l.255-.051.307 1.355a3.068 3.068 0 0 1-.428.115 3.155 3.155 0 0 1-.697.064c-.426 0-.844-.092-1.253-.275a2.489 2.489 0 0 1-1.01-.837c-.264-.375-.396-.848-.396-1.42V71.83ZM67.936 84v-9.818h1.509V84h-1.509Zm.767-11.454c-.294 0-.547-.1-.76-.301a.965.965 0 0 1-.314-.722c0-.281.105-.522.314-.723.213-.2.466-.3.76-.3s.546.1.755.3c.213.2.32.442.32.723a.956.956 0 0 1-.32.722c-.21.2-.46.3-.755.3Zm7.493 11.658c-.886 0-1.664-.21-2.333-.632-.664-.422-1.184-1.012-1.56-1.77-.37-.76-.555-1.646-.555-2.66 0-1.023.185-1.915.556-2.678.375-.763.895-1.355 1.56-1.777.668-.422 1.446-.633 2.332-.633.887 0 1.662.21 2.327.633.67.422 1.19 1.014 1.56 1.777.375.763.562 1.655.562 2.678 0 1.014-.187 1.9-.562 2.66-.37.758-.89 1.348-1.56 1.77-.665.422-1.44.632-2.326.632Zm0-1.355c.674 0 1.228-.172 1.662-.517.435-.345.757-.8.966-1.362a5.213 5.213 0 0 0 .313-1.828 5.28 5.28 0 0 0-.313-1.834 3.092 3.092 0 0 0-.966-1.375c-.434-.35-.988-.524-1.662-.524-.673 0-1.227.175-1.662.524-.434.35-.756.808-.965 1.374a5.266 5.266 0 0 0-.313 1.835c0 .656.105 1.266.313 1.828.21.563.53 1.017.965 1.362.435.345.99.517 1.662.517Zm8.26-4.755V84h-1.508v-9.818h1.458v1.534h.127c.23-.499.58-.9 1.049-1.202.468-.307 1.074-.46 1.815-.46.665 0 1.246.136 1.745.41.499.267.886.677 1.163 1.226.277.546.416 1.236.416 2.071V84h-1.509v-6.136c0-.772-.2-1.373-.6-1.803-.401-.435-.95-.652-1.65-.652-.481 0-.912.104-1.29.313a2.24 2.24 0 0 0-.89.914c-.217.4-.325.887-.325 1.458Zm-70.739 21.36c0-1.61.21-3.091.627-4.442a13.86 13.86 0 0 1 1.802-3.74h1.33a8.239 8.239 0 0 0-.863 1.56 15.207 15.207 0 0 0-.697 2.027c-.2.733-.358 1.491-.473 2.275a16.57 16.57 0 0 0-.166 2.32c0 1.015.098 2.044.294 3.088a17.75 17.75 0 0 0 .793 2.908c.332.895.703 1.624 1.112 2.186h-1.33a13.869 13.869 0 0 1-1.802-3.733c-.418-1.355-.627-2.838-.627-4.449Zm6.19 6.546V92.91h4.576c.912 0 1.664.157 2.257.472.592.311 1.033.73 1.323 1.26.29.523.434 1.105.434 1.744 0 .563-.1 1.027-.3 1.394a2.336 2.336 0 0 1-.78.87c-.32.212-.667.37-1.042.472v.128c.4.026.803.166 1.208.422.405.256.744.622 1.017 1.099.272.478.409 1.061.409 1.752 0 .656-.15 1.246-.448 1.77-.298.524-.769.94-1.412 1.247-.644.307-1.481.46-2.512.46h-4.73Zm1.585-1.406h3.145c1.035 0 1.77-.201 2.205-.601.439-.405.658-.895.658-1.47 0-.443-.113-.853-.338-1.228a2.453 2.453 0 0 0-.966-.907c-.417-.23-.912-.345-1.483-.345h-3.221v4.551Zm0-5.932h2.94a2.9 2.9 0 0 0 1.291-.281c.388-.188.695-.452.92-.793.23-.34.346-.741.346-1.202 0-.575-.2-1.063-.6-1.463-.401-.405-1.037-.608-1.906-.608h-2.991v4.347ZM31.409 106v-9.818h1.508V106H31.41Zm.767-11.454c-.294 0-.548-.1-.76-.301a.965.965 0 0 1-.314-.722.97.97 0 0 1 .313-.723c.213-.2.467-.3.761-.3s.545.1.754.3c.213.2.32.442.32.723a.956.956 0 0 1-.32.722c-.209.2-.46.3-.754.3Zm7.468 15.34c-.73 0-1.356-.093-1.88-.281-.524-.183-.96-.426-1.31-.729a3.976 3.976 0 0 1-.825-.958l1.202-.844c.136.179.309.383.518.614.209.234.494.436.856.607.367.174.846.262 1.439.262.792 0 1.446-.192 1.962-.575.515-.384.773-.985.773-1.803v-1.994h-.127a8.08 8.08 0 0 1-.474.664c-.2.26-.49.493-.869.697-.375.2-.882.301-1.521.301-.793 0-1.504-.188-2.135-.563-.627-.375-1.123-.92-1.49-1.636-.362-.716-.543-1.586-.543-2.608 0-1.006.177-1.882.53-2.627.355-.75.847-1.33 1.477-1.739.631-.413 1.36-.62 2.186-.62.64 0 1.147.106 1.522.32.379.208.669.447.87.716.204.264.361.481.472.651h.154v-1.56h1.457v10.1c0 .844-.192 1.53-.575 2.058-.38.533-.891.923-1.535 1.17-.639.252-1.35.377-2.134.377Zm-.052-5.395c.605 0 1.117-.138 1.535-.415.417-.277.735-.675.952-1.195.217-.52.326-1.142.326-1.867 0-.707-.107-1.331-.32-1.873-.213-.54-.528-.965-.946-1.272-.417-.306-.933-.46-1.547-.46-.639 0-1.172.162-1.598.486-.422.324-.739.758-.952 1.304a5.039 5.039 0 0 0-.313 1.815c0 .682.106 1.285.32 1.809.217.52.536.929.958 1.227.426.294.955.441 1.585.441ZM51.916 106V92.91h4.577c.912 0 1.664.157 2.256.472.593.311 1.034.73 1.323 1.26.29.523.435 1.105.435 1.744 0 .563-.1 1.027-.3 1.394a2.337 2.337 0 0 1-.78.87c-.32.212-.667.37-1.042.472v.128c.4.026.803.166 1.208.422.405.256.744.622 1.016 1.099.273.478.41 1.061.41 1.752 0 .656-.15 1.246-.448 1.77-.298.524-.77.94-1.413 1.247-.643.307-1.48.46-2.512.46h-4.73Zm1.586-1.406h3.144c1.036 0 1.771-.201 2.206-.601.439-.405.658-.895.658-1.47 0-.443-.113-.853-.339-1.228a2.453 2.453 0 0 0-.965-.907c-.418-.23-.912-.345-1.483-.345h-3.221v4.551Zm0-5.932h2.94a2.9 2.9 0 0 0 1.291-.281c.388-.188.695-.452.92-.793.23-.34.346-.741.346-1.202 0-.575-.2-1.063-.601-1.463-.4-.405-1.036-.608-1.905-.608h-2.992v4.347Zm12.806 7.568a3.995 3.995 0 0 1-1.694-.351 2.908 2.908 0 0 1-1.208-1.03c-.298-.451-.447-.997-.447-1.636 0-.562.11-1.018.332-1.368.222-.354.518-.631.888-.831.371-.2.78-.349 1.228-.447.451-.103.905-.183 1.361-.243.597-.077 1.08-.134 1.451-.173.375-.042.648-.113.818-.21.175-.099.262-.27.262-.512v-.051c0-.63-.172-1.12-.517-1.47-.341-.35-.859-.525-1.554-.525-.72 0-1.284.158-1.694.474-.409.315-.696.651-.862 1.01l-1.432-.512c.255-.597.596-1.061 1.023-1.393a3.84 3.84 0 0 1 1.406-.704 5.84 5.84 0 0 1 1.508-.204c.316 0 .678.038 1.087.115a3.48 3.48 0 0 1 1.195.454c.388.23.71.577.965 1.042.256.464.384 1.086.384 1.866V106h-1.509v-1.33h-.076a2.624 2.624 0 0 1-.512.684c-.238.243-.556.45-.952.62-.396.171-.88.256-1.451.256Zm.23-1.355c.597 0 1.1-.117 1.509-.352a2.39 2.39 0 0 0 1.253-2.077v-1.381c-.064.077-.205.147-.422.211-.213.06-.46.113-.742.16a31.487 31.487 0 0 1-1.444.192 5.755 5.755 0 0 0-1.1.249c-.337.111-.61.279-.818.505-.205.222-.307.524-.307.908 0 .524.194.92.582 1.189.392.264.888.396 1.49.396Zm8.532-4.781V106h-1.51v-9.818h1.458v1.534h.128c.23-.499.58-.9 1.048-1.202.469-.307 1.074-.46 1.815-.46.665 0 1.247.136 1.745.41.499.267.887.677 1.164 1.226.277.546.415 1.236.415 2.071V106h-1.508v-6.136c0-.772-.2-1.373-.601-1.803-.4-.435-.95-.652-1.65-.652-.481 0-.911.104-1.29.313a2.24 2.24 0 0 0-.89.914c-.216.4-.325.887-.325 1.458Zm12.984 9.792c-.729 0-1.355-.093-1.88-.281-.524-.183-.96-.426-1.31-.729a3.977 3.977 0 0 1-.825-.958l1.202-.844c.137.179.31.383.518.614.209.234.494.436.856.607.367.174.846.262 1.439.262.792 0 1.446-.192 1.962-.575.516-.384.773-.985.773-1.803v-1.994h-.127a8.28 8.28 0 0 1-.473.664c-.2.26-.49.493-.87.697-.375.2-.882.301-1.521.301-.793 0-1.504-.188-2.135-.563-.626-.375-1.123-.92-1.49-1.636-.362-.716-.543-1.586-.543-2.608 0-1.006.177-1.882.531-2.627.354-.75.846-1.33 1.477-1.739.63-.413 1.359-.62 2.186-.62.639 0 1.146.106 1.52.32.38.208.67.447.87.716.205.264.362.481.473.651h.154v-1.56h1.457v10.1c0 .844-.192 1.53-.575 2.058-.38.533-.89.923-1.534 1.17-.64.252-1.351.377-2.135.377Zm-.051-5.395c.605 0 1.116-.138 1.534-.415.417-.277.735-.675.952-1.195.217-.52.326-1.142.326-1.867 0-.707-.106-1.331-.32-1.873-.213-.54-.528-.965-.946-1.272-.417-.306-.933-.46-1.546-.46-.64 0-1.172.162-1.598.486-.422.324-.74.758-.953 1.304a5.039 5.039 0 0 0-.313 1.815c0 .682.107 1.285.32 1.809.217.52.537.929.958 1.227.427.294.955.441 1.586.441Zm10.278-4.014c0 1.611-.211 3.094-.633 4.449a13.74 13.74 0 0 1-1.796 3.733h-1.33a8.01 8.01 0 0 0 .857-1.56 14.72 14.72 0 0 0 .703-2.019c.2-.738.356-1.498.467-2.282a16.06 16.06 0 0 0 .172-2.321c0-1.014-.098-2.043-.294-3.087a17.753 17.753 0 0 0-.792-2.909c-.333-.894-.703-1.623-1.113-2.185h1.33a13.716 13.716 0 0 1 1.796 3.739c.422 1.35.633 2.832.633 4.442ZM378.462 48.91V62h-2.767V51.536h-.077l-2.998 1.88V50.96l3.241-2.052h2.601Zm7.951 13.269c-.955 0-1.805-.164-2.551-.492-.741-.333-1.327-.789-1.758-1.368-.426-.584-.645-1.257-.658-2.02h2.787c.017.32.121.6.313.844.196.238.456.424.78.556a2.87 2.87 0 0 0 1.093.198 2.65 2.65 0 0 0 1.119-.224 1.83 1.83 0 0 0 .76-.62c.183-.264.275-.569.275-.914 0-.35-.098-.658-.294-.927-.192-.272-.469-.485-.831-.639-.358-.153-.784-.23-1.278-.23h-1.221V54.31h1.221a2.65 2.65 0 0 0 1.105-.217 1.79 1.79 0 0 0 .755-.6 1.56 1.56 0 0 0 .268-.909 1.575 1.575 0 0 0-.888-1.45 2.12 2.12 0 0 0-.972-.211 2.54 2.54 0 0 0-1.029.204c-.311.132-.56.322-.748.569a1.495 1.495 0 0 0-.3.87h-2.653c.013-.755.228-1.42.646-1.995.417-.575.98-1.025 1.687-1.349.712-.328 1.515-.492 2.41-.492.903 0 1.694.164 2.371.492.678.328 1.204.772 1.579 1.33.379.554.567 1.176.563 1.866.004.733-.224 1.345-.684 1.835-.456.49-1.051.801-1.784.933v.102c.963.124 1.696.458 2.199 1.004.507.541.759 1.219.754 2.033a3.187 3.187 0 0 1-.645 1.987c-.431.58-1.025 1.036-1.783 1.368-.759.333-1.628.499-2.608.499Zm12.159.109c-1.1-.005-2.046-.275-2.838-.812-.789-.537-1.396-1.315-1.822-2.333-.422-1.019-.631-2.244-.626-3.676 0-1.427.211-2.644.632-3.65.427-1.005 1.034-1.77 1.822-2.294.793-.529 1.737-.793 2.832-.793 1.095 0 2.037.264 2.825.793.793.528 1.402 1.295 1.828 2.3.426 1.002.637 2.217.633 3.644 0 1.436-.213 2.664-.639 3.682-.422 1.019-1.027 1.796-1.816 2.333-.788.537-1.732.806-2.831.806Zm0-2.295c.75 0 1.349-.377 1.796-1.132.447-.754.669-1.885.665-3.394 0-.993-.103-1.82-.307-2.48-.2-.66-.486-1.157-.857-1.49a1.867 1.867 0 0 0-1.297-.498c-.746 0-1.343.373-1.79 1.119-.447.746-.673 1.862-.678 3.35 0 1.005.101 1.844.301 2.518.204.669.492 1.172.863 1.508a1.89 1.89 0 0 0 1.304.499Zm7.061-.294v-2.18l5.466-8.61h1.879v3.017h-1.112l-3.446 5.453v.102h7.767v2.218h-10.554ZM411.917 62v-2.966l.051-.965v-9.16h2.595V62h-2.646Zm10.357 0V48.91h5.241c.963 0 1.766.142 2.41.427.643.286 1.127.682 1.451 1.19.324.502.486 1.082.486 1.738 0 .511-.103.96-.307 1.349a2.653 2.653 0 0 1-.844.946 3.459 3.459 0 0 1-1.214.517v.128c.498.022.965.162 1.399.422.439.26.795.624 1.068 1.093.273.465.409 1.019.409 1.662 0 .695-.173 1.315-.518 1.86-.341.541-.846.97-1.515 1.285-.669.315-1.493.473-2.473.473h-5.593Zm2.767-2.263h2.257c.771 0 1.333-.147 1.687-.44.354-.3.531-.695.531-1.19 0-.362-.088-.682-.262-.959a1.781 1.781 0 0 0-.748-.652c-.32-.157-.701-.236-1.144-.236h-2.321v3.477Zm0-5.35h2.052c.379 0 .716-.066 1.01-.198.298-.136.533-.328.703-.575.175-.247.262-.544.262-.889 0-.473-.168-.854-.505-1.144-.332-.29-.805-.435-1.419-.435h-2.103v3.241Zm10.673 7.78c-.421 0-.784-.15-1.086-.448a1.491 1.491 0 0 1-.448-1.087c0-.417.149-.776.448-1.074a1.492 1.492 0 0 1 1.086-.447c.409 0 .767.149 1.074.447.307.298.46.657.46 1.074 0 .281-.072.54-.217.774-.14.23-.326.415-.556.556-.23.136-.484.204-.761.204Zm15.372-8.675h-2.8a2.748 2.748 0 0 0-.313-.965 2.462 2.462 0 0 0-.607-.729 2.681 2.681 0 0 0-.857-.46 3.277 3.277 0 0 0-1.042-.16c-.677 0-1.268.169-1.771.505-.502.333-.892.818-1.169 1.458-.277.635-.416 1.406-.416 2.314 0 .933.139 1.717.416 2.352.281.635.673 1.114 1.176 1.438.503.324 1.084.486 1.745.486.371 0 .714-.05 1.029-.147.32-.098.603-.241.85-.428.247-.192.452-.425.614-.697a2.72 2.72 0 0 0 .345-.933l2.8.012a5.08 5.08 0 0 1-.544 1.739 5.212 5.212 0 0 1-1.157 1.49 5.434 5.434 0 0 1-1.725 1.035c-.665.251-1.417.377-2.257.377-1.167 0-2.212-.264-3.132-.793-.916-.528-1.641-1.293-2.173-2.294-.529-1.002-.793-2.214-.793-3.637 0-1.428.269-2.642.806-3.644.536-1.001 1.265-1.764 2.186-2.288.92-.529 1.956-.793 3.106-.793.759 0 1.462.107 2.11.32a5.35 5.35 0 0 1 1.732.933c.503.405.912.901 1.227 1.49.32.587.524 1.26.614 2.02Zm3.525 8.674c-.422 0-.784-.149-1.087-.447a1.494 1.494 0 0 1-.447-1.087c0-.417.149-.776.447-1.074a1.494 1.494 0 0 1 1.087-.447c.409 0 .767.149 1.074.447.307.298.46.657.46 1.074 0 .281-.072.54-.217.774-.141.23-.326.415-.556.556a1.468 1.468 0 0 1-.761.204Zm-65.807 8.743h1.892l4.449 10.867h.153l4.449-10.867h1.892V84h-1.483v-9.946h-.128L395.938 84h-1.432l-4.091-9.946h-.128V84h-1.483V70.91Zm19.798 13.295c-.887 0-1.664-.21-2.333-.632-.665-.422-1.185-1.012-1.56-1.77-.371-.76-.556-1.646-.556-2.66 0-1.023.185-1.915.556-2.678.375-.763.895-1.355 1.56-1.777.669-.422 1.446-.633 2.333-.633.886 0 1.662.21 2.326.633.669.422 1.189 1.014 1.56 1.777.375.763.563 1.655.563 2.678 0 1.014-.188 1.9-.563 2.66-.371.758-.891 1.348-1.56 1.77-.664.422-1.44.632-2.326.632Zm0-1.355c.673 0 1.227-.172 1.662-.517.434-.345.756-.8.965-1.362a5.208 5.208 0 0 0 .313-1.828c0-.656-.104-1.268-.313-1.834a3.099 3.099 0 0 0-.965-1.375c-.435-.35-.989-.524-1.662-.524-.674 0-1.228.175-1.662.524a3.09 3.09 0 0 0-.965 1.374 5.262 5.262 0 0 0-.314 1.835c0 .656.105 1.266.314 1.828.208.563.53 1.017.965 1.362.434.345.988.517 1.662.517ZM415.353 84v-9.818h1.458v1.483h.102c.179-.486.503-.88.972-1.183a2.858 2.858 0 0 1 1.585-.454 13.964 13.964 0 0 1 .792.026v1.534a4.45 4.45 0 0 0-.351-.057 3.467 3.467 0 0 0-.569-.045c-.477 0-.903.1-1.278.3a2.272 2.272 0 0 0-.883.818 2.21 2.21 0 0 0-.319 1.183V84h-1.509Zm9.587.23a3.991 3.991 0 0 1-1.694-.351 2.906 2.906 0 0 1-1.208-1.03c-.298-.451-.448-.997-.448-1.636 0-.562.111-1.018.333-1.368.221-.353.518-.63.888-.83.371-.201.78-.35 1.228-.448.451-.102.905-.183 1.361-.243.597-.077 1.08-.134 1.451-.173.375-.042.648-.113.818-.21.175-.099.262-.27.262-.512v-.051c0-.63-.172-1.12-.517-1.47-.341-.35-.859-.525-1.554-.525-.72 0-1.285.158-1.694.474-.409.315-.696.651-.863 1.01l-1.431-.512c.255-.597.596-1.061 1.022-1.393.431-.337.9-.571 1.407-.704a5.837 5.837 0 0 1 1.508-.204c.315 0 .678.038 1.087.115.413.073.812.224 1.195.454.388.23.71.577.965 1.042.256.464.384 1.086.384 1.866V84h-1.509v-1.33h-.076a2.67 2.67 0 0 1-.512.684c-.238.243-.556.45-.952.62-.397.17-.88.256-1.451.256Zm.23-1.355c.597 0 1.099-.117 1.508-.352a2.392 2.392 0 0 0 1.253-2.077v-1.38c-.064.076-.204.146-.422.21-.213.06-.46.113-.741.16a34 34 0 0 1-1.445.192 5.77 5.77 0 0 0-1.099.25c-.337.11-.609.278-.818.504-.205.222-.307.524-.307.908 0 .524.194.92.582 1.189.392.264.888.396 1.489.396Zm10.986 5.011c-.728 0-1.355-.093-1.879-.28-.524-.184-.961-.427-1.31-.73a3.98 3.98 0 0 1-.825-.958l1.202-.844c.136.179.309.383.518.614.208.234.494.436.856.607.367.174.846.262 1.438.262.793 0 1.447-.192 1.963-.576.515-.383.773-.984.773-1.802v-1.994h-.128c-.111.179-.268.4-.473.664-.2.26-.49.493-.869.697-.375.2-.882.3-1.521.3-.793 0-1.505-.187-2.135-.562-.627-.375-1.123-.92-1.49-1.636-.362-.716-.543-1.585-.543-2.608 0-1.006.177-1.882.53-2.627.354-.75.846-1.33 1.477-1.739.631-.413 1.359-.62 2.186-.62.639 0 1.146.106 1.521.32.38.208.669.447.87.716.204.264.362.481.473.651h.153v-1.56h1.458v10.1c0 .844-.192 1.53-.576 2.058a3.27 3.27 0 0 1-1.534 1.17c-.639.252-1.351.377-2.135.377Zm-.051-5.394c.605 0 1.117-.139 1.534-.416.418-.277.735-.675.953-1.195.217-.52.326-1.142.326-1.867 0-.707-.107-1.331-.32-1.873-.213-.54-.528-.965-.946-1.272-.418-.306-.933-.46-1.547-.46-.639 0-1.172.162-1.598.486-.422.324-.739.758-.952 1.304a5.036 5.036 0 0 0-.314 1.815c0 .682.107 1.285.32 1.81.217.519.537.928.959 1.226.426.294.954.442 1.585.442ZM332.491 99.454c0-1.61.209-3.091.626-4.442a13.859 13.859 0 0 1 1.803-3.74h1.329a8.312 8.312 0 0 0-.863 1.56 15.194 15.194 0 0 0-.696 2.027 19.045 19.045 0 0 0-.473 2.275 16.539 16.539 0 0 0-.166 2.32c0 1.015.098 2.044.294 3.088.196 1.044.46 2.013.792 2.908.333.895.703 1.624 1.112 2.186h-1.329a13.867 13.867 0 0 1-1.803-3.733c-.417-1.355-.626-2.838-.626-4.449ZM338.68 106V92.91h1.585v5.829h6.98v-5.83h1.586V106h-1.586v-5.855h-6.98V106h-1.585Zm17.108.205c-.886 0-1.664-.211-2.333-.633-.665-.422-1.184-1.012-1.559-1.771-.371-.758-.557-1.645-.557-2.659 0-1.023.186-1.915.557-2.678.375-.763.894-1.355 1.559-1.777.669-.422 1.447-.633 2.333-.633.887 0 1.662.21 2.327.633.669.422 1.189 1.014 1.56 1.777.375.763.562 1.655.562 2.678 0 1.014-.187 1.901-.562 2.659-.371.759-.891 1.349-1.56 1.771-.665.422-1.44.633-2.327.633Zm0-1.356c.674 0 1.228-.172 1.662-.517.435-.345.757-.799.965-1.362a5.207 5.207 0 0 0 .314-1.828c0-.656-.105-1.268-.314-1.834a3.083 3.083 0 0 0-.965-1.375c-.434-.35-.988-.524-1.662-.524-.673 0-1.227.175-1.662.524-.434.35-.756.808-.965 1.374a5.262 5.262 0 0 0-.313 1.835c0 .656.104 1.266.313 1.828.209.563.531 1.017.965 1.362.435.345.989.517 1.662.517Zm12.939-2.863v-5.804h1.509V106h-1.509v-1.662h-.102c-.23.499-.588.923-1.074 1.272-.486.345-1.099.518-1.841.518-.613 0-1.159-.134-1.636-.403-.477-.273-.852-.682-1.125-1.227-.273-.55-.409-1.242-.409-2.078v-6.238h1.508v6.136c0 .716.201 1.287.601 1.713.405.426.921.639 1.547.639a2.56 2.56 0 0 0 1.144-.287c.392-.192.72-.486.985-.882.268-.397.402-.902.402-1.515Zm11.226-3.605-1.355.383a2.517 2.517 0 0 0-.377-.658 1.825 1.825 0 0 0-.665-.537c-.281-.14-.641-.211-1.08-.211-.601 0-1.101.138-1.502.415-.396.273-.594.62-.594 1.042 0 .375.136.672.409.889.272.217.698.398 1.278.543l1.457.358c.878.213 1.532.539 1.963.978.43.435.645.995.645 1.681 0 .563-.162 1.066-.485 1.509-.32.443-.767.792-1.343 1.048-.575.256-1.244.384-2.007.384-1.001 0-1.83-.218-2.486-.652-.657-.435-1.072-1.07-1.247-1.905l1.432-.358c.136.528.394.924.773 1.189.384.264.885.396 1.503.396.703 0 1.261-.149 1.674-.447.418-.303.627-.665.627-1.087 0-.341-.12-.627-.358-.857-.239-.234-.605-.409-1.1-.524l-1.636-.383c-.899-.213-1.56-.544-1.982-.991-.417-.452-.626-1.016-.626-1.694 0-.554.156-1.044.467-1.47.315-.426.743-.76 1.284-1.004.546-.243 1.164-.364 1.854-.364.972 0 1.734.213 2.288.64.559.425.955.988 1.189 1.687Zm6.567 7.824c-.946 0-1.762-.209-2.449-.627a4.205 4.205 0 0 1-1.578-1.764c-.367-.759-.55-1.641-.55-2.646 0-1.006.183-1.892.55-2.66.37-.77.886-1.372 1.547-1.802.664-.435 1.44-.652 2.326-.652.512 0 1.017.085 1.515.256.499.17.953.447 1.362.83.409.38.735.883.978 1.51.243.626.364 1.397.364 2.313v.639h-7.568v-1.304h6.034c0-.554-.111-1.048-.333-1.483a2.5 2.5 0 0 0-.933-1.029c-.4-.251-.873-.377-1.419-.377-.601 0-1.121.15-1.559.447a2.94 2.94 0 0 0-1.004 1.151c-.234.473-.352.98-.352 1.521v.87c0 .741.128 1.37.384 1.885.26.512.62.902 1.08 1.17.46.264.995.396 1.605.396.396 0 .754-.055 1.073-.166.324-.115.603-.285.838-.511a2.33 2.33 0 0 0 .543-.857l1.458.409a3.237 3.237 0 0 1-.774 1.304c-.362.371-.81.661-1.342.87a4.993 4.993 0 0 1-1.796.307Zm10.067 0c-.818 0-1.54-.207-2.167-.62-.626-.418-1.116-1.006-1.47-1.765-.354-.762-.531-1.664-.531-2.704 0-1.031.177-1.926.531-2.684.354-.759.846-1.345 1.477-1.758.63-.413 1.359-.62 2.186-.62.639 0 1.144.106 1.515.32.375.208.66.447.856.716.2.264.356.481.467.651h.128V92.91h1.508V106h-1.457v-1.509h-.179a9.992 9.992 0 0 1-.473.678c-.205.268-.497.509-.876.722-.379.209-.884.314-1.515.314Zm.205-1.356c.605 0 1.116-.157 1.534-.473.417-.319.735-.76.952-1.323.217-.566.326-1.221.326-1.962 0-.733-.106-1.374-.319-1.924-.214-.554-.529-.984-.946-1.291-.418-.311-.934-.467-1.547-.467-.64 0-1.172.164-1.598.492-.422.324-.74.765-.953 1.323-.209.554-.313 1.177-.313 1.867 0 .699.107 1.334.32 1.905.217.566.537 1.018.958 1.355.427.332.955.498 1.586.498Zm12.33 1.151v-9.818h1.508V106h-1.508Zm.767-11.454c-.294 0-.548-.1-.761-.301a.964.964 0 0 1-.313-.722c0-.281.104-.522.313-.723.213-.2.467-.3.761-.3s.545.1.754.3c.213.2.32.442.32.723a.957.957 0 0 1-.32.722c-.209.2-.46.3-.754.3Zm5.013 5.548V106h-1.509v-9.818h1.458v1.534h.128a2.8 2.8 0 0 1 1.048-1.202c.469-.307 1.074-.46 1.815-.46.665 0 1.247.136 1.745.41.499.267.887.677 1.164 1.226.277.546.415 1.236.415 2.071V106h-1.508v-6.136c0-.772-.201-1.373-.601-1.803-.401-.435-.951-.652-1.649-.652-.482 0-.912.104-1.292.313a2.238 2.238 0 0 0-.888.914c-.217.4-.326.887-.326 1.458Zm18.353-3.912v1.278h-5.088v-1.278h5.088Zm-3.605-2.353h1.508v9.359c0 .426.062.745.186.958.128.209.29.35.486.422.2.068.411.102.632.102a2.7 2.7 0 0 0 .41-.025l.255-.051.307 1.355a3.064 3.064 0 0 1-.428.115 3.132 3.132 0 0 1-.697.064c-.426 0-.844-.092-1.253-.275a2.488 2.488 0 0 1-1.01-.837c-.264-.375-.396-.848-.396-1.419V93.83Zm7.594 6.265V106h-1.509V92.91h1.509v4.806h.128c.23-.507.575-.91 1.035-1.208.465-.303 1.082-.454 1.854-.454.669 0 1.255.134 1.758.403.502.264.892.67 1.169 1.22.282.546.422 1.24.422 2.084V106h-1.508v-6.136c0-.78-.203-1.383-.608-1.81-.4-.43-.956-.645-1.668-.645a2.78 2.78 0 0 0-1.329.313 2.29 2.29 0 0 0-.921.914c-.222.4-.332.887-.332 1.458Zm13.242 6.111c-.946 0-1.762-.209-2.448-.627a4.207 4.207 0 0 1-1.579-1.764c-.366-.759-.549-1.641-.549-2.646 0-1.006.183-1.892.549-2.66.371-.77.887-1.372 1.547-1.802.665-.435 1.441-.652 2.327-.652.511 0 1.016.085 1.515.256.499.17.952.447 1.361.83.41.38.736.883.978 1.51.243.626.365 1.397.365 2.313v.639h-7.568v-1.304h6.034c0-.554-.111-1.048-.333-1.483a2.5 2.5 0 0 0-.933-1.029c-.401-.251-.874-.377-1.419-.377-.601 0-1.121.15-1.56.447a2.945 2.945 0 0 0-1.003 1.151c-.235.473-.352.98-.352 1.521v.87c0 .741.128 1.37.384 1.885.26.512.62.902 1.08 1.17.46.264.995.396 1.604.396.397 0 .755-.055 1.074-.166.324-.115.603-.285.838-.511a2.33 2.33 0 0 0 .543-.857l1.457.409a3.224 3.224 0 0 1-.773 1.304c-.362.371-.81.661-1.342.87-.533.204-1.132.307-1.797.307Zm22.673-6.75c0 1.38-.249 2.573-.748 3.579-.498 1.006-1.182 1.781-2.052 2.327-.869.545-1.862.818-2.978.818-1.117 0-2.11-.273-2.979-.818-.869-.546-1.553-1.321-2.052-2.327-.499-1.006-.748-2.199-.748-3.58 0-1.38.249-2.573.748-3.579.499-1.006 1.183-1.781 2.052-2.327.869-.545 1.862-.818 2.979-.818 1.116 0 2.109.273 2.978.818.87.546 1.554 1.321 2.052 2.327.499 1.006.748 2.199.748 3.58Zm-1.534 0c0-1.134-.19-2.09-.569-2.87-.375-.78-.884-1.37-1.528-1.771a3.96 3.96 0 0 0-2.147-.6c-.793 0-1.511.2-2.155.6-.639.4-1.148.99-1.527 1.77-.375.78-.563 1.737-.563 2.87 0 1.134.188 2.091.563 2.871.379.779.888 1.37 1.527 1.77a3.993 3.993 0 0 0 2.155.601c.792 0 1.508-.2 2.147-.601.644-.4 1.153-.991 1.528-1.77.379-.78.569-1.737.569-2.87ZM475.62 106v-9.818h1.457v1.483h.103c.179-.486.502-.88.971-1.183a2.86 2.86 0 0 1 1.585-.454 14.025 14.025 0 0 1 .793.026v1.534a4.42 4.42 0 0 0-.352-.057 3.455 3.455 0 0 0-.568-.045c-.478 0-.904.1-1.279.3a2.262 2.262 0 0 0-.882.818 2.21 2.21 0 0 0-.32 1.183V106h-1.508Zm6.902 0V92.91h1.508v4.832h.128c.111-.171.264-.388.46-.653.201-.268.486-.507.857-.715.375-.213.882-.32 1.521-.32.827 0 1.556.207 2.186.62.631.413 1.123 1 1.477 1.758.354.758.53 1.653.53 2.684 0 1.04-.176 1.942-.53 2.704-.354.759-.844 1.347-1.47 1.765-.627.413-1.349.62-2.167.62-.631 0-1.136-.105-1.515-.314-.379-.213-.671-.454-.876-.722a9.992 9.992 0 0 1-.473-.678h-.179V106h-1.457Zm1.483-4.909c0 .741.108 1.396.326 1.962.217.563.535 1.004.952 1.323.418.316.929.473 1.534.473.631 0 1.157-.166 1.579-.498.426-.337.746-.789.959-1.355a5.325 5.325 0 0 0 .326-1.905c0-.69-.107-1.313-.32-1.867-.209-.558-.526-.999-.952-1.323-.422-.328-.953-.492-1.592-.492-.613 0-1.129.156-1.547.467-.417.306-.733.737-.946 1.29-.213.55-.319 1.192-.319 1.925Zm12.503-.614c0 1.611-.211 3.094-.633 4.449a13.774 13.774 0 0 1-1.796 3.733h-1.33c.307-.422.592-.942.857-1.56.268-.613.502-1.287.703-2.019.2-.738.356-1.498.466-2.282.115-.789.173-1.562.173-2.321 0-1.014-.098-2.043-.294-3.087a17.693 17.693 0 0 0-.793-2.909c-.332-.894-.703-1.623-1.112-2.185h1.33a13.75 13.75 0 0 1 1.796 3.739c.422 1.35.633 2.832.633 4.442ZM164.072 4.91h2.768v8.5c0 .955-.228 1.79-.684 2.506-.452.716-1.084 1.274-1.898 1.675-.814.396-1.762.594-2.845.594-1.086 0-2.037-.198-2.851-.594-.814-.4-1.446-.959-1.898-1.675-.452-.716-.678-1.55-.678-2.505V4.909h2.768v8.265c0 .499.109.942.326 1.33.222.387.533.692.933.914.401.221.868.332 1.4.332.537 0 1.004-.11 1.4-.332a2.33 2.33 0 0 0 .927-.914c.222-.388.332-.831.332-1.33V4.909Zm7.717 7.414V18h-2.723V8.182h2.595v1.732h.115a2.745 2.745 0 0 1 1.093-1.355c.512-.337 1.132-.505 1.86-.505.682 0 1.277.15 1.784.447a3.04 3.04 0 0 1 1.182 1.279c.282.55.422 1.206.422 1.969V18h-2.723v-5.766c.005-.6-.149-1.07-.46-1.406-.311-.34-.739-.511-1.285-.511-.366 0-.69.079-.971.236a1.644 1.644 0 0 0-.652.69c-.154.299-.233.659-.237 1.08Zm10.942 2.85.006-3.266h.396l3.145-3.726h3.126l-4.225 4.934h-.646l-1.802 2.059ZM180.263 18V4.91h2.723V18h-2.723Zm6.137 0-2.889-4.276 1.815-1.924 4.263 6.2H186.4Zm7.063-5.676V18h-2.723V8.182h2.595v1.732h.115a2.745 2.745 0 0 1 1.093-1.355c.512-.337 1.132-.505 1.86-.505.682 0 1.277.15 1.784.447a3.04 3.04 0 0 1 1.182 1.279c.281.55.422 1.206.422 1.969V18h-2.723v-5.766c.004-.6-.149-1.07-.46-1.406-.311-.34-.739-.511-1.285-.511-.366 0-.69.079-.972.236a1.65 1.65 0 0 0-.652.69c-.153.299-.232.659-.236 1.08Zm12.91 5.868c-.993 0-1.851-.211-2.576-.633a4.33 4.33 0 0 1-1.668-1.777c-.392-.763-.588-1.647-.588-2.653 0-1.014.196-1.9.588-2.659a4.279 4.279 0 0 1 1.668-1.777c.725-.426 1.583-.639 2.576-.639.993 0 1.85.213 2.57.64a4.27 4.27 0 0 1 1.675 1.776c.392.759.588 1.645.588 2.66 0 1.005-.196 1.89-.588 2.652a4.32 4.32 0 0 1-1.675 1.777c-.72.422-1.577.633-2.57.633Zm.013-2.11c.452 0 .829-.128 1.131-.383.303-.26.531-.614.684-1.061.158-.448.237-.957.237-1.528 0-.57-.079-1.08-.237-1.528-.153-.447-.381-.8-.684-1.06-.302-.26-.679-.39-1.131-.39-.456 0-.839.13-1.15.39-.307.26-.54.613-.697 1.06-.154.448-.23.957-.23 1.528 0 .571.076 1.08.23 1.528.157.447.39.8.697 1.06.311.256.694.384 1.15.384ZM214.667 18l-2.672-9.818h2.755l1.521 6.596h.09l1.585-6.596h2.704l1.611 6.558h.083l1.496-6.558h2.748L223.923 18h-2.883l-1.688-6.175h-.121L217.543 18h-2.876Zm16.097-5.676V18h-2.723V8.182h2.595v1.732h.115a2.74 2.74 0 0 1 1.093-1.355c.511-.337 1.131-.505 1.86-.505.682 0 1.276.15 1.783.447a3.04 3.04 0 0 1 1.183 1.279c.281.55.422 1.206.422 1.969V18h-2.723v-5.766c.004-.6-.149-1.07-.46-1.406-.311-.34-.74-.511-1.285-.511-.367 0-.69.079-.972.236a1.65 1.65 0 0 0-.652.69c-.153.299-.232.659-.236 1.08ZM167.443 31h-1.586a3.271 3.271 0 0 0-.492-1.202 3.267 3.267 0 0 0-.844-.869 3.576 3.576 0 0 0-1.093-.537 4.36 4.36 0 0 0-1.252-.179c-.793 0-1.511.2-2.155.6-.639.402-1.148.992-1.527 1.771-.375.78-.563 1.737-.563 2.87 0 1.134.188 2.09.563 2.87.379.78.888 1.37 1.527 1.771.644.4 1.362.601 2.155.601.434 0 .852-.06 1.252-.179.401-.12.765-.296 1.093-.53a3.356 3.356 0 0 0 1.336-2.078h1.586a5.304 5.304 0 0 1-.652 1.796 4.92 4.92 0 0 1-1.177 1.349 5.145 5.145 0 0 1-1.578.837c-.58.192-1.2.288-1.86.288-1.117 0-2.11-.273-2.979-.818-.869-.546-1.553-1.321-2.052-2.327-.499-1.006-.748-2.199-.748-3.58 0-1.38.249-2.573.748-3.579.499-1.006 1.183-1.781 2.052-2.327.869-.545 1.862-.818 2.979-.818.66 0 1.28.096 1.86.288a5.07 5.07 0 0 1 1.578.843c.469.367.861.814 1.177 1.343.315.524.532 1.123.652 1.796Zm6.473 9.205c-.946 0-1.762-.21-2.448-.627a4.205 4.205 0 0 1-1.579-1.764c-.366-.759-.55-1.64-.55-2.646s.184-1.892.55-2.66c.371-.77.886-1.372 1.547-1.802.665-.435 1.44-.652 2.327-.652.511 0 1.016.085 1.515.256.498.17.952.447 1.361.83.409.38.735.883.978 1.51.243.626.364 1.397.364 2.313v.64h-7.568v-1.305h6.034c0-.554-.11-1.048-.332-1.483a2.5 2.5 0 0 0-.933-1.029c-.401-.251-.874-.377-1.419-.377-.601 0-1.121.15-1.56.448a2.947 2.947 0 0 0-1.004 1.15c-.234.473-.351.98-.351 1.521v.87c0 .741.128 1.37.383 1.885.26.512.62.902 1.081 1.17.46.264.995.396 1.604.396.396 0 .754-.055 1.074-.166a2.29 2.29 0 0 0 .837-.511c.235-.23.416-.516.544-.857l1.457.41a3.228 3.228 0 0 1-.773 1.303c-.363.371-.81.66-1.343.87-.532.204-1.131.306-1.796.306Zm7.869-13.296V40h-1.509V26.91h1.509Zm6.879 13.296c-.946 0-1.762-.21-2.448-.627a4.205 4.205 0 0 1-1.579-1.764c-.366-.759-.55-1.64-.55-2.646s.184-1.892.55-2.66c.371-.77.887-1.372 1.547-1.802.665-.435 1.44-.652 2.327-.652.511 0 1.016.085 1.515.256.498.17.952.447 1.361.83.409.38.735.883.978 1.51.243.626.364 1.397.364 2.313v.64h-7.568v-1.305h6.034c0-.554-.11-1.048-.332-1.483a2.5 2.5 0 0 0-.933-1.029c-.401-.251-.874-.377-1.419-.377-.601 0-1.121.15-1.56.448a2.937 2.937 0 0 0-1.003 1.15c-.235.473-.352.98-.352 1.521v.87c0 .741.128 1.37.383 1.885.26.512.621.902 1.081 1.17.46.264.995.396 1.604.396.396 0 .754-.055 1.074-.166a2.29 2.29 0 0 0 .837-.511c.235-.23.416-.516.544-.857l1.457.41a3.228 3.228 0 0 1-.773 1.303c-.363.371-.81.66-1.343.87-.532.204-1.131.306-1.796.306Zm13.315-7.824-1.355.383a2.546 2.546 0 0 0-.377-.658 1.834 1.834 0 0 0-.665-.537c-.281-.14-.642-.211-1.08-.211-.601 0-1.102.138-1.503.415-.396.273-.594.62-.594 1.042 0 .375.136.672.409.889.273.217.699.398 1.278.543l1.458.358c.878.213 1.532.54 1.962.978.431.435.646.995.646 1.681 0 .563-.162 1.066-.486 1.509-.32.443-.767.792-1.342 1.048-.576.256-1.245.384-2.007.384-1.002 0-1.831-.218-2.487-.652-.656-.435-1.072-1.07-1.246-1.905l1.431-.358c.137.528.395.925.774 1.189.383.264.884.396 1.502.396.703 0 1.261-.15 1.675-.447.417-.303.626-.665.626-1.087 0-.341-.119-.627-.358-.857-.238-.234-.605-.409-1.099-.524l-1.637-.383c-.899-.213-1.559-.544-1.981-.991-.418-.452-.627-1.016-.627-1.694 0-.554.156-1.044.467-1.47.315-.426.744-.76 1.285-1.004.545-.243 1.163-.364 1.854-.364.971 0 1.734.213 2.288.64.558.425.954.988 1.189 1.687Zm6.719-2.2v1.28h-5.088v-1.28h5.088Zm-3.605-2.352h1.509v9.358c0 .427.062.746.185.96.128.208.29.349.486.421.2.068.411.102.633.102.166 0 .302-.008.409-.025l.256-.051.306 1.355a3.064 3.064 0 0 1-.428.115 3.15 3.15 0 0 1-.697.064c-.426 0-.843-.092-1.252-.275a2.485 2.485 0 0 1-1.01-.837c-.265-.375-.397-.848-.397-1.42V27.83ZM210.968 40v-9.818h1.508V40h-1.508Zm.767-11.454c-.294 0-.548-.1-.761-.301a.964.964 0 0 1-.313-.722c0-.282.104-.522.313-.723.213-.2.467-.3.761-.3s.545.1.754.3c.213.2.32.441.32.723a.957.957 0 0 1-.32.722c-.209.2-.46.3-.754.3Zm6.393 11.684a3.991 3.991 0 0 1-1.694-.351 2.912 2.912 0 0 1-1.208-1.03c-.298-.451-.447-.997-.447-1.636 0-.562.111-1.018.332-1.368a2.35 2.35 0 0 1 .889-.83c.37-.201.78-.35 1.227-.448.452-.102.906-.184 1.362-.243.596-.077 1.08-.134 1.451-.173.375-.042.647-.113.818-.21.174-.099.262-.27.262-.512v-.051c0-.63-.173-1.12-.518-1.47-.341-.35-.859-.524-1.553-.524-.72 0-1.285.157-1.694.473-.409.315-.697.651-.863 1.01l-1.432-.512c.256-.596.597-1.061 1.023-1.393a3.83 3.83 0 0 1 1.406-.703 5.839 5.839 0 0 1 1.509-.205c.315 0 .677.038 1.086.115.414.072.812.224 1.196.454.387.23.709.577.965 1.042.255.464.383 1.086.383 1.866V40h-1.508v-1.33h-.077c-.102.213-.273.441-.511.684-.239.243-.556.45-.953.62-.396.17-.88.256-1.451.256Zm.23-1.355c.597 0 1.1-.117 1.509-.352a2.396 2.396 0 0 0 1.253-2.077v-1.38c-.064.076-.205.146-.422.21-.213.06-.46.113-.742.16a33.93 33.93 0 0 1-1.444.192 5.78 5.78 0 0 0-1.1.25 1.9 1.9 0 0 0-.818.504c-.204.222-.307.524-.307.908 0 .524.194.92.582 1.189.392.264.889.396 1.489.396Zm8.532-11.966V40h-1.508V26.91h1.508Zm9.718 5.472-1.355.383a2.521 2.521 0 0 0-.378-.658 1.822 1.822 0 0 0-.664-.537c-.282-.14-.642-.211-1.081-.211-.6 0-1.101.138-1.502.415-.396.273-.594.62-.594 1.042 0 .375.136.672.409.889.273.217.699.398 1.278.543l1.458.358c.878.213 1.532.54 1.962.978.43.435.646.995.646 1.681 0 .563-.162 1.066-.486 1.509-.32.443-.767.792-1.342 1.048-.576.256-1.245.384-2.008.384-1.001 0-1.83-.218-2.486-.652-.656-.435-1.072-1.07-1.247-1.905l1.432-.358c.137.528.394.925.774 1.189.383.264.884.396 1.502.396.703 0 1.261-.15 1.675-.447.417-.303.626-.665.626-1.087 0-.341-.119-.627-.358-.857-.239-.234-.605-.409-1.099-.524l-1.637-.383c-.899-.213-1.559-.544-1.981-.991-.418-.452-.627-1.016-.627-1.694 0-.554.156-1.044.467-1.47.315-.426.744-.76 1.285-1.004.545-.243 1.163-.364 1.853-.364.972 0 1.735.213 2.289.64.558.425.954.988 1.189 1.687Zm-101.92 23.074c0-1.611.209-3.092.627-4.443a13.826 13.826 0 0 1 1.802-3.74h1.33a8.2 8.2 0 0 0-.863 1.56 15.193 15.193 0 0 0-.697 2.027c-.2.733-.358 1.491-.473 2.275a16.539 16.539 0 0 0-.166 2.32c0 1.015.098 2.044.294 3.088.196 1.044.46 2.013.792 2.908.333.895.704 1.624 1.113 2.186h-1.33a13.847 13.847 0 0 1-1.802-3.733c-.418-1.355-.627-2.838-.627-4.448ZM144.917 62h-4.04V48.91h4.219c1.27 0 2.357.261 3.26.785.903.52 1.596 1.268 2.077 2.244.482.971.723 2.135.723 3.49 0 1.364-.243 2.538-.729 3.522a5.193 5.193 0 0 1-2.122 2.263c-.929.524-2.058.786-3.388.786Zm-2.455-1.406h2.353c1.082 0 1.979-.21 2.691-.627a3.86 3.86 0 0 0 1.591-1.783c.35-.771.525-1.69.525-2.755 0-1.057-.173-1.967-.518-2.73-.345-.767-.861-1.355-1.547-1.764-.686-.413-1.541-.62-2.563-.62h-2.532v10.279Zm15.265 1.61c-.946 0-1.762-.208-2.449-.626a4.203 4.203 0 0 1-1.578-1.764c-.367-.759-.55-1.64-.55-2.646s.183-1.892.55-2.66c.37-.77.886-1.372 1.547-1.802.664-.435 1.44-.652 2.326-.652.512 0 1.017.085 1.515.256.499.17.953.447 1.362.83.409.38.735.883.978 1.51.243.626.364 1.397.364 2.313v.64h-7.568v-1.305h6.034c0-.554-.111-1.048-.332-1.483a2.51 2.51 0 0 0-.934-1.029c-.4-.251-.873-.377-1.419-.377-.601 0-1.12.15-1.559.447a2.94 2.94 0 0 0-1.004 1.151c-.234.473-.352.98-.352 1.521v.87c0 .741.128 1.37.384 1.885.26.512.62.902 1.08 1.17.46.264.995.396 1.605.396.396 0 .754-.055 1.074-.166a2.31 2.31 0 0 0 .837-.511 2.33 2.33 0 0 0 .543-.857l1.458.41a3.241 3.241 0 0 1-.774 1.303c-.362.371-.81.66-1.342.87-.533.204-1.132.306-1.796.306Zm13.314-7.823-1.355.383a2.517 2.517 0 0 0-.377-.658 1.825 1.825 0 0 0-.665-.537c-.281-.14-.641-.211-1.08-.211-.601 0-1.102.138-1.502.415-.396.273-.595.62-.595 1.042 0 .375.137.672.41.889.272.217.698.398 1.278.543l1.457.358c.878.213 1.532.54 1.963.978.43.435.645.995.645 1.681 0 .563-.162 1.066-.486 1.509-.319.443-.767.792-1.342 1.048-.575.256-1.244.384-2.007.384-1.001 0-1.83-.218-2.486-.652-.657-.435-1.072-1.07-1.247-1.905l1.432-.358c.136.528.394.925.773 1.189.384.264.885.396 1.502.396.704 0 1.262-.15 1.675-.447.418-.303.627-.665.627-1.087 0-.341-.12-.627-.358-.857-.239-.234-.605-.409-1.1-.524l-1.636-.383c-.899-.213-1.56-.544-1.982-.991-.417-.452-.626-1.016-.626-1.694 0-.554.155-1.044.467-1.47.315-.426.743-.76 1.284-1.004.546-.243 1.164-.364 1.854-.364.972 0 1.734.213 2.288.64.559.425.955.988 1.189 1.687Zm6.72-2.2v1.28h-5.088v-1.28h5.088Zm-3.605-2.351h1.508v9.358c0 .426.062.745.186.958a.96.96 0 0 0 .485.422c.201.068.412.102.633.102.166 0 .303-.008.409-.025l.256-.051.307 1.355a3.064 3.064 0 0 1-.428.115 3.163 3.163 0 0 1-.697.064c-.426 0-.844-.092-1.253-.275a2.492 2.492 0 0 1-1.01-.837c-.264-.375-.396-.848-.396-1.42V49.83ZM180.03 62v-9.818h1.457v1.483h.103c.179-.486.503-.88.971-1.183a2.864 2.864 0 0 1 1.586-.454c.11 0 .249.003.415.007.166.004.292.01.377.019v1.534a4.45 4.45 0 0 0-.351-.057 3.467 3.467 0 0 0-.569-.045c-.478 0-.904.1-1.279.3-.37.196-.664.469-.882.818a2.21 2.21 0 0 0-.319 1.183V62h-1.509Zm12.885-4.014v-5.804h1.508V62h-1.508v-1.662h-.102a3.227 3.227 0 0 1-1.074 1.272c-.486.345-1.1.518-1.841.518-.614 0-1.159-.134-1.637-.403-.477-.273-.852-.682-1.125-1.227-.272-.55-.409-1.242-.409-2.078v-6.238h1.509v6.136c0 .716.2 1.287.601 1.713.405.426.92.64 1.547.64.375 0 .756-.096 1.144-.288.392-.192.72-.486.984-.882.269-.397.403-.902.403-1.515Zm8.26 4.219c-.92 0-1.713-.218-2.378-.652-.665-.435-1.176-1.034-1.534-1.797-.358-.762-.537-1.634-.537-2.614 0-.997.183-1.877.55-2.64.371-.767.886-1.366 1.547-1.796.664-.435 1.44-.652 2.326-.652.691 0 1.313.128 1.867.383a3.567 3.567 0 0 1 1.361 1.074c.354.46.574.997.659 1.611h-1.509c-.115-.447-.37-.844-.767-1.189-.392-.35-.92-.524-1.585-.524-.588 0-1.104.154-1.547.46-.439.303-.782.731-1.029 1.285-.243.55-.364 1.195-.364 1.937 0 .758.119 1.419.358 1.981.242.563.583 1 1.022 1.31.444.312.963.467 1.56.467a2.69 2.69 0 0 0 1.067-.204 2.21 2.21 0 0 0 .812-.588 2.24 2.24 0 0 0 .473-.92h1.509a3.488 3.488 0 0 1-.633 1.565 3.53 3.53 0 0 1-1.323 1.1c-.546.268-1.181.403-1.905.403Zm10.336-10.023v1.278h-5.088v-1.278h5.088Zm-3.605-2.352h1.508v9.358c0 .426.062.745.186.958a.96.96 0 0 0 .485.422c.201.068.412.102.633.102.166 0 .303-.008.409-.025l.256-.051.307 1.355a3.064 3.064 0 0 1-.428.115 3.163 3.163 0 0 1-.697.064c-.426 0-.844-.092-1.253-.275a2.492 2.492 0 0 1-1.01-.837c-.264-.375-.396-.848-.396-1.42V49.83ZM213.78 62v-9.818h1.509V62h-1.509Zm.767-11.455c-.294 0-.547-.1-.761-.3a.968.968 0 0 1-.313-.722.97.97 0 0 1 .313-.723c.214-.2.467-.3.761-.3s.546.1.754.3c.213.2.32.442.32.723a.957.957 0 0 1-.32.722c-.208.2-.46.3-.754.3Zm7.493 11.66c-.886 0-1.664-.211-2.333-.633-.665-.422-1.185-1.012-1.56-1.77-.37-.76-.556-1.646-.556-2.66 0-1.023.186-1.915.556-2.678.375-.763.895-1.355 1.56-1.777.669-.422 1.447-.633 2.333-.633.887 0 1.662.21 2.327.633.669.422 1.189 1.014 1.56 1.777.375.763.562 1.655.562 2.678 0 1.014-.187 1.9-.562 2.66-.371.758-.891 1.348-1.56 1.77-.665.422-1.44.633-2.327.633Zm0-1.356c.674 0 1.227-.172 1.662-.517.435-.346.757-.8.965-1.362a5.209 5.209 0 0 0 .314-1.828c0-.656-.105-1.268-.314-1.835a3.083 3.083 0 0 0-.965-1.374c-.435-.35-.988-.524-1.662-.524-.673 0-1.227.175-1.662.524-.434.35-.756.808-.965 1.374a5.261 5.261 0 0 0-.313 1.835c0 .656.104 1.266.313 1.828.209.563.531 1.017.965 1.362.435.345.989.517 1.662.517Zm8.26-4.755V62h-1.508v-9.818h1.457v1.534h.128c.23-.499.58-.9 1.048-1.202.469-.307 1.074-.46 1.816-.46.664 0 1.246.136 1.745.41.498.267.886.677 1.163 1.226.277.546.416 1.236.416 2.071V62h-1.509v-6.136c0-.772-.2-1.372-.601-1.803-.4-.435-.95-.652-1.649-.652a2.63 2.63 0 0 0-1.291.313 2.246 2.246 0 0 0-.889.914c-.217.4-.326.887-.326 1.458Zm18.072 6.11c-.886 0-1.664-.21-2.333-.632-.665-.422-1.185-1.012-1.56-1.77-.37-.76-.556-1.646-.556-2.66 0-1.023.186-1.915.556-2.678.375-.763.895-1.355 1.56-1.777.669-.422 1.447-.633 2.333-.633.887 0 1.662.21 2.327.633.669.422 1.189 1.014 1.56 1.777.375.763.562 1.655.562 2.678 0 1.014-.187 1.9-.562 2.66-.371.758-.891 1.348-1.56 1.77-.665.422-1.44.633-2.327.633Zm0-1.355c.674 0 1.228-.172 1.662-.517.435-.346.757-.8.965-1.362a5.209 5.209 0 0 0 .314-1.828c0-.656-.105-1.268-.314-1.835a3.083 3.083 0 0 0-.965-1.374c-.434-.35-.988-.524-1.662-.524-.673 0-1.227.175-1.662.524-.434.35-.756.808-.965 1.374a5.261 5.261 0 0 0-.313 1.835c0 .656.104 1.266.313 1.828.209.563.531 1.017.965 1.362.435.345.989.517 1.662.517Zm11.124-8.667v1.278h-5.293v-1.278h5.293ZM255.789 62V50.827c0-.563.132-1.032.396-1.407a2.454 2.454 0 0 1 1.029-.843 3.253 3.253 0 0 1 1.336-.282c.371 0 .673.03.908.09.234.06.409.115.524.166l-.435 1.304a7.68 7.68 0 0 0-.319-.096 1.948 1.948 0 0 0-.525-.057c-.498 0-.858.125-1.08.377-.217.251-.326.62-.326 1.106V62h-1.508ZM148.322 84V70.91h4.423c1.027 0 1.866.184 2.518.555.657.367 1.142.863 1.458 1.49.315.626.473 1.325.473 2.096 0 .771-.158 1.472-.473 2.103-.311.63-.793 1.134-1.445 1.509-.652.37-1.487.556-2.506.556h-3.17v-1.406h3.119c.703 0 1.268-.122 1.694-.365.426-.243.735-.57.927-.984.196-.418.294-.889.294-1.413s-.098-.993-.294-1.406a2.1 2.1 0 0 0-.933-.972c-.431-.238-1.002-.358-1.713-.358h-2.787V84h-1.585Zm12.729-13.09V84h-1.508V70.91h1.508Zm5.652 13.32a3.987 3.987 0 0 1-1.693-.351 2.909 2.909 0 0 1-1.209-1.03c-.298-.451-.447-.997-.447-1.636 0-.562.111-1.018.332-1.368a2.35 2.35 0 0 1 .889-.83c.371-.201.78-.35 1.227-.448.452-.102.906-.183 1.362-.243.596-.077 1.08-.134 1.451-.173.375-.042.647-.113.818-.21.175-.099.262-.27.262-.512v-.051c0-.63-.173-1.12-.518-1.47-.341-.35-.858-.525-1.553-.525-.72 0-1.285.158-1.694.474-.409.315-.697.651-.863 1.01l-1.432-.512c.256-.597.597-1.061 1.023-1.393a3.83 3.83 0 0 1 1.406-.704 5.844 5.844 0 0 1 1.509-.204c.315 0 .677.038 1.086.115.414.073.812.224 1.196.454.388.23.709.577.965 1.042.256.464.383 1.086.383 1.866V84h-1.508v-1.33h-.077a2.64 2.64 0 0 1-.511.684c-.239.243-.556.45-.953.62-.396.17-.879.256-1.451.256Zm.231-1.355c.596 0 1.099-.117 1.508-.352a2.39 2.39 0 0 0 .933-.907c.213-.371.32-.76.32-1.17v-1.38c-.064.076-.205.146-.422.21-.213.06-.46.113-.741.16a34 34 0 0 1-1.445.192 5.752 5.752 0 0 0-1.099.25c-.337.11-.61.278-.819.504-.204.222-.306.524-.306.908 0 .524.193.92.581 1.189.392.264.889.396 1.49.396Zm8.531-4.781V84h-1.508v-9.818h1.457v1.534h.128c.23-.499.58-.9 1.048-1.202.469-.307 1.074-.46 1.816-.46.664 0 1.246.136 1.745.41.498.267.886.677 1.163 1.226.277.546.416 1.236.416 2.071V84h-1.509v-6.136c0-.772-.2-1.373-.601-1.803-.4-.435-.95-.652-1.649-.652a2.63 2.63 0 0 0-1.291.313 2.246 2.246 0 0 0-.889.914c-.217.4-.326.887-.326 1.458Zm13.138 6.11c-.946 0-1.762-.208-2.449-.626a4.203 4.203 0 0 1-1.578-1.764c-.367-.759-.55-1.64-.55-2.646s.183-1.892.55-2.66c.37-.77.886-1.372 1.547-1.802.664-.435 1.44-.652 2.326-.652.512 0 1.017.085 1.515.256.499.17.953.447 1.362.83.409.38.735.883.978 1.51.243.626.364 1.397.364 2.313v.64H185.1v-1.305h6.034c0-.554-.111-1.048-.333-1.483a2.5 2.5 0 0 0-.933-1.029c-.4-.251-.873-.377-1.419-.377-.601 0-1.121.15-1.559.447a2.94 2.94 0 0 0-1.004 1.151c-.234.473-.352.98-.352 1.521v.87c0 .741.128 1.37.384 1.885.26.512.62.902 1.08 1.17.46.264.995.396 1.605.396.396 0 .754-.055 1.073-.166.324-.115.603-.285.838-.511a2.33 2.33 0 0 0 .543-.857l1.458.41a3.241 3.241 0 0 1-.774 1.303c-.362.371-.81.66-1.342.87-.533.204-1.132.306-1.796.306Zm10.63-10.022v1.278h-5.088v-1.278h5.088Zm-3.606-2.353h1.509v9.359c0 .426.062.745.185.958.128.21.29.35.486.422.2.068.411.103.633.103.166 0 .303-.01.409-.026l.256-.051.307 1.355a3.085 3.085 0 0 1-.429.115 3.147 3.147 0 0 1-.696.064c-.427 0-.844-.092-1.253-.275a2.485 2.485 0 0 1-1.01-.837c-.264-.375-.397-.848-.397-1.42V71.83Zm12.654 4.552-1.356.383a2.517 2.517 0 0 0-.377-.658 1.83 1.83 0 0 0-.664-.537c-.282-.14-.642-.211-1.081-.211-.601 0-1.101.138-1.502.415-.396.273-.594.62-.594 1.042 0 .375.136.672.409.889.272.217.699.398 1.278.543l1.458.358c.877.213 1.532.54 1.962.978.43.435.646.995.646 1.681 0 .563-.162 1.066-.486 1.509-.32.443-.767.792-1.343 1.048-.575.256-1.244.383-2.007.383-1.001 0-1.83-.217-2.486-.651-.656-.435-1.072-1.07-1.247-1.905l1.432-.358c.137.528.394.924.774 1.189.383.264.884.396 1.502.396.703 0 1.261-.15 1.674-.447.418-.303.627-.665.627-1.087 0-.341-.119-.626-.358-.857-.239-.234-.605-.409-1.1-.524l-1.636-.383c-.899-.213-1.56-.544-1.981-.991-.418-.452-.627-1.016-.627-1.694 0-.554.156-1.044.467-1.47.315-.426.743-.76 1.285-1.004.545-.243 1.163-.364 1.853-.364.972 0 1.735.213 2.289.64.558.425.954.988 1.189 1.687Zm10.401 7.85a3.991 3.991 0 0 1-1.694-.352 2.906 2.906 0 0 1-1.208-1.03c-.298-.451-.447-.997-.447-1.636 0-.562.11-1.018.332-1.368.222-.353.518-.63.888-.83.371-.201.78-.35 1.228-.448.451-.102.905-.183 1.361-.243.597-.077 1.08-.134 1.451-.173.375-.042.648-.113.818-.21.175-.099.262-.27.262-.512v-.051c0-.63-.172-1.12-.517-1.47-.341-.35-.859-.525-1.554-.525-.72 0-1.284.158-1.693.474-.41.315-.697.651-.863 1.01l-1.432-.512c.255-.597.596-1.061 1.023-1.393a3.83 3.83 0 0 1 1.406-.704 5.837 5.837 0 0 1 1.508-.204c.316 0 .678.038 1.087.115.413.073.812.224 1.195.454.388.23.71.577.965 1.042.256.464.384 1.086.384 1.866V84h-1.509v-1.33h-.076a2.67 2.67 0 0 1-.512.684c-.238.243-.556.45-.952.62-.396.17-.88.256-1.451.256Zm.23-1.356c.597 0 1.1-.117 1.509-.352a2.396 2.396 0 0 0 1.252-2.077v-1.38c-.063.076-.204.146-.421.21a7.16 7.16 0 0 1-.742.16 33.292 33.292 0 0 1-1.444.192 5.763 5.763 0 0 0-1.1.25c-.337.11-.609.278-.818.504-.205.222-.307.524-.307.908 0 .524.194.92.582 1.189.392.264.888.396 1.489.396Zm8.532-4.781V84h-1.509v-9.818h1.458v1.534h.128a2.8 2.8 0 0 1 1.048-1.202c.469-.307 1.074-.46 1.815-.46.665 0 1.247.136 1.745.41.499.267.887.677 1.164 1.226.277.546.415 1.236.415 2.071V84H232.2v-6.136c0-.772-.201-1.373-.601-1.803-.401-.435-.951-.652-1.649-.652-.482 0-.912.104-1.292.313a2.238 2.238 0 0 0-.888.914c-.217.4-.326.887-.326 1.458Zm12.728 6.11c-.818 0-1.54-.206-2.167-.62-.626-.417-1.116-1.005-1.47-1.764-.354-.762-.531-1.664-.531-2.703 0-1.032.177-1.927.531-2.685.354-.759.846-1.345 1.477-1.758.63-.413 1.359-.62 2.186-.62.639 0 1.144.106 1.515.32.375.208.66.447.856.716.2.264.356.481.467.651h.128V70.91h1.508V84h-1.457v-1.508h-.179a9.927 9.927 0 0 1-.473.677c-.205.269-.497.51-.876.722-.379.21-.884.313-1.515.313Zm.205-1.355c.605 0 1.116-.157 1.534-.473.417-.32.735-.76.952-1.323.217-.566.326-1.22.326-1.962 0-.733-.106-1.374-.32-1.924-.213-.554-.528-.984-.946-1.291-.417-.311-.933-.467-1.546-.467-.64 0-1.172.164-1.598.492-.422.324-.74.765-.953 1.323-.209.554-.313 1.177-.313 1.867 0 .699.106 1.334.32 1.905.217.567.536 1.018.958 1.355.427.332.955.498 1.586.498ZM159.278 97h-1.586a3.289 3.289 0 0 0-1.336-2.071 3.576 3.576 0 0 0-1.093-.537c-.4-.12-.818-.179-1.253-.179a4 4 0 0 0-2.154.6c-.639.401-1.148.992-1.527 1.772-.375.78-.563 1.736-.563 2.87 0 1.133.188 2.09.563 2.87.379.779.888 1.37 1.527 1.77a3.992 3.992 0 0 0 2.154.601c.435 0 .853-.06 1.253-.179a3.66 3.66 0 0 0 1.093-.53 3.354 3.354 0 0 0 1.336-2.078h1.586a5.299 5.299 0 0 1-.652 1.796 4.916 4.916 0 0 1-1.177 1.349 5.14 5.14 0 0 1-1.578.837c-.58.192-1.2.288-1.861.288-1.116 0-2.109-.273-2.978-.818-.87-.546-1.553-1.321-2.052-2.327-.499-1.006-.748-2.199-.748-3.58 0-1.38.249-2.573.748-3.579.499-1.006 1.182-1.781 2.052-2.327.869-.545 1.862-.818 2.978-.818a5.89 5.89 0 0 1 1.861.288c.583.192 1.11.473 1.578.844.469.366.861.813 1.177 1.342.315.524.532 1.123.652 1.796Zm2.357 9v-9.818h1.508V106h-1.508Zm.767-11.454c-.294 0-.548-.1-.761-.301a.964.964 0 0 1-.313-.722c0-.281.104-.522.313-.723.213-.2.467-.3.761-.3s.545.1.754.3c.213.2.319.442.319.723a.956.956 0 0 1-.319.722c-.209.2-.46.3-.754.3Zm11.532 1.636-3.63 9.818h-1.534l-3.631-9.818h1.636l2.711 7.824h.102l2.71-7.824h1.636Zm1.992 9.818v-9.818h1.508V106h-1.508Zm.767-11.454c-.294 0-.548-.1-.761-.301a.964.964 0 0 1-.313-.722c0-.281.104-.522.313-.723.213-.2.467-.3.761-.3s.545.1.754.3c.213.2.32.442.32.723a.957.957 0 0 1-.32.722c-.209.2-.46.3-.754.3Zm5.013-1.637V106h-1.509V92.91h1.509ZM184.469 106v-9.818h1.508V106h-1.508Zm.767-11.454c-.294 0-.548-.1-.761-.301a.964.964 0 0 1-.313-.722c0-.281.104-.522.313-.723.213-.2.467-.3.761-.3s.545.1.754.3c.213.2.319.442.319.723a.956.956 0 0 1-.319.722c-.209.2-.46.3-.754.3ZM188.459 106v-1.151l5.574-7.159v-.102h-5.395v-1.406h7.338v1.201l-5.421 7.108v.103h5.6V106h-7.696Zm12.909.23a3.993 3.993 0 0 1-1.694-.351 2.906 2.906 0 0 1-1.208-1.03c-.299-.451-.448-.997-.448-1.636 0-.562.111-1.018.332-1.368.222-.354.518-.631.889-.831.371-.2.78-.349 1.227-.447.452-.103.906-.183 1.362-.243.596-.077 1.08-.134 1.451-.173.375-.042.647-.113.818-.21.175-.099.262-.27.262-.512v-.051c0-.63-.173-1.12-.518-1.47-.341-.35-.858-.525-1.553-.525-.72 0-1.285.158-1.694.474-.409.315-.697.651-.863 1.01l-1.432-.512c.256-.597.597-1.061 1.023-1.393a3.83 3.83 0 0 1 1.406-.704 5.85 5.85 0 0 1 1.509-.204c.315 0 .677.038 1.087.115.413.073.811.224 1.195.454.388.23.709.577.965 1.042.256.464.384 1.086.384 1.866V106h-1.509v-1.33h-.077a2.609 2.609 0 0 1-.511.684c-.239.243-.556.45-.952.62-.397.171-.88.256-1.451.256Zm.23-1.355c.596 0 1.099-.117 1.508-.352.414-.234.725-.536.933-.907.213-.371.32-.761.32-1.17v-1.381c-.064.077-.205.147-.422.211-.213.06-.46.113-.741.16a31.625 31.625 0 0 1-1.445.192 5.755 5.755 0 0 0-1.099.249c-.337.111-.61.279-.819.505-.204.222-.306.524-.306.908 0 .524.194.92.581 1.189.392.264.889.396 1.49.396Zm11.293-8.693v1.278h-5.088v-1.278h5.088Zm-3.605-2.353h1.508v9.359c0 .426.062.745.186.958.127.209.289.35.485.422.201.068.412.102.633.102.166 0 .303-.008.409-.025l.256-.051.307 1.355a3.064 3.064 0 0 1-.428.115 3.138 3.138 0 0 1-.697.064c-.426 0-.844-.092-1.253-.275a2.482 2.482 0 0 1-1.01-.837c-.264-.375-.396-.848-.396-1.419V93.83ZM215.16 106v-9.818h1.509V106h-1.509Zm.767-11.454c-.294 0-.548-.1-.761-.301a.968.968 0 0 1-.313-.722.97.97 0 0 1 .313-.723c.213-.2.467-.3.761-.3s.545.1.754.3c.213.2.32.442.32.723a.957.957 0 0 1-.32.722c-.209.2-.46.3-.754.3Zm7.493 11.659c-.886 0-1.664-.211-2.333-.633-.665-.422-1.185-1.012-1.56-1.771-.37-.758-.556-1.645-.556-2.659 0-1.023.186-1.915.556-2.678.375-.763.895-1.355 1.56-1.777.669-.422 1.447-.633 2.333-.633.886 0 1.662.21 2.327.633.669.422 1.189 1.014 1.559 1.777.375.763.563 1.655.563 2.678 0 1.014-.188 1.901-.563 2.659-.37.759-.89 1.349-1.559 1.771-.665.422-1.441.633-2.327.633Zm0-1.356c.673 0 1.227-.172 1.662-.517.435-.345.756-.799.965-1.362a5.206 5.206 0 0 0 .313-1.828c0-.656-.104-1.268-.313-1.834a3.091 3.091 0 0 0-.965-1.375c-.435-.35-.989-.524-1.662-.524-.673 0-1.227.175-1.662.524-.434.35-.756.808-.965 1.374a5.262 5.262 0 0 0-.313 1.835c0 .656.104 1.266.313 1.828.209.563.531 1.017.965 1.362.435.345.989.517 1.662.517Zm8.26-4.755V106h-1.508v-9.818h1.457v1.534h.128a2.8 2.8 0 0 1 1.048-1.202c.469-.307 1.074-.46 1.816-.46.664 0 1.246.136 1.745.41.498.267.886.677 1.163 1.226.277.546.415 1.236.415 2.071V106h-1.508v-6.136c0-.772-.2-1.373-.601-1.803-.401-.435-.95-.652-1.649-.652a2.63 2.63 0 0 0-1.291.313 2.246 2.246 0 0 0-.889.914c-.217.4-.326.887-.326 1.458Zm12.243.383c0 1.611-.211 3.094-.633 4.449a13.774 13.774 0 0 1-1.796 3.733h-1.33c.307-.422.592-.942.857-1.56.268-.613.502-1.287.703-2.019.2-.738.356-1.498.466-2.282.115-.789.173-1.562.173-2.321 0-1.014-.098-2.043-.294-3.087a17.693 17.693 0 0 0-.793-2.909c-.332-.894-.703-1.623-1.112-2.185h1.33a13.75 13.75 0 0 1 1.796 3.739c.422 1.35.633 2.832.633 4.442ZM718.193 172v-1.994l4.66-4.315a18 18 0 0 0 .997-1.035c.273-.307.479-.608.62-.902.141-.298.211-.62.211-.965 0-.383-.088-.714-.262-.991a1.725 1.725 0 0 0-.716-.645 2.239 2.239 0 0 0-1.029-.23c-.401 0-.75.081-1.049.242a1.68 1.68 0 0 0-.69.697c-.162.303-.243.663-.243 1.08h-2.627c0-.856.194-1.6.582-2.23a3.883 3.883 0 0 1 1.63-1.464c.699-.345 1.504-.518 2.416-.518.937 0 1.753.166 2.448.499.699.328 1.242.784 1.63 1.368.388.583.582 1.252.582 2.007 0 .494-.098.982-.294 1.463-.192.482-.535 1.017-1.029 1.605-.495.584-1.191 1.285-2.091 2.103l-1.911 1.873v.089h5.497V172h-9.332Zm16.471.288c-1.1-.005-2.046-.275-2.838-.812-.789-.537-1.396-1.315-1.822-2.333-.422-1.019-.631-2.244-.627-3.676 0-1.427.211-2.644.633-3.65.426-1.005 1.034-1.77 1.822-2.294.793-.529 1.736-.793 2.832-.793 1.095 0 2.037.264 2.825.793.793.528 1.402 1.295 1.828 2.301.426 1.001.637 2.216.633 3.643 0 1.436-.213 2.664-.639 3.682-.422 1.019-1.027 1.796-1.816 2.333-.788.537-1.732.806-2.831.806Zm0-2.295c.75 0 1.348-.377 1.796-1.131.447-.755.669-1.886.665-3.395 0-.993-.103-1.819-.307-2.48-.201-.66-.486-1.157-.857-1.489a1.864 1.864 0 0 0-1.297-.499c-.746 0-1.343.373-1.79 1.119-.448.746-.673 1.862-.678 3.349 0 1.006.1 1.845.301 2.519.204.669.492 1.172.863 1.508.37.333.805.499 1.304.499Zm12.955-11.084V172h-2.768v-10.464h-.077l-2.998 1.879v-2.454l3.241-2.052h2.602Zm2.913 10.79v-2.18l5.465-8.61h1.879v3.017h-1.112l-3.445 5.453v.102h7.766v2.218h-10.553Zm6.283 2.301v-2.966l.051-.965v-9.16h2.596V172h-2.647Zm-49 12.182a2.007 2.007 0 0 0-.934-1.509c-.545-.358-1.214-.537-2.007-.537-.579 0-1.086.094-1.521.282-.43.187-.767.445-1.01.773a1.852 1.852 0 0 0-.358 1.119c0 .349.083.65.249.901.171.247.388.454.652.62.265.162.542.296.831.403.29.102.556.185.799.249l1.33.358c.341.089.72.213 1.138.371a5.26 5.26 0 0 1 1.208.645c.388.269.707.614.959 1.036.251.422.377.939.377 1.553 0 .707-.186 1.347-.556 1.918-.367.571-.904 1.024-1.611 1.361-.703.337-1.558.505-2.563.505-.938 0-1.75-.151-2.436-.454-.682-.302-1.219-.724-1.611-1.265a3.62 3.62 0 0 1-.658-1.886h1.636c.043.494.209.903.499 1.227.294.32.665.559 1.112.716.452.154.938.23 1.458.23.605 0 1.148-.098 1.63-.294.481-.2.862-.477 1.144-.831a1.97 1.97 0 0 0 .422-1.253c0-.434-.122-.788-.365-1.061a2.671 2.671 0 0 0-.959-.664 9.999 9.999 0 0 0-1.284-.448l-1.611-.46c-1.023-.294-1.833-.714-2.429-1.259-.597-.546-.895-1.26-.895-2.142 0-.733.198-1.372.594-1.917.401-.55.938-.976 1.611-1.279.678-.306 1.434-.46 2.269-.46.844 0 1.594.151 2.25.454.657.298 1.177.707 1.56 1.227.388.52.592 1.11.614 1.771h-1.534Zm8.384 0v1.278h-5.088v-1.278h5.088Zm-3.605-2.352h1.509v9.358c0 .426.062.745.185.958.128.209.29.35.486.422.2.068.411.102.633.102.166 0 .302-.008.409-.025l.256-.051.306 1.355a3.064 3.064 0 0 1-.428.115 3.126 3.126 0 0 1-.697.064c-.426 0-.843-.092-1.252-.275a2.482 2.482 0 0 1-1.01-.837c-.265-.375-.397-.848-.397-1.419v-9.767Zm8.764 12.4a3.996 3.996 0 0 1-1.694-.351 2.906 2.906 0 0 1-1.208-1.03c-.299-.451-.448-.997-.448-1.636 0-.562.111-1.018.333-1.368.221-.354.517-.631.888-.831.371-.2.78-.349 1.227-.447.452-.103.906-.183 1.362-.243.597-.077 1.08-.134 1.451-.173.375-.042.648-.113.818-.211.175-.098.262-.268.262-.511v-.051c0-.631-.172-1.121-.518-1.47-.34-.35-.858-.524-1.553-.524-.72 0-1.285.157-1.694.473-.409.315-.696.652-.863 1.009l-1.431-.511c.255-.596.596-1.061 1.022-1.393a3.827 3.827 0 0 1 1.407-.703 5.808 5.808 0 0 1 1.508-.205c.315 0 .678.038 1.087.115.413.072.812.224 1.195.454.388.23.71.577.965 1.042.256.464.384 1.086.384 1.866V194h-1.509v-1.33h-.076a2.638 2.638 0 0 1-.512.684c-.238.243-.556.45-.952.62-.397.171-.88.256-1.451.256Zm.23-1.355c.596 0 1.099-.117 1.508-.352a2.387 2.387 0 0 0 1.253-2.077v-1.381c-.064.077-.204.147-.422.211-.213.06-.46.113-.741.16a31.625 31.625 0 0 1-1.445.192 5.755 5.755 0 0 0-1.099.249c-.337.111-.61.279-.818.505-.205.222-.307.524-.307.908 0 .524.194.92.582 1.189.392.264.888.396 1.489.396Zm7.023 1.125v-9.818h1.458v1.483h.102c.179-.486.503-.88.971-1.183a2.868 2.868 0 0 1 1.586-.454c.11 0 .249.003.415.007.166.004.292.01.377.019v1.534a4.176 4.176 0 0 0-.351-.057 3.445 3.445 0 0 0-.569-.045c-.477 0-.904.1-1.279.3-.37.196-.664.469-.882.818a2.21 2.21 0 0 0-.319 1.183V194h-1.509Zm11.602-6.315v1.406h-5.728v-1.406h5.728Zm2.859 6.315v-13.091h1.585v11.685h6.085V194h-7.67Zm13.909.205c-.887 0-1.664-.211-2.333-.633-.665-.422-1.185-1.012-1.56-1.771-.371-.758-.556-1.645-.556-2.659 0-1.023.185-1.915.556-2.678.375-.763.895-1.355 1.56-1.777.669-.422 1.446-.633 2.333-.633.886 0 1.662.211 2.326.633.669.422 1.189 1.014 1.56 1.777.375.763.563 1.655.563 2.678 0 1.014-.188 1.901-.563 2.659-.371.759-.891 1.349-1.56 1.771-.664.422-1.44.633-2.326.633Zm0-1.356c.673 0 1.227-.172 1.662-.517.434-.345.756-.799.965-1.362a5.206 5.206 0 0 0 .313-1.828c0-.656-.104-1.268-.313-1.834a3.102 3.102 0 0 0-.965-1.375c-.435-.349-.989-.524-1.662-.524-.674 0-1.228.175-1.662.524-.435.35-.757.808-.965 1.375a5.257 5.257 0 0 0-.314 1.834c0 .656.105 1.266.314 1.828.208.563.53 1.017.965 1.362.434.345.988.517 1.662.517Zm6.751 1.151v-9.818h1.458v1.483h.102c.179-.486.503-.88.971-1.183a2.868 2.868 0 0 1 1.586-.454c.111 0 .249.003.415.007.166.004.292.01.377.019v1.534a4.176 4.176 0 0 0-.351-.057 3.445 3.445 0 0 0-.569-.045c-.477 0-.904.1-1.279.3-.37.196-.664.469-.882.818a2.21 2.21 0 0 0-.319 1.183V194h-1.509Zm10.106.205c-.818 0-1.54-.207-2.167-.62-.626-.418-1.116-1.006-1.47-1.765-.354-.762-.531-1.664-.531-2.704 0-1.031.177-1.926.531-2.684.354-.759.846-1.345 1.477-1.758.63-.413 1.359-.62 2.186-.62.639 0 1.144.107 1.515.32.375.208.66.447.856.715.2.265.356.482.467.652h.128v-4.832h1.508V194h-1.457v-1.509h-.179a9.992 9.992 0 0 1-.473.678c-.205.268-.497.509-.876.722-.379.209-.884.314-1.515.314Zm.205-1.356c.605 0 1.116-.157 1.534-.473.417-.319.735-.76.952-1.323.217-.566.326-1.221.326-1.962 0-.733-.106-1.374-.319-1.924-.214-.554-.529-.984-.947-1.291-.417-.311-.933-.467-1.546-.467-.64 0-1.172.164-1.598.492-.422.324-.74.765-.953 1.323-.209.554-.313 1.177-.313 1.867 0 .699.107 1.334.32 1.905.217.566.537 1.018.958 1.355.427.332.955.498 1.586.498ZM828.193 172v-1.994l4.66-4.315a18 18 0 0 0 .997-1.035c.273-.307.479-.608.62-.902.141-.298.211-.62.211-.965 0-.383-.088-.714-.262-.991a1.725 1.725 0 0 0-.716-.645 2.239 2.239 0 0 0-1.029-.23c-.401 0-.75.081-1.049.242a1.68 1.68 0 0 0-.69.697c-.162.303-.243.663-.243 1.08h-2.627c0-.856.194-1.6.582-2.23a3.883 3.883 0 0 1 1.63-1.464c.699-.345 1.504-.518 2.416-.518.937 0 1.753.166 2.448.499.699.328 1.242.784 1.63 1.368.388.583.582 1.252.582 2.007 0 .494-.098.982-.294 1.463-.192.482-.535 1.017-1.029 1.605-.495.584-1.191 1.285-2.091 2.103l-1.911 1.873v.089h5.497V172h-9.332Zm16.471.288c-1.1-.005-2.046-.275-2.838-.812-.789-.537-1.396-1.315-1.822-2.333-.422-1.019-.631-2.244-.627-3.676 0-1.427.211-2.644.633-3.65.426-1.005 1.034-1.77 1.822-2.294.793-.529 1.736-.793 2.832-.793 1.095 0 2.037.264 2.825.793.793.528 1.402 1.295 1.828 2.301.426 1.001.637 2.216.633 3.643 0 1.436-.213 2.664-.639 3.682-.422 1.019-1.027 1.796-1.816 2.333-.788.537-1.732.806-2.831.806Zm0-2.295c.75 0 1.348-.377 1.796-1.131.447-.755.669-1.886.665-3.395 0-.993-.103-1.819-.307-2.48-.201-.66-.486-1.157-.857-1.489a1.864 1.864 0 0 0-1.297-.499c-.746 0-1.343.373-1.79 1.119-.448.746-.673 1.862-.678 3.349 0 1.006.1 1.845.301 2.519.204.669.492 1.172.863 1.508.37.333.805.499 1.304.499Zm12.955-11.084V172h-2.768v-10.464h-.077l-2.998 1.879v-2.454l3.241-2.052h2.602Zm2.913 10.79v-2.18l5.465-8.61h1.879v3.017h-1.112l-3.445 5.453v.102h7.766v2.218h-10.553Zm6.283 2.301v-2.966l.051-.965v-9.16h2.596V172h-2.647Zm-73.698 10.315v-1.406h9.819v1.406h-4.117V194h-1.585v-11.685h-4.117Zm13.569 5.779V194h-1.508v-13.091h1.508v4.807h.128c.23-.507.575-.91 1.035-1.208.465-.303 1.083-.454 1.854-.454.669 0 1.255.134 1.758.403.503.264.893.671 1.17 1.221.281.545.422 1.24.422 2.083V194h-1.509v-6.136c0-.78-.202-1.383-.607-1.809-.401-.431-.957-.646-1.669-.646a2.78 2.78 0 0 0-1.329.313 2.294 2.294 0 0 0-.921.914c-.221.401-.332.887-.332 1.458Zm13.243 6.111c-.946 0-1.762-.209-2.448-.627a4.207 4.207 0 0 1-1.579-1.764c-.367-.759-.55-1.641-.55-2.646 0-1.006.183-1.892.55-2.659.371-.772.886-1.373 1.547-1.803.664-.435 1.44-.652 2.326-.652.512 0 1.017.085 1.515.256.499.17.953.447 1.362.831.409.379.735.882.978 1.508.243.627.364 1.398.364 2.314v.639h-7.568v-1.304h6.034c0-.554-.111-1.048-.332-1.483a2.517 2.517 0 0 0-.934-1.029c-.4-.251-.873-.377-1.419-.377-.6 0-1.12.149-1.559.448a2.945 2.945 0 0 0-1.004 1.15c-.234.473-.351.98-.351 1.521v.87c0 .741.127 1.37.383 1.885.26.512.62.902 1.08 1.17.461.264.995.396 1.605.396.396 0 .754-.055 1.074-.166a2.29 2.29 0 0 0 .837-.511c.234-.23.416-.516.543-.857l1.458.409a3.226 3.226 0 0 1-.774 1.304 3.764 3.764 0 0 1-1.342.87c-.533.204-1.131.307-1.796.307ZM842.09 185h-1.585a3.306 3.306 0 0 0-1.336-2.071 3.57 3.57 0 0 0-1.093-.537 4.378 4.378 0 0 0-1.253-.179c-.793 0-1.511.2-2.154.601-.639.4-1.149.991-1.528 1.771-.375.779-.562 1.736-.562 2.87 0 1.133.187 2.09.562 2.87.379.779.889 1.37 1.528 1.77a3.987 3.987 0 0 0 2.154.601c.435 0 .852-.06 1.253-.179.4-.119.765-.296 1.093-.53a3.4 3.4 0 0 0 .844-.876c.234-.35.398-.75.492-1.202h1.585a5.278 5.278 0 0 1-.652 1.796 4.896 4.896 0 0 1-1.176 1.349 5.145 5.145 0 0 1-1.579.837c-.579.192-1.2.288-1.86.288-1.117 0-2.109-.273-2.979-.818-.869-.546-1.553-1.321-2.052-2.327-.498-1.006-.747-2.199-.747-3.579 0-1.381.249-2.574.747-3.58.499-1.006 1.183-1.781 2.052-2.327.87-.545 1.862-.818 2.979-.818.66 0 1.281.096 1.86.288.584.192 1.11.473 1.579.844.469.366.861.813 1.176 1.342.315.524.533 1.123.652 1.796Zm6.346 9.205c-.887 0-1.664-.211-2.333-.633-.665-.422-1.185-1.012-1.56-1.771-.371-.758-.556-1.645-.556-2.659 0-1.023.185-1.915.556-2.678.375-.763.895-1.355 1.56-1.777.669-.422 1.446-.633 2.333-.633.886 0 1.662.211 2.326.633.669.422 1.189 1.014 1.56 1.777.375.763.563 1.655.563 2.678 0 1.014-.188 1.901-.563 2.659-.371.759-.891 1.349-1.56 1.771-.664.422-1.44.633-2.326.633Zm0-1.356c.673 0 1.227-.172 1.662-.517.434-.345.756-.799.965-1.362a5.206 5.206 0 0 0 .313-1.828c0-.656-.104-1.268-.313-1.834a3.102 3.102 0 0 0-.965-1.375c-.435-.349-.989-.524-1.662-.524-.674 0-1.228.175-1.662.524-.435.35-.757.808-.965 1.375a5.257 5.257 0 0 0-.314 1.834c0 .656.105 1.266.314 1.828.208.563.53 1.017.965 1.362.434.345.988.517 1.662.517Zm8.26-11.94V194h-1.509v-13.091h1.509Zm4.271 0V194h-1.508v-13.091h1.508Zm6.88 13.296c-.946 0-1.762-.209-2.448-.627a4.207 4.207 0 0 1-1.579-1.764c-.367-.759-.55-1.641-.55-2.646 0-1.006.183-1.892.55-2.659.371-.772.886-1.373 1.547-1.803.664-.435 1.44-.652 2.326-.652.512 0 1.017.085 1.515.256.499.17.953.447 1.362.831.409.379.735.882.978 1.508.243.627.364 1.398.364 2.314v.639h-7.568v-1.304h6.034c0-.554-.111-1.048-.332-1.483a2.517 2.517 0 0 0-.934-1.029c-.4-.251-.873-.377-1.419-.377-.6 0-1.12.149-1.559.448a2.945 2.945 0 0 0-1.004 1.15c-.234.473-.351.98-.351 1.521v.87c0 .741.127 1.37.383 1.885.26.512.62.902 1.08 1.17.461.264.995.396 1.605.396.396 0 .754-.055 1.074-.166.323-.115.603-.285.837-.511a2.33 2.33 0 0 0 .543-.857l1.458.409a3.237 3.237 0 0 1-.774 1.304 3.764 3.764 0 0 1-1.342.87c-.533.204-1.131.307-1.796.307Zm10.348 0c-.92 0-1.713-.218-2.377-.652-.665-.435-1.176-1.034-1.534-1.797-.358-.762-.537-1.634-.537-2.614 0-.997.183-1.877.549-2.64.371-.767.887-1.366 1.547-1.796.665-.435 1.441-.652 2.327-.652.69 0 1.312.128 1.866.384a3.572 3.572 0 0 1 1.362 1.073c.354.461.573.998.658 1.611h-1.508c-.115-.447-.371-.844-.767-1.189-.392-.349-.921-.524-1.586-.524-.588 0-1.103.153-1.546.46-.439.303-.782.731-1.03 1.285-.242.55-.364 1.195-.364 1.937 0 .758.119 1.419.358 1.981.243.563.584 1 1.023 1.311.443.311.963.466 1.559.466a2.7 2.7 0 0 0 1.068-.204c.32-.136.59-.333.812-.588.221-.256.379-.563.473-.921h1.508a3.484 3.484 0 0 1-1.956 2.666c-.545.268-1.18.403-1.905.403Zm10.336-10.023v1.278h-5.088v-1.278h5.088Zm-3.605-2.352h1.509v9.358c0 .426.062.745.185.958.128.209.29.35.486.422.2.068.411.102.633.102.166 0 .302-.008.409-.025l.256-.051.306 1.355a3.064 3.064 0 0 1-.428.115 3.126 3.126 0 0 1-.697.064c-.426 0-.843-.092-1.252-.275a2.482 2.482 0 0 1-1.01-.837c-.265-.375-.397-.848-.397-1.419v-9.767Zm9.758 12.375c-.887 0-1.664-.211-2.333-.633-.665-.422-1.185-1.012-1.56-1.771-.371-.758-.556-1.645-.556-2.659 0-1.023.185-1.915.556-2.678.375-.763.895-1.355 1.56-1.777.669-.422 1.446-.633 2.333-.633.886 0 1.662.211 2.326.633.67.422 1.189 1.014 1.56 1.777.375.763.563 1.655.563 2.678 0 1.014-.188 1.901-.563 2.659-.371.759-.89 1.349-1.56 1.771-.664.422-1.44.633-2.326.633Zm0-1.356c.673 0 1.227-.172 1.662-.517.434-.345.756-.799.965-1.362a5.206 5.206 0 0 0 .313-1.828c0-.656-.104-1.268-.313-1.834a3.102 3.102 0 0 0-.965-1.375c-.435-.349-.989-.524-1.662-.524-.674 0-1.228.175-1.662.524-.435.35-.757.808-.965 1.375a5.257 5.257 0 0 0-.314 1.834c0 .656.105 1.266.314 1.828.208.563.53 1.017.965 1.362.434.345.988.517 1.662.517Zm6.751 1.151v-9.818h1.458v1.483h.102c.179-.486.503-.88.972-1.183a2.862 2.862 0 0 1 1.585-.454c.111 0 .249.003.415.007.167.004.292.01.377.019v1.534a4.176 4.176 0 0 0-.351-.057 3.445 3.445 0 0 0-.569-.045c-.477 0-.903.1-1.278.3a2.274 2.274 0 0 0-.883.818 2.21 2.21 0 0 0-.319 1.183V194h-1.509Zm-99.183 15.455c0-1.611.208-3.092.626-4.443a13.86 13.86 0 0 1 1.803-3.739h1.329a8.248 8.248 0 0 0-.863 1.559 15.332 15.332 0 0 0-.697 2.027c-.2.733-.357 1.491-.473 2.275-.11.784-.166 1.558-.166 2.321 0 1.014.098 2.043.294 3.087a17.79 17.79 0 0 0 .793 2.908c.332.895.703 1.624 1.112 2.186h-1.329a13.867 13.867 0 0 1-1.803-3.733c-.418-1.355-.626-2.838-.626-4.448Zm6.189 6.545v-13.091h1.585v6.494h.153l5.881-6.494h2.071l-5.497 5.906 5.497 7.185h-1.918l-4.551-6.085-1.636 1.841V216h-1.585Zm13.046-5.906V216h-1.509v-9.818h1.458v1.534h.128c.23-.499.579-.899 1.048-1.202.469-.307 1.074-.46 1.815-.46.665 0 1.247.136 1.745.409.499.269.887.678 1.164 1.227.277.546.415 1.236.415 2.071V216h-1.508v-6.136c0-.772-.201-1.373-.601-1.803-.401-.435-.951-.652-1.649-.652-.482 0-.912.104-1.292.313a2.242 2.242 0 0 0-.888.914c-.217.401-.326.887-.326 1.458Zm13.009 6.111c-.886 0-1.664-.211-2.333-.633-.665-.422-1.184-1.012-1.559-1.771-.371-.758-.557-1.645-.557-2.659 0-1.023.186-1.915.557-2.678.375-.763.894-1.355 1.559-1.777.669-.422 1.447-.633 2.333-.633.887 0 1.662.211 2.327.633.669.422 1.189 1.014 1.56 1.777.375.763.562 1.655.562 2.678 0 1.014-.187 1.901-.562 2.659-.371.759-.891 1.349-1.56 1.771-.665.422-1.44.633-2.327.633Zm0-1.356c.674 0 1.228-.172 1.662-.517.435-.345.757-.799.965-1.362a5.207 5.207 0 0 0 .314-1.828c0-.656-.105-1.268-.314-1.834a3.087 3.087 0 0 0-.965-1.375c-.434-.349-.988-.524-1.662-.524-.673 0-1.227.175-1.662.524-.434.35-.756.808-.965 1.375a5.256 5.256 0 0 0-.313 1.834c0 .656.104 1.266.313 1.828.209.563.531 1.017.965 1.362.435.345.989.517 1.662.517Zm8.642 1.151-2.991-9.818h1.585l2.122 7.517h.102l2.097-7.517h1.611l2.071 7.491h.102l2.122-7.491h1.586L850.553 216h-1.483l-2.148-7.543h-.153L844.621 216h-1.483Zm13.909-5.906V216h-1.508v-13.091h1.508v4.807h.128c.23-.507.576-.91 1.036-1.208.464-.303 1.082-.454 1.853-.454.669 0 1.255.134 1.758.403.503.264.893.671 1.17 1.221.281.545.422 1.24.422 2.083V216h-1.509v-6.136c0-.78-.202-1.383-.607-1.809-.4-.431-.957-.646-1.668-.646-.495 0-.938.104-1.33.313a2.292 2.292 0 0 0-.92.914c-.222.401-.333.887-.333 1.458Zm13.243 6.111c-.946 0-1.762-.209-2.448-.627a4.207 4.207 0 0 1-1.579-1.764c-.366-.759-.55-1.641-.55-2.646 0-1.006.184-1.892.55-2.659.371-.772.887-1.373 1.547-1.803.665-.435 1.44-.652 2.327-.652.511 0 1.016.085 1.515.256.498.17.952.447 1.361.831.409.379.735.882.978 1.508.243.627.364 1.398.364 2.314v.639h-7.568v-1.304h6.034c0-.554-.11-1.048-.332-1.483a2.508 2.508 0 0 0-.933-1.029c-.401-.251-.874-.377-1.419-.377-.601 0-1.121.149-1.56.448a2.934 2.934 0 0 0-1.003 1.15c-.235.473-.352.98-.352 1.521v.87c0 .741.128 1.37.383 1.885.26.512.62.902 1.081 1.17.46.264.995.396 1.604.396.396 0 .754-.055 1.074-.166a2.29 2.29 0 0 0 .837-.511c.235-.23.416-.516.544-.857l1.457.409a3.224 3.224 0 0 1-.773 1.304c-.363.371-.81.661-1.343.87-.532.204-1.131.307-1.796.307Zm6.36-.205v-9.818h1.458v1.483h.102c.179-.486.503-.88.971-1.183a2.868 2.868 0 0 1 1.586-.454c.11 0 .249.003.415.007.166.004.292.01.377.019v1.534a4.176 4.176 0 0 0-.351-.057 3.445 3.445 0 0 0-.569-.045c-.477 0-.904.1-1.279.3-.37.196-.664.469-.882.818a2.21 2.21 0 0 0-.319 1.183V216h-1.509Zm10.515.205c-.946 0-1.762-.209-2.448-.627a4.207 4.207 0 0 1-1.579-1.764c-.366-.759-.55-1.641-.55-2.646 0-1.006.184-1.892.55-2.659.371-.772.887-1.373 1.547-1.803.665-.435 1.44-.652 2.327-.652.511 0 1.016.085 1.515.256.498.17.952.447 1.361.831.409.379.735.882.978 1.508.243.627.364 1.398.364 2.314v.639h-7.568v-1.304h6.034c0-.554-.11-1.048-.332-1.483a2.508 2.508 0 0 0-.933-1.029c-.401-.251-.874-.377-1.419-.377-.601 0-1.121.149-1.56.448a2.934 2.934 0 0 0-1.003 1.15c-.235.473-.352.98-.352 1.521v.87c0 .741.128 1.37.383 1.885.26.512.62.902 1.081 1.17.46.264.995.396 1.604.396.396 0 .754-.055 1.074-.166a2.29 2.29 0 0 0 .837-.511c.235-.23.416-.516.544-.857l1.457.409a3.224 3.224 0 0 1-.773 1.304c-.363.371-.81.661-1.343.87-.532.204-1.131.307-1.796.307Zm9.582-5.728c0 1.611-.211 3.094-.633 4.449a13.745 13.745 0 0 1-1.796 3.733h-1.33a7.99 7.99 0 0 0 .857-1.56c.268-.613.503-1.287.703-2.019.2-.738.356-1.498.467-2.282.115-.789.172-1.562.172-2.321 0-1.014-.098-2.043-.294-3.087a17.664 17.664 0 0 0-.793-2.908c-.332-.895-.703-1.624-1.112-2.187h1.33a13.73 13.73 0 0 1 1.796 3.74c.422 1.351.633 2.831.633 4.442ZM773.193 84v-1.994l4.66-4.315a18 18 0 0 0 .997-1.035c.273-.307.479-.608.62-.902a2.23 2.23 0 0 0 .211-.965c0-.383-.088-.714-.262-.99a1.725 1.725 0 0 0-.716-.646 2.246 2.246 0 0 0-1.029-.23c-.401 0-.75.08-1.049.242a1.675 1.675 0 0 0-.69.697c-.162.303-.243.663-.243 1.08h-2.627c0-.856.194-1.6.582-2.23a3.885 3.885 0 0 1 1.63-1.464c.699-.345 1.504-.518 2.416-.518.937 0 1.753.166 2.448.499.699.328 1.242.784 1.63 1.368.388.583.582 1.252.582 2.007 0 .494-.098.982-.294 1.463-.192.482-.535 1.017-1.029 1.605-.495.584-1.191 1.285-2.091 2.103l-1.911 1.873v.09h5.497V84h-9.332Zm16.471.288c-1.1-.005-2.046-.275-2.838-.812-.789-.537-1.396-1.315-1.822-2.333-.422-1.019-.631-2.244-.627-3.676 0-1.427.211-2.644.633-3.65.426-1.005 1.034-1.77 1.822-2.294.793-.529 1.736-.793 2.832-.793 1.095 0 2.037.264 2.825.793.793.528 1.402 1.295 1.828 2.3.426 1.002.637 2.217.633 3.644 0 1.436-.213 2.664-.639 3.682-.422 1.019-1.027 1.796-1.816 2.333-.788.537-1.732.806-2.831.806Zm0-2.295c.75 0 1.348-.377 1.796-1.131.447-.755.669-1.886.665-3.395 0-.993-.103-1.82-.307-2.48-.201-.66-.486-1.157-.857-1.49a1.867 1.867 0 0 0-1.297-.498c-.746 0-1.343.373-1.79 1.119-.448.746-.673 1.862-.678 3.35 0 1.005.1 1.844.301 2.518.204.669.492 1.172.863 1.508.37.333.805.499 1.304.499Zm12.955-11.084V84h-2.768V73.536h-.077l-2.998 1.88V72.96l3.241-2.052h2.602Zm2.913 10.79v-2.18l5.465-8.61h1.879v3.017h-1.112l-3.445 5.453v.102h7.766v2.218h-10.553ZM811.815 84v-2.966l.051-.965v-9.16h2.596V84h-2.647Zm-42.405 22V92.91h4.424c1.022 0 1.862.174 2.518.523.656.345 1.142.82 1.458 1.426.315.605.473 1.293.473 2.064 0 .772-.158 1.456-.473 2.052-.316.597-.799 1.065-1.451 1.406-.652.337-1.486.505-2.5.505h-3.579v-1.431h3.528c.699 0 1.262-.103 1.688-.307.43-.205.741-.495.933-.87.196-.379.294-.83.294-1.355 0-.524-.098-.982-.294-1.374-.196-.392-.509-.695-.94-.908-.43-.217-.999-.326-1.706-.326h-2.787V106h-1.586Zm6.162-5.881 3.222 5.881h-1.841l-3.17-5.881h1.789Zm9.031 6.086c-.887 0-1.664-.211-2.333-.633-.665-.422-1.185-1.012-1.56-1.771-.371-.758-.556-1.645-.556-2.659 0-1.023.185-1.915.556-2.678.375-.763.895-1.355 1.56-1.777.669-.422 1.446-.633 2.333-.633.886 0 1.662.21 2.326.633.669.422 1.189 1.014 1.56 1.777.375.763.563 1.655.563 2.678 0 1.014-.188 1.901-.563 2.659-.371.759-.891 1.349-1.56 1.771-.664.422-1.44.633-2.326.633Zm0-1.356c.673 0 1.227-.172 1.662-.517.434-.345.756-.799.965-1.362a5.206 5.206 0 0 0 .313-1.828c0-.656-.104-1.268-.313-1.834a3.099 3.099 0 0 0-.965-1.375c-.435-.35-.989-.524-1.662-.524-.674 0-1.228.175-1.662.524a3.09 3.09 0 0 0-.965 1.374 5.263 5.263 0 0 0-.314 1.835c0 .656.105 1.266.314 1.828.208.563.53 1.017.965 1.362.434.345.988.517 1.662.517Zm8.26-4.755V106h-1.509v-9.818h1.458v1.534h.128a2.8 2.8 0 0 1 1.048-1.202c.469-.307 1.074-.46 1.815-.46.665 0 1.247.136 1.745.41.499.267.887.677 1.164 1.226.277.546.415 1.236.415 2.071V106h-1.508v-6.136c0-.772-.201-1.373-.601-1.803-.401-.435-.951-.652-1.649-.652-.482 0-.912.104-1.292.313a2.238 2.238 0 0 0-.888.914c-.217.4-.326.887-.326 1.458Zm11.91 6.136a3.996 3.996 0 0 1-1.694-.351 2.906 2.906 0 0 1-1.208-1.03c-.298-.451-.448-.997-.448-1.636 0-.562.111-1.018.333-1.368.221-.354.518-.631.888-.831.371-.2.78-.349 1.228-.447.451-.103.905-.183 1.361-.243.597-.077 1.08-.134 1.451-.173.375-.042.648-.113.818-.21.175-.099.262-.27.262-.512v-.051c0-.63-.172-1.12-.517-1.47-.341-.35-.859-.525-1.554-.525-.72 0-1.285.158-1.694.474-.409.315-.696.651-.863 1.01l-1.431-.512c.255-.597.596-1.061 1.022-1.393.431-.337.9-.571 1.407-.704a5.837 5.837 0 0 1 1.508-.204c.315 0 .678.038 1.087.115.413.073.812.224 1.195.454.388.23.71.577.965 1.042.256.464.384 1.086.384 1.866V106h-1.509v-1.33h-.076a2.638 2.638 0 0 1-.512.684c-.238.243-.556.45-.952.62-.396.171-.88.256-1.451.256Zm.23-1.355c.597 0 1.099-.117 1.508-.352a2.387 2.387 0 0 0 1.253-2.077v-1.381c-.064.077-.204.147-.422.211-.213.06-.46.113-.741.16a31.625 31.625 0 0 1-1.445.192 5.755 5.755 0 0 0-1.099.249 1.894 1.894 0 0 0-.818.505c-.205.222-.307.524-.307.908 0 .524.194.92.582 1.189.392.264.888.396 1.489.396Zm8.532-4.781V106h-1.509v-9.818h1.458v1.534h.127c.231-.499.58-.9 1.049-1.202.468-.307 1.074-.46 1.815-.46.665 0 1.247.136 1.745.41.499.267.886.677 1.163 1.226.277.546.416 1.236.416 2.071V106h-1.509v-6.136c0-.772-.2-1.373-.6-1.803-.401-.435-.951-.652-1.65-.652a2.63 2.63 0 0 0-1.291.313 2.238 2.238 0 0 0-.888.914c-.218.4-.326.887-.326 1.458ZM1094.34 58v-1.994l4.66-4.315c.4-.384.73-.729 1-1.035a4 4 0 0 0 .62-.902c.14-.298.21-.62.21-.965 0-.383-.09-.714-.26-.99a1.78 1.78 0 0 0-.72-.646c-.3-.154-.64-.23-1.03-.23-.4 0-.75.08-1.05.242-.29.162-.52.395-.69.697-.16.303-.24.663-.24 1.08h-2.63c0-.856.2-1.6.59-2.23.38-.631.93-1.119 1.63-1.464.7-.345 1.5-.518 2.41-.518.94 0 1.76.166 2.45.499.7.328 1.24.784 1.63 1.368.39.583.58 1.252.58 2.007 0 .494-.1.982-.29 1.464-.19.481-.54 1.016-1.03 1.604-.5.584-1.19 1.285-2.09 2.103l-1.91 1.873v.09h5.49V58h-9.33Zm16.47.288c-1.1-.005-2.04-.275-2.84-.812-.78-.537-1.39-1.315-1.82-2.333-.42-1.019-.63-2.244-.62-3.676 0-1.427.21-2.644.63-3.65.43-1.005 1.03-1.77 1.82-2.294.79-.529 1.74-.793 2.83-.793 1.1 0 2.04.264 2.83.793.79.528 1.4 1.295 1.83 2.3.42 1.002.63 2.217.63 3.644 0 1.436-.21 2.664-.64 3.682-.42 1.019-1.03 1.796-1.82 2.333-.78.537-1.73.806-2.83.806Zm0-2.295c.75 0 1.35-.377 1.8-1.132.45-.754.67-1.885.66-3.394 0-.993-.1-1.82-.3-2.48-.2-.66-.49-1.157-.86-1.49-.37-.331-.8-.498-1.3-.498-.74 0-1.34.373-1.79 1.119-.44.746-.67 1.862-.67 3.35 0 1.005.1 1.844.3 2.518.2.669.49 1.172.86 1.508.37.333.8.499 1.3.499Zm12.96-11.084V58H1121V47.536h-.08l-2.99 1.88V46.96l3.24-2.052h2.6Zm7.99 13.27c-.98 0-1.86-.16-2.62-.48-.77-.323-1.37-.764-1.8-1.323a3.034 3.034 0 0 1-.65-1.898c0-.546.12-1.046.37-1.502.25-.46.59-.842 1.02-1.144a3.35 3.35 0 0 1 1.45-.588v-.09c-.7-.14-1.27-.48-1.7-1.016a2.901 2.901 0 0 1-.66-1.886c0-.677.2-1.28.6-1.809.39-.532.94-.95 1.63-1.253.69-.306 1.48-.46 2.36-.46.89 0 1.67.154 2.36.46.7.307 1.24.727 1.64 1.26.39.528.59 1.129.6 1.802-.01.72-.23 1.349-.67 1.886-.43.537-1 .876-1.68 1.016v.09c.52.085 1 .28 1.42.588.43.302.77.684 1.02 1.144.26.456.39.956.39 1.502 0 .707-.22 1.34-.65 1.898-.44.559-1.04 1-1.81 1.324-.76.32-1.63.479-2.62.479Zm0-2.033c.44 0 .83-.078 1.15-.236.33-.162.59-.384.77-.665.19-.285.28-.614.28-.984 0-.38-.09-.714-.29-1.004a1.954 1.954 0 0 0-.78-.69c-.32-.17-.7-.256-1.13-.256-.42 0-.8.085-1.13.256-.33.166-.59.396-.78.69-.19.29-.29.624-.29 1.004 0 .37.1.698.28.984.18.281.44.503.77.665.33.158.72.236 1.15.236Zm0-5.848c.37 0 .7-.075.98-.224.29-.15.51-.356.67-.62.16-.264.25-.57.25-.914 0-.341-.09-.64-.25-.895a1.64 1.64 0 0 0-.66-.607c-.28-.15-.61-.224-.99-.224-.37 0-.7.075-.98.224-.29.145-.51.347-.67.607-.16.256-.24.554-.24.895 0 .345.08.65.24.914.17.264.39.47.67.62.29.149.62.224.98.224Zm-46.89 18.017V66.91h9.82v1.406h-4.12V80h-1.58V68.315h-4.12Zm13.57 5.779V80h-1.51V66.91h1.51v4.806h.13c.23-.507.57-.91 1.03-1.208.47-.303 1.08-.454 1.86-.454.66 0 1.25.134 1.75.403.51.264.9.67 1.17 1.22.28.546.42 1.24.42 2.084V80h-1.5v-6.136c0-.78-.21-1.383-.61-1.81-.4-.43-.96-.645-1.67-.645-.49 0-.94.104-1.33.313a2.3 2.3 0 0 0-.92.914c-.22.4-.33.887-.33 1.458Zm12.01 6.136a3.99 3.99 0 0 1-1.69-.351 2.905 2.905 0 0 1-1.21-1.03c-.3-.451-.45-.997-.45-1.636 0-.562.11-1.018.34-1.368.22-.353.51-.63.88-.83.38-.201.78-.35 1.23-.448.45-.102.91-.183 1.36-.243.6-.077 1.08-.134 1.45-.173.38-.042.65-.113.82-.21.18-.099.26-.27.26-.512v-.051c0-.63-.17-1.12-.51-1.47-.34-.35-.86-.525-1.56-.525-.72 0-1.28.158-1.69.474-.41.315-.7.651-.86 1.01l-1.43-.512c.25-.597.59-1.061 1.02-1.393.43-.337.9-.571 1.4-.704a5.928 5.928 0 0 1 1.51-.204c.32 0 .68.038 1.09.115.41.073.81.224 1.19.454.39.23.71.577.97 1.042.26.464.38 1.086.38 1.866V80h-1.51v-1.33h-.07c-.1.213-.27.442-.51.684-.24.243-.56.45-.96.62-.39.17-.88.256-1.45.256Zm.23-1.355c.6 0 1.1-.117 1.51-.352a2.334 2.334 0 0 0 1.25-2.077v-1.38c-.06.076-.2.146-.42.21-.21.06-.46.113-.74.16-.28.043-.55.081-.81.115-.26.03-.47.055-.63.077-.4.051-.76.134-1.1.25-.34.11-.61.278-.82.504-.21.222-.31.524-.31.908 0 .524.2.92.58 1.189.4.264.89.396 1.49.396Zm8.54-4.781V80h-1.51v-9.818h1.45v1.534h.13c.23-.499.58-.9 1.05-1.202.47-.307 1.07-.46 1.82-.46.66 0 1.24.136 1.74.41.5.267.89.677 1.16 1.226.28.546.42 1.236.42 2.071V80h-1.51v-6.136c0-.772-.2-1.373-.6-1.803-.4-.435-.95-.652-1.65-.652-.48 0-.91.104-1.29.313a2.23 2.23 0 0 0-.89.914c-.22.4-.32.887-.32 1.458Zm13 6.11c-.88 0-1.66-.21-2.33-.632-.66-.422-1.18-1.012-1.56-1.77-.37-.76-.55-1.646-.55-2.66 0-1.023.18-1.915.55-2.678.38-.763.9-1.355 1.56-1.777.67-.422 1.45-.633 2.33-.633.89 0 1.67.21 2.33.633.67.422 1.19 1.014 1.56 1.777.38.763.56 1.655.56 2.678 0 1.014-.18 1.9-.56 2.66-.37.758-.89 1.348-1.56 1.77-.66.422-1.44.632-2.33.632Zm0-1.355c.68 0 1.23-.172 1.67-.517.43-.345.75-.8.96-1.362.21-.562.32-1.172.32-1.828a5.24 5.24 0 0 0-.32-1.834 3.13 3.13 0 0 0-.96-1.375c-.44-.35-.99-.524-1.67-.524-.67 0-1.22.175-1.66.524-.43.35-.75.808-.96 1.374a5.24 5.24 0 0 0-.32 1.835c0 .656.11 1.266.32 1.828.21.563.53 1.017.96 1.362.44.345.99.517 1.66.517Zm13.71-6.468-1.35.383a2.887 2.887 0 0 0-.38-.658 1.764 1.764 0 0 0-.67-.537c-.28-.14-.64-.211-1.08-.211-.6 0-1.1.138-1.5.415-.39.273-.59.62-.59 1.042 0 .375.13.672.41.889.27.217.7.398 1.27.543l1.46.358c.88.213 1.53.54 1.96.978.43.435.65.995.65 1.681 0 .563-.16 1.066-.49 1.509-.32.443-.76.792-1.34 1.048-.57.256-1.24.383-2.01.383-1 0-1.83-.217-2.48-.651-.66-.435-1.07-1.07-1.25-1.905l1.43-.358c.14.528.4.924.78 1.189.38.264.88.396 1.5.396.7 0 1.26-.15 1.67-.447.42-.303.63-.665.63-1.087 0-.341-.12-.626-.36-.857-.24-.234-.6-.409-1.1-.524l-1.63-.383c-.9-.213-1.56-.544-1.99-.991-.41-.452-.62-1.016-.62-1.694 0-.554.15-1.044.47-1.47.31-.426.74-.76 1.28-1.004.55-.243 1.16-.364 1.85-.364.98 0 1.74.213 2.29.64.56.425.96.988 1.19 1.687ZM1025.29 102h-1.66l4.81-13.09h1.63l4.81 13.09h-1.66l-3.91-11.02h-.11l-3.91 11.02Zm.62-5.114h6.7v1.407h-6.7v-1.407Zm17.6-4.704-3.63 9.818h-1.53l-3.63-9.818h1.63l2.71 7.824h.11l2.71-7.824h1.63Zm5.76 10.023c-.95 0-1.76-.209-2.45-.627a4.216 4.216 0 0 1-1.58-1.764c-.36-.759-.55-1.64-.55-2.646s.19-1.892.55-2.66c.37-.77.89-1.372 1.55-1.802.66-.435 1.44-.652 2.33-.652.51 0 1.01.085 1.51.256.5.17.95.447 1.36.83.41.38.74.883.98 1.51.24.626.36 1.397.36 2.313v.64h-7.56v-1.305h6.03c0-.554-.11-1.048-.33-1.483a2.55 2.55 0 0 0-.93-1.029c-.41-.251-.88-.377-1.42-.377-.6 0-1.12.15-1.56.447a2.97 2.97 0 0 0-1.01 1.151c-.23.473-.35.98-.35 1.521v.87c0 .741.13 1.37.38 1.885.26.512.62.902 1.09 1.17.46.264.99.396 1.6.396.4 0 .75-.055 1.07-.166.33-.115.61-.285.84-.511.24-.23.42-.516.54-.857l1.46.41a3.21 3.21 0 0 1-.77 1.303c-.36.371-.81.661-1.34.87-.54.204-1.14.307-1.8.307Zm7.87-6.111V102h-1.51v-9.818h1.46v1.534h.12c.24-.499.58-.9 1.05-1.202.47-.307 1.08-.46 1.82-.46.66 0 1.25.136 1.74.41.5.267.89.677 1.17 1.226.27.546.41 1.236.41 2.071V102h-1.51v-6.136c0-.772-.2-1.373-.6-1.803-.4-.435-.95-.652-1.65-.652-.48 0-.91.104-1.29.313-.37.21-.67.514-.89.914-.21.4-.32.887-.32 1.458Zm12.98 9.792c-.73 0-1.35-.093-1.88-.281-.52-.183-.96-.426-1.31-.729a3.967 3.967 0 0 1-.82-.958l1.2-.844c.14.179.31.383.52.614.21.234.49.436.85.607.37.174.85.262 1.44.262.79 0 1.45-.192 1.96-.575.52-.384.78-.985.78-1.803v-1.994h-.13c-.11.179-.27.4-.47.664-.2.26-.49.493-.87.697-.38.2-.88.301-1.52.301-.8 0-1.51-.188-2.14-.563-.62-.375-1.12-.92-1.49-1.636-.36-.716-.54-1.585-.54-2.608 0-1.006.18-1.882.53-2.627.35-.75.85-1.33 1.48-1.739.63-.413 1.36-.62 2.18-.62.64 0 1.15.106 1.52.32.38.208.67.447.87.716.21.264.36.481.48.651h.15v-1.56h1.46v10.1c0 .844-.2 1.53-.58 2.058-.38.533-.89.923-1.53 1.17-.64.252-1.35.377-2.14.377Zm-.05-5.395c.61 0 1.12-.138 1.54-.415.41-.277.73-.675.95-1.195.21-.52.32-1.142.32-1.867 0-.707-.1-1.331-.32-1.873-.21-.54-.52-.965-.94-1.272-.42-.306-.94-.46-1.55-.46-.64 0-1.17.162-1.6.486-.42.324-.74.758-.95 1.304-.21.545-.31 1.15-.31 1.815 0 .682.1 1.285.32 1.81.21.519.53.928.96 1.226.42.294.95.441 1.58.441Zm11.17 1.714c-.94 0-1.76-.209-2.44-.627-.69-.422-1.21-1.01-1.58-1.764-.37-.759-.55-1.64-.55-2.646s.18-1.892.55-2.66c.37-.77.88-1.372 1.54-1.802.67-.435 1.44-.652 2.33-.652.51 0 1.02.085 1.52.256.49.17.95.447 1.36.83.41.38.73.883.98 1.51.24.626.36 1.397.36 2.313v.64h-7.57v-1.305h6.04c0-.554-.12-1.048-.34-1.483a2.48 2.48 0 0 0-.93-1.029c-.4-.251-.87-.377-1.42-.377-.6 0-1.12.15-1.56.447-.43.295-.77.678-1 1.151-.24.473-.35.98-.35 1.521v.87c0 .741.12 1.37.38 1.885.26.512.62.902 1.08 1.17.46.264.99.396 1.6.396.4 0 .76-.055 1.08-.166.32-.115.6-.285.84-.511.23-.23.41-.516.54-.857l1.46.41c-.16.494-.42.928-.78 1.303-.36.371-.81.661-1.34.87-.53.204-1.13.307-1.8.307Zm6.36-.205v-9.818h1.46v1.483h.1c.18-.486.51-.88.98-1.183.46-.302.99-.454 1.58-.454.11 0 .25.002.42.007.16.004.29.01.37.019v1.534a3.788 3.788 0 0 0-.35-.057c-.18-.03-.37-.045-.57-.045-.47 0-.9.1-1.28.3-.37.196-.66.469-.88.818-.21.346-.32.74-.32 1.183V102h-1.51Zm13.66-7.62-1.36.384a2.298 2.298 0 0 0-.38-.658 1.807 1.807 0 0 0-.66-.537c-.28-.14-.64-.211-1.08-.211-.6 0-1.1.138-1.5.415-.4.273-.6.62-.6 1.042 0 .375.14.672.41.889.27.217.7.398 1.28.543l1.46.358c.87.213 1.53.54 1.96.978.43.435.65.995.65 1.681 0 .563-.17 1.066-.49 1.509-.32.443-.77.792-1.34 1.048-.58.256-1.25.384-2.01.384-1 0-1.83-.218-2.49-.652-.65-.435-1.07-1.07-1.24-1.905l1.43-.358c.14.528.39.924.77 1.189.39.264.89.396 1.5.396.71 0 1.27-.149 1.68-.447.42-.303.63-.665.63-1.087 0-.341-.12-.626-.36-.857-.24-.234-.61-.409-1.1-.524l-1.64-.383c-.9-.213-1.56-.544-1.98-.991-.42-.452-.63-1.016-.63-1.694 0-.554.16-1.044.47-1.47.32-.426.74-.76 1.29-1.004.54-.243 1.16-.364 1.85-.364.97 0 1.73.213 2.29.64.56.425.95.988 1.19 1.687Zm3.55 7.722c-.32 0-.59-.113-.82-.339a1.13 1.13 0 0 1-.34-.811c0-.316.12-.586.34-.812.23-.226.5-.339.82-.339.31 0 .58.113.81.339a1.131 1.131 0 0 1 .18 1.387 1.23 1.23 0 0 1-.42.422c-.17.102-.36.153-.57.153Zm0-7.287c-.32 0-.59-.113-.82-.338a1.132 1.132 0 0 1-.34-.812c0-.316.12-.586.34-.812.23-.226.5-.339.82-.339.31 0 .58.113.81.339a1.132 1.132 0 0 1 .18 1.387 1.23 1.23 0 0 1-.42.422c-.17.102-.36.153-.57.153Zm10.71-5.906V102h-1.59V88.91h1.59Zm4.48 7.185V102h-1.51v-9.818h1.46v1.534h.12c.23-.499.58-.9 1.05-1.202.47-.307 1.08-.46 1.82-.46.66 0 1.24.136 1.74.41.5.267.89.677 1.17 1.226.27.546.41 1.236.41 2.071V102h-1.51v-6.136c0-.772-.2-1.373-.6-1.803-.4-.435-.95-.652-1.65-.652-.48 0-.91.104-1.29.313-.37.21-.67.514-.89.914-.21.4-.32.887-.32 1.458Zm13.39-3.912v1.278h-5.29v-1.278h5.29Zm-3.71 9.818V90.827c0-.563.14-1.031.4-1.406.26-.376.61-.657 1.03-.844a3.24 3.24 0 0 1 1.33-.281c.38 0 .68.03.91.089.24.06.41.115.53.166l-.44 1.304a7.355 7.355 0 0 0-.32-.096c-.13-.038-.3-.057-.52-.057-.5 0-.86.125-1.08.377-.22.251-.33.62-.33 1.106V102h-1.51Zm5.82 0v-9.818h1.51V102h-1.51Zm.77-11.454c-.29 0-.55-.1-.76-.301a.958.958 0 0 1-.31-.722c0-.281.1-.522.31-.723.21-.2.47-.3.76-.3.3 0 .55.1.76.3.21.2.32.442.32.723 0 .281-.11.522-.32.722-.21.2-.46.3-.76.3Zm5.01 5.548V102h-1.5v-9.818h1.45v1.534h.13c.23-.499.58-.9 1.05-1.202.47-.307 1.07-.46 1.82-.46.66 0 1.24.136 1.74.41.5.267.89.677 1.16 1.226.28.546.42 1.236.42 2.071V102h-1.51v-6.136c0-.772-.2-1.373-.6-1.803-.4-.435-.95-.652-1.65-.652-.48 0-.91.104-1.29.313a2.23 2.23 0 0 0-.89.914c-.22.4-.33.887-.33 1.458Zm9.03 5.906v-9.818h1.5V102h-1.5Zm.76-11.454c-.29 0-.55-.1-.76-.301a.958.958 0 0 1-.31-.722c0-.281.1-.522.31-.723.21-.2.47-.3.76-.3.3 0 .55.1.76.3.21.2.32.442.32.723 0 .281-.11.522-.32.722-.21.2-.46.3-.76.3Zm7.78 1.636v1.278h-5.09v-1.278h5.09Zm-3.61-2.353h1.51v9.359c0 .426.06.745.19.958.12.209.29.35.48.422.2.068.41.102.63.102.17 0 .31-.008.41-.025.11-.021.2-.038.26-.051l.31 1.355c-.11.038-.25.077-.43.115-.19.043-.42.064-.7.064-.43 0-.84-.092-1.25-.275a2.463 2.463 0 0 1-1.01-.837c-.27-.375-.4-.848-.4-1.42V89.83Zm6.85 15.853c-.26 0-.49-.021-.69-.064-.2-.038-.34-.077-.41-.115l.38-1.33c.37.094.69.128.97.103.28-.026.53-.152.75-.378.22-.221.43-.581.61-1.08l.28-.767-3.63-9.87h1.64l2.71 7.825h.1l2.71-7.824h1.63l-4.16 11.25c-.19.507-.42.927-.7 1.259-.28.337-.6.586-.97.748-.36.162-.77.243-1.22.243Zm16.69-3.682-3.58-13.09h1.61l2.74 10.661h.13l2.78-10.662h1.79l2.79 10.662h.13l2.73-10.662h1.61L1187.93 102h-1.63l-2.89-10.432h-.1L1180.42 102h-1.64Zm16.48.23c-.62 0-1.19-.117-1.69-.351a2.906 2.906 0 0 1-1.21-1.03c-.3-.451-.45-.997-.45-1.636 0-.562.11-1.018.33-1.368.22-.353.52-.63.89-.83.37-.201.78-.35 1.23-.448.45-.102.9-.183 1.36-.243.6-.077 1.08-.134 1.45-.173.38-.042.65-.113.82-.21.17-.099.26-.27.26-.512v-.051c0-.63-.17-1.12-.52-1.47-.34-.35-.86-.525-1.55-.525-.72 0-1.29.158-1.69.474-.41.315-.7.651-.87 1.01l-1.43-.512c.26-.597.6-1.061 1.02-1.393.43-.337.9-.571 1.41-.704a5.812 5.812 0 0 1 1.51-.204c.31 0 .68.038 1.09.115.41.073.81.224 1.19.454.39.23.71.577.97 1.042.25.464.38 1.086.38 1.866V102h-1.51v-1.33h-.08c-.1.214-.27.442-.51.684-.24.243-.55.45-.95.62-.4.171-.88.256-1.45.256Zm.23-1.355c.6 0 1.1-.117 1.51-.352.41-.234.72-.536.93-.907.21-.371.32-.76.32-1.17v-1.38c-.06.076-.2.146-.42.21-.21.06-.46.113-.74.16-.28.043-.55.081-.81.115-.26.03-.48.055-.64.077-.39.051-.76.134-1.1.25-.33.11-.61.278-.81.504-.21.222-.31.524-.31.908 0 .524.19.92.58 1.189.39.264.89.396 1.49.396Zm7.02 1.125v-9.818h1.46v1.483h.1c.18-.486.51-.88.97-1.183.47-.302 1-.454 1.59-.454a13.407 13.407 0 0 1 .79.026v1.534a4.572 4.572 0 0 0-.35-.057c-.18-.03-.37-.045-.57-.045-.48 0-.9.1-1.28.3-.37.196-.66.469-.88.818-.21.346-.32.74-.32 1.183V102h-1.51Z"/>
</svg>
