<svg xmlns="http://www.w3.org/2000/svg" width="1216" height="186" fill="none" viewBox="0 0 1216 186">
  <path fill="#75BCF0" d="M56 89h1060v5H56z"/>
  <circle cx="56.5" cy="91.5" r="12" fill="#fff" stroke="#75BCF0" stroke-width="3"/>
  <circle cx="327.5" cy="91.5" r="8" fill="#fff" stroke="#75BCF0" stroke-width="3"/>
  <circle cx="748.5" cy="91.5" r="8" fill="#fff" stroke="#75BCF0" stroke-width="3"/>
  <circle cx="892.5" cy="91.5" r="8" fill="#fff" stroke="#75BCF0" stroke-width="3"/>
  <circle cx="801.5" cy="91.5" r="8" fill="#fff" stroke="#75BCF0" stroke-width="3"/>
  <circle cx="1115.5" cy="91.5" r="12" fill="#fff" stroke="#75BCF0" stroke-width="3"/>
  <path fill="#fff" d="M32.023 35h-1.586a3.294 3.294 0 0 0-1.335-2.071 3.583 3.583 0 0 0-1.094-.537c-.4-.12-.818-.179-1.252-.179-.793 0-1.511.2-2.154.6-.64.401-1.149.992-1.528 1.771-.375.78-.563 1.737-.563 2.87 0 1.134.188 2.09.563 2.87.379.78.888 1.37 1.527 1.771.644.4 1.362.601 2.155.601.434 0 .852-.06 1.252-.179.401-.12.765-.296 1.094-.53a3.356 3.356 0 0 0 1.336-2.077h1.585a5.282 5.282 0 0 1-.652 1.795 4.91 4.91 0 0 1-1.176 1.349 5.148 5.148 0 0 1-1.58.837 5.873 5.873 0 0 1-1.86.288c-1.116 0-2.109-.273-2.978-.818-.87-.546-1.553-1.321-2.052-2.327-.498-1.006-.748-2.199-.748-3.58 0-1.38.25-2.573.748-3.579.499-1.006 1.183-1.781 2.052-2.327.87-.545 1.862-.818 2.979-.818.66 0 1.28.096 1.86.288.584.191 1.11.473 1.579.843.468.367.86.814 1.176 1.343.315.524.532 1.123.652 1.796Zm2.357 9v-9.818h1.457v1.483h.102c.18-.486.503-.88.972-1.183a2.86 2.86 0 0 1 1.585-.454c.111 0 .25.003.416.007.166.004.292.01.377.019v1.534a4.466 4.466 0 0 0-.352-.057 3.462 3.462 0 0 0-.569-.045c-.477 0-.903.1-1.278.3-.37.196-.665.469-.882.818a2.21 2.21 0 0 0-.32 1.183V44H34.38Zm10.515.205c-.946 0-1.763-.21-2.449-.627a4.205 4.205 0 0 1-1.578-1.764c-.367-.759-.55-1.64-.55-2.646s.183-1.892.55-2.66c.37-.77.886-1.372 1.546-1.802.665-.435 1.44-.652 2.327-.652.512 0 1.017.085 1.515.256.499.17.953.447 1.362.83.409.38.735.883.978 1.51.243.626.364 1.397.364 2.313v.64h-7.568v-1.305h6.034c0-.554-.11-1.048-.333-1.483a2.504 2.504 0 0 0-.933-1.029c-.4-.251-.873-.377-1.419-.377-.6 0-1.12.15-1.56.447a2.952 2.952 0 0 0-1.003 1.151 3.38 3.38 0 0 0-.352 1.521v.87c0 .741.128 1.37.384 1.885.26.512.62.902 1.08 1.17.46.264.995.396 1.605.396.396 0 .754-.055 1.073-.166.324-.115.603-.285.838-.511a2.33 2.33 0 0 0 .543-.857l1.458.41a3.232 3.232 0 0 1-.774 1.303c-.362.371-.81.66-1.342.87-.533.204-1.132.306-1.796.306Zm9.249.025a3.99 3.99 0 0 1-1.694-.351 2.907 2.907 0 0 1-1.208-1.03c-.298-.451-.447-.997-.447-1.636 0-.562.11-1.018.332-1.368.221-.353.518-.63.888-.83.371-.201.78-.35 1.228-.448.451-.102.905-.184 1.361-.243.597-.077 1.08-.134 1.451-.173.375-.042.648-.113.818-.21.175-.099.262-.27.262-.512v-.051c0-.63-.172-1.12-.517-1.47-.341-.35-.859-.525-1.554-.525-.72 0-1.284.158-1.694.473-.409.316-.696.652-.862 1.01l-1.432-.51c.255-.598.596-1.062 1.023-1.394a3.84 3.84 0 0 1 1.406-.704 5.841 5.841 0 0 1 1.508-.204c.316 0 .678.038 1.087.115a3.48 3.48 0 0 1 1.195.454c.388.23.71.577.965 1.042.256.464.384 1.086.384 1.866V44h-1.509v-1.33h-.076a2.656 2.656 0 0 1-.512.684c-.238.243-.556.45-.952.62-.396.17-.88.256-1.451.256Zm.23-1.355c.597 0 1.1-.117 1.508-.352a2.393 2.393 0 0 0 1.253-2.077v-1.38c-.063.076-.204.146-.421.21a7.08 7.08 0 0 1-.742.16 33.842 33.842 0 0 1-1.445.192 5.772 5.772 0 0 0-1.099.25c-.337.11-.61.278-.818.504-.205.222-.307.524-.307.908 0 .524.194.92.582 1.189.392.264.888.396 1.489.396Zm11.293-8.693v1.278H60.58v-1.278h5.088Zm-3.605-2.353h1.509v9.358c0 .427.061.746.185.96.128.208.29.349.486.421.2.068.411.102.633.102.166 0 .302-.008.409-.025l.255-.051.307 1.355a3.068 3.068 0 0 1-.428.115 3.155 3.155 0 0 1-.697.064c-.426 0-.844-.092-1.253-.275a2.489 2.489 0 0 1-1.01-.837c-.264-.375-.396-.848-.396-1.42V31.83ZM67.936 44v-9.818h1.509V44h-1.509Zm.767-11.455c-.294 0-.547-.1-.76-.3a.965.965 0 0 1-.314-.722c0-.282.105-.522.314-.723.213-.2.466-.3.76-.3s.546.1.755.3c.213.2.32.441.32.723a.956.956 0 0 1-.32.722c-.21.2-.46.3-.755.3Zm7.493 11.66c-.886 0-1.664-.211-2.333-.633-.664-.422-1.184-1.012-1.56-1.77-.37-.76-.555-1.646-.555-2.66 0-1.023.185-1.915.556-2.678.375-.763.895-1.355 1.56-1.777.668-.422 1.446-.633 2.332-.633.887 0 1.662.21 2.327.633.67.422 1.19 1.014 1.56 1.777.375.763.562 1.655.562 2.678 0 1.014-.187 1.9-.562 2.66-.37.758-.89 1.348-1.56 1.77-.665.422-1.44.633-2.326.633Zm0-1.356c.674 0 1.228-.172 1.662-.517.435-.346.757-.8.966-1.362a5.213 5.213 0 0 0 .313-1.828 5.29 5.29 0 0 0-.313-1.835 3.092 3.092 0 0 0-.966-1.374c-.434-.35-.988-.524-1.662-.524-.673 0-1.227.175-1.662.524-.434.35-.756.808-.965 1.374a5.266 5.266 0 0 0-.313 1.835c0 .656.105 1.266.313 1.828.21.563.53 1.017.965 1.362.435.345.99.517 1.662.517Zm8.26-4.755V44h-1.508v-9.818h1.458v1.534h.127c.23-.499.58-.9 1.049-1.202.468-.307 1.074-.46 1.815-.46.665 0 1.246.136 1.745.41.499.267.886.677 1.163 1.226.277.546.416 1.236.416 2.071V44h-1.509v-6.136c0-.772-.2-1.372-.6-1.803-.401-.435-.95-.652-1.65-.652-.481 0-.912.105-1.29.313a2.24 2.24 0 0 0-.89.914c-.217.4-.325.887-.325 1.458Zm-70.739 21.36c0-1.61.21-3.091.627-4.442a13.86 13.86 0 0 1 1.802-3.74h1.33a8.239 8.239 0 0 0-.863 1.56 15.207 15.207 0 0 0-.697 2.027c-.2.733-.358 1.491-.473 2.275a16.57 16.57 0 0 0-.166 2.32c0 1.015.098 2.044.294 3.088.196 1.044.46 2.013.793 2.908.332.895.703 1.624 1.112 2.186h-1.33a13.882 13.882 0 0 1-1.802-3.733c-.418-1.355-.627-2.838-.627-4.448ZM19.907 66V52.91h4.576c.912 0 1.664.157 2.257.472.592.311 1.033.73 1.323 1.26.29.523.434 1.105.434 1.744 0 .563-.1 1.027-.3 1.394a2.336 2.336 0 0 1-.78.87c-.32.212-.667.37-1.042.472v.128c.4.026.803.166 1.208.422.405.256.744.622 1.017 1.1.272.477.409 1.06.409 1.75 0 .657-.15 1.247-.448 1.771-.298.524-.769.94-1.412 1.247-.644.307-1.481.46-2.512.46h-4.73Zm1.585-1.406h3.145c1.035 0 1.77-.2 2.205-.601.439-.405.658-.895.658-1.47 0-.444-.113-.853-.338-1.228a2.451 2.451 0 0 0-.966-.907c-.417-.23-.912-.345-1.483-.345h-3.221v4.55Zm0-5.932h2.94a2.9 2.9 0 0 0 1.291-.281c.388-.188.695-.452.92-.793.23-.34.346-.741.346-1.202 0-.575-.2-1.063-.6-1.463-.401-.405-1.037-.608-1.906-.608h-2.991v4.347ZM31.409 66v-9.818h1.508V66H31.41Zm.767-11.455c-.294 0-.548-.1-.76-.3a.965.965 0 0 1-.314-.722.97.97 0 0 1 .313-.723c.213-.2.467-.3.761-.3s.545.1.754.3c.213.2.32.442.32.723a.956.956 0 0 1-.32.722c-.209.2-.46.3-.754.3Zm7.468 15.341c-.73 0-1.356-.093-1.88-.28-.524-.184-.96-.427-1.31-.73a3.987 3.987 0 0 1-.825-.958l1.202-.844c.136.179.309.383.518.614.209.234.494.436.856.607.367.174.846.262 1.439.262.792 0 1.446-.192 1.962-.576.515-.383.773-.984.773-1.802v-1.994h-.127a8.08 8.08 0 0 1-.474.664c-.2.26-.49.493-.869.697-.375.2-.882.3-1.521.3-.793 0-1.504-.187-2.135-.562-.627-.375-1.123-.92-1.49-1.636-.362-.716-.543-1.586-.543-2.608 0-1.006.177-1.882.53-2.627.355-.75.847-1.33 1.477-1.739.631-.413 1.36-.62 2.186-.62.64 0 1.147.106 1.522.32.379.208.669.447.87.715.204.265.361.482.472.653h.154v-1.56h1.457v10.1c0 .843-.192 1.53-.575 2.058a3.29 3.29 0 0 1-1.535 1.17c-.639.25-1.35.376-2.134.376Zm-.052-5.394c.605 0 1.117-.139 1.535-.416.417-.277.735-.675.952-1.195.217-.52.326-1.142.326-1.867 0-.707-.107-1.332-.32-1.873-.213-.54-.528-.965-.946-1.272-.417-.306-.933-.46-1.547-.46-.639 0-1.172.162-1.598.486-.422.324-.739.758-.952 1.304a5.04 5.04 0 0 0-.313 1.815c0 .682.106 1.285.32 1.81.217.519.536.928.958 1.226.426.294.955.442 1.585.442ZM51.916 66V52.91h4.577c.912 0 1.664.157 2.256.472.593.311 1.034.73 1.323 1.26.29.523.435 1.105.435 1.744 0 .563-.1 1.027-.3 1.394a2.337 2.337 0 0 1-.78.87c-.32.212-.667.37-1.042.472v.128c.4.026.803.166 1.208.422.405.256.744.622 1.016 1.1.273.477.41 1.06.41 1.75 0 .657-.15 1.247-.448 1.771-.298.524-.77.94-1.413 1.247-.643.307-1.48.46-2.512.46h-4.73Zm1.586-1.406h3.144c1.036 0 1.771-.2 2.206-.601.439-.405.658-.895.658-1.47 0-.444-.113-.853-.339-1.228a2.451 2.451 0 0 0-.965-.907c-.418-.23-.912-.345-1.483-.345h-3.221v4.55Zm0-5.932h2.94a2.9 2.9 0 0 0 1.291-.281c.388-.188.695-.452.92-.793.23-.34.346-.741.346-1.202 0-.575-.2-1.063-.601-1.463-.4-.405-1.036-.608-1.905-.608h-2.992v4.347Zm12.806 7.568a3.99 3.99 0 0 1-1.694-.351 2.907 2.907 0 0 1-1.208-1.03c-.298-.451-.447-.997-.447-1.636 0-.562.11-1.018.332-1.368.222-.353.518-.63.888-.83.371-.201.78-.35 1.228-.448.451-.102.905-.184 1.361-.243.597-.077 1.08-.134 1.451-.173.375-.042.648-.113.818-.21.175-.099.262-.27.262-.512v-.051c0-.63-.172-1.12-.517-1.47-.341-.35-.859-.525-1.554-.525-.72 0-1.284.158-1.694.473-.409.316-.696.652-.862 1.01l-1.432-.51c.255-.598.596-1.062 1.023-1.394a3.84 3.84 0 0 1 1.406-.704 5.84 5.84 0 0 1 1.508-.204c.316 0 .678.038 1.087.115a3.48 3.48 0 0 1 1.195.454c.388.23.71.577.965 1.042.256.464.384 1.086.384 1.866V66h-1.509v-1.33h-.076a2.655 2.655 0 0 1-.512.684c-.238.243-.556.45-.952.62-.396.17-.88.256-1.451.256Zm.23-1.355c.597 0 1.1-.117 1.509-.352a2.392 2.392 0 0 0 1.252-2.077v-1.38c-.064.076-.204.146-.421.21-.213.06-.46.113-.742.16a33.842 33.842 0 0 1-1.444.192 5.77 5.77 0 0 0-1.1.25c-.337.11-.61.278-.818.504-.205.222-.307.524-.307.908 0 .524.194.92.582 1.189.392.264.888.396 1.49.396Zm8.532-4.781V66h-1.51v-9.818h1.458v1.534h.128c.23-.499.58-.9 1.048-1.202.469-.307 1.074-.46 1.815-.46.665 0 1.247.136 1.745.41.499.267.887.677 1.164 1.226.277.546.415 1.236.415 2.071V66h-1.508v-6.136c0-.772-.2-1.372-.601-1.803-.4-.435-.95-.652-1.65-.652-.481 0-.911.105-1.29.313a2.24 2.24 0 0 0-.89.914c-.216.4-.325.887-.325 1.458Zm12.984 9.792c-.729 0-1.355-.093-1.88-.28-.524-.184-.96-.427-1.31-.73a3.987 3.987 0 0 1-.825-.958l1.202-.844c.137.179.31.383.518.614.209.234.494.436.856.607.367.174.846.262 1.439.262.792 0 1.446-.192 1.962-.576.516-.383.773-.984.773-1.802v-1.994h-.127a8.28 8.28 0 0 1-.473.664c-.2.26-.49.493-.87.697-.375.2-.882.3-1.521.3-.793 0-1.504-.187-2.135-.562-.626-.375-1.123-.92-1.49-1.636-.362-.716-.543-1.586-.543-2.608 0-1.006.177-1.882.531-2.627.354-.75.846-1.33 1.477-1.739.63-.413 1.359-.62 2.186-.62.639 0 1.146.106 1.52.32.38.208.67.447.87.715.205.265.362.482.473.653h.154v-1.56h1.457v10.1c0 .843-.192 1.53-.575 2.058-.38.532-.89.922-1.534 1.17-.64.25-1.351.376-2.135.376Zm-.051-5.394c.605 0 1.116-.139 1.534-.416.417-.277.735-.675.952-1.195.217-.52.326-1.142.326-1.867 0-.707-.106-1.332-.32-1.873-.213-.54-.528-.965-.946-1.272-.417-.306-.933-.46-1.546-.46-.64 0-1.172.162-1.598.486-.422.324-.74.758-.953 1.304a5.04 5.04 0 0 0-.313 1.815c0 .682.107 1.285.32 1.81.217.519.537.928.958 1.226.427.294.955.442 1.586.442Zm10.278-4.015c0 1.611-.211 3.094-.633 4.45a13.738 13.738 0 0 1-1.796 3.732h-1.33a7.99 7.99 0 0 0 .857-1.56c.268-.613.503-1.287.703-2.02.2-.737.356-1.497.467-2.281a16.05 16.05 0 0 0 .172-2.32c0-1.015-.098-2.044-.294-3.088a17.753 17.753 0 0 0-.792-2.909c-.333-.894-.703-1.623-1.113-2.186h1.33a13.716 13.716 0 0 1 1.796 3.74c.422 1.35.633 2.832.633 4.442ZM284.888 22v-1.994l4.66-4.315c.396-.384.729-.729.997-1.036.273-.306.48-.607.62-.9a2.23 2.23 0 0 0 .211-.966c0-.383-.087-.714-.262-.99a1.72 1.72 0 0 0-.716-.646 2.24 2.24 0 0 0-1.029-.23c-.401 0-.75.08-1.048.242a1.672 1.672 0 0 0-.691.697c-.162.303-.242.663-.242 1.08h-2.628c0-.856.194-1.6.582-2.23a3.886 3.886 0 0 1 1.63-1.464c.699-.345 1.504-.518 2.416-.518.938 0 1.754.166 2.448.499.699.328 1.243.784 1.63 1.368.388.583.582 1.252.582 2.007 0 .494-.098.982-.294 1.464-.192.481-.535 1.016-1.029 1.604-.494.584-1.191 1.285-2.09 2.103l-1.912 1.873v.09h5.498V22h-9.333Zm16.075-13.27a5.65 5.65 0 0 1 1.943.339 4.488 4.488 0 0 1 1.675 1.08c.494.495.884 1.15 1.169 1.969.29.814.437 1.813.441 2.998 0 1.112-.125 2.105-.377 2.979-.247.869-.603 1.608-1.067 2.218a4.67 4.67 0 0 1-1.681 1.393c-.657.315-1.39.473-2.199.473-.874 0-1.645-.168-2.314-.505a4.344 4.344 0 0 1-1.617-1.387 4.314 4.314 0 0 1-.735-1.982h2.729c.106.478.33.848.671 1.113.341.26.763.39 1.266.39.852 0 1.5-.371 1.943-1.113.443-.745.667-1.766.671-3.062h-.089a3.14 3.14 0 0 1-.793.991 3.69 3.69 0 0 1-1.144.633 4.07 4.07 0 0 1-1.362.224c-.771 0-1.459-.181-2.064-.544a3.896 3.896 0 0 1-1.432-1.495c-.35-.635-.524-1.36-.524-2.174-.005-.877.198-1.66.607-2.345a4.278 4.278 0 0 1 1.713-1.611c.737-.392 1.594-.586 2.57-.582Zm.019 2.173c-.431 0-.814.103-1.151.307-.332.205-.596.48-.792.825-.192.345-.286.73-.282 1.157 0 .43.094.818.282 1.163.191.341.451.614.779.818.333.2.712.3 1.138.3a2.193 2.193 0 0 0 1.598-.67 2.35 2.35 0 0 0 .48-.736 2.35 2.35 0 0 0-.122-2.02 2.252 2.252 0 0 0-.792-.83 2.116 2.116 0 0 0-1.138-.314Zm12.01 11.276c-.984 0-1.86-.16-2.627-.48-.762-.323-1.361-.764-1.796-1.323a3.007 3.007 0 0 1-.652-1.898c0-.546.124-1.046.371-1.502.251-.46.592-.842 1.023-1.144a3.37 3.37 0 0 1 1.444-.588v-.09a2.838 2.838 0 0 1-1.7-1.016 2.922 2.922 0 0 1-.652-1.886c0-.677.198-1.28.594-1.809.397-.532.94-.95 1.63-1.253.695-.306 1.483-.46 2.365-.46.883 0 1.669.154 2.359.46.695.307 1.24.727 1.636 1.26.397.528.597 1.129.601 1.802a2.921 2.921 0 0 1-.664 1.886 2.86 2.86 0 0 1-1.688 1.016v.09c.524.085.999.28 1.425.588.431.302.772.684 1.023 1.144.256.456.386.957.39 1.502a3.042 3.042 0 0 1-.658 1.898c-.435.559-1.036 1-1.803 1.324-.763.32-1.636.479-2.621.479Zm0-2.033c.439 0 .823-.079 1.151-.236.328-.162.584-.384.767-.665a1.75 1.75 0 0 0 .281-.984c0-.38-.096-.714-.287-1.004a1.98 1.98 0 0 0-.78-.69 2.418 2.418 0 0 0-1.132-.256c-.421 0-.799.085-1.131.256a1.971 1.971 0 0 0-.786.69c-.188.29-.281.624-.281 1.004 0 .37.091.698.274.984.184.281.441.503.774.665.332.157.716.236 1.15.236Zm0-5.848c.367 0 .693-.075.978-.224.286-.15.51-.356.672-.62.162-.264.242-.57.242-.914a1.636 1.636 0 0 0-.907-1.502 2.073 2.073 0 0 0-.985-.224c-.37 0-.698.075-.984.224a1.658 1.658 0 0 0-.671.607 1.668 1.668 0 0 0-.237.895c0 .345.081.65.243.914.162.264.386.47.671.62.286.149.612.224.978.224Zm11.901 7.881c-.985 0-1.86-.16-2.627-.48-.763-.323-1.362-.764-1.796-1.323a3.007 3.007 0 0 1-.652-1.898 3.1 3.1 0 0 1 .37-1.502c.252-.46.593-.842 1.023-1.144a3.37 3.37 0 0 1 1.445-.588v-.09a2.84 2.84 0 0 1-1.701-1.016 2.927 2.927 0 0 1-.652-1.886c0-.677.199-1.28.595-1.809.396-.532.939-.95 1.63-1.253.694-.306 1.483-.46 2.365-.46.882 0 1.668.154 2.359.46.694.307 1.24.727 1.636 1.26.396.528.596 1.129.601 1.802a2.922 2.922 0 0 1-.665 1.886 2.856 2.856 0 0 1-1.688 1.016v.09c.525.085 1 .28 1.426.588.43.302.771.684 1.023 1.144.255.456.385.957.39 1.502a3.043 3.043 0 0 1-.659 1.898c-.435.559-1.035 1-1.802 1.324-.763.32-1.637.479-2.621.479Zm0-2.033c.439 0 .822-.079 1.15-.236.329-.162.584-.384.767-.665a1.75 1.75 0 0 0 .282-.984c0-.38-.096-.714-.288-1.004a1.98 1.98 0 0 0-.78-.69 2.417 2.417 0 0 0-1.131-.256c-.422 0-.799.085-1.132.256a1.971 1.971 0 0 0-.786.69 1.81 1.81 0 0 0-.281 1.004c0 .37.092.698.275.984.183.281.441.503.773.665.333.157.716.236 1.151.236Zm0-5.848c.366 0 .692-.075.978-.224.285-.15.509-.356.671-.62.162-.264.243-.57.243-.914a1.636 1.636 0 0 0-.908-1.502 2.07 2.07 0 0 0-.984-.224 2.1 2.1 0 0 0-.985.224 1.658 1.658 0 0 0-.671.607 1.676 1.676 0 0 0-.236.895c0 .345.081.65.243.914.162.264.385.47.671.62.285.149.611.224.978.224ZM336.152 22V8.91h5.242c.963 0 1.766.142 2.41.427.643.286 1.127.682 1.451 1.19.324.502.486 1.082.486 1.738 0 .511-.103.96-.307 1.349a2.653 2.653 0 0 1-.844.946 3.464 3.464 0 0 1-1.215.517v.128a2.93 2.93 0 0 1 1.4.422c.439.26.795.624 1.068 1.093.273.465.409 1.019.409 1.662 0 .695-.173 1.315-.518 1.86-.341.541-.846.97-1.515 1.285-.669.315-1.493.473-2.474.473h-5.593Zm2.768-2.263h2.257c.771 0 1.333-.147 1.687-.44.354-.3.531-.695.531-1.19 0-.362-.088-.682-.262-.959a1.781 1.781 0 0 0-.748-.652c-.32-.157-.701-.236-1.144-.236h-2.321v3.477Zm0-5.35h2.052c.379 0 .716-.066 1.01-.198.298-.136.533-.328.703-.575.175-.248.262-.544.262-.889 0-.473-.168-.854-.505-1.144-.332-.29-.805-.435-1.419-.435h-2.103v3.241Zm10.673 7.78a1.49 1.49 0 0 1-1.086-.448 1.491 1.491 0 0 1-.448-1.087c0-.418.149-.776.448-1.074a1.49 1.49 0 0 1 1.086-.447c.409 0 .767.149 1.074.447.307.299.46.657.46 1.074 0 .281-.072.54-.217.773-.141.23-.326.416-.556.557-.23.136-.484.204-.761.204Zm15.372-8.675h-2.8a2.748 2.748 0 0 0-.313-.965 2.45 2.45 0 0 0-.608-.729 2.665 2.665 0 0 0-.856-.46 3.277 3.277 0 0 0-1.042-.16c-.678 0-1.268.169-1.771.505-.502.333-.892.818-1.169 1.458-.277.635-.416 1.406-.416 2.313 0 .934.139 1.718.416 2.353.281.635.673 1.114 1.176 1.438.503.324 1.084.486 1.745.486.371 0 .714-.05 1.029-.147.32-.098.603-.241.85-.428.247-.192.452-.424.614-.697a2.72 2.72 0 0 0 .345-.933l2.8.012a5.08 5.08 0 0 1-.544 1.739 5.212 5.212 0 0 1-1.157 1.49 5.439 5.439 0 0 1-1.726 1.035c-.664.251-1.416.377-2.256.377-1.168 0-2.212-.264-3.132-.793-.916-.528-1.641-1.293-2.173-2.294-.529-1.002-.793-2.214-.793-3.637 0-1.428.269-2.643.805-3.644.537-1.001 1.266-1.764 2.187-2.288.92-.529 1.955-.793 3.106-.793.759 0 1.462.107 2.109.32.652.213 1.23.524 1.733.933.503.405.912.901 1.227 1.49.32.587.524 1.26.614 2.02Zm3.525 8.674c-.422 0-.784-.149-1.087-.447a1.494 1.494 0 0 1-.447-1.087c0-.418.149-.776.447-1.074a1.494 1.494 0 0 1 1.087-.447c.409 0 .767.149 1.074.447.306.299.46.657.46 1.074 0 .281-.073.54-.217.773a1.65 1.65 0 0 1-.557.557c-.23.136-.483.204-.76.204Zm-85.806 12.016a2.008 2.008 0 0 0-.933-1.509c-.546-.358-1.215-.537-2.008-.537-.579 0-1.086.094-1.521.282-.43.187-.767.445-1.01.773a1.858 1.858 0 0 0-.358 1.119c0 .35.083.65.25.9.17.248.387.455.652.621.264.162.541.296.83.403.29.102.557.185.799.249l1.33.358c.341.09.72.213 1.138.37.422.158.824.373 1.208.646.388.269.707.614.959 1.036.251.422.377.94.377 1.553 0 .707-.186 1.347-.556 1.918-.367.57-.904 1.025-1.611 1.361-.703.337-1.558.505-2.563.505-.938 0-1.75-.151-2.436-.454-.681-.302-1.218-.724-1.61-1.265-.388-.542-.608-1.17-.659-1.886h1.637c.042.494.208.903.498 1.227.294.32.665.559 1.112.716.452.154.938.23 1.458.23.605 0 1.148-.098 1.63-.294.481-.2.863-.477 1.144-.83a1.97 1.97 0 0 0 .422-1.254c0-.434-.122-.788-.365-1.06a2.665 2.665 0 0 0-.958-.665c-.397-.17-.825-.32-1.285-.448l-1.611-.46c-1.023-.294-1.832-.714-2.429-1.26-.597-.545-.895-1.258-.895-2.14 0-.734.198-1.373.595-1.918.4-.55.937-.976 1.61-1.279.678-.306 1.434-.46 2.27-.46.843 0 1.593.151 2.25.454.656.298 1.176.707 1.559 1.227.388.52.593 1.11.614 1.77h-1.534Zm12.143 0L291.196 44h-1.534l-3.63-9.818h1.636l2.71 7.824h.102l2.711-7.824h1.636Zm4.582 10.048a3.988 3.988 0 0 1-1.694-.351 2.906 2.906 0 0 1-1.208-1.03c-.299-.451-.448-.997-.448-1.636 0-.562.111-1.018.333-1.368a2.34 2.34 0 0 1 .888-.83c.371-.201.78-.35 1.227-.448.452-.102.906-.184 1.362-.243.596-.077 1.08-.134 1.451-.173.375-.042.648-.113.818-.21.175-.099.262-.27.262-.512v-.051c0-.63-.173-1.12-.518-1.47-.341-.35-.858-.525-1.553-.525-.72 0-1.285.158-1.694.473-.409.316-.697.652-.863 1.01l-1.432-.51c.256-.598.597-1.062 1.023-1.394a3.838 3.838 0 0 1 1.406-.704 5.85 5.85 0 0 1 1.509-.204c.315 0 .677.038 1.087.115.413.073.811.224 1.195.454.388.23.709.577.965 1.042.256.464.384 1.086.384 1.866V44H302.4v-1.33h-.077a2.64 2.64 0 0 1-.511.684c-.239.243-.556.45-.952.62-.397.17-.88.256-1.451.256Zm.23-1.355c.596 0 1.099-.117 1.508-.352.414-.234.725-.537.933-.907.214-.371.32-.76.32-1.17v-1.38c-.064.076-.205.146-.422.21-.213.06-.46.113-.741.16a34 34 0 0 1-1.445.192 5.77 5.77 0 0 0-1.099.25c-.337.11-.61.278-.819.504-.204.222-.306.524-.306.908 0 .524.194.92.581 1.189.392.264.889.396 1.49.396ZM306.662 44v-9.818h1.457v1.483h.103c.179-.486.502-.88.971-1.183a2.86 2.86 0 0 1 1.585-.454c.111 0 .25.003.416.007.166.004.292.01.377.019v1.534a4.42 4.42 0 0 0-.352-.057 3.455 3.455 0 0 0-.568-.045c-.478 0-.904.1-1.279.3a2.262 2.262 0 0 0-.882.818 2.21 2.21 0 0 0-.32 1.183V44h-1.508Zm11.582-9.818v1.278h-5.088v-1.278h5.088Zm-3.605-2.353h1.509v9.358c0 .427.062.746.185.96.128.208.29.349.486.421.2.068.411.102.633.102.166 0 .302-.008.409-.025l.255-.051.307 1.355a3.064 3.064 0 0 1-.428.115 3.15 3.15 0 0 1-.697.064c-.426 0-.843-.092-1.253-.275a2.489 2.489 0 0 1-1.009-.837c-.265-.375-.397-.848-.397-1.42V31.83Zm8.764 12.401a3.991 3.991 0 0 1-1.694-.351 2.906 2.906 0 0 1-1.208-1.03c-.299-.451-.448-.997-.448-1.636 0-.562.111-1.018.333-1.368a2.34 2.34 0 0 1 .888-.83c.371-.201.78-.35 1.227-.448.452-.102.906-.184 1.362-.243.597-.077 1.08-.134 1.451-.173.375-.042.648-.113.818-.21.175-.099.262-.27.262-.512v-.051c0-.63-.172-1.12-.518-1.47-.34-.35-.858-.525-1.553-.525-.72 0-1.285.158-1.694.473-.409.316-.696.652-.863 1.01l-1.431-.51c.255-.598.596-1.062 1.022-1.394a3.838 3.838 0 0 1 1.406-.704 5.85 5.85 0 0 1 1.509-.204c.315 0 .678.038 1.087.115.413.073.811.224 1.195.454.388.23.709.577.965 1.042.256.464.384 1.086.384 1.866V44h-1.509v-1.33h-.077a2.64 2.64 0 0 1-.511.684c-.239.243-.556.45-.952.62-.397.17-.88.256-1.451.256Zm.23-1.355c.596 0 1.099-.117 1.508-.352a2.392 2.392 0 0 0 1.253-2.077v-1.38c-.064.076-.204.146-.422.21-.213.06-.46.113-.741.16a34 34 0 0 1-1.445.192 5.77 5.77 0 0 0-1.099.25c-.337.11-.61.278-.818.504-.205.222-.307.524-.307.908 0 .524.194.92.581 1.189.393.264.889.396 1.49.396Zm8.532-11.966V44h-1.509V30.91h1.509Zm7.135 3.273v1.278h-5.293v-1.278h5.293ZM335.592 44V32.827c0-.563.132-1.031.397-1.406a2.454 2.454 0 0 1 1.029-.844 3.253 3.253 0 0 1 1.336-.282c.37 0 .673.03.907.09.235.06.409.115.525.166l-.435 1.304a7.355 7.355 0 0 0-.32-.096 1.94 1.94 0 0 0-.524-.057c-.498 0-.859.125-1.08.377-.217.251-.326.62-.326 1.106V44h-1.509Zm7.33-5.906V44h-1.508V30.91h1.508v4.806h.128c.23-.507.576-.91 1.036-1.208.464-.303 1.082-.454 1.853-.454.669 0 1.255.134 1.758.403.503.264.893.67 1.17 1.22.281.546.422 1.24.422 2.084V44h-1.509v-6.136c0-.78-.202-1.383-.607-1.81-.4-.43-.957-.645-1.668-.645-.495 0-.938.105-1.33.313a2.287 2.287 0 0 0-.92.914c-.222.4-.333.887-.333 1.458Zm13.243 6.11c-.946 0-1.762-.208-2.448-.626a4.205 4.205 0 0 1-1.579-1.764c-.366-.759-.55-1.64-.55-2.646s.184-1.892.55-2.66c.371-.77.887-1.372 1.547-1.802.665-.435 1.44-.652 2.327-.652.511 0 1.016.085 1.515.256.498.17.952.447 1.361.83.409.38.735.883.978 1.51.243.626.364 1.397.364 2.313v.64h-7.568v-1.305h6.034c0-.554-.11-1.048-.332-1.483a2.5 2.5 0 0 0-.933-1.029c-.401-.251-.874-.377-1.419-.377-.601 0-1.121.15-1.56.447a2.937 2.937 0 0 0-1.003 1.151c-.235.473-.352.98-.352 1.521v.87c0 .741.128 1.37.383 1.885.26.512.62.902 1.081 1.17.46.264.995.396 1.604.396.396 0 .754-.055 1.074-.166a2.29 2.29 0 0 0 .837-.511c.235-.23.416-.516.544-.857l1.457.41a3.228 3.228 0 0 1-.773 1.303c-.363.371-.81.66-1.343.87-.532.204-1.131.306-1.796.306Zm6.36-.204v-9.818h1.509V44h-1.509Zm.767-11.455c-.294 0-.547-.1-.76-.3a.965.965 0 0 1-.314-.722c0-.282.105-.522.314-.723.213-.2.466-.3.76-.3s.546.1.755.3c.213.2.319.441.319.723a.956.956 0 0 1-.319.722c-.209.2-.461.3-.755.3ZM366.797 44v-9.818h1.457v1.534h.128c.204-.524.535-.931.991-1.221.456-.294 1.003-.441 1.642-.441.648 0 1.187.147 1.618.441.434.29.773.697 1.016 1.22h.102a2.866 2.866 0 0 1 1.132-1.207c.502-.303 1.105-.454 1.809-.454.877 0 1.595.275 2.154.825.558.545.837 1.395.837 2.55V44h-1.508v-6.571c0-.724-.199-1.242-.595-1.553a2.2 2.2 0 0 0-1.4-.467c-.69 0-1.225.209-1.604.627-.379.413-.569.937-.569 1.572V44h-1.534v-6.724c0-.559-.181-1.008-.543-1.35-.363-.344-.829-.517-1.4-.517a2.07 2.07 0 0 0-1.1.313 2.372 2.372 0 0 0-.818.87c-.205.366-.307.79-.307 1.272V44h-1.508ZM286.72 59.455c0-1.611.209-3.092.627-4.443a13.856 13.856 0 0 1 1.802-3.74h1.33a8.2 8.2 0 0 0-.863 1.56 15.193 15.193 0 0 0-.697 2.027c-.2.733-.358 1.491-.473 2.275a16.539 16.539 0 0 0-.166 2.32c0 1.015.098 2.044.294 3.088.196 1.044.46 2.013.793 2.908.332.895.703 1.624 1.112 2.186h-1.33a13.877 13.877 0 0 1-1.802-3.733c-.418-1.355-.627-2.838-.627-4.448Zm6.189-6.546h1.892l4.449 10.867h.154l4.449-10.867h1.892V66h-1.483v-9.946h-.128L300.043 66h-1.432l-4.091-9.946h-.128V66h-1.483V52.91Zm18.699 13.321a3.991 3.991 0 0 1-1.694-.351 2.906 2.906 0 0 1-1.208-1.03c-.299-.451-.448-.997-.448-1.636 0-.562.111-1.018.333-1.368a2.34 2.34 0 0 1 .888-.83c.371-.201.78-.35 1.227-.448.452-.102.906-.184 1.362-.243.597-.077 1.08-.134 1.451-.173.375-.042.648-.113.818-.21.175-.099.262-.27.262-.512v-.051c0-.63-.172-1.12-.518-1.47-.34-.35-.858-.525-1.553-.525-.72 0-1.285.158-1.694.473-.409.316-.696.652-.863 1.01l-1.431-.51c.255-.598.596-1.062 1.022-1.394a3.834 3.834 0 0 1 1.407-.704 5.837 5.837 0 0 1 1.508-.204c.315 0 .678.038 1.087.115.413.073.812.224 1.195.454.388.23.71.577.965 1.042.256.464.384 1.086.384 1.866V66h-1.509v-1.33h-.076a2.67 2.67 0 0 1-.512.684c-.238.243-.556.45-.952.62-.397.17-.88.256-1.451.256Zm.23-1.355c.596 0 1.099-.117 1.508-.352a2.392 2.392 0 0 0 1.253-2.077v-1.38c-.064.076-.204.146-.422.21-.213.06-.46.113-.741.16a34 34 0 0 1-1.445.192 5.77 5.77 0 0 0-1.099.25c-.337.11-.61.278-.818.504-.205.222-.307.524-.307.908 0 .524.194.92.582 1.189.392.264.888.396 1.489.396Zm8.532-11.966V66h-1.509V52.91h1.509Zm6.879 13.295c-.946 0-1.762-.208-2.448-.626a4.205 4.205 0 0 1-1.579-1.764c-.366-.759-.55-1.64-.55-2.646s.184-1.892.55-2.66c.371-.77.886-1.372 1.547-1.802.665-.435 1.44-.652 2.327-.652.511 0 1.016.085 1.515.256.498.17.952.447 1.361.83.409.38.735.883.978 1.51.243.626.364 1.397.364 2.313v.64h-7.568v-1.305h6.034c0-.554-.11-1.048-.332-1.483a2.5 2.5 0 0 0-.933-1.029c-.401-.251-.874-.377-1.419-.377-.601 0-1.121.15-1.56.447a2.947 2.947 0 0 0-1.004 1.151c-.234.473-.351.98-.351 1.521v.87c0 .741.128 1.37.383 1.885.26.512.62.902 1.081 1.17.46.264.995.396 1.604.396.396 0 .754-.055 1.074-.166a2.29 2.29 0 0 0 .837-.511c.235-.23.416-.516.544-.857l1.457.41a3.228 3.228 0 0 1-.773 1.303c-.363.371-.81.66-1.343.87-.532.204-1.131.306-1.796.306Zm7.766-3.783-.025-1.867h.307l4.295-4.372h1.867l-4.577 4.628h-.128l-1.739 1.61ZM333.609 66V52.91h1.509V66h-1.509Zm6.239 0-3.835-4.858 1.073-1.048L341.765 66h-1.917Zm3.552 0v-9.818h1.509V66H343.4Zm.767-11.455c-.294 0-.547-.1-.76-.3a.965.965 0 0 1-.314-.722c0-.282.105-.522.314-.723.213-.2.466-.3.76-.3s.546.1.755.3c.213.2.319.442.319.723a.956.956 0 0 1-.319.722c-.209.2-.461.3-.755.3Zm7.775 1.637v1.278h-5.088v-1.278h5.088Zm-3.606-2.352h1.509v9.358c0 .426.062.745.185.958.128.21.29.35.486.422.2.068.411.103.633.103.166 0 .303-.01.409-.026l.256-.051.307 1.355a3.085 3.085 0 0 1-.429.115 3.147 3.147 0 0 1-.696.064c-.427 0-.844-.092-1.253-.275a2.485 2.485 0 0 1-1.01-.837c-.264-.375-.397-.848-.397-1.42V53.83Zm7.594 6.264V66h-1.508V52.91h1.508v4.806h.128a2.77 2.77 0 0 1 1.036-1.208c.464-.303 1.082-.454 1.853-.454.669 0 1.255.134 1.758.403.503.264.893.67 1.17 1.22.281.546.422 1.24.422 2.084V66h-1.509v-6.136c0-.78-.202-1.383-.607-1.81-.401-.43-.957-.645-1.668-.645-.495 0-.938.105-1.33.313a2.281 2.281 0 0 0-.92.914c-.222.4-.333.887-.333 1.458Zm12.348.383c0 1.611-.211 3.094-.633 4.45a13.714 13.714 0 0 1-1.796 3.732h-1.329c.306-.422.592-.942.856-1.56.269-.613.503-1.287.703-2.02.2-.737.356-1.497.467-2.281a16.07 16.07 0 0 0 .172-2.32c0-1.015-.098-2.044-.294-3.088a17.793 17.793 0 0 0-.792-2.909c-.333-.894-.703-1.623-1.112-2.186h1.329a13.692 13.692 0 0 1 1.796 3.74c.422 1.35.633 2.832.633 4.442ZM727.36 132v-1.994l4.66-4.315a18 18 0 0 0 .997-1.035c.273-.307.479-.608.62-.902.141-.298.211-.62.211-.965 0-.383-.088-.714-.262-.991a1.725 1.725 0 0 0-.716-.645 2.239 2.239 0 0 0-1.029-.23c-.401 0-.75.081-1.049.242a1.68 1.68 0 0 0-.69.697c-.162.303-.243.663-.243 1.08h-2.627c0-.856.194-1.6.582-2.23a3.883 3.883 0 0 1 1.63-1.464c.699-.345 1.504-.518 2.416-.518.937 0 1.753.166 2.448.499.699.328 1.242.784 1.63 1.368.388.583.582 1.252.582 2.007 0 .494-.098.982-.294 1.463-.192.482-.535 1.017-1.029 1.605-.495.584-1.191 1.285-2.091 2.103l-1.911 1.873v.089h5.497V132h-9.332Zm16.471.288c-1.1-.005-2.046-.275-2.838-.812-.789-.537-1.396-1.315-1.822-2.333-.422-1.019-.631-2.244-.627-3.676 0-1.427.211-2.644.633-3.65.426-1.005 1.034-1.77 1.822-2.294.793-.529 1.736-.793 2.832-.793 1.095 0 2.037.264 2.825.793.793.528 1.402 1.295 1.828 2.301.426 1.001.637 2.216.633 3.643 0 1.436-.213 2.664-.639 3.682-.422 1.019-1.027 1.796-1.816 2.333-.788.537-1.732.806-2.831.806Zm0-2.295c.75 0 1.348-.377 1.796-1.131.447-.755.669-1.886.665-3.395 0-.993-.103-1.819-.307-2.48-.201-.66-.486-1.157-.857-1.489a1.864 1.864 0 0 0-1.297-.499c-.746 0-1.343.373-1.79 1.119-.448.746-.673 1.862-.678 3.349 0 1.006.1 1.845.301 2.519.204.669.492 1.172.863 1.508.37.333.805.499 1.304.499Zm12.955-11.084V132h-2.768v-10.464h-.077l-2.998 1.879v-2.454l3.241-2.052h2.602Zm7.95 13.27c-.955 0-1.805-.164-2.551-.492-.741-.333-1.327-.789-1.757-1.368-.427-.584-.646-1.257-.659-2.02h2.787c.017.32.122.601.313.844.196.238.456.424.78.556.324.132.688.198 1.093.198.422 0 .795-.075 1.119-.224.324-.149.577-.356.76-.62.184-.264.275-.569.275-.914 0-.349-.098-.658-.294-.927-.191-.272-.468-.485-.831-.639-.358-.153-.784-.23-1.278-.23h-1.221v-2.033h1.221c.418 0 .786-.072 1.106-.217a1.78 1.78 0 0 0 .754-.601c.179-.26.268-.562.268-.907 0-.329-.078-.616-.236-.863a1.553 1.553 0 0 0-.652-.588 2.116 2.116 0 0 0-.972-.211 2.54 2.54 0 0 0-1.029.204c-.311.132-.56.322-.748.569a1.501 1.501 0 0 0-.3.869h-2.653c.013-.754.228-1.419.646-1.994.417-.575.98-1.025 1.687-1.349.712-.328 1.515-.492 2.41-.492.904 0 1.694.164 2.372.492.677.328 1.203.772 1.578 1.33.38.554.567 1.176.563 1.866.004.733-.224 1.345-.684 1.835-.456.49-1.05.801-1.783.933v.102c.963.124 1.696.458 2.198 1.004.508.541.759 1.219.755 2.033a3.192 3.192 0 0 1-.646 1.987c-.43.58-1.025 1.036-1.783 1.368-.759.333-1.628.499-2.608.499Zm-59.429 8.73h1.585v9.358c0 .835-.154 1.545-.46 2.129a3.13 3.13 0 0 1-1.298 1.329c-.558.303-1.217.454-1.975.454-.716 0-1.353-.13-1.911-.39a3.14 3.14 0 0 1-1.317-1.125c-.32-.486-.48-1.063-.48-1.732h1.56c0 .371.092.694.275.971.187.273.443.486.767.64.324.153.692.23 1.106.23.456 0 .844-.096 1.163-.288.32-.192.563-.473.729-.844.17-.375.256-.833.256-1.374v-9.358Zm7.446 13.321a3.996 3.996 0 0 1-1.694-.351 2.912 2.912 0 0 1-1.208-1.03c-.298-.451-.447-.997-.447-1.636 0-.562.111-1.018.332-1.368.222-.354.518-.631.889-.831.37-.2.78-.349 1.227-.447.452-.103.906-.183 1.362-.243.596-.077 1.08-.134 1.451-.173.375-.042.647-.113.818-.211.174-.098.262-.268.262-.511v-.051c0-.631-.173-1.121-.518-1.47-.341-.35-.859-.524-1.553-.524-.72 0-1.285.157-1.694.473-.409.315-.697.652-.863 1.009l-1.432-.511c.256-.596.597-1.061 1.023-1.393.43-.337.899-.571 1.406-.703a5.81 5.81 0 0 1 1.509-.205c.315 0 .677.038 1.086.115.414.072.812.224 1.196.454.387.23.709.577.965 1.042.255.464.383 1.086.383 1.866V154h-1.508v-1.33h-.077c-.102.214-.273.442-.511.684-.239.243-.556.45-.953.62-.396.171-.88.256-1.451.256Zm.23-1.355c.597 0 1.1-.117 1.509-.352a2.39 2.39 0 0 0 1.253-2.077v-1.381c-.064.077-.205.147-.422.211-.213.06-.46.113-.742.16a31.56 31.56 0 0 1-1.444.192 5.765 5.765 0 0 0-1.1.249 1.9 1.9 0 0 0-.818.505c-.204.222-.307.524-.307.908 0 .524.194.92.582 1.189.392.264.889.396 1.489.396Zm8.532-4.781V154h-1.508v-9.818h1.457v1.534h.128c.23-.499.579-.899 1.048-1.202.469-.307 1.074-.46 1.816-.46.664 0 1.246.136 1.745.409.498.269.886.678 1.163 1.227.277.546.415 1.236.415 2.071V154h-1.508v-6.136c0-.772-.2-1.373-.601-1.803-.401-.435-.95-.652-1.649-.652-.482 0-.912.104-1.291.313a2.25 2.25 0 0 0-.889.914c-.217.401-.326.887-.326 1.458Zm13.137 6.111c-.946 0-1.762-.209-2.448-.627a4.207 4.207 0 0 1-1.579-1.764c-.366-.759-.549-1.641-.549-2.646 0-1.006.183-1.892.549-2.659.371-.772.887-1.373 1.547-1.803.665-.435 1.441-.652 2.327-.652.511 0 1.016.085 1.515.256.499.17.952.447 1.361.831.41.379.736.882.978 1.508.243.627.365 1.398.365 2.314v.639h-7.568v-1.304h6.034c0-.554-.111-1.048-.333-1.483a2.508 2.508 0 0 0-.933-1.029c-.401-.251-.874-.377-1.419-.377-.601 0-1.121.149-1.56.448a2.942 2.942 0 0 0-1.003 1.15c-.235.473-.352.98-.352 1.521v.87c0 .741.128 1.37.384 1.885.26.512.62.902 1.08 1.17.46.264.995.396 1.604.396.397 0 .755-.055 1.074-.166.324-.115.603-.285.838-.511a2.33 2.33 0 0 0 .543-.857l1.457.409a3.224 3.224 0 0 1-.773 1.304c-.362.371-.81.661-1.342.87-.533.204-1.132.307-1.797.307ZM746.28 154v-13.091h7.849v1.406h-6.264v4.424h5.676v1.406h-5.676V154h-1.585Zm13.627.205c-.886 0-1.664-.211-2.333-.633-.664-.422-1.184-1.012-1.559-1.771-.371-.758-.556-1.645-.556-2.659 0-1.023.185-1.915.556-2.678.375-.763.895-1.355 1.559-1.777.669-.422 1.447-.633 2.333-.633.887 0 1.662.211 2.327.633.669.422 1.189 1.014 1.56 1.777.375.763.562 1.655.562 2.678 0 1.014-.187 1.901-.562 2.659-.371.759-.891 1.349-1.56 1.771-.665.422-1.44.633-2.327.633Zm0-1.356c.674 0 1.228-.172 1.662-.517a3.05 3.05 0 0 0 .966-1.362 5.23 5.23 0 0 0 .313-1.828 5.28 5.28 0 0 0-.313-1.834 3.096 3.096 0 0 0-.966-1.375c-.434-.349-.988-.524-1.662-.524-.673 0-1.227.175-1.662.524-.434.35-.756.808-.965 1.375a5.256 5.256 0 0 0-.313 1.834c0 .656.104 1.266.313 1.828.209.563.531 1.017.965 1.362.435.345.989.517 1.662.517Zm13.707-6.468-1.356.383a2.51 2.51 0 0 0-.377-.658 1.827 1.827 0 0 0-.664-.537c-.282-.141-.642-.211-1.081-.211-.601 0-1.101.138-1.502.415-.396.273-.594.62-.594 1.042 0 .375.136.672.409.889.273.217.699.398 1.278.543l1.458.358c.877.213 1.532.539 1.962.978.43.435.646.995.646 1.681 0 .563-.162 1.066-.486 1.509-.32.443-.767.792-1.343 1.048-.575.256-1.244.384-2.007.384-1.001 0-1.83-.218-2.486-.652-.656-.435-1.072-1.07-1.247-1.905l1.432-.358c.137.528.394.924.774 1.189.383.264.884.396 1.502.396.703 0 1.261-.149 1.674-.447.418-.303.627-.665.627-1.087 0-.341-.119-.627-.358-.857-.239-.234-.605-.409-1.1-.524l-1.636-.383c-.899-.213-1.56-.544-1.981-.991-.418-.452-.627-1.016-.627-1.694 0-.554.156-1.044.467-1.47.315-.426.743-.761 1.285-1.004.545-.243 1.163-.364 1.853-.364.972 0 1.735.213 2.289.639.558.426.954.989 1.189 1.688Zm6.719-2.199v1.278h-5.088v-1.278h5.088Zm-3.605-2.352h1.509v9.358c0 .426.061.745.185.958.128.209.29.35.486.422.2.068.411.102.633.102.166 0 .302-.008.409-.025l.255-.051.307 1.355a3.064 3.064 0 0 1-.428.115 3.132 3.132 0 0 1-.697.064c-.426 0-.844-.092-1.253-.275a2.488 2.488 0 0 1-1.01-.837c-.264-.375-.396-.848-.396-1.419v-9.767Zm9.885 12.375c-.946 0-1.762-.209-2.448-.627a4.207 4.207 0 0 1-1.579-1.764c-.366-.759-.549-1.641-.549-2.646 0-1.006.183-1.892.549-2.659.371-.772.887-1.373 1.547-1.803.665-.435 1.441-.652 2.327-.652.511 0 1.016.085 1.515.256.498.17.952.447 1.361.831.409.379.735.882.978 1.508.243.627.365 1.398.365 2.314v.639h-7.568v-1.304h6.034c0-.554-.111-1.048-.333-1.483a2.508 2.508 0 0 0-.933-1.029c-.401-.251-.874-.377-1.419-.377-.601 0-1.121.149-1.56.448a2.942 2.942 0 0 0-1.003 1.15c-.235.473-.352.98-.352 1.521v.87c0 .741.128 1.37.384 1.885.26.512.62.902 1.08 1.17.46.264.995.396 1.604.396.397 0 .755-.055 1.074-.166.324-.115.603-.285.838-.511a2.33 2.33 0 0 0 .543-.857l1.457.409a3.224 3.224 0 0 1-.773 1.304c-.362.371-.81.661-1.342.87-.533.204-1.132.307-1.797.307Zm6.36-.205v-9.818h1.458v1.483h.102c.179-.486.503-.88.972-1.183a2.862 2.862 0 0 1 1.585-.454c.111 0 .249.003.415.007.167.004.292.01.378.019v1.534a4.307 4.307 0 0 0-.352-.057 3.445 3.445 0 0 0-.569-.045c-.477 0-.903.1-1.278.3a2.264 2.264 0 0 0-.882.818 2.21 2.21 0 0 0-.32 1.183V154h-1.509Zm-134.131 10.315v-1.406h9.818v1.406h-4.116V176h-1.586v-11.685h-4.116Zm13.569 5.779V176h-1.509v-13.091h1.509v4.807h.128c.23-.507.575-.91 1.035-1.208.465-.303 1.082-.454 1.854-.454.669 0 1.255.134 1.758.403.502.264.892.671 1.169 1.221.282.545.422 1.24.422 2.083V176h-1.508v-6.136c0-.78-.203-1.383-.608-1.809-.4-.431-.956-.646-1.668-.646a2.78 2.78 0 0 0-1.329.313 2.294 2.294 0 0 0-.921.914c-.222.401-.332.887-.332 1.458Zm13.115 6.111c-.887 0-1.664-.211-2.334-.633-.664-.422-1.184-1.012-1.559-1.771-.371-.758-.556-1.645-.556-2.659 0-1.023.185-1.915.556-2.678.375-.763.895-1.355 1.559-1.777.67-.422 1.447-.633 2.334-.633.886 0 1.662.211 2.326.633.669.422 1.189 1.014 1.56 1.777.375.763.562 1.655.562 2.678 0 1.014-.187 1.901-.562 2.659-.371.759-.891 1.349-1.56 1.771-.664.422-1.44.633-2.326.633Zm0-1.356c.673 0 1.227-.172 1.662-.517.434-.345.756-.799.965-1.362a5.206 5.206 0 0 0 .313-1.828c0-.656-.104-1.268-.313-1.834a3.102 3.102 0 0 0-.965-1.375c-.435-.349-.989-.524-1.662-.524-.674 0-1.228.175-1.662.524-.435.35-.757.808-.966 1.375a5.28 5.28 0 0 0-.313 1.834c0 .656.105 1.266.313 1.828a3.05 3.05 0 0 0 .966 1.362c.434.345.988.517 1.662.517Zm6.751 1.151v-9.818h1.458v1.483h.102c.179-.486.503-.88.971-1.183a2.868 2.868 0 0 1 1.586-.454c.11 0 .249.003.415.007.166.004.292.01.377.019v1.534a4.176 4.176 0 0 0-.351-.057 3.445 3.445 0 0 0-.569-.045c-.477 0-.904.1-1.279.3-.37.196-.664.469-.882.818a2.21 2.21 0 0 0-.319 1.183V176h-1.509Zm7.797.102c-.315 0-.586-.113-.812-.339a1.104 1.104 0 0 1-.339-.811c0-.316.113-.586.339-.812.226-.226.497-.339.812-.339.315 0 .586.113.812.339.226.226.338.496.338.812 0 .209-.053.4-.159.575a1.2 1.2 0 0 1-.416.422c-.17.102-.362.153-.575.153Zm0-7.287c-.315 0-.586-.113-.812-.338a1.108 1.108 0 0 1-.339-.812c0-.316.113-.586.339-.812.226-.226.497-.339.812-.339.315 0 .586.113.812.339.226.226.338.496.338.812 0 .209-.053.4-.159.575a1.2 1.2 0 0 1-.416.422c-.17.102-.362.153-.575.153Zm8.409-4.5v-1.406h9.818v1.406h-4.117V176h-1.585v-11.685h-4.116Zm13.568 5.779V176h-1.508v-13.091h1.508v4.807h.128a2.77 2.77 0 0 1 1.036-1.208c.464-.303 1.082-.454 1.853-.454.669 0 1.255.134 1.758.403.503.264.893.671 1.17 1.221.281.545.422 1.24.422 2.083V176h-1.509v-6.136c0-.78-.202-1.383-.607-1.809-.401-.431-.957-.646-1.668-.646-.495 0-.938.104-1.33.313a2.292 2.292 0 0 0-.92.914c-.222.401-.333.887-.333 1.458Zm13.243 6.111c-.946 0-1.762-.209-2.448-.627a4.207 4.207 0 0 1-1.579-1.764c-.366-.759-.55-1.641-.55-2.646 0-1.006.184-1.892.55-2.659.371-.772.886-1.373 1.547-1.803.665-.435 1.44-.652 2.327-.652.511 0 1.016.085 1.515.256.498.17.952.447 1.361.831.409.379.735.882.978 1.508.243.627.364 1.398.364 2.314v.639h-7.568v-1.304h6.034c0-.554-.111-1.048-.332-1.483a2.515 2.515 0 0 0-.933-1.029c-.401-.251-.874-.377-1.419-.377-.601 0-1.121.149-1.56.448a2.945 2.945 0 0 0-1.004 1.15c-.234.473-.351.98-.351 1.521v.87c0 .741.128 1.37.383 1.885.26.512.62.902 1.081 1.17.46.264.995.396 1.604.396.396 0 .754-.055 1.074-.166a2.29 2.29 0 0 0 .837-.511c.235-.23.416-.516.544-.857l1.457.409a3.224 3.224 0 0 1-.773 1.304c-.363.371-.81.661-1.343.87-.532.204-1.131.307-1.796.307Zm15.667-.205h-4.04v-13.091h4.219c1.27 0 2.356.262 3.26.786.903.52 1.596 1.268 2.077 2.244.482.972.723 2.135.723 3.49 0 1.364-.243 2.538-.729 3.522a5.197 5.197 0 0 1-2.122 2.263c-.929.524-2.059.786-3.388.786Zm-2.455-1.406h2.353c1.082 0 1.979-.209 2.691-.627a3.858 3.858 0 0 0 1.591-1.783c.35-.771.524-1.69.524-2.755 0-1.057-.172-1.967-.517-2.729-.345-.767-.861-1.356-1.547-1.765-.686-.413-1.541-.62-2.563-.62h-2.532v10.279Zm14.037 1.636a3.999 3.999 0 0 1-1.694-.351 2.912 2.912 0 0 1-1.208-1.03c-.298-.451-.447-.997-.447-1.636 0-.562.111-1.018.332-1.368.222-.354.518-.631.889-.831.371-.2.78-.349 1.227-.447.452-.103.906-.183 1.362-.243.596-.077 1.08-.134 1.451-.173.375-.042.647-.113.818-.211.174-.098.262-.268.262-.511v-.051c0-.631-.173-1.121-.518-1.47-.341-.35-.859-.524-1.553-.524-.72 0-1.285.157-1.694.473-.409.315-.697.652-.863 1.009l-1.432-.511c.256-.596.597-1.061 1.023-1.393.43-.337.899-.571 1.406-.703a5.81 5.81 0 0 1 1.509-.205c.315 0 .677.038 1.086.115.414.072.812.224 1.196.454.387.23.709.577.965 1.042.255.464.383 1.086.383 1.866V176h-1.508v-1.33h-.077c-.102.214-.273.442-.511.684-.239.243-.556.45-.953.62-.396.171-.88.256-1.451.256Zm.23-1.355c.597 0 1.1-.117 1.509-.352a2.39 2.39 0 0 0 1.253-2.077v-1.381c-.064.077-.205.147-.422.211-.213.06-.46.113-.742.16a31.56 31.56 0 0 1-1.444.192 5.765 5.765 0 0 0-1.1.249 1.9 1.9 0 0 0-.818.505c-.204.222-.307.524-.307.908 0 .524.194.92.582 1.189.392.264.889.396 1.489.396Zm7.024 1.125v-9.818h1.457v1.483h.102c.179-.486.503-.88.972-1.183a2.865 2.865 0 0 1 1.585-.454c.111 0 .249.003.416.007.166.004.292.01.377.019v1.534a4.228 4.228 0 0 0-.352-.057 3.436 3.436 0 0 0-.569-.045c-.477 0-.903.1-1.278.3a2.264 2.264 0 0 0-.882.818 2.21 2.21 0 0 0-.32 1.183V176h-1.508Zm8.103-3.58-.025-1.866h.306l4.296-4.372h1.866l-4.576 4.628h-.128l-1.739 1.61Zm-1.406 3.58v-13.091h1.508V176h-1.508Zm6.239 0-3.836-4.858 1.074-1.048L784.65 176h-1.917Zm11.197 0-3.58-13.091h1.611l2.736 10.662h.128l2.787-10.662h1.789l2.787 10.662h.128l2.736-10.662h1.611L803.083 176h-1.636l-2.889-10.432h-.103L795.566 176h-1.636Zm17.578.205c-.886 0-1.664-.211-2.333-.633-.665-.422-1.185-1.012-1.56-1.771-.371-.758-.556-1.645-.556-2.659 0-1.023.185-1.915.556-2.678.375-.763.895-1.355 1.56-1.777.669-.422 1.447-.633 2.333-.633.886 0 1.662.211 2.327.633.669.422 1.189 1.014 1.559 1.777.375.763.563 1.655.563 2.678 0 1.014-.188 1.901-.563 2.659-.37.759-.89 1.349-1.559 1.771-.665.422-1.441.633-2.327.633Zm0-1.356c.673 0 1.227-.172 1.662-.517.435-.345.756-.799.965-1.362a5.206 5.206 0 0 0 .313-1.828c0-.656-.104-1.268-.313-1.834a3.094 3.094 0 0 0-.965-1.375c-.435-.349-.989-.524-1.662-.524-.673 0-1.227.175-1.662.524-.435.35-.756.808-.965 1.375a5.256 5.256 0 0 0-.313 1.834c0 .656.104 1.266.313 1.828.209.563.53 1.017.965 1.362.435.345.989.517 1.662.517ZM818.26 176v-9.818h1.457v1.483h.102c.179-.486.503-.88.972-1.183a2.865 2.865 0 0 1 1.585-.454c.111 0 .249.003.416.007.166.004.291.01.377.019v1.534a4.228 4.228 0 0 0-.352-.057 3.436 3.436 0 0 0-.569-.045c-.477 0-.903.1-1.278.3a2.264 2.264 0 0 0-.882.818 2.21 2.21 0 0 0-.32 1.183V176h-1.508Zm8.205-13.091V176h-1.508v-13.091h1.508Zm6.471 13.296c-.818 0-1.541-.207-2.167-.62-.627-.418-1.117-1.006-1.47-1.765-.354-.762-.531-1.664-.531-2.704 0-1.031.177-1.926.531-2.684.353-.759.846-1.345 1.476-1.758.631-.413 1.36-.62 2.186-.62.639 0 1.144.107 1.515.32.375.208.661.447.857.715.2.265.356.482.466.652h.128v-4.832h1.509V176h-1.458v-1.509h-.179c-.11.179-.268.405-.473.678-.204.268-.496.509-.875.722-.38.209-.885.314-1.515.314Zm.204-1.356c.605 0 1.117-.157 1.534-.473.418-.319.735-.76.953-1.323.217-.566.326-1.221.326-1.962 0-.733-.107-1.374-.32-1.924-.213-.554-.528-.984-.946-1.291-.417-.311-.933-.467-1.547-.467-.639 0-1.172.164-1.598.492-.422.324-.739.765-.952 1.323-.209.554-.313 1.177-.313 1.867 0 .699.106 1.334.319 1.905.218.566.537 1.018.959 1.355.426.332.955.498 1.585.498ZM871.193 132v-1.994l4.66-4.315a18 18 0 0 0 .997-1.035c.273-.307.479-.608.62-.902.141-.298.211-.62.211-.965 0-.383-.088-.714-.262-.991a1.725 1.725 0 0 0-.716-.645 2.239 2.239 0 0 0-1.029-.23c-.401 0-.75.081-1.049.242a1.68 1.68 0 0 0-.69.697c-.162.303-.243.663-.243 1.08h-2.627c0-.856.194-1.6.582-2.23a3.883 3.883 0 0 1 1.63-1.464c.699-.345 1.504-.518 2.416-.518.937 0 1.753.166 2.448.499.699.328 1.242.784 1.63 1.368.388.583.582 1.252.582 2.007 0 .494-.098.982-.294 1.463-.192.482-.535 1.017-1.029 1.605-.495.584-1.191 1.285-2.091 2.103l-1.911 1.873v.089h5.497V132h-9.332Zm16.471.288c-1.1-.005-2.046-.275-2.838-.812-.789-.537-1.396-1.315-1.822-2.333-.422-1.019-.631-2.244-.627-3.676 0-1.427.211-2.644.633-3.65.426-1.005 1.034-1.77 1.822-2.294.793-.529 1.736-.793 2.832-.793 1.095 0 2.037.264 2.825.793.793.528 1.402 1.295 1.828 2.301.426 1.001.637 2.216.633 3.643 0 1.436-.213 2.664-.639 3.682-.422 1.019-1.027 1.796-1.816 2.333-.788.537-1.732.806-2.831.806Zm0-2.295c.75 0 1.348-.377 1.796-1.131.447-.755.669-1.886.665-3.395 0-.993-.103-1.819-.307-2.48-.201-.66-.486-1.157-.857-1.489a1.864 1.864 0 0 0-1.297-.499c-.746 0-1.343.373-1.79 1.119-.448.746-.673 1.862-.678 3.349 0 1.006.1 1.845.301 2.519.204.669.492 1.172.863 1.508.37.333.805.499 1.304.499Zm12.955-11.084V132h-2.768v-10.464h-.077l-2.998 1.879v-2.454l3.241-2.052h2.602Zm2.913 10.79v-2.18l5.465-8.61h1.879v3.017h-1.112l-3.445 5.453v.102h7.766v2.218h-10.553Zm6.283 2.301v-2.966l.051-.965v-9.16h2.596V132h-2.647Zm-73.698 10.315v-1.406h9.819v1.406h-4.117V154h-1.585v-11.685h-4.117Zm13.569 5.779V154h-1.508v-13.091h1.508v4.807h.128c.23-.507.575-.91 1.035-1.208.465-.303 1.083-.454 1.854-.454.669 0 1.255.134 1.758.403.503.264.893.671 1.17 1.221.281.545.422 1.24.422 2.083V154h-1.509v-6.136c0-.78-.202-1.383-.607-1.809-.401-.431-.957-.646-1.669-.646a2.78 2.78 0 0 0-1.329.313 2.294 2.294 0 0 0-.921.914c-.221.401-.332.887-.332 1.458Zm13.243 6.111c-.946 0-1.762-.209-2.448-.627a4.207 4.207 0 0 1-1.579-1.764c-.367-.759-.55-1.641-.55-2.646 0-1.006.183-1.892.55-2.659.371-.772.886-1.373 1.547-1.803.664-.435 1.44-.652 2.326-.652.512 0 1.017.085 1.515.256.499.17.953.447 1.362.831.409.379.735.882.978 1.508.243.627.364 1.398.364 2.314v.639h-7.568v-1.304h6.034c0-.554-.111-1.048-.332-1.483a2.517 2.517 0 0 0-.934-1.029c-.4-.251-.873-.377-1.419-.377-.6 0-1.12.149-1.559.448a2.945 2.945 0 0 0-1.004 1.15c-.234.473-.351.98-.351 1.521v.87c0 .741.127 1.37.383 1.885.26.512.62.902 1.08 1.17.461.264.995.396 1.605.396.396 0 .754-.055 1.074-.166a2.29 2.29 0 0 0 .837-.511c.234-.23.416-.516.543-.857l1.458.409a3.226 3.226 0 0 1-.774 1.304 3.764 3.764 0 0 1-1.342.87c-.533.204-1.131.307-1.796.307ZM885.09 145h-1.585a3.306 3.306 0 0 0-1.336-2.071 3.57 3.57 0 0 0-1.093-.537 4.378 4.378 0 0 0-1.253-.179c-.793 0-1.511.2-2.154.601-.639.4-1.149.991-1.528 1.771-.375.779-.562 1.736-.562 2.87 0 1.133.187 2.09.562 2.87.379.779.889 1.37 1.528 1.77a3.987 3.987 0 0 0 2.154.601c.435 0 .852-.06 1.253-.179.4-.119.765-.296 1.093-.53a3.4 3.4 0 0 0 .844-.876c.234-.35.398-.75.492-1.202h1.585a5.278 5.278 0 0 1-.652 1.796 4.896 4.896 0 0 1-1.176 1.349 5.145 5.145 0 0 1-1.579.837c-.579.192-1.2.288-1.86.288-1.117 0-2.109-.273-2.979-.818-.869-.546-1.553-1.321-2.052-2.327-.498-1.006-.747-2.199-.747-3.579 0-1.381.249-2.574.747-3.58.499-1.006 1.183-1.781 2.052-2.327.87-.545 1.862-.818 2.979-.818.66 0 1.281.096 1.86.288.584.192 1.11.473 1.579.844.469.366.861.813 1.176 1.342.315.524.533 1.123.652 1.796Zm6.346 9.205c-.887 0-1.664-.211-2.333-.633-.665-.422-1.185-1.012-1.56-1.771-.371-.758-.556-1.645-.556-2.659 0-1.023.185-1.915.556-2.678.375-.763.895-1.355 1.56-1.777.669-.422 1.446-.633 2.333-.633.886 0 1.662.211 2.326.633.669.422 1.189 1.014 1.56 1.777.375.763.563 1.655.563 2.678 0 1.014-.188 1.901-.563 2.659-.371.759-.891 1.349-1.56 1.771-.664.422-1.44.633-2.326.633Zm0-1.356c.673 0 1.227-.172 1.662-.517.434-.345.756-.799.965-1.362a5.206 5.206 0 0 0 .313-1.828c0-.656-.104-1.268-.313-1.834a3.102 3.102 0 0 0-.965-1.375c-.435-.349-.989-.524-1.662-.524-.674 0-1.228.175-1.662.524-.435.35-.757.808-.965 1.375a5.257 5.257 0 0 0-.314 1.834c0 .656.105 1.266.314 1.828.208.563.53 1.017.965 1.362.434.345.988.517 1.662.517Zm8.26-11.94V154h-1.509v-13.091h1.509Zm4.271 0V154h-1.508v-13.091h1.508Zm6.88 13.296c-.946 0-1.762-.209-2.448-.627a4.207 4.207 0 0 1-1.579-1.764c-.367-.759-.55-1.641-.55-2.646 0-1.006.183-1.892.55-2.659.371-.772.886-1.373 1.547-1.803.664-.435 1.44-.652 2.326-.652.512 0 1.017.085 1.515.256.499.17.953.447 1.362.831.409.379.735.882.978 1.508.243.627.364 1.398.364 2.314v.639h-7.568v-1.304h6.034c0-.554-.111-1.048-.332-1.483a2.517 2.517 0 0 0-.934-1.029c-.4-.251-.873-.377-1.419-.377-.6 0-1.12.149-1.559.448a2.945 2.945 0 0 0-1.004 1.15c-.234.473-.351.98-.351 1.521v.87c0 .741.127 1.37.383 1.885.26.512.62.902 1.08 1.17.461.264.995.396 1.605.396.396 0 .754-.055 1.074-.166.323-.115.603-.285.837-.511a2.33 2.33 0 0 0 .543-.857l1.458.409a3.237 3.237 0 0 1-.774 1.304 3.764 3.764 0 0 1-1.342.87c-.533.204-1.131.307-1.796.307Zm10.348 0c-.92 0-1.713-.218-2.377-.652-.665-.435-1.176-1.034-1.534-1.797-.358-.762-.537-1.634-.537-2.614 0-.997.183-1.877.549-2.64.371-.767.887-1.366 1.547-1.796.665-.435 1.441-.652 2.327-.652.69 0 1.312.128 1.866.384a3.572 3.572 0 0 1 1.362 1.073c.354.461.573.998.658 1.611h-1.508c-.115-.447-.371-.844-.767-1.189-.392-.349-.921-.524-1.586-.524-.588 0-1.103.153-1.546.46-.439.303-.782.731-1.03 1.285-.242.55-.364 1.195-.364 1.937 0 .758.119 1.419.358 1.981.243.563.584 1 1.023 1.311.443.311.963.466 1.559.466a2.7 2.7 0 0 0 1.068-.204c.32-.136.59-.333.812-.588.221-.256.379-.563.473-.921h1.508a3.484 3.484 0 0 1-1.956 2.666c-.545.268-1.18.403-1.905.403Zm10.336-10.023v1.278h-5.088v-1.278h5.088Zm-3.605-2.352h1.509v9.358c0 .426.062.745.185.958.128.209.29.35.486.422.2.068.411.102.633.102.166 0 .302-.008.409-.025l.256-.051.306 1.355a3.064 3.064 0 0 1-.428.115 3.126 3.126 0 0 1-.697.064c-.426 0-.843-.092-1.252-.275a2.482 2.482 0 0 1-1.01-.837c-.265-.375-.397-.848-.397-1.419v-9.767Zm9.758 12.375c-.887 0-1.664-.211-2.333-.633-.665-.422-1.185-1.012-1.56-1.771-.371-.758-.556-1.645-.556-2.659 0-1.023.185-1.915.556-2.678.375-.763.895-1.355 1.56-1.777.669-.422 1.446-.633 2.333-.633.886 0 1.662.211 2.326.633.67.422 1.189 1.014 1.56 1.777.375.763.563 1.655.563 2.678 0 1.014-.188 1.901-.563 2.659-.371.759-.89 1.349-1.56 1.771-.664.422-1.44.633-2.326.633Zm0-1.356c.673 0 1.227-.172 1.662-.517.434-.345.756-.799.965-1.362a5.206 5.206 0 0 0 .313-1.828c0-.656-.104-1.268-.313-1.834a3.102 3.102 0 0 0-.965-1.375c-.435-.349-.989-.524-1.662-.524-.674 0-1.228.175-1.662.524-.435.35-.757.808-.965 1.375a5.257 5.257 0 0 0-.314 1.834c0 .656.105 1.266.314 1.828.208.563.53 1.017.965 1.362.434.345.988.517 1.662.517Zm6.751 1.151v-9.818h1.458v1.483h.102c.179-.486.503-.88.972-1.183a2.862 2.862 0 0 1 1.585-.454c.111 0 .249.003.415.007.167.004.292.01.377.019v1.534a4.176 4.176 0 0 0-.351-.057 3.445 3.445 0 0 0-.569-.045c-.477 0-.903.1-1.278.3a2.274 2.274 0 0 0-.883.818 2.21 2.21 0 0 0-.319 1.183V154h-1.509Zm-99.183 15.455c0-1.611.208-3.092.626-4.443a13.86 13.86 0 0 1 1.803-3.739h1.329a8.248 8.248 0 0 0-.863 1.559 15.332 15.332 0 0 0-.697 2.027c-.2.733-.357 1.491-.473 2.275-.11.784-.166 1.558-.166 2.321 0 1.014.098 2.043.294 3.087a17.79 17.79 0 0 0 .793 2.908c.332.895.703 1.624 1.112 2.186h-1.329a13.867 13.867 0 0 1-1.803-3.733c-.418-1.355-.626-2.838-.626-4.448Zm6.189 6.545v-13.091h1.585v6.494h.153l5.881-6.494h2.071l-5.497 5.906 5.497 7.185h-1.918l-4.551-6.085-1.636 1.841V176h-1.585Zm13.046-5.906V176h-1.509v-9.818h1.458v1.534h.128c.23-.499.579-.899 1.048-1.202.469-.307 1.074-.46 1.815-.46.665 0 1.247.136 1.745.409.499.269.887.678 1.164 1.227.277.546.415 1.236.415 2.071V176h-1.508v-6.136c0-.772-.201-1.373-.601-1.803-.401-.435-.951-.652-1.649-.652-.482 0-.912.104-1.292.313a2.242 2.242 0 0 0-.888.914c-.217.401-.326.887-.326 1.458Zm13.009 6.111c-.886 0-1.664-.211-2.333-.633-.665-.422-1.184-1.012-1.559-1.771-.371-.758-.557-1.645-.557-2.659 0-1.023.186-1.915.557-2.678.375-.763.894-1.355 1.559-1.777.669-.422 1.447-.633 2.333-.633.887 0 1.662.211 2.327.633.669.422 1.189 1.014 1.56 1.777.375.763.562 1.655.562 2.678 0 1.014-.187 1.901-.562 2.659-.371.759-.891 1.349-1.56 1.771-.665.422-1.44.633-2.327.633Zm0-1.356c.674 0 1.228-.172 1.662-.517.435-.345.757-.799.965-1.362a5.207 5.207 0 0 0 .314-1.828c0-.656-.105-1.268-.314-1.834a3.087 3.087 0 0 0-.965-1.375c-.434-.349-.988-.524-1.662-.524-.673 0-1.227.175-1.662.524-.434.35-.756.808-.965 1.375a5.256 5.256 0 0 0-.313 1.834c0 .656.104 1.266.313 1.828.209.563.531 1.017.965 1.362.435.345.989.517 1.662.517Zm8.642 1.151-2.991-9.818h1.585l2.122 7.517h.102l2.097-7.517h1.611l2.071 7.491h.102l2.122-7.491h1.586L893.553 176h-1.483l-2.148-7.543h-.153L887.621 176h-1.483Zm13.909-5.906V176h-1.508v-13.091h1.508v4.807h.128c.23-.507.576-.91 1.036-1.208.464-.303 1.082-.454 1.853-.454.669 0 1.255.134 1.758.403.503.264.893.671 1.17 1.221.281.545.422 1.24.422 2.083V176h-1.509v-6.136c0-.78-.202-1.383-.607-1.809-.4-.431-.957-.646-1.668-.646-.495 0-.938.104-1.33.313a2.292 2.292 0 0 0-.92.914c-.222.401-.333.887-.333 1.458Zm13.243 6.111c-.946 0-1.762-.209-2.448-.627a4.207 4.207 0 0 1-1.579-1.764c-.366-.759-.55-1.641-.55-2.646 0-1.006.184-1.892.55-2.659.371-.772.887-1.373 1.547-1.803.665-.435 1.44-.652 2.327-.652.511 0 1.016.085 1.515.256.498.17.952.447 1.361.831.409.379.735.882.978 1.508.243.627.364 1.398.364 2.314v.639h-7.568v-1.304h6.034c0-.554-.11-1.048-.332-1.483a2.508 2.508 0 0 0-.933-1.029c-.401-.251-.874-.377-1.419-.377-.601 0-1.121.149-1.56.448a2.934 2.934 0 0 0-1.003 1.15c-.235.473-.352.98-.352 1.521v.87c0 .741.128 1.37.383 1.885.26.512.62.902 1.081 1.17.46.264.995.396 1.604.396.396 0 .754-.055 1.074-.166a2.29 2.29 0 0 0 .837-.511c.235-.23.416-.516.544-.857l1.457.409a3.224 3.224 0 0 1-.773 1.304c-.363.371-.81.661-1.343.87-.532.204-1.131.307-1.796.307Zm6.36-.205v-9.818h1.458v1.483h.102c.179-.486.503-.88.971-1.183a2.868 2.868 0 0 1 1.586-.454c.11 0 .249.003.415.007.166.004.292.01.377.019v1.534a4.176 4.176 0 0 0-.351-.057 3.445 3.445 0 0 0-.569-.045c-.477 0-.904.1-1.279.3-.37.196-.664.469-.882.818a2.21 2.21 0 0 0-.319 1.183V176h-1.509Zm10.515.205c-.946 0-1.762-.209-2.448-.627a4.207 4.207 0 0 1-1.579-1.764c-.366-.759-.55-1.641-.55-2.646 0-1.006.184-1.892.55-2.659.371-.772.887-1.373 1.547-1.803.665-.435 1.44-.652 2.327-.652.511 0 1.016.085 1.515.256.498.17.952.447 1.361.831.409.379.735.882.978 1.508.243.627.364 1.398.364 2.314v.639h-7.568v-1.304h6.034c0-.554-.11-1.048-.332-1.483a2.508 2.508 0 0 0-.933-1.029c-.401-.251-.874-.377-1.419-.377-.601 0-1.121.149-1.56.448a2.934 2.934 0 0 0-1.003 1.15c-.235.473-.352.98-.352 1.521v.87c0 .741.128 1.37.383 1.885.26.512.62.902 1.081 1.17.46.264.995.396 1.604.396.396 0 .754-.055 1.074-.166a2.29 2.29 0 0 0 .837-.511c.235-.23.416-.516.544-.857l1.457.409a3.224 3.224 0 0 1-.773 1.304c-.363.371-.81.661-1.343.87-.532.204-1.131.307-1.796.307Zm9.582-5.728c0 1.611-.211 3.094-.633 4.449a13.745 13.745 0 0 1-1.796 3.733h-1.33a7.99 7.99 0 0 0 .857-1.56c.268-.613.503-1.287.703-2.019.2-.738.356-1.498.467-2.282.115-.789.172-1.562.172-2.321 0-1.014-.098-2.043-.294-3.087a17.664 17.664 0 0 0-.793-2.908c-.332-.895-.703-1.624-1.112-2.187h1.33a13.73 13.73 0 0 1 1.796 3.74c.422 1.351.633 2.831.633 4.442ZM780.36 44v-1.994l4.66-4.315c.396-.384.728-.729.997-1.035.273-.307.479-.608.62-.902a2.23 2.23 0 0 0 .211-.965c0-.383-.088-.714-.262-.99a1.725 1.725 0 0 0-.716-.646 2.246 2.246 0 0 0-1.029-.23c-.401 0-.75.08-1.049.242a1.675 1.675 0 0 0-.69.697c-.162.303-.243.663-.243 1.08h-2.627c0-.856.194-1.6.582-2.23a3.885 3.885 0 0 1 1.63-1.464c.699-.345 1.504-.518 2.416-.518.937 0 1.753.166 2.448.499.699.328 1.242.784 1.63 1.368.388.583.582 1.252.582 2.007 0 .494-.098.982-.294 1.464-.192.481-.535 1.016-1.029 1.604-.495.584-1.191 1.285-2.091 2.103l-1.911 1.873v.09h5.497V44h-9.332Zm16.471.288c-1.1-.005-2.046-.275-2.838-.812-.789-.537-1.396-1.315-1.822-2.333-.422-1.019-.631-2.244-.627-3.676 0-1.427.211-2.644.633-3.65.426-1.005 1.034-1.77 1.822-2.294.793-.529 1.736-.793 2.832-.793 1.095 0 2.037.264 2.825.793.793.528 1.402 1.295 1.828 2.3.426 1.002.637 2.217.633 3.644 0 1.436-.213 2.664-.639 3.682-.422 1.019-1.027 1.796-1.816 2.333-.788.537-1.732.806-2.831.806Zm0-2.295c.75 0 1.348-.377 1.796-1.132.447-.754.669-1.885.665-3.394 0-.993-.103-1.82-.307-2.48-.201-.66-.486-1.157-.857-1.49a1.867 1.867 0 0 0-1.297-.498c-.746 0-1.343.373-1.79 1.119-.448.746-.673 1.862-.678 3.35 0 1.005.1 1.844.301 2.518.204.669.492 1.172.863 1.508.37.333.805.499 1.304.499Zm12.955-11.084V44h-2.768V33.536h-.077l-2.998 1.88V32.96l3.241-2.052h2.602Zm7.95 13.27c-.955 0-1.805-.164-2.551-.492-.741-.333-1.327-.789-1.757-1.368-.427-.584-.646-1.257-.659-2.02h2.787c.017.32.122.6.313.844.196.238.456.424.78.556a2.87 2.87 0 0 0 1.093.198 2.65 2.65 0 0 0 1.119-.224c.324-.149.577-.355.76-.62a1.56 1.56 0 0 0 .275-.914c0-.35-.098-.658-.294-.927-.191-.272-.468-.485-.831-.639-.358-.153-.784-.23-1.278-.23h-1.221V36.31h1.221c.418 0 .786-.072 1.106-.217a1.78 1.78 0 0 0 .754-.6 1.56 1.56 0 0 0 .268-.909c0-.328-.078-.615-.236-.862a1.56 1.56 0 0 0-.652-.589 2.12 2.12 0 0 0-.972-.21 2.54 2.54 0 0 0-1.029.204c-.311.132-.56.322-.748.569a1.502 1.502 0 0 0-.3.87h-2.653c.013-.755.228-1.42.646-1.995.417-.575.98-1.025 1.687-1.349.712-.328 1.515-.492 2.41-.492.904 0 1.694.164 2.372.492.677.328 1.203.772 1.578 1.33.38.554.567 1.176.563 1.866.004.733-.224 1.345-.684 1.835-.456.49-1.05.801-1.783.933v.102c.963.124 1.696.458 2.198 1.004.508.541.759 1.219.755 2.033a3.194 3.194 0 0 1-.646 1.987c-.43.58-1.025 1.036-1.783 1.368-.759.333-1.628.499-2.608.499Zm-50.827 8.73h1.892l4.449 10.867h.154l4.449-10.867h1.892V66h-1.483v-9.946h-.128L774.043 66h-1.432l-4.091-9.946h-.128V66h-1.483V52.91Zm18.699 13.321a3.991 3.991 0 0 1-1.694-.351 2.906 2.906 0 0 1-1.208-1.03c-.299-.451-.448-.997-.448-1.636 0-.562.111-1.018.333-1.368a2.34 2.34 0 0 1 .888-.83c.371-.201.78-.35 1.227-.448.452-.102.906-.184 1.362-.243.597-.077 1.08-.134 1.451-.173.375-.042.648-.113.818-.21.175-.099.262-.27.262-.512v-.051c0-.63-.172-1.12-.518-1.47-.34-.35-.858-.525-1.553-.525-.72 0-1.285.158-1.694.473-.409.316-.696.652-.863 1.01l-1.431-.51c.255-.598.596-1.062 1.022-1.394a3.834 3.834 0 0 1 1.407-.704 5.837 5.837 0 0 1 1.508-.204c.315 0 .678.038 1.087.115.413.073.812.224 1.195.454.388.23.71.577.965 1.042.256.464.384 1.086.384 1.866V66h-1.509v-1.33h-.076a2.67 2.67 0 0 1-.512.684c-.238.243-.556.45-.952.62-.397.17-.88.256-1.451.256Zm.23-1.355c.596 0 1.099-.117 1.508-.352a2.392 2.392 0 0 0 1.253-2.077v-1.38c-.064.076-.204.146-.422.21-.213.06-.46.113-.741.16a34 34 0 0 1-1.445.192 5.77 5.77 0 0 0-1.099.25c-.337.11-.61.278-.818.504-.205.222-.307.524-.307.908 0 .524.194.92.582 1.189.392.264.888.396 1.489.396Zm8.532-11.966V66h-1.509V52.91h1.509Zm6.879 13.295c-.946 0-1.762-.208-2.448-.626a4.205 4.205 0 0 1-1.579-1.764c-.366-.759-.55-1.64-.55-2.646s.184-1.892.55-2.66c.371-.77.886-1.372 1.547-1.802.665-.435 1.44-.652 2.327-.652.511 0 1.016.085 1.515.256.498.17.952.447 1.361.83.409.38.735.883.978 1.51.243.626.364 1.397.364 2.313v.64h-7.568v-1.305h6.034c0-.554-.11-1.048-.332-1.483a2.5 2.5 0 0 0-.933-1.029c-.401-.251-.874-.377-1.419-.377-.601 0-1.121.15-1.56.447a2.947 2.947 0 0 0-1.004 1.151c-.234.473-.351.98-.351 1.521v.87c0 .741.128 1.37.383 1.885.26.512.62.902 1.081 1.17.46.264.995.396 1.604.396.396 0 .754-.055 1.074-.166a2.29 2.29 0 0 0 .837-.511c.235-.23.416-.516.544-.857l1.457.41a3.228 3.228 0 0 1-.773 1.303c-.363.371-.81.66-1.343.87-.532.204-1.131.306-1.796.306Zm7.766-3.783-.025-1.867h.307l4.295-4.372h1.867l-4.577 4.628h-.128l-1.739 1.61ZM807.609 66V52.91h1.509V66h-1.509Zm6.239 0-3.835-4.858 1.073-1.048L815.765 66h-1.917Zm3.552 0v-9.818h1.509V66H817.4Zm.767-11.455c-.294 0-.547-.1-.76-.3a.965.965 0 0 1-.314-.722c0-.282.105-.522.314-.723.213-.2.466-.3.76-.3s.546.1.755.3c.213.2.319.442.319.723a.956.956 0 0 1-.319.722c-.209.2-.461.3-.755.3Zm7.775 1.637v1.278h-5.088v-1.278h5.088Zm-3.606-2.352h1.509v9.358c0 .426.062.745.185.958.128.21.29.35.486.422.2.068.411.103.633.103.166 0 .303-.01.409-.026l.256-.051.307 1.355a3.085 3.085 0 0 1-.429.115 3.147 3.147 0 0 1-.696.064c-.427 0-.844-.092-1.253-.275a2.485 2.485 0 0 1-1.01-.837c-.264-.375-.397-.848-.397-1.42V53.83Zm7.594 6.264V66h-1.508V52.91h1.508v4.806h.128a2.77 2.77 0 0 1 1.036-1.208c.464-.303 1.082-.454 1.853-.454.669 0 1.255.134 1.758.403.503.264.893.67 1.17 1.22.281.546.422 1.24.422 2.084V66h-1.509v-6.136c0-.78-.202-1.383-.607-1.81-.401-.43-.957-.645-1.668-.645-.495 0-.938.105-1.33.313a2.281 2.281 0 0 0-.92.914c-.222.4-.333.887-.333 1.458ZM1094.34 18v-1.994l4.66-4.315c.4-.384.73-.729 1-1.036a4 4 0 0 0 .62-.9c.14-.299.21-.62.21-.966 0-.383-.09-.714-.26-.99a1.78 1.78 0 0 0-.72-.646c-.3-.154-.64-.23-1.03-.23-.4 0-.75.08-1.05.242-.29.162-.52.395-.69.697-.16.303-.24.663-.24 1.08h-2.63c0-.856.2-1.6.59-2.23.38-.631.93-1.119 1.63-1.464.7-.345 1.5-.518 2.41-.518.94 0 1.76.166 2.45.499.7.328 1.24.784 1.63 1.368.39.583.58 1.252.58 2.007 0 .494-.1.982-.29 1.464-.19.481-.54 1.016-1.03 1.604-.5.584-1.19 1.285-2.09 2.103l-1.91 1.873v.09h5.49V18h-9.33Zm16.47.288c-1.1-.005-2.04-.275-2.84-.812-.78-.537-1.39-1.315-1.82-2.333-.42-1.019-.63-2.244-.62-3.676 0-1.427.21-2.644.63-3.65.43-1.005 1.03-1.77 1.82-2.294.79-.529 1.74-.793 2.83-.793 1.1 0 2.04.264 2.83.793.79.528 1.4 1.295 1.83 2.3.42 1.002.63 2.217.63 3.644 0 1.436-.21 2.664-.64 3.682-.42 1.019-1.03 1.796-1.82 2.333-.78.537-1.73.806-2.83.806Zm0-2.295c.75 0 1.35-.377 1.8-1.132.45-.754.67-1.885.66-3.394 0-.993-.1-1.82-.3-2.48-.2-.66-.49-1.157-.86-1.49-.37-.332-.8-.498-1.3-.498-.74 0-1.34.373-1.79 1.119-.44.746-.67 1.862-.67 3.35 0 1.005.1 1.845.3 2.518.2.669.49 1.172.86 1.508.37.333.8.499 1.3.499Zm12.96-11.084V18H1121V7.536h-.08l-2.99 1.88V6.96l3.24-2.052h2.6Zm7.99 13.27c-.98 0-1.86-.16-2.62-.48-.77-.323-1.37-.764-1.8-1.323a3.034 3.034 0 0 1-.65-1.898c0-.546.12-1.046.37-1.502.25-.46.59-.842 1.02-1.144a3.35 3.35 0 0 1 1.45-.588v-.09c-.7-.14-1.27-.48-1.7-1.016a2.901 2.901 0 0 1-.66-1.886c0-.677.2-1.28.6-1.809.39-.532.94-.95 1.63-1.253.69-.306 1.48-.46 2.36-.46.89 0 1.67.154 2.36.46.7.307 1.24.727 1.64 1.26.39.528.59 1.129.6 1.802-.01.72-.23 1.349-.67 1.886-.43.537-1 .876-1.68 1.016v.09c.52.085 1 .28 1.42.588.43.302.77.684 1.02 1.144.26.456.39.956.39 1.502 0 .707-.22 1.34-.65 1.898-.44.559-1.04 1-1.81 1.324-.76.32-1.63.479-2.62.479Zm0-2.033c.44 0 .83-.079 1.15-.236.33-.162.59-.384.77-.665.19-.285.28-.614.28-.984 0-.38-.09-.714-.29-1.004a1.954 1.954 0 0 0-.78-.69c-.32-.17-.7-.256-1.13-.256-.42 0-.8.085-1.13.256-.33.166-.59.396-.78.69-.19.29-.29.624-.29 1.004 0 .37.1.699.28.984.18.281.44.503.77.665.33.157.72.236 1.15.236Zm0-5.848c.37 0 .7-.075.98-.224.29-.15.51-.356.67-.62.16-.264.25-.57.25-.914 0-.341-.09-.64-.25-.895-.16-.26-.38-.462-.66-.607-.28-.15-.61-.224-.99-.224-.37 0-.7.074-.98.224-.29.145-.51.347-.67.607-.16.256-.24.554-.24.895 0 .345.08.65.24.914.17.264.39.47.67.62.29.149.62.224.98.224Zm-46.89 18.017V26.91h9.82v1.406h-4.12V40h-1.58V28.315h-4.12Zm13.57 5.779V40h-1.51V26.91h1.51v4.806h.13c.23-.507.57-.91 1.03-1.208.47-.303 1.08-.454 1.86-.454.66 0 1.25.134 1.75.403.51.264.9.67 1.17 1.22.28.546.42 1.24.42 2.084V40h-1.5v-6.136c0-.78-.21-1.383-.61-1.81-.4-.43-.96-.645-1.67-.645-.49 0-.94.105-1.33.313a2.3 2.3 0 0 0-.92.914c-.22.4-.33.887-.33 1.458Zm12.01 6.136a3.99 3.99 0 0 1-1.69-.351 2.905 2.905 0 0 1-1.21-1.03c-.3-.451-.45-.997-.45-1.636 0-.562.11-1.018.34-1.368.22-.353.51-.63.88-.83.38-.201.78-.35 1.23-.448.45-.102.91-.184 1.36-.243.6-.077 1.08-.134 1.45-.173.38-.042.65-.113.82-.21.18-.099.26-.27.26-.512v-.051c0-.63-.17-1.12-.51-1.47-.34-.35-.86-.524-1.56-.524-.72 0-1.28.157-1.69.473-.41.315-.7.651-.86 1.01l-1.43-.512c.25-.596.59-1.061 1.02-1.393.43-.337.9-.571 1.4-.703a5.928 5.928 0 0 1 1.51-.205c.32 0 .68.038 1.09.115.41.072.81.224 1.19.454.39.23.71.577.97 1.042.26.464.38 1.086.38 1.866V40h-1.51v-1.33h-.07c-.1.213-.27.441-.51.684-.24.243-.56.45-.96.62-.39.17-.88.256-1.45.256Zm.23-1.355c.6 0 1.1-.117 1.51-.352a2.334 2.334 0 0 0 1.25-2.077v-1.38c-.06.076-.2.146-.42.21-.21.06-.46.113-.74.16-.28.043-.55.081-.81.115-.26.03-.47.055-.63.077-.4.051-.76.134-1.1.25-.34.11-.61.278-.82.504-.21.222-.31.524-.31.908 0 .524.2.92.58 1.189.4.264.89.396 1.49.396Zm8.54-4.781V40h-1.51v-9.818h1.45v1.534h.13c.23-.499.58-.9 1.05-1.202.47-.307 1.07-.46 1.82-.46.66 0 1.24.136 1.74.41.5.268.89.677 1.16 1.226.28.546.42 1.236.42 2.071V40h-1.51v-6.136c0-.772-.2-1.372-.6-1.803-.4-.435-.95-.652-1.65-.652-.48 0-.91.105-1.29.313a2.23 2.23 0 0 0-.89.914c-.22.4-.32.887-.32 1.458Zm13 6.11c-.88 0-1.66-.21-2.33-.632-.66-.422-1.18-1.012-1.56-1.77-.37-.76-.55-1.646-.55-2.66 0-1.023.18-1.915.55-2.678.38-.763.9-1.355 1.56-1.777.67-.422 1.45-.633 2.33-.633.89 0 1.67.21 2.33.633.67.422 1.19 1.014 1.56 1.777.38.763.56 1.655.56 2.678 0 1.014-.18 1.9-.56 2.66-.37.758-.89 1.348-1.56 1.77-.66.422-1.44.633-2.33.633Zm0-1.355c.68 0 1.23-.172 1.67-.517.43-.346.75-.8.96-1.362.21-.562.32-1.172.32-1.828a5.24 5.24 0 0 0-.32-1.835 3.13 3.13 0 0 0-.96-1.374c-.44-.35-.99-.524-1.67-.524-.67 0-1.22.175-1.66.524-.43.35-.75.808-.96 1.374a5.24 5.24 0 0 0-.32 1.835c0 .656.11 1.266.32 1.828.21.563.53 1.017.96 1.362.44.345.99.517 1.66.517Zm13.71-6.468-1.35.383a2.887 2.887 0 0 0-.38-.658 1.764 1.764 0 0 0-.67-.537c-.28-.14-.64-.211-1.08-.211-.6 0-1.1.138-1.5.415-.39.273-.59.62-.59 1.042 0 .375.13.672.41.889.27.217.7.398 1.27.543l1.46.358c.88.213 1.53.54 1.96.978.43.435.65.995.65 1.681 0 .563-.16 1.066-.49 1.509-.32.443-.76.792-1.34 1.048-.57.256-1.24.384-2.01.384-1 0-1.83-.218-2.48-.652-.66-.435-1.07-1.07-1.25-1.905l1.43-.358c.14.528.4.925.78 1.189s.88.396 1.5.396c.7 0 1.26-.15 1.67-.447.42-.303.63-.665.63-1.087 0-.341-.12-.627-.36-.857-.24-.234-.6-.409-1.1-.524l-1.63-.383c-.9-.213-1.56-.544-1.99-.991-.41-.452-.62-1.016-.62-1.694 0-.554.15-1.044.47-1.47.31-.426.74-.76 1.28-1.004.55-.243 1.16-.364 1.85-.364.98 0 1.74.213 2.29.64.56.425.96.988 1.19 1.687ZM1025.29 62h-1.66l4.81-13.09h1.63l4.81 13.09h-1.66l-3.91-11.02h-.11L1025.29 62Zm.62-5.114h6.7v1.407h-6.7v-1.407Zm17.6-4.704L1039.88 62h-1.53l-3.63-9.818h1.63l2.71 7.824h.11l2.71-7.824h1.63Zm5.76 10.023c-.95 0-1.76-.21-2.45-.627a4.214 4.214 0 0 1-1.58-1.764c-.36-.759-.55-1.64-.55-2.646s.19-1.892.55-2.66c.37-.77.89-1.372 1.55-1.802.66-.435 1.44-.652 2.33-.652.51 0 1.01.085 1.51.256.5.17.95.447 1.36.83.41.38.74.883.98 1.51.24.626.36 1.397.36 2.313v.64h-7.56v-1.305h6.03c0-.554-.11-1.048-.33-1.483a2.55 2.55 0 0 0-.93-1.029c-.41-.251-.88-.377-1.42-.377-.6 0-1.12.15-1.56.447a2.97 2.97 0 0 0-1.01 1.151c-.23.473-.35.98-.35 1.521v.87c0 .741.13 1.37.38 1.885.26.512.62.902 1.09 1.17.46.264.99.396 1.6.396.4 0 .75-.055 1.07-.166.33-.115.61-.285.84-.511.24-.23.42-.516.54-.857l1.46.41a3.21 3.21 0 0 1-.77 1.303c-.36.371-.81.66-1.34.87-.54.204-1.14.306-1.8.306Zm7.87-6.111V62h-1.51v-9.818h1.46v1.534h.12c.24-.499.58-.9 1.05-1.202.47-.307 1.08-.46 1.82-.46.66 0 1.25.136 1.74.41.5.267.89.677 1.17 1.226.27.546.41 1.236.41 2.071V62h-1.51v-6.136c0-.772-.2-1.372-.6-1.803-.4-.435-.95-.652-1.65-.652-.48 0-.91.105-1.29.313-.37.21-.67.514-.89.914-.21.4-.32.887-.32 1.458Zm12.98 9.792c-.73 0-1.35-.093-1.88-.28-.52-.184-.96-.427-1.31-.73a3.977 3.977 0 0 1-.82-.958l1.2-.844c.14.179.31.383.52.614.21.234.49.436.85.607.37.174.85.262 1.44.262.79 0 1.45-.192 1.96-.576.52-.383.78-.984.78-1.802v-1.994h-.13c-.11.179-.27.4-.47.664-.2.26-.49.493-.87.697-.38.2-.88.3-1.52.3-.8 0-1.51-.187-2.14-.562-.62-.375-1.12-.92-1.49-1.636-.36-.716-.54-1.586-.54-2.608 0-1.006.18-1.882.53-2.627.35-.75.85-1.33 1.48-1.739.63-.413 1.36-.62 2.18-.62.64 0 1.15.106 1.52.32.38.208.67.447.87.715.21.265.36.482.48.653h.15v-1.56h1.46v10.1c0 .843-.2 1.53-.58 2.058-.38.532-.89.922-1.53 1.17-.64.25-1.35.376-2.14.376Zm-.05-5.394c.61 0 1.12-.139 1.54-.416.41-.277.73-.675.95-1.195.21-.52.32-1.142.32-1.867 0-.707-.1-1.332-.32-1.873-.21-.54-.52-.965-.94-1.272-.42-.306-.94-.46-1.55-.46-.64 0-1.17.162-1.6.486-.42.324-.74.758-.95 1.304-.21.545-.31 1.15-.31 1.815 0 .682.1 1.285.32 1.81.21.519.53.928.96 1.226.42.294.95.442 1.58.442Zm11.17 1.713c-.94 0-1.76-.21-2.44-.627-.69-.422-1.21-1.01-1.58-1.764-.37-.759-.55-1.64-.55-2.646s.18-1.892.55-2.66c.37-.77.88-1.372 1.54-1.802.67-.435 1.44-.652 2.33-.652.51 0 1.02.085 1.52.256.49.17.95.447 1.36.83.41.38.73.883.98 1.51.24.626.36 1.397.36 2.313v.64h-7.57v-1.305h6.04c0-.554-.12-1.048-.34-1.483a2.48 2.48 0 0 0-.93-1.029c-.4-.251-.87-.377-1.42-.377-.6 0-1.12.15-1.56.447-.43.295-.77.678-1 1.151-.24.473-.35.98-.35 1.521v.87c0 .741.12 1.37.38 1.885.26.512.62.902 1.08 1.17.46.264.99.396 1.6.396.4 0 .76-.055 1.08-.166.32-.115.6-.285.84-.511.23-.23.41-.516.54-.857l1.46.41c-.16.494-.42.928-.78 1.303-.36.371-.81.66-1.34.87-.53.204-1.13.306-1.8.306Zm6.36-.205v-9.818h1.46v1.483h.1c.18-.486.51-.88.98-1.183.46-.302.99-.454 1.58-.454.11 0 .25.003.42.007.16.004.29.01.37.019v1.534a3.788 3.788 0 0 0-.35-.057c-.18-.03-.37-.045-.57-.045-.47 0-.9.1-1.28.3-.37.196-.66.469-.88.818-.21.346-.32.74-.32 1.183V62h-1.51Zm13.66-7.62-1.36.384a2.298 2.298 0 0 0-.38-.658 1.807 1.807 0 0 0-.66-.537c-.28-.14-.64-.211-1.08-.211-.6 0-1.1.138-1.5.415-.4.273-.6.62-.6 1.042 0 .375.14.672.41.889.27.217.7.398 1.28.543l1.46.358c.87.213 1.53.54 1.96.978.43.435.65.995.65 1.681 0 .563-.17 1.066-.49 1.509-.32.443-.77.792-1.34 1.048-.58.256-1.25.384-2.01.384-1 0-1.83-.218-2.49-.652-.65-.435-1.07-1.07-1.24-1.905l1.43-.358c.14.528.39.925.77 1.189.39.264.89.396 1.5.396.71 0 1.27-.15 1.68-.447.42-.303.63-.665.63-1.087 0-.341-.12-.627-.36-.857-.24-.234-.61-.409-1.1-.524l-1.64-.383c-.9-.213-1.56-.544-1.98-.991-.42-.452-.63-1.016-.63-1.694 0-.554.16-1.044.47-1.47.32-.426.74-.76 1.29-1.004.54-.243 1.16-.364 1.85-.364.97 0 1.73.213 2.29.64.56.425.95.988 1.19 1.687Zm3.55 7.722c-.32 0-.59-.113-.82-.338a1.132 1.132 0 0 1-.34-.812c0-.316.12-.586.34-.812.23-.226.5-.339.82-.339.31 0 .58.113.81.339a1.132 1.132 0 0 1 .18 1.387 1.23 1.23 0 0 1-.42.422c-.17.102-.36.153-.57.153Zm0-7.287c-.32 0-.59-.113-.82-.338a1.132 1.132 0 0 1-.34-.812c0-.316.12-.586.34-.812.23-.226.5-.339.82-.339.31 0 .58.113.81.339a1.132 1.132 0 0 1 .18 1.387 1.23 1.23 0 0 1-.42.422c-.17.102-.36.153-.57.153Zm10.71-5.906V62h-1.59V48.91h1.59Zm4.48 7.185V62h-1.51v-9.818h1.46v1.534h.12c.23-.499.58-.9 1.05-1.202.47-.307 1.08-.46 1.82-.46.66 0 1.24.136 1.74.41.5.267.89.677 1.17 1.226.27.546.41 1.236.41 2.071V62h-1.51v-6.136c0-.772-.2-1.372-.6-1.803-.4-.435-.95-.652-1.65-.652-.48 0-.91.105-1.29.313-.37.21-.67.514-.89.914-.21.4-.32.887-.32 1.458Zm13.39-3.912v1.278h-5.29v-1.278h5.29ZM1129.68 62V50.827c0-.563.14-1.032.4-1.407s.61-.656 1.03-.843c.42-.188.87-.282 1.33-.282.38 0 .68.03.91.09.24.06.41.115.53.166l-.44 1.304a7.355 7.355 0 0 0-.32-.096c-.13-.038-.3-.057-.52-.057-.5 0-.86.125-1.08.377-.22.251-.33.62-.33 1.106V62h-1.51Zm5.82 0v-9.818h1.51V62h-1.51Zm.77-11.455c-.29 0-.55-.1-.76-.3a.958.958 0 0 1-.31-.722c0-.282.1-.522.31-.723.21-.2.47-.3.76-.3.3 0 .55.1.76.3.21.2.32.442.32.723 0 .281-.11.522-.32.722-.21.2-.46.3-.76.3Zm5.01 5.549V62h-1.5v-9.818h1.45v1.534h.13c.23-.499.58-.9 1.05-1.202.47-.307 1.07-.46 1.82-.46.66 0 1.24.136 1.74.41.5.267.89.677 1.16 1.226.28.546.42 1.236.42 2.071V62h-1.51v-6.136c0-.772-.2-1.372-.6-1.803-.4-.435-.95-.652-1.65-.652-.48 0-.91.105-1.29.313a2.23 2.23 0 0 0-.89.914c-.22.4-.33.887-.33 1.458Zm9.03 5.906v-9.818h1.5V62h-1.5Zm.76-11.455c-.29 0-.55-.1-.76-.3a.958.958 0 0 1-.31-.722c0-.282.1-.522.31-.723.21-.2.47-.3.76-.3.3 0 .55.1.76.3.21.2.32.442.32.723 0 .281-.11.522-.32.722-.21.2-.46.3-.76.3Zm7.78 1.637v1.278h-5.09v-1.278h5.09Zm-3.61-2.352h1.51v9.358c0 .426.06.745.19.958.12.21.29.35.48.422.2.068.41.102.63.102.17 0 .31-.008.41-.025l.26-.051.31 1.355a3.275 3.275 0 0 1-1.13.179c-.43 0-.84-.092-1.25-.275a2.466 2.466 0 0 1-1.01-.837c-.27-.375-.4-.848-.4-1.42V49.83Zm6.85 15.852c-.26 0-.49-.022-.69-.064-.2-.038-.34-.077-.41-.115l.38-1.33c.37.094.69.128.97.103.28-.026.53-.152.75-.378.22-.221.43-.581.61-1.08l.28-.767-3.63-9.87h1.64l2.71 7.825h.1l2.71-7.824h1.63l-4.16 11.25c-.19.507-.42.927-.7 1.26-.28.336-.6.585-.97.747-.36.162-.77.243-1.22.243ZM1178.78 62l-3.58-13.09h1.61l2.74 10.661h.13l2.78-10.662h1.79l2.79 10.662h.13l2.73-10.662h1.61L1187.93 62h-1.63l-2.89-10.432h-.1L1180.42 62h-1.64Zm16.48.23c-.62 0-1.19-.117-1.69-.351a2.905 2.905 0 0 1-1.21-1.03c-.3-.451-.45-.997-.45-1.636 0-.562.11-1.018.33-1.368.22-.353.52-.63.89-.83.37-.201.78-.35 1.23-.448.45-.102.9-.184 1.36-.243.6-.077 1.08-.134 1.45-.173.38-.042.65-.113.82-.21.17-.099.26-.27.26-.512v-.051c0-.63-.17-1.12-.52-1.47-.34-.35-.86-.525-1.55-.525-.72 0-1.29.158-1.69.473-.41.316-.7.652-.87 1.01l-1.43-.51c.26-.598.6-1.062 1.02-1.394.43-.337.9-.571 1.41-.704a5.812 5.812 0 0 1 1.51-.204c.31 0 .68.038 1.09.115.41.073.81.224 1.19.454.39.23.71.577.97 1.042.25.464.38 1.086.38 1.866V62h-1.51v-1.33h-.08c-.1.213-.27.441-.51.684-.24.243-.55.45-.95.62-.4.17-.88.256-1.45.256Zm.23-1.355c.6 0 1.1-.117 1.51-.352.41-.234.72-.537.93-.907.21-.371.32-.76.32-1.17v-1.38c-.06.076-.2.146-.42.21-.21.06-.46.113-.74.16-.28.043-.55.081-.81.115-.26.03-.48.055-.64.077-.39.051-.76.134-1.1.25-.33.11-.61.278-.81.504-.21.222-.31.524-.31.908 0 .524.19.92.58 1.189.39.264.89.396 1.49.396Zm7.02 1.125v-9.818h1.46v1.483h.1c.18-.486.51-.88.97-1.183.47-.302 1-.454 1.59-.454.11 0 .25.003.41.007.17.004.3.01.38.019v1.534a4.572 4.572 0 0 0-.35-.057c-.18-.03-.37-.045-.57-.045-.48 0-.9.1-1.28.3-.37.196-.66.469-.88.818-.21.346-.32.74-.32 1.183V62h-1.51Z"/>
</svg>
