<svg xmlns="http://www.w3.org/2000/svg" width="386" height="1217" fill="none" viewBox="0 0 386 1217">
  <path fill="#75BCF0" d="M222.5 69v1060h-5V69z"/>
  <circle cx="220" cy="69.5" r="12" fill="#fff" stroke="#75BCF0" stroke-width="3" transform="rotate(90 220 69.5)"/>
  <circle cx="220" cy="340.5" r="8" fill="#fff" stroke="#75BCF0" stroke-width="3" transform="rotate(90 220 340.5)"/>
  <circle cx="220" cy="699.5" r="8" fill="#fff" stroke="#75BCF0" stroke-width="3" transform="rotate(90 220 699.5)"/>
  <circle cx="220" cy="1128.5" r="12" fill="#fff" stroke="#75BCF0" stroke-width="3" transform="rotate(90 220 1128.5)"/>
  <path fill="#fff" d="M196.022 9h-1.585a3.306 3.306 0 0 0-1.336-2.071 3.575 3.575 0 0 0-1.093-.537 4.367 4.367 0 0 0-1.253-.179c-.793 0-1.511.2-2.154.6-.639.401-1.148.992-1.528 1.772-.375.78-.562 1.736-.562 2.87 0 1.133.187 2.09.562 2.87.38.78.889 1.37 1.528 1.77.643.4 1.361.601 2.154.601.435 0 .852-.06 1.253-.179.401-.12.765-.296 1.093-.53.332-.24.614-.531.844-.876.234-.35.398-.75.492-1.202h1.585a5.262 5.262 0 0 1-.652 1.796 4.9 4.9 0 0 1-1.176 1.349 5.15 5.15 0 0 1-1.579.837 5.879 5.879 0 0 1-1.86.288c-1.116 0-2.109-.273-2.979-.818-.869-.546-1.553-1.321-2.051-2.327-.499-1.006-.748-2.199-.748-3.58 0-1.38.249-2.573.748-3.579.498-1.006 1.182-1.781 2.051-2.327.87-.545 1.863-.818 2.979-.818a5.88 5.88 0 0 1 1.86.288c.584.192 1.11.473 1.579.844.469.366.861.813 1.176 1.342.316.524.533 1.123.652 1.796Zm2.357 9V8.182h1.458v1.483h.102c.179-.486.503-.88.971-1.183a2.863 2.863 0 0 1 1.586-.454c.11 0 .249.003.415.007.166.004.292.01.377.019v1.534a4.452 4.452 0 0 0-.351-.057 3.464 3.464 0 0 0-.569-.045c-.477 0-.904.1-1.279.3-.37.196-.664.469-.882.818a2.21 2.21 0 0 0-.319 1.183V18h-1.509Zm10.515.204c-.946 0-1.762-.208-2.448-.626a4.205 4.205 0 0 1-1.579-1.764c-.366-.759-.55-1.64-.55-2.646s.184-1.892.55-2.66c.371-.77.887-1.372 1.547-1.802.665-.435 1.44-.652 2.327-.652.511 0 1.016.085 1.515.256.498.17.952.447 1.361.83.409.38.735.883.978 1.51.243.626.364 1.397.364 2.313v.64h-7.568v-1.305h6.034c0-.554-.11-1.048-.332-1.483a2.5 2.5 0 0 0-.933-1.029c-.401-.251-.874-.377-1.419-.377-.601 0-1.121.15-1.56.448a2.937 2.937 0 0 0-1.003 1.15c-.235.473-.352.98-.352 1.521v.87c0 .741.128 1.37.383 1.885.26.512.621.902 1.081 1.17.46.264.995.396 1.604.396.396 0 .754-.055 1.074-.166a2.29 2.29 0 0 0 .837-.511c.235-.23.416-.516.544-.857l1.457.41a3.228 3.228 0 0 1-.773 1.303c-.363.371-.81.66-1.343.87-.532.204-1.131.306-1.796.306Zm9.249.026a3.987 3.987 0 0 1-1.693-.351 2.909 2.909 0 0 1-1.209-1.03c-.298-.451-.447-.997-.447-1.636 0-.562.111-1.018.332-1.368.222-.354.518-.63.889-.83.371-.201.78-.35 1.227-.448.452-.103.906-.184 1.362-.243.596-.077 1.08-.134 1.451-.173.375-.042.647-.113.818-.21.175-.099.262-.27.262-.512v-.051c0-.63-.173-1.12-.518-1.47-.341-.35-.859-.524-1.553-.524-.72 0-1.285.157-1.694.473-.409.315-.697.652-.863 1.01l-1.432-.512c.256-.596.597-1.061 1.023-1.393a3.83 3.83 0 0 1 1.406-.703 5.842 5.842 0 0 1 1.509-.205c.315 0 .677.038 1.086.115a3.48 3.48 0 0 1 1.196.454c.387.23.709.577.965 1.042.256.464.383 1.086.383 1.866V18h-1.508v-1.33h-.077c-.102.213-.273.441-.511.684-.239.243-.556.45-.953.62-.396.17-.88.256-1.451.256Zm.231-1.355c.596 0 1.099-.117 1.508-.352a2.396 2.396 0 0 0 1.253-2.077v-1.38c-.064.076-.205.146-.422.21-.213.06-.46.113-.741.16a34 34 0 0 1-1.445.192 5.752 5.752 0 0 0-1.099.25c-.337.11-.61.278-.819.504-.204.222-.306.524-.306.908 0 .524.193.92.581 1.189.392.264.889.396 1.49.396Zm11.293-8.693V9.46h-5.088V8.182h5.088Zm-3.605-2.352h1.508v9.357c0 .427.062.746.185.96.128.208.29.349.486.421.201.068.411.102.633.102.166 0 .303-.008.409-.025l.256-.051.307 1.355a3.085 3.085 0 0 1-.429.115 3.147 3.147 0 0 1-.696.064c-.426 0-.844-.092-1.253-.275a2.485 2.485 0 0 1-1.01-.837c-.264-.375-.396-.848-.396-1.42V5.83ZM231.936 18V8.182h1.508V18h-1.508Zm.767-11.455c-.294 0-.548-.1-.761-.3a.964.964 0 0 1-.313-.722c0-.282.104-.522.313-.723.213-.2.467-.3.761-.3s.545.1.754.3c.213.2.32.441.32.723a.957.957 0 0 1-.32.722c-.209.2-.46.3-.754.3Zm7.493 11.66c-.886 0-1.664-.211-2.333-.633-.665-.422-1.185-1.012-1.56-1.77-.371-.76-.556-1.646-.556-2.66 0-1.023.185-1.915.556-2.678.375-.763.895-1.355 1.56-1.777.669-.422 1.447-.633 2.333-.633.886 0 1.662.21 2.327.633.669.422 1.189 1.014 1.559 1.777.375.763.563 1.655.563 2.678 0 1.014-.188 1.9-.563 2.66-.37.758-.89 1.348-1.559 1.77-.665.422-1.441.633-2.327.633Zm0-1.356c.673 0 1.227-.172 1.662-.517.435-.346.756-.8.965-1.362a5.208 5.208 0 0 0 .313-1.828c0-.656-.104-1.268-.313-1.835a3.09 3.09 0 0 0-.965-1.374c-.435-.35-.989-.524-1.662-.524-.673 0-1.227.175-1.662.524a3.09 3.09 0 0 0-.965 1.374 5.261 5.261 0 0 0-.313 1.835c0 .656.104 1.266.313 1.828.209.563.53 1.016.965 1.362.435.345.989.517 1.662.517Zm8.26-4.755V18h-1.508V8.182h1.457v1.534h.128a2.8 2.8 0 0 1 1.048-1.202c.469-.307 1.074-.46 1.815-.46.665 0 1.247.136 1.745.41.499.268.887.677 1.164 1.226.277.546.415 1.236.415 2.071V18h-1.508v-6.136c0-.772-.201-1.373-.601-1.803-.401-.435-.95-.652-1.649-.652a2.63 2.63 0 0 0-1.291.313 2.24 2.24 0 0 0-.889.914c-.217.4-.326.887-.326 1.458Zm-70.739 21.36c0-1.61.209-3.091.626-4.442a13.859 13.859 0 0 1 1.803-3.74h1.329a8.256 8.256 0 0 0-.862 1.56 15.052 15.052 0 0 0-.697 2.027c-.2.733-.358 1.491-.473 2.275a16.539 16.539 0 0 0-.166 2.32c0 1.015.098 2.044.294 3.088.196 1.044.46 2.013.792 2.908.333.895.703 1.624 1.112 2.186h-1.329a13.88 13.88 0 0 1-1.803-3.733c-.417-1.355-.626-2.838-.626-4.448ZM183.906 40V26.91h4.577c.912 0 1.664.157 2.256.472.592.311 1.034.73 1.323 1.26a3.54 3.54 0 0 1 .435 1.744c0 .563-.1 1.027-.3 1.394a2.344 2.344 0 0 1-.78.87c-.32.212-.667.37-1.042.472v.128c.4.026.803.166 1.208.422.405.256.743.622 1.016 1.1.273.477.409 1.06.409 1.75 0 .657-.149 1.247-.447 1.771-.298.525-.769.94-1.413 1.247-.643.307-1.481.46-2.512.46h-4.73Zm1.585-1.406h3.145c1.036 0 1.771-.2 2.205-.601.439-.405.659-.895.659-1.47 0-.444-.113-.853-.339-1.228a2.455 2.455 0 0 0-.965-.907c-.418-.23-.912-.345-1.483-.345h-3.222v4.55Zm0-5.932h2.941a2.91 2.91 0 0 0 1.291-.281 2.26 2.26 0 0 0 .92-.793c.23-.34.345-.741.345-1.202 0-.575-.2-1.063-.6-1.463-.401-.405-1.036-.608-1.905-.608h-2.992v4.347ZM195.409 40v-9.818h1.508V40h-1.508Zm.767-11.454c-.294 0-.548-.1-.761-.301a.964.964 0 0 1-.313-.722c0-.282.104-.522.313-.723.213-.2.467-.3.761-.3s.545.1.754.3c.213.2.319.441.319.723a.956.956 0 0 1-.319.722c-.209.2-.46.3-.754.3Zm7.467 15.34c-.729 0-1.355-.093-1.879-.28-.524-.184-.961-.427-1.311-.73a3.975 3.975 0 0 1-.824-.958l1.202-.844c.136.179.309.383.517.614.209.234.495.436.857.607.366.174.846.262 1.438.262.793 0 1.447-.192 1.962-.576.516-.383.774-.984.774-1.802v-1.994h-.128c-.111.179-.268.4-.473.664-.2.26-.49.493-.869.697-.375.2-.882.3-1.522.3-.792 0-1.504-.187-2.135-.562-.626-.375-1.122-.92-1.489-1.636-.362-.716-.543-1.586-.543-2.608 0-1.006.177-1.882.53-2.627.354-.75.846-1.33 1.477-1.739.631-.413 1.359-.62 2.186-.62.639 0 1.146.107 1.521.32.38.208.669.447.87.716.204.264.362.481.473.651h.153v-1.56h1.457v10.1c0 .844-.191 1.53-.575 2.059a3.276 3.276 0 0 1-1.534 1.17c-.639.25-1.351.376-2.135.376Zm-.051-5.395c.605 0 1.116-.138 1.534-.415.418-.277.735-.675.952-1.195.218-.52.326-1.142.326-1.867 0-.707-.106-1.332-.319-1.873-.213-.54-.529-.965-.946-1.272-.418-.306-.933-.46-1.547-.46-.639 0-1.172.162-1.598.486-.422.324-.739.758-.952 1.304a5.036 5.036 0 0 0-.314 1.815c0 .682.107 1.285.32 1.81.217.519.537.928.959 1.226.426.294.954.442 1.585.442ZM215.916 40V26.91h4.576c.912 0 1.665.157 2.257.472.592.311 1.033.73 1.323 1.26a3.54 3.54 0 0 1 .435 1.744c0 .563-.1 1.027-.301 1.394a2.335 2.335 0 0 1-.78.87c-.319.212-.666.37-1.041.472v.128c.4.026.803.166 1.208.422.404.256.743.622 1.016 1.1.273.477.409 1.06.409 1.75 0 .657-.149 1.247-.447 1.771-.299.525-.77.94-1.413 1.247-.643.307-1.481.46-2.512.46h-4.73Zm1.585-1.406h3.145c1.035 0 1.771-.2 2.205-.601.439-.405.659-.895.659-1.47 0-.444-.113-.853-.339-1.228a2.455 2.455 0 0 0-.965-.907c-.418-.23-.912-.345-1.483-.345h-3.222v4.55Zm0-5.932h2.94a2.91 2.91 0 0 0 1.292-.281c.387-.188.694-.452.92-.793.23-.34.345-.741.345-1.202 0-.575-.2-1.063-.601-1.463-.4-.405-1.035-.608-1.905-.608h-2.991v4.347Zm12.806 7.568a3.987 3.987 0 0 1-1.693-.351 2.909 2.909 0 0 1-1.209-1.03c-.298-.451-.447-.997-.447-1.636 0-.562.111-1.018.332-1.368a2.35 2.35 0 0 1 .889-.83c.371-.201.78-.35 1.227-.448.452-.102.906-.184 1.362-.243.596-.077 1.08-.134 1.451-.173.375-.042.647-.113.818-.21.175-.099.262-.27.262-.512v-.051c0-.63-.173-1.12-.518-1.47-.341-.35-.858-.524-1.553-.524-.72 0-1.285.157-1.694.473-.409.315-.697.651-.863 1.01l-1.432-.512c.256-.596.597-1.061 1.023-1.393a3.83 3.83 0 0 1 1.406-.703 5.844 5.844 0 0 1 1.509-.205c.315 0 .677.038 1.086.115.414.072.812.224 1.196.454.388.23.709.577.965 1.042.256.464.383 1.086.383 1.866V40h-1.508v-1.33h-.077a2.64 2.64 0 0 1-.511.684c-.239.243-.556.45-.953.62-.396.17-.879.256-1.451.256Zm.231-1.355c.596 0 1.099-.117 1.508-.352a2.39 2.39 0 0 0 .933-.907c.213-.371.32-.76.32-1.17v-1.38c-.064.076-.205.146-.422.21-.213.06-.46.113-.741.16a34 34 0 0 1-1.445.192 5.752 5.752 0 0 0-1.099.25c-.337.11-.61.278-.819.504-.204.222-.306.524-.306.908 0 .524.193.92.581 1.189.392.264.889.396 1.49.396Zm8.531-4.781V40h-1.508v-9.818h1.457v1.534h.128c.23-.499.58-.9 1.048-1.202.469-.307 1.074-.46 1.816-.46.664 0 1.246.136 1.745.41.498.268.886.677 1.163 1.226.277.546.416 1.236.416 2.071V40h-1.509v-6.136c0-.772-.2-1.372-.601-1.803-.4-.435-.95-.652-1.649-.652-.481 0-.912.105-1.291.313a2.246 2.246 0 0 0-.889.914c-.217.4-.326.887-.326 1.458Zm12.984 9.792c-.728 0-1.355-.093-1.879-.28-.524-.184-.961-.427-1.31-.73a3.98 3.98 0 0 1-.825-.958l1.202-.844c.136.179.309.383.517.614.209.234.495.436.857.607.366.174.846.262 1.438.262.793 0 1.447-.192 1.963-.576.515-.383.773-.984.773-1.802v-1.994h-.128c-.111.179-.268.4-.473.664-.2.26-.49.493-.869.697-.375.2-.882.3-1.521.3-.793 0-1.505-.187-2.135-.562-.627-.375-1.123-.92-1.49-1.636-.362-.716-.543-1.586-.543-2.608 0-1.006.177-1.882.53-2.627.354-.75.846-1.33 1.477-1.739.631-.413 1.359-.62 2.186-.62.639 0 1.146.107 1.521.32.38.208.669.447.87.716.204.264.362.481.473.651h.153v-1.56h1.458v10.1c0 .844-.192 1.53-.576 2.059a3.27 3.27 0 0 1-1.534 1.17c-.639.25-1.351.376-2.135.376Zm-.051-5.395c.605 0 1.117-.138 1.534-.415.418-.277.735-.675.953-1.195.217-.52.326-1.142.326-1.867 0-.707-.107-1.332-.32-1.873-.213-.54-.528-.965-.946-1.272-.418-.306-.933-.46-1.547-.46-.639 0-1.172.162-1.598.486-.422.324-.739.758-.952 1.304a5.036 5.036 0 0 0-.314 1.815c0 .682.107 1.285.32 1.81.217.519.537.928.959 1.226.426.294.954.442 1.585.442Zm10.278-4.014c0 1.611-.21 3.094-.632 4.45a13.773 13.773 0 0 1-1.796 3.732h-1.33c.307-.422.592-.942.857-1.56.268-.613.502-1.286.703-2.02.2-.737.355-1.497.466-2.281.115-.789.173-1.562.173-2.32 0-1.015-.098-2.044-.294-3.088a17.693 17.693 0 0 0-.793-2.909c-.332-.894-.703-1.623-1.112-2.186h1.33a13.75 13.75 0 0 1 1.796 3.74c.422 1.35.632 2.832.632 4.442Zm-.208 283.432h2.768v8.502c0 .954-.228 1.789-.684 2.505-.452.716-1.084 1.274-1.898 1.675-.814.396-1.762.594-2.845.594-1.086 0-2.037-.198-2.851-.594-.814-.401-1.446-.959-1.898-1.675-.452-.716-.678-1.551-.678-2.505v-8.502h2.768v8.265c0 .499.109.942.326 1.33.222.387.533.692.933.914.401.221.868.332 1.4.332.537 0 1.004-.111 1.4-.332.401-.222.71-.527.927-.914.222-.388.332-.831.332-1.33v-8.265Zm7.717 7.415V331h-2.723v-9.818h2.595v1.732h.115a2.743 2.743 0 0 1 1.093-1.355c.512-.337 1.132-.505 1.86-.505.682 0 1.277.149 1.784.447.507.299.901.725 1.182 1.279.282.55.422 1.206.422 1.969V331h-2.723v-5.766c.005-.6-.149-1.069-.46-1.406-.311-.341-.739-.511-1.285-.511-.366 0-.69.079-.971.236a1.645 1.645 0 0 0-.652.691c-.154.298-.233.658-.237 1.08Zm10.942 2.851.006-3.267h.396l3.145-3.726h3.126l-4.225 4.934h-.646l-1.802 2.059ZM278.263 331v-13.091h2.723V331h-2.723Zm6.137 0-2.889-4.276 1.815-1.924 4.263 6.2H284.4Zm7.063-5.676V331h-2.723v-9.818h2.595v1.732h.115a2.743 2.743 0 0 1 1.093-1.355c.512-.337 1.132-.505 1.86-.505.682 0 1.277.149 1.784.447.507.299.901.725 1.182 1.279.281.55.422 1.206.422 1.969V331h-2.723v-5.766c.004-.6-.149-1.069-.46-1.406-.311-.341-.739-.511-1.285-.511-.366 0-.69.079-.972.236a1.651 1.651 0 0 0-.652.691c-.153.298-.232.658-.236 1.08Zm12.91 5.868c-.993 0-1.851-.211-2.576-.633a4.333 4.333 0 0 1-1.668-1.777c-.392-.763-.588-1.647-.588-2.653 0-1.014.196-1.9.588-2.659a4.279 4.279 0 0 1 1.668-1.777c.725-.426 1.583-.639 2.576-.639.993 0 1.85.213 2.57.639a4.27 4.27 0 0 1 1.675 1.777c.392.759.588 1.645.588 2.659 0 1.006-.196 1.89-.588 2.653a4.323 4.323 0 0 1-1.675 1.777c-.72.422-1.577.633-2.57.633Zm.013-2.11c.452 0 .829-.127 1.131-.383.303-.26.531-.614.684-1.061.158-.448.237-.957.237-1.528 0-.571-.079-1.08-.237-1.528-.153-.447-.381-.801-.684-1.061-.302-.26-.679-.39-1.131-.39-.456 0-.839.13-1.15.39-.307.26-.54.614-.697 1.061-.154.448-.23.957-.23 1.528 0 .571.076 1.08.23 1.528.157.447.39.801.697 1.061.311.256.694.383 1.15.383Zm8.281 1.918-2.672-9.818h2.755l1.521 6.596h.09l1.585-6.596h2.704l1.611 6.558h.083l1.496-6.558h2.748L321.923 331h-2.883l-1.688-6.175h-.121L315.543 331h-2.876Zm16.097-5.676V331h-2.723v-9.818h2.595v1.732h.115a2.737 2.737 0 0 1 1.093-1.355c.511-.337 1.131-.505 1.86-.505.682 0 1.276.149 1.783.447a3.04 3.04 0 0 1 1.183 1.279c.281.55.422 1.206.422 1.969V331h-2.723v-5.766c.004-.6-.149-1.069-.46-1.406-.311-.341-.74-.511-1.285-.511-.367 0-.69.079-.972.236a1.651 1.651 0 0 0-.652.691c-.153.298-.232.658-.236 1.08Zm-59.792 14.585 3.886 11.02h.154l3.886-11.02h1.662L273.753 353h-1.636l-4.807-13.091h1.662Zm14.497 13.296c-.886 0-1.664-.211-2.333-.633-.665-.422-1.185-1.012-1.56-1.771-.371-.758-.556-1.645-.556-2.659 0-1.023.185-1.915.556-2.678.375-.763.895-1.355 1.56-1.777.669-.422 1.447-.633 2.333-.633.886 0 1.662.211 2.327.633.669.422 1.189 1.014 1.559 1.777.375.763.563 1.655.563 2.678 0 1.014-.188 1.901-.563 2.659-.37.759-.89 1.349-1.559 1.771-.665.422-1.441.633-2.327.633Zm0-1.356c.673 0 1.227-.172 1.662-.517.435-.345.756-.799.965-1.362a5.206 5.206 0 0 0 .313-1.828c0-.656-.104-1.268-.313-1.834a3.094 3.094 0 0 0-.965-1.375c-.435-.349-.989-.524-1.662-.524-.673 0-1.227.175-1.662.524-.435.35-.756.808-.965 1.375a5.256 5.256 0 0 0-.313 1.834c0 .656.104 1.266.313 1.828.209.563.53 1.017.965 1.362.435.345.989.517 1.662.517Zm6.752 1.151v-9.818h1.457v1.483h.102c.179-.486.503-.88.972-1.183a2.865 2.865 0 0 1 1.585-.454c.111 0 .249.003.415.007.167.004.292.01.378.019v1.534a4.307 4.307 0 0 0-.352-.057 3.445 3.445 0 0 0-.569-.045c-.477 0-.903.1-1.278.3a2.264 2.264 0 0 0-.882.818 2.21 2.21 0 0 0-.32 1.183V353h-1.508Zm6.697 0v-9.818h1.457v1.534h.128c.205-.524.535-.931.991-1.221.456-.294 1.003-.441 1.643-.441.647 0 1.186.147 1.617.441.434.29.773.697 1.016 1.221h.102c.252-.507.629-.91 1.132-1.208.503-.303 1.106-.454 1.809-.454.878 0 1.596.275 2.154.825.558.545.837 1.395.837 2.55V353h-1.508v-6.571c0-.724-.199-1.242-.595-1.553a2.2 2.2 0 0 0-1.4-.467c-.69 0-1.225.209-1.604.627-.379.413-.569.937-.569 1.572V353h-1.534v-6.724c0-.559-.181-1.008-.543-1.349-.363-.345-.829-.518-1.4-.518-.392 0-.759.104-1.1.313a2.373 2.373 0 0 0-.818.87c-.204.366-.307.79-.307 1.272V353h-1.508Zm15.644 0v-9.818h1.509V353h-1.509Zm.767-11.455c-.294 0-.547-.1-.76-.3a.964.964 0 0 1-.313-.722c0-.282.104-.522.313-.723.213-.2.466-.3.76-.3s.546.1.755.3a.957.957 0 0 1 .319.723.955.955 0 0 1-.319.722c-.209.2-.461.3-.755.3ZM316.834 353v-9.818h1.457v1.483h.102c.179-.486.503-.88.972-1.183a2.865 2.865 0 0 1 1.585-.454c.111 0 .25.003.416.007.166.004.292.01.377.019v1.534a4.15 4.15 0 0 0-.352-.057 3.436 3.436 0 0 0-.569-.045c-.477 0-.903.1-1.278.3a2.264 2.264 0 0 0-.882.818 2.21 2.21 0 0 0-.32 1.183V353h-1.508ZM85.011 672.409V685.5h-2.767v-10.464h-.077l-2.998 1.879v-2.454l3.24-2.052h2.602Zm7.848-.179c.673 0 1.321.113 1.943.339a4.481 4.481 0 0 1 1.675 1.08c.494.494.884 1.151 1.17 1.969.29.814.436 1.813.44 2.998 0 1.112-.125 2.105-.376 2.978-.248.87-.603 1.609-1.068 2.218a4.664 4.664 0 0 1-1.68 1.394c-.657.315-1.39.473-2.2.473-.873 0-1.645-.168-2.314-.505a4.344 4.344 0 0 1-1.617-1.387 4.321 4.321 0 0 1-.735-1.982h2.73c.106.478.33.848.67 1.113.341.26.763.39 1.266.39.852 0 1.5-.371 1.943-1.113.444-.745.667-1.766.672-3.061h-.09a3.14 3.14 0 0 1-.792.99 3.683 3.683 0 0 1-1.145.633c-.426.149-.88.224-1.361.224-.771 0-1.46-.181-2.065-.543a3.904 3.904 0 0 1-1.432-1.496c-.35-.635-.524-1.36-.524-2.174-.004-.877.198-1.659.607-2.345.41-.686.98-1.223 1.714-1.611.737-.392 1.593-.586 2.57-.582Zm.02 2.173c-.431 0-.815.103-1.151.307a2.27 2.27 0 0 0-.793.825 2.292 2.292 0 0 0-.281 1.157c0 .43.094.818.281 1.163.192.341.452.614.78.818.332.201.712.301 1.138.301a2.197 2.197 0 0 0 1.598-.671 2.37 2.37 0 0 0 .48-.736 2.352 2.352 0 0 0-.121-2.019 2.235 2.235 0 0 0-.794-.831 2.113 2.113 0 0 0-1.138-.314Zm6.928 8.796v-2.18l5.465-8.61h1.88v3.017h-1.112l-3.446 5.453v.102h7.767v2.218H99.807Zm6.284 2.301v-2.966l.051-.965v-9.16h2.595V685.5h-2.646Zm10.895.179c-.904 0-1.709-.166-2.416-.499-.703-.332-1.262-.79-1.675-1.374a3.533 3.533 0 0 1-.646-2.007h2.685c.03.507.243.918.639 1.234.397.315.867.473 1.413.473.435 0 .818-.096 1.15-.288.337-.196.599-.467.787-.812.191-.349.287-.75.287-1.201 0-.461-.098-.866-.294-1.215a2.075 2.075 0 0 0-.799-.818 2.36 2.36 0 0 0-1.169-.301 2.77 2.77 0 0 0-1.119.237 2.019 2.019 0 0 0-.837.646l-2.461-.442.62-6.903h8.002v2.263h-5.72l-.339 3.279h.077c.23-.324.577-.592 1.041-.805.465-.213.985-.32 1.56-.32.788 0 1.492.185 2.109.556.618.371 1.106.88 1.464 1.528.358.643.535 1.385.531 2.224.004.882-.2 1.666-.614 2.353a4.33 4.33 0 0 1-1.719 1.61c-.733.388-1.586.582-2.557.582ZM4.905 707.5v-13.091h4.423c1.023 0 1.862.175 2.518.524.657.345 1.142.821 1.458 1.426.315.605.473 1.293.473 2.064 0 .772-.158 1.456-.473 2.052-.316.597-.8 1.065-1.451 1.406-.652.337-1.485.505-2.5.505h-3.58v-1.431h3.53c.698 0 1.26-.103 1.687-.307.43-.205.741-.495.933-.87.196-.379.294-.831.294-1.355s-.098-.982-.294-1.374c-.196-.392-.51-.695-.94-.908-.43-.217-.999-.326-1.706-.326H6.49V707.5H4.905Zm6.161-5.881 3.222 5.881h-1.84l-3.171-5.881h1.79Zm9.159 6.086c-.946 0-1.762-.209-2.449-.627a4.206 4.206 0 0 1-1.578-1.764c-.367-.759-.55-1.641-.55-2.646 0-1.006.183-1.892.55-2.659.37-.772.886-1.373 1.547-1.803.664-.435 1.44-.652 2.326-.652a4.64 4.64 0 0 1 1.515.256c.499.17.953.447 1.362.831.409.379.735.882.978 1.508.243.627.364 1.398.364 2.314v.639h-7.568v-1.304h6.034c0-.554-.11-1.048-.332-1.483a2.512 2.512 0 0 0-.934-1.029c-.4-.251-.873-.377-1.419-.377-.6 0-1.12.149-1.56.448a2.95 2.95 0 0 0-1.003 1.15 3.38 3.38 0 0 0-.351 1.521v.87c0 .741.127 1.37.383 1.885.26.512.62.902 1.08 1.17.46.264.995.396 1.605.396a3.26 3.26 0 0 0 1.074-.166c.323-.115.602-.285.837-.511a2.33 2.33 0 0 0 .543-.857l1.458.409a3.227 3.227 0 0 1-.774 1.304c-.362.371-.81.661-1.342.87-.533.204-1.131.307-1.796.307Zm10.067 0c-.818 0-1.54-.207-2.167-.62-.626-.418-1.116-1.006-1.47-1.765-.354-.762-.53-1.664-.53-2.704 0-1.031.176-1.926.53-2.684.354-.759.846-1.345 1.477-1.758.63-.413 1.359-.62 2.186-.62.639 0 1.144.107 1.515.32.375.208.66.447.856.715.2.265.356.482.467.652h.128v-4.832h1.508V707.5h-1.457v-1.509h-.18c-.11.179-.268.405-.472.678-.205.268-.497.509-.876.722-.38.209-.884.314-1.515.314Zm.205-1.356c.605 0 1.116-.157 1.534-.473.417-.319.735-.76.952-1.323.218-.566.326-1.221.326-1.962 0-.733-.106-1.374-.32-1.924-.212-.554-.528-.984-.945-1.291-.418-.311-.934-.467-1.547-.467-.64 0-1.172.164-1.598.492-.422.324-.74.765-.953 1.323-.209.554-.313 1.177-.313 1.867 0 .699.107 1.334.32 1.905.217.566.537 1.018.959 1.355.426.332.954.498 1.585.498Zm19.694-8.667a2.007 2.007 0 0 0-.934-1.509c-.545-.358-1.214-.537-2.007-.537-.58 0-1.086.094-1.521.282-.43.187-.767.445-1.01.773a1.854 1.854 0 0 0-.358 1.119c0 .349.083.65.25.901.17.247.387.454.651.62.264.162.541.296.831.403.29.102.556.185.8.249l1.329.358c.34.089.72.213 1.138.371a5.26 5.26 0 0 1 1.208.645c.388.269.707.614.959 1.036.251.422.377.939.377 1.553 0 .707-.186 1.347-.556 1.918-.367.571-.904 1.024-1.611 1.361-.703.337-1.558.505-2.563.505-.938 0-1.75-.151-2.436-.454-.682-.302-1.219-.724-1.61-1.265-.388-.542-.608-1.17-.659-1.886h1.636c.043.494.21.903.499 1.227.294.32.665.559 1.112.716.452.154.938.23 1.458.23.605 0 1.148-.098 1.63-.294.481-.2.862-.477 1.144-.831a1.97 1.97 0 0 0 .422-1.253c0-.434-.122-.788-.365-1.061a2.676 2.676 0 0 0-.959-.664 9.999 9.999 0 0 0-1.284-.448l-1.611-.46c-1.023-.294-1.833-.714-2.43-1.259-.596-.546-.894-1.26-.894-2.142 0-.733.198-1.372.594-1.917.401-.55.938-.976 1.611-1.279.678-.306 1.434-.46 2.27-.46.843 0 1.593.151 2.25.454.656.298 1.175.707 1.56 1.227.387.52.591 1.11.613 1.771H50.19Zm5.52 6.238-.025-1.866h.307l4.295-4.372h1.867l-4.577 4.628h-.128l-1.738 1.61Zm-1.405 3.58v-13.091h1.508V707.5h-1.508Zm6.238 0-3.835-4.858 1.074-1.048 4.679 5.906h-1.918Zm9.74-4.014v-5.804h1.508v9.818h-1.508v-1.662h-.102c-.23.499-.588.923-1.074 1.272-.486.345-1.1.518-1.841.518-.614 0-1.16-.134-1.636-.403-.478-.273-.853-.682-1.125-1.227-.273-.55-.41-1.242-.41-2.078v-6.238h1.509v6.136c0 .716.2 1.287.6 1.713.406.426.921.639 1.548.639.375 0 .756-.095 1.144-.287.392-.192.72-.486.984-.882.269-.397.403-.902.403-1.515Zm5.78-9.077V707.5h-1.508v-13.091h1.508Zm4.272 0V707.5h-1.509v-13.091h1.508Zm8.03 13.091v-13.091h1.508v4.832h.128c.11-.17.264-.387.46-.652.2-.268.486-.507.857-.715.375-.213.882-.32 1.52-.32.828 0 1.556.207 2.187.62.63.413 1.123.999 1.477 1.758.353.758.53 1.653.53 2.684 0 1.04-.177 1.942-.53 2.704-.354.759-.844 1.347-1.47 1.765-.627.413-1.35.62-2.168.62-.63 0-1.135-.105-1.514-.314-.38-.213-.672-.454-.876-.722a9.708 9.708 0 0 1-.473-.678h-.18v1.509h-1.457Zm1.483-4.909c0 .741.108 1.396.325 1.962.218.563.535 1.004.953 1.323.418.316.929.473 1.534.473.63 0 1.157-.166 1.579-.498.426-.337.746-.789.959-1.355a5.319 5.319 0 0 0 .326-1.905c0-.69-.107-1.313-.32-1.867-.209-.558-.526-.999-.952-1.323-.422-.328-.953-.492-1.592-.492-.614 0-1.13.156-1.547.467-.418.307-.733.737-.946 1.291-.213.55-.32 1.191-.32 1.924Zm13.608 5.114c-.946 0-1.762-.209-2.448-.627a4.206 4.206 0 0 1-1.579-1.764c-.366-.759-.55-1.641-.55-2.646 0-1.006.184-1.892.55-2.659.37-.772.886-1.373 1.547-1.803.665-.435 1.44-.652 2.327-.652.511 0 1.016.085 1.515.256.498.17.952.447 1.361.831.409.379.735.882.978 1.508.243.627.364 1.398.364 2.314v.639h-7.568v-1.304h6.034c0-.554-.11-1.048-.332-1.483a2.508 2.508 0 0 0-.933-1.029c-.401-.251-.874-.377-1.419-.377-.601 0-1.121.149-1.56.448a2.934 2.934 0 0 0-1.003 1.15c-.235.473-.352.98-.352 1.521v.87c0 .741.128 1.37.383 1.885.26.512.62.902 1.081 1.17.46.264.995.396 1.604.396.396 0 .754-.055 1.074-.166a2.29 2.29 0 0 0 .837-.511c.235-.23.416-.516.544-.857l1.457.409a3.224 3.224 0 0 1-.773 1.304c-.363.371-.81.661-1.343.87-.532.204-1.131.307-1.796.307Zm10.349 0c-.921 0-1.713-.218-2.378-.652-.665-.435-1.176-1.034-1.534-1.797-.358-.762-.537-1.634-.537-2.614 0-.997.183-1.877.55-2.64.37-.767.886-1.366 1.547-1.796.664-.435 1.44-.652 2.326-.652.691 0 1.313.128 1.867.384a3.56 3.56 0 0 1 1.361 1.073c.354.461.573.998.659 1.611h-1.509c-.115-.447-.371-.844-.767-1.189-.392-.349-.92-.524-1.585-.524-.588 0-1.104.153-1.547.46-.439.303-.782.731-1.029 1.285-.243.55-.364 1.195-.364 1.937 0 .758.119 1.419.357 1.981.243.563.584 1 1.023 1.311.443.311.963.466 1.56.466.392 0 .748-.068 1.067-.204.32-.136.591-.333.812-.588.222-.256.379-.563.473-.921h1.509a3.507 3.507 0 0 1-.633 1.566 3.543 3.543 0 0 1-1.323 1.1c-.546.268-1.181.403-1.905.403Zm10.055 0c-.887 0-1.665-.211-2.334-.633-.664-.422-1.184-1.012-1.559-1.771-.371-.758-.556-1.645-.556-2.659 0-1.023.185-1.915.556-2.678.375-.763.895-1.355 1.559-1.777.669-.422 1.447-.633 2.334-.633.886 0 1.661.211 2.326.633.669.422 1.189 1.014 1.56 1.777.375.763.562 1.655.562 2.678 0 1.014-.187 1.901-.562 2.659-.371.759-.891 1.349-1.56 1.771-.665.422-1.44.633-2.326.633Zm0-1.356c.673 0 1.227-.172 1.661-.517a3.05 3.05 0 0 0 .966-1.362 5.23 5.23 0 0 0 .313-1.828 5.28 5.28 0 0 0-.313-1.834 3.096 3.096 0 0 0-.966-1.375c-.434-.349-.988-.524-1.661-.524-.674 0-1.228.175-1.662.524-.435.35-.757.808-.966 1.375a5.28 5.28 0 0 0-.313 1.834c0 .656.105 1.266.313 1.828a3.05 3.05 0 0 0 .966 1.362c.434.345.988.517 1.662.517Zm6.751 1.151v-9.818h1.458v1.534h.127c.205-.524.535-.931.991-1.221.456-.294 1.004-.441 1.643-.441.648 0 1.187.147 1.617.441.435.29.774.697 1.016 1.221h.103c.251-.507.628-.91 1.131-1.208.503-.303 1.106-.454 1.809-.454.878 0 1.596.275 2.154.825.558.545.837 1.395.837 2.55v6.571h-1.508v-6.571c0-.724-.198-1.242-.594-1.553a2.203 2.203 0 0 0-1.4-.467c-.691 0-1.225.209-1.605.627-.379.413-.569.937-.569 1.572v6.392h-1.534v-6.724c0-.559-.181-1.008-.543-1.349-.362-.345-.829-.518-1.4-.518-.392 0-.758.104-1.099.313-.337.209-.61.499-.819.87-.204.366-.306.79-.306 1.272v6.136h-1.509Zm19.761.205c-.946 0-1.762-.209-2.448-.627a4.207 4.207 0 0 1-1.579-1.764c-.366-.759-.55-1.641-.55-2.646 0-1.006.184-1.892.55-2.659.371-.772.887-1.373 1.547-1.803.665-.435 1.44-.652 2.327-.652.511 0 1.016.085 1.515.256.498.17.952.447 1.361.831.409.379.735.882.978 1.508.243.627.364 1.398.364 2.314v.639h-7.568v-1.304h6.034c0-.554-.11-1.048-.332-1.483a2.508 2.508 0 0 0-.933-1.029c-.401-.251-.874-.377-1.419-.377-.601 0-1.121.149-1.56.448a2.934 2.934 0 0 0-1.003 1.15c-.235.473-.352.98-.352 1.521v.87c0 .741.128 1.37.383 1.885.26.512.621.902 1.081 1.17.46.264.995.396 1.604.396.396 0 .754-.055 1.074-.166a2.29 2.29 0 0 0 .837-.511c.235-.23.416-.516.544-.857l1.457.409a3.224 3.224 0 0 1-.773 1.304c-.363.371-.81.661-1.343.87-.532.204-1.131.307-1.796.307Zm13.315-7.824-1.355.383a2.539 2.539 0 0 0-.377-.658 1.831 1.831 0 0 0-.665-.537c-.282-.141-.642-.211-1.081-.211-.6 0-1.101.138-1.502.415-.396.273-.594.62-.594 1.042 0 .375.136.672.409.889.273.217.699.398 1.278.543l1.458.358c.878.213 1.532.539 1.962.978.431.435.646.995.646 1.681 0 .563-.162 1.066-.486 1.509-.32.443-.767.792-1.342 1.048-.576.256-1.245.384-2.007.384-1.002 0-1.831-.218-2.487-.652-.656-.435-1.072-1.07-1.246-1.905l1.431-.358c.137.528.395.924.774 1.189.383.264.884.396 1.502.396.703 0 1.261-.149 1.675-.447.417-.303.626-.665.626-1.087 0-.341-.119-.627-.358-.857-.239-.234-.605-.409-1.099-.524l-1.637-.383c-.899-.213-1.559-.544-1.981-.991-.418-.452-.627-1.016-.627-1.694 0-.554.156-1.044.467-1.47.315-.426.744-.761 1.285-1.004.545-.243 1.163-.364 1.853-.364.972 0 1.735.213 2.289.639.558.426.954.989 1.189 1.688Zm11.782-2.199v1.278h-5.088v-1.278h5.088Zm-3.605-2.352h1.508v9.358c0 .426.062.745.186.958.128.209.289.35.485.422.201.068.412.102.633.102.166 0 .303-.008.409-.025l.256-.051.307 1.355a3.064 3.064 0 0 1-.428.115 3.138 3.138 0 0 1-.697.064c-.426 0-.844-.092-1.253-.275a2.488 2.488 0 0 1-1.01-.837c-.264-.375-.396-.848-.396-1.419v-9.767Zm7.594 6.264v5.906h-1.509v-13.091h1.509v4.807h.127c.23-.507.576-.91 1.036-1.208.464-.303 1.082-.454 1.854-.454.669 0 1.255.134 1.757.403.503.264.893.671 1.17 1.221.281.545.422 1.24.422 2.083v6.239h-1.509v-6.136c0-.78-.202-1.383-.607-1.809-.4-.431-.956-.646-1.668-.646-.494 0-.938.104-1.33.313a2.298 2.298 0 0 0-.92.914c-.222.401-.332.887-.332 1.458Zm13.242 6.111c-.946 0-1.762-.209-2.448-.627a4.207 4.207 0 0 1-1.579-1.764c-.366-.759-.549-1.641-.549-2.646 0-1.006.183-1.892.549-2.659.371-.772.887-1.373 1.547-1.803.665-.435 1.44-.652 2.327-.652.511 0 1.016.085 1.515.256.498.17.952.447 1.361.831.409.379.735.882.978 1.508.243.627.365 1.398.365 2.314v.639h-7.569v-1.304h6.035c0-.554-.111-1.048-.333-1.483a2.508 2.508 0 0 0-.933-1.029c-.401-.251-.874-.377-1.419-.377-.601 0-1.121.149-1.56.448a2.942 2.942 0 0 0-1.003 1.15c-.235.473-.352.98-.352 1.521v.87c0 .741.128 1.37.384 1.885.26.512.62.902 1.08 1.17.46.264.995.396 1.604.396.397 0 .755-.055 1.074-.166a2.29 2.29 0 0 0 .837-.511c.235-.23.416-.516.544-.857l1.457.409a3.224 3.224 0 0 1-.773 1.304c-.362.371-.81.661-1.343.87-.532.204-1.131.307-1.796.307Zm-183.151 22c-.92 0-1.713-.218-2.378-.652-.665-.435-1.176-1.034-1.534-1.797-.358-.762-.537-1.634-.537-2.614 0-.997.183-1.877.55-2.64.37-.767.886-1.366 1.547-1.796.664-.435 1.44-.652 2.326-.652.69 0 1.313.128 1.867.384a3.568 3.568 0 0 1 1.361 1.073c.354.461.574.998.659 1.611h-1.509c-.115-.447-.37-.844-.767-1.189-.392-.349-.92-.524-1.585-.524-.588 0-1.104.153-1.547.46-.439.303-.782.731-1.029 1.285-.243.55-.364 1.195-.364 1.937 0 .758.119 1.419.358 1.981.242.563.583 1 1.022 1.311.444.311.963.466 1.56.466a2.7 2.7 0 0 0 1.067-.204c.32-.136.59-.333.812-.588.222-.256.38-.563.473-.921h1.509a3.49 3.49 0 0 1-.633 1.566 3.533 3.533 0 0 1-1.323 1.1c-.546.268-1.18.403-1.905.403Zm12.253-4.219v-5.804h1.51v9.818h-1.51v-1.662h-.102c-.23.499-.588.923-1.074 1.272-.485.345-1.099.518-1.84.518-.614 0-1.16-.134-1.637-.403-.477-.273-.852-.682-1.125-1.227-.273-.55-.409-1.242-.409-2.078v-6.238h1.509v6.136c0 .716.2 1.287.6 1.713.405.426.92.639 1.547.639.375 0 .757-.095 1.145-.287.391-.192.72-.486.984-.882.268-.397.402-.902.402-1.515Zm4.272 4.014v-9.818h1.457v1.483h.103c.179-.486.502-.88.971-1.183a2.864 2.864 0 0 1 1.585-.454c.111 0 .25.003.416.007.166.004.292.01.377.019v1.534a4.191 4.191 0 0 0-.352-.057 3.44 3.44 0 0 0-.568-.045c-.478 0-.904.1-1.279.3a2.27 2.27 0 0 0-.882.818 2.21 2.21 0 0 0-.32 1.183v6.213h-1.508Zm13.652-7.619-1.355.383a2.51 2.51 0 0 0-.377-.658 1.827 1.827 0 0 0-.665-.537c-.281-.141-.642-.211-1.08-.211-.601 0-1.102.138-1.503.415-.396.273-.594.62-.594 1.042 0 .375.136.672.41.889.272.217.698.398 1.277.543l1.458.358c.878.213 1.532.539 1.962.978.43.435.646.995.646 1.681 0 .563-.162 1.066-.486 1.509-.32.443-.767.792-1.342 1.048-.576.256-1.245.384-2.007.384-1.002 0-1.83-.218-2.487-.652-.656-.435-1.072-1.07-1.246-1.905l1.431-.358c.137.528.395.924.774 1.189.383.264.884.396 1.502.396.703 0 1.261-.149 1.675-.447.417-.303.626-.665.626-1.087 0-.341-.12-.627-.358-.857-.238-.234-.605-.409-1.1-.524l-1.636-.383c-.899-.213-1.56-.544-1.981-.991-.418-.452-.627-1.016-.627-1.694 0-.554.156-1.044.467-1.47.315-.426.744-.761 1.285-1.004.545-.243 1.163-.364 1.854-.364.971 0 1.734.213 2.288.639.558.426.955.989 1.189 1.688Zm6.566 7.824c-.946 0-1.762-.209-2.448-.627a4.206 4.206 0 0 1-1.579-1.764c-.366-.759-.55-1.641-.55-2.646 0-1.006.184-1.892.55-2.659.37-.772.886-1.373 1.547-1.803.665-.435 1.44-.652 2.327-.652a4.64 4.64 0 0 1 1.515.256c.498.17.952.447 1.361.831.41.379.735.882.978 1.508.243.627.364 1.398.364 2.314v.639H42.79v-1.304h6.034c0-.554-.11-1.048-.332-1.483a2.512 2.512 0 0 0-.933-1.029c-.4-.251-.874-.377-1.42-.377-.6 0-1.12.149-1.559.448-.435.294-.77.677-1.004 1.15a3.38 3.38 0 0 0-.351 1.521v.87c0 .741.128 1.37.383 1.885.26.512.62.902 1.08 1.17.46.264.996.396 1.605.396.396 0 .754-.055 1.074-.166a2.29 2.29 0 0 0 .837-.511c.235-.23.416-.516.544-.857l1.457.409a3.227 3.227 0 0 1-.773 1.304c-.363.371-.81.661-1.343.87-.532.204-1.131.307-1.796.307Zm10.068 0c-.819 0-1.541-.207-2.167-.62-.627-.418-1.117-1.006-1.47-1.765-.354-.762-.531-1.664-.531-2.704 0-1.031.177-1.926.53-2.684.354-.759.846-1.345 1.477-1.758.63-.413 1.36-.62 2.186-.62.64 0 1.144.107 1.515.32.375.208.66.447.856.715.2.265.356.482.467.652h.128v-4.832h1.509V729.5h-1.458v-1.509h-.179c-.11.179-.268.405-.473.678-.204.268-.496.509-.876.722-.379.209-.884.314-1.514.314Zm.204-1.356c.605 0 1.117-.157 1.534-.473.418-.319.735-.76.953-1.323.217-.566.326-1.221.326-1.962 0-.733-.107-1.374-.32-1.924-.213-.554-.528-.984-.946-1.291-.418-.311-.933-.467-1.547-.467-.64 0-1.172.164-1.598.492-.422.324-.74.765-.952 1.323-.21.554-.314 1.177-.314 1.867 0 .699.107 1.334.32 1.905.217.566.537 1.018.959 1.355.426.332.954.498 1.585.498Zm16.293 5.037c-.728 0-1.355-.093-1.879-.281-.524-.183-.96-.426-1.31-.729a3.975 3.975 0 0 1-.825-.958l1.202-.844c.136.179.309.383.518.614.209.234.494.436.856.607.367.174.846.262 1.438.262.793 0 1.447-.192 1.963-.575.515-.384.773-.985.773-1.803v-1.994h-.128c-.11.179-.268.4-.473.664-.2.26-.49.493-.869.697-.375.2-.882.301-1.521.301-.793 0-1.504-.188-2.135-.563-.627-.375-1.123-.92-1.49-1.636-.362-.716-.543-1.586-.543-2.608 0-1.006.177-1.882.53-2.627.354-.75.846-1.33 1.477-1.739.63-.413 1.36-.62 2.186-.62.64 0 1.147.107 1.522.32.379.208.669.447.869.715.204.265.362.482.473.652h.153v-1.559h1.458v10.099c0 .844-.192 1.53-.576 2.058-.379.533-.89.923-1.534 1.17-.639.252-1.35.377-2.135.377Zm-.05-5.395c.604 0 1.116-.138 1.533-.415.418-.277.735-.675.953-1.195.217-.52.326-1.142.326-1.867 0-.707-.107-1.331-.32-1.873-.213-.541-.528-.965-.946-1.272-.418-.307-.933-.46-1.547-.46-.639 0-1.172.162-1.598.486-.422.324-.74.758-.952 1.304a5.037 5.037 0 0 0-.313 1.815c0 .682.106 1.285.32 1.809.217.52.536.929.958 1.227.426.294.955.441 1.585.441Zm13.244-2.505v-5.804h1.508v9.818h-1.508v-1.662h-.103c-.23.499-.588.923-1.074 1.272-.485.345-1.099.518-1.84.518-.614 0-1.16-.134-1.637-.403-.477-.273-.852-.682-1.125-1.227-.273-.55-.409-1.242-.409-2.078v-6.238h1.509v6.136c0 .716.2 1.287.6 1.713.405.426.92.639 1.547.639.375 0 .757-.095 1.145-.287.392-.192.72-.486.984-.882.268-.397.403-.902.403-1.515Zm7.16 4.244a3.995 3.995 0 0 1-1.694-.351 2.908 2.908 0 0 1-1.208-1.03c-.298-.451-.447-.997-.447-1.636 0-.562.11-1.018.332-1.368.222-.354.518-.631.889-.831.37-.2.78-.349 1.227-.447.452-.103.905-.183 1.361-.243.597-.077 1.08-.134 1.452-.173.375-.042.647-.113.818-.211.174-.098.262-.268.262-.511v-.051c0-.631-.173-1.121-.518-1.47-.34-.35-.859-.524-1.553-.524-.72 0-1.285.157-1.694.473-.41.315-.697.652-.863 1.009l-1.432-.511c.256-.596.597-1.061 1.023-1.393.43-.337.899-.571 1.406-.703a5.812 5.812 0 0 1 1.509-.205c.315 0 .677.038 1.086.115a3.47 3.47 0 0 1 1.195.454c.388.23.71.577.966 1.042.255.464.383 1.086.383 1.866v6.469h-1.508v-1.33h-.077a2.624 2.624 0 0 1-.511.684c-.239.243-.556.45-.953.62-.396.171-.88.256-1.45.256Zm.23-1.355c.597 0 1.1-.117 1.509-.352a2.39 2.39 0 0 0 1.253-2.077v-1.381c-.064.077-.205.147-.422.211-.213.06-.46.113-.742.16a31.487 31.487 0 0 1-1.444.192 5.755 5.755 0 0 0-1.1.249 1.9 1.9 0 0 0-.818.505c-.204.222-.307.524-.307.908 0 .524.194.92.582 1.189.392.264.888.396 1.49.396Zm7.024 1.125v-9.818h1.457v1.483h.102c.179-.486.503-.88.972-1.183a2.865 2.865 0 0 1 1.585-.454c.111 0 .249.003.416.007.166.004.292.01.377.019v1.534a4.228 4.228 0 0 0-.352-.057 3.436 3.436 0 0 0-.569-.045c-.477 0-.903.1-1.278.3a2.264 2.264 0 0 0-.882.818 2.21 2.21 0 0 0-.32 1.183v6.213h-1.508Zm10.105.205c-.818 0-1.54-.207-2.166-.62-.627-.418-1.117-1.006-1.471-1.765-.353-.762-.53-1.664-.53-2.704 0-1.031.177-1.926.53-2.684.354-.759.846-1.345 1.477-1.758.631-.413 1.359-.62 2.186-.62.639 0 1.144.107 1.515.32.375.208.66.447.856.715.201.265.356.482.467.652h.128v-4.832h1.508V729.5h-1.457v-1.509h-.179a9.64 9.64 0 0 1-.473.678c-.204.268-.496.509-.876.722-.379.209-.884.314-1.515.314Zm.205-1.356c.605 0 1.116-.157 1.534-.473.418-.319.735-.76.953-1.323.217-.566.326-1.221.326-1.962 0-.733-.107-1.374-.32-1.924-.213-.554-.528-.984-.946-1.291-.418-.311-.933-.467-1.547-.467-.639 0-1.172.164-1.598.492-.422.324-.739.765-.952 1.323-.209.554-.314 1.177-.314 1.867 0 .699.107 1.334.32 1.905.217.566.537 1.018.959 1.355.426.332.954.498 1.585.498Zm7.268 1.151v-9.818h1.508v9.818h-1.508Zm.767-11.455c-.294 0-.548-.1-.761-.3a.964.964 0 0 1-.313-.722c0-.282.104-.522.313-.723.213-.2.467-.3.761-.3s.545.1.754.3c.213.201.32.441.32.723a.956.956 0 0 1-.32.722c-.209.2-.46.3-.754.3Zm6.393 11.685a3.991 3.991 0 0 1-1.693-.351 2.909 2.909 0 0 1-1.209-1.03c-.298-.451-.447-.997-.447-1.636 0-.562.111-1.018.332-1.368.222-.354.518-.631.889-.831.371-.2.78-.349 1.227-.447.452-.103.906-.183 1.362-.243.596-.077 1.08-.134 1.451-.173.375-.042.647-.113.818-.211.175-.098.262-.268.262-.511v-.051c0-.631-.173-1.121-.518-1.47-.341-.35-.858-.524-1.553-.524-.72 0-1.285.157-1.694.473-.409.315-.697.652-.863 1.009l-1.432-.511c.256-.596.597-1.061 1.023-1.393.43-.337.899-.571 1.406-.703a5.815 5.815 0 0 1 1.509-.205c.315 0 .677.038 1.086.115.414.072.812.224 1.196.454.388.23.709.577.965 1.042.256.464.383 1.086.383 1.866v6.469h-1.508v-1.33h-.077a2.609 2.609 0 0 1-.511.684c-.239.243-.556.45-.953.62-.396.171-.88.256-1.451.256Zm.231-1.355c.596 0 1.099-.117 1.508-.352.413-.234.725-.536.933-.907.213-.371.32-.761.32-1.17v-1.381c-.064.077-.205.147-.422.211-.213.06-.46.113-.741.16a31.625 31.625 0 0 1-1.445.192 5.737 5.737 0 0 0-1.099.249c-.337.111-.61.279-.819.505-.204.222-.306.524-.306.908 0 .524.193.92.581 1.189.392.264.889.396 1.49.396Zm8.531-4.781v5.906h-1.508v-9.818h1.457v1.534h.128c.23-.499.58-.899 1.048-1.202.469-.307 1.074-.46 1.816-.46.664 0 1.246.136 1.745.409.498.269.886.678 1.163 1.227.277.546.416 1.236.416 2.071v6.239h-1.509v-6.136c0-.772-.2-1.373-.601-1.803-.4-.435-.95-.652-1.649-.652a2.63 2.63 0 0 0-1.291.313 2.25 2.25 0 0 0-.889.914c-.217.401-.326.887-.326 1.458Zm18.072 6.111c-.886 0-1.664-.211-2.333-.633-.665-.422-1.184-1.012-1.559-1.771-.371-.758-.557-1.645-.557-2.659 0-1.023.186-1.915.557-2.678.375-.763.894-1.355 1.559-1.777.669-.422 1.447-.633 2.333-.633.887 0 1.662.211 2.327.633.669.422 1.189 1.014 1.56 1.777.375.763.562 1.655.562 2.678 0 1.014-.187 1.901-.562 2.659-.371.759-.891 1.349-1.56 1.771-.665.422-1.44.633-2.327.633Zm0-1.356c.674 0 1.228-.172 1.662-.517.435-.345.757-.799.965-1.362a5.207 5.207 0 0 0 .314-1.828c0-.656-.105-1.268-.314-1.834a3.087 3.087 0 0 0-.965-1.375c-.434-.349-.988-.524-1.662-.524-.673 0-1.227.175-1.662.524-.434.35-.756.808-.965 1.375a5.256 5.256 0 0 0-.313 1.834c0 .656.104 1.266.313 1.828.209.563.531 1.017.965 1.362.435.345.989.517 1.662.517Zm11.124-8.667v1.278h-5.293v-1.278h5.293Zm-3.707 9.818v-11.173c0-.563.132-1.032.396-1.407a2.448 2.448 0 0 1 1.029-.843 3.245 3.245 0 0 1 1.336-.282c.371 0 .673.03.908.09.234.06.409.115.524.166l-.435 1.304a10.096 10.096 0 0 0-.319-.096 1.963 1.963 0 0 0-.525-.057c-.498 0-.858.125-1.08.377-.217.251-.326.62-.326 1.106V729.5h-1.508Zm15.154-9.818v1.278h-5.088v-1.278h5.088Zm-3.606-2.352h1.509v9.358c0 .426.062.745.185.958.128.209.29.35.486.422.2.068.411.102.633.102.166 0 .303-.008.409-.025l.256-.051.307 1.355a3.085 3.085 0 0 1-.429.115 3.122 3.122 0 0 1-.696.064c-.427 0-.844-.092-1.253-.275a2.482 2.482 0 0 1-1.01-.837c-.264-.375-.397-.848-.397-1.419v-9.767Zm7.594 6.264v5.906h-1.508v-13.091h1.508v4.807h.128a2.77 2.77 0 0 1 1.036-1.208c.464-.303 1.082-.454 1.853-.454.669 0 1.255.134 1.758.403.503.264.893.671 1.17 1.221.281.545.422 1.24.422 2.083v6.239h-1.509v-6.136c0-.78-.202-1.383-.607-1.809-.401-.431-.957-.646-1.668-.646-.495 0-.938.104-1.33.313a2.286 2.286 0 0 0-.92.914c-.222.401-.333.887-.333 1.458Zm13.243 6.111c-.946 0-1.762-.209-2.448-.627a4.207 4.207 0 0 1-1.579-1.764c-.367-.759-.55-1.641-.55-2.646 0-1.006.183-1.892.55-2.659.371-.772.886-1.373 1.547-1.803.665-.435 1.44-.652 2.327-.652.511 0 1.016.085 1.514.256.499.17.953.447 1.362.831.409.379.735.882.978 1.508.243.627.364 1.398.364 2.314v.639h-7.568v-1.304h6.034c0-.554-.111-1.048-.332-1.483a2.522 2.522 0 0 0-.933-1.029c-.401-.251-.874-.377-1.419-.377-.601 0-1.121.149-1.56.448a2.945 2.945 0 0 0-1.004 1.15c-.234.473-.351.98-.351 1.521v.87c0 .741.128 1.37.383 1.885.26.512.62.902 1.081 1.17.46.264.995.396 1.604.396.396 0 .754-.055 1.074-.166a2.29 2.29 0 0 0 .837-.511c.235-.23.416-.516.543-.857l1.458.409a3.226 3.226 0 0 1-.774 1.304 3.764 3.764 0 0 1-1.342.87c-.533.204-1.131.307-1.796.307ZM65.074 743.881l-1.355.383a2.514 2.514 0 0 0-.377-.658 1.827 1.827 0 0 0-.664-.537c-.282-.141-.642-.211-1.08-.211-.602 0-1.102.138-1.503.415-.396.273-.594.62-.594 1.042 0 .375.136.672.409.889.272.217.699.398 1.278.543l1.457.358c.878.213 1.532.539 1.963.978.43.435.645.995.645 1.681 0 .563-.162 1.066-.485 1.509-.32.443-.767.792-1.343 1.048-.575.256-1.244.384-2.007.384-1.001 0-1.83-.218-2.486-.652-.657-.435-1.072-1.07-1.247-1.905l1.432-.358c.137.528.394.924.774 1.189.383.264.884.396 1.502.396.703 0 1.261-.149 1.674-.447.418-.303.627-.665.627-1.087 0-.341-.12-.627-.358-.857-.239-.234-.605-.409-1.1-.524l-1.636-.383c-.9-.213-1.56-.544-1.982-.991-.417-.452-.626-1.016-.626-1.694 0-.554.156-1.044.467-1.47.315-.426.743-.761 1.284-1.004.546-.243 1.164-.364 1.854-.364.972 0 1.735.213 2.289.639.558.426.954.989 1.188 1.688Zm6.439 7.824c-.887 0-1.664-.211-2.333-.633-.665-.422-1.185-1.012-1.56-1.771-.37-.758-.556-1.645-.556-2.659 0-1.023.185-1.915.556-2.678.375-.763.895-1.355 1.56-1.777.669-.422 1.446-.633 2.333-.633.886 0 1.662.211 2.327.633.669.422 1.188 1.014 1.56 1.777.374.763.562 1.655.562 2.678 0 1.014-.188 1.901-.563 2.659-.37.759-.89 1.349-1.56 1.771-.664.422-1.44.633-2.326.633Zm0-1.356c.673 0 1.227-.172 1.662-.517a3.05 3.05 0 0 0 .965-1.362 5.211 5.211 0 0 0 .313-1.828 5.26 5.26 0 0 0-.313-1.834 3.096 3.096 0 0 0-.965-1.375c-.435-.349-.989-.524-1.662-.524-.673 0-1.227.175-1.662.524-.435.35-.757.808-.965 1.375a5.26 5.26 0 0 0-.313 1.834c0 .656.104 1.266.313 1.828a3.05 3.05 0 0 0 .965 1.362c.435.345.989.517 1.662.517Zm12.939-2.863v-5.804h1.508v9.818h-1.508v-1.662h-.102c-.23.499-.588.923-1.074 1.272-.486.345-1.1.518-1.841.518-.614 0-1.16-.134-1.636-.403-.478-.273-.853-.682-1.125-1.227-.273-.55-.41-1.242-.41-2.078v-6.238h1.509v6.136c0 .716.2 1.287.6 1.713.406.426.921.639 1.548.639.375 0 .756-.095 1.144-.287.392-.192.72-.486.984-.882.269-.397.403-.902.403-1.515Zm5.78-9.077V751.5h-1.508v-13.091h1.508Zm14.78 5.472-1.355.383a2.51 2.51 0 0 0-.377-.658 1.831 1.831 0 0 0-.665-.537c-.281-.141-.641-.211-1.08-.211-.601 0-1.102.138-1.502.415-.397.273-.595.62-.595 1.042 0 .375.136.672.41.889.272.217.698.398 1.278.543l1.457.358c.878.213 1.532.539 1.962.978.431.435.646.995.646 1.681 0 .563-.162 1.066-.486 1.509-.319.443-.767.792-1.342 1.048-.575.256-1.244.384-2.007.384-1.002 0-1.83-.218-2.487-.652-.656-.435-1.072-1.07-1.246-1.905l1.432-.358c.136.528.394.924.773 1.189.384.264.884.396 1.502.396.703 0 1.262-.149 1.675-.447.417-.303.626-.665.626-1.087 0-.341-.119-.627-.358-.857-.238-.234-.605-.409-1.099-.524l-1.636-.383c-.9-.213-1.56-.544-1.982-.991-.418-.452-.626-1.016-.626-1.694 0-.554.155-1.044.466-1.47.316-.426.744-.761 1.285-1.004.545-.243 1.163-.364 1.854-.364.971 0 1.734.213 2.288.639.558.426.955.989 1.189 1.688Zm6.72-2.199v1.278h-5.088v-1.278h5.088Zm-3.605-2.352h1.508v9.358c0 .426.062.745.185.958.128.209.29.35.486.422.2.068.411.102.633.102.166 0 .303-.008.409-.025l.256-.051.307 1.355a3.085 3.085 0 0 1-.429.115 3.122 3.122 0 0 1-.696.064c-.427 0-.844-.092-1.253-.275a2.482 2.482 0 0 1-1.01-.837c-.264-.375-.396-.848-.396-1.419v-9.767Zm9.757 12.375c-.886 0-1.664-.211-2.333-.633-.665-.422-1.185-1.012-1.56-1.771-.371-.758-.556-1.645-.556-2.659 0-1.023.185-1.915.556-2.678.375-.763.895-1.355 1.56-1.777.669-.422 1.447-.633 2.333-.633.886 0 1.662.211 2.327.633.669.422 1.189 1.014 1.559 1.777.375.763.563 1.655.563 2.678 0 1.014-.188 1.901-.563 2.659-.37.759-.89 1.349-1.559 1.771-.665.422-1.441.633-2.327.633Zm0-1.356c.673 0 1.227-.172 1.662-.517.435-.345.756-.799.965-1.362a5.206 5.206 0 0 0 .313-1.828c0-.656-.104-1.268-.313-1.834a3.094 3.094 0 0 0-.965-1.375c-.435-.349-.989-.524-1.662-.524-.673 0-1.227.175-1.662.524-.435.35-.756.808-.965 1.375a5.256 5.256 0 0 0-.313 1.834c0 .656.104 1.266.313 1.828.209.563.53 1.017.965 1.362.435.345.989.517 1.662.517Zm8.26-4.755v5.906h-1.508v-9.818h1.457v1.534h.128c.23-.499.579-.899 1.048-1.202.469-.307 1.074-.46 1.815-.46.665 0 1.247.136 1.745.409.499.269.887.678 1.164 1.227.277.546.415 1.236.415 2.071v6.239H130.9v-6.136c0-.772-.201-1.373-.601-1.803-.401-.435-.95-.652-1.649-.652-.482 0-.912.104-1.291.313a2.245 2.245 0 0 0-.889.914c-.217.401-.326.887-.326 1.458Zm13.137 6.111c-.946 0-1.762-.209-2.448-.627a4.207 4.207 0 0 1-1.579-1.764c-.366-.759-.549-1.641-.549-2.646 0-1.006.183-1.892.549-2.659.371-.772.887-1.373 1.547-1.803.665-.435 1.441-.652 2.327-.652.511 0 1.016.085 1.515.256.498.17.952.447 1.361.831.409.379.735.882.978 1.508.243.627.365 1.398.365 2.314v.639h-7.569v-1.304h6.035c0-.554-.111-1.048-.333-1.483a2.508 2.508 0 0 0-.933-1.029c-.401-.251-.874-.377-1.419-.377-.601 0-1.121.149-1.56.448a2.942 2.942 0 0 0-1.003 1.15c-.235.473-.352.98-.352 1.521v.87c0 .741.128 1.37.384 1.885.26.512.62.902 1.08 1.17.46.264.995.396 1.604.396.397 0 .755-.055 1.074-.166.324-.115.603-.285.838-.511a2.33 2.33 0 0 0 .543-.857l1.457.409a3.224 3.224 0 0 1-.773 1.304c-.362.371-.81.661-1.342.87-.533.204-1.132.307-1.797.307ZM198.342 1169v-1.99l4.66-4.32c.396-.38.729-.73.997-1.03.273-.31.48-.61.62-.91.141-.29.211-.62.211-.96 0-.38-.087-.71-.262-.99-.175-.28-.413-.5-.716-.65a2.284 2.284 0 0 0-1.029-.23c-.4 0-.75.08-1.048.25-.298.16-.529.39-.69.69-.162.3-.243.66-.243 1.08h-2.628c0-.85.194-1.6.582-2.23.388-.63.931-1.12 1.63-1.46.699-.35 1.504-.52 2.416-.52.938 0 1.754.17 2.448.5.699.33 1.243.78 1.63 1.37.388.58.582 1.25.582 2 0 .5-.098.99-.294 1.47-.192.48-.535 1.01-1.029 1.6-.494.59-1.191 1.29-2.09 2.1l-1.911 1.88v.09h5.497v2.26h-9.333Zm16.471.29c-1.099-.01-2.045-.28-2.838-.81-.788-.54-1.396-1.32-1.822-2.34-.422-1.02-.63-2.24-.626-3.67 0-1.43.211-2.65.633-3.65.426-1.01 1.033-1.77 1.821-2.3.793-.53 1.737-.79 2.832-.79 1.095 0 2.037.26 2.825.79.793.53 1.402 1.3 1.828 2.3.427 1.01.638 2.22.633 3.65 0 1.43-.213 2.66-.639 3.68-.422 1.02-1.027 1.8-1.815 2.33-.789.54-1.733.81-2.832.81Zm0-2.3c.75 0 1.349-.37 1.796-1.13.448-.75.669-1.88.665-3.39 0-1-.102-1.82-.307-2.48-.2-.66-.486-1.16-.856-1.49-.367-.33-.799-.5-1.298-.5-.746 0-1.342.37-1.79 1.12-.447.74-.673 1.86-.677 3.35 0 1 .1 1.84.3 2.52.205.66.492 1.17.863 1.5.371.34.805.5 1.304.5Zm12.955-11.08V1169H225v-10.46h-.076l-2.998 1.88v-2.46l3.241-2.05h2.601Zm7.995 13.27c-.984 0-1.86-.16-2.627-.48-.763-.32-1.362-.77-1.796-1.32a3.01 3.01 0 0 1-.652-1.9c0-.55.123-1.05.37-1.5.252-.46.593-.85 1.023-1.15.431-.31.912-.5 1.445-.59v-.09a2.863 2.863 0 0 1-1.701-1.01 2.929 2.929 0 0 1-.652-1.89c0-.68.199-1.28.595-1.81.396-.53.94-.95 1.63-1.25.695-.31 1.483-.46 2.365-.46.882 0 1.668.15 2.359.46.694.31 1.24.73 1.636 1.26.396.53.597 1.13.601 1.8a2.934 2.934 0 0 1-.665 1.89c-.439.53-1.001.87-1.687 1.01v.09c.524.09.999.28 1.425.59.43.3.771.69 1.023 1.15.255.45.385.95.39 1.5a3.046 3.046 0 0 1-.659 1.9c-.434.55-1.035 1-1.802 1.32-.763.32-1.637.48-2.621.48Zm0-2.03c.439 0 .822-.08 1.151-.24.328-.16.583-.38.767-.66.187-.29.281-.62.281-.99 0-.38-.096-.71-.288-1a1.89 1.89 0 0 0-.78-.69 2.425 2.425 0 0 0-1.131-.26c-.422 0-.799.09-1.131.26a1.88 1.88 0 0 0-.787.69c-.187.29-.281.62-.281 1 0 .37.092.7.275.99.183.28.441.5.773.66.333.16.716.24 1.151.24Zm0-5.85c.366 0 .692-.08.978-.23.285-.15.509-.35.671-.62.162-.26.243-.57.243-.91a1.61 1.61 0 0 0-.908-1.5 2.06 2.06 0 0 0-.984-.23c-.371 0-.699.08-.984.23-.286.14-.51.34-.672.6-.157.26-.236.56-.236.9 0 .34.081.65.243.91.162.27.385.47.671.62.285.15.611.23.978.23Zm-46.894 18.02v-1.41h9.819v1.41h-4.117V1191h-1.585v-11.68h-4.117Zm13.569 5.77v5.91h-1.508v-13.09h1.508v4.81h.128c.23-.51.575-.91 1.035-1.21.465-.3 1.083-.46 1.854-.46.669 0 1.255.14 1.758.41.503.26.893.67 1.17 1.22.281.54.422 1.24.422 2.08v6.24h-1.509v-6.14c0-.78-.202-1.38-.607-1.81-.401-.43-.957-.64-1.669-.64-.494 0-.937.1-1.329.31-.388.21-.695.52-.921.92-.221.4-.332.88-.332 1.45Zm12.015 6.14c-.622 0-1.186-.12-1.693-.35-.508-.24-.91-.58-1.209-1.03-.298-.45-.447-1-.447-1.64 0-.56.111-1.02.332-1.36.222-.36.518-.64.889-.84.371-.2.78-.35 1.227-.44.452-.11.906-.19 1.362-.25.596-.07 1.08-.13 1.451-.17.375-.04.647-.11.818-.21.175-.1.262-.27.262-.51v-.05c0-.63-.173-1.12-.518-1.47-.341-.35-.858-.53-1.553-.53-.72 0-1.285.16-1.694.48-.409.31-.697.65-.863 1.01l-1.432-.51c.256-.6.597-1.07 1.023-1.4.43-.34.899-.57 1.406-.7a5.7 5.7 0 0 1 1.509-.21c.315 0 .677.04 1.086.12.414.07.812.22 1.196.45.388.23.709.58.965 1.04.256.47.383 1.09.383 1.87v6.47h-1.508v-1.33h-.077a2.63 2.63 0 0 1-.511.68c-.239.25-.556.45-.953.62-.396.17-.879.26-1.451.26Zm.231-1.35c.596 0 1.099-.12 1.508-.36.413-.23.725-.53.933-.9.213-.37.32-.76.32-1.17v-1.38c-.064.07-.205.14-.422.21-.213.06-.46.11-.741.16-.277.04-.548.08-.812.11-.26.03-.471.06-.633.08-.392.05-.759.13-1.099.25-.337.11-.61.28-.819.5-.204.22-.306.53-.306.91 0 .52.193.92.581 1.19.392.26.889.4 1.49.4Zm8.531-4.79v5.91h-1.508v-9.82h1.457v1.54h.128c.23-.5.58-.9 1.048-1.21.469-.3 1.074-.46 1.816-.46.664 0 1.246.14 1.745.41.498.27.886.68 1.163 1.23.277.55.416 1.24.416 2.07v6.24h-1.509v-6.14c0-.77-.2-1.37-.601-1.8-.4-.43-.95-.65-1.649-.65-.481 0-.912.1-1.291.31-.375.21-.671.52-.889.92-.217.4-.326.88-.326 1.45Zm13.01 6.11c-.887 0-1.664-.21-2.333-.63-.665-.42-1.185-1.01-1.56-1.77-.371-.76-.556-1.64-.556-2.66 0-1.02.185-1.91.556-2.68.375-.76.895-1.35 1.56-1.77.669-.43 1.446-.64 2.333-.64.886 0 1.662.21 2.326.64.67.42 1.189 1.01 1.56 1.77.375.77.563 1.66.563 2.68 0 1.02-.188 1.9-.563 2.66-.371.76-.89 1.35-1.56 1.77-.664.42-1.44.63-2.326.63Zm0-1.35c.673 0 1.227-.17 1.662-.52.434-.34.756-.8.965-1.36.209-.56.313-1.17.313-1.83 0-.65-.104-1.27-.313-1.83a3.101 3.101 0 0 0-.965-1.38c-.435-.35-.989-.52-1.662-.52-.674 0-1.227.17-1.662.52-.435.35-.757.81-.965 1.38a5.234 5.234 0 0 0-.314 1.83c0 .66.105 1.27.314 1.83.208.56.53 1.02.965 1.36.435.35.988.52 1.662.52Zm13.706-6.47-1.355.38a2.518 2.518 0 0 0-.377-.65c-.162-.22-.384-.4-.665-.54s-.641-.21-1.08-.21c-.601 0-1.102.14-1.502.41-.397.28-.595.62-.595 1.05 0 .37.136.67.409.88.273.22.699.4 1.279.55l1.457.36c.878.21 1.532.53 1.962.97.431.44.646 1 .646 1.68 0 .57-.162 1.07-.486 1.51-.319.45-.767.8-1.342 1.05-.576.26-1.245.38-2.007.38-1.002 0-1.831-.21-2.487-.65-.656-.43-1.072-1.07-1.246-1.9l1.432-.36c.136.53.394.92.773 1.19.384.26.884.4 1.502.4.703 0 1.261-.15 1.675-.45.417-.31.626-.67.626-1.09 0-.34-.119-.63-.358-.86-.238-.23-.605-.4-1.099-.52l-1.637-.38c-.899-.22-1.559-.55-1.981-.99-.418-.46-.626-1.02-.626-1.7 0-.55.155-1.04.466-1.47.316-.42.744-.76 1.285-1a4.557 4.557 0 0 1 1.854-.37c.971 0 1.734.22 2.288.64.558.43.955.99 1.189 1.69ZM129.293 1213h-1.662l4.807-13.09h1.636l4.807 13.09h-1.662l-3.912-11.02h-.102l-3.912 11.02Zm.614-5.11h6.699v1.4h-6.699v-1.4Zm17.607-4.71-3.631 9.82h-1.534l-3.631-9.82h1.636l2.711 7.83h.102l2.71-7.83h1.637Zm5.756 10.02c-.946 0-1.762-.2-2.449-.62a4.174 4.174 0 0 1-1.578-1.77c-.367-.75-.55-1.64-.55-2.64 0-1.01.183-1.89.55-2.66.37-.77.886-1.37 1.547-1.8.664-.44 1.44-.66 2.326-.66.512 0 1.017.09 1.515.26.499.17.953.45 1.362.83.409.38.735.88.978 1.51s.364 1.4.364 2.31v.64h-7.568v-1.3h6.034c0-.56-.111-1.05-.333-1.48a2.462 2.462 0 0 0-.933-1.03c-.4-.26-.873-.38-1.419-.38-.601 0-1.121.15-1.559.45-.435.29-.77.67-1.004 1.15-.234.47-.352.98-.352 1.52v.87c0 .74.128 1.37.384 1.88.26.51.62.9 1.08 1.17.46.27.995.4 1.605.4.396 0 .754-.06 1.073-.17.324-.11.603-.28.838-.51.234-.23.415-.51.543-.85l1.458.4c-.154.5-.412.93-.774 1.31a3.8 3.8 0 0 1-1.342.87c-.533.2-1.132.3-1.796.3Zm7.868-6.11v5.91h-1.508v-9.82h1.457v1.54h.128c.23-.5.579-.9 1.048-1.21.469-.3 1.074-.46 1.816-.46.664 0 1.246.14 1.745.41.498.27.886.68 1.163 1.23.277.55.415 1.24.415 2.07v6.24h-1.508v-6.14c0-.77-.2-1.37-.601-1.8-.401-.43-.95-.65-1.649-.65-.482 0-.912.1-1.291.31-.375.21-.671.52-.889.92-.217.4-.326.88-.326 1.45Zm12.984 9.8c-.729 0-1.355-.1-1.879-.28-.524-.19-.961-.43-1.311-.73a4.03 4.03 0 0 1-.824-.96l1.202-.85c.136.18.309.39.517.62.209.23.495.43.857.6.366.18.846.27 1.438.27.793 0 1.447-.19 1.962-.58.516-.38.774-.98.774-1.8v-2h-.128c-.111.18-.268.41-.473.67-.2.26-.49.49-.869.7-.375.2-.882.3-1.522.3-.792 0-1.504-.19-2.135-.57-.626-.37-1.122-.92-1.489-1.63-.362-.72-.543-1.59-.543-2.61 0-1.01.177-1.88.53-2.63.354-.75.846-1.33 1.477-1.74.631-.41 1.359-.62 2.186-.62.639 0 1.146.11 1.521.32.38.21.669.45.87.72.204.26.362.48.473.65h.153v-1.56h1.457v10.1c0 .84-.191 1.53-.575 2.06-.379.53-.891.92-1.534 1.17-.639.25-1.351.38-2.135.38Zm-.051-5.4c.605 0 1.116-.14 1.534-.41.418-.28.735-.68.952-1.2.218-.52.326-1.14.326-1.87 0-.7-.106-1.33-.319-1.87-.213-.54-.529-.96-.946-1.27-.418-.31-.933-.46-1.547-.46-.639 0-1.172.16-1.598.48-.422.33-.739.76-.952 1.31a5.005 5.005 0 0 0-.314 1.81c0 .69.107 1.29.32 1.81.217.52.537.93.959 1.23.426.29.954.44 1.585.44Zm11.173 1.71c-.946 0-1.762-.2-2.448-.62-.682-.42-1.208-1.01-1.579-1.77-.366-.75-.549-1.64-.549-2.64 0-1.01.183-1.89.549-2.66.371-.77.887-1.37 1.547-1.8.665-.44 1.44-.66 2.327-.66.511 0 1.016.09 1.515.26.498.17.952.45 1.361.83.409.38.735.88.978 1.51s.365 1.4.365 2.31v.64h-7.569v-1.3h6.034c0-.56-.11-1.05-.332-1.48a2.462 2.462 0 0 0-.933-1.03c-.401-.26-.874-.38-1.419-.38-.601 0-1.121.15-1.56.45-.434.29-.769.67-1.003 1.15-.235.47-.352.98-.352 1.52v.87c0 .74.128 1.37.384 1.88.26.51.62.9 1.08 1.17.46.27.995.4 1.604.4.397 0 .754-.06 1.074-.17.324-.11.603-.28.837-.51.235-.23.416-.51.544-.85l1.457.4c-.153.5-.411.93-.773 1.31-.362.37-.81.66-1.343.87-.532.2-1.131.3-1.796.3Zm6.36-.2v-9.82h1.458v1.48h.102c.179-.48.503-.88.972-1.18.468-.3.997-.45 1.585-.45h.415c.166.01.292.02.377.02v1.54c-.051-.01-.168-.03-.351-.06a3.458 3.458 0 0 0-.569-.04c-.477 0-.903.1-1.278.3-.371.19-.665.46-.883.81-.213.35-.319.74-.319 1.19v6.21h-1.509Zm13.652-7.62-1.355.38a2.518 2.518 0 0 0-.377-.65c-.162-.22-.384-.4-.665-.54s-.641-.21-1.08-.21c-.601 0-1.102.14-1.502.41-.397.28-.595.62-.595 1.05 0 .37.137.67.409.88.273.22.699.4 1.279.55l1.457.36c.878.21 1.532.53 1.963.97.43.44.645 1 .645 1.68 0 .57-.162 1.07-.486 1.51-.319.45-.767.8-1.342 1.05-.575.26-1.244.38-2.007.38-1.002 0-1.83-.21-2.487-.65-.656-.43-1.071-1.07-1.246-1.9l1.432-.36c.136.53.394.92.773 1.19.384.26.884.4 1.502.4.703 0 1.262-.15 1.675-.45.418-.31.626-.67.626-1.09 0-.34-.119-.63-.358-.86-.238-.23-.605-.4-1.099-.52l-1.636-.38c-.899-.22-1.56-.55-1.982-.99-.417-.46-.626-1.02-.626-1.7 0-.55.155-1.04.466-1.47.316-.42.744-.76 1.285-1a4.564 4.564 0 0 1 1.854-.37c.971 0 1.734.22 2.288.64.558.43.955.99 1.189 1.69Zm3.549 7.72a1.09 1.09 0 0 1-.811-.34 1.086 1.086 0 0 1-.339-.81c0-.31.113-.58.339-.81.225-.23.496-.34.811-.34.316 0 .586.11.812.34.226.23.339.5.339.81 0 .21-.053.4-.16.58-.102.17-.241.31-.415.42-.171.1-.363.15-.576.15Zm0-7.28a1.13 1.13 0 0 1-.811-.34c-.226-.23-.339-.5-.339-.82 0-.31.113-.58.339-.81.225-.22.496-.34.811-.34.316 0 .586.12.812.34.226.23.339.5.339.81 0 .21-.053.41-.16.58-.102.17-.241.32-.415.42-.171.1-.363.16-.576.16Zm10.71-5.91V1213h-1.585v-13.09h1.585Zm4.483 7.18v5.91h-1.509v-9.82h1.457v1.54h.128c.23-.5.58-.9 1.049-1.21.468-.3 1.073-.46 1.815-.46.665 0 1.246.14 1.745.41.499.27.886.68 1.163 1.23.277.55.416 1.24.416 2.07v6.24h-1.509v-6.14c0-.77-.2-1.37-.601-1.8-.4-.43-.95-.65-1.649-.65-.481 0-.912.1-1.291.31-.375.21-.671.52-.888.92-.218.4-.326.88-.326 1.45Zm13.393-3.91v1.28h-5.293v-1.28h5.293Zm-3.708 9.82v-11.17c0-.57.132-1.03.396-1.41.265-.37.608-.66 1.03-.84.421-.19.867-.28 1.336-.28.37 0 .673.03.907.08.235.06.409.12.524.17l-.434 1.31c-.077-.03-.184-.06-.32-.1a1.862 1.862 0 0 0-.524-.06c-.499 0-.859.13-1.08.38-.218.25-.326.62-.326 1.1V1213h-1.509Zm5.822 0v-9.82h1.508v9.82h-1.508Zm.767-11.45c-.294 0-.548-.1-.761-.3a.998.998 0 0 1-.313-.73c0-.28.104-.52.313-.72.213-.2.467-.3.761-.3s.545.1.754.3c.213.2.32.44.32.72a.99.99 0 0 1-.32.73c-.209.2-.46.3-.754.3Zm5.013 5.54v5.91h-1.509v-9.82h1.458v1.54h.127c.231-.5.58-.9 1.049-1.21.468-.3 1.074-.46 1.815-.46.665 0 1.247.14 1.745.41.499.27.886.68 1.163 1.23.277.55.416 1.24.416 2.07v6.24h-1.509v-6.14c0-.77-.2-1.37-.6-1.8-.401-.43-.951-.65-1.65-.65-.481 0-.912.1-1.291.31-.375.21-.671.52-.888.92-.218.4-.326.88-.326 1.45Zm9.02 5.91v-9.82h1.509v9.82h-1.509Zm.768-11.45c-.295 0-.548-.1-.761-.3a.998.998 0 0 1-.313-.73c0-.28.104-.52.313-.72.213-.2.466-.3.761-.3.294 0 .545.1.754.3.213.2.319.44.319.72a.99.99 0 0 1-.319.73c-.209.2-.46.3-.754.3Zm7.774 1.63v1.28h-5.088v-1.28h5.088Zm-3.605-2.35h1.508v9.36c0 .42.062.74.186.96.127.21.289.35.485.42.201.07.412.1.633.1.166 0 .303-.01.409-.03.107-.02.192-.03.256-.05l.307 1.36a2.15 2.15 0 0 1-.428.11c-.184.05-.416.07-.697.07a2.94 2.94 0 0 1-1.253-.28 2.487 2.487 0 0 1-1.01-.83c-.264-.38-.396-.85-.396-1.42v-9.77Zm6.846 15.85a3.51 3.51 0 0 1-.684-.06 1.748 1.748 0 0 1-.416-.12l.384-1.33c.366.1.69.13.971.11.282-.03.531-.16.748-.38.222-.22.424-.58.607-1.08l.282-.77-3.631-9.87h1.636l2.711 7.83h.102l2.71-7.83h1.636l-4.167 11.25c-.188.51-.42.93-.697 1.26-.277.34-.599.59-.965.75-.362.16-.771.24-1.227.24Zm16.692-3.68-3.579-13.09h1.611l2.735 10.66h.128l2.787-10.66h1.79l2.787 10.66h.128l2.736-10.66h1.61l-3.579 13.09h-1.637l-2.889-10.43h-.102l-2.889 10.43h-1.637Zm16.479.23c-.622 0-1.187-.12-1.694-.35-.507-.24-.91-.58-1.208-1.03-.298-.45-.447-1-.447-1.64 0-.56.111-1.02.332-1.36.222-.36.518-.64.889-.84.37-.2.779-.35 1.227-.44a12.8 12.8 0 0 1 1.361-.25c.597-.07 1.081-.13 1.451-.17.375-.04.648-.11.819-.21.174-.1.262-.27.262-.51v-.05c0-.63-.173-1.12-.518-1.47-.341-.35-.859-.53-1.553-.53-.721 0-1.285.16-1.694.48-.409.31-.697.65-.863 1.01l-1.432-.51c.256-.6.597-1.07 1.023-1.4.43-.34.899-.57 1.406-.7a5.692 5.692 0 0 1 1.508-.21c.316 0 .678.04 1.087.12.413.07.812.22 1.195.45.388.23.71.58.966 1.04.255.47.383 1.09.383 1.87v6.47h-1.508v-1.33h-.077c-.102.21-.273.44-.511.68-.239.25-.557.45-.953.62-.396.17-.88.26-1.451.26Zm.23-1.35c.597 0 1.1-.12 1.509-.36.413-.23.724-.53.933-.9.213-.37.32-.76.32-1.17v-1.38c-.064.07-.205.14-.422.21-.213.06-.46.11-.742.16-.277.04-.547.08-.812.11-.259.03-.47.06-.632.08-.392.05-.759.13-1.1.25a1.94 1.94 0 0 0-.818.5c-.204.22-.307.53-.307.91 0 .52.194.92.582 1.19.392.26.888.4 1.489.4Zm7.024 1.12v-9.82h1.457v1.48h.102c.179-.48.503-.88.972-1.18.469-.3.997-.45 1.585-.45h.415c.167.01.292.02.378.02v1.54c-.052-.01-.169-.03-.352-.06a3.458 3.458 0 0 0-.569-.04c-.477 0-.903.1-1.278.3-.371.19-.665.46-.882.81-.213.35-.32.74-.32 1.19v6.21h-1.508Z"/>
</svg>
