<svg xmlns="http://www.w3.org/2000/svg" width="386" height="1228" fill="none" viewBox="0 0 386 1228">
  <path fill="#75BCF0" d="M203.5 73.998v1060h-5v-1060z"/>
  <circle cx="201" cy="74.498" r="12" fill="#fff" stroke="#75BCF0" stroke-width="3" transform="rotate(90 201 74.498)"/>
  <circle cx="201" cy="437.498" r="8" fill="#fff" stroke="#75BCF0" stroke-width="3" transform="rotate(90 201 437.498)"/>
  <circle cx="201" cy="529.498" r="8" fill="#fff" stroke="#75BCF0" stroke-width="3" transform="rotate(90 201 529.498)"/>
  <circle cx="201" cy="281.498" r="8" fill="#fff" stroke="#75BCF0" stroke-width="3" transform="rotate(90 201 281.498)"/>
  <circle cx="201" cy="773.499" r="8" fill="#fff" stroke="#75BCF0" stroke-width="3" transform="rotate(90 201 773.499)"/>
  <circle cx="201" cy="1073.5" r="8" fill="#fff" stroke="#75BCF0" stroke-width="3" transform="rotate(90 201 1073.5)"/>
  <circle cx="201" cy="854.499" r="8" fill="#fff" stroke="#75BCF0" stroke-width="3" transform="rotate(90 201 854.499)"/>
  <circle cx="201" cy="1133.5" r="12" fill="#fff" stroke="#75BCF0" stroke-width="3" transform="rotate(90 201 1133.5)"/>
  <path fill="#fff" d="M175.799 9.492h-2.8a2.749 2.749 0 0 0-.313-.965 2.45 2.45 0 0 0-.608-.729 2.666 2.666 0 0 0-.856-.46 3.278 3.278 0 0 0-1.042-.16c-.678 0-1.268.169-1.771.505-.502.333-.892.818-1.169 1.458-.277.635-.416 1.406-.416 2.313 0 .934.139 1.718.416 2.353.281.635.673 1.114 1.176 1.438.503.324 1.084.486 1.745.486.371 0 .714-.05 1.029-.147.319-.098.603-.241.85-.428.247-.192.452-.425.614-.697a2.72 2.72 0 0 0 .345-.933l2.8.012a5.08 5.08 0 0 1-.544 1.739 5.212 5.212 0 0 1-1.157 1.49 5.439 5.439 0 0 1-1.726 1.035c-.664.251-1.416.377-2.256.377-1.168 0-2.212-.264-3.132-.793-.916-.528-1.641-1.293-2.173-2.294-.529-1.002-.793-2.214-.793-3.638 0-1.427.268-2.642.805-3.643s1.266-1.764 2.186-2.288c.921-.529 1.956-.793 3.107-.793.759 0 1.462.107 2.109.32.652.213 1.23.524 1.733.933a4.8 4.8 0 0 1 1.227 1.49c.32.587.524 1.26.614 2.02ZM177.732 18V8.182h2.64v1.713h.102c.179-.61.48-1.07.902-1.38a2.366 2.366 0 0 1 1.457-.474 4.13 4.13 0 0 1 .857.096v2.416a3.555 3.555 0 0 0-.531-.102 4.78 4.78 0 0 0-.62-.045c-.401 0-.759.088-1.074.262a1.93 1.93 0 0 0-.741.716c-.179.307-.269.66-.269 1.061V18h-2.723Zm11.383.192c-1.01 0-1.879-.205-2.608-.614a4.199 4.199 0 0 1-1.675-1.751c-.392-.759-.588-1.656-.588-2.691 0-1.01.196-1.897.588-2.66a4.345 4.345 0 0 1 1.656-1.783c.716-.426 1.555-.639 2.518-.639a5.12 5.12 0 0 1 1.809.313 4.003 4.003 0 0 1 1.47.927c.422.413.75.933.985 1.56.234.622.351 1.35.351 2.186v.748h-8.29V12.1h5.727c0-.392-.085-.74-.256-1.042a1.831 1.831 0 0 0-.709-.71 2.027 2.027 0 0 0-1.042-.261c-.413 0-.78.095-1.1.287a2.018 2.018 0 0 0-.741.76 2.145 2.145 0 0 0-.275 1.056v1.604c0 .486.09.906.269 1.26.183.353.441.626.773.817.332.192.727.288 1.183.288.302 0 .579-.043.831-.128.251-.085.466-.213.645-.383s.315-.38.409-.627l2.519.166a3.435 3.435 0 0 1-.787 1.586c-.392.447-.899.797-1.521 1.048-.618.247-1.332.37-2.141.37Zm9.083-.007c-.627 0-1.185-.108-1.675-.326a2.693 2.693 0 0 1-1.163-.978c-.281-.434-.422-.976-.422-1.623 0-.546.1-1.004.3-1.374.201-.371.473-.67.819-.895a3.965 3.965 0 0 1 1.176-.512 8.937 8.937 0 0 1 1.393-.243 36.46 36.46 0 0 0 1.381-.166c.349-.055.603-.136.76-.243a.534.534 0 0 0 .237-.473v-.038c0-.405-.128-.718-.384-.94-.251-.221-.609-.332-1.073-.332-.49 0-.88.109-1.17.326-.29.213-.482.481-.575.805l-2.519-.204a3.423 3.423 0 0 1 .754-1.547 3.622 3.622 0 0 1 1.451-1.01c.597-.239 1.287-.358 2.071-.358.546 0 1.068.064 1.566.192a4.1 4.1 0 0 1 1.336.594c.392.269.701.614.927 1.036.226.417.339.918.339 1.502V18h-2.582v-1.361h-.077a2.781 2.781 0 0 1-.633.811c-.264.23-.582.412-.952.544a3.94 3.94 0 0 1-1.285.191Zm.78-1.879a2.3 2.3 0 0 0 1.061-.236 1.88 1.88 0 0 0 .722-.652 1.68 1.68 0 0 0 .262-.927v-1.042a1.453 1.453 0 0 1-.351.153 6.349 6.349 0 0 1-.493.122c-.183.034-.366.066-.549.096l-.499.07a3.37 3.37 0 0 0-.837.224 1.33 1.33 0 0 0-.556.415c-.132.17-.198.384-.198.64 0 .37.134.653.402.85.273.191.618.287 1.036.287Zm12.084-8.124v2.045h-5.913V8.182h5.913Zm-4.57-2.352h2.723v9.153c0 .251.038.447.115.588a.632.632 0 0 0 .319.288c.141.055.303.083.486.083.128 0 .256-.01.384-.032l.294-.058.428 2.027a7.76 7.76 0 0 1-.575.147c-.248.06-.548.095-.902.108-.656.026-1.231-.062-1.726-.262a2.41 2.41 0 0 1-1.144-.933c-.272-.422-.407-.955-.402-1.598V5.83ZM212.836 18V8.182h2.723V18h-2.723Zm1.368-11.084c-.405 0-.753-.134-1.042-.403a1.305 1.305 0 0 1-.429-.977c0-.375.143-.697.429-.966a1.468 1.468 0 0 1 1.042-.409c.404 0 .75.137 1.035.41.29.268.435.59.435.965 0 .379-.145.705-.435.977a1.456 1.456 0 0 1-1.035.403Zm7.972 11.276c-.993 0-1.852-.211-2.576-.633a4.33 4.33 0 0 1-1.668-1.777c-.392-.763-.588-1.647-.588-2.653 0-1.014.196-1.9.588-2.659a4.279 4.279 0 0 1 1.668-1.777c.724-.426 1.583-.639 2.576-.639.993 0 1.849.213 2.57.64a4.268 4.268 0 0 1 1.674 1.776c.392.759.588 1.645.588 2.66 0 1.005-.196 1.89-.588 2.652a4.318 4.318 0 0 1-1.674 1.777c-.721.422-1.577.633-2.57.633Zm.013-2.11c.452 0 .829-.128 1.131-.383.303-.26.531-.614.684-1.061.158-.448.237-.957.237-1.528 0-.57-.079-1.08-.237-1.528-.153-.447-.381-.8-.684-1.06-.302-.26-.679-.39-1.131-.39-.456 0-.84.13-1.151.39-.307.26-.539.613-.696 1.06a4.682 4.682 0 0 0-.231 1.528c0 .571.077 1.08.231 1.528.157.447.389.8.696 1.06.311.256.695.384 1.151.384Zm9.313-3.758V18h-2.723V8.182h2.595v1.732h.115a2.745 2.745 0 0 1 1.093-1.355c.512-.337 1.132-.505 1.86-.505.682 0 1.277.15 1.784.447a3.04 3.04 0 0 1 1.182 1.279c.282.55.422 1.206.422 1.969V18h-2.723v-5.766c.004-.6-.149-1.07-.46-1.406-.311-.34-.739-.511-1.285-.511-.366 0-.69.079-.971.236a1.644 1.644 0 0 0-.652.69c-.154.299-.233.659-.237 1.08Zm-72.785 21.13c0-1.61.209-3.091.627-4.442a13.886 13.886 0 0 1 1.802-3.74h1.33a8.2 8.2 0 0 0-.863 1.56 15.336 15.336 0 0 0-.697 2.027c-.2.733-.358 1.491-.473 2.275a16.539 16.539 0 0 0-.166 2.32c0 1.015.098 2.044.294 3.088.196 1.044.46 2.013.793 2.908.332.895.703 1.624 1.112 2.186h-1.33a13.907 13.907 0 0 1-1.802-3.733c-.418-1.355-.627-2.838-.627-4.448Zm6.19 6.546V26.91h4.576c.912 0 1.664.157 2.257.472.592.311 1.033.73 1.323 1.26a3.54 3.54 0 0 1 .434 1.744c0 .563-.1 1.027-.3 1.394a2.335 2.335 0 0 1-.78.87 3.56 3.56 0 0 1-1.042.472v.128c.401.026.804.166 1.208.422.405.256.744.622 1.017 1.1.272.477.409 1.06.409 1.75 0 .657-.149 1.247-.448 1.771-.298.525-.769.94-1.412 1.247-.644.307-1.481.46-2.512.46h-4.73Zm1.585-1.406h3.145c1.035 0 1.77-.2 2.205-.601.439-.405.658-.895.658-1.47 0-.444-.113-.853-.339-1.228a2.442 2.442 0 0 0-.965-.907c-.417-.23-.912-.345-1.483-.345h-3.221v4.55Zm0-5.932h2.94a2.9 2.9 0 0 0 1.291-.281c.388-.188.695-.452.921-.793.23-.34.345-.741.345-1.202 0-.575-.2-1.063-.601-1.463-.401-.405-1.035-.608-1.905-.608h-2.991v4.347ZM176.409 40v-9.818h1.509V40h-1.509Zm.767-11.454c-.294 0-.548-.1-.761-.301a.968.968 0 0 1-.313-.722.97.97 0 0 1 .313-.723c.213-.2.467-.3.761-.3s.546.1.754.3c.213.2.32.441.32.723a.957.957 0 0 1-.32.722c-.208.2-.46.3-.754.3Zm7.468 15.34c-.729 0-1.356-.093-1.88-.28-.524-.184-.961-.427-1.31-.73a4.003 4.003 0 0 1-.825-.958l1.202-.844c.136.179.309.383.518.614.209.234.494.436.856.607.367.174.846.262 1.439.262.792 0 1.446-.192 1.962-.576.516-.383.773-.984.773-1.802v-1.994h-.127a8.08 8.08 0 0 1-.474.664c-.2.26-.49.493-.869.697-.375.2-.882.3-1.521.3-.793 0-1.504-.187-2.135-.562-.626-.375-1.123-.92-1.489-1.636-.363-.716-.544-1.586-.544-2.608 0-1.006.177-1.882.531-2.627.353-.75.846-1.33 1.476-1.739.631-.413 1.36-.62 2.186-.62.64 0 1.147.107 1.522.32.379.208.669.447.869.716.205.264.362.481.473.651h.153v-1.56h1.458v10.1c0 .844-.192 1.53-.575 2.059a3.29 3.29 0 0 1-1.535 1.17c-.639.25-1.35.376-2.134.376Zm-.052-5.395c.606 0 1.117-.138 1.535-.415.417-.277.735-.675.952-1.195.217-.52.326-1.142.326-1.867 0-.707-.107-1.332-.32-1.873-.213-.54-.528-.965-.946-1.272-.417-.306-.933-.46-1.547-.46-.639 0-1.171.162-1.598.486a2.963 2.963 0 0 0-.952 1.304 5.036 5.036 0 0 0-.313 1.815c0 .682.106 1.285.319 1.81.218.519.537.928.959 1.226.426.294.955.442 1.585.442ZM196.916 40V26.91h4.577c.912 0 1.664.157 2.256.472.593.311 1.034.73 1.324 1.26a3.55 3.55 0 0 1 .434 1.744c0 .563-.1 1.027-.3 1.394a2.335 2.335 0 0 1-.78.87c-.32.212-.667.37-1.042.472v.128c.401.026.803.166 1.208.422.405.256.744.622 1.016 1.1.273.477.41 1.06.41 1.75 0 .657-.15 1.247-.448 1.771-.298.525-.769.94-1.413 1.247-.643.307-1.48.46-2.512.46h-4.73Zm1.586-1.406h3.144c1.036 0 1.771-.2 2.206-.601.439-.405.658-.895.658-1.47 0-.444-.113-.853-.339-1.228a2.449 2.449 0 0 0-.965-.907c-.418-.23-.912-.345-1.483-.345h-3.221v4.55Zm0-5.932h2.94a2.9 2.9 0 0 0 1.291-.281 2.25 2.25 0 0 0 .92-.793c.231-.34.346-.741.346-1.202 0-.575-.201-1.063-.601-1.463-.401-.405-1.036-.608-1.905-.608h-2.991v4.347Zm12.806 7.568a3.991 3.991 0 0 1-1.694-.351 2.906 2.906 0 0 1-1.208-1.03c-.298-.451-.447-.997-.447-1.636 0-.562.11-1.018.332-1.368.222-.353.518-.63.888-.83.371-.201.78-.35 1.228-.448.451-.102.905-.184 1.361-.243.597-.077 1.08-.134 1.451-.173.375-.042.648-.113.818-.21.175-.099.262-.27.262-.512v-.051c0-.63-.172-1.12-.517-1.47-.341-.35-.859-.524-1.554-.524-.72 0-1.284.157-1.693.473-.41.315-.697.651-.863 1.01l-1.432-.512c.255-.596.596-1.061 1.023-1.393a3.83 3.83 0 0 1 1.406-.703 5.837 5.837 0 0 1 1.508-.205c.316 0 .678.038 1.087.115.413.072.812.224 1.195.454.388.23.71.577.965 1.042.256.464.384 1.086.384 1.866V40h-1.509v-1.33h-.076a2.67 2.67 0 0 1-.512.684c-.238.243-.556.45-.952.62-.396.17-.88.256-1.451.256Zm.23-1.355c.597 0 1.1-.117 1.509-.352a2.396 2.396 0 0 0 1.252-2.077v-1.38c-.063.076-.204.146-.421.21a7.16 7.16 0 0 1-.742.16 33.292 33.292 0 0 1-1.445.192 5.77 5.77 0 0 0-1.099.25c-.337.11-.609.278-.818.504-.205.222-.307.524-.307.908 0 .524.194.92.582 1.189.392.264.888.396 1.489.396Zm8.532-4.781V40h-1.509v-9.818h1.458v1.534h.128a2.8 2.8 0 0 1 1.048-1.202c.469-.307 1.074-.46 1.815-.46.665 0 1.247.136 1.745.41.499.268.887.677 1.164 1.226.277.546.415 1.236.415 2.071V40h-1.508v-6.136c0-.772-.201-1.372-.601-1.803-.401-.435-.951-.652-1.649-.652-.482 0-.912.105-1.292.313a2.238 2.238 0 0 0-.888.914c-.217.4-.326.887-.326 1.458Zm12.984 9.792c-.729 0-1.355-.093-1.88-.28-.524-.184-.96-.427-1.31-.73a3.975 3.975 0 0 1-.824-.958l1.201-.844c.137.179.309.383.518.614.209.234.494.436.857.607.366.174.845.262 1.438.262.792 0 1.446-.192 1.962-.576.516-.383.774-.984.774-1.802v-1.994h-.128a8.28 8.28 0 0 1-.473.664c-.201.26-.49.493-.87.697-.375.2-.882.3-1.521.3-.793 0-1.504-.187-2.135-.562-.626-.375-1.123-.92-1.489-1.636-.362-.716-.544-1.586-.544-2.608 0-1.006.177-1.882.531-2.627.354-.75.846-1.33 1.477-1.739.63-.413 1.359-.62 2.186-.62.639 0 1.146.107 1.521.32.379.208.669.447.869.716.205.264.362.481.473.651h.154v-1.56h1.457v10.1c0 .844-.192 1.53-.575 2.059a3.28 3.28 0 0 1-1.534 1.17c-.64.25-1.351.376-2.135.376Zm-.051-5.395c.605 0 1.116-.138 1.534-.415.417-.277.735-.675.952-1.195.217-.52.326-1.142.326-1.867 0-.707-.106-1.332-.32-1.873-.213-.54-.528-.965-.946-1.272-.417-.306-.933-.46-1.546-.46-.64 0-1.172.162-1.598.486-.422.324-.74.758-.953 1.304a5.036 5.036 0 0 0-.313 1.815c0 .682.106 1.285.32 1.81.217.519.536.928.958 1.226.426.294.955.442 1.586.442Zm10.278-4.014c0 1.611-.211 3.094-.633 4.45a13.714 13.714 0 0 1-1.796 3.732h-1.33a7.99 7.99 0 0 0 .857-1.56 14.74 14.74 0 0 0 .703-2.02c.2-.737.356-1.497.467-2.281a16.07 16.07 0 0 0 .172-2.32c0-1.015-.098-2.044-.294-3.088a17.793 17.793 0 0 0-.792-2.909c-.333-.894-.703-1.623-1.113-2.186h1.33a13.692 13.692 0 0 1 1.796 3.74c.422 1.35.633 2.832.633 4.442Zm-114.138 384.43v13.091h-2.768v-10.464h-.076l-2.998 1.88v-2.455l3.241-2.052h2.601Zm7.848-.179c.673 0 1.321.113 1.943.339a4.477 4.477 0 0 1 1.675 1.08c.494.495.884 1.151 1.17 1.969.289.814.436 1.813.441 2.998 0 1.112-.126 2.105-.377 2.979-.248.869-.603 1.608-1.068 2.218a4.669 4.669 0 0 1-1.681 1.393c-.656.315-1.389.473-2.199.473-.873 0-1.645-.168-2.314-.505a4.342 4.342 0 0 1-1.617-1.387 4.316 4.316 0 0 1-.735-1.982h2.729c.107.478.331.848.672 1.113.34.26.762.39 1.265.39.852 0 1.5-.371 1.943-1.113.444-.745.667-1.766.672-3.061h-.09a3.13 3.13 0 0 1-.793.99 3.671 3.671 0 0 1-1.144.633c-.426.149-.88.224-1.361.224-.772 0-1.46-.181-2.065-.543a3.91 3.91 0 0 1-1.432-1.496c-.349-.635-.524-1.36-.524-2.173-.004-.878.198-1.66.607-2.346a4.287 4.287 0 0 1 1.713-1.611c.738-.392 1.594-.586 2.57-.582Zm.019 2.173c-.43 0-.814.103-1.15.307-.333.205-.597.48-.793.825a2.293 2.293 0 0 0-.281 1.157c0 .43.094.818.281 1.163.192.341.452.614.78.818.332.201.712.301 1.138.301a2.198 2.198 0 0 0 1.598-.671c.204-.213.364-.458.479-.735.115-.277.173-.572.173-.883a2.37 2.37 0 0 0-.294-1.137 2.235 2.235 0 0 0-.793-.831 2.115 2.115 0 0 0-1.138-.314Zm6.929 8.796v-2.18l5.465-8.61h1.88v3.017h-1.113l-3.445 5.453v.102h7.766v2.218h-10.553Zm6.284 2.301v-2.966l.051-.965v-9.16h2.595v13.091h-2.646Zm6.114 0v-1.994l4.659-4.315c.397-.383.729-.729.998-1.035.272-.307.479-.608.62-.902.14-.298.211-.62.211-.965 0-.383-.088-.714-.263-.991a1.716 1.716 0 0 0-.715-.645 2.24 2.24 0 0 0-1.03-.23c-.4 0-.75.081-1.048.243a1.671 1.671 0 0 0-.69.696c-.162.303-.243.663-.243 1.081h-2.627c0-.857.194-1.601.581-2.231a3.888 3.888 0 0 1 1.63-1.464c.699-.345 1.505-.518 2.417-.518.937 0 1.753.166 2.448.499.699.328 1.242.784 1.63 1.368.388.583.581 1.252.581 2.007 0 .494-.098.982-.294 1.464-.191.481-.534 1.016-1.029 1.604-.494.584-1.191 1.285-2.09 2.103l-1.911 1.873v.089h5.497v2.263h-9.332Zm-49.451 22v-13.091h4.423c1.023 0 1.863.175 2.519.524.656.345 1.142.821 1.457 1.426.316.605.473 1.293.473 2.064 0 .772-.157 1.456-.473 2.052-.315.597-.799 1.066-1.451 1.406-.652.337-1.485.505-2.499.505h-3.58v-1.431h3.529c.699 0 1.261-.103 1.687-.307.431-.205.742-.495.934-.87.196-.379.294-.831.294-1.355s-.098-.982-.294-1.374c-.196-.392-.51-.695-.94-.908-.43-.217-.999-.326-1.707-.326h-2.787v11.685h-1.585Zm6.162-5.881 3.222 5.881h-1.841l-3.171-5.881h1.79Zm9.158 6.086c-.946 0-1.762-.209-2.448-.627a4.207 4.207 0 0 1-1.579-1.764c-.366-.759-.549-1.641-.549-2.646 0-1.006.183-1.892.549-2.659.371-.772.887-1.373 1.547-1.803.665-.435 1.44-.652 2.327-.652.511 0 1.016.085 1.515.256.498.17.952.447 1.361.831.409.379.735.882.978 1.508.243.627.365 1.398.365 2.314v.639h-7.569v-1.304h6.035c0-.554-.111-1.048-.333-1.483a2.508 2.508 0 0 0-.933-1.029c-.401-.251-.874-.377-1.419-.377-.601 0-1.121.149-1.56.448a2.942 2.942 0 0 0-1.003 1.15c-.235.473-.352.98-.352 1.521v.87c0 .741.128 1.37.384 1.885.26.512.62.902 1.08 1.17.46.264.995.396 1.604.396.397 0 .755-.055 1.074-.166a2.29 2.29 0 0 0 .837-.511c.235-.23.416-.516.544-.857l1.457.409a3.224 3.224 0 0 1-.773 1.304c-.362.371-.81.661-1.343.87-.532.204-1.131.307-1.796.307Zm10.068 0c-.818 0-1.541-.207-2.167-.62-.627-.418-1.117-1.006-1.47-1.765-.354-.762-.531-1.664-.531-2.703 0-1.032.177-1.927.531-2.685.353-.759.846-1.345 1.476-1.758.631-.413 1.36-.62 2.186-.62.64 0 1.144.107 1.515.32.375.208.661.447.857.716.2.264.356.481.466.652h.128v-4.833h1.509v13.091h-1.458v-1.508h-.179c-.11.179-.268.404-.473.677-.204.269-.496.509-.875.722-.38.209-.885.314-1.515.314Zm.204-1.356c.605 0 1.117-.157 1.534-.473.418-.319.735-.76.953-1.323.217-.566.326-1.221.326-1.962 0-.733-.107-1.374-.32-1.924-.213-.554-.528-.984-.946-1.291-.417-.311-.933-.467-1.547-.467-.639 0-1.172.164-1.598.492-.422.324-.739.765-.952 1.323-.209.554-.313 1.177-.313 1.867 0 .699.106 1.334.319 1.905.218.567.537 1.018.959 1.355.426.332.955.498 1.585.498Zm19.694-8.667a2.009 2.009 0 0 0-.933-1.509c-.546-.358-1.215-.537-2.007-.537-.58 0-1.087.094-1.521.282-.431.187-.768.445-1.01.773a1.852 1.852 0 0 0-.358 1.119c0 .349.083.65.249.901.17.247.388.454.652.62.264.162.541.296.831.403.29.102.556.185.799.249l1.329.358c.341.089.721.213 1.138.371a5.24 5.24 0 0 1 1.208.645c.388.269.708.614.959 1.036.252.422.377.939.377 1.553 0 .707-.185 1.347-.556 1.918-.366.571-.903 1.025-1.611 1.361-.703.337-1.557.505-2.563.505-.937 0-1.749-.151-2.435-.454-.682-.302-1.219-.724-1.611-1.265-.388-.541-.607-1.17-.658-1.886h1.636c.043.494.209.903.499 1.227.294.32.664.559 1.112.716.451.154.937.23 1.457.23.605 0 1.149-.098 1.63-.294.482-.2.863-.477 1.144-.831.282-.358.422-.775.422-1.252 0-.435-.121-.789-.364-1.062a2.68 2.68 0 0 0-.959-.664c-.396-.171-.825-.32-1.285-.448l-1.611-.46c-1.022-.294-1.832-.714-2.429-1.259-.596-.546-.894-1.259-.894-2.142 0-.733.198-1.372.594-1.917.401-.55.937-.976 1.611-1.279.677-.306 1.434-.46 2.269-.46.844 0 1.594.151 2.25.454.656.298 1.176.707 1.56 1.227.387.52.592 1.11.613 1.771h-1.534Zm5.521 6.239-.025-1.867h.307l4.295-4.372h1.866l-4.576 4.628h-.128l-1.739 1.611Zm-1.406 3.579v-13.091h1.509v13.091h-1.509Zm6.239 0-3.836-4.858 1.074-1.048 4.679 5.906h-1.917Zm9.74-4.014v-5.804h1.508v9.818h-1.508v-1.662h-.103c-.23.499-.588.923-1.074 1.272-.485.345-1.099.518-1.84.518-.614 0-1.16-.134-1.637-.403-.477-.273-.852-.682-1.125-1.227-.273-.55-.409-1.242-.409-2.077v-6.239h1.509v6.136c0 .716.2 1.287.6 1.713.405.426.921.64 1.547.64.375 0 .757-.096 1.144-.288.393-.192.721-.486.985-.882.268-.397.403-.902.403-1.515Zm5.78-9.077v13.091h-1.509v-13.091h1.509Zm4.271 0v13.091h-1.508v-13.091h1.508Zm70.694 70v13.091h-2.767v-10.464h-.077l-2.998 1.88v-2.455l3.241-2.052h2.601Zm7.848-.179c.674 0 1.321.113 1.943.339a4.477 4.477 0 0 1 1.675 1.08c.494.495.884 1.151 1.17 1.969.29.814.437 1.813.441 2.998 0 1.112-.126 2.105-.377 2.979-.247.869-.603 1.608-1.068 2.218a4.669 4.669 0 0 1-1.681 1.393c-.656.315-1.389.473-2.199.473-.873 0-1.645-.168-2.314-.505a4.342 4.342 0 0 1-1.617-1.387 4.316 4.316 0 0 1-.735-1.982h2.73c.106.478.33.848.671 1.113.341.26.763.39 1.265.39.853 0 1.5-.371 1.944-1.113.443-.745.666-1.766.671-3.061h-.09a3.14 3.14 0 0 1-.792.99 3.687 3.687 0 0 1-1.145.633c-.426.149-.88.224-1.361.224-.771 0-1.46-.181-2.065-.543a3.91 3.91 0 0 1-1.432-1.496c-.349-.635-.524-1.36-.524-2.173-.004-.878.198-1.66.608-2.346a4.28 4.28 0 0 1 1.713-1.611c.737-.392 1.593-.586 2.569-.582Zm.019 2.173c-.43 0-.814.103-1.15.307-.333.205-.597.48-.793.825a2.293 2.293 0 0 0-.281 1.157c0 .43.094.818.281 1.163.192.341.452.614.78.818.332.201.712.301 1.138.301a2.195 2.195 0 0 0 1.598-.671c.204-.213.364-.458.479-.735a2.347 2.347 0 0 0-.121-2.02 2.235 2.235 0 0 0-.793-.831 2.112 2.112 0 0 0-1.138-.314Zm6.929 8.796v-2.18l5.466-8.61h1.879v3.017h-1.112l-3.446 5.453v.102h7.767v2.218h-10.554Zm6.284 2.301v-2.966l.051-.965v-9.16h2.595v13.091h-2.646Zm10.895.179c-.903 0-1.709-.166-2.416-.499-.703-.332-1.262-.79-1.675-1.374a3.533 3.533 0 0 1-.645-2.007h2.684c.03.507.243.918.639 1.234.397.315.868.473 1.413.473.435 0 .818-.096 1.151-.288.336-.196.598-.467.786-.812.192-.349.287-.75.287-1.201 0-.461-.098-.865-.294-1.215a2.075 2.075 0 0 0-.799-.818 2.357 2.357 0 0 0-1.169-.301 2.77 2.77 0 0 0-1.119.237 2.019 2.019 0 0 0-.837.646l-2.461-.441.62-6.904h8.003v2.263h-5.721l-.339 3.279h.077c.23-.324.577-.592 1.042-.805.464-.213.984-.32 1.559-.32.789 0 1.492.185 2.11.556.618.371 1.105.88 1.463 1.528.358.643.535 1.385.531 2.224.004.882-.2 1.666-.614 2.353a4.33 4.33 0 0 1-1.719 1.61c-.733.388-1.585.582-2.557.582Zm-53.893 12.003a2.009 2.009 0 0 0-.933-1.509c-.546-.358-1.215-.537-2.007-.537-.58 0-1.087.094-1.522.282-.43.187-.767.445-1.01.773a1.857 1.857 0 0 0-.357 1.119c0 .349.083.65.249.901.17.247.388.454.652.62.264.162.541.296.831.403.29.102.556.185.799.249l1.329.358c.341.089.72.213 1.138.371a5.24 5.24 0 0 1 1.208.645c.388.269.708.614.959 1.036.251.422.377.939.377 1.553 0 .707-.185 1.347-.556 1.918-.366.571-.903 1.025-1.611 1.361-.703.337-1.557.505-2.563.505-.937 0-1.749-.151-2.435-.454-.682-.302-1.219-.724-1.611-1.265-.388-.541-.607-1.17-.659-1.886h1.637c.042.494.209.903.498 1.227.294.32.665.559 1.113.716.451.154.937.23 1.457.23.605 0 1.148-.098 1.63-.294.482-.2.863-.477 1.144-.831.281-.358.422-.775.422-1.252 0-.435-.121-.789-.364-1.062a2.68 2.68 0 0 0-.959-.664c-.396-.171-.825-.32-1.285-.448l-1.611-.46c-1.022-.294-1.832-.714-2.429-1.259-.596-.546-.895-1.259-.895-2.142 0-.733.199-1.372.595-1.917.4-.55.937-.976 1.611-1.279.677-.306 1.434-.46 2.269-.46.844 0 1.594.151 2.25.454.656.298 1.176.707 1.56 1.227.387.52.592 1.11.613 1.771h-1.534Zm5.214 9.92c-.315 0-.586-.113-.811-.338a1.108 1.108 0 0 1-.339-.812c0-.316.113-.586.339-.812.225-.226.496-.339.811-.339.316 0 .586.113.812.339.226.226.339.496.339.812 0 .209-.053.4-.16.575a1.198 1.198 0 0 1-.415.422 1.103 1.103 0 0 1-.576.153Zm4.063-.102v-13.091h1.585v5.83h6.98v-5.83h1.585v13.091h-1.585v-5.855h-6.98v5.855h-1.585Zm14.219.102a1.11 1.11 0 0 1-.812-.338 1.108 1.108 0 0 1-.339-.812c0-.316.113-.586.339-.812.226-.226.496-.339.812-.339.315 0 .586.113.811.339.226.226.339.496.339.812 0 .209-.053.4-.16.575a1.19 1.19 0 0 1-.415.422 1.1 1.1 0 0 1-.575.153Zm5.647-13.193v13.091h-1.585v-13.091h1.585Zm4.073 13.193c-.315 0-.586-.113-.811-.338a1.108 1.108 0 0 1-.339-.812c0-.316.113-.586.339-.812.225-.226.496-.339.811-.339.316 0 .586.113.812.339.226.226.339.496.339.812 0 .209-.053.4-.16.575a1.198 1.198 0 0 1-.415.422 1.103 1.103 0 0 1-.576.153Zm4.062-.102v-13.091h7.901v1.406h-6.315v4.424h5.906v1.406h-5.906v4.449h6.417v1.406h-8.003Zm11.653.102c-.315 0-.586-.113-.812-.338a1.111 1.111 0 0 1-.338-.812c0-.316.113-.586.338-.812.226-.226.497-.339.812-.339.316 0 .586.113.812.339.226.226.339.496.339.812 0 .209-.054.4-.16.575a1.192 1.192 0 0 1-.416.422c-.17.102-.362.153-.575.153Zm4.062-.102v-13.091h1.586v11.685h6.085v1.406h-7.671Zm11.02.102c-.315 0-.586-.113-.812-.338a1.111 1.111 0 0 1-.338-.812c0-.316.113-.586.338-.812.226-.226.497-.339.812-.339.316 0 .586.113.812.339.226.226.339.496.339.812 0 .209-.053.4-.16.575a1.192 1.192 0 0 1-.416.422c-.17.102-.362.153-.575.153Zm8.102-.102h-4.04v-13.091h4.219c1.27 0 2.357.262 3.26.786.903.52 1.596 1.268 2.077 2.244.482.972.723 2.135.723 3.49 0 1.364-.243 2.538-.729 3.522a5.197 5.197 0 0 1-2.122 2.263c-.929.524-2.058.786-3.388.786Zm-2.454-1.406h2.352c1.082 0 1.979-.209 2.691-.627a3.86 3.86 0 0 0 1.592-1.783c.349-.771.524-1.69.524-2.755 0-1.057-.173-1.967-.518-2.729-.345-.767-.861-1.355-1.547-1.765-.686-.413-1.54-.62-2.563-.62h-2.531v10.279Zm11.421 1.508a1.11 1.11 0 0 1-.812-.338 1.108 1.108 0 0 1-.339-.812c0-.316.113-.586.339-.812.226-.226.496-.339.812-.339.315 0 .586.113.811.339.226.226.339.496.339.812 0 .209-.053.4-.16.575a1.19 1.19 0 0 1-.415.422 1.1 1.1 0 0 1-.575.153Zm-78.872-283.372c.673 0 1.321.113 1.943.339a4.48 4.48 0 0 1 1.674 1.08c.495.495.885 1.151 1.17 1.969.29.814.437 1.813.441 2.998 0 1.112-.125 2.105-.377 2.979-.247.869-.603 1.608-1.067 2.218a4.667 4.667 0 0 1-1.681 1.393c-.657.316-1.39.473-2.199.473-.874 0-1.645-.168-2.314-.505a4.342 4.342 0 0 1-1.617-1.387 4.312 4.312 0 0 1-.735-1.981h2.729c.106.477.33.848.671 1.112.341.26.763.39 1.266.39.852 0 1.5-.371 1.943-1.112.443-.746.667-1.767.671-3.062h-.089a3.147 3.147 0 0 1-.793.991 3.7 3.7 0 0 1-1.144.632 4.07 4.07 0 0 1-1.362.224c-.771 0-1.459-.181-2.064-.543a3.895 3.895 0 0 1-1.432-1.496c-.35-.635-.524-1.359-.524-2.173-.005-.878.198-1.66.607-2.346a4.28 4.28 0 0 1 1.713-1.611c.737-.392 1.594-.586 2.57-.582Zm.019 2.174c-.431 0-.814.102-1.151.307a2.26 2.26 0 0 0-.792.824 2.294 2.294 0 0 0-.282 1.157c0 .43.094.818.282 1.163.191.341.451.614.779.819.333.2.712.3 1.138.3a2.2 2.2 0 0 0 1.598-.671c.205-.213.365-.458.48-.735a2.348 2.348 0 0 0-.122-2.02 2.255 2.255 0 0 0-.792-.831 2.114 2.114 0 0 0-1.138-.313Zm12.151 11.275a5.906 5.906 0 0 1-1.95-.339 4.422 4.422 0 0 1-1.674-1.08c-.495-.498-.887-1.159-1.176-1.981-.286-.823-.429-1.833-.429-3.03.005-1.1.13-2.082.377-2.947.252-.869.61-1.606 1.074-2.212a4.697 4.697 0 0 1 1.681-1.38c.652-.32 1.383-.48 2.193-.48.874 0 1.645.171 2.314.512a4.261 4.261 0 0 1 1.611 1.374c.409.58.656 1.229.741 1.95h-2.729c-.107-.456-.331-.814-.671-1.074-.341-.26-.763-.39-1.266-.39-.852 0-1.5.371-1.943 1.112-.439.742-.663 1.749-.671 3.024h.089c.196-.388.46-.719.793-.991a3.612 3.612 0 0 1 1.144-.633c.43-.149.884-.224 1.361-.224.776 0 1.466.183 2.071.55a3.895 3.895 0 0 1 1.432 1.496c.35.635.524 1.361.524 2.179 0 .887-.206 1.675-.62 2.365a4.294 4.294 0 0 1-1.719 1.624c-.733.388-1.585.58-2.557.575Zm-.013-2.173a2.154 2.154 0 0 0 1.937-1.138c.192-.349.288-.741.288-1.176 0-.435-.096-.825-.288-1.17a2.152 2.152 0 0 0-.78-.824 2.12 2.12 0 0 0-1.138-.307c-.319 0-.615.06-.888.179a2.226 2.226 0 0 0-.71.498c-.2.214-.358.461-.473.742a2.292 2.292 0 0 0-.172.888c0 .422.096.808.287 1.157.196.35.461.629.793.838.337.209.718.313 1.144.313Zm11.653 2.173c-.903 0-1.709-.166-2.416-.498-.703-.333-1.262-.791-1.675-1.375a3.529 3.529 0 0 1-.646-2.007h2.685c.03.507.243.919.639 1.234.397.315.868.473 1.413.473.435 0 .818-.096 1.151-.288.336-.196.598-.466.786-.811.192-.35.287-.75.287-1.202 0-.46-.098-.865-.294-1.215a2.075 2.075 0 0 0-.799-.818 2.346 2.346 0 0 0-1.169-.3c-.384 0-.757.079-1.119.236a2.019 2.019 0 0 0-.837.646l-2.461-.441.62-6.904h8.003v2.263h-5.721l-.339 3.279h.077c.23-.324.577-.592 1.042-.805.464-.213.984-.32 1.559-.32.789 0 1.492.186 2.11.556a4.01 4.01 0 0 1 1.463 1.528c.358.644.535 1.385.531 2.225.004.882-.2 1.666-.614 2.352a4.325 4.325 0 0 1-1.719 1.611c-.733.387-1.585.581-2.557.581Zm13.319-.179h-2.966l4.52-13.091h3.566l4.513 13.091h-2.966l-3.279-10.099h-.102l-3.286 10.099Zm-.185-5.145h7.006v2.16h-7.006v-2.16Zm12.934 5.311c-.422 0-.784-.149-1.086-.447a1.492 1.492 0 0 1-.448-1.087c0-.417.149-.775.448-1.073a1.488 1.488 0 0 1 1.086-.448c.409 0 .767.149 1.074.448.307.298.46.656.46 1.073 0 .282-.072.539-.217.774-.141.23-.326.415-.556.556-.23.136-.484.204-.761.204Zm8.462-.166h-4.641v-13.091h4.679c1.317 0 2.45.262 3.401.787a5.295 5.295 0 0 1 2.192 2.243c.516.976.774 2.144.774 3.503 0 1.364-.258 2.536-.774 3.516a5.31 5.31 0 0 1-2.205 2.256c-.955.524-2.097.786-3.426.786Zm-1.873-2.371h1.758c.818 0 1.506-.145 2.064-.435.563-.294.985-.748 1.266-1.361.285-.618.428-1.415.428-2.391 0-.967-.143-1.758-.428-2.371-.281-.614-.701-1.066-1.259-1.356-.558-.289-1.247-.434-2.065-.434h-1.764v8.348Zm11.042 2.537c-.422 0-.784-.149-1.086-.447a1.492 1.492 0 0 1-.448-1.087c0-.417.149-.775.448-1.073a1.488 1.488 0 0 1 1.086-.448c.409 0 .767.149 1.074.448.307.298.46.656.46 1.073 0 .282-.072.539-.217.774-.141.23-.326.415-.556.556-.23.136-.484.204-.761.204Zm-56.525 21.834v-13.091h7.9v1.407h-6.315v4.423h5.906v1.406h-5.906v4.449h6.417v1.406h-8.002Zm13.442.23a3.996 3.996 0 0 1-1.694-.351 2.911 2.911 0 0 1-1.208-1.029c-.298-.452-.447-.997-.447-1.637 0-.562.11-1.018.332-1.368.222-.353.518-.63.888-.831.371-.2.78-.349 1.228-.447.451-.102.905-.183 1.361-.243.597-.077 1.08-.134 1.451-.172.375-.043.648-.113.818-.211.175-.098.262-.269.262-.512v-.051c0-.631-.172-1.121-.517-1.47-.341-.349-.859-.524-1.554-.524-.72 0-1.284.157-1.693.473-.41.315-.697.652-.863 1.01l-1.432-.512c.255-.596.596-1.061 1.023-1.393.43-.337.899-.571 1.406-.703a5.808 5.808 0 0 1 1.508-.205c.316 0 .678.039 1.087.115.413.073.812.224 1.195.454.388.23.71.578.965 1.042.256.465.384 1.087.384 1.867v6.468h-1.509v-1.329h-.076a2.671 2.671 0 0 1-.512.684c-.238.243-.556.449-.952.62-.396.17-.88.255-1.451.255Zm.23-1.355c.597 0 1.1-.117 1.509-.351a2.4 2.4 0 0 0 .933-.908c.213-.371.319-.761.319-1.17v-1.38c-.063.076-.204.147-.421.211a7.363 7.363 0 0 1-.742.159c-.277.043-.547.081-.812.115-.26.03-.471.056-.632.077a5.748 5.748 0 0 0-1.1.249c-.337.111-.609.28-.818.505-.205.222-.307.525-.307.908 0 .524.194.921.582 1.189.392.264.888.396 1.489.396Zm7.023 1.125v-9.818h1.458v1.483h.102c.179-.486.503-.88.972-1.182a2.854 2.854 0 0 1 1.585-.454c.111 0 .249.002.415.006.167.004.292.011.377.019v1.534a4.67 4.67 0 0 0-.351-.057 3.445 3.445 0 0 0-.569-.045c-.477 0-.903.1-1.278.301a2.267 2.267 0 0 0-.883.818 2.203 2.203 0 0 0-.319 1.182v6.213h-1.509Zm11.583-9.818v1.279h-5.088v-1.279h5.088Zm-3.605-2.352h1.508v9.358c0 .426.062.746.186.959a.955.955 0 0 0 .485.421c.201.069.412.103.633.103.166 0 .303-.009.409-.026l.256-.051.307 1.355a2.95 2.95 0 0 1-.429.115 3.122 3.122 0 0 1-.696.064c-.426 0-.844-.091-1.253-.275a2.482 2.482 0 0 1-1.01-.837c-.264-.375-.396-.848-.396-1.419v-9.767Zm7.593 6.264v5.906h-1.508v-13.091h1.508v4.807h.128c.23-.507.576-.91 1.036-1.208.464-.302 1.082-.454 1.853-.454.669 0 1.255.135 1.758.403.503.264.893.671 1.17 1.221.281.545.422 1.24.422 2.084v6.238h-1.509v-6.136c0-.78-.202-1.383-.607-1.809-.4-.43-.957-.646-1.668-.646-.495 0-.938.105-1.33.314a2.28 2.28 0 0 0-.92.914c-.222.4-.333.886-.333 1.457ZM79.624 759.499v-1.995l4.66-4.314c.396-.384.728-.729.997-1.036.272-.307.48-.607.62-.901.14-.298.21-.62.21-.965 0-.384-.087-.714-.261-.991a1.723 1.723 0 0 0-.716-.646 2.249 2.249 0 0 0-1.03-.23c-.4 0-.75.081-1.048.243a1.672 1.672 0 0 0-.69.697c-.162.302-.243.662-.243 1.08h-2.627c0-.857.194-1.6.582-2.231a3.895 3.895 0 0 1 1.63-1.464c.698-.345 1.504-.517 2.416-.517.937 0 1.753.166 2.448.498.699.328 1.242.784 1.63 1.368.388.584.582 1.253.582 2.007 0 .495-.099.982-.294 1.464-.192.482-.535 1.016-1.03 1.604-.494.584-1.19 1.285-2.09 2.103l-1.911 1.873v.09h5.497v2.263h-9.332Zm16.47.287c-1.099-.004-2.045-.275-2.838-.812-.788-.537-1.395-1.314-1.821-2.333-.422-1.018-.631-2.243-.627-3.675 0-1.428.211-2.644.633-3.65.426-1.006 1.033-1.771 1.822-2.295.792-.528 1.736-.792 2.831-.792 1.096 0 2.037.264 2.826.792.792.529 1.402 1.296 1.828 2.301.426 1.002.637 2.216.633 3.644 0 1.436-.213 2.663-.64 3.682-.421 1.018-1.027 1.796-1.815 2.333-.788.537-1.732.805-2.832.805Zm0-2.295c.75 0 1.35-.377 1.797-1.131.447-.754.669-1.886.664-3.394 0-.993-.102-1.82-.306-2.48-.2-.661-.486-1.157-.857-1.49a1.87 1.87 0 0 0-1.298-.498c-.745 0-1.342.373-1.79 1.118-.447.746-.673 1.863-.677 3.35 0 1.006.1 1.845.3 2.518.205.669.493 1.172.863 1.509.371.332.806.498 1.304.498Zm12.955-11.083v13.091h-2.767v-10.464h-.077l-2.998 1.879v-2.455l3.241-2.051h2.601Zm3.112 13.091v-1.995l4.66-4.314c.396-.384.728-.729.997-1.036.272-.307.479-.607.62-.901.14-.298.211-.62.211-.965 0-.384-.088-.714-.262-.991a1.727 1.727 0 0 0-.716-.646 2.251 2.251 0 0 0-1.029-.23c-.401 0-.75.081-1.049.243a1.674 1.674 0 0 0-.69.697c-.162.302-.243.662-.243 1.08h-2.627c0-.857.194-1.6.582-2.231a3.89 3.89 0 0 1 1.63-1.464c.698-.345 1.504-.517 2.416-.517.937 0 1.753.166 2.448.498.699.328 1.242.784 1.63 1.368.388.584.582 1.253.582 2.007 0 .495-.098.982-.294 1.464-.192.482-.535 1.016-1.03 1.604-.494.584-1.191 1.285-2.09 2.103l-1.911 1.873v.09h5.497v2.263h-9.332Zm-27.54 22v-13.091h1.586v11.684h6.085v1.407h-7.67Zm13.91.204c-.887 0-1.665-.211-2.334-.633-.664-.422-1.184-1.012-1.56-1.77-.37-.759-.555-1.645-.555-2.659 0-1.023.185-1.916.556-2.679.375-.762.895-1.355 1.56-1.777.669-.422 1.446-.632 2.333-.632.886 0 1.662.21 2.326.632.669.422 1.189 1.015 1.56 1.777.375.763.562 1.656.562 2.679 0 1.014-.187 1.9-.562 2.659-.371.758-.891 1.348-1.56 1.77-.664.422-1.44.633-2.326.633Zm0-1.355c.673 0 1.227-.173 1.662-.518.434-.345.756-.799.965-1.361a5.21 5.21 0 0 0 .313-1.828c0-.657-.104-1.268-.313-1.835a3.094 3.094 0 0 0-.965-1.374c-.435-.35-.99-.524-1.662-.524-.674 0-1.228.174-1.662.524a3.088 3.088 0 0 0-.966 1.374 5.267 5.267 0 0 0-.313 1.835c0 .656.105 1.265.313 1.828a3.06 3.06 0 0 0 .966 1.361c.434.345.988.518 1.662.518Zm8.157-2.429-.025-1.866h.307l4.295-4.373h1.867l-4.577 4.628h-.128l-1.739 1.611Zm-1.406 3.58v-13.091h1.509v13.091h-1.509Zm6.239 0-3.835-4.858 1.073-1.049 4.679 5.907h-1.917Zm3.552 0v-9.819h1.509v9.819h-1.509Zm.767-11.455c-.294 0-.547-.1-.76-.3a.967.967 0 0 1-.314-.723c0-.281.105-.522.314-.722.213-.2.466-.3.76-.3s.546.1.754.3c.214.2.32.441.32.722a.955.955 0 0 1-.32.723c-.208.2-.46.3-.754.3Zm-99.327 26.909c0-1.611.21-3.092.627-4.442a13.85 13.85 0 0 1 1.802-3.74h1.33a8.236 8.236 0 0 0-.863 1.56 15.237 15.237 0 0 0-.697 2.026 19.2 19.2 0 0 0-.473 2.276c-.11.784-.166 1.557-.166 2.32 0 1.014.098 2.043.294 3.087.196 1.044.46 2.014.793 2.909.332.895.703 1.623 1.112 2.186h-1.33a13.88 13.88 0 0 1-1.802-3.733c-.418-1.355-.627-2.838-.627-4.449Zm6.19 6.546v-13.091h4.576c.912 0 1.664.157 2.257.473.592.311 1.033.73 1.323 1.259.29.524.434 1.106.434 1.745 0 .562-.1 1.027-.3 1.393a2.334 2.334 0 0 1-.78.87 3.57 3.57 0 0 1-1.042.473v.128c.4.025.804.166 1.208.421.405.256.744.623 1.017 1.1.272.477.409 1.061.409 1.751 0 .657-.15 1.247-.448 1.771-.298.524-.769.939-1.412 1.246-.644.307-1.481.461-2.512.461h-4.73Zm1.585-1.407h3.145c1.035 0 1.77-.2 2.205-.601.439-.404.658-.894.658-1.47 0-.443-.113-.852-.338-1.227a2.455 2.455 0 0 0-.966-.908c-.417-.23-.912-.345-1.483-.345h-3.221v4.551Zm0-5.932h2.94c.477 0 .908-.093 1.291-.281.388-.187.695-.451.92-.792a2.1 2.1 0 0 0 .346-1.202c0-.575-.2-1.063-.6-1.464-.401-.405-1.036-.607-1.906-.607h-2.991v4.346Zm12.806 7.569a3.996 3.996 0 0 1-1.694-.352 2.913 2.913 0 0 1-1.208-1.029c-.298-.452-.447-.997-.447-1.636 0-.563.11-1.019.332-1.368.222-.354.518-.631.889-.831.37-.201.78-.35 1.227-.448a15.16 15.16 0 0 1 1.361-.243c.597-.076 1.08-.134 1.451-.172.375-.043.648-.113.819-.211.174-.098.262-.269.262-.511v-.052c0-.63-.173-1.12-.518-1.47-.341-.349-.859-.524-1.553-.524-.72 0-1.285.158-1.694.473-.41.315-.697.652-.863 1.01l-1.432-.511c.256-.597.597-1.061 1.023-1.394.43-.336.899-.571 1.406-.703a5.853 5.853 0 0 1 1.509-.204c.315 0 .677.038 1.086.115a3.47 3.47 0 0 1 1.196.453c.387.231.709.578.965 1.042.255.465.383 1.087.383 1.867v6.469h-1.508v-1.33h-.077a2.658 2.658 0 0 1-.511.684c-.239.243-.556.45-.953.62-.396.17-.88.256-1.45.256Zm.23-1.355c.597 0 1.1-.118 1.509-.352a2.39 2.39 0 0 0 .933-.908c.213-.37.32-.76.32-1.169v-1.381c-.064.077-.205.147-.422.211-.213.059-.46.113-.742.16-.277.042-.547.081-.811.115-.26.03-.471.055-.633.076a5.833 5.833 0 0 0-1.1.25c-.336.11-.61.279-.818.505-.204.221-.307.524-.307.907 0 .524.194.921.582 1.189.392.264.889.397 1.49.397Zm11.294-8.694v1.279h-5.089v-1.279h5.088Zm-3.606-2.352h1.509v9.358c0 .426.062.746.185.959.128.209.29.349.486.422.2.068.411.102.633.102.166 0 .302-.009.409-.026l.256-.051.306 1.355a2.94 2.94 0 0 1-.428.115 3.129 3.129 0 0 1-.697.064 3.04 3.04 0 0 1-1.252-.274 2.496 2.496 0 0 1-1.01-.838c-.264-.375-.397-.848-.397-1.419v-9.767Zm10.145 2.352v1.279h-5.088v-1.279h5.087Zm-3.606-2.352h1.509v9.358c0 .426.062.746.185.959.128.209.29.349.486.422.2.068.411.102.633.102.166 0 .303-.009.409-.026l.256-.051.306 1.355a2.934 2.934 0 0 1-.428.115 3.13 3.13 0 0 1-.696.064c-.427 0-.844-.091-1.253-.274a2.497 2.497 0 0 1-1.01-.838c-.264-.375-.397-.848-.397-1.419v-9.767Zm7.594-.92v13.091h-1.508v-13.091h1.508Zm6.88 13.295c-.946 0-1.762-.209-2.449-.626a4.204 4.204 0 0 1-1.578-1.765c-.367-.758-.55-1.64-.55-2.646s.183-1.892.55-2.659c.37-.771.886-1.372 1.547-1.802.664-.435 1.44-.652 2.326-.652a4.66 4.66 0 0 1 1.515.255c.499.171.953.448 1.362.831.409.379.735.882.978 1.509.243.626.364 1.397.364 2.314v.639h-7.568v-1.304h6.034c0-.554-.11-1.048-.332-1.483a2.5 2.5 0 0 0-.934-1.029c-.4-.252-.873-.377-1.419-.377-.6 0-1.12.149-1.56.447a2.945 2.945 0 0 0-1.003 1.151 3.38 3.38 0 0 0-.352 1.521v.869c0 .742.128 1.37.384 1.886.26.511.62.901 1.08 1.17.46.264.995.396 1.605.396a3.26 3.26 0 0 0 1.073-.166c.324-.115.603-.286.838-.512a2.32 2.32 0 0 0 .543-.856l1.458.409a3.235 3.235 0 0 1-.774 1.304c-.362.371-.81.66-1.342.869-.533.205-1.132.307-1.796.307Zm15.41 0c-.886 0-1.663-.211-2.332-.633-.665-.422-1.185-1.012-1.56-1.77-.37-.759-.556-1.645-.556-2.659 0-1.023.185-1.916.556-2.679.375-.762.895-1.355 1.56-1.777.669-.422 1.447-.632 2.333-.632.886 0 1.662.21 2.327.632.669.422 1.188 1.015 1.56 1.777.374.763.562 1.656.562 2.679 0 1.014-.188 1.9-.563 2.659-.37.758-.89 1.348-1.56 1.77-.664.422-1.44.633-2.326.633Zm0-1.355c.674 0 1.228-.173 1.663-.518.434-.345.756-.799.965-1.361a5.215 5.215 0 0 0 .313-1.828c0-.657-.104-1.268-.313-1.835a3.088 3.088 0 0 0-.965-1.374c-.435-.35-.989-.524-1.662-.524-.673 0-1.227.174-1.662.524a3.088 3.088 0 0 0-.965 1.374 5.267 5.267 0 0 0-.313 1.835c0 .656.104 1.265.313 1.828.209.562.53 1.016.965 1.361.435.345.989.518 1.662.518Zm11.125-8.668v1.279h-5.293v-1.279h5.293Zm-3.708 9.819v-11.174c0-.562.132-1.031.397-1.406a2.46 2.46 0 0 1 1.029-.844 3.261 3.261 0 0 1 1.336-.281c.37 0 .673.03.907.089.235.06.41.116.524.167l-.434 1.304a6.413 6.413 0 0 0-.32-.096 1.91 1.91 0 0 0-.524-.058c-.499 0-.859.126-1.08.377-.218.252-.326.62-.326 1.106v10.816h-1.509Zm21.47-13.091v13.091h-1.535l-7.133-10.279h-.128v10.279h-1.585v-13.091h1.534l7.159 10.304h.128v-10.304h1.56Zm7.083 13.295c-.946 0-1.762-.209-2.448-.626a4.21 4.21 0 0 1-1.579-1.765c-.366-.758-.549-1.64-.549-2.646s.183-1.892.549-2.659c.371-.771.887-1.372 1.547-1.802.665-.435 1.441-.652 2.327-.652a4.67 4.67 0 0 1 1.515.255c.499.171.952.448 1.361.831.41.379.736.882.978 1.509.243.626.365 1.397.365 2.314v.639h-7.568v-1.304h6.034c0-.554-.111-1.048-.333-1.483a2.496 2.496 0 0 0-.933-1.029c-.4-.252-.873-.377-1.419-.377-.601 0-1.121.149-1.56.447a2.945 2.945 0 0 0-1.003 1.151c-.235.473-.352.98-.352 1.521v.869c0 .742.128 1.37.384 1.886.26.511.62.901 1.08 1.17.46.264.995.396 1.604.396.397 0 .755-.055 1.074-.166.324-.115.603-.286.838-.512.234-.23.415-.515.543-.856l1.457.409a3.23 3.23 0 0 1-.773 1.304c-.362.371-.81.66-1.342.869-.533.205-1.132.307-1.797.307Zm8.585-.204-2.991-9.819h1.585l2.122 7.517h.102l2.097-7.517h1.611l2.071 7.492h.102l2.122-7.492h1.585l-2.991 9.819h-1.483l-2.148-7.543h-.153l-2.148 7.543h-1.483Zm16.543-13.091h1.815l3.631 6.11h.153l3.631-6.11h1.815l-4.73 7.696v5.395h-1.585v-5.395l-4.73-7.696Zm15.491 13.295c-.887 0-1.664-.211-2.333-.633-.665-.422-1.185-1.012-1.56-1.77-.371-.759-.556-1.645-.556-2.659 0-1.023.185-1.916.556-2.679.375-.762.895-1.355 1.56-1.777.669-.422 1.446-.632 2.333-.632.886 0 1.662.21 2.326.632.669.422 1.189 1.015 1.56 1.777.375.763.563 1.656.563 2.679 0 1.014-.188 1.9-.563 2.659-.371.758-.891 1.348-1.56 1.77-.664.422-1.44.633-2.326.633Zm0-1.355c.673 0 1.227-.173 1.662-.518.434-.345.756-.799.965-1.361a5.21 5.21 0 0 0 .313-1.828c0-.657-.104-1.268-.313-1.835a3.094 3.094 0 0 0-.965-1.374c-.435-.35-.989-.524-1.662-.524-.674 0-1.228.174-1.662.524a3.078 3.078 0 0 0-.965 1.374 5.262 5.262 0 0 0-.314 1.835c0 .656.105 1.265.314 1.828.208.562.53 1.016.965 1.361.434.345.988.518 1.662.518Zm6.751 1.151v-9.819h1.458v1.483h.102c.179-.485.503-.88.972-1.182a2.854 2.854 0 0 1 1.585-.454c.111 0 .249.002.415.006.166.005.292.011.377.02v1.534a4.477 4.477 0 0 0-.351-.058 3.445 3.445 0 0 0-.569-.045c-.477 0-.903.1-1.278.301a2.274 2.274 0 0 0-.883.818 2.203 2.203 0 0 0-.319 1.182v6.214h-1.509Zm8.104-3.58-.026-1.866h.307l4.296-4.373h1.866l-4.577 4.628h-.128l-1.738 1.611Zm-1.406 3.58v-13.091h1.508v13.091h-1.508Zm6.238 0-3.835-4.858 1.074-1.049 4.679 5.907h-1.918Zm6.774-5.523c0 1.611-.211 3.094-.633 4.449a13.716 13.716 0 0 1-1.796 3.733h-1.329a7.99 7.99 0 0 0 .856-1.56c.269-.614.503-1.287.703-2.02.201-.737.356-1.498.467-2.282.115-.788.173-1.562.173-2.32 0-1.014-.098-2.044-.294-3.088a17.892 17.892 0 0 0-.793-2.908c-.332-.895-.703-1.624-1.112-2.186h1.329a13.696 13.696 0 0 1 1.796 3.739c.422 1.351.633 2.832.633 4.443ZM91.342 1059.5v-2l4.66-4.31c.396-.38.729-.73.997-1.04.273-.3.48-.6.62-.9.14-.3.211-.62.211-.96 0-.39-.087-.72-.262-.99-.174-.28-.413-.5-.716-.65a2.288 2.288 0 0 0-1.029-.23c-.4 0-.75.08-1.048.24-.298.17-.529.4-.69.7-.162.3-.243.66-.243 1.08h-2.627c0-.86.193-1.6.581-2.23.388-.63.931-1.12 1.63-1.46.699-.35 1.504-.52 2.416-.52.938 0 1.754.16 2.448.5.7.33 1.243.78 1.63 1.37.388.58.582 1.25.582 2 0 .5-.098.98-.294 1.47-.192.48-.535 1.01-1.029 1.6-.494.58-1.191 1.29-2.09 2.1l-1.911 1.88v.09h5.497v2.26h-9.333Zm16.471.29c-1.099-.01-2.045-.28-2.838-.82-.788-.53-1.396-1.31-1.822-2.33-.422-1.02-.63-2.24-.626-3.67 0-1.43.211-2.65.633-3.65.426-1.01 1.033-1.77 1.821-2.3.793-.53 1.737-.79 2.832-.79 1.095 0 2.037.26 2.825.79.793.53 1.402 1.3 1.828 2.3.427 1 .638 2.22.633 3.65 0 1.43-.213 2.66-.639 3.68-.422 1.02-1.027 1.79-1.815 2.33-.789.54-1.733.81-2.832.81Zm0-2.3c.75 0 1.349-.38 1.796-1.13.448-.75.669-1.89.665-3.39 0-1-.102-1.82-.307-2.48-.2-.66-.486-1.16-.856-1.49-.367-.34-.799-.5-1.298-.5-.746 0-1.342.37-1.79 1.12-.447.74-.673 1.86-.677 3.35 0 1 .1 1.84.3 2.51.205.67.492 1.18.863 1.51.371.34.805.5 1.304.5Zm12.955-11.08v13.09H118v-10.47h-.076l-2.998 1.88v-2.45l3.241-2.05h2.601Zm7.995 13.27c-.984 0-1.86-.16-2.627-.48-.763-.33-1.362-.77-1.796-1.33a2.982 2.982 0 0 1-.652-1.89c0-.55.123-1.05.37-1.51.252-.46.593-.84 1.023-1.14.431-.31.912-.5 1.445-.59v-.09a2.863 2.863 0 0 1-1.701-1.01 2.929 2.929 0 0 1-.652-1.89c0-.68.199-1.28.595-1.81.396-.53.94-.95 1.63-1.25.695-.31 1.483-.46 2.365-.46.882 0 1.668.15 2.359.46.694.31 1.24.73 1.636 1.26.396.53.597 1.13.601 1.8a2.934 2.934 0 0 1-.665 1.89c-.439.53-1.001.87-1.687 1.01v.09c.524.09.999.28 1.425.59.43.3.771.68 1.023 1.14.255.46.385.96.39 1.51-.005.7-.224 1.34-.659 1.89-.434.56-1.035 1-1.802 1.33-.763.32-1.637.48-2.621.48Zm0-2.04c.439 0 .822-.07 1.151-.23.328-.16.583-.39.767-.67.187-.28.281-.61.281-.98 0-.38-.096-.71-.288-1a1.89 1.89 0 0 0-.78-.69c-.328-.18-.705-.26-1.131-.26-.422 0-.799.08-1.131.26a1.88 1.88 0 0 0-.787.69c-.187.29-.281.62-.281 1 0 .37.092.7.275.98.183.28.441.51.773.67.333.16.716.23 1.151.23Zm0-5.84c.366 0 .692-.08.978-.23.285-.15.509-.35.671-.62.162-.26.243-.57.243-.91a1.61 1.61 0 0 0-.908-1.5 2.06 2.06 0 0 0-.984-.23c-.371 0-.699.08-.984.23-.286.14-.51.34-.672.6-.157.26-.236.56-.236.9 0 .34.081.65.243.91.162.27.385.47.671.62.285.15.611.23.978.23Zm-32.142 29.7v-13.09h1.586v11.68h6.085v1.41h-7.67Zm13.909.2c-.886 0-1.664-.21-2.333-.63-.664-.42-1.184-1.01-1.559-1.77-.371-.76-.556-1.65-.556-2.66 0-1.02.185-1.91.556-2.68.375-.76.895-1.35 1.559-1.77.669-.43 1.447-.64 2.333-.64.887 0 1.662.21 2.327.64.669.42 1.189 1.01 1.56 1.77.375.77.562 1.66.562 2.68 0 1.01-.187 1.9-.562 2.66-.371.76-.891 1.35-1.56 1.77-.665.42-1.44.63-2.327.63Zm0-1.35c.674 0 1.228-.17 1.662-.52.435-.34.757-.8.966-1.36.208-.56.313-1.17.313-1.83 0-.66-.105-1.27-.313-1.83a3.095 3.095 0 0 0-.966-1.38c-.434-.35-.988-.52-1.662-.52-.673 0-1.227.17-1.661.52-.435.35-.757.81-.966 1.38a5.216 5.216 0 0 0-.313 1.83c0 .66.105 1.27.313 1.83.209.56.531 1.02.966 1.36.434.35.988.52 1.661.52Zm8.158-2.43-.025-1.87h.307l4.295-4.37h1.866l-4.576 4.63h-.128l-1.739 1.61Zm-1.406 3.58v-13.09h1.509v13.09h-1.509Zm6.239 0-3.836-4.86 1.074-1.05 4.679 5.91h-1.917Zm3.552 0v-9.82h1.509v9.82h-1.509Zm.767-11.46c-.294 0-.547-.1-.761-.3a.964.964 0 0 1-.313-.72c0-.28.105-.52.313-.72.214-.2.467-.3.761-.3s.546.1.754.3c.213.2.32.44.32.72 0 .28-.107.52-.32.72-.208.2-.46.3-.754.3Zm-79.404 21.77v-1.4h9.818v1.4h-4.117v11.69h-1.585v-11.69h-4.116Zm13.568 5.78v5.91h-1.508v-13.09h1.508v4.8h.128c.23-.5.576-.91 1.036-1.2.464-.31 1.082-.46 1.854-.46.668 0 1.254.14 1.757.41.503.26.893.67 1.17 1.22.281.54.422 1.24.422 2.08v6.24h-1.509v-6.14c0-.78-.202-1.38-.607-1.81-.4-.43-.956-.64-1.668-.64-.495 0-.938.1-1.33.31a2.29 2.29 0 0 0-.92.91c-.222.41-.333.89-.333 1.46Zm13.115 6.11c-.886 0-1.664-.21-2.333-.63-.665-.42-1.184-1.01-1.56-1.77-.37-.76-.555-1.65-.555-2.66 0-1.02.185-1.91.556-2.68.375-.76.894-1.35 1.56-1.77.668-.43 1.446-.64 2.332-.64.887 0 1.662.21 2.327.64.67.42 1.189 1.01 1.56 1.77.375.77.562 1.66.562 2.68 0 1.01-.187 1.9-.562 2.66-.371.76-.89 1.35-1.56 1.77-.665.42-1.44.63-2.327.63Zm0-1.35c.674 0 1.228-.17 1.662-.52.435-.34.757-.8.965-1.36.21-.56.314-1.17.314-1.83 0-.66-.105-1.27-.314-1.83a3.095 3.095 0 0 0-.965-1.38c-.434-.35-.988-.52-1.662-.52-.673 0-1.227.17-1.662.52-.434.35-.756.81-.965 1.38a5.198 5.198 0 0 0-.313 1.83c0 .66.104 1.27.313 1.83.209.56.53 1.02.965 1.36.435.35.989.52 1.662.52Zm6.752 1.15v-9.82h1.457v1.48h.103c.179-.48.502-.88.971-1.18.469-.3.997-.45 1.585-.45h.416c.166.01.292.01.377.02v1.54a1.769 1.769 0 0 0-.352-.06 3.427 3.427 0 0 0-.568-.05c-.478 0-.904.1-1.279.3-.37.2-.665.47-.882.82-.213.35-.32.74-.32 1.19v6.21h-1.508Zm7.797.1c-.316 0-.586-.11-.812-.34a1.087 1.087 0 0 1-.339-.81c0-.32.113-.59.339-.81.226-.23.496-.34.812-.34.315 0 .586.11.811.34.226.22.34.49.34.81 0 .21-.054.4-.16.58-.103.17-.241.31-.416.42-.17.1-.362.15-.575.15Zm0-7.29c-.316 0-.586-.11-.812-.33-.226-.23-.339-.5-.339-.82 0-.31.113-.58.339-.81.226-.22.496-.34.812-.34.315 0 .586.12.811.34.226.23.34.5.34.81 0 .21-.054.4-.16.58-.103.17-.241.31-.416.42-.17.1-.362.15-.575.15Zm9.124 7.19v-13.09h4.424c1.022 0 1.862.17 2.518.52.656.35 1.142.82 1.457 1.43.316.6.473 1.29.473 2.06s-.157 1.46-.473 2.05c-.315.6-.799 1.07-1.451 1.41-.652.34-1.485.5-2.499.5h-3.58v-1.43h3.529c.699 0 1.261-.1 1.687-.3.431-.21.742-.5.934-.87.196-.38.294-.83.294-1.36 0-.52-.098-.98-.294-1.37-.196-.39-.51-.7-.94-.91-.43-.22-.999-.33-1.707-.33h-2.787v11.69h-1.585Zm6.162-5.88 3.222 5.88h-1.841l-3.171-5.88h1.79Zm8.037 6.11c-.623 0-1.187-.12-1.694-.35-.507-.24-.91-.58-1.208-1.03-.299-.45-.448-1-.448-1.64 0-.56.111-1.02.333-1.37.221-.35.517-.63.888-.83.371-.2.78-.35 1.227-.44.452-.11.906-.19 1.362-.25.596-.07 1.08-.13 1.451-.17.375-.04.648-.11.818-.21.175-.1.262-.27.262-.51v-.05c0-.63-.173-1.12-.518-1.47-.341-.35-.858-.53-1.553-.53-.72 0-1.285.16-1.694.48-.409.31-.697.65-.863 1.01l-1.432-.52c.256-.59.597-1.06 1.023-1.39.431-.34.899-.57 1.406-.7a5.705 5.705 0 0 1 1.509-.21c.315 0 .677.04 1.087.12.413.07.811.22 1.195.45.388.23.709.58.965 1.04.256.47.384 1.09.384 1.87v6.47h-1.509v-1.33h-.077a2.63 2.63 0 0 1-.511.68c-.239.25-.556.45-.952.62-.397.17-.88.26-1.451.26Zm.23-1.36c.596 0 1.099-.11 1.508-.35a2.3 2.3 0 0 0 .933-.91 2.3 2.3 0 0 0 .32-1.17v-1.38c-.064.08-.204.15-.422.21-.213.06-.46.12-.741.16-.277.05-.548.09-.812.12-.26.03-.471.06-.633.08-.392.05-.758.13-1.099.25-.337.11-.61.27-.819.5-.204.22-.306.52-.306.91 0 .52.194.92.581 1.19.392.26.889.39 1.49.39Zm10.986 5.01c-.729 0-1.355-.09-1.879-.28-.524-.18-.961-.42-1.311-.73-.345-.29-.62-.61-.824-.95l1.202-.85c.136.18.308.39.517.62.209.23.495.43.857.6.366.18.846.27 1.438.27.793 0 1.447-.2 1.962-.58.516-.38.774-.98.774-1.8v-2h-.128c-.111.18-.268.4-.473.67-.2.26-.49.49-.869.69-.375.2-.882.31-1.522.31-.792 0-1.504-.19-2.135-.57-.626-.37-1.122-.92-1.489-1.63-.362-.72-.543-1.59-.543-2.61 0-1.01.177-1.88.53-2.63.354-.75.846-1.33 1.477-1.74.631-.41 1.359-.62 2.186-.62.639 0 1.146.11 1.521.32.379.21.669.45.87.72.204.26.362.48.473.65h.153v-1.56h1.457v10.1c0 .84-.191 1.53-.575 2.06-.379.53-.891.92-1.534 1.17-.639.25-1.351.37-2.135.37Zm-.051-5.39c.605 0 1.116-.14 1.534-.42.418-.27.735-.67.952-1.19.218-.52.326-1.14.326-1.87 0-.7-.106-1.33-.319-1.87-.213-.54-.529-.97-.946-1.27-.418-.31-.933-.46-1.547-.46-.639 0-1.172.16-1.598.48-.422.33-.739.76-.953 1.31a5.026 5.026 0 0 0-.313 1.81c0 .68.107 1.29.32 1.81.217.52.537.93.959 1.23.426.29.954.44 1.585.44Zm8.565-4.4v5.91h-1.508v-9.82h1.457v1.53h.128c.23-.49.579-.89 1.048-1.2.469-.3 1.074-.46 1.816-.46.664 0 1.246.14 1.745.41.498.27.886.68 1.163 1.23.277.54.415 1.23.415 2.07v6.24h-1.508v-6.14c0-.77-.2-1.37-.601-1.8-.401-.44-.95-.65-1.649-.65-.482 0-.912.1-1.291.31-.375.21-.671.51-.889.91-.217.41-.326.89-.326 1.46Zm11.91 6.14c-.622 0-1.187-.12-1.694-.35a2.905 2.905 0 0 1-1.208-1.03c-.298-.45-.447-1-.447-1.64 0-.56.111-1.02.332-1.37.222-.35.518-.63.889-.83.37-.2.779-.35 1.227-.44a12.8 12.8 0 0 1 1.361-.25c.597-.07 1.081-.13 1.451-.17.375-.04.648-.11.819-.21.174-.1.262-.27.262-.51v-.05c0-.63-.173-1.12-.518-1.47-.341-.35-.859-.53-1.553-.53-.721 0-1.285.16-1.694.48-.409.31-.697.65-.863 1.01l-1.432-.52c.256-.59.597-1.06 1.023-1.39.43-.34.899-.57 1.406-.7a5.694 5.694 0 0 1 1.509-.21c.315 0 .677.04 1.086.12.414.07.812.22 1.195.45.388.23.71.58.966 1.04.255.47.383 1.09.383 1.87v6.47h-1.508v-1.33h-.077c-.102.21-.273.44-.511.68-.239.25-.556.45-.953.62-.396.17-.88.26-1.451.26Zm.23-1.36c.597 0 1.1-.11 1.509-.35.413-.23.724-.53.933-.91.213-.37.32-.76.32-1.17v-1.38c-.064.08-.205.15-.422.21-.213.06-.46.12-.742.16-.277.05-.547.09-.811.12-.26.03-.471.06-.633.08-.392.05-.759.13-1.1.25-.336.11-.609.27-.818.5-.204.22-.307.52-.307.91 0 .52.194.92.582 1.19.392.26.888.39 1.489.39Zm7.024 1.13v-9.82h1.457v1.48h.102c.179-.48.503-.88.972-1.18.469-.3.997-.45 1.585-.45h.416c.166.01.291.01.377.02v1.54a1.778 1.778 0 0 0-.352-.06 3.423 3.423 0 0 0-.569-.05c-.477 0-.903.1-1.278.3-.371.2-.665.47-.882.82-.213.35-.32.74-.32 1.19v6.21h-1.508Zm10.387.2c-.887 0-1.664-.21-2.333-.63-.665-.42-1.185-1.01-1.56-1.77-.371-.76-.556-1.65-.556-2.66 0-1.02.185-1.91.556-2.68.375-.76.895-1.35 1.56-1.77.669-.43 1.446-.64 2.333-.64.886 0 1.662.21 2.326.64.669.42 1.189 1.01 1.56 1.77.375.77.563 1.66.563 2.68 0 1.01-.188 1.9-.563 2.66-.371.76-.891 1.35-1.56 1.77-.664.42-1.44.63-2.326.63Zm0-1.35c.673 0 1.227-.17 1.662-.52.434-.34.756-.8.965-1.36.209-.56.313-1.17.313-1.83 0-.66-.104-1.27-.313-1.83a3.101 3.101 0 0 0-.965-1.38c-.435-.35-.989-.52-1.662-.52-.674 0-1.228.17-1.662.52-.435.35-.757.81-.965 1.38a5.194 5.194 0 0 0-.314 1.83c0 .66.105 1.27.314 1.83.208.56.53 1.02.965 1.36.434.35.988.52 1.662.52Zm8.158-2.43-.026-1.87h.307l4.295-4.37h1.867l-4.577 4.63h-.128l-1.738 1.61Zm-1.407 3.58v-13.09h1.509v13.09h-1.509Zm6.239 0-3.835-4.86 1.074-1.05 4.679 5.91h-1.918Zm89.362-263.001v-1.995l4.659-4.314a17.7 17.7 0 0 0 .998-1.036c.272-.307.479-.607.62-.901.14-.298.211-.62.211-.965 0-.384-.088-.714-.263-.991a1.719 1.719 0 0 0-.715-.646 2.253 2.253 0 0 0-1.03-.23c-.4 0-.75.081-1.048.243a1.674 1.674 0 0 0-.69.697c-.162.302-.243.662-.243 1.08h-2.627c0-.857.194-1.6.581-2.231a3.902 3.902 0 0 1 1.63-1.464c.699-.345 1.505-.517 2.417-.517.937 0 1.753.166 2.448.498.699.328 1.242.784 1.63 1.368.387.584.581 1.253.581 2.007 0 .495-.098.982-.294 1.464-.191.482-.534 1.016-1.029 1.604-.494.584-1.191 1.285-2.09 2.103l-1.911 1.873v.09h5.497v2.263h-9.332Zm16.47.287c-1.099-.004-2.045-.275-2.838-.812-.788-.537-1.395-1.314-1.822-2.333-.421-1.018-.63-2.243-.626-3.675 0-1.428.211-2.644.633-3.65.426-1.006 1.033-1.771 1.822-2.295.792-.528 1.736-.792 2.831-.792s2.037.264 2.826.792c.792.529 1.402 1.296 1.828 2.301.426 1.002.637 2.216.633 3.644 0 1.436-.214 2.663-.64 3.682-.422 1.018-1.027 1.796-1.815 2.333-.788.537-1.732.805-2.832.805Zm0-2.295c.75 0 1.349-.377 1.796-1.131.448-.754.669-1.886.665-3.394 0-.993-.102-1.82-.307-2.48-.2-.661-.485-1.157-.856-1.49a1.87 1.87 0 0 0-1.298-.498c-.745 0-1.342.373-1.789 1.118-.448.746-.674 1.863-.678 3.35 0 1.006.1 1.845.3 2.518.205.669.493 1.172.863 1.509.371.332.806.498 1.304.498Zm12.955-11.083v13.091h-2.767v-10.464h-.077l-2.998 1.879v-2.455l3.241-2.051h2.601Zm3.112 13.091v-1.995l4.659-4.314a17.7 17.7 0 0 0 .998-1.036c.272-.307.479-.607.62-.901.14-.298.211-.62.211-.965 0-.384-.088-.714-.262-.991a1.727 1.727 0 0 0-.716-.646 2.251 2.251 0 0 0-1.029-.23c-.401 0-.75.081-1.049.243a1.674 1.674 0 0 0-.69.697c-.162.302-.243.662-.243 1.08h-2.627c0-.857.194-1.6.582-2.231a3.893 3.893 0 0 1 1.629-1.464c.699-.345 1.505-.517 2.417-.517.937 0 1.753.166 2.448.498.699.328 1.242.784 1.63 1.368.388.584.581 1.253.581 2.007 0 .495-.098.982-.294 1.464-.191.482-.534 1.016-1.029 1.604-.494.584-1.191 1.285-2.09 2.103l-1.911 1.873v.09h5.497v2.263h-9.332Zm-39.668 22h-1.662l4.807-13.091h1.637l4.806 13.091h-1.662l-3.912-11.02h-.102l-3.912 11.02Zm.614-5.114h6.699v1.406h-6.699v-1.406Zm17.763-2.506-1.355.384a2.515 2.515 0 0 0-.377-.659 1.833 1.833 0 0 0-.665-.537c-.281-.14-.641-.211-1.08-.211-.601 0-1.101.139-1.502.416-.396.273-.594.62-.594 1.042 0 .375.136.671.409.888.272.218.698.399 1.278.544l1.457.358c.878.213 1.532.539 1.963.978.43.434.645.995.645 1.681 0 .562-.162 1.065-.485 1.508-.32.443-.767.793-1.343 1.049-.575.255-1.244.383-2.007.383-1.001 0-1.83-.217-2.486-.652-.657-.435-1.072-1.07-1.247-1.905l1.432-.358c.136.529.394.925.773 1.189.384.264.885.397 1.503.397.703 0 1.261-.15 1.674-.448.418-.302.627-.665.627-1.087 0-.34-.12-.626-.358-.856-.239-.234-.605-.409-1.1-.524l-1.636-.384c-.899-.213-1.56-.543-1.982-.991-.417-.451-.626-1.016-.626-1.693 0-.554.156-1.044.467-1.471.315-.426.743-.76 1.284-1.003.546-.243 1.164-.364 1.854-.364.972 0 1.734.213 2.288.639.559.426.955.988 1.189 1.687Zm6.413 11.506c-.728 0-1.355-.094-1.879-.281-.524-.184-.961-.426-1.31-.729a3.974 3.974 0 0 1-.825-.959l1.202-.844c.136.179.309.384.517.614.209.234.495.437.857.607.366.175.846.262 1.438.262.793 0 1.447-.191 1.963-.575.515-.383.773-.984.773-1.802v-1.995h-.128a8.022 8.022 0 0 1-.473.665c-.2.26-.49.492-.869.697-.375.2-.882.3-1.521.3-.793 0-1.505-.187-2.135-.562-.627-.375-1.123-.921-1.49-1.637-.362-.716-.543-1.585-.543-2.608 0-1.005.177-1.881.53-2.627.354-.75.846-1.329 1.477-1.738.631-.414 1.359-.62 2.186-.62.639 0 1.146.106 1.521.319.38.209.669.448.87.716.204.264.362.482.473.652h.153v-1.56h1.458v10.1c0 .844-.192 1.53-.576 2.058-.379.533-.89.923-1.534 1.17-.639.251-1.351.377-2.135.377Zm-.051-5.395c.605 0 1.117-.138 1.534-.415.418-.277.735-.676.953-1.196.217-.52.326-1.142.326-1.866 0-.708-.107-1.332-.32-1.873-.213-.541-.528-.965-.946-1.272-.418-.307-.933-.46-1.547-.46-.639 0-1.172.162-1.598.485-.422.324-.739.759-.952 1.304a5.042 5.042 0 0 0-.314 1.816c0 .682.107 1.285.32 1.809.217.52.537.929.959 1.227.426.294.954.441 1.585.441Zm9.946 1.739a3.996 3.996 0 0 1-1.694-.352 2.911 2.911 0 0 1-1.208-1.029c-.298-.452-.447-.997-.447-1.636 0-.563.11-1.019.332-1.368.222-.354.518-.631.889-.831.37-.201.779-.35 1.227-.448a15.16 15.16 0 0 1 1.361-.243 63.714 63.714 0 0 1 1.451-.172c.375-.043.648-.113.818-.211.175-.098.263-.269.263-.511v-.052c0-.63-.173-1.12-.518-1.47-.341-.349-.859-.524-1.553-.524-.721 0-1.285.158-1.694.473-.409.315-.697.652-.863 1.01l-1.432-.511c.256-.597.596-1.061 1.023-1.394.43-.336.899-.571 1.406-.703a5.849 5.849 0 0 1 1.508-.204c.316 0 .678.038 1.087.115.413.072.812.223 1.195.453.388.231.71.578.966 1.042.255.465.383 1.087.383 1.867v6.469h-1.508v-1.33h-.077c-.102.213-.273.441-.512.684-.238.243-.556.45-.952.62-.396.17-.88.256-1.451.256Zm.23-1.355c.597 0 1.1-.118 1.509-.352.413-.234.724-.537.933-.908.213-.37.32-.76.32-1.169v-1.381c-.064.077-.205.147-.422.211a7.344 7.344 0 0 1-.742.16c-.277.042-.547.081-.812.115-.26.03-.47.055-.632.076a5.842 5.842 0 0 0-1.1.25 1.89 1.89 0 0 0-.818.505c-.205.221-.307.524-.307.907 0 .524.194.921.582 1.189.392.264.888.397 1.489.397Zm7.023 1.125v-9.819h1.458v1.483h.102c.179-.485.503-.88.972-1.182a2.854 2.854 0 0 1 1.585-.454c.111 0 .249.002.415.006.167.005.292.011.378.02v1.534a4.628 4.628 0 0 0-.352-.058 3.445 3.445 0 0 0-.569-.045c-.477 0-.903.1-1.278.301a2.264 2.264 0 0 0-.882.818c-.213.345-.32.739-.32 1.182v6.214h-1.509Zm10.106.204c-.818 0-1.54-.207-2.167-.62-.626-.418-1.116-1.006-1.47-1.764-.353-.763-.53-1.664-.53-2.704 0-1.031.177-1.926.53-2.685.354-.758.846-1.344 1.477-1.757.63-.414 1.359-.62 2.186-.62.639 0 1.144.106 1.515.319.375.209.66.448.856.716.201.264.356.482.467.652h.128v-4.832h1.508v13.091h-1.457v-1.509h-.179a9.992 9.992 0 0 1-.473.678c-.205.268-.497.509-.876.722-.379.209-.884.313-1.515.313Zm.205-1.355c.605 0 1.116-.158 1.534-.473.418-.32.735-.761.952-1.323.218-.567.326-1.221.326-1.963 0-.733-.106-1.374-.319-1.924-.213-.554-.529-.984-.946-1.291-.418-.311-.934-.466-1.547-.466-.639 0-1.172.164-1.598.492-.422.324-.74.765-.953 1.323-.208.554-.313 1.176-.313 1.866 0 .699.107 1.334.32 1.905.217.567.537 1.019.959 1.355.426.333.954.499 1.585.499Zm-78.223 16.605c0-1.611.209-3.092.627-4.442a13.82 13.82 0 0 1 1.802-3.74h1.33a8.203 8.203 0 0 0-.863 1.56 15.222 15.222 0 0 0-.697 2.026 19.26 19.26 0 0 0-.473 2.276 16.53 16.53 0 0 0-.166 2.32c0 1.014.098 2.043.294 3.087.196 1.044.46 2.014.792 2.909.333.895.704 1.623 1.113 2.186h-1.33a13.849 13.849 0 0 1-1.802-3.733c-.418-1.355-.627-2.838-.627-4.449Zm17.235 0c0 1.381-.25 2.574-.748 3.58-.499 1.005-1.183 1.781-2.052 2.326-.869.546-1.862.819-2.979.819-1.116 0-2.109-.273-2.978-.819-.87-.545-1.554-1.321-2.052-2.326-.499-1.006-.748-2.199-.748-3.58 0-1.381.249-2.574.748-3.579.498-1.006 1.182-1.782 2.052-2.327.869-.546 1.862-.818 2.978-.818 1.117 0 2.11.272 2.979.818.869.545 1.553 1.321 2.052 2.327.498 1.005.748 2.198.748 3.579Zm-1.534 0c0-1.133-.19-2.09-.569-2.87-.375-.78-.884-1.37-1.528-1.771-.639-.4-1.355-.6-2.148-.6a4 4 0 0 0-2.154.6c-.639.401-1.148.991-1.527 1.771-.375.78-.563 1.737-.563 2.87 0 1.134.188 2.09.563 2.87.379.78.888 1.37 1.527 1.771a4 4 0 0 0 2.154.601c.793 0 1.509-.201 2.148-.601.644-.401 1.153-.991 1.528-1.771.379-.78.569-1.736.569-2.87Zm7.702 6.75c-.818 0-1.54-.207-2.167-.62-.626-.418-1.116-1.006-1.47-1.764-.354-.763-.531-1.664-.531-2.704 0-1.031.177-1.926.531-2.685.354-.758.846-1.344 1.477-1.757.63-.414 1.359-.62 2.186-.62.639 0 1.144.106 1.515.319.375.209.66.448.856.716.2.264.356.482.467.652h.128v-4.832h1.508v13.091h-1.457v-1.509h-.179a9.992 9.992 0 0 1-.473.678c-.205.268-.497.509-.876.722-.379.209-.884.313-1.515.313Zm.205-1.355c.605 0 1.116-.158 1.534-.473.417-.32.735-.761.952-1.323.217-.567.326-1.221.326-1.963 0-.733-.106-1.374-.32-1.924-.213-.554-.528-.984-.946-1.291-.417-.311-.933-.466-1.546-.466-.64 0-1.172.164-1.598.492-.422.324-.74.765-.953 1.323-.209.554-.313 1.176-.313 1.866 0 .699.106 1.334.32 1.905.217.567.536 1.019.958 1.355.427.333.955.499 1.586.499Zm7.267 1.151v-9.819h1.509v9.819h-1.509Zm.767-11.455c-.294 0-.547-.1-.76-.3a.966.966 0 0 1-.313-.723c0-.281.104-.522.313-.722.213-.2.466-.3.76-.3s.546.1.755.3c.213.2.319.441.319.722a.957.957 0 0 1-.319.723c-.209.2-.461.3-.755.3Zm5.013 5.548v5.907h-1.508v-9.819h1.457v1.534h.128c.23-.498.58-.899 1.048-1.201.469-.307 1.074-.46 1.816-.46.664 0 1.246.136 1.745.409.498.268.886.677 1.163 1.227.277.545.416 1.236.416 2.071v6.239h-1.509v-6.137c0-.771-.2-1.372-.601-1.802-.4-.435-.95-.652-1.649-.652a2.63 2.63 0 0 0-1.291.313 2.245 2.245 0 0 0-.889.914c-.217.4-.326.886-.326 1.457Zm10.351-7.184v1.15c0 .35-.064.722-.192 1.119a4.636 4.636 0 0 1-.55 1.144 4.049 4.049 0 0 1-.869.959l-.818-.665c.268-.384.5-.782.696-1.195.201-.418.301-.863.301-1.336v-1.176h1.432Zm7.558 5.471-1.355.384a2.515 2.515 0 0 0-.377-.659 1.833 1.833 0 0 0-.665-.537c-.281-.14-.641-.211-1.08-.211-.601 0-1.102.139-1.502.416-.396.273-.595.62-.595 1.042 0 .375.137.671.41.888.272.218.698.399 1.278.544l1.457.358c.878.213 1.532.539 1.963.978.43.434.645.995.645 1.681a2.49 2.49 0 0 1-.486 1.508c-.319.443-.767.793-1.342 1.049-.575.255-1.244.383-2.007.383-1.001 0-1.83-.217-2.486-.652-.657-.435-1.072-1.07-1.247-1.905l1.432-.358c.136.529.394.925.773 1.189.384.264.885.397 1.502.397.704 0 1.262-.15 1.675-.448.418-.302.627-.665.627-1.087 0-.34-.12-.626-.358-.856-.239-.234-.605-.409-1.1-.524l-1.636-.384c-.899-.213-1.56-.543-1.982-.991-.417-.451-.626-1.016-.626-1.693 0-.554.155-1.044.467-1.471.315-.426.743-.76 1.284-1.003.546-.243 1.164-.364 1.854-.364.972 0 1.734.213 2.288.639.559.426.955.988 1.189 1.687Zm8.254-5.471 3.886 11.02h.154l3.886-11.02h1.662l-4.807 13.091h-1.636l-4.807-13.091h1.662Zm13.398 13.321a3.996 3.996 0 0 1-1.694-.352 2.911 2.911 0 0 1-1.208-1.029c-.299-.452-.448-.997-.448-1.636 0-.563.111-1.019.333-1.368.221-.354.517-.631.888-.831.371-.201.78-.35 1.227-.448.452-.102.906-.183 1.362-.243.597-.076 1.08-.134 1.451-.172.375-.043.648-.113.818-.211.175-.098.262-.269.262-.511v-.052c0-.63-.172-1.12-.518-1.47-.34-.349-.858-.524-1.553-.524-.72 0-1.285.158-1.694.473-.409.315-.696.652-.863 1.01l-1.431-.511c.255-.597.596-1.061 1.022-1.394a3.842 3.842 0 0 1 1.407-.703 5.849 5.849 0 0 1 1.508-.204c.315 0 .678.038 1.087.115.413.072.811.223 1.195.453.388.231.71.578.965 1.042.256.465.384 1.087.384 1.867v6.469h-1.509v-1.33h-.076a2.671 2.671 0 0 1-.512.684c-.238.243-.556.45-.952.62-.397.17-.88.256-1.451.256Zm.23-1.355c.596 0 1.099-.118 1.508-.352a2.389 2.389 0 0 0 1.253-2.077v-1.381c-.064.077-.204.147-.422.211a7.32 7.32 0 0 1-.741.16 36.76 36.76 0 0 1-.812.115c-.26.03-.471.055-.633.076a5.831 5.831 0 0 0-1.099.25 1.88 1.88 0 0 0-.818.505c-.205.221-.307.524-.307.907 0 .524.194.921.581 1.189.393.264.889.397 1.49.397Zm13.211-2.89v-5.804h1.508v9.819h-1.508v-1.662h-.103c-.23.498-.588.922-1.074 1.272-.485.345-1.099.517-1.84.517-.614 0-1.16-.134-1.637-.402-.477-.273-.852-.682-1.125-1.228-.273-.549-.409-1.242-.409-2.077v-6.239h1.509v6.137c0 .716.2 1.287.6 1.713.405.426.921.639 1.547.639a2.57 2.57 0 0 0 1.145-.288 2.48 2.48 0 0 0 .984-.882c.268-.396.403-.901.403-1.515Zm5.78-9.076v13.091h-1.509v-13.091h1.509Zm7.032 3.272v1.279H328.9v-1.279h5.088Zm-3.605-2.352h1.509v9.358c0 .426.062.746.185.959.128.209.29.349.486.422.2.068.411.102.633.102.166 0 .302-.009.409-.026l.256-.051.306 1.355a2.93 2.93 0 0 1-.428.115 3.126 3.126 0 0 1-.697.064c-.426 0-.843-.091-1.252-.274a2.492 2.492 0 0 1-1.01-.838c-.265-.375-.397-.848-.397-1.419v-9.767Zm9.096 6.648c0 1.611-.211 3.094-.633 4.449a13.716 13.716 0 0 1-1.796 3.733h-1.329a7.99 7.99 0 0 0 .856-1.56c.269-.614.503-1.287.703-2.02.201-.737.356-1.498.467-2.282.115-.788.173-1.562.173-2.32 0-1.014-.098-2.044-.294-3.088a17.79 17.79 0 0 0-.793-2.908c-.332-.895-.703-1.624-1.112-2.186h1.329a13.696 13.696 0 0 1 1.796 3.739c.422 1.351.633 2.832.633 4.443ZM179.342 1180v-1.99l4.66-4.32c.396-.38.729-.73.997-1.03.273-.31.48-.61.62-.91.141-.29.211-.62.211-.96 0-.38-.087-.71-.262-.99-.175-.28-.413-.5-.716-.65a2.284 2.284 0 0 0-1.029-.23c-.4 0-.75.08-1.048.25-.298.16-.529.39-.69.69-.162.3-.243.66-.243 1.08h-2.628c0-.85.194-1.6.582-2.23.388-.63.931-1.12 1.63-1.46.699-.35 1.504-.52 2.416-.52.938 0 1.754.17 2.448.5.699.33 1.243.78 1.63 1.37.388.58.582 1.25.582 2 0 .5-.098.99-.294 1.47-.192.48-.535 1.01-1.029 1.6-.494.59-1.191 1.29-2.09 2.1l-1.911 1.88v.09h5.497v2.26h-9.333Zm16.471.29c-1.099-.01-2.045-.28-2.838-.81-.788-.54-1.396-1.32-1.822-2.34-.422-1.02-.63-2.24-.626-3.67 0-1.43.211-2.65.633-3.65.426-1.01 1.033-1.77 1.821-2.3.793-.53 1.737-.79 2.832-.79 1.095 0 2.037.26 2.825.79.793.53 1.402 1.3 1.828 2.3.427 1.01.638 2.22.633 3.65 0 1.43-.213 2.66-.639 3.68-.422 1.02-1.027 1.8-1.815 2.33-.789.54-1.733.81-2.832.81Zm0-2.3c.75 0 1.349-.37 1.796-1.13.448-.75.669-1.88.665-3.39 0-1-.102-1.82-.307-2.48-.2-.66-.486-1.16-.856-1.49-.367-.33-.799-.5-1.298-.5-.746 0-1.342.37-1.79 1.12-.447.74-.673 1.86-.677 3.35 0 1 .1 1.84.3 2.52.205.66.492 1.17.863 1.5.371.34.805.5 1.304.5Zm12.955-11.08V1180H206v-10.46h-.076l-2.998 1.88v-2.46l3.241-2.05h2.601Zm7.995 13.27c-.984 0-1.86-.16-2.627-.48-.763-.32-1.362-.77-1.796-1.32a3.01 3.01 0 0 1-.652-1.9c0-.55.123-1.05.37-1.5.252-.46.593-.85 1.023-1.15.431-.31.912-.5 1.445-.59v-.09a2.863 2.863 0 0 1-1.701-1.01 2.929 2.929 0 0 1-.652-1.89c0-.68.199-1.28.595-1.81.396-.53.94-.95 1.63-1.25.695-.31 1.483-.46 2.365-.46.882 0 1.668.15 2.359.46.694.31 1.24.73 1.636 1.26.396.53.597 1.13.601 1.8a2.934 2.934 0 0 1-.665 1.89c-.439.53-1.001.87-1.687 1.01v.09c.524.09.999.28 1.425.59.43.3.771.69 1.023 1.15.255.45.385.95.39 1.5a3.046 3.046 0 0 1-.659 1.9c-.434.55-1.035 1-1.802 1.32-.763.32-1.637.48-2.621.48Zm0-2.03c.439 0 .822-.08 1.151-.24.328-.16.583-.38.767-.66.187-.29.281-.62.281-.99 0-.38-.096-.71-.288-1a1.89 1.89 0 0 0-.78-.69 2.425 2.425 0 0 0-1.131-.26c-.422 0-.799.09-1.131.26a1.88 1.88 0 0 0-.787.69c-.187.29-.281.62-.281 1 0 .37.092.7.275.99.183.28.441.5.773.66.333.16.716.24 1.151.24Zm0-5.85c.366 0 .692-.08.978-.23.285-.15.509-.35.671-.62.162-.26.243-.57.243-.91a1.61 1.61 0 0 0-.908-1.5 2.06 2.06 0 0 0-.984-.23c-.371 0-.699.08-.984.23-.286.14-.51.34-.672.6-.157.26-.236.56-.236.9 0 .34.081.65.243.91.162.27.385.47.671.62.285.15.611.23.978.23Zm-46.894 18.02v-1.41h9.819v1.41h-4.117V1202h-1.585v-11.68h-4.117Zm13.569 5.77v5.91h-1.508v-13.09h1.508v4.81h.128c.23-.51.575-.91 1.035-1.21.465-.3 1.083-.46 1.854-.46.669 0 1.255.14 1.758.41.503.26.893.67 1.17 1.22.281.54.422 1.24.422 2.08v6.24h-1.509v-6.14c0-.78-.202-1.38-.607-1.81-.401-.43-.957-.64-1.669-.64-.494 0-.937.1-1.329.31-.388.21-.695.52-.921.92-.221.4-.332.88-.332 1.45Zm12.015 6.14c-.622 0-1.186-.12-1.693-.35-.508-.24-.91-.58-1.209-1.03-.298-.45-.447-1-.447-1.64 0-.56.111-1.02.332-1.36.222-.36.518-.64.889-.84.371-.2.78-.35 1.227-.44.452-.11.906-.19 1.362-.25.596-.07 1.08-.13 1.451-.17.375-.04.647-.11.818-.21.175-.1.262-.27.262-.51v-.05c0-.63-.173-1.12-.518-1.47-.341-.35-.858-.53-1.553-.53-.72 0-1.285.16-1.694.48-.409.31-.697.65-.863 1.01l-1.432-.51c.256-.6.597-1.07 1.023-1.4.43-.34.899-.57 1.406-.7a5.7 5.7 0 0 1 1.509-.21c.315 0 .677.04 1.086.12.414.07.812.22 1.196.45.388.23.709.58.965 1.04.256.47.383 1.09.383 1.87v6.47h-1.508v-1.33h-.077a2.63 2.63 0 0 1-.511.68c-.239.25-.556.45-.953.62-.396.17-.879.26-1.451.26Zm.231-1.35c.596 0 1.099-.12 1.508-.36.413-.23.725-.53.933-.9.213-.37.32-.76.32-1.17v-1.38c-.064.07-.205.14-.422.21-.213.06-.46.11-.741.16-.277.04-.548.08-.812.11-.26.03-.471.06-.633.08-.392.05-.759.13-1.099.25-.337.11-.61.28-.819.5-.204.22-.306.53-.306.91 0 .52.193.92.581 1.19.392.26.889.4 1.49.4Zm8.531-4.79v5.91h-1.508v-9.82h1.457v1.54h.128c.23-.5.58-.9 1.048-1.21.469-.3 1.074-.46 1.816-.46.664 0 1.246.14 1.745.41.498.27.886.68 1.163 1.23.277.55.416 1.24.416 2.07v6.24h-1.509v-6.14c0-.77-.2-1.37-.601-1.8-.4-.43-.95-.65-1.649-.65-.481 0-.912.1-1.291.31-.375.21-.671.52-.889.92-.217.4-.326.88-.326 1.45Zm13.01 6.11c-.887 0-1.664-.21-2.333-.63-.665-.42-1.185-1.01-1.56-1.77-.371-.76-.556-1.64-.556-2.66 0-1.02.185-1.91.556-2.68.375-.76.895-1.35 1.56-1.77.669-.43 1.446-.64 2.333-.64.886 0 1.662.21 2.326.64.67.42 1.189 1.01 1.56 1.77.375.77.563 1.66.563 2.68 0 1.02-.188 1.9-.563 2.66-.371.76-.89 1.35-1.56 1.77-.664.42-1.44.63-2.326.63Zm0-1.35c.673 0 1.227-.17 1.662-.52.434-.34.756-.8.965-1.36.209-.56.313-1.17.313-1.83 0-.65-.104-1.27-.313-1.83a3.101 3.101 0 0 0-.965-1.38c-.435-.35-.989-.52-1.662-.52-.674 0-1.227.17-1.662.52-.435.35-.757.81-.965 1.38a5.234 5.234 0 0 0-.314 1.83c0 .66.105 1.27.314 1.83.208.56.53 1.02.965 1.36.435.35.988.52 1.662.52Zm13.706-6.47-1.355.38a2.518 2.518 0 0 0-.377-.65c-.162-.22-.384-.4-.665-.54s-.641-.21-1.08-.21c-.601 0-1.102.14-1.502.41-.397.28-.595.62-.595 1.05 0 .37.136.67.409.88.273.22.699.4 1.279.55l1.457.36c.878.21 1.532.53 1.962.97.431.44.646 1 .646 1.68 0 .57-.162 1.07-.486 1.51-.319.45-.767.8-1.342 1.05-.576.26-1.245.38-2.007.38-1.002 0-1.831-.21-2.487-.65-.656-.43-1.072-1.07-1.246-1.9l1.432-.36c.136.53.394.92.773 1.19.384.26.884.4 1.502.4.703 0 1.261-.15 1.675-.45.417-.31.626-.67.626-1.09 0-.34-.119-.63-.358-.86-.238-.23-.605-.4-1.099-.52l-1.637-.38c-.899-.22-1.559-.55-1.981-.99-.418-.46-.626-1.02-.626-1.7 0-.55.155-1.04.466-1.47.316-.42.744-.76 1.285-1a4.557 4.557 0 0 1 1.854-.37c.971 0 1.734.22 2.288.64.558.43.955.99 1.189 1.69ZM110.293 1224h-1.662l4.807-13.09h1.636l4.807 13.09h-1.662l-3.912-11.02h-.102l-3.912 11.02Zm.614-5.11h6.699v1.4h-6.699v-1.4Zm17.607-4.71-3.631 9.82h-1.534l-3.631-9.82h1.636l2.711 7.83h.102l2.71-7.83h1.637Zm5.756 10.02c-.946 0-1.762-.2-2.449-.62a4.174 4.174 0 0 1-1.578-1.77c-.367-.75-.55-1.64-.55-2.64 0-1.01.183-1.89.55-2.66.37-.77.886-1.37 1.547-1.8.664-.44 1.44-.66 2.326-.66.512 0 1.017.09 1.515.26.499.17.953.45 1.362.83.409.38.735.88.978 1.51s.364 1.4.364 2.31v.64h-7.568v-1.3h6.034c0-.56-.111-1.05-.333-1.48a2.462 2.462 0 0 0-.933-1.03c-.4-.26-.873-.38-1.419-.38-.601 0-1.121.15-1.559.45-.435.29-.77.67-1.004 1.15-.234.47-.352.98-.352 1.52v.87c0 .74.128 1.37.384 1.88.26.51.62.9 1.08 1.17.46.27.995.4 1.605.4.396 0 .754-.06 1.073-.17.324-.11.603-.28.838-.51.234-.23.415-.51.543-.85l1.458.4c-.154.5-.412.93-.774 1.31a3.8 3.8 0 0 1-1.342.87c-.533.2-1.132.3-1.796.3Zm7.868-6.11v5.91h-1.508v-9.82h1.457v1.54h.128c.23-.5.579-.9 1.048-1.21.469-.3 1.074-.46 1.816-.46.664 0 1.246.14 1.745.41.498.27.886.68 1.163 1.23.277.55.415 1.24.415 2.07v6.24h-1.508v-6.14c0-.77-.2-1.37-.601-1.8-.401-.43-.95-.65-1.649-.65-.482 0-.912.1-1.291.31-.375.21-.671.52-.889.92-.217.4-.326.88-.326 1.45Zm12.984 9.8c-.729 0-1.355-.1-1.879-.28-.524-.19-.961-.43-1.311-.73a4.03 4.03 0 0 1-.824-.96l1.202-.85c.136.18.309.39.517.62.209.23.495.43.857.6.366.18.846.27 1.438.27.793 0 1.447-.19 1.962-.58.516-.38.774-.98.774-1.8v-2h-.128c-.111.18-.268.41-.473.67-.2.26-.49.49-.869.7-.375.2-.882.3-1.522.3-.792 0-1.504-.19-2.135-.57-.626-.37-1.122-.92-1.489-1.63-.362-.72-.543-1.59-.543-2.61 0-1.01.177-1.88.53-2.63.354-.75.846-1.33 1.477-1.74.631-.41 1.359-.62 2.186-.62.639 0 1.146.11 1.521.32.38.21.669.45.87.72.204.26.362.48.473.65h.153v-1.56h1.457v10.1c0 .84-.191 1.53-.575 2.06-.379.53-.891.92-1.534 1.17-.639.25-1.351.38-2.135.38Zm-.051-5.4c.605 0 1.116-.14 1.534-.41.418-.28.735-.68.952-1.2.218-.52.326-1.14.326-1.87 0-.7-.106-1.33-.319-1.87-.213-.54-.529-.96-.946-1.27-.418-.31-.933-.46-1.547-.46-.639 0-1.172.16-1.598.48-.422.33-.739.76-.952 1.31a5.005 5.005 0 0 0-.314 1.81c0 .69.107 1.29.32 1.81.217.52.537.93.959 1.23.426.29.954.44 1.585.44Zm11.173 1.71c-.946 0-1.762-.2-2.448-.62-.682-.42-1.208-1.01-1.579-1.77-.366-.75-.549-1.64-.549-2.64 0-1.01.183-1.89.549-2.66.371-.77.887-1.37 1.547-1.8.665-.44 1.44-.66 2.327-.66.511 0 1.016.09 1.515.26.498.17.952.45 1.361.83.409.38.735.88.978 1.51s.365 1.4.365 2.31v.64h-7.569v-1.3h6.034c0-.56-.11-1.05-.332-1.48a2.462 2.462 0 0 0-.933-1.03c-.401-.26-.874-.38-1.419-.38-.601 0-1.121.15-1.56.45-.434.29-.769.67-1.003 1.15-.235.47-.352.98-.352 1.52v.87c0 .74.128 1.37.384 1.88.26.51.62.9 1.08 1.17.46.27.995.4 1.604.4.397 0 .754-.06 1.074-.17.324-.11.603-.28.837-.51.235-.23.416-.51.544-.85l1.457.4c-.153.5-.411.93-.773 1.31-.362.37-.81.66-1.343.87-.532.2-1.131.3-1.796.3Zm6.36-.2v-9.82h1.458v1.48h.102c.179-.48.503-.88.972-1.18.468-.3.997-.45 1.585-.45h.415c.166.01.292.02.377.02v1.54c-.051-.01-.168-.03-.351-.06a3.458 3.458 0 0 0-.569-.04c-.477 0-.903.1-1.278.3-.371.19-.665.46-.883.81-.213.35-.319.74-.319 1.19v6.21h-1.509Zm13.652-7.62-1.355.38a2.518 2.518 0 0 0-.377-.65c-.162-.22-.384-.4-.665-.54s-.641-.21-1.08-.21c-.601 0-1.102.14-1.502.41-.397.28-.595.62-.595 1.05 0 .37.137.67.409.88.273.22.699.4 1.279.55l1.457.36c.878.21 1.532.53 1.963.97.43.44.645 1 .645 1.68 0 .57-.162 1.07-.486 1.51-.319.45-.767.8-1.342 1.05-.575.26-1.244.38-2.007.38-1.002 0-1.83-.21-2.487-.65-.656-.43-1.071-1.07-1.246-1.9l1.432-.36c.136.53.394.92.773 1.19.384.26.884.4 1.502.4.703 0 1.262-.15 1.675-.45.418-.31.626-.67.626-1.09 0-.34-.119-.63-.358-.86-.238-.23-.605-.4-1.099-.52l-1.636-.38c-.899-.22-1.56-.55-1.982-.99-.417-.46-.626-1.02-.626-1.7 0-.55.155-1.04.466-1.47.316-.42.744-.76 1.285-1a4.564 4.564 0 0 1 1.854-.37c.971 0 1.734.22 2.288.64.558.43.955.99 1.189 1.69Zm3.549 7.72a1.09 1.09 0 0 1-.811-.34 1.086 1.086 0 0 1-.339-.81c0-.31.113-.58.339-.81.225-.23.496-.34.811-.34.316 0 .586.11.812.34.226.23.339.5.339.81 0 .21-.053.4-.16.58-.102.17-.241.31-.415.42-.171.1-.363.15-.576.15Zm0-7.28a1.13 1.13 0 0 1-.811-.34c-.226-.23-.339-.5-.339-.82 0-.31.113-.58.339-.81.225-.22.496-.34.811-.34.316 0 .586.12.812.34.226.23.339.5.339.81 0 .21-.053.41-.16.58-.102.17-.241.32-.415.42-.171.1-.363.16-.576.16Zm10.71-5.91V1224h-1.585v-13.09h1.585Zm4.483 7.18v5.91h-1.509v-9.82h1.457v1.54h.128c.23-.5.58-.9 1.049-1.21.468-.3 1.073-.46 1.815-.46.665 0 1.246.14 1.745.41.499.27.886.68 1.163 1.23.277.55.416 1.24.416 2.07v6.24h-1.509v-6.14c0-.77-.2-1.37-.601-1.8-.4-.43-.95-.65-1.649-.65-.481 0-.912.1-1.291.31-.375.21-.671.52-.888.92-.218.4-.326.88-.326 1.45Zm13.393-3.91v1.28h-5.293v-1.28h5.293Zm-3.708 9.82v-11.17c0-.57.132-1.03.396-1.41.265-.37.608-.66 1.03-.84.421-.19.867-.28 1.336-.28.37 0 .673.03.907.08.235.06.409.12.524.17l-.434 1.31c-.077-.03-.184-.06-.32-.1a1.862 1.862 0 0 0-.524-.06c-.499 0-.859.13-1.08.38-.218.25-.326.62-.326 1.1V1224h-1.509Zm5.822 0v-9.82h1.508v9.82h-1.508Zm.767-11.45c-.294 0-.548-.1-.761-.3a.998.998 0 0 1-.313-.73c0-.28.104-.52.313-.72.213-.2.467-.3.761-.3s.545.1.754.3c.213.2.32.44.32.72a.99.99 0 0 1-.32.73c-.209.2-.46.3-.754.3Zm5.013 5.54v5.91h-1.509v-9.82h1.458v1.54h.127c.231-.5.58-.9 1.049-1.21.468-.3 1.074-.46 1.815-.46.665 0 1.247.14 1.745.41.499.27.886.68 1.163 1.23.277.55.416 1.24.416 2.07v6.24h-1.509v-6.14c0-.77-.2-1.37-.6-1.8-.401-.43-.951-.65-1.65-.65-.481 0-.912.1-1.291.31-.375.21-.671.52-.888.92-.218.4-.326.88-.326 1.45Zm9.02 5.91v-9.82h1.509v9.82h-1.509Zm.768-11.45c-.295 0-.548-.1-.761-.3a.998.998 0 0 1-.313-.73c0-.28.104-.52.313-.72.213-.2.466-.3.761-.3.294 0 .545.1.754.3.213.2.319.44.319.72a.99.99 0 0 1-.319.73c-.209.2-.46.3-.754.3Zm7.774 1.63v1.28h-5.088v-1.28h5.088Zm-3.605-2.35h1.508v9.36c0 .42.062.74.186.96.127.21.289.35.485.42.201.07.412.1.633.1.166 0 .303-.01.409-.03.107-.02.192-.03.256-.05l.307 1.36a2.15 2.15 0 0 1-.428.11c-.184.05-.416.07-.697.07a2.94 2.94 0 0 1-1.253-.28 2.487 2.487 0 0 1-1.01-.83c-.264-.38-.396-.85-.396-1.42v-9.77Zm6.846 15.85a3.51 3.51 0 0 1-.684-.06 1.748 1.748 0 0 1-.416-.12l.384-1.33c.366.1.69.13.971.11.282-.03.531-.16.748-.38.222-.22.424-.58.607-1.08l.282-.77-3.631-9.87h1.636l2.711 7.83h.102l2.71-7.83h1.636l-4.167 11.25c-.188.51-.42.93-.697 1.26-.277.34-.599.59-.965.75-.362.16-.771.24-1.227.24Zm16.692-3.68-3.579-13.09h1.611l2.735 10.66h.128l2.787-10.66h1.79l2.787 10.66h.128l2.736-10.66h1.61l-3.579 13.09h-1.637l-2.889-10.43h-.102l-2.889 10.43h-1.637Zm16.479.23c-.622 0-1.187-.12-1.694-.35-.507-.24-.91-.58-1.208-1.03-.298-.45-.447-1-.447-1.64 0-.56.111-1.02.332-1.36.222-.36.518-.64.889-.84.37-.2.779-.35 1.227-.44a12.8 12.8 0 0 1 1.361-.25c.597-.07 1.081-.13 1.451-.17.375-.04.648-.11.819-.21.174-.1.262-.27.262-.51v-.05c0-.63-.173-1.12-.518-1.47-.341-.35-.859-.53-1.553-.53-.721 0-1.285.16-1.694.48-.409.31-.697.65-.863 1.01l-1.432-.51c.256-.6.597-1.07 1.023-1.4.43-.34.899-.57 1.406-.7a5.692 5.692 0 0 1 1.508-.21c.316 0 .678.04 1.087.12.413.07.812.22 1.195.45.388.23.71.58.966 1.04.255.47.383 1.09.383 1.87v6.47h-1.508v-1.33h-.077c-.102.21-.273.44-.511.68-.239.25-.557.45-.953.62-.396.17-.88.26-1.451.26Zm.23-1.35c.597 0 1.1-.12 1.509-.36.413-.23.724-.53.933-.9.213-.37.32-.76.32-1.17v-1.38c-.064.07-.205.14-.422.21-.213.06-.46.11-.742.16-.277.04-.547.08-.812.11-.259.03-.47.06-.632.08-.392.05-.759.13-1.1.25a1.94 1.94 0 0 0-.818.5c-.204.22-.307.53-.307.91 0 .52.194.92.582 1.19.392.26.888.4 1.489.4Zm7.024 1.12v-9.82h1.457v1.48h.102c.179-.48.503-.88.972-1.18.469-.3.997-.45 1.585-.45h.415c.167.01.292.02.378.02v1.54c-.052-.01-.169-.03-.352-.06a3.458 3.458 0 0 0-.569-.04c-.477 0-.903.1-1.278.3-.371.19-.665.46-.882.81-.213.35-.32.74-.32 1.19v6.21h-1.508Z"/>
</svg>
