<svg xmlns="http://www.w3.org/2000/svg" width="384" height="1037" fill="none" viewBox="0 0 384 1037">
  <path fill="#75BCF0" d="M181.3 59.627v854.125h-4.029V59.627z"/>
  <circle cx="179.285" cy="60.03" r="9.378" fill="#fff" stroke="#75BCF0" stroke-width="3" transform="rotate(90 179.285 60.03)"/>
  <circle cx="179.285" cy="268.727" r="6.155" fill="#fff" stroke="#75BCF0" stroke-width="3" transform="rotate(90 179.285 268.727)"/>
  <circle cx="179.285" cy="691.761" r="6.155" fill="#fff" stroke="#75BCF0" stroke-width="3" transform="rotate(90 179.285 691.761)"/>
  <circle cx="179.285" cy="843.247" r="6.155" fill="#fff" stroke="#75BCF0" stroke-width="3" transform="rotate(90 179.285 843.247)"/>
  <circle cx="179.285" cy="913.35" r="9.378" fill="#fff" stroke="#75BCF0" stroke-width="3" transform="rotate(90 179.285 913.35)"/>
  <path fill="#fff" d="M154.486 9.492h-2.8a2.728 2.728 0 0 0-.313-.965 2.447 2.447 0 0 0-.607-.729 2.671 2.671 0 0 0-.857-.46 3.268 3.268 0 0 0-1.041-.16c-.678 0-1.268.169-1.771.505-.503.333-.893.818-1.17 1.458-.277.635-.415 1.406-.415 2.313 0 .934.138 1.718.415 2.353.282.635.674 1.114 1.176 1.438.503.324 1.085.486 1.745.486a3.46 3.46 0 0 0 1.03-.147c.319-.098.603-.241.85-.428.247-.192.451-.425.613-.697a2.68 2.68 0 0 0 .345-.933l2.8.012a5.05 5.05 0 0 1-.543 1.739 5.23 5.23 0 0 1-1.157 1.49 5.45 5.45 0 0 1-1.726 1.035c-.665.251-1.417.377-2.256.377-1.168 0-2.212-.264-3.132-.793-.917-.528-1.641-1.293-2.174-2.294-.528-1.002-.792-2.214-.792-3.638 0-1.427.268-2.642.805-3.643s1.266-1.764 2.186-2.288c.921-.529 1.956-.793 3.107-.793.758 0 1.461.107 2.109.32a5.349 5.349 0 0 1 1.732.933 4.81 4.81 0 0 1 1.228 1.49c.319.587.524 1.26.613 2.02ZM156.42 18V8.182h2.64v1.713h.102c.179-.61.479-1.07.901-1.38a2.37 2.37 0 0 1 1.458-.474 4.13 4.13 0 0 1 .856.096v2.416a3.564 3.564 0 0 0-.53-.102 4.78 4.78 0 0 0-.62-.045c-.401 0-.759.088-1.074.262a1.94 1.94 0 0 0-.742.716c-.179.307-.268.66-.268 1.061V18h-2.723Zm11.382.192c-1.01 0-1.879-.205-2.608-.614a4.203 4.203 0 0 1-1.674-1.751c-.392-.759-.588-1.656-.588-2.691 0-1.01.196-1.897.588-2.66a4.35 4.35 0 0 1 1.655-1.783c.716-.426 1.556-.639 2.519-.639.647 0 1.25.104 1.809.313a4.02 4.02 0 0 1 1.47.927c.422.413.75.933.984 1.56.235.622.352 1.35.352 2.186v.748h-8.291V12.1h5.728c0-.392-.086-.74-.256-1.042a1.834 1.834 0 0 0-.71-.71 2.02 2.02 0 0 0-1.041-.261c-.414 0-.78.095-1.1.287a2.018 2.018 0 0 0-.741.76 2.145 2.145 0 0 0-.275 1.056v1.604c0 .486.089.906.268 1.26.183.353.441.626.774.817.332.192.726.288 1.182.288.303 0 .58-.043.831-.128a1.72 1.72 0 0 0 .646-.383c.179-.17.315-.38.409-.627l2.518.166a3.443 3.443 0 0 1-.786 1.586c-.392.447-.899.797-1.521 1.048-.618.247-1.332.37-2.142.37Zm9.084-.007c-.627 0-1.185-.108-1.675-.326a2.701 2.701 0 0 1-1.164-.978c-.281-.434-.421-.976-.421-1.623 0-.546.1-1.004.3-1.374.2-.371.473-.67.818-.895a3.965 3.965 0 0 1 1.176-.512 8.97 8.97 0 0 1 1.394-.243c.571-.06 1.031-.115 1.38-.166.35-.055.603-.136.761-.243a.534.534 0 0 0 .237-.473v-.038c0-.405-.128-.718-.384-.94-.251-.221-.609-.332-1.074-.332-.49 0-.88.109-1.169.326a1.5 1.5 0 0 0-.576.805l-2.518-.204a3.423 3.423 0 0 1 .754-1.547 3.622 3.622 0 0 1 1.451-1.01c.597-.239 1.287-.358 2.071-.358a6.28 6.28 0 0 1 1.566.192 4.11 4.11 0 0 1 1.336.594c.392.269.701.614.927 1.036.226.417.339.918.339 1.502V18h-2.583v-1.361h-.076a2.781 2.781 0 0 1-.633.811c-.264.23-.582.412-.953.544-.37.127-.799.191-1.284.191Zm.779-1.879c.401 0 .755-.079 1.061-.236.307-.162.548-.38.723-.652.174-.273.262-.582.262-.927v-1.042a1.462 1.462 0 0 1-.352.153 6.431 6.431 0 0 1-.492.122c-.183.034-.366.066-.55.096l-.498.07c-.32.047-.599.121-.838.224-.238.102-.424.24-.556.415-.132.17-.198.384-.198.64 0 .37.134.653.403.85.273.191.618.287 1.035.287Zm12.085-8.124v2.045h-5.913V8.182h5.913Zm-4.571-2.352h2.723v9.153c0 .251.039.447.115.588a.638.638 0 0 0 .32.288c.14.055.302.083.486.083.128 0 .255-.01.383-.032l.294-.058.428 2.027a7.63 7.63 0 0 1-.575.147 4.6 4.6 0 0 1-.901.108c-.656.026-1.232-.062-1.726-.262a2.41 2.41 0 0 1-1.144-.933c-.273-.422-.407-.955-.403-1.598V5.83ZM191.523 18V8.182h2.723V18h-2.723Zm1.368-11.084a1.48 1.48 0 0 1-1.042-.403 1.307 1.307 0 0 1-.428-.977c0-.375.143-.697.428-.966.29-.272.637-.409 1.042-.409s.75.137 1.036.41c.289.268.434.59.434.965 0 .379-.145.705-.434.977a1.459 1.459 0 0 1-1.036.403Zm7.973 11.276c-.993 0-1.852-.211-2.576-.633a4.333 4.333 0 0 1-1.669-1.777c-.392-.763-.588-1.647-.588-2.653 0-1.014.196-1.9.588-2.659a4.281 4.281 0 0 1 1.669-1.777c.724-.426 1.583-.639 2.576-.639.993 0 1.849.213 2.569.64a4.264 4.264 0 0 1 1.675 1.776c.392.759.588 1.645.588 2.66 0 1.005-.196 1.89-.588 2.652a4.314 4.314 0 0 1-1.675 1.777c-.72.422-1.576.633-2.569.633Zm.012-2.11c.452 0 .829-.128 1.132-.383.302-.26.53-.614.684-1.061a4.6 4.6 0 0 0 .236-1.528 4.6 4.6 0 0 0-.236-1.528c-.154-.447-.382-.8-.684-1.06-.303-.26-.68-.39-1.132-.39-.455 0-.839.13-1.15.39-.307.26-.539.613-.697 1.06a4.71 4.71 0 0 0-.23 1.528c0 .571.077 1.08.23 1.528.158.447.39.8.697 1.06.311.256.695.384 1.15.384Zm9.314-3.758V18h-2.723V8.182h2.595v1.732h.115a2.74 2.74 0 0 1 1.093-1.355c.511-.337 1.131-.505 1.86-.505.682 0 1.276.15 1.783.447a3.04 3.04 0 0 1 1.183 1.279c.281.55.422 1.206.422 1.969V18h-2.723v-5.766c.004-.6-.149-1.07-.46-1.406-.312-.34-.74-.511-1.285-.511a1.96 1.96 0 0 0-.972.236 1.65 1.65 0 0 0-.652.69c-.153.299-.232.659-.236 1.08Zm-72.785 21.13c0-1.61.209-3.091.626-4.442a13.859 13.859 0 0 1 1.803-3.74h1.33a8.2 8.2 0 0 0-.863 1.56 15.052 15.052 0 0 0-.697 2.027c-.2.733-.358 1.491-.473 2.275a16.539 16.539 0 0 0-.166 2.32c0 1.015.098 2.044.294 3.088.196 1.044.46 2.013.792 2.908.333.895.703 1.624 1.113 2.186h-1.33a13.88 13.88 0 0 1-1.803-3.733c-.417-1.355-.626-2.838-.626-4.448ZM143.594 40V26.91h4.577c.912 0 1.664.157 2.256.472.593.311 1.034.73 1.323 1.26a3.54 3.54 0 0 1 .435 1.744c0 .563-.1 1.027-.3 1.394a2.335 2.335 0 0 1-.78.87c-.32.212-.667.37-1.042.472v.128c.4.026.803.166 1.208.422.405.256.744.622 1.016 1.1.273.477.409 1.06.409 1.75 0 .657-.149 1.247-.447 1.771-.298.525-.769.94-1.413 1.247-.643.307-1.48.46-2.512.46h-4.73Zm1.585-1.406h3.145c1.036 0 1.771-.2 2.206-.601.438-.405.658-.895.658-1.47 0-.444-.113-.853-.339-1.228a2.449 2.449 0 0 0-.965-.907c-.418-.23-.912-.345-1.483-.345h-3.222v4.55Zm0-5.932h2.941a2.91 2.91 0 0 0 1.291-.281 2.25 2.25 0 0 0 .92-.793c.23-.34.346-.741.346-1.202 0-.575-.201-1.063-.601-1.463-.401-.405-1.036-.608-1.905-.608h-2.992v4.347ZM155.097 40v-9.818h1.508V40h-1.508Zm.767-11.454c-.294 0-.548-.1-.761-.301a.964.964 0 0 1-.313-.722c0-.282.104-.522.313-.723.213-.2.467-.3.761-.3s.545.1.754.3c.213.2.32.441.32.723a.957.957 0 0 1-.32.722c-.209.2-.46.3-.754.3Zm7.467 15.34c-.729 0-1.355-.093-1.879-.28-.524-.184-.961-.427-1.31-.73a3.98 3.98 0 0 1-.825-.958l1.202-.844c.136.179.309.383.517.614.209.234.495.436.857.607.366.174.846.262 1.438.262.793 0 1.447-.192 1.963-.576.515-.383.773-.984.773-1.802v-1.994h-.128c-.111.179-.268.4-.473.664-.2.26-.49.493-.869.697-.375.2-.882.3-1.521.3-.793 0-1.505-.187-2.135-.562-.627-.375-1.123-.92-1.49-1.636-.362-.716-.543-1.586-.543-2.608 0-1.006.177-1.882.53-2.627.354-.75.846-1.33 1.477-1.739.631-.413 1.359-.62 2.186-.62.639 0 1.146.107 1.521.32.38.208.669.447.87.716.204.264.362.481.473.651h.153v-1.56h1.458v10.1c0 .844-.192 1.53-.576 2.059a3.27 3.27 0 0 1-1.534 1.17c-.639.25-1.351.376-2.135.376Zm-.051-5.395c.605 0 1.117-.138 1.534-.415.418-.277.735-.675.953-1.195.217-.52.326-1.142.326-1.867 0-.707-.107-1.332-.32-1.873-.213-.54-.528-.965-.946-1.272-.418-.306-.933-.46-1.547-.46-.639 0-1.172.162-1.598.486-.422.324-.739.758-.952 1.304a5.036 5.036 0 0 0-.314 1.815c0 .682.107 1.285.32 1.81.217.519.537.928.959 1.226.426.294.954.442 1.585.442ZM175.604 40V26.91h4.577c.912 0 1.664.157 2.256.472.592.311 1.033.73 1.323 1.26a3.54 3.54 0 0 1 .435 1.744c0 .563-.1 1.027-.301 1.394a2.341 2.341 0 0 1-.779.87c-.32.212-.667.37-1.042.472v.128c.4.026.803.166 1.208.422.405.256.743.622 1.016 1.1.273.477.409 1.06.409 1.75 0 .657-.149 1.247-.447 1.771-.299.525-.769.94-1.413 1.247-.643.307-1.481.46-2.512.46h-4.73Zm1.585-1.406h3.145c1.036 0 1.771-.2 2.205-.601.439-.405.659-.895.659-1.47 0-.444-.113-.853-.339-1.228a2.455 2.455 0 0 0-.965-.907c-.418-.23-.912-.345-1.483-.345h-3.222v4.55Zm0-5.932h2.94a2.91 2.91 0 0 0 1.292-.281c.387-.188.694-.452.92-.793.23-.34.345-.741.345-1.202 0-.575-.2-1.063-.601-1.463-.4-.405-1.035-.608-1.904-.608h-2.992v4.347Zm12.807 7.568a3.988 3.988 0 0 1-1.694-.351 2.906 2.906 0 0 1-1.208-1.03c-.299-.451-.448-.997-.448-1.636 0-.562.111-1.018.333-1.368a2.34 2.34 0 0 1 .888-.83c.371-.201.78-.35 1.227-.448.452-.102.906-.184 1.362-.243.596-.077 1.08-.134 1.451-.173.375-.042.648-.113.818-.21.175-.099.262-.27.262-.512v-.051c0-.63-.172-1.12-.518-1.47-.341-.35-.858-.524-1.553-.524-.72 0-1.285.157-1.694.473-.409.315-.697.651-.863 1.01l-1.432-.512c.256-.596.597-1.061 1.023-1.393a3.838 3.838 0 0 1 1.406-.703 5.85 5.85 0 0 1 1.509-.205c.315 0 .677.038 1.087.115.413.072.811.224 1.195.454.388.23.709.577.965 1.042.256.464.384 1.086.384 1.866V40h-1.509v-1.33h-.077a2.64 2.64 0 0 1-.511.684c-.239.243-.556.45-.952.62-.397.17-.88.256-1.451.256Zm.23-1.355c.596 0 1.099-.117 1.508-.352.414-.234.725-.537.933-.907.214-.371.32-.76.32-1.17v-1.38c-.064.076-.204.146-.422.21-.213.06-.46.113-.741.16a34 34 0 0 1-1.445.192 5.77 5.77 0 0 0-1.099.25c-.337.11-.61.278-.818.504-.205.222-.307.524-.307.908 0 .524.194.92.581 1.189.392.264.889.396 1.49.396Zm8.532-4.781V40h-1.509v-9.818h1.457v1.534h.128c.23-.499.58-.9 1.049-1.202.468-.307 1.073-.46 1.815-.46.665 0 1.246.136 1.745.41.498.268.886.677 1.163 1.226.277.546.416 1.236.416 2.071V40h-1.509v-6.136c0-.772-.2-1.372-.601-1.803-.4-.435-.95-.652-1.649-.652-.481 0-.912.105-1.291.313a2.238 2.238 0 0 0-.888.914c-.218.4-.326.887-.326 1.458Zm12.983 9.792c-.728 0-1.355-.093-1.879-.28-.524-.184-.961-.427-1.31-.73a4.003 4.003 0 0 1-.825-.958l1.202-.844c.136.179.309.383.518.614.208.234.494.436.856.607.367.174.846.262 1.438.262.793 0 1.447-.192 1.963-.576.515-.383.773-.984.773-1.802v-1.994h-.128c-.11.179-.268.4-.473.664-.2.26-.49.493-.869.697-.375.2-.882.3-1.521.3-.793 0-1.505-.187-2.135-.562-.627-.375-1.123-.92-1.49-1.636-.362-.716-.543-1.586-.543-2.608 0-1.006.177-1.882.531-2.627.353-.75.845-1.33 1.476-1.739.631-.413 1.36-.62 2.186-.62.639 0 1.147.107 1.522.32.379.208.669.447.869.716.204.264.362.481.473.651h.153v-1.56h1.458v10.1c0 .844-.192 1.53-.576 2.059a3.27 3.27 0 0 1-1.534 1.17c-.639.25-1.351.376-2.135.376Zm-.051-5.395c.605 0 1.117-.138 1.534-.415.418-.277.735-.675.953-1.195.217-.52.326-1.142.326-1.867 0-.707-.107-1.332-.32-1.873-.213-.54-.528-.965-.946-1.272-.418-.306-.933-.46-1.547-.46-.639 0-1.172.162-1.598.486-.422.324-.739.758-.952 1.304a5.036 5.036 0 0 0-.313 1.815c0 .682.106 1.285.319 1.81.218.519.537.928.959 1.226.426.294.955.442 1.585.442Zm10.279-4.014c0 1.611-.211 3.094-.633 4.45a13.773 13.773 0 0 1-1.796 3.732h-1.33c.307-.422.592-.942.857-1.56.268-.613.502-1.286.703-2.02.2-.737.356-1.497.466-2.281.115-.789.173-1.562.173-2.32 0-1.015-.098-2.044-.294-3.088a17.693 17.693 0 0 0-.793-2.909c-.332-.894-.703-1.623-1.112-2.186h1.33a13.75 13.75 0 0 1 1.796 3.74c.422 1.35.633 2.832.633 4.442ZM202.515 272h-2.966l4.52-13.091h3.566L212.148 272h-2.966l-3.279-10.099h-.102L202.515 272Zm-.185-5.146h7.006v2.161h-7.006v-2.161ZM213.673 272v-9.818h2.639v1.713h.103c.179-.609.479-1.07.901-1.381a2.372 2.372 0 0 1 1.457-.473 4.117 4.117 0 0 1 .857.096v2.416a3.64 3.64 0 0 0-.531-.102 4.723 4.723 0 0 0-.62-.045c-.4 0-.758.088-1.073.262a1.926 1.926 0 0 0-.742.716 2.068 2.068 0 0 0-.268 1.061V272h-2.723Zm11.344.192c-.993 0-1.852-.211-2.576-.633a4.333 4.333 0 0 1-1.668-1.777c-.393-.763-.589-1.647-.589-2.653 0-1.014.196-1.9.589-2.659a4.279 4.279 0 0 1 1.668-1.777c.724-.426 1.583-.639 2.576-.639.993 0 1.849.213 2.569.639a4.263 4.263 0 0 1 1.675 1.777c.392.759.588 1.645.588 2.659 0 1.006-.196 1.89-.588 2.653a4.317 4.317 0 0 1-1.675 1.777c-.72.422-1.576.633-2.569.633Zm.013-2.11c.451 0 .828-.127 1.131-.383.303-.26.531-.614.684-1.061.158-.448.236-.957.236-1.528 0-.571-.078-1.08-.236-1.528-.153-.447-.381-.801-.684-1.061-.303-.26-.68-.39-1.131-.39-.456 0-.84.13-1.151.39-.307.26-.539.614-.697 1.061-.153.448-.23.957-.23 1.528 0 .571.077 1.08.23 1.528.158.447.39.801.697 1.061.311.256.695.383 1.151.383Zm12.886-2.262v-5.638h2.723V272h-2.614v-1.783h-.103a2.901 2.901 0 0 1-1.105 1.387c-.512.349-1.136.524-1.873.524-.657 0-1.234-.149-1.733-.448a3.073 3.073 0 0 1-1.169-1.272c-.277-.549-.418-1.208-.422-1.975v-6.251h2.723v5.765c.004.58.16 1.038.466 1.375.307.336.719.505 1.234.505.328 0 .635-.075.921-.224.285-.153.515-.379.69-.678.179-.298.266-.666.262-1.105Zm7.624-1.496V272h-2.723v-9.818h2.595v1.732h.115a2.743 2.743 0 0 1 1.093-1.355c.512-.337 1.132-.505 1.86-.505.682 0 1.277.149 1.784.447.507.299.901.725 1.182 1.279.282.55.422 1.206.422 1.969V272h-2.723v-5.766c.004-.6-.149-1.069-.46-1.406-.311-.341-.739-.511-1.285-.511-.366 0-.69.079-.971.236a1.645 1.645 0 0 0-.652.691c-.154.298-.233.658-.237 1.08Zm12.092 5.836a3.711 3.711 0 0 1-2.026-.575c-.601-.388-1.078-.957-1.432-1.707-.349-.754-.524-1.679-.524-2.774 0-1.125.181-2.061.543-2.806.363-.75.844-1.311 1.445-1.682a3.701 3.701 0 0 1 1.988-.562c.55 0 1.008.094 1.374.281.371.183.669.414.895.691.23.272.405.541.524.805h.083v-4.922h2.717V272h-2.685v-1.572h-.115a3.527 3.527 0 0 1-.543.811 2.7 2.7 0 0 1-.901.659c-.367.174-.814.262-1.343.262Zm.863-2.167c.439 0 .81-.119 1.112-.358.307-.243.542-.582.704-1.016.166-.435.249-.944.249-1.528 0-.584-.081-1.091-.243-1.521-.162-.431-.396-.763-.703-.998-.307-.234-.68-.351-1.119-.351-.447 0-.824.121-1.131.364-.307.243-.539.58-.697 1.01-.158.431-.236.929-.236 1.496 0 .571.078 1.076.236 1.515.162.434.394.775.697 1.023.307.242.684.364 1.131.364Zm16.798-11.084V272h-2.767v-10.464h-.077l-2.998 1.879v-2.454l3.241-2.052h2.601Zm8.245 13.379c-1.1-.005-2.046-.275-2.838-.812-.789-.537-1.396-1.315-1.822-2.333-.422-1.019-.631-2.244-.627-3.676 0-1.427.211-2.644.633-3.65.426-1.005 1.034-1.77 1.822-2.294.793-.529 1.736-.793 2.832-.793 1.095 0 2.037.264 2.825.793.793.528 1.402 1.295 1.828 2.301.426 1.001.637 2.216.633 3.643 0 1.436-.213 2.664-.639 3.682-.422 1.019-1.027 1.796-1.816 2.333-.788.537-1.732.806-2.831.806Zm0-2.295c.75 0 1.348-.377 1.796-1.131.447-.755.669-1.886.665-3.395 0-.993-.103-1.819-.307-2.48-.201-.66-.486-1.157-.857-1.489a1.864 1.864 0 0 0-1.297-.499c-.746 0-1.343.373-1.79 1.119-.448.746-.673 1.862-.678 3.349 0 1.006.1 1.845.301 2.519.204.669.492 1.172.863 1.508.37.333.805.499 1.304.499Zm12.955-11.084V272h-2.768v-10.464h-.077l-2.998 1.879v-2.454l3.241-2.052h2.602Zm7.995 13.27c-.985 0-1.861-.16-2.628-.479-.762-.324-1.361-.765-1.796-1.324a3.012 3.012 0 0 1-.652-1.898c0-.545.124-1.046.371-1.502.251-.46.592-.842 1.023-1.144.43-.307.912-.503 1.444-.588v-.09a2.84 2.84 0 0 1-1.7-1.016 2.922 2.922 0 0 1-.652-1.886c0-.677.198-1.28.595-1.809.396-.532.939-.95 1.63-1.253.694-.306 1.482-.46 2.365-.46.882 0 1.668.154 2.358.46.695.307 1.24.727 1.637 1.26.396.528.596 1.129.6 1.802a2.917 2.917 0 0 1-.664 1.886 2.86 2.86 0 0 1-1.688 1.016v.09a3.32 3.32 0 0 1 1.426.588c.43.302.771.684 1.022 1.144.256.456.386.957.39 1.502a3.035 3.035 0 0 1-.658 1.898c-.435.559-1.036 1-1.803 1.324-.762.319-1.636.479-2.62.479Zm0-2.033c.438 0 .822-.079 1.15-.236.328-.162.584-.384.767-.665.188-.285.281-.614.281-.984 0-.38-.095-.714-.287-1.004a1.978 1.978 0 0 0-.78-.69 2.411 2.411 0 0 0-1.131-.256c-.422 0-.799.085-1.132.256a1.969 1.969 0 0 0-.786.69c-.188.29-.281.624-.281 1.004 0 .37.091.699.275.984.183.281.441.503.773.665.332.157.716.236 1.151.236Zm0-5.848c.366 0 .692-.075.978-.224.285-.149.509-.356.671-.62.162-.264.243-.569.243-.914a1.637 1.637 0 0 0-.908-1.502 2.059 2.059 0 0 0-.984-.224c-.371 0-.699.074-.985.224a1.658 1.658 0 0 0-.671.607 1.668 1.668 0 0 0-.236.895c0 .345.08.65.242.914.162.264.386.471.672.62.285.149.611.224.978.224Zm17.325.076v2.161h-5.97v-2.161h5.97Zm12.156-5.465V272h-2.767v-10.464h-.077l-2.998 1.879v-2.454l3.241-2.052h2.601Zm7.95 13.27c-.954 0-1.804-.164-2.55-.492-.742-.333-1.327-.789-1.758-1.368-.426-.584-.645-1.257-.658-2.02h2.787c.017.32.121.601.313.844.196.238.456.424.78.556.324.132.688.198 1.093.198.422 0 .795-.075 1.118-.224.324-.149.578-.356.761-.62.183-.264.275-.569.275-.914 0-.349-.098-.658-.294-.927-.192-.272-.469-.485-.831-.639-.358-.153-.784-.23-1.279-.23h-1.22v-2.033h1.22a2.65 2.65 0 0 0 1.106-.217c.324-.145.576-.345.755-.601.179-.26.268-.562.268-.907a1.573 1.573 0 0 0-.888-1.451 2.116 2.116 0 0 0-.972-.211 2.54 2.54 0 0 0-1.029.204 1.798 1.798 0 0 0-.748.569 1.487 1.487 0 0 0-.3.869h-2.653c.013-.754.228-1.419.645-1.994.418-.575.981-1.025 1.688-1.349.712-.328 1.515-.492 2.41-.492.903 0 1.694.164 2.371.492.678.328 1.204.772 1.579 1.33.379.554.567 1.176.563 1.866.004.733-.224 1.345-.684 1.835-.456.49-1.051.801-1.784.933v.102c.963.124 1.696.458 2.199 1.004.507.541.759 1.219.754 2.033a3.19 3.19 0 0 1-.645 1.987c-.431.58-1.025 1.036-1.784 1.368-.758.333-1.628.499-2.608.499Zm11.808 0c-.903 0-1.709-.166-2.416-.499-.703-.332-1.261-.79-1.675-1.374a3.533 3.533 0 0 1-.645-2.007h2.684c.03.507.243.918.639 1.234.397.315.868.473 1.413.473.435 0 .818-.096 1.151-.288.336-.196.598-.467.786-.812.192-.349.288-.75.288-1.201 0-.461-.098-.866-.295-1.215a2.075 2.075 0 0 0-.799-.818 2.354 2.354 0 0 0-1.169-.301 2.77 2.77 0 0 0-1.119.237 2.019 2.019 0 0 0-.837.646l-2.461-.442.62-6.903h8.003v2.263h-5.721l-.339 3.279h.077c.23-.324.577-.592 1.042-.805.464-.213.984-.32 1.559-.32.789 0 1.492.185 2.11.556.618.371 1.106.88 1.463 1.528.358.643.535 1.385.531 2.224.004.882-.2 1.666-.614 2.353a4.33 4.33 0 0 1-1.719 1.61c-.733.388-1.585.582-2.557.582Zm11.953.109c-1.099-.005-2.045-.275-2.838-.812-.788-.537-1.395-1.315-1.822-2.333-.421-1.019-.63-2.244-.626-3.676 0-1.427.211-2.644.633-3.65.426-1.005 1.033-1.77 1.822-2.294.792-.529 1.736-.793 2.831-.793s2.037.264 2.825.793c.793.528 1.402 1.295 1.829 2.301.426 1.001.637 2.216.632 3.643 0 1.436-.213 2.664-.639 3.682-.422 1.019-1.027 1.796-1.815 2.333-.788.537-1.732.806-2.832.806Zm0-2.295c.75 0 1.349-.377 1.796-1.131.448-.755.669-1.886.665-3.395 0-.993-.102-1.819-.307-2.48-.2-.66-.485-1.157-.856-1.489a1.867 1.867 0 0 0-1.298-.499c-.746 0-1.342.373-1.79 1.119-.447.746-.673 1.862-.677 3.349 0 1.006.1 1.845.3 2.519.205.669.492 1.172.863 1.508a1.89 1.89 0 0 0 1.304.499ZM264.286 294v-13.091h7.901v1.406h-6.315v4.424h5.906v1.406h-5.906v4.449h6.417V294h-8.003Zm13.443.23a3.996 3.996 0 0 1-1.694-.351 2.906 2.906 0 0 1-1.208-1.03c-.298-.451-.448-.997-.448-1.636 0-.562.111-1.018.333-1.368.221-.354.518-.631.888-.831.371-.2.78-.349 1.228-.447.451-.103.905-.183 1.361-.243.597-.077 1.08-.134 1.451-.173.375-.042.648-.113.818-.211.175-.098.262-.268.262-.511v-.051c0-.631-.172-1.121-.517-1.47-.341-.35-.859-.524-1.554-.524-.72 0-1.284.157-1.694.473-.409.315-.696.652-.863 1.009l-1.431-.511c.255-.596.596-1.061 1.022-1.393.431-.337.9-.571 1.407-.703a5.808 5.808 0 0 1 1.508-.205c.316 0 .678.038 1.087.115.413.072.812.224 1.195.454.388.23.71.577.965 1.042.256.464.384 1.086.384 1.866V294h-1.509v-1.33h-.076a2.638 2.638 0 0 1-.512.684c-.238.243-.556.45-.952.62-.396.171-.88.256-1.451.256Zm.23-1.355c.597 0 1.099-.117 1.508-.352a2.387 2.387 0 0 0 1.253-2.077v-1.381c-.064.077-.204.147-.422.211-.213.06-.46.113-.741.16a31.625 31.625 0 0 1-1.445.192 5.755 5.755 0 0 0-1.099.249 1.894 1.894 0 0 0-.818.505c-.205.222-.307.524-.307.908 0 .524.194.92.582 1.189.392.264.888.396 1.489.396Zm7.023 1.125v-9.818h1.458v1.483h.102c.179-.486.503-.88.971-1.183a2.868 2.868 0 0 1 1.586-.454c.111 0 .249.003.415.007.166.004.292.01.377.019v1.534a4.176 4.176 0 0 0-.351-.057 3.445 3.445 0 0 0-.569-.045c-.477 0-.904.1-1.279.3-.37.196-.664.469-.882.818a2.21 2.21 0 0 0-.319 1.183V294h-1.509Zm11.583-9.818v1.278h-5.088v-1.278h5.088Zm-3.605-2.352h1.508v9.358c0 .426.062.745.185.958.128.209.29.35.486.422.2.068.411.102.633.102.166 0 .303-.008.409-.025l.256-.051.307 1.355a3.085 3.085 0 0 1-.429.115 3.122 3.122 0 0 1-.696.064c-.427 0-.844-.092-1.253-.275a2.482 2.482 0 0 1-1.01-.837c-.264-.375-.396-.848-.396-1.419v-9.767Zm7.593 6.264V294h-1.508v-13.091h1.508v4.807h.128a2.77 2.77 0 0 1 1.036-1.208c.464-.303 1.082-.454 1.853-.454.669 0 1.255.134 1.758.403.503.264.893.671 1.17 1.221.281.545.422 1.24.422 2.083V294h-1.509v-6.136c0-.78-.202-1.383-.607-1.809-.401-.431-.957-.646-1.668-.646-.495 0-.938.104-1.33.313a2.286 2.286 0 0 0-.92.914c-.222.401-.333.887-.333 1.458ZM27.729 683.976h-2.966l4.52-13.091h3.566l4.513 13.091h-2.966l-3.28-10.099h-.102l-3.285 10.099Zm-.185-5.146h7.005v2.161h-7.005v-2.161Zm11.342 5.146v-9.818h2.64v1.713h.102c.18-.609.48-1.07.902-1.381a2.371 2.371 0 0 1 1.457-.473 4.138 4.138 0 0 1 .857.096v2.416a3.633 3.633 0 0 0-.531-.102 4.738 4.738 0 0 0-.62-.045c-.4 0-.758.088-1.074.262a1.933 1.933 0 0 0-.741.716 2.07 2.07 0 0 0-.269 1.061v5.555h-2.723Zm11.344.192c-.992 0-1.851-.211-2.575-.633a4.327 4.327 0 0 1-1.669-1.777c-.392-.763-.588-1.647-.588-2.653 0-1.014.196-1.9.588-2.659a4.279 4.279 0 0 1 1.669-1.777c.724-.426 1.583-.639 2.575-.639.993 0 1.85.213 2.57.639a4.267 4.267 0 0 1 1.675 1.777c.392.759.588 1.645.588 2.659 0 1.006-.196 1.89-.588 2.653a4.315 4.315 0 0 1-1.675 1.777c-.72.422-1.577.633-2.57.633Zm.013-2.11c.452 0 .83-.127 1.132-.383.302-.26.53-.614.684-1.061.157-.448.236-.957.236-1.528 0-.571-.079-1.08-.236-1.528-.154-.447-.382-.801-.684-1.061-.303-.26-.68-.39-1.132-.39-.456 0-.84.13-1.15.39-.307.26-.54.614-.697 1.061-.154.448-.23.957-.23 1.528 0 .571.077 1.08.23 1.528.158.447.39.801.697 1.061.31.256.694.383 1.15.383Zm12.887-2.262v-5.638h2.723v9.818h-2.615v-1.783h-.102a2.903 2.903 0 0 1-1.106 1.387c-.511.349-1.136.524-1.873.524-.656 0-1.233-.149-1.732-.448a3.073 3.073 0 0 1-1.17-1.272c-.277-.549-.417-1.208-.422-1.975v-6.251h2.723v5.766c.005.579.16 1.037.467 1.374.307.336.718.505 1.234.505.328 0 .635-.075.92-.224.286-.153.516-.379.69-.677.18-.299.267-.667.263-1.106Zm7.624-1.496v5.676H68.03v-9.818h2.595v1.732h.115a2.738 2.738 0 0 1 1.093-1.355c.511-.337 1.131-.505 1.86-.505.682 0 1.276.149 1.783.447.507.299.902.725 1.183 1.279.281.55.422 1.206.422 1.969v6.251h-2.723v-5.766c.004-.6-.15-1.069-.46-1.406-.311-.341-.74-.511-1.285-.511-.367 0-.69.079-.972.236a1.65 1.65 0 0 0-.652.691c-.153.298-.232.658-.236 1.08Zm12.092 5.836a3.71 3.71 0 0 1-2.026-.575c-.601-.388-1.078-.957-1.432-1.707-.35-.754-.524-1.679-.524-2.774 0-1.125.18-2.061.543-2.806.362-.75.844-1.311 1.445-1.681a3.702 3.702 0 0 1 1.987-.563c.55 0 1.008.094 1.375.281.37.184.669.414.895.691.23.272.404.541.524.805h.083v-4.922h2.717v13.091h-2.685v-1.572h-.115a3.512 3.512 0 0 1-.543.811c-.23.265-.531.484-.902.659-.366.175-.814.262-1.342.262Zm.863-2.167c.439 0 .81-.119 1.112-.358.307-.243.541-.582.703-1.016.166-.435.25-.944.25-1.528 0-.584-.082-1.091-.243-1.521-.162-.431-.397-.763-.704-.997-.306-.235-.68-.352-1.118-.352-.448 0-.825.121-1.132.364-.306.243-.539.58-.696 1.01-.158.431-.237.929-.237 1.496 0 .571.079 1.076.237 1.515.162.435.394.775.696 1.023.307.243.684.364 1.132.364Zm11.103 2.007v-1.994l4.66-4.315a18 18 0 0 0 .997-1.035c.272-.307.479-.608.62-.902.14-.298.211-.62.211-.965 0-.383-.088-.714-.262-.991a1.725 1.725 0 0 0-.716-.645 2.239 2.239 0 0 0-1.03-.23c-.4 0-.75.081-1.048.243a1.67 1.67 0 0 0-.69.696c-.162.303-.243.663-.243 1.081h-2.627c0-.857.194-1.601.582-2.231a3.882 3.882 0 0 1 1.63-1.464c.698-.345 1.504-.518 2.416-.518.937 0 1.753.166 2.448.499.699.328 1.242.784 1.63 1.368.388.583.582 1.253.582 2.007 0 .494-.098.982-.294 1.464-.192.481-.535 1.016-1.03 1.604-.494.584-1.191 1.285-2.09 2.103l-1.911 1.873v.089h5.497v2.263h-9.332Zm16.47.288c-1.099-.005-2.045-.275-2.838-.812-.788-.537-1.395-1.315-1.821-2.333-.422-1.019-.631-2.244-.627-3.676 0-1.427.211-2.644.633-3.649.426-1.006 1.033-1.771 1.822-2.295.792-.529 1.736-.793 2.831-.793 1.096 0 2.037.264 2.826.793.792.528 1.402 1.295 1.828 2.301.426 1.001.637 2.216.633 3.643 0 1.436-.213 2.664-.64 3.682-.421 1.019-1.026 1.796-1.815 2.333-.788.537-1.732.806-2.832.806Zm0-2.295c.75 0 1.349-.377 1.797-1.131.447-.755.669-1.886.664-3.395 0-.992-.102-1.819-.306-2.48-.201-.66-.486-1.157-.857-1.489a1.87 1.87 0 0 0-1.298-.499c-.745 0-1.342.373-1.789 1.119-.448.746-.674 1.862-.678 3.349 0 1.006.1 1.846.301 2.519.204.669.492 1.172.862 1.508a1.89 1.89 0 0 0 1.304.499Zm12.956-11.084v13.091h-2.768v-10.464h-.077l-2.998 1.88v-2.455l3.241-2.052h2.602Zm3.111 13.091v-1.994l4.66-4.315a18 18 0 0 0 .997-1.035c.273-.307.479-.608.62-.902.14-.298.211-.62.211-.965 0-.383-.088-.714-.262-.991a1.725 1.725 0 0 0-.716-.645 2.239 2.239 0 0 0-1.029-.23c-.401 0-.75.081-1.049.243a1.671 1.671 0 0 0-.69.696c-.162.303-.243.663-.243 1.081h-2.627c0-.857.194-1.601.582-2.231a3.883 3.883 0 0 1 1.63-1.464c.699-.345 1.504-.518 2.416-.518.937 0 1.753.166 2.448.499.699.328 1.242.784 1.63 1.368.388.583.582 1.253.582 2.007 0 .494-.098.982-.294 1.464-.192.481-.535 1.016-1.029 1.604-.495.584-1.192 1.285-2.091 2.103l-1.911 1.873v.089h5.497v2.263h-9.332ZM10.816 694.291v-1.406h9.818v1.406h-4.116v11.685h-1.585v-11.685h-4.117Zm13.569 5.779v5.906h-1.509v-13.091h1.509v4.807h.128c.23-.507.575-.91 1.035-1.208.465-.303 1.083-.454 1.854-.454.67 0 1.255.134 1.758.403.503.264.893.671 1.17 1.221.28.545.422 1.24.422 2.083v6.239h-1.509v-6.136c0-.78-.202-1.383-.607-1.809-.4-.431-.957-.646-1.669-.646-.494 0-.937.105-1.33.313a2.294 2.294 0 0 0-.92.914c-.221.401-.332.887-.332 1.458Zm13.243 6.111c-.946 0-1.762-.209-2.448-.627a4.207 4.207 0 0 1-1.58-1.764c-.366-.759-.549-1.641-.549-2.646 0-1.006.183-1.892.55-2.659.37-.772.886-1.373 1.547-1.803.664-.435 1.44-.652 2.326-.652a4.64 4.64 0 0 1 1.515.256c.499.17.953.447 1.362.831.409.379.735.882.978 1.508.243.627.364 1.398.364 2.314v.639h-7.568v-1.304h6.034c0-.554-.11-1.048-.332-1.483a2.512 2.512 0 0 0-.934-1.029c-.4-.251-.873-.377-1.419-.377-.6 0-1.12.149-1.56.448a2.942 2.942 0 0 0-1.003 1.15c-.234.473-.351.98-.351 1.521v.87c0 .741.127 1.37.383 1.885.26.512.62.902 1.08 1.17.46.264.995.397 1.605.397.396 0 .754-.056 1.074-.167a2.29 2.29 0 0 0 .837-.511 2.33 2.33 0 0 0 .543-.857l1.458.41a3.23 3.23 0 0 1-.774 1.303 3.77 3.77 0 0 1-1.342.87 4.993 4.993 0 0 1-1.796.307Zm12.164-.205H48.13l4.807-13.091h1.636l4.807 13.091h-1.662l-3.912-11.02h-.102l-3.912 11.02Zm.613-5.114h6.7v1.407h-6.7v-1.407Zm12.318-.792v5.906h-1.509v-9.818h1.458v1.534h.128c.23-.499.58-.899 1.048-1.202.469-.307 1.074-.46 1.815-.46.665 0 1.247.136 1.745.409.499.269.887.678 1.164 1.227.277.546.415 1.236.415 2.071v6.239H67.48v-6.136c0-.772-.2-1.372-.601-1.803-.4-.435-.95-.652-1.65-.652-.48 0-.911.105-1.29.313a2.245 2.245 0 0 0-.89.914c-.216.401-.325.887-.325 1.458Zm13.01 6.111c-.921 0-1.714-.218-2.379-.652-.664-.435-1.176-1.034-1.534-1.797-.358-.762-.536-1.634-.536-2.614 0-.997.183-1.877.55-2.64.37-.767.885-1.366 1.546-1.796.665-.435 1.44-.652 2.327-.652.69 0 1.312.128 1.866.384a3.568 3.568 0 0 1 1.362 1.073c.353.461.573.998.658 1.611h-1.508c-.115-.447-.371-.844-.767-1.189-.392-.349-.92-.524-1.586-.524-.588 0-1.103.154-1.547.46-.439.303-.782.731-1.029 1.285-.243.55-.364 1.196-.364 1.937 0 .759.12 1.419.358 1.982.243.562.584.999 1.023 1.31.443.311.963.467 1.56.467a2.7 2.7 0 0 0 1.067-.205c.32-.136.59-.332.812-.588.221-.256.379-.563.473-.921h1.508a3.49 3.49 0 0 1-.633 1.566 3.532 3.532 0 0 1-1.323 1.1c-.545.268-1.18.403-1.905.403Zm6.065-.205v-9.818h1.509v9.818h-1.509Zm.767-11.454c-.294 0-.547-.101-.76-.301a.964.964 0 0 1-.313-.722c0-.281.104-.522.313-.723.213-.2.466-.3.76-.3s.546.1.755.3a.96.96 0 0 1 .32.723.956.956 0 0 1-.32.722c-.21.2-.46.301-.755.301Zm7.621 11.659c-.946 0-1.762-.209-2.448-.627a4.207 4.207 0 0 1-1.579-1.764c-.366-.759-.55-1.641-.55-2.646 0-1.006.184-1.892.55-2.659.371-.772.887-1.373 1.547-1.803.665-.435 1.44-.652 2.327-.652a4.64 4.64 0 0 1 1.515.256c.498.17.952.447 1.361.831.41.379.735.882.978 1.508.243.627.365 1.398.365 2.314v.639h-7.569v-1.304h6.035c0-.554-.111-1.048-.333-1.483a2.512 2.512 0 0 0-.933-1.029c-.4-.251-.874-.377-1.42-.377-.6 0-1.12.149-1.559.448a2.942 2.942 0 0 0-1.003 1.15 3.38 3.38 0 0 0-.352 1.521v.87c0 .741.128 1.37.384 1.885.26.512.62.902 1.08 1.17.46.264.995.397 1.604.397.397 0 .755-.056 1.074-.167.324-.115.603-.285.838-.511a2.33 2.33 0 0 0 .543-.857l1.457.41a3.23 3.23 0 0 1-.773 1.303 3.77 3.77 0 0 1-1.343.87c-.532.204-1.13.307-1.796.307Zm7.869-6.111v5.906h-1.509v-9.818h1.458v1.534h.128c.23-.499.58-.899 1.048-1.202.469-.307 1.074-.46 1.815-.46.665 0 1.247.136 1.745.409.499.269.887.678 1.164 1.227.277.546.415 1.236.415 2.071v6.239h-1.508v-6.136c0-.772-.201-1.372-.601-1.803-.401-.435-.951-.652-1.649-.652-.482 0-.912.105-1.292.313a2.246 2.246 0 0 0-.888.914c-.217.401-.326.887-.326 1.458Zm13.291-3.912v1.278h-5.088v-1.278h5.088Zm-3.606-2.352h1.509v9.358c0 .426.062.745.185.958.128.209.29.35.486.422.2.068.411.103.633.103.166 0 .303-.009.409-.026l.256-.051.307 1.355a3.085 3.085 0 0 1-.429.115 3.122 3.122 0 0 1-.696.064c-.427 0-.844-.092-1.253-.275a2.482 2.482 0 0 1-1.01-.837c-.264-.375-.397-.848-.397-1.419v-9.767Zm22.187 5.625c0 1.38-.249 2.573-.748 3.579-.498 1.006-1.182 1.781-2.051 2.327-.87.545-1.863.818-2.979.818-1.117 0-2.11-.273-2.979-.818-.869-.546-1.553-1.321-2.052-2.327-.498-1.006-.748-2.199-.748-3.579 0-1.381.25-2.574.748-3.58.499-1.006 1.183-1.781 2.052-2.327.869-.545 1.862-.818 2.979-.818 1.116 0 2.109.273 2.979.818.869.546 1.553 1.321 2.051 2.327.499 1.006.748 2.199.748 3.58Zm-1.534 0c0-1.134-.189-2.091-.569-2.87-.375-.78-.884-1.37-1.527-1.771a3.962 3.962 0 0 0-2.148-.601c-.793 0-1.511.2-2.154.601-.639.401-1.149.991-1.528 1.771-.375.779-.562 1.736-.562 2.87 0 1.133.187 2.09.562 2.87.379.779.889 1.37 1.528 1.77a3.987 3.987 0 0 0 2.154.601c.792 0 1.508-.2 2.148-.601.643-.4 1.152-.991 1.527-1.77.38-.78.569-1.737.569-2.87Zm5.504.639v5.906h-1.509v-9.818h1.458v1.534h.127a2.81 2.81 0 0 1 1.049-1.202c.468-.307 1.074-.46 1.815-.46.665 0 1.247.136 1.745.409.499.269.886.678 1.163 1.227.277.546.416 1.236.416 2.071v6.239h-1.509v-6.136c0-.772-.2-1.372-.6-1.803-.401-.435-.951-.652-1.65-.652-.481 0-.912.105-1.291.313a2.242 2.242 0 0 0-.888.914c-.218.401-.326.887-.326 1.458Zm13.137 6.111c-.946 0-1.762-.209-2.448-.627a4.207 4.207 0 0 1-1.579-1.764c-.366-.759-.55-1.641-.55-2.646 0-1.006.184-1.892.55-2.659.371-.772.886-1.373 1.547-1.803.665-.435 1.44-.652 2.327-.652.511 0 1.016.085 1.514.256.499.17.953.447 1.362.831.409.379.735.882.978 1.508.243.627.364 1.398.364 2.314v.639h-7.568v-1.304h6.034c0-.554-.111-1.048-.332-1.483a2.515 2.515 0 0 0-.933-1.029c-.401-.251-.874-.377-1.419-.377-.601 0-1.121.149-1.56.448a2.945 2.945 0 0 0-1.004 1.15c-.234.473-.351.98-.351 1.521v.87c0 .741.128 1.37.383 1.885.26.512.62.902 1.081 1.17.46.264.995.397 1.604.397.396 0 .754-.056 1.074-.167a2.29 2.29 0 0 0 .837-.511c.235-.23.416-.516.544-.857l1.457.41a3.218 3.218 0 0 1-.774 1.303 3.764 3.764 0 0 1-1.342.87c-.533.204-1.131.307-1.796.307Zm-125.343 15.25c0-1.611.209-3.092.626-4.443a13.862 13.862 0 0 1 1.803-3.739h1.33a8.257 8.257 0 0 0-.864 1.559 15.24 15.24 0 0 0-.696 2.027c-.2.733-.358 1.491-.473 2.275a16.547 16.547 0 0 0-.167 2.321c0 1.014.098 2.043.294 3.087a17.75 17.75 0 0 0 .793 2.908c.332.895.703 1.624 1.112 2.186h-1.33a13.868 13.868 0 0 1-1.802-3.733c-.417-1.355-.626-2.838-.626-4.448Zm6.189 6.545v-13.091h4.577c.911 0 1.664.158 2.256.473.592.311 1.033.731 1.323 1.259.29.525.435 1.106.435 1.745 0 .563-.1 1.027-.3 1.394a2.339 2.339 0 0 1-.78.869c-.32.213-.667.371-1.042.473v.128c.4.026.803.166 1.208.422.404.256.743.622 1.016 1.099.273.478.41 1.061.41 1.752 0 .656-.15 1.246-.448 1.77-.299.525-.77.94-1.413 1.247-.643.307-1.48.46-2.512.46h-4.73Zm1.585-1.406h3.145c1.035 0 1.77-.2 2.205-.601.44-.405.659-.895.659-1.47 0-.443-.113-.852-.34-1.227a2.447 2.447 0 0 0-.964-.908c-.418-.23-.912-.345-1.483-.345h-3.222v4.551Zm0-5.932h2.94a2.91 2.91 0 0 0 1.292-.281c.387-.188.694-.452.92-.793.23-.341.345-.741.345-1.202 0-.575-.2-1.063-.6-1.463-.401-.405-1.036-.608-1.905-.608h-2.992v4.347Zm12.807 7.568a3.995 3.995 0 0 1-1.694-.351 2.913 2.913 0 0 1-1.208-1.029c-.299-.452-.448-.998-.448-1.637 0-.562.11-1.018.333-1.368a2.35 2.35 0 0 1 .888-.831c.37-.2.78-.349 1.227-.447.452-.102.906-.183 1.362-.243.596-.077 1.08-.134 1.45-.173.376-.042.648-.113.819-.211.175-.098.262-.268.262-.511v-.051c0-.631-.173-1.121-.518-1.47-.34-.35-.858-.524-1.553-.524-.72 0-1.285.157-1.694.473-.409.315-.697.652-.863 1.01l-1.432-.512c.256-.596.597-1.061 1.023-1.393.43-.337.9-.571 1.406-.703a5.812 5.812 0 0 1 1.509-.205c.315 0 .677.038 1.087.115.413.073.811.224 1.195.454.388.23.71.577.965 1.042.256.464.384 1.086.384 1.866v6.469h-1.509v-1.329h-.077a2.638 2.638 0 0 1-.511.683c-.239.243-.556.45-.952.621-.397.17-.88.255-1.451.255Zm.23-1.355c.596 0 1.1-.117 1.508-.351a2.397 2.397 0 0 0 1.253-2.078v-1.381c-.064.077-.204.147-.422.211-.213.06-.46.113-.741.16a31.487 31.487 0 0 1-1.445.192 5.758 5.758 0 0 0-1.1.249 1.9 1.9 0 0 0-.818.505c-.204.222-.306.524-.306.908 0 .524.194.92.581 1.189.392.264.889.396 1.49.396Zm11.293-8.693v1.278h-5.088v-1.278h5.088Zm-3.605-2.352h1.508v9.358c0 .426.062.745.186.958.127.209.29.35.485.422.2.068.412.103.633.103.166 0 .303-.009.41-.026l.255-.051.307 1.355a3.07 3.07 0 0 1-.428.115 3.129 3.129 0 0 1-.697.064 3.04 3.04 0 0 1-1.253-.275 2.486 2.486 0 0 1-1.01-.837c-.264-.375-.396-.848-.396-1.419v-9.767Zm10.144 2.352v1.278h-5.088v-1.278h5.088Zm-3.605-2.352h1.508v9.358c0 .426.062.745.186.958.127.209.29.35.485.422.2.068.412.103.633.103.167 0 .303-.009.41-.026l.255-.051.307 1.355a3.074 3.074 0 0 1-.428.115 3.129 3.129 0 0 1-.697.064 3.04 3.04 0 0 1-1.253-.275 2.486 2.486 0 0 1-1.01-.837c-.264-.375-.396-.848-.396-1.419v-9.767Zm7.594-.921v13.091h-1.509v-13.091h1.509Zm6.879 13.296c-.946 0-1.762-.209-2.448-.627a4.206 4.206 0 0 1-1.579-1.764c-.367-.759-.55-1.641-.55-2.646 0-1.006.183-1.892.55-2.659.37-.772.886-1.373 1.547-1.803.665-.435 1.44-.652 2.327-.652a4.64 4.64 0 0 1 1.514.256c.499.17.953.447 1.362.831.41.379.735.882.978 1.508.243.627.364 1.398.364 2.314v.639H67.7v-1.304h6.034c0-.554-.11-1.048-.332-1.483a2.512 2.512 0 0 0-.933-1.029c-.401-.251-.874-.377-1.42-.377-.6 0-1.12.149-1.56.448a2.95 2.95 0 0 0-1.003 1.15 3.38 3.38 0 0 0-.351 1.521v.87c0 .741.128 1.37.383 1.885.26.512.62.902 1.08 1.17.46.264.996.397 1.605.397.396 0 .754-.056 1.074-.167a2.29 2.29 0 0 0 .837-.511c.235-.23.416-.516.543-.857l1.458.41a3.23 3.23 0 0 1-.774 1.303 3.77 3.77 0 0 1-1.342.87c-.533.204-1.131.307-1.796.307Zm15.411 0c-.886 0-1.664-.211-2.333-.633-.665-.422-1.185-1.012-1.56-1.771-.37-.758-.556-1.645-.556-2.659 0-1.023.186-1.915.556-2.678.375-.763.895-1.355 1.56-1.777.67-.422 1.447-.633 2.333-.633.886 0 1.662.211 2.327.633.669.422 1.189 1.014 1.56 1.777.374.763.562 1.655.562 2.678 0 1.014-.188 1.901-.563 2.659-.37.759-.89 1.349-1.56 1.771-.664.422-1.44.633-2.326.633Zm0-1.355c.674 0 1.227-.173 1.662-.518a3.05 3.05 0 0 0 .965-1.362 5.211 5.211 0 0 0 .314-1.828 5.26 5.26 0 0 0-.314-1.834 3.096 3.096 0 0 0-.965-1.375c-.435-.349-.989-.524-1.662-.524-.673 0-1.227.175-1.662.524-.434.35-.756.808-.965 1.375a5.26 5.26 0 0 0-.313 1.834c0 .656.104 1.266.313 1.828.209.563.53 1.017.965 1.362.435.345.989.518 1.662.518Zm11.124-8.668v1.278h-5.293v-1.278h5.293Zm-3.707 9.818v-11.173c0-.563.132-1.031.396-1.406a2.452 2.452 0 0 1 1.029-.844 3.244 3.244 0 0 1 1.336-.281c.37 0 .673.029.908.089.234.06.409.115.524.166l-.435 1.304a9.745 9.745 0 0 0-.32-.096 1.956 1.956 0 0 0-.524-.057c-.498 0-.858.125-1.08.377-.217.251-.326.62-.326 1.106v10.815H94.03Zm21.469-13.091v13.091h-1.534l-7.134-10.278h-.128v10.278h-1.585v-13.091h1.534l7.159 10.304h.128v-10.304h1.56Zm7.084 13.296c-.946 0-1.762-.209-2.448-.627a4.207 4.207 0 0 1-1.579-1.764c-.367-.759-.55-1.641-.55-2.646 0-1.006.183-1.892.55-2.659.371-.772.886-1.373 1.547-1.803.664-.435 1.44-.652 2.326-.652.512 0 1.017.085 1.515.256.499.17.953.447 1.362.831.409.379.735.882.978 1.508.243.627.364 1.398.364 2.314v.639h-7.568v-1.304h6.034c0-.554-.111-1.048-.332-1.483a2.517 2.517 0 0 0-.934-1.029c-.4-.251-.873-.377-1.419-.377-.6 0-1.12.149-1.559.448a2.945 2.945 0 0 0-1.004 1.15c-.234.473-.351.98-.351 1.521v.87c0 .741.127 1.37.383 1.885.26.512.62.902 1.08 1.17.461.264.995.397 1.605.397.396 0 .754-.056 1.074-.167a2.29 2.29 0 0 0 .837-.511c.234-.23.416-.516.543-.857l1.458.41a3.229 3.229 0 0 1-.774 1.303 3.764 3.764 0 0 1-1.342.87c-.533.204-1.131.307-1.796.307Zm8.584-.205-2.991-9.818h1.585l2.122 7.517h.103l2.096-7.517h1.611l2.071 7.491h.102l2.122-7.491h1.586l-2.992 9.818h-1.483l-2.148-7.543h-.153l-2.148 7.543h-1.483Zm-71.893 8.909h1.816l3.63 6.111h.154l3.63-6.111h1.816l-4.73 7.696v5.395h-1.586v-5.395l-4.73-7.696Zm15.492 13.296c-.887 0-1.665-.211-2.334-.633-.664-.422-1.184-1.012-1.56-1.771-.37-.758-.555-1.645-.555-2.659 0-1.023.185-1.915.556-2.678.375-.763.895-1.355 1.56-1.777.668-.422 1.446-.633 2.332-.633.887 0 1.662.211 2.327.633.67.422 1.19 1.014 1.56 1.777.375.763.562 1.655.562 2.678 0 1.014-.187 1.901-.562 2.659-.37.759-.89 1.349-1.56 1.771-.665.422-1.44.633-2.326.633Zm0-1.355c.673 0 1.227-.173 1.661-.518a3.05 3.05 0 0 0 .966-1.362 5.211 5.211 0 0 0 .313-1.828 5.26 5.26 0 0 0-.313-1.834 3.097 3.097 0 0 0-.966-1.375c-.434-.349-.988-.524-1.662-.524-.673 0-1.227.175-1.661.524-.435.35-.757.808-.966 1.375a5.26 5.26 0 0 0-.313 1.834c0 .656.105 1.266.313 1.828a3.05 3.05 0 0 0 .966 1.362c.434.345.988.518 1.662.518Zm6.751 1.15v-9.818h1.458v1.483h.102c.179-.486.503-.88.971-1.183a2.864 2.864 0 0 1 1.586-.454c.11 0 .249.003.415.007.166.004.292.011.377.019v1.534a4.191 4.191 0 0 0-.351-.057 3.44 3.44 0 0 0-.57-.045c-.477 0-.903.1-1.278.3a2.27 2.27 0 0 0-.882.818 2.21 2.21 0 0 0-.32 1.183v6.213h-1.508Zm8.104-3.579-.026-1.867h.307l4.295-4.372h1.867l-4.577 4.628h-.128l-1.738 1.611Zm-1.407 3.579v-13.091h1.509v13.091h-1.509Zm6.239 0-3.835-4.858 1.074-1.048 4.679 5.906h-1.918Zm6.774-5.523c0 1.611-.211 3.094-.633 4.449a13.721 13.721 0 0 1-1.796 3.733h-1.33a8.03 8.03 0 0 0 .857-1.559c.269-.614.503-1.287.703-2.02.2-.738.356-1.498.467-2.282a16.06 16.06 0 0 0 .172-2.321c0-1.014-.098-2.043-.294-3.087a17.723 17.723 0 0 0-.792-2.908c-.333-.895-.703-1.624-1.112-2.186h1.329a13.688 13.688 0 0 1 1.796 3.739c.422 1.351.633 2.832.633 4.442Zm138.293 91.412v-1.994l4.66-4.315c.396-.383.729-.728.997-1.035a3.89 3.89 0 0 0 .62-.902c.141-.298.211-.62.211-.965 0-.383-.087-.713-.262-.99a1.715 1.715 0 0 0-.716-.646 2.245 2.245 0 0 0-1.029-.23c-.401 0-.75.081-1.048.243a1.674 1.674 0 0 0-.691.696c-.162.303-.242.663-.242 1.081h-2.628c0-.857.194-1.6.582-2.231a3.883 3.883 0 0 1 1.63-1.464c.699-.345 1.504-.518 2.416-.518.938 0 1.754.167 2.448.499.699.328 1.243.784 1.63 1.368.388.584.582 1.253.582 2.007 0 .494-.098.982-.294 1.464-.192.481-.535 1.016-1.029 1.604-.494.584-1.191 1.285-2.09 2.103l-1.912 1.873v.089h5.498v2.263h-9.333Zm16.471.288c-1.1-.004-2.046-.275-2.838-.812-.789-.537-1.396-1.315-1.822-2.333-.422-1.018-.631-2.244-.626-3.675 0-1.428.211-2.645.633-3.65.426-1.006 1.033-1.771 1.821-2.295.793-.528 1.737-.793 2.832-.793 1.095 0 2.037.265 2.825.793.793.528 1.402 1.295 1.828 2.301.426 1.002.637 2.216.633 3.644 0 1.436-.213 2.663-.639 3.681-.422 1.019-1.027 1.797-1.815 2.333-.789.537-1.733.806-2.832.806Zm0-2.295c.75 0 1.349-.377 1.796-1.131.448-.755.669-1.886.665-3.394 0-.993-.102-1.82-.307-2.481-.2-.66-.486-1.157-.856-1.489a1.872 1.872 0 0 0-1.298-.498c-.746 0-1.342.372-1.79 1.118-.447.746-.673 1.862-.677 3.35 0 1.005.1 1.845.3 2.518.205.669.492 1.172.863 1.509.371.332.805.498 1.304.498Zm12.955-11.084v13.091h-2.768v-10.464h-.076l-2.998 1.88v-2.455l3.24-2.052h2.602Zm8.135 13.27a5.896 5.896 0 0 1-1.949-.339 4.433 4.433 0 0 1-1.675-1.08c-.494-.498-.886-1.159-1.176-1.981-.285-.823-.428-1.833-.428-3.03.004-1.1.13-2.082.377-2.947.251-.869.609-1.606 1.074-2.212a4.697 4.697 0 0 1 1.681-1.38c.652-.32 1.383-.48 2.192-.48.874 0 1.645.171 2.314.512a4.252 4.252 0 0 1 1.611 1.374c.409.58.656 1.229.742 1.95h-2.73c-.106-.456-.33-.814-.671-1.074-.341-.26-.763-.39-1.266-.39-.852 0-1.5.371-1.943 1.112-.439.741-.662 1.749-.671 3.023h.089c.197-.387.461-.718.793-.99a3.623 3.623 0 0 1 1.144-.633 4.14 4.14 0 0 1 1.362-.224c.775 0 1.466.183 2.071.55a3.902 3.902 0 0 1 1.432 1.496c.349.635.524 1.361.524 2.179 0 .887-.207 1.675-.62 2.365a4.29 4.29 0 0 1-1.72 1.624c-.733.388-1.585.579-2.557.575Zm-.012-2.173a2.156 2.156 0 0 0 1.936-1.138c.192-.349.288-.741.288-1.176 0-.435-.096-.825-.288-1.17a2.125 2.125 0 0 0-1.917-1.131 2.2 2.2 0 0 0-.889.179 2.222 2.222 0 0 0-.709.498 2.405 2.405 0 0 0-.358 2.787c.196.35.46.629.793.838.336.209.718.313 1.144.313Zm-58.456 23.994h-4.039v-13.091h4.218c1.27 0 2.357.262 3.26.787.904.519 1.596 1.267 2.078 2.243.481.972.722 2.135.722 3.49 0 1.364-.243 2.538-.729 3.522a5.186 5.186 0 0 1-2.122 2.263c-.929.524-2.058.786-3.388.786Zm-2.454-1.406h2.352c1.083 0 1.98-.209 2.691-.626a3.867 3.867 0 0 0 1.592-1.784c.349-.771.524-1.689.524-2.755 0-1.057-.173-1.966-.518-2.729-.345-.767-.861-1.355-1.547-1.764-.686-.414-1.54-.62-2.563-.62h-2.531v10.278Zm11.148 1.406v-9.818h1.457v1.483h.102c.179-.486.503-.88.972-1.183a2.864 2.864 0 0 1 1.585-.453c.111 0 .249.002.416.006.166.004.291.011.377.019v1.534a4.731 4.731 0 0 0-.352-.057 3.436 3.436 0 0 0-.569-.045c-.477 0-.903.1-1.278.3a2.204 2.204 0 0 0-1.202 2.001v6.213h-1.508Zm6.671.103c-.315 0-.586-.113-.811-.339a1.108 1.108 0 0 1-.339-.812c0-.315.113-.586.339-.812.225-.226.496-.339.811-.339.316 0 .586.113.812.339.226.226.339.497.339.812 0 .209-.053.401-.16.575a1.19 1.19 0 0 1-.415.422 1.103 1.103 0 0 1-.576.154Zm16.284-9.921a2.005 2.005 0 0 0-.933-1.508c-.546-.358-1.215-.537-2.007-.537-.58 0-1.087.093-1.522.281-.43.187-.767.445-1.01.773a1.857 1.857 0 0 0-.357 1.119c0 .349.083.65.249.901.17.247.388.454.652.62.264.162.541.296.831.403.29.102.556.185.799.249l1.329.358c.341.09.72.213 1.138.371.422.158.825.373 1.208.645.388.269.708.614.959 1.036.251.422.377.94.377 1.553 0 .708-.185 1.347-.556 1.918-.366.571-.903 1.025-1.611 1.361-.703.337-1.557.505-2.563.505-.937 0-1.749-.151-2.435-.453-.682-.303-1.219-.725-1.611-1.266-.388-.541-.607-1.17-.659-1.886h1.637c.042.495.209.904.498 1.228.294.319.665.558 1.113.715.451.154.937.231 1.457.231.605 0 1.148-.098 1.63-.295.482-.2.863-.477 1.144-.83.281-.358.422-.776.422-1.253 0-.435-.121-.789-.364-1.061a2.67 2.67 0 0 0-.959-.665c-.396-.171-.825-.32-1.285-.448l-1.611-.46c-1.022-.294-1.832-.714-2.429-1.259-.596-.546-.895-1.259-.895-2.141 0-.733.199-1.373.595-1.918.4-.55.937-.976 1.611-1.278.677-.307 1.434-.461 2.269-.461.844 0 1.594.152 2.25.454.656.298 1.176.708 1.56 1.227.387.52.592 1.111.613 1.771h-1.534Zm8.385 0v1.278h-5.088v-1.278h5.088Zm-3.605-2.352h1.508v9.358c0 .426.062.745.186.959a.955.955 0 0 0 .485.421c.201.069.412.103.633.103.166 0 .303-.009.409-.026l.256-.051.307 1.355a3.064 3.064 0 0 1-.428.115 3.138 3.138 0 0 1-.697.064c-.426 0-.844-.092-1.253-.275a2.482 2.482 0 0 1-1.01-.837c-.264-.375-.396-.848-.396-1.419v-9.767Zm5.874 12.17v-9.818h1.457v1.483h.103c.179-.486.502-.88.971-1.183a2.864 2.864 0 0 1 1.585-.453c.111 0 .25.002.416.006.166.004.292.011.377.019v1.534a4.67 4.67 0 0 0-.351-.057 3.445 3.445 0 0 0-.569-.045c-.478 0-.904.1-1.279.3a2.26 2.26 0 0 0-.882.819 2.203 2.203 0 0 0-.319 1.182v6.213h-1.509Zm9.586.23a3.991 3.991 0 0 1-1.693-.351 2.914 2.914 0 0 1-1.209-1.029c-.298-.452-.447-.997-.447-1.637 0-.562.111-1.018.332-1.368a2.36 2.36 0 0 1 .889-.831c.371-.2.78-.349 1.227-.447.452-.102.906-.183 1.362-.243.596-.077 1.08-.134 1.451-.172.375-.043.647-.113.818-.211.175-.098.262-.269.262-.512v-.051c0-.631-.173-1.121-.518-1.47-.341-.35-.858-.524-1.553-.524-.72 0-1.285.157-1.694.473-.409.315-.697.652-.863 1.01l-1.432-.512c.256-.596.597-1.061 1.023-1.393.43-.337.899-.571 1.406-.703a5.815 5.815 0 0 1 1.509-.205c.315 0 .677.039 1.086.115.414.073.812.224 1.196.454.388.23.709.578.965 1.042.256.464.383 1.087.383 1.866v6.469h-1.508v-1.329h-.077a2.642 2.642 0 0 1-.511.684c-.239.243-.556.449-.953.62-.396.17-.88.255-1.451.255Zm.231-1.355c.596 0 1.099-.117 1.508-.351.413-.235.725-.537.933-.908.213-.371.32-.761.32-1.17v-1.38c-.064.076-.205.147-.422.211a7.34 7.34 0 0 1-.741.159 31.625 31.625 0 0 1-1.445.192 5.737 5.737 0 0 0-1.099.249c-.337.111-.61.279-.819.505-.204.222-.306.524-.306.908 0 .524.193.92.581 1.189.392.264.889.396 1.49.396Zm8.531-4.781v5.906h-1.508v-9.818h1.457v1.534h.128c.23-.498.58-.899 1.048-1.202.469-.306 1.074-.46 1.816-.46.664 0 1.246.137 1.745.409.498.269.886.678 1.163 1.228.277.545.416 1.235.416 2.071v6.238h-1.509v-6.136c0-.771-.2-1.372-.601-1.803-.4-.434-.95-.652-1.649-.652a2.63 2.63 0 0 0-1.291.314 2.239 2.239 0 0 0-.889.914c-.217.4-.326.886-.326 1.457Zm12.984 9.793c-.728 0-1.355-.094-1.879-.282-.524-.183-.961-.426-1.31-.728a3.993 3.993 0 0 1-.825-.959l1.202-.844c.136.179.309.384.517.614.209.234.495.437.857.607.366.175.846.262 1.438.262.793 0 1.447-.192 1.963-.575.515-.384.773-.985.773-1.803v-1.994h-.128c-.111.179-.268.4-.473.665-.2.26-.49.492-.869.696-.375.201-.882.301-1.521.301-.793 0-1.505-.188-2.135-.563-.627-.375-1.123-.92-1.49-1.636-.362-.716-.543-1.585-.543-2.608 0-1.006.177-1.881.53-2.627.354-.75.846-1.33 1.477-1.739.631-.413 1.359-.62 2.186-.62.639 0 1.146.107 1.521.32.38.209.669.447.87.716.204.264.362.481.473.652h.153v-1.56h1.458v10.099c0 .844-.192 1.53-.576 2.059-.379.532-.89.922-1.534 1.169-.639.252-1.351.378-2.135.378Zm-.051-5.395c.605 0 1.117-.139 1.534-.416.418-.277.735-.675.953-1.195.217-.52.326-1.142.326-1.867 0-.707-.107-1.331-.32-1.872-.213-.542-.528-.966-.946-1.272-.418-.307-.933-.461-1.547-.461-.639 0-1.172.162-1.598.486-.422.324-.739.759-.952 1.304a5.04 5.04 0 0 0-.314 1.815c0 .682.107 1.285.32 1.809.217.52.537.929.959 1.228.426.294.954.441 1.585.441Zm11.173 1.713c-.946 0-1.762-.209-2.448-.627a4.207 4.207 0 0 1-1.579-1.764c-.366-.758-.549-1.64-.549-2.646s.183-1.892.549-2.659c.371-.772.887-1.372 1.547-1.803.665-.434 1.441-.652 2.327-.652.511 0 1.016.085 1.515.256.498.17.952.447 1.361.831.409.379.735.882.978 1.508.243.627.365 1.398.365 2.314v.64h-7.568v-1.304h6.034c0-.554-.111-1.049-.333-1.483a2.505 2.505 0 0 0-.933-1.03c-.401-.251-.874-.377-1.419-.377-.601 0-1.121.149-1.56.448a2.942 2.942 0 0 0-1.003 1.15c-.235.473-.352.98-.352 1.522v.869c0 .741.128 1.37.384 1.886.26.511.62.901 1.08 1.169.46.265.995.397 1.604.397.397 0 .755-.056 1.074-.167.324-.115.603-.285.838-.511.234-.23.415-.516.543-.856l1.457.409a3.23 3.23 0 0 1-.773 1.304c-.362.37-.81.66-1.342.869-.533.205-1.132.307-1.797.307ZM156.516 970.43v-1.994l4.66-4.315c.396-.383.728-.728.997-1.035.273-.307.479-.608.62-.902.141-.298.211-.62.211-.965 0-.383-.087-.714-.262-.991a1.725 1.725 0 0 0-.716-.645 2.239 2.239 0 0 0-1.029-.23c-.401 0-.75.081-1.049.243a1.677 1.677 0 0 0-.69.696c-.162.303-.243.663-.243 1.081h-2.627c0-.857.194-1.6.582-2.231a3.883 3.883 0 0 1 1.63-1.464c.699-.345 1.504-.518 2.416-.518.937 0 1.754.166 2.448.499.699.328 1.242.784 1.63 1.368.388.584.582 1.253.582 2.007 0 .494-.098.982-.294 1.464-.192.481-.535 1.016-1.029 1.604-.495.584-1.191 1.285-2.091 2.103l-1.911 1.873v.089h5.497v2.263h-9.332Zm16.471.288c-1.1-.004-2.046-.275-2.838-.812-.789-.537-1.396-1.315-1.822-2.333-.422-1.019-.631-2.244-.627-3.675 0-1.428.211-2.645.633-3.65.426-1.006 1.034-1.771 1.822-2.295.793-.529 1.736-.793 2.832-.793 1.095 0 2.037.264 2.825.793.793.528 1.402 1.295 1.828 2.301.426 1.001.637 2.216.633 3.644 0 1.436-.213 2.663-.639 3.681-.422 1.019-1.027 1.796-1.816 2.333-.788.537-1.732.806-2.831.806Zm0-2.295c.75 0 1.348-.377 1.796-1.131.447-.755.669-1.886.665-3.394 0-.993-.103-1.82-.307-2.481-.201-.66-.486-1.157-.857-1.489a1.869 1.869 0 0 0-1.297-.499c-.746 0-1.343.373-1.79 1.119-.448.746-.673 1.862-.678 3.35 0 1.005.1 1.845.301 2.518.204.669.492 1.172.863 1.508.37.333.805.499 1.304.499Zm12.955-11.084v13.091h-2.768v-10.464h-.077l-2.998 1.88v-2.455l3.241-2.052h2.602Zm7.995 13.27c-.985 0-1.861-.16-2.628-.479-.762-.324-1.361-.765-1.796-1.323a3.014 3.014 0 0 1-.652-1.899c0-.545.124-1.046.371-1.502.251-.46.592-.842 1.023-1.144.43-.307.912-.503 1.444-.588v-.09a2.837 2.837 0 0 1-1.7-1.016 2.922 2.922 0 0 1-.652-1.886c0-.677.198-1.28.595-1.809.396-.532.939-.95 1.63-1.252.694-.307 1.482-.461 2.365-.461.882 0 1.668.154 2.358.461.695.306 1.24.726 1.637 1.259.396.528.596 1.129.6 1.802a2.917 2.917 0 0 1-.664 1.886 2.855 2.855 0 0 1-1.688 1.016v.09a3.32 3.32 0 0 1 1.426.588c.43.302.771.684 1.022 1.144.256.456.386.957.39 1.502a3.038 3.038 0 0 1-.658 1.899c-.435.558-1.036.999-1.803 1.323-.762.319-1.636.479-2.62.479Zm0-2.033c.439 0 .822-.078 1.15-.236.328-.162.584-.384.767-.665.188-.285.281-.613.281-.984 0-.379-.095-.714-.287-1.004a1.978 1.978 0 0 0-.78-.69 2.411 2.411 0 0 0-1.131-.256c-.422 0-.799.085-1.132.256a1.969 1.969 0 0 0-.786.69c-.188.29-.281.625-.281 1.004 0 .371.091.699.275.984.183.281.441.503.773.665a2.65 2.65 0 0 0 1.151.236Zm0-5.848c.366 0 .692-.075.978-.224.285-.149.509-.356.671-.62.162-.264.243-.569.243-.914a1.637 1.637 0 0 0-.908-1.502 2.07 2.07 0 0 0-.984-.224 2.1 2.1 0 0 0-.985.224 1.658 1.658 0 0 0-.671.607 1.668 1.668 0 0 0-.236.895c0 .345.081.65.242.914.162.264.386.471.672.62.285.149.611.224.978.224Zm-46.894 18.018v-1.407h9.818v1.407h-4.116v11.684h-1.586v-11.684h-4.116Zm13.569 5.778v5.906h-1.509v-13.091h1.509v4.807h.127c.231-.507.576-.91 1.036-1.208.464-.303 1.082-.454 1.854-.454.669 0 1.255.134 1.758.403.502.264.892.671 1.169 1.221.282.545.422 1.24.422 2.084v6.238h-1.508v-6.136c0-.78-.203-1.383-.608-1.809-.4-.431-.956-.646-1.668-.646-.494 0-.937.105-1.33.313a2.294 2.294 0 0 0-.92.915c-.222.4-.332.886-.332 1.457Zm12.015 6.136a3.996 3.996 0 0 1-1.694-.351 2.911 2.911 0 0 1-1.208-1.029c-.298-.452-.447-.998-.447-1.637 0-.562.11-1.018.332-1.368a2.36 2.36 0 0 1 .889-.831c.37-.2.779-.349 1.227-.447a15.16 15.16 0 0 1 1.361-.243 64.64 64.64 0 0 1 1.451-.173c.375-.042.648-.112.819-.21.174-.098.262-.269.262-.512v-.051c0-.631-.173-1.121-.518-1.47-.341-.35-.859-.524-1.553-.524-.721 0-1.285.157-1.694.473-.409.315-.697.652-.863 1.01l-1.432-.512c.256-.596.597-1.061 1.023-1.393.43-.337.899-.571 1.406-.703a5.808 5.808 0 0 1 1.508-.205c.316 0 .678.039 1.087.115.413.073.812.224 1.195.454.388.23.71.577.966 1.042.255.464.383 1.087.383 1.866v6.469h-1.508v-1.329h-.077c-.102.213-.273.441-.511.684-.239.242-.557.449-.953.62-.396.17-.88.255-1.451.255Zm.23-1.355c.597 0 1.1-.117 1.509-.351a2.4 2.4 0 0 0 1.253-2.078v-1.38c-.064.076-.205.147-.422.21a7.08 7.08 0 0 1-.742.16c-.277.043-.547.081-.812.115-.26.03-.47.056-.632.077a5.765 5.765 0 0 0-1.1.249 1.9 1.9 0 0 0-.818.505c-.205.222-.307.524-.307.908 0 .524.194.92.582 1.189.392.264.888.396 1.489.396Zm8.532-4.781v5.906h-1.509v-9.818h1.458v1.534h.128c.23-.498.579-.899 1.048-1.202.469-.306 1.074-.46 1.815-.46.665 0 1.247.137 1.745.409.499.269.887.678 1.164 1.228.277.545.415 1.235.415 2.071v6.238h-1.508v-6.136c0-.771-.201-1.372-.601-1.803-.401-.434-.95-.652-1.649-.652-.482 0-.912.105-1.292.313a2.239 2.239 0 0 0-.888.915c-.217.4-.326.886-.326 1.457Zm13.009 6.111c-.886 0-1.664-.211-2.333-.633-.664-.422-1.184-1.012-1.559-1.771-.371-.758-.556-1.645-.556-2.659 0-1.023.185-1.915.556-2.678.375-.763.895-1.355 1.559-1.777.669-.422 1.447-.633 2.333-.633.887 0 1.662.211 2.327.633.669.422 1.189 1.014 1.56 1.777.375.763.562 1.655.562 2.678 0 1.014-.187 1.901-.562 2.659-.371.759-.891 1.349-1.56 1.771-.665.422-1.44.633-2.327.633Zm0-1.355c.674 0 1.228-.173 1.662-.518a3.05 3.05 0 0 0 .966-1.362 5.23 5.23 0 0 0 .313-1.828 5.28 5.28 0 0 0-.313-1.834 3.096 3.096 0 0 0-.966-1.375c-.434-.349-.988-.524-1.662-.524-.673 0-1.227.175-1.662.524-.434.35-.756.808-.965 1.375a5.256 5.256 0 0 0-.313 1.834c0 .656.104 1.266.313 1.828.209.563.531 1.017.965 1.362.435.345.989.518 1.662.518Zm13.707-6.469-1.356.383a2.498 2.498 0 0 0-.377-.658 1.838 1.838 0 0 0-.664-.537c-.282-.141-.642-.211-1.081-.211-.601 0-1.101.139-1.502.416-.396.272-.594.62-.594 1.042 0 .375.136.671.409.888.273.217.699.398 1.278.543l1.458.358c.877.213 1.532.539 1.962.978.43.435.646.995.646 1.681 0 .563-.162 1.066-.486 1.509-.32.443-.767.793-1.343 1.048-.575.256-1.244.384-2.007.384-1.001 0-1.83-.218-2.486-.652-.656-.435-1.072-1.07-1.247-1.905l1.432-.358c.137.528.394.925.774 1.189.383.264.884.396 1.502.396.703 0 1.261-.149 1.674-.447.418-.303.627-.665.627-1.087a1.14 1.14 0 0 0-.358-.856c-.239-.235-.605-.41-1.1-.525l-1.636-.383c-.899-.213-1.56-.543-1.981-.991-.418-.452-.627-1.016-.627-1.694 0-.554.156-1.044.467-1.47.315-.426.743-.761 1.285-1.004.545-.242 1.163-.364 1.853-.364.972 0 1.735.213 2.289.639.558.426.954.989 1.189 1.688Zm-101.601 29.619h-1.662l4.807-13.09h1.636l4.807 13.09h-1.662l-3.912-11.02h-.102l-3.912 11.02Zm.613-5.11h6.699v1.4h-6.699v-1.4Zm17.607-4.71-3.63 9.82h-1.534l-3.631-9.82h1.636l2.71 7.83h.103l2.71-7.83h1.636Zm5.756 10.02c-.946 0-1.762-.2-2.448-.62-.682-.42-1.208-1.01-1.579-1.77-.366-.75-.549-1.64-.549-2.64 0-1.01.183-1.89.549-2.66.371-.77.887-1.37 1.547-1.8.665-.44 1.441-.66 2.327-.66.511 0 1.016.09 1.515.26.498.17.952.45 1.361.83.409.38.735.88.978 1.51s.365 1.4.365 2.31v.64h-7.568v-1.3h6.034c0-.56-.111-1.05-.333-1.48a2.462 2.462 0 0 0-.933-1.03c-.401-.26-.874-.38-1.419-.38-.601 0-1.121.15-1.56.45-.434.29-.769.67-1.003 1.15-.235.47-.352.98-.352 1.52v.87c0 .74.128 1.37.384 1.88.26.51.62.9 1.08 1.17.46.27.995.4 1.604.4.397 0 .755-.06 1.074-.17.324-.11.603-.28.838-.51.234-.23.415-.51.543-.85l1.457.4c-.153.5-.411.93-.773 1.31a3.8 3.8 0 0 1-1.342.87c-.533.2-1.132.3-1.797.3Zm7.869-6.11v5.91h-1.509v-9.82h1.458v1.54h.128c.23-.5.579-.9 1.048-1.21.469-.3 1.074-.46 1.815-.46.665 0 1.247.14 1.745.41.499.27.887.68 1.164 1.23.277.55.415 1.24.415 2.07v6.24h-1.508v-6.14c0-.77-.201-1.37-.601-1.8-.401-.43-.95-.65-1.649-.65-.482 0-.912.1-1.292.31-.375.21-.671.52-.888.92-.217.4-.326.88-.326 1.45Zm12.984 9.8c-.729 0-1.355-.1-1.879-.28-.525-.19-.961-.43-1.311-.73a4.03 4.03 0 0 1-.824-.96l1.201-.85c.137.18.309.39.518.62.209.23.494.43.857.6.366.18.845.27 1.438.27.792 0 1.447-.19 1.962-.58.516-.38.774-.98.774-1.8v-2h-.128c-.111.18-.269.41-.473.67-.201.26-.49.49-.87.7-.375.2-.882.3-1.521.3-.792 0-1.504-.19-2.135-.57-.626-.37-1.123-.92-1.489-1.63-.362-.72-.543-1.59-.543-2.61 0-1.01.176-1.88.53-2.63.354-.75.846-1.33 1.477-1.74.63-.41 1.359-.62 2.186-.62.639 0 1.146.11 1.521.32.379.21.669.45.869.72.205.26.363.48.473.65h.154v-1.56h1.457v10.1c0 .85-.192 1.53-.575 2.06-.379.53-.891.92-1.534 1.17-.639.25-1.351.38-2.135.38Zm-.051-5.4c.605 0 1.116-.14 1.534-.41.417-.28.735-.68.952-1.2.218-.52.326-1.14.326-1.87 0-.7-.106-1.33-.319-1.87-.214-.54-.529-.96-.946-1.27-.418-.31-.934-.46-1.547-.46-.64 0-1.172.16-1.598.49-.422.32-.74.75-.953 1.3a5.005 5.005 0 0 0-.313 1.81c0 .69.107 1.29.32 1.81.217.52.537.93.958 1.23.427.29.955.44 1.586.44Zm11.173 1.71c-.946 0-1.762-.2-2.448-.62-.682-.42-1.208-1.01-1.579-1.77-.367-.75-.55-1.64-.55-2.64 0-1.01.183-1.89.55-2.66.371-.77.886-1.37 1.547-1.8.665-.44 1.44-.66 2.327-.66.511 0 1.016.09 1.514.26.499.17.953.45 1.362.83.409.38.735.88.978 1.51s.364 1.4.364 2.31v.64h-7.568v-1.3h6.034c0-.56-.111-1.05-.332-1.48a2.475 2.475 0 0 0-.933-1.03c-.401-.26-.874-.38-1.419-.38-.601 0-1.121.15-1.56.45a2.87 2.87 0 0 0-1.004 1.15c-.234.47-.351.98-.351 1.52v.87c0 .74.128 1.37.383 1.88.26.51.62.9 1.081 1.17.46.27.995.4 1.604.4.396 0 .754-.06 1.074-.17.324-.11.603-.28.837-.51.235-.23.416-.51.544-.85l1.457.4c-.154.5-.411.93-.774 1.31-.362.37-.809.66-1.342.87-.533.2-1.131.3-1.796.3Zm6.36-.2v-9.82h1.457v1.48h.103c.179-.48.503-.88.971-1.18.469-.3.997-.45 1.586-.45h.415c.166.01.292.02.377.02v1.54c-.051-.01-.168-.03-.351-.06a3.458 3.458 0 0 0-.569-.04c-.478 0-.904.1-1.279.3-.37.19-.664.47-.882.81-.213.35-.319.74-.319 1.19v6.21h-1.509Zm13.652-7.62-1.355.38a2.518 2.518 0 0 0-.377-.65c-.162-.22-.384-.4-.665-.54s-.641-.21-1.08-.21c-.601 0-1.102.14-1.503.41-.396.28-.594.62-.594 1.05 0 .37.136.67.409.88.273.22.699.4 1.278.55l1.458.36c.878.21 1.532.53 1.962.97.431.44.646 1 .646 1.68 0 .57-.162 1.07-.486 1.51-.32.45-.767.8-1.342 1.05-.576.26-1.245.38-2.007.38-1.002 0-1.831-.21-2.487-.65-.656-.43-1.072-1.07-1.246-1.9l1.431-.36c.137.53.395.92.774 1.19.383.26.884.4 1.502.4.703 0 1.261-.15 1.675-.45.417-.3.626-.67.626-1.09 0-.34-.119-.63-.358-.86-.238-.23-.605-.4-1.099-.52l-1.637-.38c-.899-.22-1.559-.55-1.981-.99-.418-.46-.627-1.02-.627-1.7 0-.55.156-1.04.467-1.47.315-.42.744-.76 1.285-1a4.557 4.557 0 0 1 1.854-.37c.971 0 1.734.22 2.288.64.558.43.954.99 1.189 1.69Zm3.549 7.72c-.315 0-.586-.11-.812-.34a1.086 1.086 0 0 1-.339-.81c0-.31.113-.58.339-.81.226-.23.497-.34.812-.34.315 0 .586.11.812.34.226.23.339.5.339.81 0 .21-.054.4-.16.58-.102.17-.241.31-.416.42-.17.1-.362.15-.575.15Zm0-7.28c-.315 0-.586-.12-.812-.34-.226-.23-.339-.5-.339-.82 0-.31.113-.58.339-.81.226-.22.497-.34.812-.34.315 0 .586.12.812.34.226.23.339.5.339.81 0 .21-.054.41-.16.58a1.17 1.17 0 0 1-.416.42c-.17.1-.362.16-.575.16Zm10.71-5.91v13.09h-1.585v-13.09h1.585Zm4.482 7.18v5.91H199.7v-9.82h1.457v1.54h.128c.23-.5.58-.9 1.048-1.21.469-.3 1.074-.46 1.816-.46.664 0 1.246.14 1.745.41.498.27.886.68 1.163 1.23.277.55.416 1.24.416 2.07v6.24h-1.509v-6.14c0-.77-.2-1.37-.601-1.8-.4-.43-.95-.65-1.649-.65-.482 0-.912.1-1.291.31-.375.21-.671.52-.889.92-.217.4-.326.88-.326 1.45Zm13.393-3.91v1.28h-5.292v-1.28h5.292Zm-3.707 9.82v-11.17c0-.57.132-1.03.396-1.41.264-.37.607-.66 1.029-.84.422-.19.867-.28 1.336-.28a3.76 3.76 0 0 1 1.432.25l-.435 1.31c-.076-.03-.183-.06-.319-.1a1.862 1.862 0 0 0-.524-.06c-.499 0-.859.13-1.081.38-.217.25-.326.62-.326 1.1v10.82h-1.508Zm5.821 0v-9.82h1.509v9.82h-1.509Zm.767-11.45c-.294 0-.547-.1-.76-.3a.998.998 0 0 1-.313-.73c0-.28.104-.52.313-.72.213-.2.466-.3.76-.3.295 0 .546.1.755.3.213.2.319.44.319.72a.99.99 0 0 1-.319.73c-.209.2-.46.3-.755.3Zm5.013 5.54v5.91h-1.508v-9.82h1.457v1.54h.128c.23-.5.58-.9 1.048-1.21.469-.3 1.074-.46 1.816-.46.665 0 1.246.14 1.745.41.498.27.886.68 1.163 1.23.277.55.416 1.24.416 2.07v6.24h-1.509v-6.14c0-.77-.2-1.37-.601-1.8-.4-.43-.95-.65-1.649-.65-.481 0-.912.1-1.291.31-.375.21-.671.52-.889.92-.217.4-.326.88-.326 1.45Zm9.021 5.91v-9.82h1.509v9.82h-1.509Zm.767-11.45c-.294 0-.547-.1-.76-.3a1 1 0 0 1-.314-.73c0-.28.105-.52.314-.72.213-.2.466-.3.76-.3s.546.1.755.3c.213.2.319.44.319.72a.99.99 0 0 1-.319.73c-.209.2-.461.3-.755.3Zm7.775 1.63v1.28h-5.088v-1.28h5.088Zm-3.606-2.35h1.509v9.36c0 .42.062.74.185.96.128.21.29.35.486.42.2.07.411.1.633.1.166 0 .303-.01.409-.02.107-.03.192-.04.256-.06l.307 1.36c-.103.04-.245.08-.429.11-.183.05-.415.07-.696.07-.427 0-.844-.09-1.253-.28a2.48 2.48 0 0 1-1.01-.83c-.264-.38-.397-.85-.397-1.42v-9.77Zm6.846 15.85c-.255 0-.483-.02-.684-.06-.2-.04-.338-.08-.415-.12l.383-1.33c.367.1.691.13.972.11.281-.03.531-.16.748-.38.222-.22.424-.58.607-1.08l.281-.77-3.63-9.87h1.636l2.71 7.83h.103l2.71-7.83h1.636l-4.167 11.25c-.188.51-.42.93-.697 1.26-.277.34-.599.59-.965.75-.363.16-.772.24-1.228.24Zm-78.167 18.32-3.58-13.09h1.611l2.736 10.66h.128l2.787-10.66h1.789l2.787 10.66h.128l2.736-10.66h1.611l-3.58 13.09h-1.636l-2.889-10.43h-.103l-2.889 10.43h-1.636Zm16.479.23c-.623 0-1.187-.12-1.694-.35-.507-.24-.91-.58-1.208-1.03-.299-.45-.448-1-.448-1.64 0-.56.111-1.02.332-1.36.222-.36.518-.64.889-.84.371-.2.78-.35 1.227-.44.452-.11.906-.19 1.362-.25.596-.07 1.08-.13 1.451-.17.375-.04.647-.11.818-.21.175-.1.262-.27.262-.51v-.05c0-.63-.173-1.12-.518-1.47-.341-.35-.858-.53-1.553-.53-.72 0-1.285.16-1.694.48-.409.31-.697.65-.863 1.01l-1.432-.51c.256-.6.597-1.07 1.023-1.4.43-.33.899-.57 1.406-.7a5.705 5.705 0 0 1 1.509-.21c.315 0 .677.04 1.086.12.414.07.812.22 1.196.45.388.23.709.58.965 1.04.256.47.384 1.09.384 1.87v6.47h-1.509v-1.33h-.077a2.63 2.63 0 0 1-.511.68c-.239.25-.556.45-.952.62-.397.18-.88.26-1.451.26Zm.23-1.35c.596 0 1.099-.12 1.508-.36.414-.23.725-.53.933-.9.213-.37.32-.76.32-1.17v-1.38c-.064.07-.205.14-.422.21-.213.06-.46.11-.741.16-.277.04-.548.08-.812.11-.26.03-.471.06-.633.08-.392.05-.758.13-1.099.25-.337.11-.61.28-.819.5-.204.22-.306.53-.306.91 0 .52.194.92.581 1.19.392.26.889.4 1.49.4Zm7.023 1.12v-9.82h1.457v1.48h.103c.179-.48.502-.88.971-1.18.469-.3.997-.45 1.585-.45h.416c.166.01.292.02.377.02v1.54c-.051-.01-.168-.03-.352-.06a3.446 3.446 0 0 0-.568-.04c-.478 0-.904.1-1.279.3-.371.19-.665.47-.882.81-.213.35-.32.74-.32 1.19v6.21h-1.508Z"/>
</svg>
